<!-- by TradingView --><svg width="18" height="18" viewBox="0 0 18 18" xmlns="http://www.w3.org/2000/svg"><path fill="url(#a)" d="M0 0h18v18H0z"/><path d="M9.55 4.08c-.14-.04-.26-.04-.34 0-.16.1-.31.27-.45.52L7.13 7.64a.62.62 0 0 1-.13.17l-.02.01-.1.02a2095.06 2095.06 0 0 1 1.8-3.3c.15-.25.32-.42.51-.5a.32.32 0 0 1 .36.04Z" fill="#FFFFF6"/><path d="M9.55 4.08c.04.02.07.08.1.17l-.02.13a1.2 1.2 0 0 1-.08.38L8.5 7.21a.56.56 0 0 0-.02.42c.02.1.09.18.2.25.18.05.34-.01.5-.18l2-2.25c.07-.07.14-.14.23-.2.1-.08.2-.1.33-.1a.2.2 0 0 1 .07.04c.03.02.06.02.08.02.06.06.09.15.09.25-.04.18-.12.34-.25.49L9.62 8.4c-.07.08-.1.17-.05.26.02.07.07.11.14.12-.01.01 0 .02.03.02l.02-.01.16-.14h.01l.02-.02a.6.6 0 0 1 .14-.1l.03-.03a4.23 4.23 0 0 1 .39-.33 54.82 54.82 0 0 1 1.82-1.48.78.78 0 0 1 .34-.09c.12.03.2.13.24.3a.62.62 0 0 1-.2.37l-2.66 2.4a.37.37 0 0 0-.14.26c0 .04.02.07.06.09l.1.05c.01.02.05.03.1.02a9.1 9.1 0 0 1 .33-.02c.01 0 .02 0 .03-.02a2.82 2.82 0 0 1 2.28-.34c.04 0 .08.02.14.08l.05.1a.76.76 0 0 1-.48.38c-1.01.27-1.86.5-2.54.7-.12.03-.2.08-.24.15l-.16.3a2.44 2.44 0 0 1-2.87 1.1c-.61-.2-1.1-.58-1.44-1.15l-.15-.24a1.32 1.32 0 0 1-.1-.37c-.07-.6.03-1.16.32-1.67.28-.51.7-.88 1.23-1.11l.16-.06a.65.65 0 0 0 .15-.08l.1-.02H7c.05-.05.1-.1.13-.18L8.76 4.6c.14-.25.29-.42.45-.51.09-.05.2-.05.34 0Z" fill="#FEB801"/><path d="M8.47 7.63a.56.56 0 0 1 .02-.42l1.06-2.45c.04-.1.07-.22.08-.38l.02-.13a.7.7 0 0 1 0 .4 2.67 2.67 0 0 1-.14.4l-1 2.33a.93.93 0 0 0-.04.25ZM9.57 8.66c-.04-.09-.02-.18.05-.26l2.1-2.45c.13-.15.21-.31.25-.49a.67.67 0 0 1-.08.4c-.04.08-.13.19-.25.33l-.05.06L9.6 8.57a.27.27 0 0 0-.03.1ZM9.97 10.02c-.04-.02-.06-.05-.06-.09 0-.1.05-.19.14-.26l2.65-2.4c.12-.1.19-.23.21-.38.05.2 0 .37-.15.5l-2.71 2.45c-.05.03-.07.1-.08.18Z" fill="#6D5004"/><path d="M6.11 8.52c.17-.14.27-.28.24-.33-.03-.04-.2.04-.36.17-.16.14-.27.29-.24.33.04.05.2-.03.36-.17Z" fill="#FFFFF6"/><path d="M8.75 9.67h.01a681.8 681.8 0 0 1 .64.7l-.21.22h-.01a.02.02 0 0 1-.02 0 94.38 94.38 0 0 0-.42-.41 102.91 102.91 0 0 0-.42.41l-.22-.23v-.02a1295.16 1295.16 0 0 1 .65-.67ZM6.2 10.26a89.02 89.02 0 0 0-.43.42l-.22-.23v-.02a387.62 387.62 0 0 1 .66-.68 488.19 488.19 0 0 1 .64.7l-.21.23h-.01a.02.02 0 0 1-.02 0 94.38 94.38 0 0 0-.4-.42Z" fill="#0A0D12"/><path d="m5.13 11.13.14.24c.35.57.83.95 1.44 1.15a2.44 2.44 0 0 0 3.04-1.4c.03-.07.11-.12.23-.16l2.54-.7A.76.76 0 0 0 13 9.9c0 .23-.13.38-.38.46a637.44 637.44 0 0 1-2.79.85 2.52 2.52 0 0 1-1.75 1.71c-.56.16-1.1.1-1.62-.14a2.52 2.52 0 0 1-1.19-1.19c-.07-.14-.12-.3-.14-.45Z" fill="#6D5004"/><path d="m8.74 10.55-.22.23v.03l.22.23h.03l.22-.23v-.03l-.22-.23h-.03ZM6.44 10.86l-.22-.23h-.03l-.22.23v.03l.22.23h.03l.22-.23v-.03ZM7.78 11.03h-.6l-.02.02v.17c0 .01 0 .02.02.02h.6s.02 0 .02-.02v-.17l-.02-.02Z" fill="#0A0D12"/><defs><linearGradient id="a" x1="3.35" y1="3.12" x2="21.9" y2="24.43" gradientUnits="userSpaceOnUse"><stop stop-color="#1A1E21"/><stop offset="1" stop-color="#06060A"/></linearGradient></defs></svg>