<!-- by TradingView --><svg width="18" height="18" viewBox="0 0 18 18" fill="none" xmlns="http://www.w3.org/2000/svg"><path fill="#F0F3FA" d="M0 0h18v18H0z"/><path d="m14.7 9-2.84 4.75H6.14L3.3 9l2.85-4.75h5.72L14.7 9Z" stroke="#070707" stroke-width=".5"/><path fill-rule="evenodd" d="M7.85 6C9 6 9.6 7.5 9.95 8.6l.97-2.43c.04-.1.13-.17.23-.17.03 0 .07 0 .1.03a.3.3 0 0 1 .15.25c0 .04 0 .1-.02.14L10.2 9.38c.1.35.34 2.06.8 2.06.23 0 .42-.26.55-.45a.24.24 0 0 1 .2-.12c.06 0 .11.03.16.07.1.1.12.29.03.42-.24.35-.54.64-.95.64-.66 0-.96-1.2-1.13-1.8-.59 1.17-1.47 1.8-2.12 1.8C6.67 12 6 10.33 6 9.24 6 8 6.56 6 7.85 6ZM9.6 9.38c-.5 1.39-1.33 2.06-1.86 2.06-.79 0-1.31-1.45-1.31-2.2 0-.87.45-2.68 1.42-2.68 1.06 0 1.5 1.87 1.75 2.82Z" fill="#070707"/></svg>