<!-- by TradingView --><svg width="18" height="18" viewBox="0 0 18 18" xmlns="http://www.w3.org/2000/svg"><path fill="#7C7C7C" d="M0 0h18v18H0z"/><path d="M7.4 4 9 5.6 10.6 4H14v3.38L12.38 9 14 10.62V14h-3.4L9 12.4 7.4 14H4v-3.38L5.61 9 4 7.38V4h3.4Z" fill="#AAA"/><path d="m11 9.6-.08.24a2.95 2.95 0 0 1-.59.95.6.6 0 0 1-.42.2.98.98 0 0 1-.4-.1c-.14-.07-.28-.1-.41-.1-.14 0-.28.03-.43.1-.16.07-.28.1-.38.1-.14.02-.29-.05-.43-.2A3.27 3.27 0 0 1 7 8.59c0-.35.07-.66.2-.91.11-.2.26-.37.44-.48.18-.12.38-.18.58-.19.12 0 .27.04.46.12.18.08.3.12.35.12a2 2 0 0 0 .4-.14c.22-.09.4-.12.54-.1.4.03.7.2.9.52-.35.23-.53.57-.53 1A1.16 1.16 0 0 0 11 9.6Z" fill="#fff"/><path d="M10 6.08V6c-.13 0-.25.04-.39.1-.13.06-.25.13-.33.22a.87.87 0 0 0-.28.6V7c.28.02.53-.1.74-.32a.85.85 0 0 0 .26-.6Z" fill="#fff"/></svg>