<!-- by TradingView --><svg width="18" height="18" viewBox="0 0 18 18" xmlns="http://www.w3.org/2000/svg"><path fill="url(#a13ikiliu)" d="M0 0h18v18H0z"/><path d="M10.03 2a3.45 3.45 0 0 1 .65 1.77 4.9 4.9 0 0 1-.23 1.89l-.08-.06a1.97 1.97 0 0 0-.57-.29.83.83 0 0 0-.33-.48.91.91 0 0 0-.47-.14.86.86 0 0 0-.47.14.82.82 0 0 0-.33.48c-.2.07-.4.17-.57.3l-.08.05a4.95 4.95 0 0 1-.23-1.89A3.41 3.41 0 0 1 7.97 2a4.45 4.45 0 0 0-1.85 2.02l-.02.04a2.25 2.25 0 0 0-.06 1.78c-.24.18-.35.45-.35.8 0 .38.15.7.44 1l-.22.6c-.71.03-1.2.37-1.48 1.02L4 10.43l.23.16c.18-.16.38-.3.58-.41.4-.23.7-.32.85-.26l-.7 1.12.11.08-.55.74.11.12-.46.93c-.02.2.02.43.13.67.1.25.27.48.48.69.5.5 1.09.74 1.77.73.14-.03.25-.06.34-.11l.14-.1-.01-.02a.67.67 0 0 1-.05-.08l-.1-.2a3.16 3.16 0 0 1-.1-2c.12.55.37 1.01.77 1.4.35.34.8.6 1.32.76l.12.03h.03c.05 0 .09-.02.13-.03.52-.16.97-.42 1.32-.76.4-.39.65-.85.76-1.4a3 3 0 0 1-.24 2.28l-.01.02c.11.1.27.17.47.21h.01c.68.01 1.27-.23 1.77-.73.2-.21.37-.44.48-.69.1-.24.15-.47.12-.67l-.45-.93.1-.12-.55-.74.12-.08-.7-1.12c.16-.06.44.03.85.26.21.12.4.26.58.4l.23-.15-.43-1.17c-.27-.65-.77-1-1.49-1.03a9.8 9.8 0 0 0-.2-.59c.27-.3.42-.62.43-1 0-.35-.11-.62-.35-.8.23-.54.2-1.13-.06-1.78l-.02-.04a4.55 4.55 0 0 0-.94-1.33l-.13-.12a4.05 4.05 0 0 0-.78-.57Z"/><path d="M9.56 5.58a2.17 2.17 0 0 0-.22-.04c.33.47.47 1 .41 1.56v.04l-.05.28-.01.04v.04l-.15-.04a1.99 1.99 0 0 0-1.06 0l-.15.04v-.04l-.02-.04a2.32 2.32 0 0 1-.04-.28V7.1c-.07-.57.08-1.09.4-1.56l-.22.04c-.2.05-.41.14-.6.25l-.04.03-.04.03c-.13.08-.25.19-.37.3l-.01.02a5.68 5.68 0 0 0-1.15 2.05l.26.13.46.2a5.68 5.68 0 0 0 2.1.4 5.68 5.68 0 0 0 2.71-.73 5.72 5.72 0 0 0-1.14-2.05l-.02-.02a2.74 2.74 0 0 0-.37-.3l-.04-.03-.03-.03c-.2-.11-.4-.2-.6-.25" fill="#FF0A1C"/><path d="M9.21 5.65a1.77 1.77 0 0 0-.07-.11h-.26l-.08.1h.41Zm.33 1.6a2.23 2.23 0 0 0-.33-1.6h-.4a2.22 2.22 0 0 0-.33 1.6c.17-.05.35-.08.53-.08.18 0 .35.03.53.07ZM9 5c-.28.05-.46.19-.53.42.07-.22.25-.32.53-.31.28-.01.45.1.53.31-.08-.23-.25-.37-.53-.42Z" fill="#FF0A1C"/><path d="M9 5.12c-.27-.01-.45.1-.52.31.17-.03.35-.04.53-.03.17-.01.35 0 .53.03-.08-.22-.25-.32-.53-.31Zm-1.52 4.91c.14.19.35.24.62.15a1.22 1.22 0 0 0-.62-.15Z" fill="#FF0A1C"/><path d="M8.1 10.74c-.22.02-.4-.02-.52-.11.15.02.3 0 .45-.05.14-.05.3-.13.44-.25-.54.2-1 .12-1.4-.25 0-.02-.02-.03-.04-.05v.07c-.03.47.08.78.32.9.26.14.5.05.74-.26Zm.5-.15c.01.06.03.12.08.17.09.13.13.26.12.39-.08-.2-.2-.32-.37-.37a.35.35 0 0 0-.19 0c-.07.02-.12.08-.16.17a.3.3 0 0 0 .04.3c.07.1.17.15.32.16a.42.42 0 0 1 0-.25v-.04c.03-.02.06-.01.1.02.05.04.08.1.09.2.02.25.15.39.38.4.23-.01.35-.15.38-.4 0-.1.03-.16.08-.2.05-.03.08-.04.1-.02v.03h.01c.02.1.02.18 0 .26.14 0 .25-.05.32-.15a.3.3 0 0 0 .03-.3c-.03-.1-.09-.16-.16-.18a.35.35 0 0 0-.19 0c-.17.05-.29.17-.37.37a.6.6 0 0 1 .13-.39.34.34 0 0 0 .07-.17.2.2 0 0 0-.05-.13c-.1-.1-.2-.07-.35.06-.15-.13-.26-.15-.35-.06a.18.18 0 0 0-.05.13Z" fill="#FF0A1C"/><path d="M7.3 9.7a6.14 6.14 0 0 0 3.4 0c.53-.14.8-.44.84-.9v-.14c-.9.37-1.74.55-2.53.55-.8 0-1.64-.18-2.54-.55V8.8c.04.45.31.75.84.9Z" fill="#E9A043"/><path d="M6.24 8.7v-.14c-.58-.02-1 .13-1.27.43-.11.11-.2.25-.26.42l-.23.64c.35-.32.7-.48 1.07-.48.36 0 .6.2.7.59.1.4.09 1-.04 1.8-.2 1.19-.09 2.1.29 2.71v-.37c-.69-1.43.65-3.07-.02-4.5H7c-.5-.17-.74-.57-.76-1.1Z" fill="#FF0A1C"/><path d="M6.48 12v-.01.01Zm-.43-1.82-.02-.05a.59.59 0 0 0-.05-.1l-.6.98c.11.07.22.15.31.23l.18.18.07.1.08.14c.11-.68.12-1.18.03-1.48Zm-.16 1.55-.07-.1a1.6 1.6 0 0 0-.45-.4l-.44.63a7.82 7.82 0 0 0 .63.98l.18.23.12.14c0-.39.03-.82.12-1.3v-.02a1.46 1.46 0 0 0-.09-.16Zm2.4-.11a5.74 5.74 0 0 0-.11-.03c-.54-.1-.83.05-.87.45-.07.57.04 1 .32 1.29l.02-.01c-.07-.13-.07-.34-.02-.64l.12-.6a.67.67 0 0 1 .55-.46Z" fill="#FF0A1C"/><path d="M7.67 13.35a.08.08 0 0 0-.03-.03c0 .02.01.03.02.03Zm.28-.75v-.02l-.07.37c-.02.55.36.97 1.13 1.27.77-.3 1.14-.72 1.12-1.26v-.01l-.06-.37v.07a.54.54 0 0 1-.08.2c-.09.14-.26.22-.52.23H9.2v.32c0 .1-.01.18-.04.23l-.02.02a.15.15 0 0 1-.06.05l-.07.03-.08-.03a.14.14 0 0 1-.06-.05l-.01-.02a.43.43 0 0 1-.05-.23v-.31h-.27c-.25-.02-.43-.1-.52-.25a.54.54 0 0 1-.07-.2v-.04Z" fill="#FF0A1C"/><path d="m7.89 12.96-.01-.01Zm2.24 0v-.01ZM9 12.56h-.55l.15.27h.8l.14-.28h-.54Zm-.68-.58-.18.34h1.71l-.18-.34H8.33ZM13.3 9.41a1.21 1.21 0 0 0-.25-.42c-.28-.3-.7-.45-1.28-.43.03.56-.21 1.05-.75 1.24h.47c-.66 1.4.7 3.07.01 4.5-.02.25 0 .37 0 .37.38-.62.5-1.52.3-2.72a4.6 4.6 0 0 1-.04-1.8c.11-.39.34-.59.7-.58.37 0 .72.16 1.08.48l-.24-.64Z" fill="#FF0A1C"/><path d="M11.54 12v-.01Zm1.2.43c.12-.18.24-.37.34-.57l-.44-.63c-.09.06-.18.12-.26.2-.06.06-.13.12-.18.2l-.07.1-.1.16v.01c.1.49.13.92.12 1.31l.12-.14.18-.23.3-.4Z" fill="#FF0A1C"/><path d="M13.1 12.14a5.28 5.28 0 0 1-.86 1.29l-.11.12c-.05.44-.17.81-.37 1.12a2.38 2.38 0 0 0 1.47-.88c.18-.23.28-.48.32-.75l-.46-.9Z" fill="#E9A043"/><path d="M10.98 10.1v-.07l-.04.05c-.39.37-.85.45-1.4.25.15.12.3.2.44.25.15.05.3.07.45.05-.12.1-.3.13-.5.1.23.32.48.4.73.27.24-.12.35-.43.32-.9Zm1 .03-.01.05c-.1.3-.09.8.02 1.48.02-.05.05-.1.09-.14l.07-.1.17-.18c.1-.08.2-.16.32-.23l-.6-.98a.82.82 0 0 0-.05.1Z" fill="#FF0A1C"/><path d="M10.54 10.03c-.1 0-.2 0-.33.03-.12.04-.22.07-.3.12.27.09.48.04.63-.15Zm-.7 1.56-.12.03c.28.05.46.2.55.47l.11.6c.06.29.05.5-.01.63l.01-.01h.01c.28-.28.38-.7.32-1.27-.05-.4-.33-.54-.87-.45Zm.5 1.76.04-.03h-.01l-.02.03Z" fill="#FF0A1C"/><path d="m4.92 12.14-.45.9c.03.27.14.52.32.75a2.46 2.46 0 0 0 1.23.82 3.53 3.53 0 0 1-.25-1.18l-.24-.3a4.54 4.54 0 0 1-.6-1Z" fill="#FFA042"/><path d="M10.48 2.37c.2.37.31.82.34 1.34a5.92 5.92 0 0 1-.68 3.07c-.25.46-.55.83-.9 1.12-.07-.1-.15-.19-.23-.27-.09.08-.17.17-.24.27a3.66 3.66 0 0 1-.9-1.12 5.92 5.92 0 0 1-.68-3.07c.03-.52.14-.97.34-1.34a5.2 5.2 0 0 0-1.36 1.9c-.23.62-.23 1.16 0 1.6-.5.38-.48 1.01.09 1.9.09-.43.2-.68.34-.74.15-.07.33.11.55.54.45.97.9 1.67 1.37 2.12.15.08.3.13.49.12.18 0 .33-.04.48-.12.47-.45.93-1.15 1.37-2.12.22-.43.4-.6.56-.54.13.06.25.31.34.75.56-.9.59-1.53.08-1.9.23-.45.23-1 0-1.6a5.18 5.18 0 0 0-1.36-1.91Z"/><path d="M10.91 3.14c.05.23.09.45.1.68.03.52-.05 1.12-.23 1.8A4.46 4.46 0 0 1 9.38 8a2.2 2.2 0 0 1 .38 1.07c.32-.46.63-1 .95-1.64.4-.74.74-.87 1-.4l.1.2c.32-.6.25-1.03-.22-1.31.41-.82.23-1.72-.56-2.7-.04-.05-.1-.1-.14-.17l.02.07v.02Zm-3.9.68c.01-.23.05-.45.1-.68v-.02l.02-.07-.15.18c-.78.97-.96 1.87-.55 2.69-.47.28-.54.72-.22 1.31l.1-.2c.26-.47.6-.34 1 .4.32.64.63 1.18.95 1.64A2.39 2.39 0 0 1 8.63 8a4.47 4.47 0 0 1-1.4-2.38A5.97 5.97 0 0 1 7 3.82Zm2 4.5c.1.12.18.26.24.39v.02c.03.06.04.12.05.16.02.13 0 .25-.05.33a.25.25 0 0 1-.1.1.4.4 0 0 1-.13.02H9a.38.38 0 0 1-.13-.03.25.25 0 0 1-.1-.09.48.48 0 0 1-.05-.33l.04-.16.01-.02c.06-.14.14-.27.24-.39Zm-.51.55a.88.88 0 0 0 .01.39c.02.04.04.1.07.13.07.1.16.17.28.18L9 9.6c.04 0 .1 0 .15-.02a.4.4 0 0 0 .28-.18.47.47 0 0 0 .06-.13.85.85 0 0 0 .02-.4 1.7 1.7 0 0 0-.08-.28c-.1-.23-.24-.45-.43-.66-.2.2-.34.43-.43.66-.04.12-.07.21-.08.29Z" fill="#FFA042"/><defs><linearGradient id="a13ikiliu" x1="3.35" y1="3.12" x2="21.9" y2="24.43" gradientUnits="userSpaceOnUse"><stop stop-color="#1A1E21"/><stop offset="1" stop-color="#06060A"/></linearGradient></defs></svg>