<!-- by TradingView --><svg width="18" height="18" viewBox="0 0 18 18" xmlns="http://www.w3.org/2000/svg"><path fill="url(#aljim0u0r)" d="M0 0h18v18H0z"/><path d="M9 13.85a4.85 4.85 0 1 1 0-9.7 4.85 4.85 0 0 1 0 9.7Z" fill="url(#bljim0u0r)"/><path d="M9 4.3a4.7 4.7 0 1 1 0 9.4 4.7 4.7 0 0 1 0-9.4ZM14 9A5 5 0 1 0 4 9a5 5 0 0 0 10 0Z" fill="#fff"/><path d="m6.1 10.03 1.88-3.94.07-.01 1.03 1.85c-1.1.59-2.1 1.25-2.98 2.1ZM9.11 10.89c-.04.02-.06.06-.1.07-.74.3-1.48.59-2.27.7a2 2 0 0 1-.64-.02c-.36-.07-.5-.33-.34-.67.1-.2.23-.4.39-.58a9 9 0 0 1 2.02-1.6 22.24 22.24 0 0 1 3.32-1.65l.24-.11a6.1 6.1 0 0 0-.13-.25h.85l.02.03-.54.24c-1.59.7-3.09 1.54-4.43 2.64-.23.2-.42.42-.62.63-.07.08-.12.17-.17.27-.15.31-.02.57.32.6.3.02.62.02.91-.03.4-.06.78-.18 1.17-.27Z" fill="#fff"/><path d="M8.4 9.31c.38-.22.7-.43 1.08-.64l1.34 2.56-.04.04L8.4 9.31Z" fill="#fff"/><defs><linearGradient id="aljim0u0r" x1="3.35" y1="3.12" x2="21.9" y2="24.43" gradientUnits="userSpaceOnUse"><stop stop-color="#1A1E21"/><stop offset="1" stop-color="#06060A"/></linearGradient><linearGradient id="bljim0u0r" x1="12.04" y1="5.83" x2="2.05" y2="17.31" gradientUnits="userSpaceOnUse"><stop stop-color="#1A1E21"/><stop offset="1" stop-color="#06060A"/></linearGradient></defs></svg>