<!-- by TradingView --><svg width="18" height="18" viewBox="0 0 18 18" xmlns="http://www.w3.org/2000/svg"><path fill="#F0F3FA" d="M0 0h18v18H0z"/><path d="M9 4.25c-1.13 0-2.4.15-4.08.8l-.07.04-.03.08a8.45 8.45 0 0 0 .13 5.72 7.79 7.79 0 0 0 3.98 3.92l.07.04.08-.04a7.79 7.79 0 0 0 3.98-3.92c.7-1.64.74-3.58.12-5.72l-.02-.08-.08-.03c-1.67-.66-2.94-.8-4.08-.8Z" fill="#023474"/><path d="M9 4.43c-1.14 0-2.48.19-3.42.5a12.9 12.9 0 0 0-.48 3.74c.1 2.58 1.47 4.51 3.9 5.98V4.43Z" fill="#EF0107"/><path d="M9 4.4c1.15 0 2.47.22 3.42.53.32 1.25.49 2.38.48 3.42 0 2.74-1.37 4.77-3.9 6.3V4.4Z" fill="#DB0007"/><path d="M7.5 11.23c-.47.32-1.12.53-1.87.64l-.15-.23a4.64 4.64 0 0 0 1.73-1.06c.07.31.18.52.28.65Z" fill="#9C824A"/><path d="M6.24 10h.98c.07-.39.26-.63.72-1h-1.7a.35.35 0 0 0-.31.24.2.2 0 0 0-.04 0c-.13 0-.23.11-.23.26 0 .15.1.27.23.27a.2.2 0 0 0 .06-.01c.06.14.17.23.29.24ZM13.65 9h-3.9c.33.26.6.57.71 1h3.05l.14-1Z" fill="#A78C51"/><path d="M10.86 10.24c0 1-.84 1.81-1.87 1.81a1.85 1.85 0 0 1-1.87-1.81c0-1 .84-1.82 1.87-1.82 1.03 0 1.87.81 1.87 1.82Z" fill="#A78C51"/><path d="M8.64 10.59a.7.7 0 0 0 .18.1v.8a1.3 1.3 0 0 1-.85-.48l.67-.42Z" fill="#EF0107"/><path d="M9.36 10.59a.72.72 0 0 1-.18.1v.8c.37-.05.64-.23.85-.48l-.67-.42M9.55 10.26l.8-.1c0 .2-.04.37-.11.54l-.7-.44" fill="#DB0007"/><path fill-rule="evenodd" d="m10.4 8.2-.14-.4-.19-.68-.02-.1-.43-1.88-1.23.18.04.14c0 .08 0 .25-.11.6l-.1.26c-.19.52-.42 1.17-.65 1.67l-.11.2h.96c.01-.13.07-.38.14-.56.13 0 .47 0 .63-.02.03.14.07.32.08.45l.01.14h1.12ZM8.96 6.5 8.8 7c.12 0 .17 0 .28-.02l-.04-.17-.07-.3Z" fill="#A78C51"/><path d="m9.5 5.28-.93.13c.02.12-.01.36-.11.65-.2.55-.5 1.46-.75 2h.58c.03-.19.07-.35.16-.57l.86-.03c.04.17.1.43.1.6h.79c-.1-.23-.22-.7-.3-1.02l-.4-1.76Zm-.93 1.86L9 5.94l.25 1.18" fill="#fff"/><path d="M6.78 4.22C7.59 4.07 8.42 4 9 4c.59 0 1.41.07 2.23.22.8.15 1.63.38 2.2.7l.1.06.04.11c.37 1.28.43 2.43.43 3.42v.01c-.16 3.05-2 5-4.87 6.42L9 15l-.12-.06a10 10 0 0 1-3.46-2.58 6.41 6.41 0 0 1-1.41-3.81 12 12 0 0 1 .42-3.46l.04-.1.1-.07c.57-.32 1.4-.55 2.2-.7ZM4.95 5.36a11.5 11.5 0 0 0-.38 3.16c.08 1.4.53 2.53 1.3 3.48.75.93 1.8 1.7 3.13 2.37 2.69-1.35 4.29-3.15 4.43-5.87 0-.93-.05-1.98-.37-3.14-.5-.25-1.2-.44-1.94-.58A12.6 12.6 0 0 0 9 4.57c-.55 0-1.34.07-2.12.21-.74.14-1.44.33-1.93.58Z" fill="#A78C51"/><path d="M9.3 10.13a.3.3 0 0 1-.3.28.3.3 0 0 1-.3-.28.3.3 0 0 1 .3-.3c.16 0 .3.14.3.3Z" fill="#9C824A"/></svg>