<!-- by TradingView --><svg width="18" height="18" viewBox="0 0 18 18" xmlns="http://www.w3.org/2000/svg"><path fill="url(#a)" d="M0 0h18v18H0z"/><path fill-rule="evenodd" d="m8 13.57-.7.26v-9.6l.7.25v9.09Zm0 .34-.5.2.5.28v-.48Zm.3.64v-.75l2.47-.91.73.24-3.07 1.5-.13-.08Zm-.3.2h.02l.38.25 3.6-1.83V4.78L8.4 3l-.38.24H8v.01l-1 .63v10.23l1 .63ZM8 3.6l-.6.34.6.22V3.6Zm.3-.17v.83l2.47.9.84-.28-3.18-1.52-.13.07Zm0 1.15 2.34.83v7.15l-2.34.88V4.6Zm3.4.6v7.62l-.7-.24V5.43l.7-.25Z" fill="#fff"/><defs><linearGradient id="a" x1="3.35" y1="3.12" x2="21.9" y2="24.43" gradientUnits="userSpaceOnUse"><stop stop-color="#1A1E21"/><stop offset="1" stop-color="#06060A"/></linearGradient></defs></svg>