<!-- by TradingView --><svg width="18" height="18" viewBox="0 0 18 18" xmlns="http://www.w3.org/2000/svg"><path fill="#0B1A03" d="M0 0h18v18H0z"/><path d="M9.16 10.37v4.3H9v-4.41l1.97-.83.05.1-1.86.84Z" fill="url(#auuu1tli1)"/><path d="M9.67 12.6v-.22l2.77-1.2a.7.7 0 0 0 .42-.64V6.8a.7.7 0 0 0-.34-.62L9.28 4.3a.68.68 0 0 0-.7.01L5.5 6.18a.7.7 0 0 0-.33.6v3.76c0 .28.16.53.42.64l2.75 1.2v.21l-2.88-1.26a.75.75 0 0 1-.45-.7V6.7c0-.27.14-.52.36-.65l3.2-1.93a.73.73 0 0 1 .75-.01l3.32 1.94c.23.13.37.38.37.65v3.94c0 .3-.18.58-.45.7l-2.88 1.26Z" fill="url(#buuu1tli1)"/><ellipse cx="11.17" cy="9.33" rx=".5" ry=".52" fill="#F0E5A5"/><ellipse cx="6.83" cy="8.64" rx=".5" ry=".52" fill="#F0E5A5"/><ellipse cx="6.83" cy="8.64" rx=".29" ry=".3" fill="#FAFBFD"/><path d="m9.14 9.53-1.88-.72.03-.2L9 9.34V7h.14v2.53Z" fill="url(#cuuu1tli1)"/><ellipse opacity=".2" cx="9" cy="14.66" rx="2.33" ry=".34" fill="#fff"/><ellipse opacity=".5" cx="9" cy="14.72" rx="1.48" ry=".22" fill="#FCF6C2"/><ellipse cx="9" cy="14.72" rx=".74" ry=".11" fill="#FCF6C2"/><ellipse cx="9.09" cy="6.58" rx=".5" ry=".52" fill="#F0E5A5"/><defs><linearGradient id="auuu1tli1" x1="12.56" y1="10.47" x2="9.88" y2="14.59" gradientUnits="userSpaceOnUse"><stop stop-color="#D7AE58"/><stop offset=".15" stop-color="#FFFCF3"/><stop offset=".4" stop-color="#765E18"/><stop offset=".89" stop-color="#FFFAF1"/><stop offset=".99" stop-color="#DCC17E"/></linearGradient><linearGradient id="buuu1tli1" x1="9" y1="4" x2="9" y2="12.59" gradientUnits="userSpaceOnUse"><stop stop-color="#F0D264"/><stop offset=".11" stop-color="#FFFEE8"/><stop offset=".2" stop-color="#F1CA6B"/><stop offset=".72" stop-color="#D8AC53"/><stop offset=".9" stop-color="#FFFFE4"/><stop offset="1" stop-color="#D49A50"/></linearGradient><linearGradient id="cuuu1tli1" x1="7.84" y1="7.86" x2="8.98" y2="9.44" gradientUnits="userSpaceOnUse"><stop stop-color="#E8D366"/><stop offset=".59" stop-color="#FFFEEE"/><stop offset="1" stop-color="#D1B961"/></linearGradient></defs></svg>