<!-- by TradingView --><svg width="18" height="18" viewBox="0 0 18 18" fill="none" xmlns="http://www.w3.org/2000/svg"><path fill="url(#aro1xjpdv)" d="M0 0h18v18H0z"/><path d="M4.52 9.6c0 .23.22.38.24.4.16-.09 0-.19-.03-.49-.03-.24.26-.48.4-.57l.14.16-.32.23c-.2.13-.1.39-.06.46.04.08.2-.03.28-.18.07-.15.64-.27.93-.44.3-.17.02-.4-.06-.5-.08-.1-.27-.02-.44.07-.18.1-.18.24-.27.17-.1-.06-.07-.14-.06-.17 0-.02.43-.12.65-.17 1.94.14 5.88.46 6.16.57.34.13.42.08.59.13.13.05.16.57.16.83.02.25.1.67.23.35.13-.32 0-1.01-.08-1.31.1.05.33.15.36.13a.55.55 0 0 0 .22-.27c.07-.15-.09-.58-.41-.58-.33 0-.33.26-.44.26-.08 0-.26-.26-.33-.4.02.17.05.48 0 .4-.06-.1-3.7-.57-3.97-.64-.27-.07-2.7.18-3 .26-.29.07-.4.32-.52.37-.04-.03-.17.19-.2.24-.04.06-.17.47-.17.7Z" fill="url(#bro1xjpdv)"/><path d="M12.76 9.43c-.09-.22-.32-.68-.42-.89 0-.1.17 0 .27.1.09.11.12 0 .18 0 .05 0 .26-.24.39-.23.13.02.29.18.33.29.04.1-.01.2-.04.21-.04 0-.14-.33-.19-.37-.04-.04-.25 0-.34.1-.1.11-.01.29 0 .36 0 .08.15 1.03.17 1.26.02.23-.08.19-.1.19-.03 0-.13-.74-.25-1.02Z" fill="#768389"/><ellipse cx="8.96" cy="6.55" rx="3.67" ry="3.54" fill="url(#cro1xjpdv)"/><ellipse cx="8.96" cy="6.55" rx="3.67" ry="3.54" fill="url(#dro1xjpdv)"/><path d="M7.8 4.02v-.73c.06-.1.38-.28 1.15-.28.77 0 1.2.16 1.3.24l.09.77a4.87 4.87 0 0 0-2.54 0Z" fill="url(#ero1xjpdv)"/><path d="M5.88 5.24c-.13.11-.26.01-.31-.05A3.59 3.59 0 0 1 8.93 3c2.04 0 3.1 1.4 3.38 2.09v.33c0 .04-.19-.08-.13-.12.06-.03-.07-.2-.1-.24 0-.04-.33-.59-.49-.86a3.71 3.71 0 0 0-2.66-1.13c-1.68 0-2.22 1.12-2.35 1.22-.14.1-.1.23-.07.49.02.26-.46.31-.63.46Z" fill="url(#fro1xjpdv)"/><path d="M3.02 14v-1.2l.48-1.03c.05-.17.49-1.01.82-1.31.33-.3.34-.36.41-.48.08-.11.19-.43.31-.57.1-.12.3-.16.38-.17l6.7.41a2 2 0 0 1 .4.07c.22.05.29.33.38.46.1.13.27.22.48.45.2.22.23.41.28.62.05.2.48 1.04.6 1.2.1.1.54 1.08.74 1.55H3.02Z" fill="url(#gro1xjpdv)"/><path d="m12.7 12.59.7-1.44c-.37.6-1.18 1.84-1.44 1.97-.31.15.13-.53-.76-.43-.9.1-1.5 0-2.67 0s-1.04-.42-1.5-.56c-.46-.14-.42.07-.49 0s-.2.6-.65.64c-.44.04-.37-.3-1.05-.8-.68-.52-.19.35-.32.62-.13.26-.57.67-1.08.53-.4-.11-.42.54-.37.87H14.95c.1 0-.05-.3-.13-.44-.16.02-.59.02-1.01-.17-.54-.23-.22-.07-.58-.42-.36-.34-.17.07-.53.07-.3 0-.12-.3 0-.44Z" fill="#65838E"/><path d="M11.32 13.9c0-.09.26-.88.32-1.07l.01-.04v.04c-.03.12-.01.47 0 .65.05.07.17.2.26.15.1-.07.56-.71.56-.59 0 .13-.12.59-.18.59-.05 0-.32.25 0 .12.26-.1.51-.26.6-.33h.68c.1 0 .3.08.4.11.01.03-.09.1-.57.1-.47 0-.88.24-1.02.36H11.3l.02-.1Z" fill="#16272F"/><path d="M5.8 11c-.48-.77-.5-1.5-.46-1.58.2.2.93.82 2.34 1.57 1.42.76 3.82-.4 4.84-1.08l-.15.9-.26.39c-.29.37-1.26 1.12-2.9 1.12-2.04 0-2.93-.56-3.41-1.33Z" fill="url(#hro1xjpdv)"/><path d="M5.39 9.57c0-.4.36-.72.55-.83l6.23.47c.1.08.28.32.3.63.02.4-.9 1.6-3.51 1.6-2.62 0-3.57-1.37-3.57-1.87Z" fill="url(#iro1xjpdv)"/><path d="M5.89 6.87c0 1.06.08 1.76.09 1.8 0 .04-.01.14-.06.19-.04.05-.04.26-.03.36.23.46 1.14 1.38 2.94 1.38 2.29 0 3.08-.74 3.18-1.1-.02-.03-.06-.08-.04-.14.02-.05.04-.35.04-.5.06-.21.18-.9.18-1.92 0-1.03-.59-1.6-.88-1.76-.03.05-.09.14-.1.1 0-.05-.07-.58-.27-.67-.16-.07-.29.03-.33.1-.11-.12-.57-.34-1.5-.34-.94 0-1.55.22-1.74.33-.02-.04-.12-.11-.36-.09-.3.04-.2.42-.32.52-.13.09-.8.67-.8 1.74Z" fill="url(#jro1xjpdv)"/><path d="M9.55 8.92c-.07.05-.05.1-.03.1h-.08c-.01.03-.06.07-.15.24-.1.17.03.06-.17.17-.2.1-.12.1-.12.15 0 .06.25.05.4-.02.17-.07.08-.12.19-.27.1-.16-.04-.06-.1-.11-.08-.05-.03-.04.03-.09.06-.05.02 0 .03 0 .02 0 .07 0 .31-.08.25-.09.2-.09.34-.23.14-.13.12-.22.08-.23-.05-.01-.13.12-.22.2-.09.07-.18.07-.36.08-.17 0-.05.03-.15.09Z" fill="#2E3A63"/><path d="M9.52 8.74c-.05.03-.08.17-.08.19.01 0 .06-.01.12-.05.09-.06.1.01.14 0l.2-.12c.12-.05.08-.02.2-.12.1-.09.03-.06-.02-.03a.6.6 0 0 0-.18-.03c-.1 0-.2.07-.27.1-.08.02-.07.04-.11.06Z" fill="#D39EB0"/><path d="M8.7 9.22c-.29-.11-.22-.41-.21-.44.08-.02.27-.06.38-.05.15 0 .09.07.1.11.02.04.02.24.04.23.01-.02.02-.09.1-.18.07-.1.31-.13.34-.13.04 0 .02.22-.03.35-.04.12-.42.21-.72.1Z" fill="#9D89AE"/><path d="m8.7 8.42-.28.16c.06-.09.16-.3.14-.44-.01-.16-.02-.1-.07-.27-.04-.17 0-.45-.05-.53-.03-.09-.13.28-.2.45-.06.17.02.82.03.88 0 .06.01.05.15.03.14-.03.32-.2.38-.26.07-.06.14-.05.27.02s.43.23.62.26c.2.03-.02-.07-.14-.23-.1-.17-.07-.35-.1-.57-.02-.22-.1-.05-.14-.05-.03 0-.17-.08-.24-.12.05.1.15.31.15.35v.15c-.01.07.04.09.1.13.04.03-.01.1-.06.08-.05-.03-.22-.08-.33-.12-.12-.04-.07 0-.22.08Z" fill="#25282F"/><path d="M6.76 7.26c.1-.18.28-.12.43-.17v.14c0 .04.08.22.05.4-.02.2-.1.13-.11.46-.02.33-.01.28-.05.34-.03.06-.38.13-.32.24.07.11.48.67 1.4 1 .92.34.57.09 1.22.03.66-.05.46-.14 1.1-.6.65-.44.19-.28.35-.64.17-.36.13-.5.14-.82.01-.33-.17-.3-.26-.48-.07-.15 0-.16.05-.14l.65.18c.02.09.07.28.14.34.09.07.15.1.23.33.07.23 0 .37-.12.63s0 .17.04.47c.04.3-.1.36-.63.66-.53.3-2.95.28-3.41.18-.47-.1-1.1-.35-1.26-.58-.16-.23-.18-.67-.15-.92.02-.25.08-.38.21-.6.13-.22.22-.26.3-.45Z" fill="#B96B45"/><path d="M7.34 7.13c.04-.1.12-.04.16 0 .03.06.07.23.03.44-.05.27-.04.63-.07.73-.03.09-.02.07.03.15.04.07.46.55.62.61.16.06.17.14.24.23.06.1.18.16.31.27.14.1.33.07.52 0 .18-.07.42-.21.44-.23 0-.01.15-.08.26-.17.1-.08.14-.1.2-.19.07-.09.15-.13.39-.3.24-.15.09-.24.13-.55.04-.3.1-.27.28-.4.2-.12.22.13.3.27.07.13-.09.2-.18.3-.07.07-.15.16-.17.2 0 .02.03.05.1 0 .1-.05.11-.1.43-.31.32-.22-.02-.1-.1-.25-.1-.15-.05-.22.08-.23.12 0 .08.06.24.15.16.1.07.33.05.44-.02.1-.06.22-.14.26-.09.04-.08.09 0 .24s.1.45-.55.9c-.66.47-1.35.43-1.88.43-.54.01-1.65-.34-2.16-.54-.5-.2-.62-.9-.59-1.11.04-.21.03-.54.11-.7.08-.17.56-.6.63-.64.06-.04.1 0 .11.05 0 .04-.11.4-.2.46-.09.06-.15.32-.19.4-.04.1-.08.16-.06.26 0 .09.15.08.29.13l.21.13-.16-.13c-.15-.12-.21-.16-.21-.27 0-.1.09-.26.2-.43.12-.16.24-.48.3-.6Z" fill="url(#kro1xjpdv)"/><path d="M7.86 7.5c-.03-.06-.17-.37-.28-.45-.16-.05-.1.18-.11.4-.01.24-.05.33-.03.32.02-.01.28-.05.42-.1.14-.04.03-.1 0-.16Z" fill="#8F5F2E"/><path d="M7.66 6.93c-.05-.02-.07.06-.07.1l.24.45c.1.19.05.11.21.04.16-.08.24-.24.37-.41.13-.17.02-.08-.05-.08s-.17.1-.34.1-.3-.18-.36-.2Z" fill="url(#lro1xjpdv)"/><path d="M8.4 7.53c-.01-.2.1-.29.1-.3-.12.02-.33.31-.36.35-.03.04.03.72.06.87.04.16.1.24.2.2.08-.04.12-.45.07-.6a2.22 2.22 0 0 1-.08-.52Z" fill="#647C94"/><path d="M7.78 5.45c.1.18-.23.54-.25.58l-.31.4c-.05.08-.32.43-.37.44-.05.01-.06-.6-.04-.71.02-.12.03-.48.04-.65 0-.17.03-.54.1-.62.07-.08.2-.05.4.04.2.08.32.34.43.52Z" fill="url(#mro1xjpdv)"/><path d="M7.02 5.36c.01.17.25.6.27.65l.18-.17c.06-.08-.04-.27-.07-.41a.42.42 0 0 0-.27-.29c-.09-.02-.11.06-.1.22Z" fill="#170F1A"/><path d="M7.44 4.84a.77.77 0 0 0-.4-.28c.3.03.57.3.67.43l.3.1c.12-.03.5-.07 1.08-.07.58 0 .92.04 1.02.07l.15-.1c.02-.02.05.03.07.05.1-.17.36-.5.56-.48.2.02.3.3.3.43l-.65.1c.07-.12.22-.39.22-.45 0-.08-.14.07-.25.22l-.25.38V5.1c0-.02-.1.05-.27.1-.18.07-.53.07-.9.07a15.85 15.85 0 0 1-1.06-.04.57.57 0 0 1-.35-.18l.13.29-.37-.5Z" fill="url(#nro1xjpdv)"/><path d="M10.33 5.45c-.11.18.22.54.24.58l.32.4c.05.08.32.43.36.44.05.01.06-.6.04-.71l-.04-.65c0-.17-.02-.54-.1-.62-.07-.08-.2-.05-.4.04-.2.08-.31.34-.42.52Z" fill="url(#oro1xjpdv)"/><path d="M11.08 5.36c-.01.17-.24.6-.26.65-.04-.03-.13-.1-.18-.17-.07-.08.03-.27.06-.41a.42.42 0 0 1 .27-.29c.1-.02.12.06.1.22Z" fill="#170F1A"/><path d="M7.95 5.58c-.1.1-.57.71-.8 1 .01.06.05.18.1.21.07.04.17.04.23.04.07 0 .16.1.28 0 .13-.1.25-.2.35-.2.1.01.03-.09 0-.16s-.09-.14-.1-.18c-.01-.05.1-.22.22-.27.11-.04.3-.07.36-.09.06-.02.2-.03.3-.03.1 0 0-.08-.04-.2-.04-.1 0-.24.02-.3h.35c.14.01.24.02.3.07.07.04 0 .17 0 .23.01.07.07.15.17.27.1.12.26.22.34.32.08.1 0 .06 0 .1v.15c0 .06.1.12.12.15.02.03.24.16.38.22.15.07.19.03.35.05.17.02.16-.28.12-.37-.03-.1-.5-.6-.58-.7-.07-.1-.66-.66-.73-.66-.07 0-1.25-.03-1.32 0-.06.03-.3.21-.42.35Z" fill="url(#pro1xjpdv)"/><path d="M8.56 6.09c-.11-.15-.43.02-.57.13.05-.15.22-.47.48-.6.33-.15.17.01.37.18.2.18.13.02.16.07.04.04-.02.35 0 .4.03.04.04.3.04.38 0 .07-.03.17-.04.13 0-.03-.05-.17-.16-.21-.06-.03-.16.08-.22.18a.72.72 0 0 1-.06.1l.06-.1.08-.18c.03-.11 0-.3-.14-.48ZM9.58 6.09c.1-.15.42.02.56.13-.05-.15-.21-.47-.47-.6-.33-.15-.18.01-.38.18-.2.18-.13.02-.16.07-.03.04.03.35 0 .4-.03.04-.04.3-.04.38 0 .07.03.17.04.13 0-.03.06-.17.16-.21.07-.03.16.08.22.18l.07.1a1.17 1.17 0 0 1-.14-.3c-.04-.1 0-.27.14-.46Z" fill="#7A2705"/><path d="M8.32 6c-.17 0-.35.22-.38.26.01.04.05.13.1.18.06.05.16.05.16.01 0-.03.05-.1.08-.1s.01.16-.03.22c-.05.07.13.14.21.2.08.05.1.01.18-.09.08-.1.1-.26.13-.4.02-.13-.27-.28-.45-.28ZM9.78 6c.17 0 .35.22.38.26a.47.47 0 0 1-.1.18c-.06.05-.16.05-.16.01 0-.03-.05-.1-.08-.1s-.01.16.03.22c.05.07-.13.14-.21.2-.08.05-.1.01-.18-.09-.08-.1-.1-.26-.13-.4-.02-.13.27-.28.45-.28Z" fill="#FBFCFF"/><path d="M8 6.99c-.08.02-.14-.08-.16-.13 0-.06.08.03.18.03.08 0 .12-.06.13-.1l.1.16a.81.81 0 0 1-.08-.04s-.05.05-.16.08Z" fill="#432724"/><path d="M10.08 6.94c-.12.02-.15-.1-.15-.1l.13.05c.07.01.15-.04.19-.07a.24.24 0 0 1-.17.12Z" fill="#B57671"/><path d="M10.06 6.76c-.04 0-.09.06-.1.08a.3.3 0 0 0 .12.05c.08.01.13-.05.13-.08 0-.02-.11-.05-.15-.05Z" fill="#812621"/><path d="m8.6 6.72-.17.32c.23-.07.6-.05.82-.04.17.02.45.14.58.2-.1-.11-.3-.36-.36-.48-.07-.16-.26-.32-.34-.15-.09.16-.07.4-.1.32-.01-.08-.06-.34-.1-.4-.06-.04-.27.12-.32.23Z" fill="url(#qro1xjpdv)"/><path d="M8.9 7.18c-.42 0-.44.32-.4.49-.02-.16.06-.46.42-.46.3 0 .5.2.57.3-.02-.1-.18-.33-.6-.33Z" fill="#6C7886"/><path d="M9.15 7.36a.3.3 0 0 0-.2-.1c.2-.08.47.16.51.23.05.06-.01.07-.06.08-.04 0-.17-.12-.25-.21Z" fill="#8BA0BD"/><path d="M9.17 7.8A.34.34 0 0 1 9 7.54c.06.08.2.22.31.22.14 0 .14-.17.16-.22.03-.04 0-.12-.04-.18a.58.58 0 0 0-.24-.15c-.09-.03-.06-.1.03-.1.1 0 .26.12.3.27.05.14.03.36.03.46 0 .1-.05.22-.04.4.01.19.19.4.19.43 0 .04-.31-.2-.4-.3-.1-.1.04-.11.01-.27-.03-.17-.04-.07 0-.14.04-.05.08-.14.1-.18-.03.03-.12.08-.24.02Z" fill="#7690B5"/><path d="M8.02 7.56c.12-.06.21-.25.25-.34.03.03.1.12.04.16-.06.05-.07.77-.04.96.02.19.2.34.06.38-.14.05-.37-.12-.46-.23-.1-.12-.3-.3-.37-.3-.06 0-.1.12-.1.07 0-.06-.02-.4 0-.5.04-.1.2-.1.3-.13.09-.03.16-.01.32-.07Z" fill="#A0ABA7"/><path d="M7.99 8.25c.05.24.29.43.3.45a1.3 1.3 0 0 1-.25-.7c-.02-.23.11-.53.18-.65.03 0 .07 0 .05.09-.02.1.17-.1.26-.23.08-.13.44-.12.5-.12.05 0 .32.02.42.12.1.1.08.53.06.72-.02.2-.06.22.04.53.11.3.2.2.45.2.24-.02.49-.52.58-.46.07.05-.1.35-.19.5.04-.01.14-.1.27-.39a.75.75 0 0 0-.03-.67l.18.27c.08.1.05.3.13.34.08.05.08-.06.2-.26.12-.2 0-.32 0-.41 0-.09-.23-.5-.43-.6-.2-.11-.08.05-.1.13-.02.07-.05.4-.03.45.01.06-.17-.07-.43-.12-.25-.05-.22-.15-.33-.26-.1-.11-.66-.28-1.15-.18-.5.1-.47.28-.57.44-.1.16-.16.58-.11.81Z" fill="#FFFEFA"/><path d="M11.2 7.65c-.08-.1-.18-.53-.17-.58.1.07.35.23.44.32.11.1.14.26.22.4.09.14-.04.07-.16.07s-.12-.03-.2-.09c-.08-.05-.06-.02-.14-.12Z" fill="#FEFFF9"/><path d="M10.1 7.03c-.07 0-.26.02-.42-.04 0 .02.04.11.2.26.18.18.22.15.34.12.13-.03.1-.08.2-.23.08-.15.07-.18.08-.2.01-.03-.05-.06-.09-.08-.08.06-.26.18-.31.17Z" fill="#6E5E5D"/><path d="M10.67 7.12c.02-.26-.1-.17-.15-.22a5.9 5.9 0 0 1-.4.31c-.13.1-.2.06-.28.18-.08.11.3.17.42.22a.3.3 0 0 0 .35-.08c.08-.1.03-.15.06-.41Z" fill="#F9F3DB"/><path d="M8.74 9.28c-.3-.06-.3-.26-.26-.35.15.09.5.24.71.17.26-.1.12 0 .18 0 .07 0 .05.01 0 .1-.06.07-.26.16-.63.08Z" fill="#5D132A"/><path d="M8.37 8.9a.73.73 0 0 1-.14-.17c.1-.02.27-.07.28-.05l-.03.16c-.02.05-.07.08-.1.06Z" fill="#4C3128"/><path d="M6.28 9.58A.87.87 0 0 1 6 9.25l.05-.02c.02.06.1.18.26.3.15.14.4.29.74.42a6.3 6.3 0 0 0 1.43.35.14.14 0 0 0 .02 0 .55.55 0 0 0 .08-.09l.05.04a.6.6 0 0 1-.09.1H8.4c-.07 0-.17 0-.3-.03A6.35 6.35 0 0 1 7.04 10c-.35-.14-.6-.3-.76-.43ZM11.75 9.58a.87.87 0 0 0 .27-.33l-.06-.02a.82.82 0 0 1-.25.3c-.16.14-.4.29-.75.42a6.3 6.3 0 0 1-1.43.35.14.14 0 0 1-.02 0 .55.55 0 0 1-.08-.09l-.05.04a.6.6 0 0 0 .1.1h.14c.07 0 .18 0 .3-.03.26-.05.62-.15 1.06-.31.36-.14.6-.3.77-.43Z" fill="#535552"/><path d="m11.22 9.54-.72.48A2.54 2.54 0 0 0 12 9.1c.02-.05 0-.23 0-.31-.15.18-.51.6-.79.76Z" fill="#88878B"/><path d="M9.11 10.55c-2.1 0-3.01-.8-3.21-1.22l.08-.04c.18.38 1.06 1.18 3.13 1.18 1.66 0 2.59-.67 2.84-1l.07.05c-.27.35-1.22 1.03-2.91 1.03Z" fill="#88878B"/><path d="m5.9 8.91-.01.02c-.14.24.21 1.68 3.07 1.68 2.35 0 3.07-.93 3.14-1.4.03.01.1.1.1.4 0 .39-.54 1.5-3.1 1.5S5.72 9.9 5.72 9.52a1.14 1.14 0 0 1 .18-.62Z" fill="url(#rro1xjpdv)"/><path d="M9.18 10.8c-2.23 0-3.16-.84-3.35-1.26.19.48 1.12 1.44 3.35 1.44 2.22 0 2.9-.96 2.96-1.44-.29.42-1.29 1.25-2.96 1.25Z" fill="url(#sro1xjpdv)"/><path d="M5.42 9.18c.06-.12.14-.22.18-.27l.05.04c-.05.05-.11.14-.17.26a.9.9 0 0 0-.1.39c0 .17.12.63.65 1.06.53.42 1.47.8 3.12.8 2.64 0 3.32-1.12 3.34-1.67h.06c-.02.6-.75 1.73-3.4 1.73-1.66 0-2.62-.38-3.16-.82-.55-.43-.67-.91-.67-1.1 0-.15.04-.3.1-.42Z" fill="url(#tro1xjpdv)"/><path d="M3.22 12.17c-.14.2-.2.52-.22.66v.1l.19-.37c.06-.11.33-.75.44-.91.12-.16.2-.1.2-.2s.02-.17.26-.56c.24-.38.27-.26.4-.34.12-.08.04-.12.12-.2.09-.1.15-.17.15-.23v-.18l-.44.4-.57.74c-.05.1-.08.28-.09.3 0 .03-.07.07-.1.17-.05.1-.17.37-.34.62Z" fill="#F6F1DB"/><path d="m4.22 13.97-1.18-.53v.13l.82.4h.36Z" fill="#0C0D12"/><path d="m5.31 12.55-.84-1.75c.14.33.43 1.03.5 1.13.08.13.52 1.33.6 1.54.1.2 0 .31-.06.26a1.91 1.91 0 0 1-.3-.65c-.05-.28-.32-.57-.52-.62-.2-.06.32.59.4.8.09.21.25.53.19.64-.06.11-.4-.56-.5-.8-.1-.23-.26-.42-.38-.59-.12-.16.02.4.05.46.02.05.3.37.46.57.13.15.2.36.22.45h.93c0-.06-.06-.41-.25-1.34a4.16 4.16 0 0 0-.78-1.78c.1.2.35.68.48.9.16.28.3 1.06.3 1.34 0 .22.09.63.13.81l-.63-1.37Z" fill="url(#uro1xjpdv)"/><path d="M3.65 12.7c-.03-.06-.18-.32-.04-.37.1-.04.26.19.42.44l.1.14c.15.23.38.37.54.47l.13.08c.14.1.4.47.18.42a1.91 1.91 0 0 1-.81-.47 10 10 0 0 1-.52-.72Zm-.6.53v-.34c.05-.03.16-.06.2 0 .07.07.39.44.5.52.12.08.01.12-.24 0s-.4-.18-.46-.18Z" fill="url(#vro1xjpdv)"/><path d="M4.74 10.01c.01-.26.35-.66.38-.67-.06.16-.2.48-.2.52 0 .05.2.5.4.8.2.3.73 1.2.83 1.6.08.3.24 1.28.32 1.73h-.42l-.1-.67a9.87 9.87 0 0 0-.4-1.58c-.12-.26-.47-.83-.62-1.08a1.5 1.5 0 0 1-.2-.65Z" fill="url(#wro1xjpdv)"/><path d="M4.96 10.4a.53.53 0 0 1-.04-.37c.03.1.12.34.19.47.1.16.54.83.73 1.25.2.41.2.6.3.85.09.25.24 1.15.25 1.3 0 .13-.13.09-.2.05-.05-.31-.16-1.02-.19-1.35-.03-.4-.6-1.4-.67-1.55-.06-.17-.27-.44-.37-.66Z" fill="#BC683A"/><path d="m11.65 12.84-.24 1.13h.4c.06-.27.2-.89.24-1.13.05-.31.42-1.09.53-1.29.12-.2.38-.58.44-.99.05-.41.02-.58-.05-.84-.06-.2-.14-.24-.17-.23.03.36.01 1.19-.33 1.6a5 5 0 0 0-.82 1.75Z" fill="url(#xro1xjpdv)"/><path d="M6.8 12.79c-.06-.02.2-.46.23-.5.08.06.52.22 1.67.27a7.66 7.66 0 0 0 2.36-.24v.36c-.01.03-.59.3-2.27.3-1.69 0-1.92-.17-1.98-.2Z" fill="#4B4D4A"/><path d="M6.85 13.56v-.76c.31.09 1.57.18 2.44.2.7 0 1.56-.13 1.9-.2 0 .25-.03.77-.06.83-.03.07-.3.06-.37.06s-1.46-.09-2.3-.06c-.68.02-1.36-.04-1.61-.07Z" fill="url(#yro1xjpdv)"/><path d="M6.86 14v-.47l4.28.05V14H6.86Z" fill="#664C35"/><path d="M8.32 13.76V14h1.3v-.24h-1.3Z" fill="url(#zro1xjpdv)"/><path d="M14.57 12.41h-.36l-.36.62.06.54 1.03-.03-.13-.5c-.05-.2-.18-.5-.24-.63Z" fill="#EF9C85"/><path d="m13.85 13.04-.15-.67.52.04.1.6-.47.03Z" fill="#4161B4"/><path d="M5.52 8.26c0 .02-.1.06-.16.07l-.16-.72h.22V6.07a5 5 0 0 1 .2-.86c.05-.05-.02.55-.06.86v1.28l-.04.9Z" fill="#524940"/><path d="M5 7.41c-.04-.05-.02-1.3 0-1.34.3-.19.45.03.45.06L5.42 7.5c-.01.02-.4-.03-.43-.09Z" fill="#4C3E36"/><path d="M5.43 6c-.08.06-.32.05-.42.03-.07-.25.04-.5.16-.69.1-.15.34-.17.45-.17-.04.26-.12.78-.2.84Z" fill="url(#aaro1xjpdv)"/><ellipse cx="5.2" cy="6.27" rx=".17" ry=".16" fill="#0F1934"/><ellipse cx="5.14" cy="7.32" rx=".11" ry=".1" fill="#271009"/><path d="M12.46 8.25c0 .03.11.06.16.08l.18-.72h-.22c.01-.49.04-1.47.03-1.54a5 5 0 0 0-.18-.86c-.05-.06 0 .55.04.86l-.03 1.27.02.91Z" fill="#524940"/><path d="M13 7.42c.04-.06.05-1.3.04-1.34-.31-.2-.47.02-.47.05V7.5c.02.02.4-.03.44-.08Z" fill="#4C3E36"/><path d="M12.6 6c.08.06.31.05.42.04.07-.26-.03-.51-.15-.7-.1-.14-.33-.18-.44-.18.03.26.1.79.17.84Z" fill="url(#abro1xjpdv)"/><ellipse cx=".17" cy=".16" rx=".17" ry=".16" transform="matrix(-.9998 -.02004 -.02147 .99977 13 6.12)" fill="#0F1934"/><ellipse cx=".11" cy=".1" rx=".11" ry=".1" transform="matrix(-.9998 -.02004 -.02147 .99977 12.97 7.22)" fill="#271009"/><defs><linearGradient id="aro1xjpdv" x1="1.45" y1="3.3" x2="14.6" y2="16.24" gradientUnits="userSpaceOnUse"><stop offset=".11" stop-color="#031F2D"/><stop offset=".36" stop-color="#508478"/><stop offset=".5" stop-color="#9D6B3E"/><stop offset=".64" stop-color="#6D303F"/><stop offset=".85" stop-color="#1C293A"/></linearGradient><linearGradient id="bro1xjpdv" x1="4.91" y1="8.97" x2="12.58" y2="8.47" gradientUnits="userSpaceOnUse"><stop stop-color="#441E1C"/><stop offset="1" stop-color="#141213"/></linearGradient><linearGradient id="cro1xjpdv" x1="5.82" y1="6.15" x2="12.3" y2="6.15" gradientUnits="userSpaceOnUse"><stop stop-color="#348C8D"/><stop offset=".43" stop-color="#2B8893"/><stop offset=".83" stop-color="#D9BA6A"/><stop offset="1" stop-color="#E9E67F"/></linearGradient><linearGradient id="dro1xjpdv" x1="7.8" y1="8.92" x2="7.89" y2="3.76" gradientUnits="userSpaceOnUse"><stop offset=".15" stop-color="#010101"/><stop offset=".83" stop-color="#2B8893" stop-opacity="0"/></linearGradient><linearGradient id="ero1xjpdv" x1="7.97" y1="3.75" x2="10.18" y2="3.74" gradientUnits="userSpaceOnUse"><stop stop-color="#3B3E4F"/><stop offset="1" stop-color="#B18175"/></linearGradient><linearGradient id="fro1xjpdv" x1="6.32" y1="4.83" x2="11.94" y2="4.83" gradientUnits="userSpaceOnUse"><stop stop-color="#FBFDF8"/><stop offset="1" stop-color="#F1F6C0"/></linearGradient><linearGradient id="gro1xjpdv" x1="10.61" y1="10.31" x2="9.1" y2="14.03" gradientUnits="userSpaceOnUse"><stop stop-color="#EAEFE8"/><stop offset=".79" stop-color="#839194"/></linearGradient><linearGradient id="hro1xjpdv" x1="6.34" y1="11.42" x2="11.89" y2="9.87" gradientUnits="userSpaceOnUse"><stop offset=".52" stop-color="#14121D"/><stop offset="1" stop-color="#356D88"/></linearGradient><linearGradient id="iro1xjpdv" x1="5.56" y1="10.76" x2="12.27" y2="9.29" gradientUnits="userSpaceOnUse"><stop stop-color="#35353F"/><stop offset="1" stop-color="#42829D"/></linearGradient><linearGradient id="jro1xjpdv" x1="6.43" y1="7.36" x2="11.08" y2="4.53" gradientUnits="userSpaceOnUse"><stop offset=".73"/><stop offset="1" stop-color="#E4661C"/></linearGradient><linearGradient id="kro1xjpdv" x1="6.9" y1="8.95" x2="11.08" y2="8.95" gradientUnits="userSpaceOnUse"><stop stop-color="#9D9F94"/><stop offset=".43" stop-color="#2F2724"/><stop offset="1" stop-color="#E7E7DB"/></linearGradient><linearGradient id="lro1xjpdv" x1="8.11" y1="7.23" x2="7.88" y2="7.52" gradientUnits="userSpaceOnUse"><stop offset=".4" stop-color="#8D5830"/><stop offset="1" stop-color="#45230A"/></linearGradient><linearGradient id="mro1xjpdv" x1="7.3" y1="4.84" x2="7.04" y2="6.83" gradientUnits="userSpaceOnUse"><stop stop-color="#6B7B8A"/><stop offset=".56" stop-color="#BEBDC5"/><stop offset=".95" stop-color="#893900"/></linearGradient><linearGradient id="nro1xjpdv" x1="7.43" y1="4.7" x2="10.83" y2="4.7" gradientUnits="userSpaceOnUse"><stop stop-color="#7F513A"/><stop offset=".4" stop-color="#E46F05"/><stop offset=".56" stop-color="#E06706"/><stop offset="1" stop-color="#D37531"/></linearGradient><linearGradient id="oro1xjpdv" x1="10.8" y1="4.84" x2="11.06" y2="6.83" gradientUnits="userSpaceOnUse"><stop stop-color="#6B7B8A"/><stop offset=".56" stop-color="#BEBDC5"/><stop offset=".95" stop-color="#893900"/></linearGradient><linearGradient id="pro1xjpdv" x1="7.46" y1="6.18" x2="10.84" y2="6.18" gradientUnits="userSpaceOnUse"><stop stop-color="#3B2C27"/><stop offset=".36" stop-color="#D2976F"/><stop offset=".71" stop-color="#EAC9A6"/><stop offset="1" stop-color="#3B2C27"/></linearGradient><linearGradient id="qro1xjpdv" x1="9.13" y1="6.49" x2="9.13" y2="7.2" gradientUnits="userSpaceOnUse"><stop stop-color="#D1601E"/><stop offset="1" stop-color="#ECB690"/></linearGradient><linearGradient id="rro1xjpdv" x1="11.85" y1="10.01" x2="8.64" y2="9.61" gradientUnits="userSpaceOnUse"><stop stop-color="#E2A14D"/><stop offset="1" stop-color="#572E12"/></linearGradient><linearGradient id="sro1xjpdv" x1="11.42" y1="10.41" x2="5.84" y2="9.71" gradientUnits="userSpaceOnUse"><stop stop-color="#FCD6C3"/><stop offset=".55" stop-color="#7F6043"/><stop offset="1" stop-color="#B07B50"/></linearGradient><linearGradient id="tro1xjpdv" x1="5.87" y1="10.12" x2="12.2" y2="9.53" gradientUnits="userSpaceOnUse"><stop stop-color="#6E3E20"/><stop offset="1" stop-color="#BAD5D9"/></linearGradient><linearGradient id="uro1xjpdv" x1="4.08" y1="11.61" x2="5.14" y2="14.02" gradientUnits="userSpaceOnUse"><stop offset=".5" stop-color="#2B2C31"/><stop offset="1" stop-color="#0C0D12"/></linearGradient><linearGradient id="vro1xjpdv" x1="3.18" y1="12.52" x2="4.26" y2="13.92" gradientUnits="userSpaceOnUse"><stop stop-color="#755443"/><stop offset="1" stop-color="#1E303C"/></linearGradient><linearGradient id="wro1xjpdv" x1="4.6" y1="9.75" x2="5.91" y2="13.91" gradientUnits="userSpaceOnUse"><stop stop-color="#C9894C"/><stop offset=".28" stop-color="#270E07"/></linearGradient><linearGradient id="xro1xjpdv" x1="12.23" y1="9.49" x2="12.23" y2="13.97" gradientUnits="userSpaceOnUse"><stop offset=".51" stop-color="#AC6633"/><stop offset="1" stop-color="#3C1A08"/></linearGradient><linearGradient id="yro1xjpdv" x1="7.54" y1="13.47" x2="7.78" y2="12.63" gradientUnits="userSpaceOnUse"><stop stop-color="#4E433D"/><stop offset="1" stop-color="#9F9289"/></linearGradient><linearGradient id="zro1xjpdv" x1="8.47" y1="13.69" x2="8.95" y2="14.02" gradientUnits="userSpaceOnUse"><stop stop-color="#1B1F3A"/><stop offset=".44" stop-color="#45121B"/><stop offset="1" stop-color="#183A6B"/></linearGradient><linearGradient id="aaro1xjpdv" x1="5.3" y1="5.17" x2="5.3" y2="6.05" gradientUnits="userSpaceOnUse"><stop stop-color="#FEFFF9"/><stop offset="1" stop-color="#A29B8B"/></linearGradient><linearGradient id="abro1xjpdv" x1="12.75" y1="5.17" x2="12.73" y2="6.05" gradientUnits="userSpaceOnUse"><stop stop-color="#FEFFF9"/><stop offset="1" stop-color="#A29B8B"/></linearGradient></defs></svg>