<!-- by TradingView --><svg width="18" height="18" viewBox="0 0 18 18" xmlns="http://www.w3.org/2000/svg"><path fill="#181B1E" d="M0 0h18v18H0z"/><path d="M9 4a4.94 4.94 0 0 1 5 4.38h-2.26L9.13 6H5a5.2 5.2 0 0 1 4-2Z" fill="url(#a)"/><path d="M9 14a4.94 4.94 0 0 1-5-4.38h2.26L8.87 12H13a5.2 5.2 0 0 1-4 2Z" fill="url(#b)"/><path d="M9 14a4.94 4.94 0 0 1-5-4.38h.41a4.97 4.97 0 0 0 8.37 2.64A5.19 5.19 0 0 1 9.01 14Z" fill="url(#c)"/><path d="M4.58 7A5.18 5.18 0 0 0 4 9h2.15L8 7H4.58Z" fill="url(#d)"/><path d="M8 7 5.02 9H4c0-.5.2-1.46.5-2H8Z" fill="#B464FF"/><path d="M13.42 11c.34-.43.53-1.51.58-2h-2.15L10 11h3.42Z" fill="url(#e)"/><path d="m10 11 2.98-2H14c0 .5-.2 1.46-.5 2H10Z" fill="#B464FF"/><defs><linearGradient id="a" x1="5.01" y1="5.78" x2="14.13" y2="8.78" gradientUnits="userSpaceOnUse"><stop offset=".12" stop-color="#FE95FF"/><stop offset="1" stop-color="#B464FF"/></linearGradient><linearGradient id="b" x1="12.99" y1="12.22" x2="3.87" y2="9.22" gradientUnits="userSpaceOnUse"><stop offset=".12" stop-color="#FE95FF"/><stop offset="1" stop-color="#B464FF"/></linearGradient><linearGradient id="c" x1="12.87" y1="12.22" x2="3.85" y2="9.29" gradientUnits="userSpaceOnUse"><stop offset=".17" stop-color="#B464FF"/><stop offset=".77" stop-color="#FE95FF"/></linearGradient><linearGradient id="d" x1="8" y1="7.13" x2="5" y2="8.92" gradientUnits="userSpaceOnUse"><stop stop-color="#B464FF"/><stop offset="1" stop-color="#FE95FF"/></linearGradient><linearGradient id="e" x1="10" y1="10.87" x2="13" y2="9.08" gradientUnits="userSpaceOnUse"><stop stop-color="#B464FF"/><stop offset="1" stop-color="#FE95FF"/></linearGradient></defs></svg>