<!-- by TradingView --><svg width="18" height="18" viewBox="0 0 18 18" xmlns="http://www.w3.org/2000/svg"><path fill="#F0F3FA" d="M0 0h18v18H0z"/><path fill="#D57A19" d="M5 4h.5v.5H5z"/><path fill="#C75C0A" d="M8 4h.5v.5H8zM9.5 4h.5v.5h-.5z"/><path fill="#D57A19" d="M8 3h.5v.5H8zM9.5 3h.5v.5h-.5z"/><path fill="#C75C0A" d="M8 14h.5v-.5H8zM9.5 14h.5v-.5h-.5z"/><path fill="#D57A19" d="M8 15h.5v-.5H8zM9.5 15h.5v-.5h-.5z"/><path fill="#DFA02A" d="M10 4.5h.5V5H10z"/><path fill="#D57A19" d="M11 4.5h-.5V5h.5z"/><path fill="#C75C0A" d="M11.5 4.5H11V5h.5z"/><path fill="#D57A19" d="M13 4h-.5v.5h.5z"/><path fill="#C75C0A" d="M11.5 5.5H11V6h.5z"/><path fill="#DFA02A" d="M12 5.5h-.5V6h.5z"/><path fill="#C75C0A" d="M12.5 5.5H12V6h.5z"/><path fill="#DFA02A" d="M12.5 6H12v.5h.5z"/><path fill="#C75C0A" d="M12 6h-.5v.5h.5zM12.5 6.5H12V7h.5z"/><path fill="#D57A19" d="M14 12.5h-.5v.5h.5zM13 13.5h-.5v.5h.5zM5.5 13.5H5v.5h.5z"/><path fill="#DFA02A" d="M6.5 13h-1v.5h1z"/><path fill="#C75C0A" d="M7 13h-.5v.5H7z"/><path fill="#D57A19" d="M7.5 13H7v.5h.5z"/><path fill="#DFA02A" d="M8 13h-.5v.5H8z"/><path fill="#D57A19" d="M10 13H8v.5h2z"/><path fill="#DFA02A" d="M10.5 13H10v.5h.5z"/><path fill="#D57A19" d="M11 13h-.5v.5h.5z"/><path fill="#C75C0A" d="M11.5 13H11v.5h.5z"/><path fill="#DFA02A" d="M12.5 13h-1v.5h1z"/><path fill="#D57A19" d="M12.5 12.5H11v.5h1.5zM7 12.5H5.5v.5H7z"/><path fill="#862F07" d="M11 12.5H7v.5h4z"/><path fill="#DFA02A" d="M13.5 10H13v.5h.5z"/><path fill="#D57A19" d="M13.5 10.5H13v.5h.5z"/><path fill="#C75C0A" d="M13.5 11H13v.5h.5z"/><path fill="#DFA02A" d="M13.5 11.5H13v1h.5z"/><path fill="#D57A19" d="M13 5.5h-.5V7h.5z"/><path fill="#DFA02A" d="M13.5 5.5H13v1h.5z"/><path fill="#D57A19" d="M14 5h-.5v.5h.5z"/><path fill="#C75C0A" d="M13.5 6.5H13V7h.5z"/><path fill="#D57A19" d="M13.5 7H13v.5h.5z"/><path fill="#C75C0A" d="M13 7h-.5v1h.5z"/><path fill="#DFA02A" d="M13.5 7.5H13V8h.5z"/><path fill="#D57A19" d="M13.5 8H13v2h.5z"/><path fill="#A94C05" d="M13 8h-.5v1h.5z"/><path fill="#862F07" d="M13 9h-.5v2h.5z"/><path fill="#DFA02A" d="M8.5 4h1v.5h-1z"/><path fill="#D57A19" d="M8.5 3.5h1V4h-1zM13 11h-.5v1.5h.5zM12.5 5H11v.5h1.5z"/><path fill="#DFA02A" d="M12 4.5h-.5V5h.5zM12.5 4.5H12V5h.5zM8.5 14h1v-.5h-1z"/><path fill="#D57A19" d="M8.5 14.5h1V14h-1z"/><path fill="#C75C0A" d="M6.5 4.5H7V5h-.5z"/><path fill="#D57A19" d="M7 4.5h.5V5H7z"/><path fill="#DFA02A" d="M7.5 4.5H8V5h-.5z"/><path fill="#C75C0A" d="M7 5h4v.5H7z"/><path fill="#D57A19" d="M8 4.5h2V5H8z"/><path fill="#DFA02A" d="M5.5 4.5h1V5h-1z"/><path fill="#D57A19" d="M5.5 5H7v.5H5.5zM4 5h.5v.5H4z"/><path fill="#C75C0A" d="M5.5 5.5H6V6h-.5z"/><path fill="#DFA02A" d="M6 5.5h.5V6H6z"/><path fill="#C75C0A" d="M6.5 5.5H7V6h-.5zM6 6h.5v.5H6z"/><path fill="#DFA02A" d="M5.5 6H6v.5h-.5z"/><path fill="#C75C0A" d="M5.5 6.5H6V7h-.5z"/><path fill="#F4CB5F" d="M6 7h.5v.5H6z"/><path fill="#FAE58E" d="M6.5 6.5H7V7h-.5z"/><path fill="#DFA02A" d="M7 6.5h.5V7H7zM6.5 7H7v.5h-.5z"/><path fill="#F4CB5F" d="M5.5 7.5H6V8h-.5z"/><path fill="#E9BB40" d="M5.5 8H6v1h-.5z"/><path fill="#DFA02A" d="M6 7.5h.5V9H6zM5.5 9H6v1h-.5z"/><path fill="#862F07" d="M5 9h.5v2H5z"/><path fill="#C75C0A" d="M4 8h.5v.5H4zM4 9.5h.5v.5H4z"/><path fill="#D57A19" d="M3 8h.5v.5H3zM3 9.5h.5v.5H3z"/><path fill="#C75C0A" d="M14 8h-.5v.5h.5zM14 9.5h-.5v.5h.5z"/><path fill="#D57A19" d="M15 8h-.5v.5h.5zM15 9.5h-.5v.5h.5zM4 12.5h.5v.5H4z"/><path fill="#C75C0A" d="M5.5 12H6v.5h-.5z"/><path fill="#DFA02A" d="M5.5 11.5H6v.5h-.5z"/><path fill="#862F07" d="M5.5 11H6v.5h-.5zM6 11.5h.5v.5H6zM6.5 12H7v.5h-.5z"/><path fill="#DFA02A" d="M6 12h.5v.5H6z"/><path fill="#862F07" d="M11 12h.5v.5H11z"/><path fill="#DFA02A" d="M11.5 12h.5v.5h-.5z"/><path fill="#C75C0A" d="M12 12h.5v.5H12z"/><path fill="#DFA02A" d="M12 11.5h.5v.5H12z"/><path fill="#862F07" d="M11.5 11.5h.5v.5h-.5zM12 11h.5v.5H12z"/><path fill="#C75C0A" d="M11 11h1v.5h-1zM10.5 11.5h1v.5h-1zM7 11H6v.5h1z"/><path fill="#D57A19" d="M6.5 10.5h-1v.5h1z"/><path fill="#C75C0A" d="M7.5 11.5h-1v.5h1zM7 12h4v.5H7z"/><path fill="#D57A19" d="M3.5 8.5H4v1h-.5z"/><path fill="#DFA02A" d="M4 8.5h.5v1H4z"/><path fill="#D57A19" d="M4.5 10.5H5v.5h-.5z"/><path fill="#DFA02A" d="M4.5 10H5v.5h-.5z"/><path fill="#D57A19" d="M5.5 10H6v.5h-.5zM6.5 10H7v.5h-.5z"/><path fill="#E9BB40" d="M6.5 10.5H7v.5h-.5zM7 11h.5v.5H7zM10.5 11h.5v.5h-.5zM11 10.5h.5v.5H11zM6 9h.5v1.5H6z"/><path fill="#F4CB5F" d="M6.5 8H7v2h-.5zM11 8h.5v2H11z"/><path fill="#DFA02A" d="M11.5 7.5h.5V9h-.5z"/><path fill="#E9BB40" d="M11.5 9h.5v1.5h-.5z"/><path fill="#DFA02A" d="M12 9h.5v1H12z"/><path fill="#E9BB40" d="M12 8h.5v1H12z"/><path fill="#D57A19" d="M12 10h.5v1H12zM11.5 10.5h.5v.5h-.5z"/><path fill="#E9BB40" d="M7 8h.5v1H7z"/><path fill="#DFA02A" d="M7 9h.5v.5H7zM10.5 9h.5v.5h-.5z"/><path fill="#E9BB40" d="M10.5 8h.5v1h-.5zM8.5 8h1v1h-1z"/><path fill="#DFA02A" d="M8.5 9h1v.5h-1zM11 9.5v.5H7v-.5z"/><path fill="#E9BB40" d="M11 10v.5H7V10z"/><path fill="#D57A19" d="M11 10h.5v.5H11z"/><path fill="#DFA02A" d="M11 7h.5v.5H11zM10.5 6.5h.5V7h-.5z"/><path fill="#FAE58E" d="M11 6.5h.5V7H11z"/><path fill="#F4CB5F" d="M12 7h-.5v.5h.5zM12.5 7.5H12V8h.5z"/><path fill="#DFA02A" d="M10.5 6h-3v.5h3z"/><path fill="#FAE58E" d="M10.5 6.5h-3V7h3z"/><path fill="#F4CB5F" d="M11 7.5H7V8h4z"/><path fill="#D57A19" d="M11 10.5H7v.5h4z"/><path fill="#C75C0A" d="M10.5 11h-3v.5h3z"/><path fill="#E9BB40" d="M10.5 11.5h-3v.5h3z"/><path fill="#C75C0A" d="M4.5 11H5v.5h-.5z"/><path fill="#D57A19" d="M5 11h.5v1.5H5z"/><path fill="#DFA02A" d="M4.5 11.5H5v1h-.5z"/><path fill="#D57A19" d="M14.5 8.5H14v1h.5z"/><path fill="#DFA02A" d="M14 8.5h-.5v1h.5z"/><path fill="#C75C0A" d="M4.5 6.5H5V7h-.5z"/><path fill="#D57A19" d="M5 6.5h.5V7H5z"/><path fill="#C75C0A" d="M5 7h.5v.5H5z"/><path fill="#D57A19" d="M4.5 7H5v.5h-.5z"/><path fill="#DFA02A" d="M4.5 7.5H5V8h-.5z"/><path fill="#C75C0A" d="M5 7.5h.5V8H5z"/><path fill="#A94C05" d="M5 8h.5v1H5z"/><path fill="#D57A19" d="M4.5 8H5v2h-.5z"/><path fill="#DFA02A" d="M4.5 5.5H5v1h-.5z"/><path fill="#D57A19" d="M5 5.5h.5v1H5z"/></svg>