<!-- by TradingView --><svg width="18" height="18" viewBox="0 0 18 18" xmlns="http://www.w3.org/2000/svg"><path fill="#181B1E" d="M0 0h18v18H0z"/><path d="M8.76 4.15c.1-.2.37-.2.48 0l3.71 7.03c.1.18.04.4-.12.5l-3.58 2.25c-.16.1-.34.1-.5 0l-3.58-2.24a.39.39 0 0 1-.12-.51l3.7-7.03Zm.5 9.06 2.88-1.8-2.87-1.88v3.68Zm-3.62-1.94 3.1 1.93V5.46l-3.1 5.81Zm3.97-2.3 2.34 1.53-1.18-2.23-1.16.7Zm-.34-.57 1.2-.72-1.2-2.25V8.4Z" fill="url(#a)"/><defs><linearGradient id="a" x1="13" y1="9" x2="5" y2="9" gradientUnits="userSpaceOnUse"><stop stop-color="#F9656B"/><stop offset="1" stop-color="#AB4FEF"/></linearGradient></defs></svg>