<!-- by TradingView --><svg width="18" height="18" viewBox="0 0 18 18" xmlns="http://www.w3.org/2000/svg"><path fill="#FF6E00" d="M0 0h18v18H0z"/><path d="M6.33 9.63h.5l.03-.01.01-.03V8.53l.01-.02.03-.01h.53l.02-.01.02-.03v-.48c0-.01 0-.02-.02-.03H6.33l-.03-.02-.01-.02V6.28l-.01-.02-.03-.01h-.53a.04.04 0 0 1-.02-.01.03.03 0 0 1-.01-.02V4.58l.03-.01h.53l.03-.01v-.52A.03.03 0 0 1 6.3 4 .04.04 0 0 1 6.33 4h4.07l.03.01.01.02v.5l.01.03.03.01H11l.03.01V6.21l.02.03h.54l.03.02v2.2l.02.03h.55l.03.02v1.65l.02.02.02.01h.52l.02.01.01.03v.49l.01.02.03.01h1.11l.03.01.01.03v1.62l-.01.02-.03.01h-.51l-.03.01v.52l-.02.02-.02.01H4.54l-.03-.01-.01-.02v-1.61l.01-.03h.55a.04.04 0 0 0 .03-.02.03.03 0 0 0 0-.02v-.5l.02-.03h.54l.03-.02v-.51l.02-.02.02-.01h.53l.03-.01v-.53l.02-.02.03-.01Z" fill="#fff"/><path d="M9.25 5.1v-.52H9.85l.01.02v.5l.01.02h.55l.02.02v1.65l.02.02.02.01h.56l.01.03v2.21l.03.01h.53l.02.01V10.72l.01.01a.03.03 0 0 0 .02.02H12.22v1.09a.03.03 0 0 0 .01.03h.55l.02.01.01.03v.53h-1.76l-.01-.02v-.51l-.01-.03h-.56l-.02-.01-.01-.03v-.51H11.02l.02-.02v-.55h-.56l-.02-.02v-.52l-.02-.02H7.51l-.03-.01V9.08H8.05l.01.02v.5l.01.02h2.34a.03.03 0 0 0 .02 0V9.1a.03.03 0 0 0 0-.02.03.03 0 0 0-.02 0h-.53l-.02-.02V7.4l-.02-.02H9.26l-.01.02v.51l-.01.02-.02.01h-.55V7.4l-.02-.03H8.1l-.02-.01v-.52l-.02-.02-.02-.01h-.55v-.56l.03-.01H8.65l.01-.03V5.14l-.03-.01H6.91l-.03-.01v-.54l.03-.01h1.74l.01.03v.5l.01.02H9.24V5.1ZM6.84 5.13h-.52a.03.03 0 0 0-.04.03v.5c0 .02.02.03.04.03h.52c.02 0 .04-.01.04-.03v-.5a.03.03 0 0 0-.04-.03Z" fill="#FF6E00"/><path d="M9.82 5.7h-.54a.03.03 0 0 0-.03.02v.5c0 .02.01.03.03.03h.54c.02 0 .03-.01.03-.03v-.5a.03.03 0 0 0-.03-.03ZM9.21 6.25H8.7a.04.04 0 0 0-.04.04v.5c0 .01.02.03.04.03h.51c.02 0 .04-.02.04-.04v-.5a.04.04 0 0 0-.04-.03ZM10.4 6.82H9.9a.04.04 0 0 0-.04.03v.49c0 .02.02.03.04.03h.51c.02 0 .04 0 .04-.03v-.48a.04.04 0 0 0-.04-.04Z" fill="#fff"/><path d="M8.63 7.94h-.54a.03.03 0 0 0-.03.03v1.07c0 .02.01.03.03.03h.54c.02 0 .03-.01.03-.03V7.97a.03.03 0 0 0-.03-.03ZM6.9 10.2h.56l.01.03v1.06l.01.02.03.01h1.12l.02.01.01.03v.48l.01.02.02.01h.52l.03.01v.56H7.48v-.53a.03.03 0 0 0-.02-.02v-.01H5.71l-.02-.01-.01-.03v-.51H6.85l.03-.02v-1.08c0-.01 0-.02.02-.02l.02-.01ZM13.38 11.32h-.53a.03.03 0 0 0-.04.03v.49c0 .02.02.03.03.03h.54c.02 0 .03-.01.03-.03v-.49c0-.01 0-.03-.03-.03ZM5.65 11.87h-.51a.03.03 0 0 0-.04.04v.5c0 .02.02.04.04.04h.52c.02 0 .03-.02.03-.04v-.5a.03.03 0 0 0-.04-.04Z" fill="#FF6E00"/></svg>