<!-- by TradingView --><svg width="18" height="18" xmlns="http://www.w3.org/2000/svg"><path fill="url(#paint0_linear)" d="M0 0h18v18H0z"/><path d="M4.586 8.035c-.19.118-.08-.05 0-.148 1.058-1.485 2.368-1.738 2.891-1.68.287.009.915.118 1.161.474.277.4.292.697.4 1.354.086.525.492.818.684.898.277-.339.73-.293.923-.227.376-.233.365-.599.312-.753-.105.083-.343.128-.45.14-.291.013-.885-.152-.926-.909-.04-.757.693-.892 1.064-.865-.81-.917-2.005-.999-2.57-.991-.451.006-.94.119-1.172.266-.51.323-1.564.992-1.709 1.087-.144.095-.263.084-.304.067-.608.52-.847 1.168-.89 1.427.024.175.15.466.456.23.307-.237.215-.346.13-.37z" fill="#fff"/><path d="M5.608 5.767l-.702.497.181.462.73-.511-.209-.448zM5.872 6.765a2.203 2.203 0 00-1.259 1.967c0 1.075.837 1.978 2.321 1.987 1.187.008 2.305-.81 2.715-1.219v-.499c-.676-.384-.783-1.113-.752-1.43-.056-.269-.233-.845-.488-.998-.32-.192-1.174-.5-2.537.192z" fill="#58AAFC"/><path d="M4.861 8.118c.028-.152.164-.456.49-.462-.133.095-.418.32-.49.462zM7.1 7.386a.751.751 0 01-.415.27c.138.013.441 0 .55-.154.108-.154.291-.28.369-.323-.12 0-.39.041-.505.207z" fill="#000"/><ellipse rx=".228" ry=".504" transform="matrix(.83848 -.54493 .52854 .8489 5.72 9.123)" fill="#000"/><ellipse rx=".228" ry=".504" transform="matrix(.83848 -.54493 .52854 .8489 7.679 7.952)" fill="#000"/><path d="M8.273 8.018a1.556 1.556 0 00-.018.02c-.093.106-.28.42-.366.572.048-.195.254-.452.366-.573a.309.309 0 01.018-.019zM8.335 8.548c-.558 1.194-1.603 1.424-2.057 1.389.587.166 1.143.07 1.348 0 .195.188.709.313.895-.067.247-.504.147-.89.066-1.019-.071-.116-.184-.35-.066-.35.117 0 .258.12.313.18-.01-.15-.17-.32-.37-.315a.358.358 0 00-.286.136h.157v.046z" fill="#000"/><path d="M10.517 6.365c.184 0 .308.106.348.158-.37 0-.85.046-.872.612-.018.452.574.63.871.664.015.057-.034.173-.347.173-.391 0-.879-.196-.871-.837.007-.642.642-.77.871-.77z" fill="#FF1D93"/><path d="M10.163 7.066c.06-.386.453-.447.643-.43-.104.038-.244.25-.259.476-.012.18.079.397.126.483-.195-.015-.57-.142-.51-.529z" fill="#FF1D93"/><path d="M11.06 5.075c.08.397.135 1.04.153 1.313h.377c.198.23.65.535.882.546.185.01.54-.116.695-.18.326-.01.371.229.353.35.211-.055.345.022.386.067-.129-.023-.386-.002-.386.259s-.294.575-.441.699c-.004.105.079.31.44.293.453-.023.993-.7.993-1.319 0-.496-.662-.492-.992-.428-.194-.1.08-.56.242-.778l1.136-1.52c.133-.369.24-1.087-.386-1.015-.783.09-1.202 1.352-1.345 1.848-.144.496-.519 1.318-.695 1.318-.177 0-.441-.428-.232-1.002.168-.46.224-1.018.232-1.24-.044-1.082-.57-1.307-.827-1.285-.905.248-.684 1.578-.585 2.074z" fill="#fff"/><path d="M11.928 6.863c-.296-.293-.49-.326-.55-.305-.448 0-.717.305-.717.59 0 .286.2.633.568 1 .296.293.789.305.998.275.24.22.519.22.628.194.064-.01.196-.064.22-.194.024-.13-.083-.238-.14-.275h-.528c-.647-.212-.955-.72-1.028-.948.233.285.8.848 1.207.815.407-.032.662-.353.739-.51.03-.146.05-.458-.11-.54-.16-.081-.486.089-.629.184-.096.027-.363.008-.658-.286z" fill="#fff"/><path d="M8.538 9.236c-.18.114-.503.399-.348.628.194.287.421-.403.348-.628z" fill="#FF1D93"/><path d="M8.23 8.976c-.149.21-.594.694-1.182.956.394.018 1.182-.147 1.182-.956z" fill="#fff"/><path d="M6.923 5.49l-1.203.256.223.412.98-.668z" fill="#58AAFC"/><path d="M5.685 12.686c-.506-.91-.437-2.014-.333-2.405l1.267.426v.7c1.971-.943 5.933-2.83 6.004-2.83.62.742.765 1.922.76 2.42C13.187 13.74 11.23 15 9.271 15c-1.96 0-2.901-1.081-3.586-2.314z" fill="#FF1D93"/><path d="M11.618 8.523c-.172.012-.347-.116-.414-.181-.176.363-.49.476-.625.486a.787.787 0 00-.563 0c-.256.093-.32.532-.32.74-.098.237-1.337.962-1.945 1.295.893-.429 2.697-1.303 2.772-1.373.075-.069.485-.1.681-.107.776-.098 1.138-.55 1.145-.671.006-.097-.13-.166-.2-.189a5.467 5.467 0 00-.531 0z" fill="#fff"/><path d="M10.825 13.246c-1.762 1.052-3.15.035-3.625-.605l4.82-2.366c.307 1.604-.669 2.649-1.195 2.97z" fill="#000"/><path d="M8.062 12.368c0-.106.028-.192.042-.222l3.041-1.456c.284.278.33.589.319.71 0 .576-.613.67-.941.62.034.036.193.1.268.127v.769l-.652-.895c.082-.14.265-.423.34-.43.076-.005.128.082.145.127h.26c-.138-.024-.327-.222-.405-.318-.096.128-.343.423-.557.576-.214.154-.818.178-1.093.17l.34.097c0 .503.304.584.55.614a.666.666 0 00.42-.09l-.782 1.51c-.067-.124-.2-.447-.188-.755.012-.307.246-.384.362-.384h-.702a.861.861 0 01-.767-.77zM5.656 10.93c.008-.146.163-.413.232-.471l.66.224c-.107.012-.33.172-.369.498-.047.408.363.392.42.392.058 0 .373 0 .4.279.02.222-.174.375-.274.424-.1.03-.308.052-.346-.107-.038-.16.215-.256.346-.285a.635.635 0 00-.378-.032c-.241.042-.305.752-.475.773-.044.005-.134.021-.176-.204-.034-.18.133-.433.22-.537-.117.047-.347.208-.33.483.017.275-.102.358-.163.365-.021.003-.166.018-.184-.263-.021-.33.37-.61.567-.708-.066-.063-.236-.14-.383.048-.147.189-.267.139-.293.043-.015-.43.602-.365.912-.279-.301-.192-.395-.46-.386-.643z" fill="#fff"/><defs><linearGradient id="paint0_linear" x1="3.349" y1="3.122" x2="21.904" y2="24.434" gradientUnits="userSpaceOnUse"><stop stop-color="#1A1E21"/><stop offset="1" stop-color="#06060A"/></linearGradient></defs></svg>