<!-- by TradingView --><svg width="18" height="18" viewBox="0 0 18 18" xmlns="http://www.w3.org/2000/svg"><path fill="#F0F3FA" d="M0 0h18v18H0z"/><path d="M15 9A6 6 0 1 1 3 9a6 6 0 0 1 12 0Zm-1.18 0a4.82 4.82 0 1 0-9.64 0 4.82 4.82 0 0 0 9.64 0Z" fill="#171717"/><path d="M11.02 8.95H11a16.51 16.51 0 0 0 1.15 2.25l-.02.03a3.96 3.96 0 0 1-.8.8v-.01a16.2 16.2 0 0 1-1.32-2.4l.01.12a13.93 13.93 0 0 0 .7 2.66l-.03.03a4.11 4.11 0 0 1-1.07.32 10 10 0 0 1-.6-1.95.01.01 0 0 0 0 .01 10.72 10.72 0 0 1-.6 1.94H8.4a4.36 4.36 0 0 1-1.05-.32v-.02a15.12 15.12 0 0 0 .7-2.88v.01a17.57 17.57 0 0 1-1.37 2.49h-.01a3.57 3.57 0 0 1-.78-.82 18.07 18.07 0 0 0 1.14-2.25.02.02 0 0 0-.02 0 6.4 6.4 0 0 1-1.67 1.14 4.25 4.25 0 0 1-.14-.7c0-.14-.05-.3-.02-.45a.05.05 0 0 1 .02-.03 6.78 6.78 0 0 0 1.73-1.56 12.7 12.7 0 0 0 1.34-1.98c.13-.07.29-.04.4-.07a2.68 2.68 0 0 1 1.15.1c.4.73.84 1.4 1.34 2 .44.55 1 1.09 1.62 1.47.07.04.1.1.08.18-.02.2 0 .38-.04.57a6.2 6.2 0 0 1-.13.48h-.01a5.86 5.86 0 0 1-1.66-1.16Zm-1 .63L10 9.56H10v.02h.01Z" fill="#171717"/></svg>