<!-- by TradingView --><svg width="18" height="18" viewBox="0 0 18 18" xmlns="http://www.w3.org/2000/svg"><path fill="#F0F3FA" d="M0 0h18v18H0z"/><path fill-rule="evenodd" d="M9 4a1.34 1.34 0 0 1 1.07.6l1.84 3.15.9-1.54c.18-.3.57-.41.87-.24.3.17.41.55.23.86L12.64 9l1.27 2.18c.18.3.08.68-.23.85-.3.18-.7.07-.87-.23l-.9-1.55-1.84 3.15A1.34 1.34 0 0 1 9 14a1.26 1.26 0 0 1-.96-.46.64.64 0 0 1-.11-.14l-.03-.04a1.79 1.79 0 0 1-.07-.12l-.47-.8-.3-.5-.97-1.69-.9 1.55c-.18.3-.57.4-.87.23a.62.62 0 0 1-.23-.85L5.36 9 4.09 6.83a.62.62 0 0 1 .23-.86c.3-.17.69-.06.87.24l.9 1.54 1.4-2.4.34-.58.09-.15V4.6A1.27 1.27 0 0 1 9 4Zm1.7 4.18.48.82L9 12.74 6.82 9l.52-.89 1.69 3.04 1.67-2.97Zm-.72-1.23L9 5.27l-.93 1.59.96 1.72.95-1.63Z" fill="url(#avedd2ohk)"/><path d="M11.18 7.72c-.23 0-.4.32-.48.46l.5.82.54-.52c-.07-.4-.27-.77-.56-.76Z" fill="url(#bvedd2ohk)"/><path d="M6.82 7.71c.23 0 .45.27.52.4l-.52.9-.56-.54c.08-.4.27-.76.56-.76Z" fill="url(#cvedd2ohk)"/><path d="M8.53 4.95c.23 0 .4.22.47.32l-.46.78-.79-.45c.25-.44.48-.67.78-.65Z" fill="url(#dvedd2ohk)"/><path d="M8.52 13.06c.23-.01.42-.22.48-.32l-.7-1.19-.77.45c.04.08.3.56.35.62.2.3.4.45.64.44Z" fill="url(#evedd2ohk)"/><defs><linearGradient id="avedd2ohk" x1="9" y1="4" x2="9" y2="14" gradientUnits="userSpaceOnUse"><stop stop-color="#00D1FF"/><stop offset="1" stop-color="#EC1EFF"/></linearGradient><linearGradient id="bvedd2ohk" x1="10.85" y1="7.9" x2="11.42" y2="8.79" gradientUnits="userSpaceOnUse"><stop stop-color="#4B7DDF"/><stop offset="1" stop-color="#717BFF"/></linearGradient><linearGradient id="cvedd2ohk" x1="7.15" y1="7.9" x2="6.51" y2="8.7" gradientUnits="userSpaceOnUse"><stop stop-color="#4B7DDF"/><stop offset="1" stop-color="#6F7CFF"/></linearGradient><linearGradient id="dvedd2ohk" x1="8.73" y1="4.94" x2="8.16" y2="5.84" gradientUnits="userSpaceOnUse"><stop stop-color="#08A9D8"/><stop offset="1" stop-color="#2BB0FF"/></linearGradient><linearGradient id="evedd2ohk" x1="8.68" y1="13" x2="7.97" y2="11.72" gradientUnits="userSpaceOnUse"><stop stop-color="#A526CA"/><stop offset="1" stop-color="#B746FF"/></linearGradient></defs></svg>