<!-- by TradingView --><svg width="18" height="18" viewBox="0 0 18 18" xmlns="http://www.w3.org/2000/svg"><path fill="#F0F3FA" d="M0 0h18v18H0z"/><path d="m8.87 3.01.48.82a.07.07 0 0 1-.02.1l-.43.24a.26.26 0 0 1-.32-.04.65.65 0 0 0-.29-.17c-.05-.06-.05-.11 0-.17l.24-.36.12-.23c.07-.17.14-.23.22-.19Z" fill="#E2C48A"/><path d="M8.87 3.01c.28.32.52.66.7 1-.03.24-.15.47-.35.7v.05c.02.02.02.03 0 .05a.66.66 0 0 0-.16.24l-.26-.23.51-.7c.08-.1.06-.13-.06-.07l-.42.22a.1.1 0 0 1-.09 0 1.2 1.2 0 0 1-.4-.28c0 .03-.02.02-.05-.03.12.03.22.09.29.17a.26.26 0 0 0 .32.04l.43-.24a.07.07 0 0 0 .02-.1L8.87 3Z" fill="#010101"/><path d="m8.8 4.82-.47-.66a.07.07 0 0 1 0-.07.23.23 0 0 0 0-.1c.13.13.27.22.41.28a.1.1 0 0 0 .09 0l.42-.22c.12-.06.14-.03.06.07l-.5.7Z" fill="#E2C48A"/><path d="M9.57 4.01c.15.1.19.22.1.35a.13.13 0 0 0-.01.09c0 .08 0 .13-.06.2l-.35.47a.08.08 0 0 1-.08.03c-.06 0-.1-.04-.1-.1.03-.1.09-.18.15-.24.02-.02.02-.03 0-.05V4.7c.2-.22.32-.45.35-.69Z" fill="#8A8989"/><path d="m9.96 4.36.55.88c.02.04.01.06-.02.08l-.51.3a.08.08 0 0 1-.09 0l-.33-.2-.02-.01a.02.02 0 0 0-.01.02v.01l.34.23a.13.13 0 0 0 .13 0l.46-.26c.07-.04.08-.03.04.04l-.55.76-.46-.62a.37.37 0 0 1-.02-.42l.5-.8Z" fill="#E2BF73"/><path d="m7.66 4.36.54.88c.02.03.02.06-.02.08l-.52.3a.06.06 0 0 1-.06 0l-.39-.23-.01.01c-.01.01 0 .02.01.03l.34.23a.15.15 0 0 0 .16 0l.44-.25.04.01.01.03c0 .01 0 .03-.02.04l-.53.72-.4-.52a.6.6 0 0 1-.14-.34c0-.03 0-.06.02-.09l.53-.9Z" fill="#E2C48A"/><path d="M8.42 5.4a.33.33 0 0 0 0 .2c0 .03 0 .06-.02.08l-.06.08c-.18.16-.3.35-.38.56a.09.09 0 0 1-.05.05l-.05.02h-.05l-.16-.18a12.38 12.38 0 0 1 .55-.76l-.01-.03c-.01-.01-.02-.02-.04 0l-.44.25a.15.15 0 0 1-.16-.01l-.34-.23c-.02 0-.02-.02-.01-.03h.01l.4.22a.06.06 0 0 0 .05 0l.52-.3c.04-.02.04-.05.02-.08l-.54-.88c.3.31.56.66.76 1.05ZM9.96 4.36c.32.35.58.7.77 1.07-.04.22-.16.44-.35.68a.2.2 0 0 0-.04.08c-.02.1-.09.17-.2.2a.55.55 0 0 1-.2-.18l.56-.76c.04-.07.03-.08-.04-.04l-.46.27a.13.13 0 0 1-.13 0l-.33-.24a.02.02 0 0 1-.01-.01V5.4h.03l.33.2c.03.02.06.02.09 0l.5-.29c.04-.02.05-.04.03-.08l-.55-.88Z" fill="#010101"/><path d="M7.81 6.38h.05c.08.07.15.06.21 0 .15-.17.24-.37.27-.62l.06-.08a.07.07 0 0 0 .02-.07.33.33 0 0 1 0-.2c.08.06.14.16.18.27 0 .03 0 .05-.04.07-.05.02-.06.06-.03.13a.07.07 0 0 1 0 .07l-.39.56a.12.12 0 0 1-.13.04.12.12 0 0 1-.05-.02l-.15-.15ZM10.14 6.4c.11-.04.18-.1.2-.21a.2.2 0 0 1 .04-.08c.2-.24.3-.46.35-.68.07.04.12.12.16.25.01.04 0 .05-.03.05h-.03c-.01 0-.03.02-.03.04-.02.04-.02.07 0 .1.03.01.04.04.02.06l-.43.62a.05.05 0 0 1-.03.02.05.05 0 0 1-.04-.01l-.18-.17Z" fill="#8A8989"/><path d="M8.34 5.76c-.03.25-.12.45-.27.61-.06.07-.13.08-.21.02l.05-.02c.03 0 .04-.03.05-.05.08-.21.2-.4.38-.56Z" fill="#545254"/><path d="m11.05 6.12-.02.05-.1-.11c0-.11.05-.09.12.06Z" fill="#B08027"/><path d="m6.72 6 .45.87a.17.17 0 0 1 0 .16L5.2 10.47c-.2-.23-.43-.44-.7-.6a221.28 221.28 0 0 0 2.16-3.84L6.72 6Z" fill="#E2BF73"/><path d="m7.36 6.92.07.36c0 .04-.01.06-.04.08l-.03.02a12.15 12.15 0 0 0-.62 1.06c-.07.12-.18.25-.25.4l-.15.3c-.1.14-.21.32-.32.55-.09.18-.18.36-.3.53a38.13 38.13 0 0 0-.34.6c-.48.83-.84 1.48-1.09 1.94a.07.07 0 0 1-.07.04h-.94a.64.64 0 0 1-.23-.2c.02-.03.05-.05.08-.04.28.01.57.02.85 0 .03 0 .05 0 .07-.04l1.07-1.87.09-.18 1.96-3.44a.17.17 0 0 0 0-.16L6.72 6c.27.27.48.58.64.92Z" fill="#010101"/><path d="M8.86 6.02a1.33 1.33 0 0 1-.04.02h.03v.01l.9 1.58-.25-.07c-.03-.01-.05 0-.08.02-.19.19-.33.37-.43.55-.03.03-.02.08.03.14l-.07-.05a.66.66 0 0 0-.14-.29c-.02-.02-.04-.02-.05 0l-1.5 2.64-.07-.06c-.02-.03-.05-.02-.06 0l-.08.14a.03.03 0 0 1-.03 0H7l-.02-.02v-.02c.14-.34.3-.61.48-.82.32-.38.59-.8.8-1.23.02-.05.01-.05-.02-.02L6.87 9.7c-.02.02-.04.01-.06-.01-.02-.03-.02-.08 0-.14l1.97-3.5c.01-.02.03-.03.05-.03h.03Z" fill="#E2BF73"/><path d="M8.86 6.02c.2.2.32.35.38.46a7009.7 7009.7 0 0 1 3.51 6.16l.04.15-1.02.07-.28-.28 1.01-.01h.01l.01-.01a.02.02 0 0 0 0-.02l-.53-.93-1.1-1.98-.5-.86-.64-1.14-.9-1.58h-.03v-.01l.04-.02Z" fill="#010101"/><path d="m11.03 6.17.22.4-.7.64c-.1-.12-.13-.22-.11-.32a.1.1 0 0 1 .04-.08.12.12 0 0 0 .06-.1c0-.02 0-.05.03-.08.1-.13.2-.29.26-.46.03-.06.06-.08.1-.11l.1.11Z" fill="#E2BF73"/><path d="M11.05 6.12c.17.17.28.3.34.41l3.55 6.3h-1.1a1.02 1.02 0 0 0-.25-.25l.97-.01c.07 0 .08-.03.05-.1l-.84-1.46-.6-1.05-1.03-1.83-.5-.88-.39-.68-.22-.4.02-.05Z" fill="#010101"/><path d="m11.25 6.57.39.68c-.03.22-.1.4-.24.53a.06.06 0 0 0-.02.05v.03c0 .03 0 .05-.04.05-.06.01-.1-.01-.12-.07 0-.05-.03-.06-.06-.02l-.16.16-.44-.77.7-.64Z" fill="#E2C48A"/><path d="M3.28 12.8h.94c.03 0 .06-.01.07-.04a67.91 67.91 0 0 1 1.44-2.54l.3-.53c.1-.23.2-.41.3-.55.05-.06.1-.16.16-.3.07-.15.18-.28.25-.4a12.15 12.15 0 0 1 .62-1.06l.03-.02a.07.07 0 0 0 .04-.08l-.07-.36.22.37c.02.02.02.05 0 .08l-3.15 5.55a.1.1 0 0 1-.07.05c-.46.06-.82 0-1.08-.17Z" fill="#8A8989"/><path d="M12.14 8.13a4.73 4.73 0 0 0-.42.4.08.08 0 0 0-.06.05.8.8 0 0 0-.1.41L11 7.98l.16-.16c.03-.04.05-.03.06.02.02.06.06.08.12.07.03 0 .05-.02.04-.05v-.03c0-.02 0-.04.02-.05.13-.13.21-.3.24-.53l.5.88Z" fill="#E2BF73"/><path d="m9.75 7.63.64 1.14-.6.81-.6-1.09c-.02-.03-.04-.04-.08-.02-.03.01-.06.04-.09.1a.57.57 0 0 0 0-.3c-.05-.06-.06-.1-.03-.14.1-.18.24-.36.43-.55a.07.07 0 0 1 .08-.02l.25.07Z" fill="#E2C48A"/><path d="M8.95 8.22c0 .07-.03.13-.08.18-.11.13-.2.28-.28.44-.1.21-.2.36-.25.45-.08.1-.15.23-.2.36-.02.06-.09.17-.2.34-.1.15-.18.3-.24.48-.12.14-.23.3-.32.48-.12.25-.21.42-.27.5-.1.15-.18.3-.25.49-.05.12-.17.2-.22.3-.1.22-.2.4-.3.58-.35.02-.7 0-1.01-.08-.04 0-.12-.06-.23-.18h.96c.03 0 .06 0 .07-.03l.68-1.17.45-.79 1.5-2.63c.01-.03.03-.03.05 0 .07.07.12.17.14.28Z" fill="#010101"/><path d="M13.17 9.96c-.27-.05-.47.2-.6.76l-1-1.73a.8.8 0 0 1 .09-.4.08.08 0 0 1 .06-.05 4.73 4.73 0 0 1 .42-.4l1.03 1.82Z" fill="#B08027"/><path d="M9.02 8.27c.02.07.03.17 0 .3l-2.46 4.34a.11.11 0 0 1-.1.05h-.78a.36.36 0 0 1-.2-.07.67.67 0 0 1-.15-.15c.32.07.66.1 1.01.08.03.11.08.1.15-.05.08-.16.19-.35.34-.57.04-.05.06-.1.07-.16a.28.28 0 0 1 .1-.17c.06-.05.1-.12.13-.22l.17-.37.22-.35c.1-.14.16-.3.18-.46a.23.23 0 0 0 .11-.09c.17-.2.3-.43.38-.68.02-.05.04-.1.07-.12.08-.1.17-.16.2-.27l.1-.25a.92.92 0 0 1 .14-.21c.1-.13.16-.28.17-.45.05-.05.08-.1.08-.18l.07.05Z" fill="#8A8989"/><path d="M8.87 8.4c0 .17-.06.32-.17.45a.92.92 0 0 0-.14.21l-.1.25c-.03.1-.12.18-.2.27a.33.33 0 0 0-.07.12 2.4 2.4 0 0 1-.38.68.22.22 0 0 1-.1.09c.05-.17.12-.33.22-.48.12-.17.2-.28.21-.34.05-.13.12-.25.2-.36l.25-.45c.07-.16.17-.3.28-.44Z" fill="#545254"/><path d="m7.26 10.57-.45.8a1.25 1.25 0 0 0-.3.3h-.04a.05.05 0 0 1-.02-.06c.01-.06.04-.12.08-.18a.03.03 0 0 0-.04-.05c-.24.06-.49.06-.75 0L6.8 9.55c-.01.06 0 .1.01.14.02.02.04.03.06 0l1.38-1.15c.03-.03.04-.03.02.02-.21.44-.48.85-.8 1.23a3.5 3.5 0 0 0-.48.84l.02.02.02.01a.03.03 0 0 0 .02-.01l.08-.13c.01-.03.04-.04.06-.01l.07.06Z" fill="#E2C48A"/><path d="M10.88 9.63a3.2 3.2 0 0 1-.64.76l-.46-.8.6-.82.5.86Z" fill="#E2BF73"/><path d="m8.88 9.42.39.74a.84.84 0 0 0-.2.37c0 .03-.02.04-.05.04l-.28-.04-.91 1.67c-.23.06-.41.02-.56-.14l1.51-2.64a.07.07 0 0 1 .07-.04c.03 0 .04.02.03.04Z" fill="#E2C48A"/><path d="M8.88 9.42c.19.19.31.33.38.44.53.97 1.08 1.94 1.64 2.93l-.65.02a.61.61 0 0 1-.28-.25h.6c.03 0 .04-.01.02-.04l-.79-1.4-.53-.96-.4-.74Z" fill="#010101"/><path d="M12 11.6c-.26.06-.4.2-.42.44 0 .03-.01.06-.04.08l-.19.19-1.1-1.92c.26-.23.47-.49.63-.76L12 11.6Z" fill="#B08027"/><path d="M4.5 9.87c.28.16.51.37.7.6l-.08.18c-.33-.03-.6-.17-.82-.41l.2-.37Z" fill="#E2C48A"/><path d="m13.17 9.96.6 1.05c-.16 0-.24.06-.24.18a.1.1 0 0 1-.04.08l-.4.39-.53-.94c.14-.56.34-.81.61-.76ZM5.12 10.65l-1.07 1.87a.08.08 0 0 1-.07.05l-.85-.01c-.03 0-.06.01-.08.04a.1.1 0 0 1-.05-.05l.02-.06c.22-.36.43-.73.62-1.1.2-.4.41-.78.66-1.15.21.24.49.38.82.41ZM9.27 10.16l.53.95c-.15.12-.27.28-.38.5l-.35-.62c-.04-.05-.07-.08-.11-.08a1.35 1.35 0 0 0-.22-.38l.28.04c.03 0 .04-.01.05-.04.04-.15.1-.28.2-.37Z" fill="#E2BF73"/><path d="M7.7 10.47c-.02.17-.08.32-.18.46l-.22.35a7.6 7.6 0 0 0-.17.37.42.42 0 0 1-.14.22.28.28 0 0 0-.09.17.45.45 0 0 1-.07.16c-.15.22-.26.4-.34.57-.07.14-.12.16-.15.05l.3-.57c.05-.11.17-.2.22-.31.07-.18.16-.34.25-.48l.27-.5c.09-.18.2-.35.32-.5Z" fill="#545254"/><path d="M8.74 10.53c.1.12.17.25.22.38l-.01.03c-.06.01-.1.03-.14.08a14.98 14.98 0 0 0-.57 1.13c-.03 0-.04 0-.05.03l-.3.6c-.02.03-.04.05-.08.04l-.56-.05a.64.64 0 0 1-.25-.22l.54.02a.1.1 0 0 0 .08-.03c.1-.1.16-.2.2-.34l.92-1.67Z" fill="#010101"/><path d="m9.07 10.99-.99 1.9a.19.19 0 0 1-.14.1c-.35.04-.58-.03-.7-.22l.57.05c.04 0 .06 0 .08-.03l.3-.61c0-.02.02-.03.05-.03.05 0 .07-.03.05-.08.2-.2.35-.42.43-.68a.18.18 0 0 1 .05-.08l.14-.12c.02-.02.03-.05.02-.08-.02-.05-.02-.1.02-.17a.1.1 0 0 0 0-.03c.05 0 .08.03.12.08Z" fill="#8A8989"/><path d="M8.95 10.94c-.04.07-.04.12-.02.17.01.03 0 .06-.02.08l-.14.12a.18.18 0 0 0-.05.08 1.6 1.6 0 0 1-.43.68c.16-.36.34-.71.52-1.05.03-.05.08-.07.14-.08Z" fill="#545254"/><path d="m13.77 11.01.84 1.47c.03.06.02.09-.05.09l-.97.01-.5-.92.4-.4a.1.1 0 0 0 .04-.07c0-.12.08-.18.24-.18Z" fill="#E2C48A"/><path d="m9.97 12.56-.55-.95c.1-.22.23-.38.38-.5l.8 1.41c0 .03 0 .04-.03.04h-.6Z" fill="#B08027"/><path d="m6.81 11.36-.68 1.17a.08.08 0 0 1-.07.04l-.96-.01.64-1.18a1.68 1.68 0 0 0 .77 0 .03.03 0 0 1 .02.03v.02a.48.48 0 0 0-.08.18c0 .02 0 .04.02.05l.02.01h.03c.08-.12.18-.22.3-.3ZM12 11.6l.52.94a.02.02 0 0 1 0 .02h-.02l-1 .02a.84.84 0 0 1-.15-.27l.2-.2a.12.12 0 0 0 .03-.07c.02-.24.16-.38.41-.43ZM7.27 12.06c.15.16.33.2.56.14a.92.92 0 0 1-.2.34.1.1 0 0 1-.09.03L7 12.55l.27-.49Z" fill="#E2BF73"/><path d="m10.25 12.8.65-.01c.04-.01.07.03.08.13.01.03 0 .05-.03.05h-.48c-.1.01-.18-.04-.22-.16ZM14.94 12.83l.05.05v.02a.04.04 0 0 1 0 .04l-.03.01c-.44.07-.82.03-1.12-.11l1.1-.01Z" fill="#8A8989"/></svg>