<!-- by TradingView --><svg width="18" height="18" viewBox="0 0 18 18" xmlns="http://www.w3.org/2000/svg"><path fill="#7F4C00" d="M0 0h18v18H0z"/><path d="M7.4 4 9 5.6 10.6 4H14v3.38L12.38 9 14 10.62V14h-3.4L9 12.4 7.4 14H4v-3.38L5.61 9 4 7.38V4h3.4Z" fill="#FD9700"/><path d="M11.98 10.67c.02.02.02.06.02.1-.01.3-.1.57-.29.8a.31.31 0 0 1-.09.07.03.03 0 0 1-.04 0l-.01-.02v-.03c.06-.15.24-.6.16-.71-.08-.11-.53-.05-.69-.03h-.02l-.02-.02a.04.04 0 0 1 .01-.04.31.31 0 0 1 .1-.07c.24-.13.5-.16.78-.1.04.01.07.03.09.05Z" fill="#fff"/><path d="M6.05 10.59a5.03 5.03 0 0 0 5.11.4c.04-.03.13-.05.16 0a.1.1 0 0 1 .01.08c0 .02-.01.05-.03.06a3.8 3.8 0 0 1-3.07.8A3.96 3.96 0 0 1 6 10.67a.06.06 0 0 1 0-.05l.03-.02h.02Z" fill="#fff"/><path d="M8.78 6c.9-.04 1.83.25 1.85 1.36v1.9c0 .38.13.57.35.89l.02.1c0 .03-.02.07-.05.09l-.65.59a.15.15 0 0 1-.19 0 1.8 1.8 0 0 1-.45-.52l-.02-.01a.05.05 0 0 0-.04 0c-.09.07-.18.2-.27.25-.42.3-.87.41-1.36.31-.62-.12-.95-.55-.97-1.26-.04-1.15.8-1.64 1.8-1.73a11.72 11.72 0 0 0 .65-.09v-.03c.02-.48-.02-.98-.64-.91-.34.03-.54.22-.6.56l-.05.08a.12.12 0 0 1-.1.03l-.78-.09c-.2-.02-.15-.23-.1-.39.24-.74.88-1.09 1.6-1.13Zm.52 2.67c-.25 0-.48.06-.7.2a.24.24 0 0 0-.05.04.9.9 0 0 0-.19.79c.05.3.24.44.47.4.25-.06.41-.34.47-.64a3.38 3.38 0 0 0 .03-.77l-.03-.02Z" fill="#fff"/></svg>