<!-- by TradingView --><svg width="18" height="18" viewBox="0 0 18 18" xmlns="http://www.w3.org/2000/svg"><path fill="url(#a)" d="M0 0h18v18H0z"/><path fill-rule="evenodd" d="m8.97 3.9-.3-.21c-.96.64-1.31 2.24-1.37 3.03a1 1 0 0 1 .04.07 1.12 1.12 0 0 0-.05-.03v.03l-.05-.07A3.23 3.23 0 0 0 5.6 6.3c-.85 0-1.4.34-1.58.5l.06.29-.37.2c.03.64.71 2.04 2.82 2.33l-.07.02c-.51.68-1.59 2.26-1.24 3.4l.4.01.1.35c1.28.04 2.29-.52 3.25-2.23v-.02H9v.02c.97 1.7 1.98 2.27 3.26 2.23l.1-.35.4-.01c.35-1.15-.75-2.75-1.25-3.42l.18.05-.12-.05c2.11-.3 2.69-1.69 2.72-2.34l-.37-.2.06-.28c-.17-.16-.73-.5-1.58-.5a3.1 3.1 0 0 0-1.72.48l-.02.02c-.04-.76-.38-2.44-1.37-3.1l-.3.2Zm1.92 2.6A3.92 3.92 0 0 0 9.28 3l-.3.26L8.66 3a4.02 4.02 0 0 0-1.54 3.52c-.3-.29-.85-.63-1.78-.63-1 0-1.78.44-2.04.65l.1.33-.41.2C3.18 9 5.06 9.65 6.03 9.75c-1.69 1.54-1.5 3.22-1.3 3.87l.44-.04.07.4.16.01c.77.05 2.17.14 3.59-2.23 1.42 2.37 2.82 2.28 3.59 2.23h.16l.06-.4.44.03c.2-.65.4-2.31-1.27-3.85.96-.1 2.85-.76 3.03-2.68l-.41-.21.1-.33a3.43 3.43 0 0 0-2.04-.65c-.9 0-1.46.33-1.76.61Z" fill="#FF5C96"/><circle cx="9" cy="9" r="1" fill="#FFFEE2"/><path d="M12 7c.11.5.5.89 1 1-.5.11-.89.5-1 1-.11-.5-.5-.89-1-1 .5-.11.89-.5 1-1ZM6.5 10c.06.25.25.44.5.5a.66.66 0 0 0-.5.5.66.66 0 0 0-.5-.5.66.66 0 0 0 .5-.5ZM10.5 11c.06.25.25.44.5.5a.66.66 0 0 0-.5.5.66.66 0 0 0-.5-.5.66.66 0 0 0 .5-.5ZM6 5c.11.75.5 1.33 1 1.5-.5.17-.89.75-1 1.5-.11-.75-.5-1.33-1-1.5.5-.17.89-.75 1-1.5Z" fill="#FFFD91"/><defs><linearGradient id="a" x1="9" y1="0" x2="9" y2="18" gradientUnits="userSpaceOnUse"><stop stop-color="#122341"/><stop offset="1" stop-color="#0A4A91"/></linearGradient></defs></svg>