<!-- by TradingView --><svg width="18" height="18" viewBox="0 0 18 18" xmlns="http://www.w3.org/2000/svg"><path fill="url(#aylzcsq2y)" d="M0 0h18v18H0z"/><path d="M9.46 10.44h-.02a1.23 1.23 0 0 1-.88 0c-.04-.01-.07.03-.04.06.12.11.29.19.48.19a.7.7 0 0 0 .49-.2c.02-.02 0-.05-.03-.05Z" fill="#FED702"/><path d="M12.96 10.13a.68.68 0 0 0-.02-.07L11.07 5.3a2.1 2.1 0 0 0-1.2-1.16 2.38 2.38 0 0 0-1.68 0c-.57.22-1 .64-1.22 1.16L5.14 9.84c-.09.2-.14.4-.14.63 0 .52.27.98.68 1.27l.08.07a.9.9 0 0 0 .04.03l2.05 1.73c.21.19.48.32.77.39a1.86 1.86 0 0 0 1.58-.4l2.05-1.72a2.53 2.53 0 0 0 .2-.19c.32-.3.55-.71.55-1.18 0-.12-.01-.23-.04-.34ZM10 12.65a1.69 1.69 0 0 1-2.02 0 .14.14 0 0 1 0-.23c.28-.2.63-.33 1.01-.33s.73.12 1 .33c.09.06.09.17 0 .23Zm1.54-1.36-1 .92a.25.25 0 0 1-.32.02c-.35-.26-.78-.4-1.23-.4-.45 0-.88.14-1.23.4a.25.25 0 0 1-.31-.02l-1-.92a.2.2 0 0 1 0-.31c.7-.57 1.6-.88 2.54-.88s1.84.3 2.54.88c.1.08.1.22 0 .31Zm-.01-2.43c-.7.57-1.6.88-2.54.88s-1.83-.31-2.54-.88a.2.2 0 0 1 0-.31l1-.92a.25.25 0 0 1 .31-.02c.35.26.78.4 1.23.4.45 0 .88-.14 1.23-.4.1-.07.23-.06.31.02l1 .92c.1.09.1.23 0 .31Z" fill="#FED702"/><defs><linearGradient id="aylzcsq2y" x1="3.35" y1="3.12" x2="21.9" y2="24.43" gradientUnits="userSpaceOnUse"><stop stop-color="#1A1E21"/><stop offset="1" stop-color="#06060A"/></linearGradient></defs></svg>