<!-- by TradingView --><svg width="18" height="18" viewBox="0 0 18 18" xmlns="http://www.w3.org/2000/svg"><path fill="#181B1E" d="M0 0h18v18H0z"/><path d="M11.13 5a1.87 1.87 0 1 1 0 3.73H8.8v.54h2.33a1.87 1.87 0 1 1-1.86 1.86v-.6H10V11a1 1 0 1 0 1-1H8.73v1.13a1.87 1.87 0 1 1-1.86-1.86H8v-.54H6.87a1.87 1.87 0 1 1 1.86-1.86V8H11a1 1 0 1 0-1-1v.47h-.73v-.6c0-1.03.83-1.87 1.86-1.87ZM7 10a1 1 0 1 0 1 1v-1H7Zm0-4a1 1 0 0 0 0 2h1V7a1 1 0 0 0-1-1Z" fill="url(#a)"/><defs><linearGradient id="a" x1="13" y1="8.97" x2="5" y2="8.97" gradientUnits="userSpaceOnUse"><stop stop-color="#B44DFF"/><stop offset="1" stop-color="#834CFF"/></linearGradient></defs></svg>