<!-- by TradingView --><svg width="18" height="18" viewBox="0 0 18 18" xmlns="http://www.w3.org/2000/svg"><path fill="url(#atqver0fu)" d="M0 0h18v18H0z"/><path d="M9.34 5.2a.49.49 0 0 0-.4-.2.5.5 0 0 0-.39.19l-3.98 5.24a7.54 7.54 0 0 1 1.83-.9l2.54-3.34 2.41 3.3c.61.19 1.18.45 1.7.77L9.35 5.2Z" fill="#fff"/><path d="M3.32 12.78c1.27-.85 3.82-2.23 6.04-2.33 3.02-.15 4.92.56 4.6 1.42-.31.85-2.54-.29-4.6-.29-1.82 0-4.98.66-6.04 1.2Z" fill="url(#btqver0fu)" fill-opacity=".6"/><path d="M9.73 11.27c-2.62 0-5.47 1.15-6.56 1.73L3 12.77A16.42 16.42 0 0 1 9.73 11c2.4 0 3.53.4 3.87.55.08.04.1.12.07.18-.04.07-.14.1-.21.06-.3-.12-1.38-.52-3.73-.52Z" fill="url(#ctqver0fu)" fill-opacity=".6"/><defs><linearGradient id="atqver0fu" x1="3.35" y1="3.12" x2="21.9" y2="24.43" gradientUnits="userSpaceOnUse"><stop stop-color="#1A1E21"/><stop offset="1" stop-color="#06060A"/></linearGradient><linearGradient id="btqver0fu" x1="13.65" y1="11.72" x2="3.18" y2="12.79" gradientUnits="userSpaceOnUse"><stop stop-color="#197EAF"/><stop offset="1" stop-color="#041C28" stop-opacity=".1"/></linearGradient><linearGradient id="ctqver0fu" x1="13.19" y1="12.02" x2="3.35" y2="13.41" gradientUnits="userSpaceOnUse"><stop stop-color="#fff"/><stop offset=".54" stop-color="#AEAEAE"/><stop offset="1" stop-color="#1E1E1E"/></linearGradient></defs></svg>