<!-- by TradingView --><svg width="18" height="18" viewBox="0 0 18 18" xmlns="http://www.w3.org/2000/svg"><path fill="#F0F3FA" d="M0 0h18v18H0z"/><path fill-rule="evenodd" d="M9 15a6.24 6.24 0 0 1-.52-.21c-1.13-.52-2.86-1.65-3.54-3.32-1-2.48-.96-4.61-.93-5.9v-.26L9 4.01V4l4.98 1.31v.26c.04 1.29.08 3.42-.92 5.9-.68 1.67-2.41 2.8-3.54 3.32-.2.09-.37.16-.52.2Zm4.47-9.29c.03 1.28.04 3.27-.9 5.57a5.27 5.27 0 0 1-1.77 2.14c-.65.5-1.33.84-1.8 1.03a8.16 8.16 0 0 1-1.8-1.03 5.27 5.27 0 0 1-1.78-2.14c-.93-2.3-.92-4.3-.9-5.57L9 4.53l4.47 1.18Z"/><path d="M9 14a6.77 6.77 0 0 1-1.93-1.15l.94-.66c-.08-.66.04-1.83.1-2.33L9 9.58l.88.28c.07.5.19 1.67.1 2.33l.95.66c-.7.6-1.47.98-1.93 1.15Zm2.68-1.92-.75-2.33.4-.45-.62-.48-.36-2.4L9 5l3.99 1.06v.21c.02 1.05.06 2.8-.74 4.84a3.9 3.9 0 0 1-.57.97ZM9 5 5.01 6.06v.21c-.02 1.05-.06 2.8.74 4.84.14.36.34.68.57.97l.75-2.33-.4-.45.62-.48.36-2.4L9 5Zm.51 1.9.26 1.96H8.23l.26-1.97.51-.47.51.47Z"/></svg>