<!-- by TradingView --><svg width="18" height="18" viewBox="0 0 18 18" xmlns="http://www.w3.org/2000/svg"><path fill="url(#axdcwumff)" d="M0 0h18v18H0z"/><path fill-rule="evenodd" d="M3.14 8.52a.91.91 0 0 0 0 .96l2.48 4.04c.19.3.53.48.9.48h4.96c.37 0 .71-.18.9-.48l2.48-4.04a.91.91 0 0 0 0-.96l-2.48-4.04c-.19-.3-.53-.48-.9-.48H6.52c-.37 0-.71.18-.9.48L3.14 8.52Zm.35.96a.9.9 0 0 1 0-.96L5.8 4.81c.18-.3.52-.48.89-.48h4.62c.37 0 .7.18.89.48l2.31 3.71a.9.9 0 0 1 0 .96l-2.31 3.71c-.18.3-.52.48-.89.48H6.7c-.37 0-.7-.18-.89-.48L3.5 9.48Zm.34-.15a.62.62 0 0 1 0-.66L6.1 5.01c.12-.2.36-.33.61-.33h4.56c.25 0 .49.12.61.33l2.28 3.66c.13.2.13.46 0 .66l-2.28 3.66a.72.72 0 0 1-.61.33H6.72a.72.72 0 0 1-.61-.33L3.83 9.33ZM6.67 5H8.3v.36H6.71l-1.28 2.1-.31-.2L6.4 5.15c.06-.1.16-.15.27-.15Zm3.04 0v.36h1.56l1.3 2.13.31-.2-1.3-2.14A.32.32 0 0 0 11.3 5H9.7ZM5.29 9l-.35.13 1.9 3.08c.06.08.14.12.24.12h3.88c.1 0 .18-.04.23-.12l1.87-3.02-.3-.23L10.94 12H7.11L5.29 9Zm2.02-2h1.1l-.52.9h.52c-.17.22-.52.73-.52.73h.36L6.87 10l.37-.98h-.5l.57-.82h-.67L7.3 7Zm3.84 0h-1.1l-.68 1.2h.68l-.58.82h.5L9.6 10 11 8.63h-.37s.35-.51.53-.73h-.53l.53-.9Z" fill="url(#bxdcwumff)"/><defs><linearGradient id="axdcwumff" x1="3.35" y1="3.12" x2="21.9" y2="24.43" gradientUnits="userSpaceOnUse"><stop stop-color="#1A1E21"/><stop offset="1" stop-color="#06060A"/></linearGradient><linearGradient id="bxdcwumff" x1="9" y1="4" x2="9" y2="14" gradientUnits="userSpaceOnUse"><stop stop-color="#FBBC0F"/><stop offset="1" stop-color="#F99A1C"/></linearGradient></defs></svg>