<!-- by TradingView --><svg xmlns="http://www.w3.org/2000/svg" width="18" height="18"><path fill="url(#axwvf25jm)" d="M0 0h18v18H0z"/><path fill-rule="evenodd" d="M5.48 10.67a.1.1 0 01-.05.06c-.34.16-.7.6-.11 1a.1.1 0 01.04.09c0 .31.15.83.57.8.6-.05.7-.86.75-1.22l.02-.14.02-.04c.37-.27 1.5-.87 3.38-1.2.05-.02.1.02.11.07l.1.4.1.41.04.53c.12.8.58 1.57 1.33 1.57 1 0 1.1-1.4.67-2.01-.04-.05-.42-.65-.56-.93 0 0 1.13 0 1.2.45.42.9 1.58.09.39-.47-.52-.25-1.1-.28-1.59-.4l-.05-.01a.1.1 0 01-.07-.07v-.03c-.33-1.26-.94-3.82-1.61-4.73-.15-.2.46-.47.32-.75-.05-.1-.25-.03-.4.08-.36.26-.68.2-1.14.2-.46 0-.65.58-.72 1.03-.4.65-2.17 3.33-2.74 5.3zm3.18-4.38a8.6 8.6 0 00-1.78 3.7c-.01.07.06.12.13.1.67-.2 1.96-.54 2.9-.57.07 0 .12-.06.1-.12-.14-.53-1.03-3.11-1.24-3.14-.04-.01-.09 0-.11.03z" fill="#C90000"/><defs><linearGradient id="axwvf25jm" x1="3.35" y1="3.12" x2="21.9" y2="24.43" gradientUnits="userSpaceOnUse"><stop stop-color="#1A1E21"/><stop offset="1" stop-color="#06060A"/></linearGradient></defs></svg>