<!-- by TradingView --><svg width="18" height="18" viewBox="0 0 18 18" xmlns="http://www.w3.org/2000/svg"><path fill="url(#auevgacty)" d="M0 0h18v18H0z"/><path d="M8.5 6v3h-2V8C6.03 8 5 8.5 5 9.5S6 11 6.5 11h2v2H6.03C5.03 13 3 12.4 3 9.5 3 7 4.83 6 6 6h2.5ZM15 9.5C15 6.95 13.14 6 11.97 6h-.47l-2-2v5h2V8c.67 0 1.5.04 1.5 1.5 0 1.37-.5 1.5-1 1.5H9.5v2H12c1 0 3-.54 3-3.5Z" fill="#FDCF00"/><defs><linearGradient id="auevgacty" x1="3.35" y1="3.12" x2="21.9" y2="24.43" gradientUnits="userSpaceOnUse"><stop stop-color="#1A1E21"/><stop offset="1" stop-color="#06060A"/></linearGradient></defs></svg>