<!-- by TradingView --><svg width="18" height="18" viewBox="0 0 18 18" xmlns="http://www.w3.org/2000/svg"><path fill="url(#aoxkh4vis)" d="M0 0h18v18H0z"/><path d="M9.78 5.44c-.32-.59-1.24-.59-1.56 0l-3.03 5.42c-.3.52.13 1.14.78 1.14H12c.65 0 1.08-.62.78-1.14l-3-5.42Zm-2.56-.45c.74-1.32 2.82-1.32 3.56 0l3 5.42c.67 1.2-.3 2.59-1.77 2.59H6c-1.48 0-2.44-1.4-1.78-2.59l3-5.41v-.01Z" fill="#fff"/><defs><linearGradient id="aoxkh4vis" x1="14.59" y1="1.96" x2="3.47" y2="16.24" gradientUnits="userSpaceOnUse"><stop stop-color="#95E141"/><stop offset=".59" stop-color="#63B836"/><stop offset="1" stop-color="#409C2D"/></linearGradient></defs></svg>