<!-- by TradingView --><svg width="18" height="18" viewBox="0 0 18 18" xmlns="http://www.w3.org/2000/svg"><path fill="#F0F3FA" d="M0 0h18v18H0z"/><path d="M9.83 3.09v.88l.04.01a.03.03 0 0 1 0 .05.1.1 0 0 0-.03.04l.02.32c.02.04-.02.05-.1.03l-.6-.2c-.02-.07 0-.11.02-.12a2.79 2.79 0 0 0 .25-.2.02.02 0 0 0-.02-.02l-.29.03a.07.07 0 0 1-.06-.04l-.1-.3a.02.02 0 0 0 0-.02.01.01 0 0 0-.02.01l-.1.29a.07.07 0 0 1-.07.05H8.5a.02.02 0 0 0-.02.02v.01l.3.22-.64.06a4.4 4.4 0 0 0-.74.25c-.03.02-.06 0-.07-.02l-.1-.28a.05.05 0 0 1 .02-.05l.25-.18a.03.03 0 0 0-.02-.05l-.27.03a.07.07 0 0 1-.07-.05l-.09-.29a.02.02 0 0 0-.03 0l-.1.3a.05.05 0 0 1-.05.03h-.3a.02.02 0 0 0-.01.02l.24.2a.06.06 0 0 1 .02.05l-.1.28a.02.02 0 0 0 .01.02h.02L7 4.29a.05.05 0 0 1 .06 0l.24.19v.01a.04.04 0 0 1-.03.03 2.85 2.85 0 0 0-.98.74h-.01c-.02 0-.02-.02-.02-.03l-.04-.15a.04.04 0 0 1 .01-.05l.26-.18a.01.01 0 0 0 0-.02l-.34-.01a.05.05 0 0 1-.04-.03 11.76 11.76 0 0 0-.11-.3h-.01l-.1.3a.05.05 0 0 1-.05.04l-.3-.01a.02.02 0 0 0-.02.01.02.02 0 0 0 0 .03 27.42 27.42 0 0 0 .28.2v.03l-.1.3a.01.01 0 0 0 .02.02l.26-.19a.04.04 0 0 1 .05 0l.13.09.02.05c0 .02 0 .03-.02.05a1.7 1.7 0 0 0-.54 1.2c-.01.03-.04.04-.08.03l-.02.01c-.02.02 0 .05.02.06.02 0 .04.02.04.03a.07.07 0 0 1 .02.05c-.03.18-.06.42-.08.71 0 .02-.01.03-.03.03h-.24a.05.05 0 0 1-.05-.03l-.09-.3a.01.01 0 0 0-.02 0l-.1.3-.03.02a.06.06 0 0 1-.04.02l-.29-.01a.02.02 0 0 0-.01.02l.25.2a.05.05 0 0 1 .01.05l-.1.29a.01.01 0 0 0 .03.01l.25-.17a.06.06 0 0 1 .07 0l.24.18a.02.02 0 0 0 .03-.01v-.01l-.1-.27a.07.07 0 0 1 .02-.08l.2-.13-.1 1.74h-.19a.04.04 0 0 1-.03-.03l-.1-.3A.01.01 0 0 0 5.1 9h-.01l-.1.3a.07.07 0 0 1-.06.04H4.6l.26.2a.07.07 0 0 1 .02.08l-.09.27a.02.02 0 0 0 0 .02.02.02 0 0 0 .03 0l.25-.18a.04.04 0 0 1 .05 0l.24.19.04.04V10a14.37 14.37 0 0 0-.02.37H3.16c-.05-.23-.09-.4-.1-.53 0-.03 0-.05.03-.08.05-.05.08-.06.1-.03a1.92 1.92 0 0 0 .26.19.02.02 0 0 0 .02-.02V9.9l-.11-.27a.06.06 0 0 1 .02-.08l.26-.18a.01.01 0 0 0 0-.01l-.34-.01-.02-.01-.02-.02-.08-.3a.02.02 0 0 0-.04 0l-.1.33A.77.77 0 0 1 3 9.1a7.76 7.76 0 0 1 .1-1.14l.05-.05c.1.05.2.12.28.2a.02.02 0 0 0 .04-.02l-.1-.27a.07.07 0 0 1 .01-.08l.26-.18a.01.01 0 0 0 0-.03H3.3c-.03 0-.05-.02-.06-.07l-.01-.08v-.06a6.11 6.11 0 0 1 1.01-1.97h.03l.05.06a.03.03 0 0 0 .05-.02l-.04-.13a.06.06 0 0 1 .01-.06c.2-.24.46-.5.78-.79.04-.03.07-.05.1-.04a.54.54 0 0 0 .15.1.01.01 0 0 0 .01 0v-.01l-.06-.2a6.01 6.01 0 0 1 2.33-1.1l.06.06v.05l-.1.29a.01.01 0 0 0 .01.01.01.01 0 0 0 .02 0l.27-.19h.04l.24.19a.03.03 0 0 0 .04-.03l-.1-.27a.05.05 0 0 1 0-.05l.21-.15a5.5 5.5 0 0 1 1.47 0l.01.02Z" fill="#081C41"/><path d="M9.15 4.22a.86.86 0 0 1-.39-.07l-.29-.22a.02.02 0 0 1 .02-.04h.28a.07.07 0 0 0 .07-.04l.1-.29a.01.01 0 0 1 .01 0h.01l.1.3a.07.07 0 0 0 .06.05l.3-.03a.02.02 0 0 1 .01.03l-.25.19c-.03.01-.04.05-.03.12Z" fill="#FBFAF1"/><path d="M13.66 5.25c-1.13 0-1.02-.06-2.63-.1H11l-.7-.55a.19.19 0 0 0-.08-.03.34.34 0 0 1-.17-.1.07.07 0 0 0-.05-.03.22.22 0 0 1-.15-.05l-.02-.32 2.21-.03c.1 0 .18-.02.27-.04a5.62 5.62 0 0 1 1.34 1.25Z" fill="#B32B1F"/><path d="m5.33 4.26.06.2a.01.01 0 0 1-.02.02.54.54 0 0 1-.14-.11c0-.05.03-.08.1-.11Z" fill="#F4F4F4"/><path d="M12.98 6.53c.58.45.8 0 1.45 0l.02.01c.02 0 .03.02.04.03.16.35.29.75.38 1.18h-.5l-.51-.01c-.2 0-.39 0-.55-.02-.34-.02-.65 0-.93.07l-.51.01.02.02-.1-.65c0-.16-.03-.31-.09-.46-.02-.04 0-.09-.02-.13-.02-.09 1.22-.05 1.3-.05Z" fill="#B32B1F"/><path d="M5.5 7.53c0 .03.02.05.01.08l-.2.13a.07.07 0 0 0-.02.08l.11.27a.02.02 0 0 1-.03.02l-.24-.18a.06.06 0 0 0-.07 0l-.25.17a.01.01 0 0 1-.02-.01l.1-.29a.05.05 0 0 0-.02-.05l-.25-.2a.02.02 0 0 1 .01-.02H4.96l.02-.04.1-.29a.01.01 0 0 1 .02 0h.01l.09.3a.05.05 0 0 0 .05.04l.24-.01Z" fill="#FBFAF1"/><path d="M11.46 8.43c-.1-.02-.13-.02-.08.02h-.07l-.02.02a.03.03 0 0 0 .03.05c.15.01.23.3.22.41-.01.15.05.23.01.38a.07.07 0 0 1-.03.04.81.81 0 0 0-.23.21v.03l-.01.03c0 .01 0 .02.02.02h-.05l-.03-.97-.05-1.45h.02l.27 1.21Z" fill="#C8C4B6"/><path d="M3.25 7.46c0 .05.03.08.06.08a20.68 20.68 0 0 1 .33.02l-.26.18a.07.07 0 0 0-.02.08l.11.27a.02.02 0 0 1-.02.03h-.02a1.07 1.07 0 0 0-.28-.21h-.03v-.05c0-.07.03-.19.07-.35.01-.04.03-.06.06-.05Z" fill="#FBFAF1"/><path d="m6.15 8.24.03.35c-.02 0-.04.02-.04.05a.07.07 0 0 1-.04.04l-.14.06a10.08 10.08 0 0 1 .12-1.18c.05.23.07.45.07.68Z" fill="#C8C4B6"/><path d="M6.81 7.88c-.01 0-.02 0-.03-.02v-.03c.23-.1.47-.18.73-.22a.6.6 0 0 1 .4.1c.02.01.03.03.03.05 0 0 0 .02-.02.02l-.02.01a6.01 6.01 0 0 0-1.09.09Z" fill="#A8A8A8"/><path d="m10.64 9.7.09.93a1.92 1.92 0 0 0-.04.6v.02h-.03a.04.04 0 0 1-.05 0v-.02c-.02-.38-.02-.73-.02-1.05 0-.05-.01-.07-.04-.06-.03 0-.05.01-.08.04l.13-.12-.02-.04a.01.01 0 0 0-.02 0l-.11.12c0-.04.01-.08.05-.1.02-.02.03-.03.03-.05l.05-.16.01-.03v-.65a.02.02 0 0 0-.02-.01h-.01a.8.8 0 0 1-.58.12c0-.04.06-.06.15-.06a.03.03 0 0 0 .03 0 .03.03 0 0 0 0-.03v-.01a.06.06 0 0 1 .04-.06l.19-.06c.05-.02.1-.08.18-.18a.05.05 0 0 0 .01-.04.65.65 0 0 1 .01-.38c.03-.05.04-.1.02-.17a.05.05 0 0 0-.05-.04h-.01a.07.07 0 0 1-.06-.03c-.02-.03-.04-.04-.07-.02a.17.17 0 0 1-.08.02c-.44 0-.77.16-1 .49-.04-.02-.05-.06-.03-.12a.59.59 0 0 1 .28-.33.87.87 0 0 1 .41-.08l.43-.01a.13.13 0 0 0 .13-.13v-.25a.02.02 0 0 1 .02-.01h.01l.04.65a.92.92 0 0 1 0 .36v.94Z" fill="#C8C4B6"/><path d="M10.6 8.42a.65.65 0 0 0-.36-.06.02.02 0 0 0 0 .03c.04.06.06.12.08.18 0 .08-.01.12-.04.13-.02-.17-.1-.28-.22-.32h-.05a.66.66 0 0 0-.4.24c0 .11-.02.17-.06.2a.38.38 0 0 1-.03-.12.02.02 0 0 0-.03-.02l-.08.06a.03.03 0 0 1-.05-.01l-.02-.06c.23-.33.56-.5 1-.5l.08-.01c.03-.02.05-.01.07.02a.07.07 0 0 0 .07.03.05.05 0 0 1 .05.04c.02.07.01.12-.02.17ZM7.1 8.36c.5-.02.82.13.99.44-.02.05-.07.03-.17-.04a.02.02 0 0 0-.02 0 .02.02 0 0 0-.01.02.45.45 0 0 1-.1.35.46.46 0 0 1-.3.13l-.04-.01c-.3-.1-.41-.29-.33-.59l.03-.06a.1.1 0 0 0 .01-.03.03.03 0 0 0-.02-.03h-.01a.55.55 0 0 0-.3.1.03.03 0 0 1-.02 0 .02.02 0 0 1-.02-.02c-.03-.1-.02-.17.04-.2.03.01.05-.01.06-.06a.02.02 0 0 1 .02-.02c.08.03.14.03.2.02Z" fill="#3B3F40"/><path d="M10.6 8.42a.65.65 0 0 0-.02.38v.04c-.08.1-.14.16-.2.18l-.18.06a.06.06 0 0 0-.03.07l-.01.02a.03.03 0 0 1-.03.01c-.1 0-.14.02-.15.06a.5.5 0 0 1-.35-.1.03.03 0 0 1-.02-.02.03.03 0 0 1 .02-.03c.01-.01.03-.04.03-.07l.07.04c.07.05.21.04.24.08a.02.02 0 0 0 .04 0 .34.34 0 0 1 .16-.11.1.1 0 0 0 .02-.02c.14-.1.18-.25.13-.44a.51.51 0 0 0-.09-.2h.01v-.01c.11-.01.23 0 .35.06Z" fill="#F4F4F4"/><path d="M10.28 8.7c-.02.26-.16.37-.43.34-.2-.03-.26-.24-.25-.42a.66.66 0 0 1 .4-.24h.06c.13.04.2.15.22.32Z" fill="#64B5EA"/><path d="M9.66 9.02a.56.56 0 0 1-.1-.2c.03-.03.05-.09.04-.2-.01.18.05.39.25.42.27.03.41-.08.43-.34.03-.01.04-.05.04-.13.05.19.01.33-.13.44l-.02.02a.34.34 0 0 0-.16.1.02.02 0 0 1-.04 0c-.03-.03-.17-.02-.24-.07a1.03 1.03 0 0 1-.07-.04ZM6.18 8.59v.18a.02.02 0 0 1-.04 0 .07.07 0 0 0-.06-.03.1.1 0 0 0-.1.06c-.14.16-.12.38-.18.54-.03.09 0 .19.07.3.08.09.26.28.4.24h.02l.04.31a.7.7 0 0 1-.06-.22.05.05 0 0 0-.03-.03l-.26-.11a.62.62 0 0 0-.13-.17.34.34 0 0 1-.1-.32l.05-.23a.9.9 0 0 1 .16-.37l.14-.06a.07.07 0 0 0 .04-.04c0-.03.02-.05.04-.05Z" fill="#7B8787"/><path d="m6.23 9.15.01.27a.2.2 0 0 0 0 .05c.05.14.06.27.05.4h-.03v-.03c-.1-.08-.18-.13-.24-.15a.08.08 0 0 1-.04-.04c-.1-.17.02-.3-.05-.44a.09.09 0 0 1 0-.05 1 1 0 0 1 .08-.3v-.03c0-.01 0-.02-.02-.03a.1.1 0 0 1 .09-.06c.03 0 .05.01.06.03a.02.02 0 0 0 .03 0l.02-.06.04.44Z" fill="#C8C4B6"/><path d="m5.99 8.8.03.03v.03a1 1 0 0 0-.1.3v.05c.08.15-.04.27.06.44l.04.04c.06.02.14.07.24.15v.04c-.13.04-.31-.15-.39-.25-.08-.1-.1-.2-.07-.29.06-.16.04-.38.19-.54ZM5.42 9.35c0 .06 0 .11-.02.15-.09.03-.12.07-.1.12l.09.27c0 .02-.01.03-.03.04l-.24-.19a.04.04 0 0 0-.05 0l-.25.18a.02.02 0 0 1-.03-.02l.09-.27a.07.07 0 0 0-.02-.07l-.26-.2v-.02h.32a.07.07 0 0 0 .06-.04l.1-.29a.01.01 0 0 1 .02 0l.1.3a.04.04 0 0 0 .03.04h.2Z" fill="#FBFAF1"/><path d="M15 9.13c0 .39-.05.77-.13 1.15 0 .03-.03.06-.06.1-1.1-.02.25.03-1.4-.07a6.25 6.25 0 0 0-1.1 0 .09.09 0 0 1-.03-.06 2.15 2.15 0 0 1-.04-.46l-.11-.6a.03.03 0 0 1 .02-.03.98.98 0 0 1 .18-.02 70.58 70.58 0 0 0 2.5 0 .16.16 0 0 1 .17-.01Z" fill="#B32B1F"/><path d="M11.54 9.5a1.54 1.54 0 0 1-.05.62c-.01.96-.04.16-.04 1.2 0 .4-.94.21-1.14.27l-.02.01c-.07.07.04.1-.1.05a2.26 2.26 0 0 0-.57-.16.07.07 0 0 1-.06-.06l.01-.58a.11.11 0 0 1 .06-.1 6.32 6.32 0 0 0 .92-.63c.03 0 .04.01.04.06 0 .68.01 1.42.53 1.3.25-.08.12-.84.13-1.05.01-.24-.02-.52 0-.8.02.02.04.02.05.01a.76.76 0 0 0 .24-.15Z" fill="#8EDDBB"/><path d="M5.4 9.5a1.01 1.01 0 0 1 .01.4l-.02-.01-.1-.27c-.01-.05.02-.1.11-.12Z" fill="#081C41"/><path d="m6.33 10.19.17 1.5c-.58-.36.33-.03-.13-.03a.08.08 0 0 1-.08-.08c-.09-.9-.14-.89-.31-1.75l.26.1a.05.05 0 0 1 .03.04c.01.08.03.15.06.22Z" fill="#8EDDBB"/><path d="M10.47 10.16a6.31 6.31 0 0 1-.88.64.11.11 0 0 0-.02.05v.58a.07.07 0 0 0 .05.06 2.26 2.26 0 0 1 .59.17l-.03.02-.34-.1-.21-.04-.1-.02-.02-.02-.01-.03v-.6a.02.02 0 0 0-.01-.02h-.02c-.15.1-.3.17-.46.24-.23.11-.54-.05-.78-.16a.04.04 0 0 0-.05 0 .04.04 0 0 0-.02.05c.01.04 0 .08-.02.13l-.03-.2a.05.05 0 0 0-.03-.04c-.18-.1-.3-.15-.35-.17a3.03 3.03 0 0 1-.75-.51l.33.23c.42.26.87.46 1.35.62.25.08.36-.01.63-.15.42-.21.8-.47 1.16-.77l.11-.12a.01.01 0 0 1 .02 0l.02.04-.13.12Z" fill="#7B8787"/><path d="m8.14 11.11.04.25c.02.11 0 .17-.1.17l-.22.03c-.17.03-.33.08-.5.13a.45.45 0 0 0-.23.17l-.05-.15a.09.09 0 0 0-.08-.06c-.23 0 .01-1.1-.03-1.46.25.22.5.39.76.5a14.48 14.48 0 0 1 .38.22l.03.2Z" fill="#8EDDBB"/><path d="M11.48 10.85v.57a.39.39 0 0 0-.2-.02c.02-.03.07-.05.14-.05a.03.03 0 0 0 .03-.01v-.77h.01l.02.28Z" fill="#7B8787"/><path d="m9.63 11.54-.08.1c-.02-.02-.04-.01-.04 0 0 .1.03.17.09.25l-.25-.02a4.55 4.55 0 0 1-.93-.6c-.04-.02-.09-.03-.16-.02a.91.91 0 0 1-.04-.18c0 .1-.02.2-.04.3l-.04-.26c.02-.05.03-.1.02-.13a.05.05 0 0 1 .02-.05.04.04 0 0 1 .05 0c.24.11.55.27.78.16a9.2 9.2 0 0 0 .5-.22v.01l-.01.6v.02l.03.02.1.02Z" fill="#A8A8A8"/><path d="M8.26 11.25c.05 0 .09.01.12.03a.02.02 0 0 1 0 .02c-.05.05-.09.08-.1.11-.02.14-.06.25-.1.33-.46.53-.2-.18-.56.54l-.02.02h-.03a.32.32 0 0 0-.15-.03c.17-.27.08-.04.13-.6l.31-.11.23-.03c.08 0 .11-.06.1-.17 0-.1.02-.19.03-.29 0 .05.02.11.04.18ZM9.63 11.54l.2.04.07.33h-.05v.02a.02.02 0 0 1 0 .02h-.02c-.18-.03-.27-.14-.28-.31l.08-.1Z" fill="#C8C4B6"/><path d="m10.18 11.68.1.04c.11.02.19.06.24.12a3.46 3.46 0 0 1 .5.78c-.16-.09-.39-.2-.69-.32-.05-.02-.1-.02-.12.02a.06.06 0 0 1-.06.02.06.06 0 0 1-.04-.04 2 2 0 0 0-.21-.39l-.06-.33.34.1Z" fill="#F4F4F4"/><path d="M9.55 11.64c0 .17.1.28.28.3h.01a.02.02 0 0 0 .01 0v-.03h.05a2 2 0 0 1 .22.42l.03.01h.03l.03-.02c.03-.04.07-.04.12-.02a11.38 11.38 0 0 1 .7.3 3.46 3.46 0 0 0-.51-.76.45.45 0 0 0-.23-.12c0-.02.01-.03.04-.03.22.07.3.26.46.4l.04.03c.37.14.73.28 1.08.44.26.12.56.26.66.4l.04.04c.18.11.3.27.36.47l-.01.02-.02.01h-.01l-.02-.01a.75.75 0 0 0-.33-.48 1.91 1.91 0 0 1-.36-.25l-1.09-.48-.24-.08-.01.01.27.48a.01.01 0 0 1 0 .01h-.02l-.15-.06-.61-.3a.06.06 0 0 0-.08.03l-.01.01-.01.02a.05.05 0 0 0 .03.06l.68.29.05.21.06.33v.03a1.6 1.6 0 0 1-.2.55l-.42.41c-.17.17-.28.37-.32.6h-.04c-.01-.01-.02-.03 0-.04.08-.35.25-.55.52-.77.19-.15.31-.35.38-.58a.5.5 0 0 0 0-.22l-.08-.47a.05.05 0 0 0-.03-.04l-.58-.22a.24.24 0 0 0-.11-.05L9.86 12a.78.78 0 0 1-.26-.1.38.38 0 0 1-.09-.25c0-.02.02-.03.04-.01Z" fill="#7B8787"/><path d="M3.65 11.65h1.73c.1.55 1 .23 1.45.32a.02.02 0 0 1 .02.01.02.02 0 0 1-.01.02l-.65.26a4.09 4.09 0 0 0-.94.39l-.25.2a.22.22 0 0 1-.14.06h-.42a5.35 5.35 0 0 1-.8-1.26h.01Z" fill="#B32B1F"/><path d="M13.26 11.65h.33l.52.01c-.54.06-1.09.1-1.64.1-.28 0-.53.01-.8.03a.7.7 0 0 0 .28-.13h1.31Z" fill="#8D2116"/><path d="M12.8 12.9a1.27 1.27 0 0 0-.35-.29c-.23-.09-.44-.18-.63-.28a.82.82 0 0 0-.2-.08c-.09-.02-.16-.08-.25-.11a1.82 1.82 0 0 1-.57-.28.05.05 0 0 1 .03-.09l.44-.02h.04c.1.09.23.1.36.04.27-.02.52-.04.8-.04.55 0 1.1-.03 1.64-.09h.2a.05.05 0 0 1 .05.01v.05c-.2.4-.45.77-.73 1.11-.08.1-.14.08-.25.08h-.59Z" fill="#B32B1F"/><path d="M8.17 11.74c-.01.12-.1.2-.28.23.01 0 .01 0 0 0a.02.02 0 0 1 0-.02h.01c.1-.04.19-.11.27-.2Z" fill="#7B8787"/><path d="M11.13 12.28c0 .15.03.3.08.43a.06.06 0 0 1-.03.08h-.03a.38.38 0 0 1-.17-.04l-.68-.29a.05.05 0 0 1-.03-.06l.01-.02.01-.01a.07.07 0 0 1 .08-.02l.6.3.16.06a.01.01 0 0 0 .02 0v-.02l-.27-.47v-.01h.01l.24.07ZM9.04 15a412.31 412.31 0 0 1-.43-1.62 30.62 30.62 0 0 0-.2-.57c.03-.14.03-.29.01-.43l.09-.02a.1.1 0 0 1 .11.05l.02.04v.3l.01.13c.03.08.07.15.1.26L9 14.28c.04.22.06.46.04.72Z" fill="#C8C4B6"/><path d="M10.32 12.54h-.02a.02.02 0 0 0-.02.02c.08.16.13.3.16.43 0 .02-.01.03-.04.03l-.2-.53c.04 0 .08.02.12.05Z" fill="#A8A8A8"/><path d="M10.28 14.88h-.13c.04-.23.15-.43.32-.6a28.77 28.77 0 0 0 .45-.46 1.59 1.59 0 0 0 .17-.53l-.06-.33h.07a.04.04 0 0 1 .04.02c.08.22.12.44.12.65 0 .09-.04.17-.1.24l-.28.3c-.21.2-.41.44-.6.7Z" fill="#C8C4B6"/><path d="M5.22 5.72h.33a.02.02 0 0 1 .01.03l-.26.19a.02.02 0 0 0-.01.02l.1.31a.02.02 0 0 1-.03.02l-.26-.2a.02.02 0 0 0-.02 0l-.26.2a.02.02 0 0 1-.03-.02l.1-.3a.02.02 0 0 0 0-.03l-.27-.19a.02.02 0 0 1 0-.04l.34.01a.02.02 0 0 0 .01-.01l.1-.32a.02.02 0 0 1 .04 0l.1.32a.02.02 0 0 0 .01.01ZM4.16 6.57c-.1.06-.13.2-.1.4-.04.03-.05.06-.06.1l-.2.16a.02.02 0 0 1-.03-.02l.1-.3a.04.04 0 0 0-.01-.04l-.25-.19a.01.01 0 0 1 0-.02h.3a.05.05 0 0 0 .05-.03l.1-.3a.01.01 0 0 1 .02-.02l.01.01.07.25Z" fill="#FBFAF1"/><path d="M4.16 6.57c0 .06.04.09.1.09a7.12 7.12 0 0 0 .3 0v.02l-.16.11a.05.05 0 0 0 .02.09l.22.04a.04.04 0 0 1 .03.03.04.04 0 0 1 0 .03.72.72 0 0 0-.1.6 15.66 15.66 0 0 0 .12.58h-.01l-.04-.04-.24-.56-.01-.02-.21-.16a.1.1 0 0 0-.04-.02l-.25-.05a.02.02 0 0 1 0-.03c.06-.05.1-.1.14-.17.04-.06.05-.11.02-.14-.02-.2.01-.34.1-.4ZM4.2 8.48h.33a.02.02 0 0 1 .01.04l-.26.18a.02.02 0 0 0 0 .03l.1.3a.02.02 0 0 1-.02.03h-.02l-.25-.2a.02.02 0 0 0-.03 0l-.25.2a.02.02 0 0 1-.03-.03l.1-.3a.02.02 0 0 0-.01-.03l-.26-.18a.02.02 0 0 1 .01-.04h.32a.02.02 0 0 0 .02-.01l.1-.3a.02.02 0 0 1 .03 0l.1.3a.02.02 0 0 0 .02.01Z" fill="#F4F4F4"/><path d="M10.26 7.64a.85.85 0 0 0-.6-.06.01.01 0 0 0 0 .02l.39.01v.03h-.21a60.9 60.9 0 0 1-.49.04.03.03 0 0 1 0-.02v-.01c.12-.1.25-.15.4-.15a2.22 2.22 0 0 1 .83.14v.02l-.32-.02Z" fill="#A8A8A8"/><path d="M8.96 10.17a.65.65 0 0 1-.32.02c.1-.14.2-.14.32-.02Z" fill="#C8C4B6"/><path d="M8.96 10.17c.03.03.05.08.07.12 0 .03-.01.04-.04.05h-.02c-.15-.09-.28-.06-.39.07a.31.31 0 0 1 .06-.22c.1.02.21.01.32-.02Z" fill="#081C41"/><path d="M11.38 9.07c-.02-.01-.04 0-.06.03a.02.02 0 0 1-.03 0l-.01-.14v-.02a.03.03 0 0 1 .03-.02c.04 0 .09-.02.12-.06a.04.04 0 0 1 .03-.02.03.03 0 0 1 .02.02.05.05 0 0 1 0 .06c-.04.05-.04.11 0 .17.11.16-.04.29-.16.36a.02.02 0 0 1-.02 0v-.01l-.01-.01.01-.24a.03.03 0 0 1 .03-.03c.02 0 .03-.02.06-.06v-.02l-.01-.01Z" fill="#FBFAF1"/><path d="M6.86 9.04c.1.13.25.2.42.22a.02.02 0 0 1 .02.04c-.03.02-.07.03-.1 0a.3.3 0 0 0-.17-.04c-.04 0-.07 0-.09-.02a.18.18 0 0 1-.03-.06.06.06 0 0 0-.03-.04c-.05-.02-.06-.05-.06-.1a.02.02 0 0 1 .04 0Z" fill="#7B8787"/><path d="M7.3 8.57h.27c.05 0 .12.04.22.13.02 0 .03.02.03.04.06.29-.08.5-.39.45-.3-.06-.34-.37-.17-.6a.06.06 0 0 1 .04-.02Z" fill="#64B5EA"/><path d="M6.02 9.16c.02.04.06.05.13.04a.03.03 0 0 1 .03.03v.2l.07.3a.02.02 0 0 1-.03.03l-.15-.1c-.15-.12-.09-.18-.05-.33A.05.05 0 0 0 6 9.28c-.03-.03-.04-.06-.03-.11a.02.02 0 0 1 .05 0Z" fill="#FBFAF1"/><path d="m9.15 4.22.61.2.43.2c.12.05.38.26.77.6.02.01.04.02.1.02a.07.07 0 0 0-.03.05l.02.04c.15.11.26.26.33.42a5.75 5.75 0 0 1 .12.33c.02.16.06.3.12.44.06.44.15.87.27 1.3l-.02-.02.2 1.28c.1.73.16 1.4.27 2.1a1.28 1.28 0 0 1 0 .44.04.04 0 0 0 .04.03h.88l-1.3.01c-.2 0-.32.1-.5.1-.05 0-.08-.03-.1-.07a.07.07 0 0 0-.07-.03 1.9 1.9 0 0 0-.3.05.3.3 0 0 1-.15 0 .1.1 0 0 0-.12.15c.01.03.05.07.1.13a.4.4 0 0 0 .15.08c.43.14.88.33 1.35.57.11.06.23.14.35.24.16.14.27.32.4.53a.56.56 0 0 0-.07.07h-.03a.79.79 0 0 0-.36-.48.13.13 0 0 1-.04-.03c-.1-.15-.4-.3-.66-.4a16.4 16.4 0 0 0-1.12-.48c-.15-.14-.24-.33-.46-.4-.03 0-.05-.02-.05-.03a.05.05 0 0 1 0-.04l.01-.02h.02a6.22 6.22 0 0 1 .52-.13l.02.02.04.05a.06.06 0 0 0 .05.03c.16 0 .27-.05.34-.17.08-.01.15 0 .2.02 0 .3.38.19.4-.04v-.03l.03-.02c.15-.04.47.07.28-.33 0-.05-.02-.1-.04-.13.11-.54-.14-1.22-.2-1.77a291.6 291.6 0 0 0-.22-1.37c-.01-.1 0-.2-.05-.3-.15-.37-.16-.85-.26-1.24a1.66 1.66 0 0 0-.36-.71A3.26 3.26 0 0 0 9.27 4.4c-.04 0-.08-.01-.1-.04h-.01l-.02-.01-.12-.01a.1.1 0 0 1-.04-.01.29.29 0 0 0-.16-.04c-.19.02-.38-.01-.48 0a4.2 4.2 0 0 0-.85.25c-.33.13-.62.32-.87.56-.26.26-.45.46-.56.6-.15.17-.24.4-.29.65-.08.42-.13.8-.14 1.16a2.05 2.05 0 0 1-.05.5 17.12 17.12 0 0 1-.06 1.51v1c-.06 1.97-.14 1.02.33 1.12.02.17.08.24.18.23a.2.2 0 0 0 .12 0c0 .04.02.04.07.02.08-.08.2-.39.31-.14l.3.08h.03l.02-.02.03-.1a.09.09 0 0 1 .09-.06.09.09 0 0 1 .08.06l.05.15-.27.3-.03.01-.01-.01H6.8c-.5.17-.97.37-1.42.6a.88.88 0 0 0-.21.18l-.33.33a.04.04 0 0 1-.05 0 .16.16 0 0 1-.07-.06l.24-.29.08-.03.04-.03a1 1 0 0 1 .28-.2l.83-.4.65-.26a.02.02 0 0 0 0-.03c-.4-.08-.4.12-.6.09-.13-.03-.74-.01-.77-.05a.1.1 0 0 1-.03-.05l-.06-.3c.05-.77.12-1.59.04-2.3l.1-1.75c0-.03-.01-.05-.03-.08.02 0 .03-.01.03-.03a6.43 6.43 0 0 1 .06-.76l-.04-.03c-.03-.01-.04-.04-.02-.06h.02c.04 0 .07-.01.08-.04V6.6c.03-.47.2-.86.53-1.18.02-.02.03-.03.03-.05 0-.02 0-.04-.02-.05.05 0 .09-.03.1-.08 0 .01 0 .02.02.03a.02.02 0 0 0 .03 0 2.85 2.85 0 0 1 .98-.75v-.03l.03-.01v-.03c.01.03.04.04.07.02a4.4 4.4 0 0 1 .74-.25l.63-.06c.11.05.24.07.4.07Z" fill="#80E6E9"/></svg>