<!-- by TradingView --><svg width="18" height="18" viewBox="0 0 18 18" xmlns="http://www.w3.org/2000/svg"><path fill="#F0F3FA" d="M0 0h18v18H0z"/><path d="M9.2 4a4.84 4.84 0 0 0-4.03 2.04L8.3 8.07c.48-.64 1.43-1.42 1.84-1.73l2.59 3.36-1 2.3-.12.3 1.17.57c.2.1.45 0 .53-.2.3-.79.7-2.16.7-3.42C14 6.36 12 4 9.2 4Z" fill="url(#a)"/><path d="M9.2 9.19c-.1-.03-.16.05-.17.1 0 .54-.14 1.7-.67 2-.54.3-1.15.36-1.39.36A6.71 6.71 0 0 1 8.3 8.07L5.22 6C4.82 6.46 4 7.8 4 9.54 4 11.71 6.02 14 8.32 14c2.3 0 3.26-1.57 3.5-2.1.16-.35.32-.95.42-1.36a.3.3 0 0 0-.2-.35l-1.2-.4c-.5-.2-1.54-.56-1.64-.6Z" fill="url(#b)"/><path d="M6.97 11.6A6.4 6.4 0 0 1 8.3 8.06L5.22 6C4.82 6.46 4 7.8 4 9.54c0 1.31.74 2.66 1.82 3.53l1.15-1.48Z" fill="url(#c)"/><path d="M7.6 7.98c-1.74 2.62-1.14 4.64-.63 5.32-2.62-.97-3.31-3.94-2.15-6.08 1.17-2.14 2.6-3 4.38-3 1.43 0 2.57.83 2.96 1.24-.92-.13-3.13.2-4.57 2.52Z" fill="url(#d)"/><path d="M9.03 9.29c-.57 1.71-1.62 2.3-2.07 2.37-.01.26.02.88.2 1.29.17.4.45.63.57.7.17 0 .58.03.94.03 2.1 0 3.06-2.59 3.15-2.95.07-.29-.03-.4-.1-.4L9.04 9.28Z" fill="url(#e)"/><path d="m12.71 12.55-1.04-.46c.28-.51.42-1.03.51-1.43.08-.33-.08-.44-.17-.45l-1.74-.63c.09-.2.27-.81.27-1.61s-.27-1.42-.4-1.63c.27-.17.96-.5 1.58-.5.6 0 1 .25 1.11.37.52.7.87 1.54.87 2.96 0 1.41-.62 3-.71 3.24-.07.18-.22.17-.28.14Z" fill="url(#f)"/><defs><linearGradient id="a" x1="11.9" y1="4.41" x2="8.64" y2="13.02" gradientUnits="userSpaceOnUse"><stop offset=".05" stop-color="#EFC7FD"/><stop offset=".41" stop-color="#31ABF4"/><stop offset="1" stop-color="#77B7FC"/></linearGradient><linearGradient id="b" x1="9.66" y1="9.69" x2="8.12" y2="14" gradientUnits="userSpaceOnUse"><stop stop-color="#68DEFF"/><stop offset="1" stop-color="#F1C7CB"/></linearGradient><linearGradient id="c" x1="8.05" y1="7.63" x2="6.14" y2="13.06" gradientUnits="userSpaceOnUse"><stop stop-color="#30AAF3"/><stop offset=".42" stop-color="#56E5FF"/><stop offset="1" stop-color="#FDC7C7"/></linearGradient><linearGradient id="d" x1="13.25" y1="7.16" x2="5.73" y2="13.16" gradientUnits="userSpaceOnUse"><stop offset=".01" stop-color="#346ED3"/><stop offset=".1" stop-color="#3973DC"/><stop offset=".67" stop-color="#2CBBF9"/><stop offset="1" stop-color="#86FDF7"/></linearGradient><linearGradient id="e" x1="11.84" y1="10.69" x2="6.95" y2="12.27" gradientUnits="userSpaceOnUse"><stop stop-color="#2CA4C6"/><stop offset=".48" stop-color="#55CFF5"/><stop offset="1" stop-color="#2C97B6"/></linearGradient><linearGradient id="f" x1="12.93" y1="6.62" x2="11.91" y2="12.57" gradientUnits="userSpaceOnUse"><stop stop-color="#144B81"/><stop offset=".42" stop-color="#2570BD"/><stop offset=".66" stop-color="#1E61A5"/></linearGradient></defs></svg>