<!-- by TradingView --><svg width="18" height="18" viewBox="0 0 18 18" xmlns="http://www.w3.org/2000/svg"><path fill="#7A123C" d="M0 0h18v18H0z"/><path fill-rule="evenodd" d="M9 14.63A5.63 5.63 0 1 0 9 3.37a5.63 5.63 0 0 0 0 11.26ZM9 15A6 6 0 1 0 9 3a6 6 0 0 0 0 12Z" fill="#A2C3E6"/><path d="M12 5H6v6.05c0 .47.3.84.92 1.12.2.09.47.19.81.28l.76.22.1.04A1 1 0 0 1 9 13l.18-.16c.08-.06.19-.12.32-.16l.75-.23c.35-.1.63-.2.82-.28.63-.27.94-.64.94-1.12V5Z" fill="#fff"/><path d="m8.8 12.47.2.17a1.01 1.01 0 0 1 .43-.27l.66-.2c.3-.08.54-.15.72-.23.54-.22.82-.54.82-.93V5.36H6.38v5.65c0 .4.26.7.8.93.18.08.41.16.71.24l.66.18.25.11Z" fill="#A3C4E9"/><path d="M8.2 7.57c0 .05 0 .08.02.11-.03.03-.02.07 0 .1.01.05.07.11.14.14.01-.02-.02-.07-.01-.11.04.03.08.06.11.06-.02-.04-.02-.07-.01-.08.08-.06.17-.15.22-.16.05-.02.1.01.1.07a.2.2 0 0 1-.06.16c-.07.08-.17.12-.25.2-.12.14-.15.3-.3.3.09-.05.13-.1.18-.2-.3.05-.47-.1-.65-.2-.08-.04-.16-.05-.2-.06a.4.4 0 0 1-.13-.24c-.02-.1 0-.21-.1-.22-.06-.08-.13-.14-.24-.07.06.01.1.03.13.12 0 0-.03.03-.03.05-.04 0-.05 0-.07.03-.1-.04-.2-.02-.24.07.07-.01.12-.01.17.03 0 .04 0 .06.02.08a.15.15 0 0 0-.06.11c-.08.02-.13.07-.13.14a.19.19 0 0 1 .14-.03c.02.02.03.05.07.06.05.02.13 0 .18.01l.02.08c0 .08-.14.02-.13.15-.05.01-.07 0-.11-.03.02.12.1.18.2.12.07.02.12-.07.2-.1.07-.05.17 0 .23.04.09.07.18.15.23.34a.23.23 0 0 0 .06-.13l.23.22-.5.39c-.03.03-.07.05-.1.04-.04-.02-.05-.05-.08-.08-.04-.03-.1-.06-.15-.03-.09 0-.17.02-.19.16.03-.03.06-.05.11-.04 0 .04.01.07.03.1-.02 0-.04.04-.04.05-.09 0-.15.05-.15.15.04-.04.08-.06.14-.04.01.1.06.11.11.1-.01.05-.02.08 0 .11-.03.07 0 .15.05.18 0-.04 0-.09.02-.1.05 0 .08-.02.13-.08.01.05.05.08.1.08 0 .05.02.1.05.12v-.13c.08-.07.07-.14.08-.23.02-.1.06-.13.14-.18.14-.1.32-.17.59-.2.08.1.17.22.27.31-.16.14-.27.08-.4.1a.33.33 0 0 0-.19.08c-.04.04-.05.09-.1.1-.03.02-.07.03-.12-.01 0 .12.04.16.16.15-.04.05-.08.07-.18.04.04.1.1.13.2.12.03.16.24.25.2.38-.05.18-.43.23-.58.14-.1-.07-.14-.17-.25-.14-.07-.06-.19-.08-.23.06.08-.04.12-.02.1.04-.15 0-.2.08-.19.18.03-.05.06-.07.1-.06a.29.29 0 0 0-.02.13c-.07.04-.08.13-.04.2.02-.06.03-.11.07-.12.03.04.07.07.12.08a.44.44 0 0 0 .01.24l.06-.12c.08.05.16.05.24.03.16-.04.27-.17.4-.17.06 0 .1.05.05.12.1-.01.16-.03.2-.06.08-.05.13-.1.2-.12.13-.03.3.11.39-.05-.1.02-.15-.03-.17-.07.12.02.2.01.27-.09-.18.03-.26-.13-.27-.21a.26.26 0 0 1 .18-.3l.14-.26.02-.09c.01.04.02.08.01.13-.02.07-.07.14-.1.22a.47.47 0 0 0-.02.18c0 .07.03.13.07.18.07.08.17.15.1.32.07-.01.12-.05.2-.14.05.05.1.1.07.19.1-.03.16-.1.2-.22.13 0 .2.03.22.09.02.09-.2.42-.47.43-.05-.02-.08-.06-.12-.08-.03-.01-.07 0-.1.04-.1-.02-.2 0-.22.1-.05.02-.1.1-.1.17a.34.34 0 0 1 .1-.06c.01.02.05.04.07.04-.12.1-.12.2-.11.23.05-.08.1-.1.13-.09.02.05.06.07.12.08v.14l.1-.11c.12.06.25.02.34-.05.16-.12.23-.37.36-.35.02 0 .05.03.03.06.03.01.06 0 .08-.03.05-.06.08-.17.17-.3.06-.1.2-.19.24-.27-.07.04-.14.03-.15-.01.11-.06.21-.13.26-.3a.33.33 0 0 1-.18.05c.05-.11.06-.23.02-.3-.16.23-.35.2-.43.14-.06-.04-.11-.1-.12-.26l.03-.15c.01-.06.03-.1.03-.16.24.14.42.18.55.17.25-.01.4-.2.4-.46a.62.62 0 0 0-.15-.36c-.1-.13-.25-.26-.35-.4a.57.57 0 0 1-.1-.21.36.36 0 0 1 .12-.36c.13.08.25.1.37.1.12-.01.21-.08.3-.16.05-.04.1-.07.18-.06a.2.2 0 0 0-.16-.07c.19-.23.26-.52.16-.72-.02.12-.06.15-.1.17l-.14.07c.03-.06.03-.11 0-.2-.07.22-.18.17-.33.32a.3.3 0 0 0 0-.19c-.01.07-.05.11-.1.14-.13.1-.3.13-.26.45-.17.14-.24.3-.22.46 0 .14.06.26.15.38s.22.24.31.35c.1.12.2.34.08.5-.07.1-.27.15-.7-.12-.02-.24-.2-.47-.24-.69a.57.57 0 0 1 0-.22c.02-.06.04-.13.04-.2.07.05.16.07.22.04-.05-.02-.1-.08-.09-.16 0-.12.07-.25 0-.38.06.04.12.06.2.03-.16-.1-.02-.24-.1-.4.06.02.14.02.2-.02-.19-.04-.1-.27-.25-.43.06 0 .12-.03.15-.08-.16.03-.25-.2-.39-.32a.55.55 0 0 0-.48-.11c0-.03.04-.07.1-.1-.17-.08-.35-.02-.5.12 0-.06 0-.12-.05-.18-.02.13-.2.2-.27.3a.26.26 0 0 0-.04.15c-.16.12-.21.11-.26.25-.08.07-.18.14-.24.21l.02.07.04-.05a.14.14 0 0 0 0 .13c.05.07.13.1.17.13-.03-.08-.02-.1.01-.13.08-.05.24-.03.26 0 .02.03 0 .17-.1.21-.06.03-.1 0-.15-.04ZM8.49 7c-.04.04-.04.1-.08.12-.03.02-.07.01-.08 0a.06.06 0 0 1 0-.09c.03-.04.1-.03.16-.03Z" fill="#FFE500"/></svg>