<!-- by TradingView --><svg width="18" height="18" viewBox="0 0 18 18" xmlns="http://www.w3.org/2000/svg"><path fill="#2E6F1B" d="M0 0h18v18H0z"/><path d="M7.7 4.61h.07a.3.3 0 0 1 .21.1.03.03 0 0 1 0 .04.02.02 0 0 1-.01.01.02.02 0 0 1-.02 0 .3.3 0 0 0-.26-.07.27.27 0 0 0-.1.06h-.01a.02.02 0 0 1-.03 0 .03.03 0 0 1 0-.04c.07-.09.1-.2.09-.32-.01-.18-.13-.32-.3-.32-.2 0-.39.1-.35.32a1.41 1.41 0 0 0 .03.17.03.03 0 0 1-.02.02H7l-.11-.02a.04.04 0 0 0-.05.02l-.04.07a.03.03 0 0 1-.04.01c-.25-.26-.67-.26-.88.05-.02.05-.04.11-.07.15a.01.01 0 0 1-.02 0c.02-.17.1-.29.23-.37.13-.07.27-.1.41-.07a.65.65 0 0 1 .33.16.01.01 0 0 0 .01 0v-.01c.03-.06.08-.09.16-.07a.01.01 0 0 0 .01 0 .01.01 0 0 0 0-.02C6.88 4.2 7 4.03 7.3 4c.22-.02.4.16.41.38a.79.79 0 0 1-.02.22.01.01 0 0 0 0 .01h.01ZM10.07 4.77a.01.01 0 0 1-.01 0v-.02c.1-.13.2-.1.34-.08.11-.32.43-.63.78-.44.14.08.23.21.26.39a23.3 23.3 0 0 0 .03.1c.06.03.1.07.11.13a.02.02 0 0 0 .02 0h.01c.1-.11.2-.2.33-.28.19-.1.44-.12.6.05.21.24.19.74-.04.97a.02.02 0 0 0 0 .03c.06.05.16.14.15.22h-.01a.02.02 0 0 1-.03.01v-.01a.35.35 0 0 0-.2-.2.03.03 0 0 1 0-.04.6.6 0 0 0 .18-.31c.07-.3.02-.75-.38-.74-.23.01-.47.22-.6.4a.04.04 0 0 1-.04.02.04.04 0 0 1-.03-.02l-.03-.13a.04.04 0 0 0-.02-.03h-.03l-.05.01a.03.03 0 0 1-.03-.01v-.02c.02-.19-.04-.34-.18-.45a.4.4 0 0 0-.44-.02.78.78 0 0 0-.3.42.05.05 0 0 1-.03.03.05.05 0 0 1-.04 0c-.08-.03-.16-.05-.24-.03l-.08.05ZM9.07 4.56a1.32 1.32 0 0 1 .16.41h.01l.29-.04a.7.7 0 0 0 .27.08 9.57 9.57 0 0 1 .38-.05c.18-.02.34.03.47.14.03.03.08.05.14.05l.02.01c.1.04.2.1.26.18l.07.04c.13.03.25.09.36.18a2.78 2.78 0 0 0 .19.33l.2.14c.02.03.05.04.08.05a4.85 4.85 0 0 1 .27-.01c.16 0 .3.06.43.17l.06.13c.1.16.1.32-.01.46l-.15.15a.07.07 0 0 0-.02.07l.04.1.01.06.02.33c.03.2-.04.3-.14.5-.05.1-.08.22-.09.34l-.02.24a.9.9 0 0 1-.34.6c-.07.07-.19.1-.25.14a.63.63 0 0 0-.16.13c-.15.2-.24.35-.47.45l-.27.1a.94.94 0 0 0-.2.13c-.01 0-.02 0-.02.02l-.01.1c-.01.1-.03.21-.07.32-.09.24-.2.46-.35.65l-.26.3c-.13.14-.32.29-.54.43a2.85 2.85 0 0 1-.9.44v.01c.1.09.2.14.31.17.14.07.28.1.43.07.27-.04.5-.13.7-.29.1-.06.18-.15.25-.23l.1-.1.33-.35c.15-.16.33-.33.52-.39.1-.03.16-.06.21-.1a.73.73 0 0 1 .6-.08 6.23 6.23 0 0 0 .27.07c0 .03-.01.05-.04.06a.19.19 0 0 0-.07.05l-.01.03.01.03.22.22c.07.07.14.15.19.25.08.14.12.29.1.45-.03.03-.07.03-.12-.01-.1-.16-.27-.17-.44-.13-.04 0-.06.03-.08.05l-.04.05a.04.04 0 0 1-.03.01h-.02l-.01-.01a.86.86 0 0 0-.29-.22l-.28-.16a.08.08 0 0 0-.06 0c-.18.06-.3.13-.46.27l-.47.45a1.63 1.63 0 0 1-1.01.5h-.32a15.8 15.8 0 0 1-.21-.07 1.05 1.05 0 0 1-.37-.22l-.15-.13-.1-.15a.05.05 0 0 0-.05-.02c-.23.02-.48.02-.73 0l-.42-.17a2.66 2.66 0 0 1-.98-.88c-.2-.29-.4-.61-.58-.97-.16-.3-.32-.7-.03-.99a.54.54 0 0 1 .3-.12l.03-.02v-.02a.04.04 0 0 0 0-.03.03.03 0 0 0-.03 0c-.16 0-.32.03-.48.07a.37.37 0 0 1-.16-.03 142.15 142.15 0 0 0-.26-.18.04.04 0 0 1 .02-.05l.13-.04a.02.02 0 0 0 .02-.02v-.01l-.02-.01c-.1-.04-.14-.1-.17-.22-.02-.06-.08-.1-.12-.15a.05.05 0 0 1 .02-.08c.09-.02.17-.03.26-.07a.28.28 0 0 1 .12-.03v-.01c0-.07-.06-.13-.08-.19A.04.04 0 0 1 5 8.25h.02c.08-.02.14-.01.22-.04.16-.05.3.05.43.14l.1.04a.02.02 0 0 0 .02-.01v-.01c.03-.32.08-.64.17-.95L6 7.35a.01.01 0 0 0 0-.01.01.01 0 0 0-.02 0c-.28 0-.32.21-.4.44a.01.01 0 0 1-.02 0v-.03c.04-.25.11-.46.4-.48.04 0 .09 0 .16.02h.08a1.67 1.67 0 0 1 .4.01c0-.36.18-.6.4-.88a4.72 4.72 0 0 0 .16-.33.9.9 0 0 1 .31-.38c.12-.08.23-.26.35-.35a1.05 1.05 0 0 1 .38-.16v-.01c0-.25.04-.48.21-.65.1-.1.2-.14.33-.15.14 0 .23.07.34.17Z" fill="#050404"/><path d="M8.31 5.49c-.02-.1-.04-.2-.05-.34-.02-.28.12-.66.44-.69.14-.01.25.05.33.18.1.16.15.33.15.5l-.01.02c-.02.03-.04.04-.07.04-.1-.02-.17 0-.22.07h-.01V5.1a.6.6 0 0 0-.1-.34c-.06-.07-.13-.08-.21-.04a.3.3 0 0 0-.1.11.06.06 0 0 0 0 .06l.01.01a.02.02 0 0 0 .02.01.02.02 0 0 0 .02 0c.03-.08.06-.11.08-.13.06-.04.1-.02.14.04a1.15 1.15 0 0 1 .08.46c-.04 0-.07-.02-.1-.03-.09-.03-.16.13-.19.19a.05.05 0 0 1-.06.03.2.2 0 0 0-.07-.02l-.03.01-.03.03h-.01Z" fill="#F0BA14"/><path d="m9.53 4.93-.29.04a.01.01 0 0 1-.01 0 1.32 1.32 0 0 0-.16-.4c.13-.02.24.03.33.13.05.07.1.14.13.23Z" fill="#16340E"/><path d="M6.64 5.1v-.01c.1-.26.57-.14.46.16a.03.03 0 0 1-.04.02h-.01v-.02c0-.08.02-.15-.04-.19-.13-.08-.24-.07-.34.04a.02.02 0 0 1-.01 0h-.01Z" fill="#050404"/><path d="M7.04 7.45c-.1-.05-.22-.1-.35-.12l-.03-.01v-.04c.01-.34.17-.55.37-.8a8.1 8.1 0 0 0 .2-.43.76.76 0 0 1 .23-.26c.1-.07.19-.16.27-.27a.54.54 0 0 1 .1-.1 1.96 1.96 0 0 1 .37-.17.02.02 0 0 1 0 .01.86.86 0 0 0 .08.26.02.02 0 0 1 0 .02h-.01a.33.33 0 0 1-.22 0 .02.02 0 0 0-.01.02v.01c.1.05.19.06.28.02.04-.02.07-.08.12-.06.05.02.1 0 .12-.04a2.03 2.03 0 0 0 .11-.17h.02l.12.04c.07.02.12-.05.16-.09l.04-.01c.07 0 .13.03.2-.03a.37.37 0 0 1 .13-.1.02.02 0 0 0 .02 0 .02.02 0 0 0-.01-.03.08.08 0 0 0-.08-.01.03.03 0 0 1-.03-.01.03.03 0 0 1 0-.04c.11-.08.35-.02.47.03.03.02.08.02.15.01a8 8 0 0 1 .34-.05c.17-.02.31.03.43.15.12.13.23.22.4.25.18.04.37.07.45.25.06.12.1.2.2.28a27.5 27.5 0 0 1 .18.16l-.23.11h-.01a.14.14 0 0 0-.1-.08.01.01 0 0 0 0 .03c.04.04.07.1.07.18 0 .05.05.08.07.12v.04c-.01.1-.03.23.08.25l.14.05a.04.04 0 0 1 .02.04l-.02.12v.04c0 .02.02.03.03.04l.07.03v.04c-.03.1.08.14.15.17h.02a.03.03 0 0 0 0-.05.13.13 0 0 0-.05-.04.01.01 0 0 1 0-.02 1.01 1.01 0 0 0 .37-.13.02.02 0 0 1 .02 0v.02c.05.1.04.2.05.31v.06c.03.14.04.2-.01.33l-.13.29c-.07.16-.08.33-.09.48-.02.28-.16.56-.42.69-.11.05-.2.1-.28.16-.07.07-.15.2-.2.27a.62.62 0 0 1-.26.2 366.39 366.39 0 0 0-.44.2l-.25.16a.5.5 0 0 1-.47.06c-.15-.05-.23-.08-.35-.1a6.06 6.06 0 0 0-.32-.01.85.85 0 0 1-.5-.15c-.17-.12-.4-.32-.65-.37-.19-.04-.37-.07-.54-.16a.04.04 0 0 1-.03-.03c0-.35-.29-.56-.6-.67a.18.18 0 0 1-.04-.02.01.01 0 0 1 0-.01.01.01 0 0 1 0-.01.99.99 0 0 0 .39-.5c.1-.28.05-.6-.22-.76l-.01-.01v-.02l.06-.32a.02.02 0 0 0 0-.02h-.02a.01.01 0 0 0-.02 0 1.02 1.02 0 0 0-.08.32h-.02Z" fill="#91590E"/><path d="M12.07 6.06a.2.2 0 0 1-.1.02.16.16 0 0 1-.09-.05c-.06-.05-.12-.1-.2-.14a2.76 2.76 0 0 1-.2-.33c.14 0 .25.05.33.13.07.07.12.19.17.28l.09.09Z" fill="#16340E"/><path d="M8.97 5.76c.09-.07.16-.06.28-.04.1.01.22 0 .36-.03.1-.01.19-.02.28 0 .07 0 .11.04.17.09.11.1.19.15.22.16.18.08.35.16.42.36.02.05.03.14.03.26 0 .13.01.28.05.46.02.1 0 .23-.05.36a3.9 3.9 0 0 1-.18.3c-.1.16-.16.4-.28.6a1 1 0 0 1-.16.14c-.2.17-.33.39-.55.5a.55.55 0 0 1-.15.04c-.12.01-.22.04-.36.07l-.2.04a.82.82 0 0 1-.68-.3l-.07-.1c-.07-.08-.16-.14-.24-.22-.12-.12-.12-.31-.1-.5V7.5c-.02-.16 0-.3.07-.43.02-.05.08-.14.18-.28.11-.15.15-.23.24-.42.09-.17.3-.3.47-.4l.25-.2Z" fill="#F0BA14"/><path d="M4.4 7.04a.01.01 0 0 1 0 .01.47.47 0 0 1-.2-.17 1.4 1.4 0 0 1-.16-.4c-.06-.22-.06-.47.1-.65.1-.13.3-.15.45-.1a.5.5 0 0 1 .24.2.02.02 0 0 0 .02 0c.08-.05.17-.04.25.03a.02.02 0 0 0 .02 0l.04-.08c.07-.2.33-.23.48-.12.1.07.2.2.16.34l-.02.02h-.02a.02.02 0 0 1-.02 0 .02.02 0 0 1 0-.02c.07-.25-.29-.44-.46-.28-.1.08-.1.17-.1.28l-.02.01a.02.02 0 0 1-.04 0C5.08 6 5 5.9 4.9 5.99a12.99 12.99 0 0 0-.08.05.4.4 0 0 0-.43-.27.3.3 0 0 0-.19.09c-.13.12-.14.35-.1.51.02.18.09.35.18.51.04.07.1.11.14.16ZM6 6.35c.03-.1.13-.3.24-.31a.02.02 0 0 1 .02.01.02.02 0 0 1 0 .03.5.5 0 0 0-.2.37.02.02 0 0 1-.02.02.02.02 0 0 1-.02 0 .27.27 0 0 0-.12-.06c-.13-.02-.24.01-.32.11a.02.02 0 0 1-.02 0 .02.02 0 0 1 0-.02c.08-.14.2-.18.37-.15l.06.02H6v-.02ZM9.06 6.06a.03.03 0 0 0 0 .05l.26.31c.01.01.03.02.05 0a.03.03 0 0 0 0-.04l-.26-.31a.03.03 0 0 0-.05 0Z" fill="#050404"/><path d="M11.77 6.43a.05.05 0 0 1-.04.01.05.05 0 0 1-.03-.02l-.05-.08a.05.05 0 0 1 0-.07h.03c.33-.15.78-.27 1 .13.21.4-.29.68-.6.72h-.01v-.01c-.02-.05-.05-.08-.1-.1L11.95 7v-.02c.03-.09.05-.2-.06-.24a.63.63 0 0 0-.14-.03.04.04 0 0 1-.03-.04c0-.05 0-.1.02-.16l.03-.02c.19-.1.48-.2.6.06v.02l-.01.04v.02h.02a.03.03 0 0 0 .03 0 .1.1 0 0 0 .01-.1c-.07-.17-.2-.24-.38-.21a.52.52 0 0 0-.27.1Z" fill="#F0BA14"/><path d="M8.84 12.6a.77.77 0 0 1-.32-.16v-.01l.2-.07c.23-.07.45-.2.7-.37.24-.14.42-.3.55-.44.1-.11.18-.18.26-.29.14-.2.26-.4.35-.65.04-.1.06-.22.07-.33v-.1l.02-.01.21-.13.27-.1c.23-.1.32-.25.47-.45a.63.63 0 0 1 .16-.13c.06-.04.18-.07.25-.13a.9.9 0 0 0 .34-.6l.02-.25a.96.96 0 0 1 .09-.33c.1-.21.17-.31.14-.51a2.39 2.39 0 0 1-.03-.38l-.04-.11a.07.07 0 0 1 .02-.07l.15-.15c.1-.14.11-.3.01-.46a4.67 4.67 0 0 1-.06-.13c.18 0 .32.1.42.26.12.22.09.4-.08.58a2.45 2.45 0 0 1-.1.1v.01l.05.18v.01l.03.35c.02.1-.03.22-.08.32-.1.21-.16.35-.16.58a.96.96 0 0 1-.33.74c-.1.08-.23.13-.32.19-.15.09-.23.27-.35.39-.13.12-.3.18-.48.25a.73.73 0 0 0-.23.13.07.07 0 0 0-.02.04c-.03.5-.32.97-.66 1.32a3.36 3.36 0 0 1-1.52.92Z" fill="#16340E"/><path d="M9.25 6.7c.04-.09.04-.17 0-.2-.04-.02-.11.03-.16.1-.04.09-.04.17 0 .2.04.02.11-.02.16-.1ZM9.55 6.86c.04-.09.05-.18 0-.2-.04-.02-.12.03-.16.11-.05.09-.05.18 0 .2.04.03.11-.02.16-.1ZM6.99 7.25l-.02-.02V7.2a.28.28 0 0 1 .02-.1l.05-.13.02-.05.03-.03.03-.02a.03.03 0 0 1 .03 0l-.16.38ZM8.77 7.64l-.09-.08c-.13-.16-.11-.41-.01-.58.05-.08.14-.1.24-.09a1 1 0 0 1 .22.09c.16.08.38.26.33.45-.04.12-.2.2-.31.25-.11.04-.2.04-.3 0a.02.02 0 0 0-.02 0l-.06.12a.04.04 0 0 0 0 .02l.06.23a.05.05 0 0 1-.02.05.02.02 0 0 1-.04 0l-.07-.25h-.01l-.23.02a.02.02 0 0 1-.02 0v-.05l.03-.01.22-.03a.02.02 0 0 0 .01-.01l.07-.11v-.01Z" fill="#050404"/><path d="m5.86 10.1-.02-.01v-.02a17.98 17.98 0 0 1-.03-1.36l.06-.52a4.77 4.77 0 0 1 .16-.78l.03-.02c.29-.07.65 0 .9.1.22.1.34.24.36.45.03.25-.09.46-.25.65a.5.5 0 0 1-.15.1c-.07.04-.17.08-.18.1a.04.04 0 0 0 0 .04h.03a.9.9 0 0 1 .63.3c.17.19.16.46.05.66l-.02.02c-.1.04-.17.06-.22.15a6.11 6.11 0 0 1-.06.09c-.06.01-.12.02-.17.05-.1.06-.11.13-.16.22v.01H6.8c-.14.01-.25 0-.33-.01a2.56 2.56 0 0 1-.32-.12 2.4 2.4 0 0 0-.3-.1Z" fill="#EF8915"/><path d="M6.27 8.14c0-.12.02-.24.16-.22.13.03.28.1.3.25 0 .04-.02.08-.06.12-.1.1-.3.11-.39-.02-.02-.04-.01-.09-.01-.13Z" fill="#050404"/><path d="M6.37 8c.05 0 .18.01.21.07v.01l.03.14a.04.04 0 0 1-.02.04c-.07.05-.2.06-.25-.03V8.2l.01-.18a.02.02 0 0 1 .02-.03Z" fill="#2E6F1B"/><path d="M5.21 8.57a.01.01 0 0 0 .01-.01v-.01l-.08-.05a.03.03 0 0 1-.01-.02c0-.16.07-.23.23-.21.04 0 .1.03.17.08a2.44 2.44 0 0 0 .23.15 3.73 3.73 0 0 0-.03.73c-.15 0-.28.02-.41.06-.15.04-.38.02-.31-.21v-.01h.11l.02-.03v-.01a.02.02 0 0 0 0-.03h-.02c-.1 0-.26-.04-.28-.18-.02-.17.14-.3.3-.26l.07.01Z" fill="#F0BA14"/><path d="M14 8.86v.07c-.16-.06-.3-.04-.4.07h-.01a.02.02 0 0 1-.02 0l-.01-.01v-.01c.02-.14.03-.6-.19-.6-.11 0-.2.06-.27.15a.02.02 0 0 1-.03.01l-.02-.01c-.02-.08-.06-.18-.16-.16l-.01-.01v-.01a.08.08 0 0 1 .09-.02h.01l.1.1a.02.02 0 0 0 .03 0c.07-.07.16-.1.25-.1.25-.02.28.35.28.54h.01a.4.4 0 0 1 .35 0Z" fill="#050404"/><path d="M4.74 8.66a.01.01 0 0 1 0-.01l.02-.02h.04v.03a.1.1 0 0 1-.02.03.01.01 0 0 1-.01 0l-.03-.03Z" fill="#2E6F1B"/><path d="M11.09 9.07v.06a.25.25 0 0 1-.05.08l-.1.1a.24.24 0 0 1-.08.05h-.05l.28-.29Z" fill="#050404"/><path d="m6.35 9.45.13.08a.03.03 0 0 0 .05 0 .03.03 0 0 0-.01-.05 1.1 1.1 0 0 0-.24-.14.03.03 0 0 1 0-.03V9.3c0-.02.03-.03.06-.04.24-.02.52.02.58.28.05.23-.17.31-.35.3a1.2 1.2 0 0 1-.24-.07l-.02-.01c-.07-.08-.06-.18-.04-.28a.05.05 0 0 1 .03-.04.05.05 0 0 1 .05 0Z" fill="#F0BA14"/><path d="M5.72 9.45a.01.01 0 0 1 .01 0l.02.42a.07.07 0 0 1-.02.06c-.07.04-.18.1-.25.08-.11-.02-.16-.09-.16-.2.01-.21.2-.35.4-.36Z" fill="#91590E"/><path d="m5.32 10.03.01-.01c.15.1.28.06.41-.02a.01.01 0 0 1 .02 0v.14a.02.02 0 0 0 .03.02l.24.07.34.13a1.1 1.1 0 0 0 .43.05v.01c.02.06.04.1.07.12a.02.02 0 0 1 0 .03c-.04.09-.09.1-.16.16-.02.02-.03.03-.03.05a.06.06 0 0 0 .04.05c.07.02.13.04.19.08a.3.3 0 0 0 .22.05 3.27 3.27 0 0 1 .28-.04c-.01.15 0 .29.02.42 0 .05.02.09.04.12l.02.01h.04v-.01a1.9 1.9 0 0 1-.06-.55 3.57 3.57 0 0 1 .82.14c0 .2.04.38.14.54a.04.04 0 0 0 .05.02h.01a.03.03 0 0 0 0-.04 1.36 1.36 0 0 1-.15-.52l.38.08h.01v-.02a.01.01 0 0 0 0-.02c-.32-.1-.64-.18-.97-.23-.17-.02-.3-.03-.4-.01l-.27.04c-.17.02-.27-.12-.17-.27a.02.02 0 0 1 .03 0 .2.2 0 0 0 .1.03.03.03 0 0 0 .03-.02.03.03 0 0 0-.02-.04c-.23-.06-.26-.35-.05-.46a.4.4 0 0 1 .27-.03.02.02 0 0 0 .02 0v-.02a.17.17 0 0 0-.07-.04.01.01 0 0 1-.01-.01c.04-.13.15-.2.28-.14a.37.37 0 0 1 .1.1l.07.13c.07.08.14.13.23.15a2.67 2.67 0 0 0 .9.08.02.02 0 0 0 0-.02v-.01c-.25-.03-.66-.02-.96-.14a.33.33 0 0 1-.15-.16.47.47 0 0 0-.16-.19h-.01V9.8a.64.64 0 0 0 .08-.24c.25.14.57.1.86.29l.3.2c.15.11.31.17.49.18.17 0 .3.02.4.03.14 0 .33.1.47.12a.7.7 0 0 0 .48-.16c-.08.48-.28.86-.62 1.22-.36.38-.79.66-1.28.84-.6.22-1.23.24-1.8-.07-.38-.2-.71-.6-.96-.98a8.66 8.66 0 0 1-.5-.89c-.06-.1-.1-.21-.12-.32Z" fill="#F0BA14"/><path d="M11.42 11.28v-.01a.68.68 0 0 1 .5-.08 6.43 6.43 0 0 1 .2.06c-.07.04-.08.1-.03.16l.22.23a.9.9 0 0 1 .28.58.02.02 0 0 1-.03 0 .46.46 0 0 0-.5-.13c-.05.02-.08.05-.12.08h-.03c-.12-.14-.24-.19-.46-.3.2-.03.3-.13.31-.32 0-.04-.01-.07-.04-.11a.38.38 0 0 0-.3-.16Z" fill="#91590E"/><path d="M12.21 11.27a12.03 12.03 0 0 0 .41.1.03.03 0 0 1-.01.03l-.1.07a.04.04 0 0 0-.02.03v.02l.02.01.25.27a.9.9 0 0 1 .26.58l-.01.09a.04.04 0 0 1-.03.02.04.04 0 0 1-.03 0 8.36 8.36 0 0 1-.13-.11.41.41 0 0 0-.16-.08.8.8 0 0 0-.11-.45c-.05-.1-.12-.18-.19-.25a7.27 7.27 0 0 0-.23-.25v-.03a.18.18 0 0 1 .08-.05Z" fill="#16340E"/><path d="M5.48 12.36h.01c.1-.14.23-.25.4-.21.18.03.3.12.37.27a.04.04 0 0 1 0 .04l-.01.02a.02.02 0 0 1-.02 0 .02.02 0 0 1-.02 0 .41.41 0 0 0-.26-.26c-.24-.08-.4.1-.46.31l-.01.02a.03.03 0 0 1-.04 0v-.03c0-.1-.06-.36-.21-.3H5.2a.02.02 0 0 1-.02-.02v-.01c.03-.05.07-.13.08-.2.01-.2-.08-.45-.24-.56-.2-.14-.45-.07-.58.12a1.48 1.48 0 0 0-.08.11h-.02a.04.04 0 0 1-.03 0 6.2 6.2 0 0 0-.12-.13c-.04-.04-.08-.04-.12 0h-.01a.01.01 0 0 1-.01-.02c.09-.14.2 0 .27.06a.02.02 0 0 0 .02 0h.01c.04-.07.1-.13.15-.18.48-.35.95.27.79.73v.02l.1.06.08.16Z" fill="#050404"/><path d="M8.25 12.5a.01.01 0 0 1 0-.02h.01l.17-.03h.01l.02.01c.17.16.35.25.53.28.38.07.77-.1 1.07-.33l.2-.18c.26-.27.46-.55.76-.76a1.03 1.03 0 0 1 .39-.14c.12.02.21.08.27.17l.01.04c0 .12-.05.2-.16.24-.07.03-.19 0-.25.02-.18.07-.34.15-.46.26l-.49.48c-.26.27-.57.4-.94.47a1.09 1.09 0 0 1-1.14-.52Z" fill="#F0BA14"/><path d="M11.62 12.04c-.31.11-.46.3-.75.6l-.25.22c-.26.23-.64.37-1 .4a.9.9 0 0 1-.6-.15l.32-.02a1.63 1.63 0 0 0 1.02-.5l.47-.44c.14-.14.27-.21.45-.28a.08.08 0 0 1 .06 0l.28.17ZM12.53 12.29l-.12.04a.2.2 0 0 0-.06.07.05.05 0 0 1-.03.03h-.03l-.01-.01a1.3 1.3 0 0 0-.27-.2c.02-.03.04-.05.08-.06.17-.04.33-.03.44.13Z" fill="#16340E"/><path d="M5.03 12.8a.37.37 0 0 0-.29-.02.02.02 0 0 1-.02-.01v-.01c.01-.05 0-.1-.02-.14-.06-.11-.09-.18-.2-.2l-.02-.02v-.02c.18 0 .27.16.31.3l.01.01h.02c.06 0 .13.02.2.04.02 0 .02.01.03.02v.03a.02.02 0 0 1 0 .02h-.02Z" fill="#050404"/><path d="M8.29 12.68c-.27.01-.53-.03-.78-.12a.43.43 0 0 1-.1-.05 3.33 3.33 0 0 0 .75 0l.03.02.1.15Z" fill="#16340E"/><path d="M5.96 13.39a.01.01 0 0 1-.02 0 .01.01 0 0 1 0-.02c.05-.1.15-.1.26-.08h.01l.02-.01.07-.1c.08-.1.22-.2.35-.23.23-.03.43.16.46.39v.02h.02a.2.2 0 0 1 .18.1.02.02 0 0 0 .04.02c.13-.07.27-.1.44-.08a.4.4 0 0 1 .16.05.05.05 0 0 1 .02.05v.02a.02.02 0 0 1-.03 0 .25.25 0 0 0-.14-.05c-.17-.02-.34 0-.48.1a.02.02 0 0 1-.01 0 .02.02 0 0 1-.02 0c-.03-.1-.1-.17-.21-.11a.02.02 0 0 1-.03 0 .03.03 0 0 1 0-.03.37.37 0 0 0-.11-.31c-.15-.16-.32-.12-.48 0-.07.04-.12.12-.18.2-.04.06-.11.03-.19.02-.06-.01-.1 0-.13.05ZM11.74 14h-.06c.02-.05.06-.1.1-.15a.36.36 0 0 1 .15-.1.02.02 0 0 0 .01-.02.73.73 0 0 1-.03-.42c.13-.54.73-.18.92.06a.02.02 0 0 0 .03 0c.02 0 .04-.04.08-.05.05-.02.1 0 .14.05a.02.02 0 0 0 .02 0h.02a.46.46 0 0 1 .3-.12h.02l.01.02v.01a.02.02 0 0 1 0 .02h-.01c-.13.03-.27.04-.3.2h-.01a.02.02 0 0 1-.03 0h-.01c-.02-.04-.06-.12-.1-.12h-.04a.08.08 0 0 0-.04.04.97.97 0 0 0-.04.09.02.02 0 0 1-.02 0 .86.86 0 0 0-.53-.4c-.13-.04-.27-.02-.32.14a.68.68 0 0 0-.03.35 9.52 9.52 0 0 1 .02.2l-.1.04-.02.02-.13.14Z" fill="#050404"/></svg>