<!-- by TradingView --><svg width="18" height="18" viewBox="0 0 18 18" xmlns="http://www.w3.org/2000/svg"><path fill="#FFB854" d="M0 0h18v18H0z"/><path d="M9 3a5.95 5.95 0 0 1 5.54 3.7 5.94 5.94 0 0 1 0 4.6A5.94 5.94 0 0 1 9 15a5.94 5.94 0 0 1-5.54-3.7 5.95 5.95 0 0 1 1.3-6.54A5.94 5.94 0 0 1 9 3Zm0 .24A5.7 5.7 0 0 0 3.68 6.8a5.7 5.7 0 0 0 1.25 6.27A5.7 5.7 0 0 0 9 14.76a5.7 5.7 0 0 0 5.32-3.56 5.7 5.7 0 0 0-1.25-6.27A5.7 5.7 0 0 0 9 3.24Z" fill="#020101"/><path d="M4.63 10.6A4.58 4.58 0 0 0 7.5 13.4a4.58 4.58 0 0 0 4-.5 4.6 4.6 0 0 0 1.83-2.25l.24.08v.02a4.88 4.88 0 0 1-5.76 3.04 4.87 4.87 0 0 1-3.46-3.1 4.86 4.86 0 0 1 .66-4.62A4.89 4.89 0 0 1 11.4 4.7l-.13.22h-.02a4.57 4.57 0 0 0-4.8.2 4.61 4.61 0 0 0-2.07 3.37c-.08.72 0 1.42.26 2.1Z" fill="#020101"/><path d="M12.65 8.1h.8l.02.04v.84c0 .01 0 .02-.02.02h-2.44L11 8.99v-.7a.1.1 0 0 1 .04-.08 17.08 17.08 0 0 0 1.17-1.04.38.38 0 0 0 .05-.23c0-.01 0-.02-.03-.03A.92.92 0 0 0 12 6.9a12 12 0 0 0-.92.07L11 6.2c0-.02 0-.03.03-.03.25-.08.5-.12.77-.15.3-.03.56-.03.8.02.58.1.85.44.8.98 0 .22-.1.42-.24.6a3.48 3.48 0 0 1-.53.5l.01-.02Z" fill="#020101"/><path d="m12 8.3-.01.02h1.21c.01 0 .02.01.02.03v.42c0 .01 0 .02-.02.02h-1.92c-.02 0-.03 0-.03-.02v-.4l.03-.06c.36-.28.67-.55.94-.8.23-.21.32-.4.3-.59-.04-.17-.2-.25-.46-.24-.42.02-.66.03-.72.05-.02.01-.04 0-.04-.02l-.03-.36c0-.01.01-.03.03-.03.37-.09.72-.12 1.06-.1.51.03.78.25.8.67a.84.84 0 0 1-.12.5c-.08.13-.21.27-.4.42l-.65.5Z" fill="#FFE4BE"/><path d="M6.52 7.9h-.66c-.01 0-.04-.01-.04-.03v-.95c0-.01.01-.02.03-.02l1.1-.01c.02 0 .03-.01.03-.03v-.81c0-.02 0-.05.02-.05h1.96C8.98 6 9 6 9 6.02v.84c0 .02 0 .03.02.03.24.02.46.07.68.15.19.07.34.17.47.3.12.13.2.27.24.43.04.16.04.32 0 .48a1.1 1.1 0 0 1-.26.47v.04c.46.31.66.71.6 1.21-.03.37-.22.67-.57.89-.32.2-.74.3-1.16.3l-.02.01v.77c0 .03-.01.06-.04.06H7.07c-.01 0-.02 0-.02-.02l-.01-.79c0-.01-.01-.02-.03-.02l-1.15.01c-.02 0-.02 0-.02-.02l-.02-.96c0-.01.01-.02.03-.02l.68-.01c.02 0 .03-.01.03-.03L6.53 7.9Z" fill="#020101"/><path d="m6.08 10.94-.01-.49c0-.01 0-.03.02-.03h.69c.02 0 .03 0 .03-.02l-.04-2.67c0-.03-.01-.04-.04-.04H6.1l-.02-.01v-.54c0-.01 0-.02.02-.02l1.1-.01c.02 0 .04-.01.04-.03v-.84h.5l.03.01v.83s.02.02.03.01h.4l.01-.02v-.83l.01-.01h.5c.02 0 .03 0 .03.02v.81c0 .02.02.03.04.03.24 0 .5.05.77.14.33.1.53.3.61.58.06.19.04.37-.05.56-.09.17-.22.3-.4.42l-.01.01.01.02c.27.08.47.21.61.41.15.2.21.43.2.68a.96.96 0 0 1-.48.76 1.6 1.6 0 0 1-.94.26h-.27c-.02 0-.03.01-.03.03l.01.78c0 .01 0 .02-.02.02h-.48c-.01 0-.02 0-.02-.02l-.01-.77c0-.02-.01-.03-.03-.03h-.41c-.02 0-.02.01-.02.03v.78c0 .02 0 .02-.02.02h-.54l-.03-.01v-.79l-.03-.02-1.11.01c-.02 0-.02 0-.02-.02Z" fill="#FFE4BE"/><path d="M7.78 7.6c0-.02 0-.02.02-.02h.68c.18 0 .33.05.46.15.13.1.2.21.2.35v.05c0 .14-.07.25-.2.35a.74.74 0 0 1-.46.15H7.8c-.01 0-.02 0-.02-.02V7.6Z" fill="#020101"/><path d="M8 7.81c0-.01 0-.02.02-.02h.43c.12 0 .22.04.3.1.08.05.12.12.12.2v.04c0 .08-.05.14-.13.2a.51.51 0 0 1-.3.08h-.42C8.01 8.4 8 8.4 8 8.38v-.57Z" fill="#FFB854"/><path d="m7.8 9.2.02-.04h.98c.17 0 .31.05.43.15.12.1.19.24.19.4v.03c0 .15-.05.28-.17.4a.62.62 0 0 1-.43.16l-.98.02-.01-.01-.03-1.12Z" fill="#020101"/><path d="M8.05 9.4c0-.02.02-.05.03-.05h.72c.1 0 .19.03.26.1.08.07.12.15.12.24v.04c0 .1-.03.18-.1.25a.43.43 0 0 1-.28.13h-.72l-.02-.02-.01-.7Z" fill="#FFB854"/></svg>