<!-- by TradingView --><svg width="18" height="18" viewBox="0 0 18 18" xmlns="http://www.w3.org/2000/svg"><path fill="#F0F3FA" d="M0 0h18v18H0z"/><path d="m8.21 8.95.03.03.57.28c.16.08.19.2.19.39v2.18c0 .11-.06.17-.17.17H4.44c-.2 0-.34-.09-.4-.26A1.63 1.63 0 0 1 4 11.3V6.61c0-.28.02-.48.28-.58A.8.8 0 0 1 4.55 6h4.22c.1 0 .23 0 .23.14v2.13c0 .14-.07.24-.2.3l-.52.24c-.07.04-.1.08-.07.14ZM5.95 7.8V8.4h.01l.01.01h.83c.04 0 .07 0 .1-.02a.25.25 0 0 0 .08-.06.3.3 0 0 0 .07-.2v-.04a.3.3 0 0 0-.07-.2.24.24 0 0 0-.18-.08h-.83l-.02.01Zm0 1.8V10.19h.02l.87.01c.03 0 .06 0 .08-.02a.21.21 0 0 0 .07-.05.27.27 0 0 0 .05-.09.3.3 0 0 0 .02-.1v-.08a.29.29 0 0 0-.07-.18.2.2 0 0 0-.15-.08h-.89Zm5.9-1.58-1.42.5c-.03 0-.04.02-.04.05v.71h.9c.23 0 .47.03.45.35-.01.1-.04.17-.1.2-.22.18-.5.1-.48-.2 0-.03 0-.04-.03-.04H9.37a.09.09 0 0 0-.06.03.1.1 0 0 0-.03.07v2.22l.01.04c.03.02.07.04.12.04h4.16c.2 0 .33-.08.39-.24.03-.07.04-.22.04-.43v-2.2c0-.17-.06-.29-.19-.36a.7.7 0 0 0-.33-.07H13a79.71 79.71 0 0 0-.95-.02c0-.01 0-.02.02-.02.36-.1.65-.16.9-.21a23.26 23.26 0 0 0 .75-.2c.1-.07.16-.18.17-.34a54.27 54.27 0 0 0-.03-1.63c-.05-.18-.2-.28-.43-.28H9.38c-.07 0-.1.04-.1.11v1.78c0 .1.1.11.19.11h2.38v.03Z" fill="#186AF9"/></svg>