<!-- by TradingView --><svg xmlns="http://www.w3.org/2000/svg" width="18" height="18"><path fill="#FEE871" d="M0 0h18v18H0z"/><path d="M7.12 4.79c0-.07-.67-.84-.97-1.13.29-.11 1.05.46 1.44.75l.07.06a3.33 3.33 0 012.63-.14c.19.06.37.11.56.14l.92-.7.58-.1-.31.32-.72.8a5.19 5.19 0 011.6 3.2c.06 1.41-.87 2.07-1.34 2.21l.07.46h.02c.3.4.34.96.3 1.29.32.31.38.56.45.9l.03.16-.2.67-.32.38-.48.04-.34-.04-.48.34-.3-.08c.02-.03.09-.1.17-.23-.43.1-1.14.1-1.55.1a3.92 3.92 0 01-1.04-.22c.12.19.23.32.26.35l-.3.08-.48-.34-.34.04-.48-.04-.33-.38-.24-.62c.05-.06.09-.21-.1-.33-.23-.14-1.21-.85-.52-2.3.12.34.5 1.06 1.12 1.23.02-.3.11-.91.33-1h.02v-.46l-.42-.2c-2.06-2.16.07-4.51.59-5.09l.1-.12z" fill="#EF8500"/><path d="M7.24 10.83c-.03.16-.03.52.14.8.14.2.44.56.73.9a9.14 9.14 0 01.62.77c.1.23.36.28.5.28.15 0 .5-.1.56-.47l1.05-1.17c.17-.21.5-.73.45-1.1l-1.2.32-.37.05-.22.02-1.59-.14a2.12 2.12 0 01-.67-.26z" fill="#fff"/><path d="M6.86 10.23l2.05.44v.52c-.58-.07-1.8-.28-2.08-.52l.03-.44zm4.76 0l-2.05.44v.52c.58-.07 1.8-.28 2.08-.52l-.03-.44z" fill="#B31823"/><path d="M7.4 14.02a.96.96 0 011.27 0c-.15.3-.6.73-1.28 0z" fill="#F4FAF6"/><path d="M11.1 14.02a.96.96 0 00-1.27 0c.15.3.6.73 1.27 0zm-4.96-1.63a2.04 2.04 0 01-.8-1.88c-.69.99.15 1.92.66 2.27l.14-.4z" fill="#fff"/><path d="M7.74 5.61c-.25.05-.37.26-.37.35.02.2.13.35.42.35.24 0 .34-.2.35-.38a.33.33 0 00-.4-.32zm2.98 0c.25.05.37.26.37.35-.02.2-.13.35-.42.35-.24 0-.34-.2-.36-.38 0-.12.11-.38.41-.32z" fill="#FDFFF7"/><path d="M6.31 8.73c-.6 0-.78-.5-.8-.76-.14.91.37 2.73 3.66 2.71 3.28-.01 3.85-1.74 3.72-2.6-.06.21-.3.65-.82.65-.5 0-1.19-.65-1.46-.97-.27-.27-.94-.82-1.44-.82s-1.11.55-1.35.82c-.25.32-.9.97-1.5.97z" fill="#fff"/><path d="M7.02 4.6l-.83-.72-.16-.1-.26.3-.18 1.18.15 1.15.15.03.52-.91.7-.74-.1-.18z" fill="#CC4D00"/><path d="M9.62 11.66c0 .25-.2.45-.43.45-.24 0-.43-.2-.43-.45 0-.26.2-.46.43-.46.23 0 .43.2.43.46z" fill="#FAE13F"/><path d="M11.47 4.6l.82-.72.16-.1.26.3.18 1.18-.15 1.15-.14.03-.53-.91-.7-.74.1-.18z" fill="#CC4D00"/><path fill-rule="evenodd" d="M11.73 3.94c-.3.2-.64.46-.85.65l-.05.04-.06-.03a3.18 3.18 0 00-3.1 0l-.06.04-.06-.06a3.77 3.77 0 00-1-.77.86.86 0 00-.27-.08l-.1.01h-.01l.49.37c.21.18.42.4.52.6l.03.08-.05.05c-.3.28-.73.8-1.06 1.46a3.87 3.87 0 00-.46 2.22c.13.95.9 1.47 1.72 1.75a6.3 6.3 0 003.75.02c.82-.27 1.57-.78 1.66-1.77A4.14 4.14 0 0012.2 6a4.68 4.68 0 00-.91-1.08l-.1-.06.06-.1a4.52 4.52 0 011.01-1.05 1.95 1.95 0 00-.52.23zm.73-.1c-.19.09-.4.27-.59.47-.16.17-.3.35-.4.49.08.06.18.17.3.3a4.9 4.9 0 01.88 1.37c.16-.48.18-1.05.12-1.56a3.78 3.78 0 00-.31-1.07zm.3 2.9c.25-.56.28-1.26.2-1.86a4 4 0 00-.31-1.11.7.7 0 00-.15-.2c-.11-.1-.27-.08-.4-.04-.14.05-.3.13-.47.23-.3.18-.61.43-.83.62a3.39 3.39 0 00-3.17 0 3.83 3.83 0 00-1-.76c-.13-.06-.24-.1-.33-.1-.1 0-.17 0-.23.04-.22.14-.36.36-.45.63-.1.26-.13.57-.13.88-.01.6.1 1.23.2 1.66a3.8 3.8 0 00-.24 1.82c.1.83.64 1.35 1.27 1.68v.37c-.14.16-.31.48-.32.92a1.51 1.51 0 01-.87-1.15c0-.07-.05-.11-.1-.13a.13.13 0 00-.15.06c-.17.3-.33.75-.27 1.24.06.47.31.96.92 1.35 0 .06 0 .12.02.19.15.82.5 1.09.7 1.12l.38.01h.39c.24.25.55.3.7.29.09 0 .22 0 .35-.06a.5.5 0 00.23-.19h1.05c.03.05.06.1.13.15.09.06.23.1.44.1.18 0 .4-.07.64-.28v.02h.65c.3-.01.84-.28.9-1.15.04-.43-.05-.72-.18-.9a.66.66 0 00-.34-.26l.03-.12v-.01c.02-.15.02-.38-.02-.62a1.24 1.24 0 00-.3-.64v-.26c.64-.32 1.19-.85 1.27-1.74a4.2 4.2 0 00-.22-1.8zm-5.84 3.83v-.25l.38.15c.57.2 1.15.27 1.54.3v.35c-.77-.01-1.57-.36-1.92-.55zm2.22.71a.4.4 0 00-.31.4c0 .22.17.4.38.4.2 0 .37-.18.37-.4a.4.4 0 00-.31-.4h-.13zm.58.05a5.63 5.63 0 001.9-.57c.1.13.15.3.18.46.04.21.04.42.03.55a5.35 5.35 0 01-.82 2.09c-.27.35-.53.43-.7.43-.19 0-.28-.04-.32-.07a.254.254 0 01-.08-.1v-.05l-.02-.12a12.02 12.02 0 01-.01-1.3c0-.05-.05-.1-.1-.1a.1.1 0 00-.1.1 41.25 41.25 0 00.02 1.39h-.94c.02-.16.03-.4.02-.66l-.02-.73a.1.1 0 00-.1-.1c-.06 0-.1.05-.1.11a19.37 19.37 0 010 1.39c-.01.1-.07.15-.17.2a.93.93 0 01-.27.04H8.1a.74.74 0 01-.57-.25 7.54 7.54 0 01-.93-2.27c-.07-.5.1-.84.24-1 .36.2 1.1.5 1.85.55-.07.1-.1.23-.1.36 0 .36.27.65.6.65.34 0 .62-.3.62-.65a.67.67 0 00-.1-.35zm-.31-.26v-.28a5.77 5.77 0 01-.37 0v.27a.58.58 0 01.37 0zm2.09-.7l-.32.13c-.6.2-1.2.26-1.57.28v.33c.32.01.7-.07 1.07-.19.33-.1.63-.24.82-.33v-.21zM5.82 6.42a5.54 5.54 0 011.15-1.67 2.17 2.17 0 00-.44-.46c-.18-.16-.38-.3-.52-.4-.09.1-.16.23-.2.38-.09.23-.12.52-.13.82 0 .46.06.94.14 1.33zm1.31 7.36l.13.23a18.05 18.05 0 01-.58 0c-.08-.02-.4-.18-.54-.96a.86.86 0 01.35-.89 7.68 7.68 0 00.64 1.62zm-.71-1.97l.02.14a1.1 1.1 0 00-.32.3c-.08.12-.15.25-.17.41-.5-.35-.7-.76-.74-1.14a1.8 1.8 0 01.16-.93c.1.38.38.88 1.04 1.18l.01.04zm5.19 2.23h-.48l.03-.04c.28-.35.55-.93.79-1.86.06.02.15.08.22.18.1.14.18.37.15.76-.06.75-.51.95-.71.96zM7.88 7.1c-.03-.2-.2-.56-.56-.52-.37.04-.49.36-.5.52-.02.17.04.5.5.44.56-.07.56-.32.56-.44zm2.7 0c.03-.2.2-.56.56-.52.37.04.48.36.5.52.02.17-.05.5-.5.44-.57-.07-.57-.32-.57-.44zM9.9 8.7c.16-.07.31-.23.43-.51a.1.1 0 00-.05-.14.1.1 0 00-.13.05c-.14.35-.31.43-.44.43-.15 0-.3-.1-.38-.2l-.03-.04h-.02c.17-.06.55-.2.55-.5 0-.48-.38-.48-.59-.49h-.01c-.2 0-.66.08-.63.5.02.3.35.4.55.48l.04.01h-.03l-.03.02c-.28.23-.47.23-.6.16a.63.63 0 01-.27-.36.1.1 0 00-.13-.07.1.1 0 00-.06.14c.05.16.17.37.38.48l.1.04c.03.34.18.87.66.87.48 0 .65-.53.69-.87z" fill="#311F1B"/><path d="M9.57 9.07c-.26-.15-.6-.06-.73 0 .04.1.18.28.37.28.18 0 .32-.19.36-.28z" fill="#F98B7C"/></svg>