<!-- by TradingView --><svg width="18" height="18" viewBox="0 0 18 18" xmlns="http://www.w3.org/2000/svg"><path fill="#143D41" d="M0 0h18v18H0z"/><path fill-rule="evenodd" d="M5.77 9.37V5.38c0-.2.17-.38.38-.38h.65c.2 0 .38.17.38.38v3.34H6.7V5.47h-.46v3.9h-.48Zm1.76 1.41V5h.9c.3 0 .55.25.55.55V7.7c0 .18-.2.3-.31.33.21.03.3.23.3.33v2.42h-.5v-2.5H8v2.5h-.47Zm.5-5.34h.45V7.8h-.45V5.44ZM4 10.78V5h.91c.3 0 .54.25.54.55V7.7c0 .18-.2.3-.31.33.21.03.3.23.31.33v2.42h-.51v-2.5h-.46v2.5H4Zm.5-5.34h.45V7.8H4.5V5.44Zm5-.44v5.78h.5v-2.5h.47v2.5H11V8.36c-.02-.1-.1-.3-.32-.33.1-.03.32-.15.32-.33V5.55c0-.3-.25-.55-.56-.55H9.5Zm.98.44h-.46V7.8h.46V5.44Zm1.24 3.93V5.38c0-.2.17-.38.38-.38h.65c.2 0 .38.17.38.38v5.7h-.47V8.81h-.46v.56h-.48Zm.48-1.04h.46V5.47h-.46v2.86ZM14 5h-.52v5.97H14V5Z" fill="url(#a2abvpabx)"/><path d="M9 13.98a10.08 10.08 0 0 1-2.18-1.42c-.43-.5-1.17-1.37-1.24-1.53-.08-.17-.23-1.21.06-1.66.15-.23.3-.8.44-1.37.15-.56.3-1.12.42-1.29A3.06 3.06 0 0 1 8.82 5.6h.36c1.23 0 2.05.78 2.32 1.11.13.17.27.73.42 1.3.14.56.3 1.13.44 1.36.3.45.14 1.49.06 1.66-.07.16-.81 1.03-1.24 1.53l-.08.1c-.21.24-1.83 1.47-2.1 1.33Z" fill="url(#b2abvpabx)"/><path d="M8 13.1a10.32 10.32 0 0 1-1.5-2.18 8.52 8.52 0 0 1-.05-.63c0-.17-.04-1.1 0-1.22.05-.12.96-.52 1.16-.56.2-.04 3.12.04 3.42.1.3.06.16.4.33.87.16.47-.6 2.25-.63 2.34-.03.08-.74 1.28-.83 1.34-.09.05-.47.54-.89.54-.42 0-.53-.26-1-.6Z" fill="url(#c2abvpabx)"/><path d="m6.5 10.82-.29-.65c-.04.2 0 .6.03.65.03.06.19.12.22.1.03 0 .04-.07.04-.1Z" fill="#493E38"/><path d="M8.76 9.57c0-.44-.31-.49-.34-.52l-.19.34c.01.04.04.17.1.33.08.2.04.72.14 1.02.08.25.22-.05.29-.23v-.94Z" fill="url(#d2abvpabx)"/><path d="M7.12 9.43c-.12.07-.25.23-.3.3.18-.14.58-.26.65-.3.07-.04.07-.1.04-.11a.85.85 0 0 0-.39.11Z" fill="#F9F1EE"/><path d="M7.37 9.56c-.02-.08.21-.24.23-.26.13-.02.4.08.55.16.15.08.19.37.2.54.02.18-.16.28-.24.32-.08.03-.21-.02-.32-.1-.11-.07-.2-.39-.27-.5-.07-.1-.13-.08-.15-.16Z" fill="url(#e2abvpabx)"/><path d="M8.02 9.93c.11-.12-.06-.27-.16-.34-.32-.12-.5.2-.4.19.09-.02.24-.05.32.08.08.13.1.2.24.07Z" fill="#2690A0"/><path d="M7.58 10.56c-.52-.01-.69-.48-.7-.7a.88.88 0 0 1 .72-.4c.4 0 .53.23.62.3.07.06 0 .1-.04.13-.05-.12-.23-.36-.6-.36a.69.69 0 0 0-.64.37c.05.3.3.57.68.57.3 0 .6-.3.7-.45V9.9c-.04-.3-.22-.59-.72-.59-.4 0-.74.28-.85.41a1 1 0 0 1 .85-.47c.89 0 .79.75.79.76 0 .02-.17.57-.81.55Z" fill="#111"/><path d="M7 10.45a.68.68 0 0 1-.15-.49c.05.18.26.61.71.61.36 0 .6-.13.68-.2-.13.14-.44.3-.6.3-.16 0-.46-.04-.64-.22Z" fill="#D9D2CC"/><path d="M9.03 12.1v.27c-.05-.01-.2-.04-.4-.04-.24 0-.38.11-.53.09-.15-.02-.07-.18-.04-.2.03-.03.3-.05.35-.04.05.02.28-.16.39-.18.09-.02.19.06.23.1Z" fill="#5E5A57"/><path d="M8.65 12.2c.17-.04.32.03.38.06v.1a9 9 0 0 0-.52-.05.69.69 0 0 0-.34.07c-.08.05-.1.02-.12 0 .04-.13.26-.15.31-.12.06.04.08-.03.3-.07Z"/><path d="M9.02 12.86v-.3c-.33 0-.53.4-.43.37l.43-.07Z" fill="#322D27"/><path d="M9 9.29c-.1 0-.13-.1-.14-.16 0-.04.02-.13.13-.13.12 0 .15.1.15.14 0 .08-.05.15-.15.15Z" fill="#989F7E"/><path d="m8.6 7.62.36-.25.38.25v.36l-.38.2-.36-.2v-.36Z" fill="#A48D87"/><path d="M5.9 10.57a2.3 2.3 0 0 1-.12-.5h.3l.08.32h-.27v.18Z" fill="#335852"/><path d="M6.2 10.64h-.21v-.24h.2v.24Z" fill="#FBFFFF"/><path d="M6.19 10.68h-.2c0 .06.07.24.1.32h.42l-.1-.25h-.15l-.07-.07Z" fill="#367177"/><path d="m6.5 10.82-.29-.65c-.04.2 0 .6.03.65.03.06.19.12.22.1.03 0 .04-.07.04-.1Z" fill="#493E38"/><path d="M6.47 8.17c-.04.1-.06.31-.06.4.02.24.11.7.32.63.27-.1 1.74-.1 1.84-.1.08 0 .33-.87.45-1.3V5.78h-.1a3.93 3.93 0 0 0-1.8.5c-.46.36-.55 1.3-.55 1.45 0 .15-.05.3-.1.44Z" fill="#F1F0EC"/><path d="M6.4 9.3a3.5 3.5 0 0 0 0-.88c.06.22.2.66.23.69.05.03.29.54.26.6-.02.06-.09.84.67.84.75 0 .64-.6.8-.49.16.1.2.8.15.9-.06.1-.5.54-.55.75-.07.22.09.5.06.64s.24.01.6.2c.35.2.01.43-.15.43s-.3-.07-.45-.12c-.15-.04-.98-1.59-1.17-1.7-.19-.1-.63-.58-.63-.93 0-.36.11-.66.18-.92Z" fill="#C5B3A9"/><path d="M6.95 11.13c-.34-.13-.4-.43-.5-.52-.13 0 .28 1.08.64 1.6.3.43.82.84 1.05 1 .14-.1.44-.29.5-.36.06-.09.04-.21.07-.3.03-.08-.22-.17-.36-.17-.15 0-.03.2.03.34s-.3.04-.46 0c-.16-.04-.45-1.14-.54-1.35-.08-.21-.08-.11-.43-.24Z" fill="#AE7973"/><path d="M8.76 9.57c0-.44-.31-.49-.34-.52l-.19.34c.01.04.04.17.1.33.08.2.04.72.14 1.02.08.25.22-.05.29-.23v-.94Z" fill="url(#f2abvpabx)"/><path d="M6.68 9.14c-.3.18.07.39.15.43.15-.05.44-.29.8-.29.38 0 .49.19.53.18.05 0 .33-.27.34-.32 0-.06-.27-.24-.79-.24s-.72.05-1.03.24Z" fill="url(#g2abvpabx)"/><path d="M7.12 9.43c-.12.07-.25.23-.3.3.18-.14.58-.26.65-.3.07-.04.07-.1.04-.11a.85.85 0 0 0-.39.11Z" fill="#F9F1EE"/><path d="M7.48 10.94c.36-.07.7-.37.84-.5-.27.1-.62.2-.87.18-.25-.02-.42.4.03.32Z" fill="url(#h2abvpabx)"/><ellipse cx="7.63" cy="9.9" rx=".37" ry=".38" fill="#44908E"/><path d="M8.02 9.93c.11-.12-.06-.27-.16-.34-.32-.12-.5.2-.4.19.09-.02.24-.05.32.08.08.13.1.2.24.07Z" fill="#2690A0"/><ellipse cx="7.63" cy="9.9" rx=".16" ry=".17" fill="#0B1731"/><path d="M7.58 10.56c-.52-.01-.69-.48-.7-.7a.88.88 0 0 1 .72-.4c.4 0 .53.23.62.3.07.06 0 .1-.04.13-.05-.12-.23-.36-.6-.36a.69.69 0 0 0-.64.37c.05.3.3.57.68.57.3 0 .6-.3.7-.45V9.9c-.04-.3-.22-.59-.72-.59-.4 0-.74.28-.85.41a1 1 0 0 1 .85-.47c.89 0 .79.75.79.76 0 .02-.17.57-.81.55Z" fill="#111"/><path d="M7 10.45a.68.68 0 0 1-.15-.49c.05.18.26.61.71.61.36 0 .6-.13.68-.2-.13.14-.44.3-.6.3-.16 0-.46-.04-.64-.22Z" fill="#D9D2CC"/><path d="M8.63 11.12c-.09.03-.13.17-.14.23.14.17.4.26.51.28v-.36c-.08-.06-.28-.17-.37-.15Z" fill="#705655"/><path d="M8.68 11.26c-.07-.03-.13.09-.14.15.06.08.22.14.3.16-.03-.1-.09-.28-.16-.31Z" fill="#1E0F0A"/><path d="M9.03 12.1v.27c-.05-.01-.2-.04-.4-.04-.24 0-.38.11-.53.09-.15-.02-.07-.18-.04-.2.03-.03.3-.05.35-.04.05.02.28-.16.39-.18.09-.02.19.06.23.1Z" fill="#5E5A57"/><path d="M8.65 12.2c.17-.04.32.03.38.06v.1a9 9 0 0 0-.52-.05.69.69 0 0 0-.34.07c-.08.05-.1.02-.12 0 .04-.13.26-.15.31-.12.06.04.08-.03.3-.07Z"/><path d="M9.02 12.86v-.3c-.33 0-.53.4-.43.37l.43-.07Z" fill="#322D27"/><path d="m6.53 8.01-.15-.16c-.13.33-.13.84-.12 1.05l.27-.89Z" fill="#003638"/><path d="m6.59 7.9-.3-.39c.12-.32.46-1.02.83-1.29.5-.35 1.47-.56 1.9-.62v1h-.07V6c0-.12-.11-.13-.17-.12-.86 0-1.5.33-1.66.47-.16.15-.37.6-.42.73-.04.1-.1.59-.11.82Z" fill="url(#i2abvpabx)"/><path d="M8.57 8.77c-.12-.01-.4.15-.47.15.27.04.53.28.63.4l.05-.49c0-.09-.09-.05-.21-.06Z" fill="#959394"/><path d="M6.18 9.6h-.34c-.05.13-.07.32-.08.4h.32c0-.11.07-.32.1-.4Z" fill="#FFFDFF"/><path d="M6.2 10.64h-.21v-.24h.2v.24Z" fill="#FBFFFF"/><path d="M6.19 10.68h-.2c0 .06.07.24.1.32h.42l-.1-.25h-.15l-.07-.07Z" fill="#367177"/><path d="m11.5 10.82.29-.65c.04.2 0 .6-.03.65-.03.06-.19.12-.22.1-.03 0-.04-.07-.04-.1Z" fill="#493E38"/><path d="M11.53 8.17c.04.1.06.31.06.4-.02.24-.11.7-.32.63-.27-.1-1.74-.1-1.84-.1-.08 0-.33-.87-.45-1.3V5.78h.1c.63-.04 1.46.32 1.8.5.46.36.55 1.3.55 1.45 0 .15.05.3.1.44Z" fill="#F1F0EC"/><path d="M11.6 9.3a3.5 3.5 0 0 1 0-.88c-.06.22-.2.66-.23.69-.05.03-.29.54-.26.6.02.06.09.84-.67.84-.75 0-.64-.6-.8-.49-.16.1-.2.8-.15.9.06.1.5.54.55.75.07.22-.09.5-.06.64s-.24.01-.6.2c-.35.2-.01.43.15.43s.3-.07.45-.12c.15-.04.98-1.59 1.17-1.7.19-.1.63-.58.63-.93 0-.36-.11-.66-.18-.92Z" fill="#C5B3A9"/><path d="M11.05 11.13c.34-.13.4-.43.5-.52.13 0-.28 1.08-.64 1.6-.3.43-.82.84-1.05 1a3.3 3.3 0 0 1-.5-.36c-.06-.09-.04-.21-.07-.3-.03-.08.22-.17.36-.17.15 0 .03.2-.03.34s.3.04.46 0c.16-.04.45-1.14.54-1.35.08-.21.08-.11.43-.24Z" fill="#AE7973"/><path d="M9.24 9.57c0-.44.31-.49.34-.52l.19.34c-.01.04-.04.17-.1.33-.08.2-.04.72-.14 1.02-.08.25-.22-.05-.29-.23v-.94Z" fill="url(#j2abvpabx)"/><path d="M11.32 9.14c.3.18-.07.39-.15.43-.15-.05-.44-.29-.8-.29-.38 0-.49.19-.53.18a1.2 1.2 0 0 1-.34-.32c0-.06.27-.24.79-.24s.72.05 1.03.24Z" fill="url(#k2abvpabx)"/><path d="M10.88 9.43c.12.07.25.23.3.3-.18-.14-.57-.26-.65-.3-.07-.04-.07-.1-.04-.11.03 0 .24.02.39.11Z" fill="#F9F1EE"/><path d="M10.52 10.94a1.77 1.77 0 0 1-.84-.5c.27.1.62.2.87.18.25-.02.43.4-.03.32Z" fill="url(#l2abvpabx)"/><path d="M10.63 9.56c.02-.08-.21-.24-.23-.26-.13-.02-.4.08-.55.16-.15.08-.19.37-.2.54-.02.18.16.28.24.32.08.03.21-.02.32-.1.11-.07.2-.39.27-.5.07-.1.13-.08.15-.16Z" fill="url(#m2abvpabx)"/><ellipse cx=".37" cy=".38" rx=".37" ry=".38" transform="matrix(-1 0 0 1 10.74 9.52)" fill="#44908E"/><path d="M9.98 9.93c-.11-.12.06-.27.16-.34.32-.12.5.2.4.19-.09-.02-.24-.05-.32.08-.08.13-.1.2-.24.07Z" fill="#2690A0"/><ellipse cx=".16" cy=".17" rx=".16" ry=".17" transform="matrix(-1 0 0 1 10.53 9.74)" fill="#0B1731"/><path d="M10.42 10.56c.52-.01.69-.48.7-.7a.88.88 0 0 0-.72-.4c-.4 0-.53.23-.62.3-.07.06 0 .1.04.13.05-.12.23-.36.6-.36.38 0 .58.25.64.37-.05.3-.3.57-.68.57-.3 0-.6-.3-.7-.45V9.9c.04-.3.22-.59.72-.59.4 0 .74.28.85.41a1 1 0 0 0-.85-.47c-.89 0-.79.75-.79.76 0 .02.17.57.81.55Z" fill="#111"/><path d="M11 10.45a.68.68 0 0 0 .15-.49c-.05.18-.26.61-.71.61-.36 0-.6-.13-.68-.2.13.14.44.3.6.3.16 0 .46-.04.64-.22Z" fill="#D9D2CC"/><path d="M9.37 11.12c.1.03.13.17.14.23-.14.17-.4.26-.51.28v-.36c.08-.06.28-.17.37-.15Z" fill="#705655"/><path d="M9.32 11.26c.07-.03.13.09.14.15-.06.08-.22.14-.3.16.03-.1.09-.28.16-.31Z" fill="#1E0F0A"/><path d="M8.97 12.1v.27c.05-.01.2-.04.4-.04.24 0 .38.11.53.09.15-.02.07-.18.04-.2-.03-.03-.29-.05-.35-.04-.05.02-.28-.16-.39-.18-.09-.02-.19.06-.23.1Z" fill="#5E5A57"/><path d="M9.35 12.2a.59.59 0 0 0-.38.06v.1a9 9 0 0 1 .52-.05c.13 0 .25.02.34.07.08.05.1.02.12 0-.04-.13-.26-.15-.31-.12-.06.04-.08-.03-.3-.07Z"/><path d="M8.98 12.86v-.3c.33 0 .53.4.43.37a3.52 3.52 0 0 0-.43-.07Z" fill="#322D27"/><path d="M9 9.29c.1 0 .13-.1.14-.16C9.14 9.09 9.12 9 9 9c-.12 0-.15.1-.15.14 0 .08.05.15.15.15Z" fill="#989F7E"/><path d="m9.32 7.62-.36-.25-.39.25v.36l.39.2.36-.2v-.36Z" fill="#A48D87"/><path d="m11.47 8.01.15-.16c.13.33.13.84.12 1.05l-.27-.89Z" fill="#003638"/><path d="m11.41 7.9.3-.39a3.55 3.55 0 0 0-.83-1.29 5.25 5.25 0 0 0-1.9-.62v1h.07V6c0-.12.11-.13.17-.12.86 0 1.5.33 1.66.47.15.15.37.6.42.73.04.1.1.59.11.82Z" fill="url(#n2abvpabx)"/><path d="M10.82 8.32c.18.1.37.5.45.69a4.3 4.3 0 0 0-1.53-.09c.28-.24.9-.7 1.08-.6Z" fill="#F8F7F5"/><path d="M9.43 8.77c.12-.01.4.15.47.15-.27.04-.53.28-.63.4a8.65 8.65 0 0 1-.05-.49c0-.09.09-.05.21-.06Z" fill="#959394"/><path d="M11.82 9.6h.34c.05.13.07.32.08.4h-.32c0-.11-.07-.32-.1-.4Z" fill="#FFFDFF"/><path d="M12.1 10.57c.08-.18.12-.41.12-.5h-.3l-.08.32h.27v.18Z" fill="#335852"/><path d="M11.8 10.64h.21v-.24h-.2v.24Z" fill="#FBFFFF"/><path d="M11.81 10.68h.2c0 .06-.07.24-.1.32h-.42l.1-.25h.15l.07-.07Z" fill="#367177"/><path d="M8.78 11.07c0 .14.14.18.22.19.2 0 .27-.09.27-.13V9.35h-.5v1.72Z" fill="url(#o2abvpabx)"/><defs><linearGradient id="a2abvpabx" x1="9" y1="5" x2="9" y2="11.08" gradientUnits="userSpaceOnUse"><stop stop-color="#FCFFFF"/><stop offset=".7" stop-color="#FCFFFF" stop-opacity="0"/></linearGradient><linearGradient id="b2abvpabx" x1="9.51" y1="12.08" x2="9.5" y2="6.05" gradientUnits="userSpaceOnUse"><stop stop-color="#36BFCB"/><stop offset="1" stop-color="#36BFCB" stop-opacity="0"/></linearGradient><linearGradient id="c2abvpabx" x1="8.91" y1="8.5" x2="8.91" y2="13.7" gradientUnits="userSpaceOnUse"><stop offset=".08" stop-color="#4C413F"/><stop offset=".85" stop-color="#DFDCD7"/><stop offset=".96" stop-color="#9A938F"/></linearGradient><linearGradient id="e2abvpabx" x1="8.35" y1="9.87" x2="7.64" y2="10.19" gradientUnits="userSpaceOnUse"><stop stop-color="#373938"/><stop offset="1" stop-color="#373938" stop-opacity="0"/></linearGradient><linearGradient id="f2abvpabx" x1="8.5" y1="9.05" x2="8.5" y2="10.84" gradientUnits="userSpaceOnUse"><stop stop-color="#6D5B57"/><stop offset=".86" stop-color="#6D5B57" stop-opacity="0"/></linearGradient><linearGradient id="g2abvpabx" x1="7.53" y1="8.9" x2="6.61" y2="9.52" gradientUnits="userSpaceOnUse"><stop offset=".55" stop-color="#473C3A"/><stop offset="1" stop-color="#473C3A" stop-opacity="0"/></linearGradient><linearGradient id="h2abvpabx" x1="7.89" y1="10.63" x2="7.24" y2="10.75" gradientUnits="userSpaceOnUse"><stop stop-color="#7C716D"/><stop offset="1" stop-color="#7C716D" stop-opacity="0"/></linearGradient><linearGradient id="i2abvpabx" x1="6.48" y1="7.55" x2="7.09" y2="6.73" gradientUnits="userSpaceOnUse"><stop stop-color="#195F69"/><stop offset="1" stop-color="#76C7CA"/></linearGradient><linearGradient id="j2abvpabx" x1="9.51" y1="9.05" x2="9.51" y2="10.84" gradientUnits="userSpaceOnUse"><stop stop-color="#6D5B57"/><stop offset=".86" stop-color="#6D5B57" stop-opacity="0"/></linearGradient><linearGradient id="k2abvpabx" x1="10.47" y1="8.9" x2="11.39" y2="9.52" gradientUnits="userSpaceOnUse"><stop offset=".55" stop-color="#473C3A"/><stop offset="1" stop-color="#473C3A" stop-opacity="0"/></linearGradient><linearGradient id="l2abvpabx" x1="10.12" y1="10.63" x2="10.76" y2="10.75" gradientUnits="userSpaceOnUse"><stop stop-color="#7C716D"/><stop offset="1" stop-color="#7C716D" stop-opacity="0"/></linearGradient><linearGradient id="m2abvpabx" x1="9.65" y1="9.87" x2="10.36" y2="10.19" gradientUnits="userSpaceOnUse"><stop stop-color="#373938"/><stop offset="1" stop-color="#373938" stop-opacity="0"/></linearGradient><linearGradient id="n2abvpabx" x1="11.52" y1="7.55" x2="10.91" y2="6.73" gradientUnits="userSpaceOnUse"><stop stop-color="#195F69"/><stop offset="1" stop-color="#76C7CA"/></linearGradient><linearGradient id="o2abvpabx" x1="8.97" y1="11.21" x2="8.97" y2="9.46" gradientUnits="userSpaceOnUse"><stop stop-color="#F1F0EC"/><stop offset="1" stop-color="#F1F0EC" stop-opacity="0"/></linearGradient></defs></svg>