<!-- by TradingView --><svg width="18" height="18" viewBox="0 0 18 18" xmlns="http://www.w3.org/2000/svg"><path fill="#181B1E" d="M0 0h18v18H0z"/><path d="M13.76 5.14c.08-.14.25-.18.38-.1.68.5.86 1.2.86 1.8v.64c0 .7-.42 1.3-1 1.47v-.4c.38-.16.67-.6.67-1.07v-.65c0-.46-.18-1.08-.65-1.47l-.51 1.01-.23-.32.48-.91Z" fill="url(#a)"/><path d="m3.33 10.7.22-.03c.01.2.1.33.24.33.2 0 .25-.14.25-.17l.21.07c-.03.18-.17.43-.46.43-.23 0-.43-.26-.46-.63Z" fill="#4D4D4D"/><path d="M6.86 5.33h4.28c1.37 0 2.49.98 2.49 2.19v2.96c0 1.2-1.12 2.19-2.5 2.19H6.87c-1.37 0-2.49-.98-2.49-2.19V9H4v1.46C4 11.86 5.3 13 6.9 13h4.2c1.6 0 2.9-1.14 2.9-2.54V7.54C14 6.14 12.7 5 11.1 5H6.9c-.94 0-1.78.4-2.3 1h.47a2.66 2.66 0 0 1 1.8-.67Z" fill="#fff"/><path d="M8.84 9H8a1 1 0 0 0 2 0h-.58c-.02.24-.14.42-.3.42-.14 0-.26-.18-.28-.42ZM11.78 9H11c.03.56.47 1 1 1s.97-.44 1-1h-.6c-.05.14-.17.24-.3.24-.15 0-.27-.1-.32-.24ZM11 12v-1h.51c.1 0 .18.01.24.03.07.03.12.06.15.1a.2.2 0 0 1 .05.13c0 .04-.01.07-.03.1a.23.23 0 0 1-.09.07.43.43 0 0 1-.12.04v.01c.05 0 .1.01.14.03.04.02.08.05.1.09a.2.2 0 0 1 .05.13c0 .05-.02.1-.05.14a.33.33 0 0 1-.15.1.78.78 0 0 1-.26.03H11Zm.24-.15h.26c.1 0 .16-.01.2-.04.03-.02.05-.06.05-.1a.12.12 0 0 0-.03-.08.2.2 0 0 0-.08-.05.36.36 0 0 0-.13-.02h-.27v.29Zm0-.42h.24l.12-.02a.19.19 0 0 0 .08-.05.1.1 0 0 0 .02-.08c0-.04-.01-.07-.05-.1a.28.28 0 0 0-.16-.03h-.25v.28Z" fill="#fff"/><path d="m3.5 10 .5.5-.5.5-.5-.5.5-.5Z" fill="url(#b)"/><path fill="url(#c)" d="M6 13h1v1H6z"/><path fill="url(#d)" d="M8 13h1v1H8z"/><path fill="url(#e)" d="M10 13h1v1h-1z"/><path d="M3.86 5.05c.13-.1.3-.05.38.09l.5.86h1.3c.53 0 .96.49.96 1.08v.84C7 8.52 6.57 9 6.04 9h-1.7C3.6 9 3 8.32 3 7.48v-.65c0-.6.18-1.3.86-1.78Zm.12.31c-.47.39-.67 1-.67 1.46v.73c0 .6.43 1.09.96 1.09h1.85c.31 0 .57-.3.57-.65V7c0-.36-.26-.65-.57-.65H4.54l-.56-1Z" fill="url(#f)"/><defs><linearGradient id="a" x1="15" y1="6.83" x2="10.04" y2="6.83" gradientUnits="userSpaceOnUse"><stop stop-color="#FD9B30"/><stop offset="1" stop-color="#8C4DF4"/></linearGradient><linearGradient id="b" x1="4" y1="10.5" x2="3" y2="10.5" gradientUnits="userSpaceOnUse"><stop stop-color="#FD9B30"/><stop offset="1" stop-color="#8C4DF4"/></linearGradient><linearGradient id="c" x1="7" y1="13.5" x2="6" y2="13.5" gradientUnits="userSpaceOnUse"><stop stop-color="#FD9B30"/><stop offset="1" stop-color="#8C4DF4"/></linearGradient><linearGradient id="d" x1="9" y1="13.5" x2="8" y2="13.5" gradientUnits="userSpaceOnUse"><stop stop-color="#FD9B30"/><stop offset="1" stop-color="#8C4DF4"/></linearGradient><linearGradient id="e" x1="11" y1="13.5" x2="10" y2="13.5" gradientUnits="userSpaceOnUse"><stop stop-color="#FD9B30"/><stop offset="1" stop-color="#8C4DF4"/></linearGradient><linearGradient id="f" x1="7" y1="7" x2="3" y2="7" gradientUnits="userSpaceOnUse"><stop stop-color="#FD9B30"/><stop offset="1" stop-color="#8C4DF4"/></linearGradient></defs></svg>