<!-- by TradingView --><svg width="18" height="18" viewBox="0 0 18 18" xmlns="http://www.w3.org/2000/svg"><path fill="url(#a)" d="M0 0h18v18H0z"/><path d="M8.4 5.71C9.5 6.8 11.7 8.96 11.7 9c0 .04 1.52-1.49 2.3-2.28L11.26 4 8.4 5.71Z" fill="url(#b)"/><path d="M8.4 12.29C9.5 11.2 11.7 9.04 11.7 9c0-.04 1.52 1.49 2.3 2.28L11.26 14 8.4 12.29Z" fill="url(#c)"/><path d="M5 14V7.64L11.32 14H5Z" fill="url(#d)"/><path d="M5 4v6.36L11.32 4H5Z" fill="url(#e)"/><defs><linearGradient id="a" x1="9" y1="0" x2="9" y2="18" gradientUnits="userSpaceOnUse"><stop offset=".41" stop-color="#000201"/><stop offset="1" stop-color="#00A287"/></linearGradient><linearGradient id="b" x1="9.75" y1="5.49" x2="12.33" y2="8.09" gradientUnits="userSpaceOnUse"><stop stop-color="#C7C8CA"/><stop offset=".22" stop-color="#D2D3D5"/><stop offset=".48" stop-color="#ECEDEF"/><stop offset="1" stop-color="#EDECF0"/></linearGradient><linearGradient id="c" x1="9.75" y1="12.51" x2="12.33" y2="9.91" gradientUnits="userSpaceOnUse"><stop stop-color="#C7C8CA"/><stop offset=".22" stop-color="#D2D3D5"/><stop offset=".48" stop-color="#ECEDEF"/><stop offset="1" stop-color="#EDECF0"/></linearGradient><linearGradient id="d" x1="8.16" y1="14" x2="8.16" y2="7.64" gradientUnits="userSpaceOnUse"><stop stop-color="#DADEE1"/><stop offset=".07" stop-color="#F2F4F3"/><stop offset=".17" stop-color="#D5D6D8"/><stop offset="1" stop-color="#C9CACC"/></linearGradient><linearGradient id="e" x1="8.16" y1="4" x2="8.16" y2="10.36" gradientUnits="userSpaceOnUse"><stop stop-color="#DEDFE1"/><stop offset=".17" stop-color="#FDFDFD"/><stop offset="1" stop-color="#DDDEE0"/></linearGradient></defs></svg>