<!-- by TradingView --><svg width="18" height="18" viewBox="0 0 18 18" xmlns="http://www.w3.org/2000/svg"><path fill="#000A16" d="M0 0h18v18H0z"/><path d="M9.36 3c1.4.1 2.6.6 3.6 1.5A5.95 5.95 0 0 1 15 8.63a.47.47 0 0 1-.11.1.28.28 0 0 1-.14.02c-.06 0-.1.02-.15.04a5.58 5.58 0 0 0-9.15-4.12 5.55 5.55 0 0 0-1.6 6.55l-.36.15a6.46 6.46 0 0 1-.49-2v-.73A5.99 5.99 0 0 1 8.64 3h.72Z" fill="#987DFF"/><path d="M14.03 9a4.98 4.98 0 0 1-3.1 4.65 4.98 4.98 0 0 1-5.49-1.1 4.98 4.98 0 0 1-1.09-5.48A4.98 4.98 0 0 1 9 3.97a4.98 4.98 0 0 1 4.65 3.1c.25.62.38 1.26.38 1.93Z" fill="#987DFF"/><path d="M13.91 9a4.87 4.87 0 0 1-3.03 4.54 4.87 4.87 0 0 1-5.36-1.07 4.87 4.87 0 0 1-1.06-5.35A4.87 4.87 0 0 1 9 4.08a4.87 4.87 0 0 1 4.54 3.04c.25.6.37 1.23.37 1.88Z" fill="#000A16"/><path d="m9.54 6.97-.5.3a.1.1 0 0 1-.07 0l-.52-.3.53-.9c.01-.02.02-.02.03 0l.53.9Z" fill="#0B76FF"/><path d="M10.49 7.5H9.45a.26.26 0 0 1-.14-.03l-.27-.16c-.02-.01-.02-.03 0-.05l.5-.3.92-.52h.02V7.5Z" fill="#FF51FF"/><path d="m8.45 6.97.52.3c0 .02 0 .03-.03.04a116.36 116.36 0 0 1-1.42.81V6.47c0-.03 0-.03.02-.02l.91.52Z" fill="#25C0FF"/><path d="M9.04 7.26c-.02.02-.02.04 0 .05.1.05.19.1.27.16.04.02.09.04.14.04h1.04v1.44l-.47-.22a.25.25 0 0 0-.08-.05 2.78 2.78 0 0 0-.19-.08v-.85l-.01-.03H9.7l-.87.5a.06.06 0 0 1-.05.03h-.5c-.02 0-.03.01-.03.03l.02.26-.74.43a.03.03 0 0 0-.01.02l.01.03.72.43c-.03.26-.03.52 0 .77 0 .02.01.03.03.04h.04l.06-.04a.9.9 0 0 0 .34-.24c.02.03.05.02.1 0a.7.7 0 0 0 .14-.12l.73.4h.04s.02-.01.02-.03v-.81l.73-.37.02.77a.18.18 0 0 0-.02.06 1.5 1.5 0 0 0-.34.17c-.04.03-.1.11-.17.23-.15.26-.3.5-.43.75L9 10.72l-1.48-.84-.04-.04.02-.41a.1.1 0 0 0-.01-.06l-.53-.91.52-.3.02-.01.02-.03h.04a116.36 116.36 0 0 0 1.48-.86Z" fill="#FFC1FF"/><path d="m7.51 7.5.01.62-.02.03-.02.01-.52.3-.52-.91v-.03l.02-.02h1.05ZM11.04 8.45a1.2 1.2 0 0 1-.27-.15.5.5 0 0 0-.28-.1v-.7h1.06c.02 0 .03.01.02.03l-.53.92Z" fill="#00E3C2"/><path d="M9.75 8.6c0 .05 0 .1-.02.13a.88.88 0 0 0-.51-.47.73.73 0 0 0-.23-.02l-.16-.01.87-.51h.04l.02.03v.85ZM11.04 8.45l.9.53c.01 0 .02 0 .02.02l-.01.01-.9.53-.46.26a.14.14 0 0 1-.09.02l-.02-.77v-.84c.11 0 .2.03.29.09l.27.15Z" fill="#25C0FF"/><path d="M8.78 8.25a1.6 1.6 0 0 0-.39.25.2.2 0 0 0-.12.04l-.02-.26c0-.02.01-.03.03-.03h.5ZM7.48 9.84l-.53-.28-.9-.53L6.04 9l.01-.02.91-.52.53.91a.1.1 0 0 1 .01.06l-.02.4Z" fill="#FF51FF"/><path d="m8.4 8.5-.12.23a.33.33 0 0 0-.04.13v.03c0 .2 0 .32.06.4.05.06.09.15.13.24l-.18-.08-.72-.43a.03.03 0 0 1-.01-.03l.01-.02.74-.43a.2.2 0 0 1 .12-.04Z" fill="#25C0FF"/><path d="M15 8.63v.74a5.97 5.97 0 0 1-2.02 4.12c-1 .9-2.21 1.4-3.61 1.51h-.73a6.07 6.07 0 0 1-5.15-3.63l.36-.15a5.64 5.64 0 0 0 7.63 2.8A5.61 5.61 0 0 0 14.6 8.8l.15-.04c.06 0 .1 0 .14-.02a.47.47 0 0 0 .1-.1H15Z" fill="#737FFF"/><path d="M10.48 8.95v.1l-.73.37a.52.52 0 0 0 0-.2l.27-.49.46.22Z" fill="#FFE4FF"/><path d="M9.74 9.21c.02.06.02.13 0 .21v.81l-.01.04h-.04l-.73-.41-.13-.1h.32a.98.98 0 0 0 .4-.23.18.18 0 0 0 .04-.04l.15-.28Z" fill="#25C0FF"/><path d="m8.25 9.45.18.08.03.04.26.41a.9.9 0 0 1-.34.24l-.06.04h-.04a.04.04 0 0 1-.03-.04 3.19 3.19 0 0 1 0-.77Z" fill="#FFE4FF"/><path d="m11.04 9.54.52.9v.02l-.02.02h-1.06v-.6c0-.02 0-.04.02-.06.03 0 .06 0 .09-.02.15-.1.3-.18.45-.26ZM7.48 9.84l.04.04-.03.6H6.46l-.02-.01v-.03l.5-.88.54.28Z" fill="#0B76FF"/><path d="m8.83 9.77.13.09a.7.7 0 0 1-.14.11c-.05.03-.08.04-.1.01l-.26-.41.37.2Z" fill="#FF51FF"/><path d="m9 10.72-.54.3-.93.55c-.02 0-.03 0-.03-.02l-.01-1.07.03-.6 1.48.84Z" fill="#25C0FF"/><path d="M10.48 9.88V11.54c0 .02-.01.02-.03.01l-.92-.52a70.8 70.8 0 0 1 .61-.98c.05-.04.16-.1.34-.17Z" fill="#FF51FF"/><path d="m9 10.72.54.3a52.45 52.45 0 0 1-.53.9h-.03l-.52-.9.54-.3Z" fill="#00E3C2"/></svg>