<!-- by TradingView --><svg width="18" height="18" viewBox="0 0 18 18" xmlns="http://www.w3.org/2000/svg"><path fill="#181B1E" d="M0 0h18v18H0z"/><path d="M4.46 6.7 4 6.91l1.71 2.23 1.27-.5-.03-.5.41-.52-.02-.37-.54.04L6.8 7l-.73.05-.05-.87.55-.04 1.48-.7.06 1-.48.22.1 1.6-.44.23.09 1.57-.5.22.1 1.63-.47.22.04.66-1.47.63.31.06 4.5-.32.72-1.18 2.1-.14.42-.54-.1-1.74.75-.55-.02-.43-1.03.07-.02-.33.35-.24-.01-.24-.7-.33.67-.24.6-.85-.03-.57.42-.45-.02-.39-.6.04-.03-.58-1.53.11L11.8 4l-3.65.26-3.26 1.4.03.42-.47.21.02.4Z" fill="url(#a5t5vie2m)"/><path fill-rule="evenodd" d="m10.08 4.7.04.59-.53.03.04.6-.44.03.15 2.48-.44.03.02.46 1.01-.07-.04-.6.5-.03-.03-.6.42-.02-.1-1.76-.53.04-.03-.6 1.55-.1.03.59.53-.04.1 1.78-.41.03.03.57-.52.04.03.6-.48.03.03.59 1.05-.08.18 3-.48.03.04.66-1.55.1.03.55L5.1 14l-.04-.6 1.51-.1-.07-1.19.48-.03-.1-1.82.5-.04-.1-1.73.44-.03-.11-1.8.48-.04-.07-1.19-1.51.11.03.6-1.57.1.1 1.8.58-.03.06 1.14-1 .07-.04-.62-.57.04L4 6.91l.46-.03-.03-.6.5-.03-.04-.6 1.58-.1-.04-.6 3.65-.26ZM8.96 9.5l.98-.07.18 3-.48.03.04.61-1 .07-.18-2.85.5-.03-.04-.76Z" fill="url(#b5t5vie2m)"/><defs><linearGradient id="a5t5vie2m" x1="6.1" y1="4.33" x2="11.14" y2="14.3" gradientUnits="userSpaceOnUse"><stop stop-color="#B9BAFB"/><stop offset=".4" stop-color="#2827FE"/><stop offset=".72" stop-color="#8383FD"/><stop offset="1" stop-color="#0F0FEB"/></linearGradient><linearGradient id="b5t5vie2m" x1="6" y1="5.42" x2="8.97" y2="13.61" gradientUnits="userSpaceOnUse"><stop stop-color="#9A9FFB"/><stop offset=".15" stop-color="#0809B3"/><stop offset=".31" stop-color="#5556FC"/><stop offset=".47" stop-color="#090ABA"/><stop offset=".63" stop-color="#2F30FB"/><stop offset=".86" stop-color="#6462FF"/></linearGradient></defs></svg>