<!-- by TradingView --><svg width="18" height="18" viewBox="0 0 18 18" xmlns="http://www.w3.org/2000/svg"><path fill="#F0F3FA" d="M0 0h18v18H0z"/><path d="M9 3a6 6 0 1 0 0 12A6 6 0 0 0 9 3Zm0 11.64A5.64 5.64 0 1 1 9 3.36a5.64 5.64 0 0 1 0 11.28Z" fill="#AA8542"/><path d="M9 14A5 5 0 1 0 9 4a5 5 0 0 0 0 10Z" fill="url(#an2f544ao)"/><path d="M8.34 7.36a.44.44 0 0 1-.08-.11c-.08-.18-.03-.37.11-.42.14-.06.3.05.37.23v.03c-.13.01-.23.03-.23.05 0 .03.1.05.26.06 0 .11-.02.2-.1.26h.01c.1-.05.15-.14.17-.26h.07l.08.45.07-.45h.08c.01.12.07.21.16.25h.01c-.07-.05-.1-.14-.1-.25.17-.01.28-.03.28-.06 0-.02-.1-.04-.25-.05l.01-.03c.06-.18.22-.29.37-.23.14.05.19.24.1.42a.43.43 0 0 1-.07.11.75.75 0 0 0 .2-.26c.12-.27.07-.54-.1-.6-.18-.08-.42.08-.54.35a.73.73 0 0 0-.07.24h-.06c.05-.26.1-.54.15-.73.08-.34-.24-.7-.24-.7s-.33.36-.25.7l.15.73h-.05a.73.73 0 0 0-.07-.24c-.12-.27-.36-.43-.54-.36-.18.07-.22.34-.1.6.05.12.12.2.2.27Zm-1.38 3.27 1.36.2c.45.08.9.08 1.35 0l1.37-.2-.02.32-1.35.2c-.45.07-.9.07-1.35 0l-1.34-.2-.02-.32Zm0 .46 1.36.21c.45.07.9.07 1.35 0l1.37-.21-.02.32-1.35.2c-.45.07-.9.07-1.35 0l-1.34-.2-.02-.32Zm4.22-3.24c.29.09.52.31.61.6a.9.9 0 0 1-.1.77l-.65.98-.02.3-1.35.2c-.45.08-.9.08-1.35 0l-1.34-.2-.02-.32-.64-.96a.9.9 0 0 1-.11-.77c.1-.29.32-.51.61-.6h.04l.39.2c.17-.34.48-.58.85-.65l.82.51.08.03.09-.03.8-.51c.38.07.7.31.86.64l.39-.2.04.01ZM6.97 9.97l.04.22.98.15-.8-1.46a.73.73 0 0 1-.03-.63.6.6 0 0 0-.44.3.59.59 0 0 0-.04.48l.16.46c.05.16.1.32.13.48Zm1.06.38.29.04c.18.03.36.05.54.05a7.92 7.92 0 0 1-.1-2.5l-.22-.01a.75.75 0 0 0-.69.33.73.73 0 0 0-.1.58l.15.59c.05.2.08.41.1.62l.03.3Zm1.64.04.3-.04.03-.3c.02-.21.05-.42.1-.62l.15-.59a.73.73 0 0 0-.1-.58.75.75 0 0 0-.69-.33l-.23.01c.05.33.15 1.37-.1 2.5.19 0 .37-.02.54-.05Zm1.49-.9.16-.46a.59.59 0 0 0-.04-.48.6.6 0 0 0-.44-.3c.09.2.08.44-.03.63l-.8 1.46.98-.15.04-.22c.03-.16.08-.32.13-.48Z" fill="#fff"/><defs><linearGradient id="an2f544ao" x1="-2.43" y1="2.9" x2="16.14" y2="16.22" gradientUnits="userSpaceOnUse"><stop offset=".03" stop-color="#fff"/><stop offset=".4" stop-color="#D0AA65"/><stop offset=".56" stop-color="#AA8542"/><stop offset=".74" stop-color="#7D5819"/><stop offset=".85" stop-color="#B3905A"/></linearGradient></defs></svg>