<!-- by TradingView --><svg width="18" height="18" viewBox="0 0 18 18" xmlns="http://www.w3.org/2000/svg"><path fill="#181B1E" d="M0 0h18v18H0z"/><path d="M10.69 8.17c-.32 0-.57-.11-.65-.17-.01.04-.04.15-.04.26 0 .14.32.74 1.56.74 1.25 0 1.47-.65 1.44-.76-.39-.14-1.91-.07-2.31-.07Z" fill="#CF905B"/><path d="M12.54 8.17c.08.17.03.58-.84.82h-.03c1.15-.03 1.36-.65 1.33-.75-.1-.04-.26-.06-.46-.07Z" fill="#FAB071"/><path d="M9.3 14c-1.07 0-2.16-.4-2.53-.58.4-.58.38-1.34.32-1.67l1.08-.93c1.43.32 4.27 1.04 4.22 1.4-.06.34-.36.91-.5 1.15-.42.21-1.53.63-2.6.63Z" fill="#C2C2C2"/><path d="M5.77 12.82a6.32 6.32 0 0 1-1.6-1.81l.15-.53.94-1.07.34-1.12c.13-.44.43-1.51.61-2.31 0-.98 2.21-1.8 3.22-1.8 1 0 1.83.53 2.12.66.3.13.84.76 1 1.02.1.27.14.5.14.58l-.71-.5-1.8.24c-.04.01-1.15.73-1.7 1.09l-1.42 3.21c-.1 1.02-.5 2.91-1.29 2.34Z" fill="#32B2D3"/><path d="M10.47 5.33c1.43 0 2.09.7 2.24 1.08l.03.22C12.57 6.48 12.1 6 11 6c-1.11 0-1 .9-1 1.64 0 .92.45 1.56 1.5 1.56 1 0 .91-.1 1.5-.2 0 1.27-.44 2.58-.59 3.15-.16.44-.88.85-2.47.85-1.6 0-2.52-.65-2.78-1.2-.22-.23-.6-.8-.36-1.13.29-.42.5-1.66.68-2.92.2-1.26 1.2-2.42 2.99-2.42Z" fill="#E7E9E8"/><path d="M5.23 8.93C5.07 9.49 4.3 10.2 4 10.6l.18.4c0-.03.16-.28.89-1.1.9-1.01.57-1.32.95-2.84A3.3 3.3 0 0 1 9.4 4.5c1.79 0 2.63.75 3.25 1.62C11.87 4.2 9.95 4 9.25 4c-4 0-3.7 3.8-4.02 4.93Z" fill="#9FDBE6"/><path d="M6.33 11.25c0 .78-.43 1.37-.56 1.57.32.25.69.45.83.53.08 0 .26-.04.36-.18.11-.17.04-1.09 0-1.66v-.01a3.43 3.43 0 0 0-.56-1.53l-.4-.3c.18.13.33.8.33 1.58Z" fill="#2A92BA"/><path d="M7.18 12.14c0-1.5-.68-2.3-1.18-2.47 1.01.74.9 1.82.9 2.54 0 .58-.2 1-.3 1.14l.24.11c.3-.56.34-.83.34-1.32ZM8.16 6.13a.53.53 0 0 1-.18.04.36.36 0 0 1-.28-.15v.13c.02.07.1.22.3.19l.03-.01A.5.5 0 0 0 8.5 7a.5.5 0 1 0-.1-1h.01l-.02.01a.5.5 0 0 0-.23.12Z"/><path d="M10.33 6.54c-.02.22-.15.19-.26.23-.07.2-.07.4-.07.5.04.54.36.67.43.67h1.02c1.12 0 1.4.3 1.55.4C13 6.3 11.91 6 11.35 6c-.56 0-.98.27-1.02.54Z" fill="#FAB071"/></svg>