<!-- by TradingView --><svg width="18" height="18" viewBox="0 0 18 18" xmlns="http://www.w3.org/2000/svg"><path fill="url(#au3u30l3v)" d="M0 0h18v18H0z"/><path d="m10.47 4.56-.01.02-.23.25-.03.01h-.03l-1.1-.43a.13.13 0 0 0-.1 0 19.17 19.17 0 0 1-2.95.98l-.2 1.1c0 .01 0 .02.02.02h.77c.03 0 .04.02.04.04v.01c-.03.22-.12.42-.27.6a.08.08 0 0 1-.05.03l-.69.11.45-.4c.03-.02.02-.03-.01-.03h-.71c-.02 0-.03 0-.03-.03l.33-1.73a18.7 18.7 0 0 0 3.38-1.1l1.42.55Z" fill="#75BC6E"/><path d="m11.27 4.41.59.05c-.02 0-.01 0 .02.02-.13.03-.14.03-.04.02-.29 0-.48-.04-.57-.09Z" fill="#fff"/><path d="m11.88 4.48.03.01-.02.04c-.01.02 0 .03.02.03.12 0 .23.02.33.07h.06l.2-.07.35.04c.03 0 .03.02.01.03-.23.19-.5.36-.8.53l-.48.23c-.02.01-.04 0-.05-.01-.02-.06 0-.15.03-.27l.18-.14v-.02h-.01l-1.52.4.26-.34c.02.06.1.05.23-.04l-.03-.02v-.02c.09-.05.1-.11.05-.2.03-.06.09-.1.17-.12l-.03.28c0 .02 0 .03.03.02l.4-.17c.17-.05.35-.13.55-.24-.1.01-.09 0 .04-.02Z" fill="#75BC6E"/><path d="m10.95 4.57-.02.02c-.03 0-.05.01-.04.02a.25.25 0 0 0-.17.12l-.25.28-.26.35a1.5 1.5 0 0 1 .7-.83h.02v.01h.02v.03Z" fill="#fff"/><path d="M10.95 4.57c.15-.03.25.03.3.17h-.11l-.05-.01-.16-.14.02-.02Z" fill="#75BC6E"/><path d="m10.48 5.95.26-.25.82-.59c-.04.12-.05.2-.03.26.01.03.03.03.05.02l.48-.23c.28-.05.52-.16.73-.35h.04l.01.02v.02a2.3 2.3 0 0 1-.75.9c-.15.11-.44-.04-.58-.11h-.02c0 .04.02.06.04.07.1.05.19.12.27.2.02.01.02.02-.01.02l-1.31.02Z" fill="#1F5C3F"/><path d="M10.18 5.5c.04-.01.05-.04.03-.06l1.14-.33.02.01-.01.02c-.07.04-.13.09-.2.11-.33.1-.65.18-.98.26Z" fill="#75BC6E"/><path d="m9.27 5.83 1.61-.42c.03-.01.04 0 .02.02a.47.47 0 0 1-.25.16 27.51 27.51 0 0 1-1.46.34.03.03 0 0 1 0-.03l.04-.04a.09.09 0 0 1 .04-.03Z" fill="#1F5C3F"/><path d="M10.21 5.44c.02.02.01.05-.03.07l-.92.25-.02-.01-.01-.03v-.01a19.32 19.32 0 0 1 .98-.27Z" fill="#fff"/><path d="M12.97 5.5a.9.9 0 0 0 .24.18c.07.04.1.09.15.13l.01.04v.03l-.04.02h-.03l-.63-.22c-.02-.09.02-.16.1-.23a.05.05 0 0 1 .05 0l.15.06Z" fill="#183835"/><path d="m10.74 5.7-.26.25-.33.26a.96.96 0 0 0-.33.37l-.1.1c-.05.04-.04.05 0 .03l.4-.2h.01a.01.01 0 0 1 .01 0l.03.23s0 .02-.02.02l-1.13.79-.05-.21c0-.02-.01-.02-.03-.01l-.5.29c.13-.15.3-.28.5-.38.02-.01.02-.02.02-.04V7.2h-.01l-.49.3c-.02.01-.03 0-.03-.02 0-.04 0-.08.04-.12l.47-.27a.06.06 0 0 0 .03-.05L9 6.9c-.27.01-.5.04-.67.07-.04.01-.07 0-.09-.02l.89-.57h.03c.04.03.09.03.15 0 .2-.1.33-.21.4-.35 0-.02.02-.03.03-.04.09-.04.13-.08.14-.14l.86-.15Zm-1.35.73h-.04a.23.23 0 0 0-.11.04.16.16 0 0 0-.03.02l-.01.02v.02h.04a.23.23 0 0 0 .11-.04l.03-.02v-.04Z" fill="#75BC6E"/><path d="m7.7 6.21-.31-.35a.05.05 0 0 0-.05-.02.3.3 0 0 0-.13.06c-.04-.02-.05-.06-.02-.12a.1.1 0 0 1 .04-.04.11.11 0 0 1 .1 0 .1.1 0 0 1 .04.03l.33.44Z" fill="#fff"/><path d="m12.5 5.76.2 1.08c0 .02 0 .03-.03.03h-.5l-.02-.34c0-.01 0-.02.03-.02h.02c.02 0 .03-.01.03-.03a.53.53 0 0 1 .04-.41v-.13a.67.67 0 0 1 .22-.18ZM7.7 6.21c.09.08.15.16.19.26l-.35.2-.18-.68c-.01-.02-.02-.03-.05-.02-.08 0-.11-.02-.1-.07a.3.3 0 0 1 .13-.06c.02 0 .03 0 .05.02l.31.35Z" fill="#75BC6E"/><path d="M9.88 5.85c0 .06-.05.1-.14.14a.08.08 0 0 0-.03.04.82.82 0 0 1-.4.35c-.06.03-.11.03-.15 0h-.03l-.89.57c-.03.03-.08.05-.16.04l.02-.01c0-.01 0-.02.02-.03l1.76-1.1Z" fill="#fff"/><path d="M7.25 6.05h-.02c-.02 0-.03.02-.03.04l.14.63c0 .02.03.03.05.03h.03c.02 0 .03-.03.03-.05l-.15-.63c0-.02-.02-.03-.05-.02Z" fill="#75BC6E"/><path d="M9.82 6.58c.09-.16.2-.28.33-.37l.32-.16h.05a8.44 8.44 0 0 0 1.38.08.03.03 0 0 1 0 .03l-.12.17a.1.1 0 0 1-.07.04l-.09.01h-.01v.03l.1.02.01.01v.02l-.02.01-.56-.02a.04.04 0 0 0-.03.01v.34c0 .03-.02.05-.05.06h-.04c-.03.01-.04 0-.04-.02l-.02-.4-.03-.01-.76-.05-.05.01-.3.2Z" fill="#1F5C3F"/><path d="m10.24 6.44.6.05h.03l.01.03.03.3v.02l-.01.01-.02.01h-.01l-.57-.07h-.02l-.02-.02-.06-.3v-.01l.01-.01a.04.04 0 0 1 .03-.01Z" fill="#183835"/><path d="m7.89 6.47.05.07-.35.18c-.03-.01-.05-.03-.05-.06l.35-.19Z" fill="#1F5C3F"/><path d="m11.68 6.88-.45-.06h-.03v-.27a.03.03 0 0 1 0-.02h.02l.01-.01.45.01.02.01.02.03V6.87h-.04Z" fill="#183835"/><path d="M7.94 6.54a.2.2 0 0 1 .08.1l-.43.2c-.03-.07-.03-.1 0-.12l.35-.18Z" fill="#75BC6E"/><path d="m8.02 6.64.1.11v.02a.03.03 0 0 1 0 .03H8.1l-.42.24c-.02 0-.03 0-.04-.02a.4.4 0 0 1-.05-.19l.43-.2Z" fill="#1F5C3F"/><path d="M7.48 6.88a.1.1 0 0 1-.07.04c-.03-.03-.04-.05-.04-.07l.01-.04.04-.02h.04l.03.03v.06Z" fill="#75BC6E"/><path d="m8.92 8.18-.33.17h-.02v-.02l1.65-1.48h.02l.61.07v.01l-1.12.93c-.16.13-.32.24-.47.33a9.42 9.42 0 0 1-.54.25l.22-.24v-.02h-.02ZM9.78 8.23l-.55.22h-.01a.01.01 0 0 1 0-.02l1.96-1.54h.03l.44.07v.01l-1.4 1.13c-.1.1-.3.2-.6.34-.05.02-.06.01-.02-.02l.17-.17v-.01h-.01Z" fill="#183835"/><path d="m9 6.9-.03.13c0 .02-.01.04-.03.05l-.47.27c-.03-.04 0-.09.08-.13L9 6.9Z" fill="#1F5C3F"/><path d="m11 7.79-.26.1h-.02v-.02l1.1-.85h.02l.13.35v.03a4.72 4.72 0 0 1-.3.29h.02a2.72 2.72 0 0 1 .47-.24l.37.31v.02l-.83.32c-.4.15-.86.16-1.28.21-.02 0-.02 0 0-.01l.6-.5-.01-.01H11Z" fill="#183835"/><path d="M8.47 7.15c-.03 0-.05.02-.04.03h-.28v-.04l.05-.04.39-.06c.04 0 .04 0 0 .03l-.12.08ZM7.95 7.2a.86.86 0 0 1-.46.03l.5-.1c.03 0 .03.01.03.03a.07.07 0 0 1-.07.05Z" fill="#fff"/><path d="M7.5 7.23c.11.03.26.02.45-.02-.04.07-.07.1-.11.11a497.54 497.54 0 0 1-2.24.37.35.35 0 0 1 .11-.1l.63-.1c.03-.01.06-.04.07-.08l1.08-.18Z" fill="#75BC6E"/><path d="m9.02 7.55-.48.33c-.03.02-.04.02-.05-.01l-.06-.25.51-.3c.02 0 .03 0 .03.02l.05.2ZM8.25 7.5l-.55.4v.02h.02l.48-.28.02.02-.28.18v.03l.3-.14c.06.07.07.15.05.24 0 .02-.02.03-.03.04l-.9.66h-.02l-.23-.06-.01-.01v-.01l.33-.32v-.01l-.53.2a.75.75 0 0 1-.28.05c-.5 0-.85-.02-1.05-.04-.52-.05-1.28-.15-2.29-.31l4.57-.75.38-.06c.02 0 .03 0 .03.03v.13Z" fill="#1F5C3F"/><path d="M6.4 7.4c0 .05-.03.08-.06.08-.13.04-.33.07-.63.12.1-.14.53-.16.7-.2Z" fill="#fff"/><path d="M8.25 7.5c.02.09 0 .13-.05.14l-.48.28H7.7v-.01l.55-.4ZM13.1 7.53l.4.05c.02 0 .03.02.03.04l-.01.18-.43-.27Z" fill="#75BC6E"/><path d="m5.42 7.65-.86.13c-.08.02-.12 0-.12-.04l1.07-.17c.02 0 .03 0 .02.03-.03.03-.06.05-.1.05Z" fill="#fff"/><path d="M5.42 7.65c.02.03.02.06-.01.08a543.32 543.32 0 0 0-2.26.37l-.12.02c-.04 0-.04 0 0-.03l.15-.12c.18.02.32-.02.44-.1l.23-.05.45-.08h.14c0 .04.04.06.12.04.28-.05.57-.1.86-.13ZM8.22 7.66c.01-.01.02 0 .03.01.01.02 0 .04-.01.06l-.3.14v-.03l.28-.18ZM4.64 8.62l.4.06.03.03.23.8.16.46c0 .02 0 .03-.03.03H5.3l-.04.03-.13.15a7.97 7.97 0 0 1-.48-1.56Z" fill="#75BC6E"/><path d="M8.26 10.53c-.27.05-.55.06-.83.03l.48-1.48c0-.02.02-.03.04-.03h.32l-.13.41c-.01.03 0 .04.03.04h.07l.04-.01.02-.03.14-.45a6.75 6.75 0 0 0-.6 0c-.02 0-.03-.01-.05-.03l.16-.23.02-.02h.78l.05.04.03.05a.1.1 0 0 1 0 .06l-.25.75-.03.01h-.03c-.02 0-.03.01-.02.03l.02.05v.05a3.7 3.7 0 0 1-.26.76Zm-.1-.7v-.05a.07.07 0 0 0-.04-.03h-.05a.06.06 0 0 0-.03.04l-.16.45v.05l.05.03h.05l.03-.03.15-.47Z" fill="#fff"/><path d="M13.35 8.9c-.18.62-.37 1.22-.67 1.82h-.4c-.02 0-.03-.02-.02-.04l.04-.09c.28-.52.48-1.08.62-1.68 0-.02.02-.03.04-.03l.39.01Z" fill="#75BC6E"/><path d="M9.16 10.57h-.77l.5-1.54.02-.01h.37l.02.01-.4 1.2c0 .02 0 .03.03.03h.32c.02 0 .02 0 .02.02l-.11.29ZM10.3 10.57H9.9l.06-.24c0-.02 0-.02-.02-.02h-.17c-.02 0-.03 0-.04.02l-.09.25-.4-.01.75-1.53c0-.02.03-.03.05-.03h.45c.02 0 .03.01.03.03l-.24 1.53Zm-.18-1.1-.25.57h.14l.12-.56ZM11 9.01h.55c.02 0 .03.02.02.04l-.09.27c-.16-.04-.28-.04-.37.02l-.09.29c0 .02 0 .03.02.03.16 0 .4-.03.32.2a8.6 8.6 0 0 1-.23.7h-.74l.1-.28c0-.01.01-.02.03-.02h.3c.02 0 .04-.01.04-.03l.08-.25v-.02l-.01-.01h-.3a.29.29 0 0 1-.04-.16l.22-.68c.02-.05.09-.08.2-.1ZM11.8 9.31h-.2v-.02l.08-.26.01-.01H12.52l.01.01v.01l-.08.25-.01.01h-.22l-.02.01v.01l-.4 1.24h-.02l-.01.01h-.34v-.02l.4-1.21v-.01l-.01-.01h-.01l-.01-.01ZM6.9 10.03l-.12.36c0 .02-.02.02-.04.03h-.03l-1.01.01-.61-.01.24-.35a.06.06 0 0 1 .05-.02l1.52-.02ZM5.73 10.5l-.18.55c0 .02 0 .03.03.03h.33c.02 0 .02 0 .02.02l-.12.36a.72.72 0 0 0-.4 0l-.33 1.03-.46.02.64-2.01h.47Z" fill="#fff"/><path d="M8.26 10.53a1 1 0 0 1-.15.1c-.13.07-.48.03-.64.04 0-.06-.02-.1-.04-.1.28.02.56 0 .83-.04ZM11.13 10.56a.41.41 0 0 1-.16.1h-.6c-.01 0-.02 0-.01-.02l.03-.07.74-.01Z" fill="#1F5C3F"/><path d="m5.84 10.78.12.2c0 .03 0 .04-.03.04h-.2c-.02 0-.03-.02-.02-.03l.06-.22c.03-.02.05-.02.07.01Z" fill="#75BC6E"/><path d="m6.6 12.5-.42.01.21-.66c.02-.05.01-.07-.01-.07l-.08-.01c-.03 0-.06.03-.07.07l-.21.65-.44.02.57-1.72.01-.02h.78a.2.2 0 0 1 .08.01l.06.05c.02.02.03.04.03.07v.07l-.23.68c0 .01 0 .02-.02.02H6.8l-.01.01a.02.02 0 0 0 0 .02l.04.06v.04l-.23.7Zm.01-1.42c0-.02-.05-.02-.12-.02l-.14.41c-.01.02 0 .03.02.03h.12l.03-.01.02-.03.11-.34a.03.03 0 0 0 0-.02c-.01-.02-.02-.02-.04-.02ZM7.73 12.44a.09.09 0 0 0-.05.03.06.06 0 0 1-.04.02h-.78c-.06-.07-.08-.14-.06-.2l.45-1.38a.2.2 0 0 1 .09-.1.25.25 0 0 1 .13-.04h.63l.07.01.06.04c.02.02.03.04.03.07v.06l-.48 1.44a.1.1 0 0 1-.05.05Zm.06-1.34v-.01h-.17v.01l-.37 1.1a.02.02 0 0 0 .02.01l.15-.01h.01v-.01l.36-1.09ZM8.84 12.52h-.32l-.03-.6v-.02h-.03l-.21.63a.82.82 0 0 0-.35-.01l-.03-.03.56-1.7.02-.02h.32c.01 0 .02 0 .02.02l.02.55v.01h.02l.18-.57.02-.01h.39v.01l-.58 1.74ZM10.38 11.1a.6.6 0 0 0-.28.01l-.46 1.41h-.42l.47-1.39c0-.02 0-.03-.03-.03h-.25l.11-.3c0-.02.02-.03.05-.03h.88c.02 0 .03 0 .03.03l-.1.3ZM10.47 12.46v.04l-.45.01.57-1.73.02-.01h.4l.01.01-.55 1.68ZM11.81 11.12a.43.43 0 0 0-.36 0l-.1.3c0 .03 0 .04.03.04h.27c.02 0 .03 0 .03.03l-.1.31c-.17-.06-.29-.06-.37.02l-.1.32c0 .02 0 .03.03.03h.3c.02 0 .03 0 .02.02l-.11.3-.76.02h-.01l.56-1.72.04-.02h.7c.03 0 .04 0 .03.03l-.1.32ZM12.5 12.5h-.4l.2-.68a.03.03 0 0 0-.01-.03h-.03l-.08-.02c-.03 0-.04.01-.05.03l-.24.7-.42.01.57-1.72c0-.02.02-.02.04-.02h.74a.2.2 0 0 1 .08.01l.07.05.03.07v.08l-.22.66-.04.02h-.03c-.02 0-.03.02-.02.03.07.16-.14.63-.2.82Zm-.07-1.4c0-.02-.01-.03-.04-.03h-.02v.02l-.14.4v.02l.17-.02h.01l.14-.39v-.01l-.01-.01-.02-.01h-.01l-.06.03h-.02ZM13.91 11.1a.7.7 0 0 0-.43.03l-.1.33c0 .01 0 .02.03.02h.23a.1.1 0 0 1 .07.03c.06.05.08.12.05.22-.07.25-.16.5-.25.74-.06.01-.1.03-.17.03-.21-.01-.44 0-.69.02l.12-.32.02-.02.04-.01h.33c.02 0 .04-.01.04-.03l.1-.34a.74.74 0 0 1-.41-.05c.08-.38.17-.67.26-.88.04-.07.11-.1.23-.1h.6c.02 0 .02.01.02.03l-.09.3Z" fill="#fff"/><path d="M5.81 11.46a.57.57 0 0 1-.4 0c.1-.03.24-.04.4 0ZM11.59 11.8a.65.65 0 0 1-.38.02c.08-.08.2-.08.38-.02Z" fill="#75BC6E"/><path d="M12.86 11.9c.1.04.13.09.27.06.02 0 .03 0 .02.03l-.03.1-.01.01-.03.01h-.29c-.02 0-.02 0-.02-.02l.05-.17c0-.01.02-.02.04-.01Z" fill="#fff"/><path d="m11.55 11.97-.04.11c0 .02-.02.03-.04.03h-.16c-.03 0-.03-.01-.02-.03a.28.28 0 0 1 .23-.15c.02 0 .03.01.03.04ZM7.72 12.44l.01.05-.26.08c-.25.02-.46 0-.61-.07h.78c.02 0 .03-.02.04-.03a.09.09 0 0 1 .04-.03ZM13.51 12.47c-.01.06-.1.1-.25.1a2.3 2.3 0 0 1-.6-.05c.24-.02.47-.03.68-.02.06 0 .11-.02.17-.03ZM5.58 12.51l.44-.02v.03c0 .02-.02.03-.03.03-.22.04-.35.03-.41-.04ZM6.18 12.51l.42-.01v.02c0 .02 0 .03-.02.03-.18.03-.31.02-.4-.04Z" fill="#75BC6E"/><path d="M10.46 12.5c.01.02 0 .04-.02.05a.63.63 0 0 1-.41-.01l-.01-.03.44-.01Z" fill="#1F5C3F"/><path d="M11.47 12.51h.42v.02l-.04.02c-.18.03-.3.02-.38-.04ZM12.5 12.5c-.07.07-.19.08-.37.07-.02 0-.04-.02-.04-.04v-.02h.4Z" fill="#75BC6E"/><path d="M9.22 12.52h.42c-.11.08-.25.08-.42 0Z" fill="#1F5C3F"/><path d="M10.6 12.5h.75c0 .04-.02.06-.07.06-.25 0-.46 0-.64.03-.03 0-.05-.04-.05-.08Z" fill="#75BC6E"/><path d="M7.9 12.52a.82.82 0 0 1 .35.01.4.4 0 0 1-.34.04c-.03-.01-.03-.03-.01-.05Z" fill="#1F5C3F"/><path d="M6.76 12.65c.31 0 .55.02.71.09.47.38.97.66 1.49.85.08.04.15.02.19-.04a5.29 5.29 0 0 0 1.54-.88h.54A6.03 6.03 0 0 1 9 14a6.4 6.4 0 0 1-2.23-1.35Z" fill="#75BC6E"/><defs><linearGradient id="au3u30l3v" x1="3.35" y1="3.12" x2="21.9" y2="24.43" gradientUnits="userSpaceOnUse"><stop stop-color="#1A1E21"/><stop offset="1" stop-color="#06060A"/></linearGradient></defs></svg>