<!-- by TradingView --><svg width="18" height="18" viewBox="0 0 18 18" xmlns="http://www.w3.org/2000/svg"><path fill="url(#a)" d="M0 0h18v18H0z"/><path d="m10.81 10.52 1.68 1.72a.03.03 0 0 1 0 .03l-1.51 1.55-.18.17-.01.01h-.02L9.1 12.27v-.04c0-.02.02-.04.04-.05l1.64-1.67.02-.01h.02Zm-4.2.27a1.5 1.5 0 0 1 1.48 2.58c-.15.13-.35.22-.57.27-.45.1-.86.02-1.22-.23a1.44 1.44 0 0 1-.62-1.07c-.04-.34.03-.65.2-.93.17-.27.41-.48.73-.62Zm.67-4.28 1.7 1.7c.02.03.02.05 0 .07l-1.7 1.7a.05.05 0 0 1-.06 0l-1.7-1.7a.05.05 0 0 1 0-.06l1.7-1.7a.05.05 0 0 1 .06 0Zm3.36.36c.5-.09.92.02 1.28.34s.53.73.5 1.23c-.04.46-.22.81-.55 1.08-.33.25-.72.36-1.17.3a1.5 1.5 0 0 1-.06-2.95ZM7.4 3a1.49 1.49 0 0 1 1.6 1.75c-.08.48-.34.84-.78 1.07-.43.22-.87.24-1.31.05a1.41 1.41 0 0 1-.82-.92c-.14-.43-.1-.83.13-1.21.25-.43.65-.68 1.18-.74Z"/><defs><linearGradient id="a" x1="16.14" y1="2.28" x2="3.87" y2="18" gradientUnits="userSpaceOnUse"><stop stop-color="#D5DDEC"/><stop offset=".34" stop-color="#EAEFF1"/><stop offset=".59" stop-color="#D5DDEC"/></linearGradient></defs></svg>