<!-- by TradingView --><svg width="18" height="18" viewBox="0 0 18 18" xmlns="http://www.w3.org/2000/svg"><path fill="#072887" d="M0 0h18v18H0z"/><path d="M9.72 13c.87 0 1.88.17 2.28.23-.36.22-1.51.77-3.23.77-1.97 0-3.33-.6-3.77-1h4.72ZM8.21 10.57H4C4.56 11.67 6 12 8.3 12c2.29 0 3.7-1.41 3.7-3.38 0-1.58-1.04-2.4-1.62-2.62.28.4.62 1.04.62 1.71 0 2.18-1.84 2.8-2.79 2.86Z" fill="#fff"/><path d="M7.24 5.75C7.1 6.82 4.97 7 4 7c.12-.3 1.4-3 5-3s5 3.1 5 4.75c0 1.31-.15 2.19-.33 2.46L15 13l-4-1c.7-.42 2-1.36 2-3.33 0-2.7-2.52-3.66-4.08-3.67-.27 0-.52.03-.71.1 1.24.74 2.1 1.39 2.26 1.9H9.32C7.83 7 7.3 6.12 7.24 5.75Z" fill="#fff"/></svg>