<!-- by TradingView --><svg width="18" height="18" viewBox="0 0 18 18" xmlns="http://www.w3.org/2000/svg"><path fill="url(#a)" d="M0 0h18v18H0z"/><path fill-rule="evenodd" d="M9.02 4.01 9 4l-.02.01a1704.99 1704.99 0 0 1-4.96 8.39 30793.2 30793.2 0 0 1 9.98-.02A1713.97 1713.97 0 0 1 9.02 4Zm-.04.8-4.24 7.15a.02.02 0 0 0 0 .02l.01.01.01.01h8.48l.01-.02v-.02L9.02 4.82 9 4.8a.02.02 0 0 0-.03 0Z" fill="#FEFEF8"/><path d="m9 5.72.03.01.35.6a94.75 94.75 0 0 0 2.25 3.85h-.04a24.23 24.23 0 0 1-1.64-2.03l-.72-1.01c-.06-.09-.14-.13-.22-.13-.09 0-.16.04-.23.13l-.72 1a24.24 24.24 0 0 1-1.66 2.04h-.02a72.15 72.15 0 0 0 2.25-3.86l.35-.59.03-.01Z" fill="#233F59"/><path d="M9 6.76c.13 0 .23-.09.23-.2 0-.12-.1-.21-.22-.21-.13 0-.23.09-.23.2 0 .12.1.21.23.21ZM6.19 7.7c.09 0 .16-.08.16-.17 0-.08-.07-.15-.16-.15-.1 0-.17.07-.17.15 0 .09.07.16.17.16ZM11.83 7.7c.1 0 .17-.08.17-.17 0-.08-.08-.15-.17-.15-.1 0-.17.07-.17.15 0 .1.08.16.17.16ZM9 7.6h.01a63.46 63.46 0 0 1 1.57 2.4c-.08 0-.14 0-.2-.05a62.69 62.69 0 0 0-1.4-1.19 62 62 0 0 0-1.35 1.2c-.07.05-.13.04-.2.04h-.01v-.01A63.34 63.34 0 0 1 9 7.6Z" fill="#FEFEF8"/><path d="m9 10.28.01.02h1.86l.02.01.3.28v.01H6.83l-.01-.01a.02.02 0 0 1 0-.02l.28-.24.02-.02.03-.01h.88c.05 0 .09-.01.12-.04a22.56 22.56 0 0 1 .84-.7v.72Z" fill="#80ACC4"/><path d="M9.9 11H8.1c-.1 0-.2.08-.2.19 0 .1.1.19.2.19H9.9c.1 0 .18-.09.18-.19 0-.11-.08-.19-.19-.19ZM7.13 11c.29.01.3.38.02.38H5.74a.75.75 0 0 1-.13-.01.03.03 0 0 1-.01-.02v-.01c0-.03.03-.08.08-.16.07-.12.19-.18.35-.18h1.1ZM11.96 11c.16 0 .28.05.35.18a1.19 1.19 0 0 1 .09.17.03.03 0 0 1-.02.02h-1.54c-.27 0-.26-.36.02-.37h1.1Z" fill="#233F59"/><path d="m8.69 12.97.3-.43a.02.02 0 0 1 0-.01.02.02 0 0 1 .02 0l.3.44a.02.02 0 0 1-.01.03h-.61a.02.02 0 0 1 0-.03Z" fill="#FEFEF8"/><defs><linearGradient id="a" x1="3.35" y1="3.12" x2="21.9" y2="24.43" gradientUnits="userSpaceOnUse"><stop stop-color="#1A1E21"/><stop offset="1" stop-color="#06060A"/></linearGradient></defs></svg>