<!-- by TradingView --><svg width="18" height="18" xmlns="http://www.w3.org/2000/svg"><path fill="#062C49" d="M0 0h18v18H0z"/><path d="M7.11 7.342c-.679.136-1.522-.381-.543-1.904s2.765-1.541 3.535-1.36c.998.317 2.774 1.523 1.904 3.808-.435.761-.816.952-.952.952 1.786.476 1.858 2.756.544 3.807-.818.655-2.048.738-2.924-.038-.265.632-.735.99-1.563.99-2.088 0-1.904-2.04-.816-2.04.49 0 .544.68.544 1.088 0 .326.952.544 1.088-.68a21.14 21.14 0 00.034-1.583c-.006-1.66-.012-3.198 1.325-4.536.524-.523.953-.272.68 0-.317.357-.808 1.4-.925 2.968.26-.04.775-.13 1.061-.248 1.43-.593 1.088-3.4-.271-3.808-1.36-.408-2.312.544-2.448.68-.078.078-.148.155-.136.272 0 0 1.088 1.224-.136 1.632zm1.905 2.116v.06c0 .977-.022 1.824-.16 2.49.406.395.939.449 1.247.365 2-.666 1.125-3.815-1.087-2.915z" fill="#fff"/></svg>