<!-- by TradingView --><svg width="18" height="18" viewBox="0 0 18 18" xmlns="http://www.w3.org/2000/svg"><path fill="url(#ahlawkx1s)" d="M0 0h18v18H0z"/><path d="M7 4.2c-.92 1.63-1.56 2.79-1.93 3.47-.02.02-.02.05 0 .07l-.04.03H5V3h.01L7 4.2Z" fill="#00EDF8"/><path d="m7 4.2 1.97 1.18a.1.1 0 0 1 0 .04l-3.9 2.32c-.02-.02-.02-.05 0-.07L7 4.19Z" fill="#00BAF7"/><path d="m8.97 5.38 4 2.4c.02.01.03.02.03.04v.05c-.04 0-.08.04-.11.1h-.06l-2.82 2.82h-.03L9 10.22V5.47l-.01-.04-.03-.01a.1.1 0 0 0 .01-.04Z" fill="#0076FF"/><path d="m8.96 5.42.03.01.01.04v4.74a7781.53 7781.53 0 0 0-3.97-2.4v-.04l.03-.03 3.9-2.32Z" fill="#0063FF"/><path d="M5 7.77h.03v.05l.03.03L9 10.2v1.61l-2 1.99L5 12.6A.03.03 0 0 1 5 12.6V7.77Z" fill="#0080FF"/><path d="M13 7.87a1025.18 1025.18 0 0 1-.01 4.74l-.03.02a.2.2 0 0 0-.07-.08 1545.61 1545.61 0 0 0-1.91-1.13v-.04l1.9-3.41c.04-.06.08-.1.12-.1Z" fill="#0050FE"/><path d="m12.89 7.97-1.9 3.41h-.04a305.93 305.93 0 0 0-.97-.55L9 11.8V10.2l.98.59H10l2.82-2.83h.06Z" fill="#0098FF"/><path d="M10.99 11.38v.04L9.03 14.9h-.02L9 14.88V11.8l.98-.97h.04a297.97 297.97 0 0 1 .97.55Z" fill="#00BAF7"/><path d="M10.98 11.42h.03a1629.85 1629.85 0 0 1 1.88 1.12.2.2 0 0 1 .07.09l-3.92 2.34v-.07l1.94-3.48Z" fill="#0063FF"/><path d="M9 11.8v3.08l.02.02h.02v.07l-.02.02h-.04L7 13.81l2-2.01Z" fill="#0098FF"/><defs><linearGradient id="ahlawkx1s" x1="3.35" y1="3.12" x2="21.9" y2="24.43" gradientUnits="userSpaceOnUse"><stop stop-color="#1A1E21"/><stop offset="1" stop-color="#06060A"/></linearGradient></defs></svg>