<!-- by TradingView --><svg width="18" height="18" viewBox="0 0 18 18" xmlns="http://www.w3.org/2000/svg"><path fill="#F0F3FA" d="M0 0h18v18H0z"/><path d="M8.72 3h.59a5.9 5.9 0 0 1 3.79 1.57c1.05.98 1.68 2 1.9 3.43h-1.44c-.08-.4-.07-.58-.23-.93a4.7 4.7 0 0 0-5.74-2.5 4.72 4.72 0 1 0 3.48 8.77c.34-.16.66-.36.95-.6.77-.62 1.23-1.83 1.54-2.74H15c-.18.89-.84 2.3-1.45 2.97A6.02 6.02 0 0 1 9.23 15h-.48a11.77 11.77 0 0 0-.46-.03 6.2 6.2 0 0 1-3.6-1.8A5.98 5.98 0 0 1 3 9.35V8.7a6.3 6.3 0 0 0 .03-.41A5.99 5.99 0 0 1 8.73 3Z" fill="#0254FE"/><path d="M13.7 8.19a4.6 4.6 0 0 1-.22 2.5 4.64 4.64 0 0 1-3.46 3 4.76 4.76 0 0 1-5.69-5.25 4.59 4.59 0 0 1 .74-1.96 4.8 4.8 0 0 1 3.6-2.12 4.79 4.79 0 0 1 4.66 2.7c.16.36.29.74.36 1.13Z" fill="#5DDEFE"/><path d="M7.59 5.69v.1c-.01.16-.05.3-.12.43A.8.8 0 0 0 7 6.05a.48.48 0 0 0-.42.24.84.84 0 0 0-.12.42c0 .16.04.3.13.42v.04c-.06.08-.1.14-.11.18a.3.3 0 0 0-.01.2c.03.11.13.17.29.17v.09c-.03.13-.08.26-.13.4-.15.4-.2.83-.19 1.28.03.47.15.94.37 1.4a3.04 3.04 0 0 0 .94 1.19c.09.06.16.14.23.23a1.9 1.9 0 0 1-.73-.34c-.52-.39-.86-.89-1.05-1.5a2.4 2.4 0 0 1-.09-.73c0-.24.04-.49.1-.74l.14-.63a3.67 3.67 0 0 0 .08-.52l.17.11v-.02a1.62 1.62 0 0 1-.58-1.08 1.25 1.25 0 0 1 .16-.72A1.14 1.14 0 0 1 7 5.6c.21-.04.4 0 .59.09Z" fill="#027898"/><path d="M7.59 5.69c.13.07.24.16.33.3.08.1.14.24.19.4a1.98 1.98 0 0 1 .04.9l-.18.08.01.02c.17-.05.3-.09.42-.11.5-.1.98-.16 1.46-.19a2 2 0 0 1 .76.1c.24.08.46.22.63.4h-.14c-.14 0-.25.02-.33.04-.11.05-.23.1-.34.13a.2.2 0 0 0-.13.12l-.18.11a21.3 21.3 0 0 1 .42-.13c.19-.07.37-.1.55-.08.2.02.37.09.5.2.1.09.14.19.15.31v.02h-.02l-.09-.06a.18.18 0 0 0-.07-.12c-.1-.07-.19-.12-.3-.15a.78.78 0 0 0-.32-.04c-.2.02-.37.09-.54.2l-.23.14a.7.7 0 0 0-.18.15.56.56 0 0 0-.1.2.48.48 0 0 0-.02.21c.01.08.04.15.09.22.08.12.18.21.29.28a1.54 1.54 0 0 0 1.51.02c.01 0 .02 0 .02.02a.24.24 0 0 1-.1.13.46.46 0 0 1-.14.08c-.2.08-.43.1-.69.1a2.7 2.7 0 0 1-.7-.13h-.02v.01c.26.1.51.16.77.17a1.64 1.64 0 0 0 .77-.14l-.01.2-.01.02-.3.06c-.14.04-.34.05-.58.05a33.1 33.1 0 0 1-2.85-.11h-.38c-.18 0-.32.03-.43.07-.31.1-.39.32-.22.64.24.46.68.77 1.33.93.36.08.72.12 1.1.13a7.64 7.64 0 0 0 1.72-.17 1.54 1.54 0 0 1-.64.65 1.79 1.79 0 0 1-.87.3l-.67.04a2.8 2.8 0 0 1-.9-.1 1.2 1.2 0 0 0-.22-.23l-.15-.13c-.34-.28-.6-.64-.8-1.05a3.8 3.8 0 0 1-.36-1.41c-.02-.45.04-.87.19-1.28a51.69 51.69 0 0 0 .14-.43.16.16 0 0 1-.01-.06c.12-.02.23-.05.35-.1a3.87 3.87 0 0 0 .62-.33 4.38 4.38 0 0 1-.7.32c-.31.1-.49.08-.53-.07a.29.29 0 0 1 .03-.2.6.6 0 0 1 .12-.18c.09-.08.2-.16.35-.24a5.32 5.32 0 0 1 .63-.28c.1-.04.12-.09.08-.15a.9.9 0 0 0-.24-.27 1.04 1.04 0 0 0 .12-.53Z" fill="#01ACDB"/><path d="M11.28 6.05a1.28 1.28 0 0 0-.95.73l-.1.27-.4-.01H9.8v-.02c.1-.33.26-.59.49-.8a1.13 1.13 0 0 1 .47-.24.7.7 0 0 1 .51.07Z" fill="#027898"/><path d="M11.28 6.05c.16.08.27.21.31.4a.74.74 0 0 1-.07.5 2.61 2.61 0 0 1-.16.3.84.84 0 0 0-.08.26l-.01.01h-.01a1.64 1.64 0 0 0-1.03-.47l.1-.27a1.26 1.26 0 0 1 .95-.73Z" fill="#01ACDB"/><path d="M7.47 6.22c.1.07.18.16.24.27.04.06.01.11-.08.15a9.65 9.65 0 0 1-.63.28c-.15.08-.26.16-.35.24a.6.6 0 0 0-.12.18.29.29 0 0 0-.03.2c.04.15.22.18.53.07a4.38 4.38 0 0 0 .7-.32c-.2.14-.4.24-.62.33-.12.05-.23.08-.35.1-.16 0-.26-.06-.3-.17a.3.3 0 0 1 .02-.2 1.06 1.06 0 0 1 .11-.2v-.02a.63.63 0 0 1-.13-.42.82.82 0 0 1 .12-.42.48.48 0 0 1 .42-.24.8.8 0 0 1 .47.17Z"/><path d="M6.6 7.09a.74.74 0 0 1 0-.75c.07-.12.18-.2.32-.23a.6.6 0 0 1 .43.08.87.87 0 0 1 .32.32v.04c0 .02 0 .03-.02.03l-.64.28c-.14.06-.26.14-.36.24-.02.02-.03.01-.05-.01Z" fill="#DF3490"/><path d="M11.25 7.6c.06.05.1.1.13.15.02.03.02.04-.02.03l-.04-.01a.5.5 0 0 0-.1-.04c-.17-.02-.3-.02-.4 0-.14.02-.3.07-.51.15a.2.2 0 0 1 .13-.12l.34-.13a1.02 1.02 0 0 1 .4-.04h.07ZM8.98 7.9a1.73 1.73 0 0 0-1.07-.13c-.1.02-.18.03-.24.02.23-.1.48-.16.75-.15.25 0 .43.1.56.25Z" fill="#027898"/><path d="M8.98 7.9c.11.07.2.14.24.22a.37.37 0 0 1 .08.2v.05l.03.04c.07.07.12.15.15.23.04.1.04.18.02.27a.5.5 0 0 1-.12.2c-.04.04-.1.1-.19.16a.83.83 0 0 0-.1.09c-.15.15-.33.25-.55.31-.2.05-.4.07-.63.04a1.35 1.35 0 0 1-.5-.15.85.85 0 0 1-.22-.17h.03a1.56 1.56 0 0 0 1.76 0c.01-.02.01-.03-.02-.02a1.83 1.83 0 0 1-1.3-.11c-.1-.05-.17-.1-.23-.16-.16-.14-.23-.3-.2-.46a.5.5 0 0 1 .14-.27.82.82 0 0 1 .26-.18 1.54 1.54 0 0 1 .82-.13 1.72 1.72 0 0 1 .8.28l.01-.01a.39.39 0 0 0-.1-.21.75.75 0 0 0-.2-.15c-.2-.11-.44-.17-.73-.17-.11 0-.24.02-.38.04a10.15 10.15 0 0 0-.44.07V7.9l.26-.1.24-.03a1.73 1.73 0 0 1 1.07.12Z"/><path d="m11.64 8.25-.06-.03c-.16-.05-.27-.09-.35-.1-.2-.05-.37-.05-.54-.02a4.6 4.6 0 0 1-.28.04c.17-.11.34-.18.54-.2.11 0 .22 0 .32.04.11.03.2.08.3.15.04.03.06.07.07.12Z" fill="#027898"/><path d="M9.46 8.82c0 .08-.04.16-.1.24a.75.75 0 0 1-.25.2 1.77 1.77 0 0 1-1.54-.1.74.74 0 0 1-.22-.23.42.42 0 0 1-.07-.25c0-.08.04-.16.1-.24a.75.75 0 0 1 .25-.19c.1-.05.22-.1.36-.12a1.77 1.77 0 0 1 1.18.22c.1.06.17.14.22.22.05.08.08.16.07.25ZM12.03 8.9c0 .08-.04.16-.1.24a.74.74 0 0 1-.24.2 1.58 1.58 0 0 1-1.49-.1.74.74 0 0 1-.21-.24.46.46 0 0 1-.06-.26c0-.09.04-.17.1-.25a.74.74 0 0 1 .24-.2c.1-.05.22-.1.35-.12a1.59 1.59 0 0 1 1.13.23c.1.07.17.15.22.23.04.09.06.17.06.26Z" fill="#fff"/><path d="M8.95 8.78c0 .06-.02.12-.05.18a.48.48 0 0 1-.14.15.64.64 0 0 1-.2.1.76.76 0 0 1-.67-.12.48.48 0 0 1-.13-.16.38.38 0 0 1 0-.36l.14-.15a.64.64 0 0 1 .2-.1.76.76 0 0 1 .67.12c.06.04.1.1.13.15.03.06.05.12.05.19ZM11.5 8.7c0 .06 0 .12-.02.17a.44.44 0 0 1-.1.16.64.64 0 0 1-.19.12.8.8 0 0 1-.65 0 .45.45 0 0 1-.15-.11.32.32 0 0 1-.05-.33c.02-.05.06-.1.1-.15.06-.05.12-.1.19-.12a.8.8 0 0 1 .65 0c.06.02.11.06.15.11.04.05.06.1.07.16Z"/><path d="M8.49 8.77c.08 0 .15-.04.16-.1 0-.07-.05-.13-.13-.14-.08 0-.15.04-.16.1 0 .07.05.13.13.14ZM11.18 8.8c.07-.01.13-.07.12-.12-.01-.06-.08-.09-.16-.08-.08.02-.13.08-.12.13 0 .05.08.09.16.07Z" fill="#fff"/><path d="m10.5 11.22.3-.08c.12-.04.23-.09.3-.15a.4.4 0 0 0 .18-.23c.03-.1 0-.2-.09-.32l.32-.01h.01c.07.1.1.2.09.3a.64.64 0 0 1-.23.43c-.11.1-.26.16-.45.21a9.07 9.07 0 0 1-1.7.15 4.02 4.02 0 0 1-1.34-.23c-.49-.19-.82-.48-.97-.87a.4.4 0 0 1-.03-.24.26.26 0 0 1 .15-.18c.11-.05.24-.08.38-.1l.4-.02c.26 0 .54.02.84.04a22.23 22.23 0 0 0 2 .07c.35 0 .61-.02.8-.07.18-.06.32-.05.43.03.06.03.09.08.1.15 0 .08-.06.14-.19.2a.98.98 0 0 1-.28.07c-.16.02-.4.01-.69 0a181.77 181.77 0 0 1-1.68-.15l-1.06-.05a3.14 3.14 0 0 0-.64.06.44.44 0 0 0-.13.08c-.09.07-.1.16-.06.27.07.14.22.27.44.38.16.07.35.14.57.18a6.69 6.69 0 0 0 2.22.08Z" fill="#DF3490"/><path d="M8.76 10.68c-.27-.1-.5-.25-.73-.42-.03-.02-.02-.04.01-.04l.42.01c.59.03 1.2.07 1.83.13.03 0 .05.02.07.04.07.09.09.18.06.28a.33.33 0 0 1-.19.19.7.7 0 0 1-.26.07c-.19 0-.4-.01-.62-.07-.17-.04-.37-.1-.6-.2Z" fill="#DF3490"/><path d="M9.37 10.94a.4.4 0 0 1 .07.02.4.4 0 0 0 .08.01l.06.01.05.01c.17.03.34.01.51-.04a.46.46 0 0 0 .3-.22.27.27 0 0 0 .04-.17.32.32 0 0 0-.08-.16c-.02-.03-.02-.04.01-.03l.71.06c.02 0 .03 0 .03.02.14.2.12.36-.07.5a.9.9 0 0 1-.27.12 3.3 3.3 0 0 1-.8.14 5.95 5.95 0 0 1-2.01-.2c-.16-.05-.3-.11-.45-.2a.6.6 0 0 1-.23-.24c-.07-.12-.02-.22.15-.28l.2-.05a1.53 1.53 0 0 1 .23 0 7.94 7.94 0 0 1 .4.27c.08.05.17.1.25.13a.9.9 0 0 1 .1.04l.09.04a.8.8 0 0 1 .12.05c.02.02.06.03.1.04l.1.04a.3.3 0 0 0 .08.03c.06 0 .12.02.17.05a.2.2 0 0 0 .06 0Z" fill="#810B52"/><path d="M10.92 11.5h-.02l-.28.38v.01h.02l.28-.38Z" fill="#027898"/></svg>