<!-- by TradingView --><svg width="18" height="18" viewBox="0 0 18 18" xmlns="http://www.w3.org/2000/svg"><path fill="url(#a)" d="M0 0h18v18H0z"/><path d="m4.3 7.45.68.4.01.02v.02a4.19 4.19 0 0 0 1.81 4.63c.67.42 1.4.63 2.2.63a4.16 4.16 0 0 0 4.02-5.27v-.02l.7-.4h.03l.01.01.01.02a5.04 5.04 0 0 1-1.88 5.58c-.87.62-1.83.93-2.9.93a4.88 4.88 0 0 1-2.9-.93 5.04 5.04 0 0 1-1.83-5.62h.03Zm3.68-1.91a3.54 3.54 0 0 1 3.55.9 3.7 3.7 0 0 1 1 1.82l-.02.02h-.02l-.37.05h-.02a.04.04 0 0 0-.02.03v.02a3.13 3.13 0 0 1-.48 2.4l.02.02.33.23.01.01v.03a3.65 3.65 0 0 1-3.42 1.5h-.01a.04.04 0 0 1-.01-.04l.05-.38v-.03l-.03-.01A3.16 3.16 0 0 1 5.9 9.44v-.01h.01v-.01l.54-.07.01.01c.17.93.67 1.6 1.5 1.98.42.2.88.27 1.36.21a2.6 2.6 0 0 0 2.24-2.83 2.58 2.58 0 0 0-4.41-1.48l-.08.08H7l-.74-.63v-.04a3.67 3.67 0 0 1 1.72-1.11ZM9 7.44a1.56 1.56 0 1 1 0 3.12 1.56 1.56 0 0 1 0-3.12ZM9.01 4a5 5 0 0 1 4.65 3.25l-.7.4v.01a.04.04 0 0 1-.03 0v-.02a4.28 4.28 0 0 0-1.53-2.02A4 4 0 0 0 9 4.85a4 4 0 0 0-2.39.76 4.28 4.28 0 0 0-1.54 2.03h-.03l-.7-.4V7.2A5 5 0 0 1 9 4Z" fill="#fff"/><defs><linearGradient id="a" x1="3.35" y1="3.12" x2="21.9" y2="24.43" gradientUnits="userSpaceOnUse"><stop stop-color="#1A1E21"/><stop offset="1" stop-color="#06060A"/></linearGradient></defs></svg>