<!-- by TradingView --><svg width="18" height="18" viewBox="0 0 18 18" xmlns="http://www.w3.org/2000/svg"><path fill="url(#aat1bh0nd)" d="M0 0h18v18H0z"/><path d="M4.2 13.7c.12.11.36.09.48.01a.5.5 0 0 0 .42.09c.05-.01.1-.03.14-.06.13.11.33.15.47.04a.33.33 0 0 0 .22.2l.1.02h.34a.09.09 0 0 0 .06-.03.08.08 0 0 0 .03-.05l.01-.26h6.55c.23 0 .46-.02.63-.17l.32-.3a.08.08 0 0 0 .02-.1.08.08 0 0 0-.02-.03l-.32-.3a.9.9 0 0 0-.46-.22.95.95 0 0 0-.17-.02h-.94l-.01-.16a4.42 4.42 0 0 0 .75-1.01h.04a.24.24 0 0 0 .19-.03.23.23 0 0 0 .1-.16 2.03 2.03 0 0 0-.54-1.84c.02-.12.02-.24 0-.36a3.2 3.2 0 0 0 1.15-1.65.3.3 0 0 1 .07-.11.47.47 0 0 0 .15-.34c0-.2-.03-.6-.22-1.12a.34.34 0 0 0 .03-.31 5.5 5.5 0 0 0-1.16-1.78l.22-.16a.28.28 0 0 0 .09-.13.28.28 0 0 0 0-.15.27.27 0 0 0-.12-.17.26.26 0 0 0-.1-.04.28.28 0 0 0-.2.04l-.19.11a.37.37 0 0 0-.3-.11.37.37 0 0 0-.1.02 1.8 1.8 0 0 0-.67.44l-.28-.4a.24.24 0 0 0-.24-.1.24.24 0 0 0-.1.03l-.78.5a.47.47 0 0 0-.21.33l-.1.63a.3.3 0 0 0 .1.26l.8 1.04a.41.41 0 0 0 .15.12.43.43 0 0 0 .19.04c.07 0 .15-.01.22-.05a3.85 3.85 0 0 0 .85-.65.21.21 0 0 0 .02-.09V4.7l.09.02a2.4 2.4 0 0 1 .21 1.14.33.33 0 0 0 .1.26l.08.06.01.18c-.22.05-.8.28-1.03 1.06a2.5 2.5 0 0 0-.25-.05l-.06-.13c-.3-.6-.89-1.77-1.64-1.21a.15.15 0 0 1-.12.02C8.28 5.78 8 7.08 7.87 7.7a1.2 1.2 0 0 1-.08.29c-.43.25-.85.6-1.19 1.52a.1.1 0 0 1-.07.07c-.6.14-.89 1.18-.89 1.18s-.49.1-1.16 1.63a.38.38 0 0 0-.22.1.39.39 0 0 0-.12.2c-.05.25-.07.5-.06.76a.35.35 0 0 0 .12.25Zm2.1.13h-.27a.18.18 0 0 1-.1-.03.16.16 0 0 1-.04-.05.17.17 0 0 1-.03-.09v-1.18a.16.16 0 0 1 .08-.14.18.18 0 0 1 .1-.02l.34.02-.09 1.49Zm.25-1.62a7.17 7.17 0 0 1 .38-.38.3.3 0 0 0 .03-.12c.08-.02.15-.05.22-.1a1.33 1.33 0 0 0 .2.52.22.22 0 0 0 .17.06.22.22 0 0 0 .13-.06h.04a1.21 1.21 0 0 0 .49.33l-.01.06H6.55l.01-.26-.01-.05Zm6.47.45c.29 0 .47.18.65.36l.12.1-.09.08c-.11.12-.23.22-.36.29a1.12 1.12 0 0 0-.81-.36H7.25l-.35-.47h6.12ZM11.4 3.6a1.66 1.66 0 0 1 .64-.38.2.2 0 0 1 .16.06c.1.13.26.4.06.53l-.21.11a.32.32 0 0 0-.06-.16l-.02-.04c-.02-.04-.05-.09-.09-.09l-.07.01-.1.08c-.12.07-.27.17-.3.21-.05-.1-.1-.23-.01-.33Zm-1.68.92.09-.63a.3.3 0 0 1 .14-.21l.78-.5h.04a.07.07 0 0 1 .06.07l-.08.86a.3.3 0 0 1-.1.2.3.3 0 0 1-.06.04l-.65.33c-.1.05-.24-.04-.22-.16Zm1.19 1.24a.25.25 0 0 1-.09.03.28.28 0 0 1-.14-.01.26.26 0 0 1-.1-.08l-.66-.84c.03 0 .36-.17.57-.27a5.24 5.24 0 0 1 .29-.17l.14.19c.23.29.6.76.6.74-.2.15-.4.29-.61.4Zm1.44.13a2.58 2.58 0 0 0-.28-1.3.09.09 0 0 0-.05-.02s-.36-.03-.5-.37a.17.17 0 0 1 .02-.16.17.17 0 0 1 .05-.04l.25-.17a.16.16 0 0 1 .02.17c0 .02-.01.03-.03.05-.07.07.03.18.11.13.04 0 .15-.01.26.1l.03.02.03.01a.09.09 0 0 0 .06-.02c.2-.03.38.01.49.19.17.3.45.85.44 1.42a1.82 1.82 0 0 1-.77.16.17.17 0 0 1-.1-.08.18.18 0 0 1-.03-.06v-.03Zm-3 .7c.47 0 .57.42.59.84a.9.9 0 0 0-.32-.09.09.09 0 0 0-.07.04l-.01.02c0 .01-.05.13-.21.13-.18.01-.1-.17-.07-.28l.01-.02a.22.22 0 0 0-.12-.3c-.06-.03-.13-.06-.17.02-.04.09.04.12.1.14l.02.01a.05.05 0 0 1 .01.06.95.95 0 0 0-.06.2c-.11.03-.22.08-.33.14l.02-.11c.05-.38.1-.79.6-.8ZM6.54 9.72l-.03.07c-.03.11.13.16.17.06.25-1 .9-1.68 1.52-1.91a1.56 1.56 0 0 0-.27.66c-.18 1 .32 1.21.34 1.22.08.03.17-.06.21-.12.31.6.9.69.92.7.02 0 .04 0 .06-.02l.18-.13c.06.33.24.62.62.58 1.1-.2 1.7-.6 1.83-1.5.03-.25.02-.49-.03-.72-.03-.1-.2-.07-.17.04.22 1.05-.3 1.8-1.66 2.01-.32.04-.4-.3-.44-.56.15-.18.28-.38.38-.6.08.06.18.13.25.04.17-.3.24-.65.2-1.03-.07-.53-.29-.82-.48-.97a3.06 3.06 0 0 1 1.28.05l.02-.01a.09.09 0 0 0 .03-.05c.2-.75.73-.96.93-1.02a.67.67 0 0 0 .28.33l.05.02c.08 0 .12-.12.04-.16-.22-.16-.23-.27-.24-.4v-.04c.18.07.72.21 1.18-.06.1.38.13.75-.01.86a.48.48 0 0 0-.12.19c-.42 1.19-1.1 1.58-1.12 1.58a.09.09 0 0 0-.03.05.09.09 0 0 0 0 .05c.03.13.04.48-.2.88a8.59 8.59 0 0 0-.28.55c.17.76-.1 1.21-.11 1.23l-.28.45c-.05.1.1.18.15.09l.14-.23c.03.25.04.46.04.61H8.38l.05-.46.1.04c.1.04.17-.12.07-.16l-.21-.09c-.56-.22-.62-.6-.62-.72.58.25 1.17.08 1.9-.17.1-.04.04-.2-.07-.16-1.18.43-1.92.37-2.09-.22-.01-.1-.18-.09-.17.02 0 .05.02.1.05.15-.38.53-.83.35-1.11.2a2.37 2.37 0 0 0-.43-.16 1.65 1.65 0 0 1 .7-1.06Zm-.96 1.24a.14.14 0 0 1 .13-.03c.16.03.45.11.7.29-.26.97-1.64.87-1.64.87.16-.36.42-.77.81-1.13Zm-1.28 1.74a.2.2 0 0 1 .13-.15.2.2 0 0 1 .08-.01.2.2 0 0 1 .04 0l.16.07.03.01a.09.09 0 0 0 .08-.02c.02-.02.15-.16.42.01.05.03.09.01.13-.02.13-.08.32.03.31.18v.71c-.01.2-.23.23-.36.1-.03-.3 0-.66 0-.66.01-.11-.15-.13-.17-.02-.02.23-.02.46 0 .68a.33.33 0 0 1-.3.03.34.34 0 0 1-.09-.05 12.41 12.41 0 0 1 .02-.68l-.03-.02a.09.09 0 0 0-.12.04v.03c-.02.15-.03.35-.04.62-.13.08-.33.06-.35-.13 0-.24.01-.48.06-.72ZM6.62 3.6a.09.09 0 0 0 .08-.05.08.08 0 0 0 0-.09l-.11-.13c-.08-.08-.2.02-.14.11l.1.13c.02.02.05.03.07.03Zm-2.26.52c-.11-.1-.2-.27-.2-.27-.04-.1-.2-.04-.15.07.06.12.13.23.23.32.08.08.2-.04.12-.12Zm4.32.15h-.02c-.05 0-.09-.06-.11-.1a.42.42 0 0 0-.03-.05.08.08 0 0 1 0-.06.09.09 0 0 1 .03-.05c.08-.05.12.03.16.09l.02.04a.08.08 0 0 1 .01.04.08.08 0 0 1 0 .04.08.08 0 0 1-.04.04h-.02Zm-4.4 3.31a.09.09 0 0 0 .08-.05v-.04l-.01-.05-.02-.02c-.04-.06-.1-.12-.16-.07a.08.08 0 0 0-.04.06.09.09 0 0 0 .02.06l.03.03c.02.04.06.09.1.08Zm6.25 4.27c-.1.03-.2.05-.3.05-.12 0-.12-.17-.01-.17.09 0 .18-.01.26-.04.11-.03.16.13.05.16Zm-1-.16c-.11-.04-.18.11-.08.16a.7.7 0 0 0 .37.04.62.62 0 0 0 .05.5c.06.09.2 0 .15-.1a.45.45 0 0 1-.03-.35c.03-.11 0-.2-.02-.28a.62.62 0 0 1 .01-.42c.04-.11-.12-.17-.16-.07 0 .02-.1.28-.02.55a.49.49 0 0 1-.28-.03Zm-.95-.84-.12.02c-.1 0-.12-.16-.01-.17l.14-.02c.11-.02.14.15.03.17h-.04Zm2.48-.86-.14.05a.08.08 0 0 0-.05.05.08.08 0 0 0 .02.1.09.09 0 0 0 .1.01l.14-.06c.1-.04.03-.2-.07-.15Zm-1.5 1.16a.08.08 0 0 1 .03.1.08.08 0 0 1-.04.05.9.9 0 0 0-.43.73v.03a.09.09 0 0 1-.06.05.09.09 0 0 1-.06 0 .09.09 0 0 1-.06-.08c0-.03 0-.58.52-.88a.09.09 0 0 1 .1 0Zm.71.03c.02 0 .4.07.59.51 0 .01 0 .02.02.03a.09.09 0 0 0 .14-.03.09.09 0 0 0 0-.07 1 1 0 0 0-.72-.61.09.09 0 0 0-.09.04.08.08 0 0 0 0 .06.08.08 0 0 0 .03.06h.03Zm-.67-4.1c-.04 0-.09.03-.1.03-.1 0-.12-.13-.04-.16l.1-.05c.1-.05.18.1.07.15l-.03.02Zm.13-1.83c.06.11.1.24.12.36v.04l-.02.03a.09.09 0 0 1-.07.04.97.97 0 0 0-.4.12.18.18 0 0 1-.13.02c-.58-.13-1.01.3-1.23.8a.09.09 0 0 1-.1.05 1.54 1.54 0 0 0-.87-.22.06.06 0 0 0-.05.04v.03l.01.03c.66.77-.45 1.57-.95.45A.06.06 0 0 0 6 7.01L5.97 7c-.01 0-.02 0-.03.02a2.28 2.28 0 0 0 .08 1.05 1.55 1.55 0 0 0 .6.67.1.1 0 0 1 .05.06.1.1 0 0 1-.01.08c-.08.15-.15.3-.2.47a.14.14 0 0 1-.08.09c-.43.17-.7.76-.83 1.1-.05.12-.18.16-.3.12-.65-.22-.85-1.16-.87-1.25a2.2 2.2 0 0 1 .11-1.26.09.09 0 0 1 .1-.03.09.09 0 0 1 .06.06c.03.14.18.6.43.47.32-.16.16-.38-.1-.74C4.55 7.36 3.9 6.5 4.41 5c.1-.34.26-.66.46-.96.04-.07.16-.04.16.04.01.25.26 1.84 1.3 1.35.53-.22.25-.68-.18-1.14a.09.09 0 0 1-.02-.08c0-.1.64-.29 1.24-.05 0 0 .47.2.87.76 0 0 .2.28.45.17.24-.1.24-.23.15-.47-.06-.27.62 0 .88.6Z"/><defs><linearGradient id="aat1bh0nd" x1="18" y1="9" x2="0" y2="11.48" gradientUnits="userSpaceOnUse"><stop stop-color="#F3722D"/><stop offset="1" stop-color="#F84E3F"/></linearGradient></defs></svg>