<!-- by TradingView --><svg width="18" height="18" viewBox="0 0 18 18" xmlns="http://www.w3.org/2000/svg"><path fill="#015A9C" d="M0 0h18v18H0z"/><path d="M14 9.9a2.76 2.76 0 0 1-.53-.11c-.61-.06-1.2.06-1.75.37a.51.51 0 0 0-.39.14 4.3 4.3 0 0 0-.37.08l-.36.07c-1.3.2-2.64.18-3.93-.15a.71.71 0 0 0-.39-.14C5.52 9.8 4.84 9.64 4 9.93a5.25 5.25 0 0 1 4.66-5.21l.01-.04.16-1.25c.02-.17.06-.3.1-.4l.03-.02a.06.06 0 0 1 .07 0l.02.03c.06.14.09.27.1.39a36.2 36.2 0 0 1 .18 1.28l.04.02A5.23 5.23 0 0 1 14 9.9Z" fill="#FFD035"/><path d="M6.28 10.16c-.08 2.22 1.72 2.8 3.5 2.53 1.27-.2 1.97-1.2 1.94-2.53a2.91 2.91 0 0 1 1.8-.36c.16.05.31.08.48.1a3.51 3.51 0 0 1-1.77 3.27c-.66.41-1.42.67-2.27.77-1.62.19-3.3-.04-4.63-1.09A3.39 3.39 0 0 1 4 9.93c.84-.3 1.52-.13 2.28.23Z" fill="#fff"/><path d="M6.67 10.3c.12.2.27.36.43.48l.05.02.04-.01.38-.23a.15.15 0 0 1 .18.02l.55.58a.08.08 0 0 0 .06.03.08.08 0 0 0 .06-.03l.46-.48a.14.14 0 0 1 .2 0l.54.47.05.02c.02 0 .03 0 .05-.02l.55-.58a.13.13 0 0 1 .17-.02l.4.24a.05.05 0 0 0 .05 0c.18-.14.32-.3.44-.49.12-.1.25-.15.39-.14.03 1.34-.67 2.33-1.95 2.53-1.77.27-3.57-.3-3.49-2.53.15 0 .28.05.4.14Z" fill="#B91D26"/><path d="M11.33 10.3a1.92 1.92 0 0 1-.47.5h-.03l-.4-.25a.13.13 0 0 0-.16.02l-.55.58a.07.07 0 0 1-.1 0l-.54-.47a.14.14 0 0 0-.2 0l-.46.48a.09.09 0 0 1-.06.03.08.08 0 0 1-.06-.03l-.55-.58a.15.15 0 0 0-.18-.03l-.38.24a.08.08 0 0 1-.09 0 1.66 1.66 0 0 1-.43-.49 9.85 9.85 0 0 0 4.66 0ZM8.06 8.3c-.17-.34-.4-.53-.66-.6-.3-.06-.58.03-.85.27a.06.06 0 0 0-.02.05.06.06 0 0 0 .01.04l.09.1a.1.1 0 0 1 .02.06c0 .13-.09.17-.25.14a.08.08 0 0 0-.06.01.08.08 0 0 0-.04.06c-.08.46.06.88.45 1.11.35.2.71.15 1.1-.17-.15.23-.37.4-.62.48-.27.1-.57.08-.83-.04a1.26 1.26 0 0 1-.62-.6 1.4 1.4 0 0 1 .3-1.62 1.14 1.14 0 0 1 1.43-.11c.14.09.26.2.36.35.09.14.16.3.2.47ZM10.23 9.47c.27.17.53.23.78.16.58-.15.9-.89.61-1.42-.31-.6-.93-.68-1.43-.25l-.02.02a.08.08 0 0 0 .01.1c.05.03.08.07.1.13.01.08-.02.13-.1.15a.38.38 0 0 1-.22-.01c.07-.56.37-.9.9-1.04.38-.1.73 0 1.05.29.7.64.55 1.95-.4 2.26-.5.16-.92.03-1.28-.39Z" fill="#fff"/><path d="M8.06 8.3a1.42 1.42 0 0 1-.2 1.07c-.4.32-.77.38-1.11.17-.39-.23-.53-.65-.45-1.11a.09.09 0 0 1 .04-.06.08.08 0 0 1 .06-.01c.16.03.25-.01.25-.14a.1.1 0 0 0-.02-.07l-.09-.09a.06.06 0 0 1-.01-.04.06.06 0 0 1 .02-.05c.27-.24.56-.33.85-.26.27.06.49.25.66.59ZM10.23 9.47c-.3-.33-.38-.7-.27-1.12.08.02.13.03.22.01.08-.02.11-.07.1-.15a.27.27 0 0 0-.1-.14.07.07 0 0 1-.02-.05v-.04l.03-.02c.5-.43 1.12-.35 1.43.25.28.53-.03 1.27-.6 1.42a.97.97 0 0 1-.8-.16Z" fill="#481F12"/><path d="M8.75 9.59c-.07-.1-.18-.12-.24-.06-.07.06-.06.18.01.27.08.08.19.1.25.05.07-.06.06-.18-.02-.26ZM9.47 9.78c.07-.1.08-.2.01-.26-.06-.05-.17-.02-.24.08-.06.09-.07.2 0 .26.06.05.16.01.23-.08Z" fill="#CB7A3A"/></svg>