<!-- by TradingView --><svg width="18" height="18" viewBox="0 0 18 18" xmlns="http://www.w3.org/2000/svg"><path fill="url(#a)" d="M0 0h18v18H0z"/><path d="m10.63 3.84-.29.27h-.01a.03.03 0 0 1-.03 0l-.01-.02v-.24l-.01-.03-.03-.02c-.2-.07-.4-.18-.59-.34a1.26 1.26 0 0 0-.36-.24c-.05 0-.08.01-.1.07l-.07.06c-.36-.05-.85-.11-.9.37.02.1.05.19.1.28v.05l-.01.01h-.04v-.01a1.57 1.57 0 0 1-.2-.38.11.11 0 0 0-.05-.07.1.1 0 0 0-.08 0c-.04 0-.05.05-.03.13-.1-.12-.18-.25-.24-.4l-.02-.02a.05.05 0 0 0-.05 0l-.01.02-.03.1a.38.38 0 0 1 0-.15v-.02h.03a.5.5 0 0 0 .26-.1c.06-.03.13-.03.2.01.09.07.17.08.27.04.19-.08.3-.13.36-.13a.1.1 0 0 1 .07.02l.19.13a.17.17 0 0 0 .2 0c.08-.06.14-.13.18-.2 0-.01 0-.02.02-.02h.03c.16.02.26.05.29.08a1.81 1.81 0 0 0 .23.14l.55.09c.03 0 .05 0 .07.03.02.01.04.03.04.06.05.15.07.3.07.43Z" fill="#A6988C"/><path d="M8.07 3.17c-.08-.04-.15-.04-.21 0a.5.5 0 0 1-.26.09h-.02l-.02.02v.15c.03.2.19.3.3.43.02.02.04.02.06 0a.06.06 0 0 0 .02-.05l.12.27v-.01l.01-.01a.02.02 0 0 1 .02 0c.04.05.08.06.11.04a.02.02 0 0 1 .03 0v.01c.03.1.1.18.2.24a.02.02 0 0 0 .03 0v-.02A.77.77 0 0 1 8.33 4a.88.88 0 0 1-.1-.28c.06-.2.18-.3.36-.3.24 0 .42-.03.54-.07l.08-.06c.25.37.52.73.82 1.07.17.2.28.4 0 .56-.3.18-.77.37-1.39.57a.76.76 0 0 0-.26.17l-.02.03v.03c.1.34.16.64.18.91.02.36.26.39.58.38a.05.05 0 0 1 .04.02.04.04 0 0 1 0 .04l-.18.44c-.14.29-.05.48-.03.75 0 .09-.03.16-.11.2.06-.04.07-.1.02-.17 0-.01 0-.02-.02-.02l-.02-.01c-.17-.03-.19-.11-.1-.24a.05.05 0 0 0 .01-.05s0-.02-.02-.02l-.02-.01h-.06c-.02-.01-.04 0-.07 0a.11.11 0 0 0-.04.06l-.12.24v.02l.01.02c.15.1.3.1.43.03a.03.03 0 0 1 .02 0h.01v.08c0 .01 0 .02-.02.02l-.02.01-.33-.01c-.07 0-.14.03-.19.11v.01a.02.02 0 0 1-.03 0c-.01-.02-.03-.02-.04-.02a.46.46 0 0 0-.18.12c.23-.33.38-.57.4-.86v-.01l-.02-.01-.79-.1a.02.02 0 0 0-.01.01.02.02 0 0 0-.01.02c-.04.32.29.4.23.73-.03.18-.08.36-.16.56-.1.24-.47.18-.23.5a17.72 17.72 0 0 0 .58.67l-.01.03-.14.15-.03.02h-.03a1 1 0 0 1-.4-.13l-.51-.71a.14.14 0 0 1-.03-.08c-.02-.17-.06-.23-.14-.18l.26-.15c.11-.01.13-.12.06-.31l-.01-.02a.06.06 0 0 0-.05-.02L7 8.75c-.11.06-.2.05-.26-.01a.08.08 0 0 1-.02-.04l-.12-.44c0-.27.03-.45.08-.55l.2-.41.02-.53c.08-.22.15-.51.23-.88.07-.37.33-.57.76-.6l.67-.02c.23 0 .33-.11.43-.27a.17.17 0 0 1 .06-.05.18.18 0 0 1 .07-.03l.39-.04.03-.01.01-.03a.41.41 0 0 0-.02-.23 2.4 2.4 0 0 1-.22-.72h-.03c-.15.3-.29.54-.23.82-.3.02-.54-.03-.8-.2-.3-.17-.62-.49-1.03-.19.08-.2.27-.29.47-.36l.21.26.05.04.2.1a.04.04 0 0 0 .05 0 .03.03 0 0 0 0-.05l-.23-.26a.16.16 0 0 0-.04-.03c-.16-.1-.3-.2-.4-.34-.04-.06-.03-.16-.06-.23l-.01-.02h-.02c-.04 0-.06-.03-.07-.07.03.02.05.03.08.03s.05-.01.06-.04a.5.5 0 0 0 .03-.08l.01-.03.03-.02c.17-.06.4-.18.49-.05Z" fill="#6F5245"/><path d="M10.63 3.84c-.03.06-.02.1.03.1v.05l.01.01.02.02a.04.04 0 0 0 .04-.01c.15-.13.2-.25.2-.35-.02-.05-.01-.08.03-.08h.02a.04.04 0 0 1 .02.02v.01l-.02.13.01.04.02.02.07.01a.37.37 0 0 0-.18.28c-.02.04-.02.07 0 .1l.05.16.02.02h.02l.37-.08a.05.05 0 0 1 .04 0l.01.02.01.02v.05l-.02.03-.15.08h-.01v.03l.01.01.01.02v.02c-.05.2-.2.32-.42.36-.4.07-.88.17-1.3.4a4.62 4.62 0 0 1-.67.28l-.02.03c-.03.13-.07.4.07.49.17.1.42-.13.53.16a12.12 12.12 0 0 1 .22.57l.03.02c.23.1.41.26.54.47a.54.54 0 0 0-.25-.08l-.05-.01-.23-.07a.07.07 0 0 0-.07.02l-.23.18a.12.12 0 0 0-.04.05.11.11 0 0 0 .02.1c0 .02.03.04.04.04l.2.09a.24.24 0 0 0 .25-.04c.09-.07.23-.14.44-.21V7.4c.04.02.07.05.07.09 0 .01-.01.02-.05.03l-.15-.04h-.03l-.02.01-.1.12-.02.03v.03l.03.04v.03a.03.03 0 0 1-.02.02c-.2.05-.4.04-.6-.03a.13.13 0 0 1-.08-.05l-.1-.17-.03-.02a.07.07 0 0 0-.06 0 .06.06 0 0 0-.02.03.9.9 0 0 0-.02.78v.01h.03l.3-.03v-.01a1.78 1.78 0 0 0-.04-.2c-.01-.06 0-.1.03-.11.02-.02.06-.02.12-.01.46.18.62.52.49 1l-.1.33-.03.03-.03.01h-.03a.06.06 0 0 1-.03-.03l-.13-.2v-.03h.03l.13.15a.01.01 0 0 0 .02 0l.14-.3-.17.2v.01a.03.03 0 0 1-.04 0l-.2-.18c.04.06.06.08.07.15a.33.33 0 0 0-.08-.07c-.37.05-.35.47-.48.64a.43.43 0 0 1-.1.1l-.18.13a.24.24 0 0 0-.07.07c-.06.1-.06.22-.14.32a3.88 3.88 0 0 1-.36.38h-.04c-.2-.03-.39-.1-.56-.2l-.06-.05-.17-.21a1 1 0 0 0 .4.13.07.07 0 0 0 .06-.02l.14-.15v-.05l-.57-.65c-.24-.32.14-.26.23-.5.08-.2.13-.38.16-.56.06-.32-.27-.41-.23-.73a.02.02 0 0 1 0-.02.02.02 0 0 1 .02 0l.79.09h.01l.01.02c-.02.3-.17.53-.4.86a.55.55 0 0 0 0 .26l.02.02h.03l.81-.08h.02v-.04h-.02l-.51-.06a.1.1 0 0 1-.07-.04.09.09 0 0 1-.02-.06l.01-.08c0-.03.02-.05.05-.07a.13.13 0 0 1 .08-.03l.38.01c.08-.04.11-.11.1-.2-.01-.27-.1-.46.04-.75a3.9 3.9 0 0 0 .19-.46l-.01-.02-.02-.01h-.02c-.32 0-.56-.03-.58-.39a4.6 4.6 0 0 0-.18-.94l.02-.03c.1-.09.18-.14.26-.17.62-.2 1.09-.39 1.4-.57.27-.17.16-.36-.01-.56-.3-.34-.57-.7-.82-1.07 0-.06.04-.08.09-.07l.2.1.16.14c.19.16.39.27.6.34l.02.02.01.03v.25a.03.03 0 0 0 .05 0l.29-.26Z" fill="#876451"/><path d="M7.37 3.36c0 .04.03.06.07.07h.02v.02c.04.07.03.17.07.23.1.14.24.25.4.34.02 0 .03.02.04.04l.23.25.01.03v.02h-.05l-.2-.1a.14.14 0 0 1-.06-.04l-.21-.26-.22-.2a.09.09 0 0 1-.02-.05l-.03-.19V3.5a.03.03 0 0 0-.03 0h-.02a.04.04 0 0 0-.02.02.03.03 0 0 0-.01.02c.01.09 0 .15-.03.2a.04.04 0 0 0 0 .05l.05.08a.04.04 0 0 1 0 .05l-.03.01H7.3a.73.73 0 0 1-.32-.62c.02-.06.05-.03.1.08l.01.02a.05.05 0 0 0 .05 0l.01-.01a.38.38 0 0 1 .13-.1h.03c.01 0 .02 0 .03.02l.03.04Z" fill="#A6988C"/><path d="m7.92 3.73.02.08c0 .02 0 .04-.02.05-.02.02-.04.02-.06 0-.11-.13-.28-.23-.3-.43l.03-.1.02-.02a.05.05 0 0 1 .05 0l.02.02c.05.15.13.28.24.4Z" fill="#D8B79C"/><path d="M6.98 3.3c0 .26.1.47.32.62a.04.04 0 0 0 .05 0l.02-.02v-.03L7.3 3.8a.04.04 0 0 1 0-.04.33.33 0 0 0 .03-.2.03.03 0 0 1 0-.03l.02-.01h.01l.02-.01a.03.03 0 0 1 .02 0l.01.01v.01l.03.2.02.04.22.2c-.2.07-.4.15-.47.36-.1.05-.2.04-.33-.04-.1-.1-.3.01-.43.04v.01l.4-.05c-.1.2-.3.15-.53.12l-.04.01a.05.05 0 0 0-.02.02l-.14.3c0 .02-.02.02-.03.03h-.03c-.01 0-.02 0-.03-.02v-.03l.04-.3c.02-.12.14-.24.29-.22.05 0 .09 0 .1-.03l.03-.02h.04c.07.01.11-.02.13-.09 0-.05.02-.07.03-.08h.05a.04.04 0 0 0 .03-.01l.01-.02v-.32h.01a.02.02 0 0 1 .02 0c.06.03.1.04.12.01l.04-.32ZM8.75 3.8a1 1 0 0 0 .21.38.4.4 0 0 1-.22.04c-.02 0-.04 0-.06.02a.04.04 0 0 1-.04 0c-.09-.1-.15-.2-.2-.32.04.07.08.12.12.14h.03s.02 0 .02-.02a.03.03 0 0 0 0-.04.63.63 0 0 1-.13-.18l.1.08.02.01h.01l.01-.01v-.31h.01l.01-.02h.01l.01.01a.4.4 0 0 1 .09.22Z" fill="#876451"/><path d="M8.96 4.18a1 1 0 0 1-.21-.38v-.1a.07.07 0 0 1 .03-.04l.17-.1a.03.03 0 0 1 .03.02c.04.21.03.41-.02.6Z" fill="#2A2820"/><path d="M8.33 4a.77.77 0 0 0 .13.34v.01h-.02a.4.4 0 0 1-.2-.24l-.02-.01a.02.02 0 0 0-.02 0c-.03.02-.07 0-.1-.04h-.01a.02.02 0 0 0-.02 0v.02l-.13-.27-.02-.08c-.02-.08-.01-.13.03-.14a.1.1 0 0 1 .08.01l.05.07a1.57 1.57 0 0 0 .2.4.04.04 0 0 0 .04-.01l.01-.01V4Z" fill="#44342A"/><path d="M8.48 3.82c.03.06.07.12.13.18v.04l-.02.02h-.03c-.04-.02-.08-.07-.12-.14a.4.4 0 0 1-.07-.24v-.01l.02-.01h.02l.01.01.06.15ZM10.66 3.94l.26-.28c.02.1-.05.22-.19.35a.04.04 0 0 1-.04 0h-.02v-.02l-.01-.05Z" fill="#A6988C"/><path d="m11.08 3.81.05.03c.02 0 .02 0 .03.02a.06.06 0 0 1 0 .09l-.14.1c-.08.09-.12.1-.12.04a.37.37 0 0 1 .18-.28Z" fill="#D8B79C"/><path d="M6.9 6.77c.12.96-.2 1.06-.94.8-.32-.85-.12-1.5-.28-1.47.08-.23.14-.43.18-.6a.32.32 0 0 0-.04-.24.06.06 0 0 1 0-.06l.07-.13a.61.61 0 0 0 .07-.17l.12-.5-.04.31v.03l.03.02h.03l.03-.02.14-.3c0-.02.01-.02.02-.03h.04c.23.02.44.07.53-.13h.03c.13.08.24.1.33.04.41-.3.74.02 1.03.2.26.16.5.2.8.2-.06-.3.08-.54.23-.83a.02.02 0 0 1 .03 0c.03.24.1.48.22.72.03.06.03.14.02.23l-.01.03-.03.01-.39.04a.18.18 0 0 0-.07.03.17.17 0 0 0-.06.05c-.1.16-.2.26-.43.27-.23 0-.45 0-.67.02-.43.03-.69.23-.76.6a6.2 6.2 0 0 1-.23.88Z" fill="#44342A"/><path d="m12.36 5.06-.3-.17a.08.08 0 0 0-.06 0l-.27.1a.06.06 0 0 1-.05 0l-.02-.03v-.02l.04-.33V4.6l-.02-.01a.5.5 0 0 1-.23-.28.05.05 0 0 0-.02-.03h-.03l-.3.06h-.04l-.03-.01-.01-.03v-.03l.04-.13c.18-.22.47.01.65.15H11.92c.03 0 .06.02.08.03l.44.36.08.02h.08l.03.01.02.03-.01.02-.03.02a.28.28 0 0 1-.1 0l-.04.01a.06.06 0 0 0-.03.04v.04l.03.03c.07.04.12.1.13.17v.02h-.02l-.22-.02Z" fill="#D8B79C"/><path d="M11.02 4.05c0 .05.02.08.04.08l-.04.13v.03l.01.03.03.01h.03l.3-.07h.04l.02.04a.5.5 0 0 0 .23.28l.01.01v.02l-.03.33v.02c0 .01 0 .02.02.02a.06.06 0 0 0 .05.01l.27-.1a.08.08 0 0 1 .07 0l.3.17c-.04.05-.02.1.06.15l-.3-.05h-.04a.07.07 0 0 0-.03.03.06.06 0 0 0 0 .08l.3.33v.08c.03.05.05.1.05.13-.13-.09-.24-.2-.33-.32-.27.14-.19.35-.24.55-.06.23-.23.34-.5.33h-.02l-.01-.03a5.72 5.72 0 0 0-.2-.88c-.22-.47-.8-.35-1.18-.17-.41.2-.27.53-.17.93a2 2 0 0 1 .01.65l.03.02c.24.11.42.29.53.52h-.02l-.07-.06c-.13-.2-.3-.36-.54-.47a.09.09 0 0 1-.03-.02l-.02-.03c-.06-.18-.12-.36-.2-.54-.11-.3-.36-.05-.53-.16-.14-.09-.1-.36-.07-.49l.02-.03.02-.01c.3-.1.51-.2.66-.27.41-.23.89-.33 1.29-.4.23-.04.37-.16.42-.36a.04.04 0 0 0 0-.04l-.02-.01a.02.02 0 0 1 0-.02v-.01l.16-.08.02-.03v-.07a.05.05 0 0 0-.04-.02h-.02l-.37.09h-.02l-.02-.03-.06-.16v-.1c.01.06.05.05.13-.04Z" fill="#AA8468"/><path d="M11.94 4.96a.01.01 0 0 1 .01 0c0-.01 0-.01 0 0h.03l.21.06c.06.02.09.04.09.05-.01.02-.05.02-.1.01-.06 0-.14-.02-.22-.04h-.03v-.01l.01-.07Z" fill="#876451"/><path d="M12.08 5.49c-.08.1-.12.19-.1.27l.08.45c.04.35-.27.43-.56.5h-.02c-.01 0-.02 0-.03-.02l-.2-.33-.17-.9a.9.9 0 0 0-.71-.13c-.55.11-.4.63-.35 1.08v.02l-.16.36v.04c0 .02.01.03.03.04a1.73 1.73 0 0 1 .57.65c0 .03-.01.04-.05.04a.14.14 0 0 1-.07-.03c.04 0 .06-.02.05-.03a.14.14 0 0 0-.06-.1c-.11-.22-.3-.4-.53-.51l-.02-.02-.01-.03a2 2 0 0 0 0-.62c-.1-.4-.25-.73.16-.93.38-.18.96-.3 1.17.17a5.72 5.72 0 0 1 .22.9l.02.01c.27.01.44-.1.5-.33.05-.2-.03-.4.24-.55Z" fill="#A6988C"/><path d="m12.43 5.2.26.1h.02v.02l.01.01v.02l-.01.02-.03.03h-.04a4.97 4.97 0 0 1-.24-.09.03.03 0 0 0-.01.02l.01.04a7.15 7.15 0 0 1 .3.36.04.04 0 0 1-.02.02.04.04 0 0 1-.03 0 4.1 4.1 0 0 0-.29-.15l-.3-.33a.06.06 0 0 1 0-.07c0-.02.01-.03.03-.03h.04l.3.04ZM11.08 5.47c-.3-.08-.6-.07-.89.04a.05.05 0 0 0-.02.02l-.01.03c0 .16-.02.38-.05.67-.01.17-.12.4-.18.6v.02l.02.02c.23.13.4.32.47.56a1.73 1.73 0 0 0-.53-.56.06.06 0 0 1-.03-.04V6.8l.16-.36v-.02c-.05-.45-.2-.97.35-1.08a.9.9 0 0 1 .71.14Z" fill="#D8B79C"/><path d="m11.08 5.47.17.9-.19 1.19c-.04.28-.2.5-.2.78a2.87 2.87 0 0 0 .07.52h-.03c-.15-.06-.25.09-.28.23l-.22.37c0 .09 0 .25.02.47a.84.84 0 0 1-.2.64c-.12.15-.32.27-.59.36-.4.14-.82.13-1.24-.02.34.04.75.07.87-.3.2-.6.3-.84.32-1.29l.01-.01.02-.01h.01l.01.01a.66.66 0 0 1 .03.31.03.03 0 0 0 .02.02h.02c.05 0 .1 0 .14-.02l.26-.18c.05-.02.1-.06.12-.12.18-.33.21-.66.1-1h-.04v.02c.08.32.04.62-.11.92l.06-.24a.8.8 0 0 0-.13-.87v-.02a.01.01 0 0 1 0-.01.01.01 0 0 1 .02 0c.01.02.03.03.05.03a.04.04 0 0 0 .03 0v-.02l.01-.01c0-.16-.03-.3-.12-.44a.04.04 0 0 1 0-.05c.05-.06.13-.1.25-.1l.07.03c.04 0 .05-.01.05-.04s-.01-.06-.04-.09a1.01 1.01 0 0 0-.47-.56l-.02-.02v-.03c.06-.2.17-.42.18-.6a10.58 10.58 0 0 0 .06-.69l.02-.02c.3-.1.6-.12.9-.04Z" fill="#F6D0AE"/><path d="M12.08 5.49c.09.12.2.23.33.32l.14.14a.04.04 0 0 1 .01.03.03.03 0 0 1 0 .02c-.04.02-.07.03-.1 0a.05.05 0 0 0-.06.02.04.04 0 0 0 0 .05l.07.07v.02a.04.04 0 0 1 0 .03l-.01.01c-.08.06-.09.14-.04.24a.1.1 0 0 1 0 .11c-.03.04-.04.1-.03.18v.02l-.02.02-.03.01h-.02l-.05-.02h-.02v.03l.08.1a.05.05 0 0 1 0 .06l-.13.13-.71.7a13.1 13.1 0 0 1-.32.55c-.08.15-.13.3-.14.47-.02.19-.13.18-.3.18a.08.08 0 0 0-.06.03.2.2 0 0 0-.05.08c.03-.14.13-.29.28-.23h.02l.02-.01v-.01c-.05-.2-.07-.37-.07-.5-.01-.28.15-.5.2-.78l.19-1.2.2.33.01.02h.03c.3-.07.6-.15.56-.5a4.83 4.83 0 0 0-.08-.45c-.02-.08.02-.17.1-.27Z" fill="#D8B79C"/><path d="M7.48 7.47h-.01l-.01-.01v-.01h.01c.12-.03.22-.12.32-.15.22-.08.42-.1.62-.1l.04.01.17.11.02.02a.07.07 0 0 1 0 .1h-.01a.08.08 0 0 1-.05.02.08.08 0 0 1-.06-.02l-.09-.09h-.06a.15.15 0 0 0-.04.07l-.01.03-.03.01c-.17.04-.25.02-.44-.01-.11-.02-.26.03-.37.02Z" fill="#24231F"/><path d="M9.94 7.26a.96.96 0 0 0-.5.15l-.01.02v.03c0 .01 0 .02.02.02l.02.01c.05 0 .1-.01.14-.04a.06.06 0 0 1 .05 0c.12.03.24.04.37.04l.03-.01.01-.03.01-.1v-.02l-.02-.02a.18.18 0 0 1-.07-.04c.08 0 .16.03.25.08l.07.07c-.2.07-.34.14-.43.21a.24.24 0 0 1-.24.03l-.2-.08a.12.12 0 0 1-.05-.03.11.11 0 0 1-.02-.11c0-.02.02-.04.04-.05l.23-.18a.07.07 0 0 1 .07-.02l.23.07Z" fill="#6F5245"/><path d="m9.94 7.26.05.01.07.04s.02 0 .02.02V7.45l-.02.03h-.03c-.13.01-.25 0-.37-.04a.06.06 0 0 0-.05.01.24.24 0 0 1-.14.04h-.02l-.02-.03v-.03s0-.02.02-.02c.14-.1.3-.15.49-.15ZM6.87 7.3l-.19.41c-.05.1-.08.28-.08.55a3.16 3.16 0 0 1-.26-.77.02.02 0 0 1 .02 0c.2 0 .36-.06.51-.2Z" fill="#44342A"/><path d="M10.34 7.52c-.12.01-.2.05-.24.1l-.01.03v.03a.76.76 0 0 1 .12.45.04.04 0 0 1-.03.02h-.01a.09.09 0 0 1-.05-.03.01.01 0 0 0-.02 0v.03a.8.8 0 0 1 .13.87c.03-.36.04-.62-.2-.9-.12-.14-.28-.17-.47-.16h-.12c-.04.03-.04.06-.03.11a1.78 1.78 0 0 1 .04.22l-.3.03h-.02l-.01-.01a.9.9 0 0 1 .02-.78c0-.01 0-.02.02-.03a.07.07 0 0 1 .06 0l.03.02.1.17c.02.03.04.05.07.05a1.15 1.15 0 0 0 .62.02h.01a.03.03 0 0 0 0-.04l-.02-.04a.05.05 0 0 1 0-.06l.11-.12.02-.01h.03l.15.03Z" fill="#D8B79C"/><path d="M6.91 7.91c-.02-.13-.06-.23-.09-.23s-.04.12-.02.25.06.23.09.23.04-.11.02-.25Z" fill="#2A2820"/><path d="M11.2 8.16v.01a.02.02 0 0 1-.02 0h-.04l-.03-.01-.01-.02-.01-.03a.1.1 0 0 1 0-.03l.06-.23c0-.02.01-.04.03-.05a.06.06 0 0 1 .05-.02l.04.01.01.01v.01l-.08.35Z" fill="#AA8468"/><path d="M8.84 8.46h-.38c-.03-.01-.06 0-.08.02a.11.11 0 0 0-.05.07v.08a.08.08 0 0 0 .01.06.1.1 0 0 0 .07.04l.51.06h.02v.03h-.02l-.81.1h-.03l-.01-.03a.55.55 0 0 1-.01-.26c.06-.06.12-.1.18-.12.01 0 .03 0 .04.02a.02.02 0 0 0 .03 0c.06-.09.12-.13.2-.12a2.64 2.64 0 0 0 .34 0l.02-.02V8.31a.03.03 0 0 0-.03 0c-.14.07-.28.06-.43-.03l-.01-.02v-.02L8.52 8a.11.11 0 0 1 .04-.05.12.12 0 0 1 .07-.02h.06l.02.02.02.02a.05.05 0 0 1 0 .05c-.1.13-.08.21.09.24h.02l.03.03c.04.07.03.13-.03.17Z" fill="#44342A"/><path d="m10.23 9.02-.06.24-.03.07-.01-.04a.01.01 0 0 0-.02 0l-.07.13H10l.12-.5c-.04.03-.06.05-.08.04.13-.48-.03-.82-.5-1 .2 0 .36.02.48.17.24.27.23.53.2.89Z" fill="#AA8468"/><path d="m10.1 9.44.04-.1.03-.08c.15-.3.19-.6.11-.92v-.02h.05c.1.34.07.67-.1 1a.25.25 0 0 1-.13.12Z" fill="#D8B79C"/><path d="M9.45 8.75h-.3a.04.04 0 0 1-.02-.02.04.04 0 0 1-.01-.02l.02-.22.02-.03.04-.02c.17-.03.28.04.33.21a.07.07 0 0 1-.02.07l-.03.02h-.03Z" fill="#AA8468"/><path d="M9.82 8.72a2.9 2.9 0 0 1-.01.16.04.04 0 0 1-.03 0l-.25-.02h-.01l-.02-.02a.03.03 0 0 1 0-.03c.06-.09.1-.14.15-.16l.06-.01h.06a.1.1 0 0 1 .04.04l.01.04Z" fill="#44342A"/><path d="m10.14 9.33-.04.11-.26.18-.13-.45c0-.02 0-.03.02-.03l.05.32s0 .02.02.03l.03.02a.08.08 0 0 0 .07-.01l.08-.07a.52.52 0 0 1-.18.03v-.02a.01.01 0 0 1 0-.01c.06-.01.1-.04.13-.07l.2-.44-.12.5h.03l.07-.13h.01c.02 0 .02.02.02.04Z" fill="#A6988C"/><path d="M10.05 8.96c.02 0 .04 0 .08-.04l-.2.44h-.01.01a.18.18 0 0 1-.12.06.02.02 0 0 0-.02 0 .02.02 0 0 0 0 .02v.01l.01.01a.52.52 0 0 0 .18-.03l-.08.07a.08.08 0 0 1-.07.01.07.07 0 0 1-.03-.02l-.02-.03-.05-.31v-.01c-.02 0-.02 0-.02.02l.13.46a.3.3 0 0 1-.14.02.03.03 0 0 1-.03 0 .03.03 0 0 1 0-.03c0-.1 0-.2-.04-.3a.03.03 0 0 0-.04 0v.01c-.03.45-.13.69-.33 1.3-.12.36-.53.33-.87.29a1.5 1.5 0 0 1-.55-.26l-.17-.17a1.51 1.51 0 0 0 .6.19l.02-.02c.12-.11.23-.23.34-.36.08-.1.08-.22.14-.32a.24.24 0 0 1 .07-.07l.18-.13a.43.43 0 0 0 .1-.1c.13-.17.1-.59.48-.64-.16.06-.26.14-.3.25a6.59 6.59 0 0 1-.18.58h.02c.1-.15.19-.31.26-.5.04-.12.14-.2.28-.26-.01-.07-.03-.09-.07-.14v-.01l.2.18a.03.03 0 0 0 .02 0h.02l.16-.22h.01l-.14.3-.01.01a.01.01 0 0 1-.01 0l-.13-.15H9.7v.02l.13.21.03.03a.07.07 0 0 0 .06-.01l.02-.03.1-.33Z" fill="#D8B79C"/><path d="m9.6 9.03.08.07a.46.46 0 0 0-.28.26 2.44 2.44 0 0 1-.26.5h-.02l-.01-.01v-.02l.2-.55c.03-.1.13-.19.3-.25Z" fill="#AA8468"/><path d="m7.44 10.21.17.21-.42-.15h-.04v.04a5.28 5.28 0 0 1 .3.98 4.88 4.88 0 0 1-.7-.98h-.03l-.02.01v.03l.06.2a.2.2 0 0 0 0 .1c-.36-.24-.76-.4-1.2-.48l.77-.55a.14.14 0 0 0 .03-.04l.09-.13.03-.03a.1.1 0 0 1 .1 0l.02.04.16.32.04-.01a.02.02 0 0 0 0-.03.97.97 0 0 1-.16-.37v-.03l.02-.03.1-.07c.08-.05.12 0 .14.18 0 .03.01.05.03.08l.51.71Z" fill="#838383"/><path d="m10.4 9.46.03.03c.52.3.87.52 1.2.89l.71.75c.23.24.38.53.45.9.04.18.1.4.2.64v.08a.07.07 0 0 1-.02.04l-.56.34c-.04-.18-.09-.35-.15-.52a1.98 1.98 0 0 1-.16-.7h-.01a.02.02 0 0 0-.02 0l-.14.3h-.02l-.04-.15-.02-.02h-1.5a.12.12 0 0 0-.06.1l.01.43c-.08.07-.16.08-.24 0a.06.06 0 0 1-.02-.03v-.03a5.8 5.8 0 0 0 .33-1.08l-.4.8a.06.06 0 0 1-.03.03 2.56 2.56 0 0 0-.6.3.04.04 0 0 1-.04 0l-.01-.02a1.33 1.33 0 0 1 .2-.84l-.01-.01h-.02c-.18.1-.34.14-.47.1a.12.12 0 0 1-.05-.03.1.1 0 0 1-.03-.05v-.04h.03c.05.02.1.02.17.01l.03-.01.01-.03v-.03l-.03-.02c-.13-.04-.23-.02-.32.07l-.02.02a.07.07 0 0 1-.05 0l-.03-.02c-.28-.35-.6-.6-.98-.74l-.27-.27-.01-.03a.1.1 0 0 1 0-.04v-.01h.01l.01-.01h.01l.37.1c.16.11.34.2.55.25.42.15.84.16 1.24.02.27-.09.47-.2.6-.36a.84.84 0 0 0 .19-.64 3.08 3.08 0 0 1-.02-.47Z" fill="#F3EAE5"/><path d="M6.75 10.65c.04.22.06.39.06.52l-.04 1.36c0 .31-.04.75-.03 1.12-.05 0-.08 0-.1-.04a.05.05 0 0 1-.02-.03l.06-.73v-.01h-.02l-.3.47c.02-.22.03-.4.01-.57a1.81 1.81 0 0 0-.1-.36h-.02a.8.8 0 0 0 .03.28c.03.18.02.45-.05.79a.26.26 0 0 1-.18-.07l-.01-.02v-.02l.01-.19a.04.04 0 0 0-.01-.03h-.01L6 13.1h-.02l-.02.23a.02.02 0 0 1-.01.02.02.02 0 0 1-.02 0l-.72-.39A6.98 6.98 0 0 1 4 12v-.08c.11-.29.24-.56.39-.81l.4-.29.03-.01c.24-.23.41-.46.74-.64.44.08.84.24 1.2.48Z" fill="#A6988C"/><path d="m7.6 10.42.07.06.17.17-.37-.1-.02.01v.01l-.01.01a.1.1 0 0 0 0 .04l.01.03.27.27c.2.27.5.39.73.62a10.33 10.33 0 0 0 .56.57l-.01.17-.01.03-.02.01h-.03l-.02-.01c-.21-.25-.53-.45-.72-.67a105 105 0 0 1-.6-.67h-.03l-.01.02v.03a6.42 6.42 0 0 1 .55 1.52.03.03 0 0 1-.03 0l-.37-.6-.01.01c.06.27.15.52.2.82.07.4.16.8.27 1.2l-1.28-.25c.03-.23.04-.45.09-.69.1-.47.12-1 .07-1.56a1.88 1.88 0 0 0-.3-.92l-.05-.2v-.03l.02-.01h.02l.02.01a4.88 4.88 0 0 0 .7.96 5.27 5.27 0 0 0-.31-1 .03.03 0 0 1 .04-.01l.42.15Z" fill="#A6988C"/><path d="m10.85 10.33.01-.01h.02v1.19h-.05v-.02c-.08-.4-.07-.79.02-1.16ZM6.89 13.72l-.15-.07c-.01-.37.03-.8.03-1.12l.04-1.36c0-.13-.02-.3-.06-.52a.2.2 0 0 1 0-.1c.18.24.27.55.3.92.05.57.02 1.09-.07 1.56-.05.24-.06.46-.1.69Z" fill="#D5C4BB"/><path d="M6.4 11.26a1.98 1.98 0 0 1 .02.57l-.01.02a.03.03 0 0 1-.04-.01v-.02a4.17 4.17 0 0 0-.21-1.09l.01-.01a.03.03 0 0 1 .04 0l.04.09c.07.14.12.3.15.45Z" fill="#F3EAE5"/><path d="m10.3 12.57.02.8v.03l.02.01.02.01h.02l.7-.02c.14 0 .29 0 .43-.02.05 0 .1-.02.17-.06l.01-.01v-.04h-.02l-.1-.02h-.02a.04.04 0 0 1 0-.06l.02-.01.1-.02a.02.02 0 0 0 0-.02v-.01c-.03-.02-.03-.06-.02-.11v-.03l-.02-.02a.35.35 0 0 0-.12-.04l-.02-.01a.02.02 0 0 1 0-.03h.02l.13-.02v-.04h-.02c-.05 0-.08 0-.08-.03-.02-.04 0-.08.02-.1h.06l.06.02c.03 0 .05-.02.06-.07a.92.92 0 0 0-.04-.5l.01-.02h.01l.02-.01c.02 0 .04-.02.05-.03.01-.02 0-.03-.02-.04a.16.16 0 0 0-.06-.02h.12l.02.01.02.02.04.14v.01h.02l.14-.3a.02.02 0 0 1 .02 0l.01.01c.02.26.05.41.16.69.06.17.11.34.15.52l-.67.32c-.25-.08-.54-.02-.8.01h-.02a.04.04 0 0 0-.02.05l.02.02c.05.05.09.1.1.18l-.33.1h-.02l-.01-.01a.03.03 0 0 1 0-.03.4.4 0 0 0 .04-.24v-.02h-.05l-.02.03-.03.24-.01.03-.03.02a8.65 8.65 0 0 1-2.39.14c-.1-.4-.2-.8-.27-1.2-.05-.3-.14-.55-.2-.81v-.01h.01l.36.59h.04c.02 0 .02-.02.02-.03a6.42 6.42 0 0 0-.57-1.52l.01-.01a.04.04 0 0 1 .05 0l.58.66c.19.22.5.42.72.67l.02.01h.03l.02-.01v-.03l.02-.17v-.03l-.02-.02c-.13-.1-.3-.28-.54-.52-.23-.23-.52-.35-.73-.62a2.29 2.29 0 0 1 1 .76.06.06 0 0 0 .06 0l.02-.02c.09-.09.2-.11.32-.07l.02.02.01.03-.01.03-.03.01a.33.33 0 0 1-.17-.01.02.02 0 0 0-.03 0v.04c0 .02.01.04.03.05l.05.03c.13.04.3 0 .47-.1h.02v.02a1.33 1.33 0 0 0-.18.84l.01.02a.04.04 0 0 0 .04 0 2.55 2.55 0 0 1 .6-.32c.02 0 .02-.01.02-.02l.4-.8v.01a5.78 5.78 0 0 1-.33 1.1l.02.04c.08.07.16.06.24 0Z" fill="#D5C4BB"/><path d="M6.14 12.16 6 11.15v-.02l.02-.01h.02l.01.01c.07.19.1.4.1.65a1.25 1.25 0 0 0 .02.38v.01h-.04v-.01Z" fill="#D8B79C"/><path d="m11.71 12.03.06.02c.02 0 .03.02.02.04l-.05.03a.04.04 0 0 0-.03.01v.04c.05.16.06.32.03.48-.01.05-.03.07-.06.07l-.06-.02h-.06c-.03.02-.04.06-.02.1 0 .02.03.03.08.02h.01l.01.02v.02l-.13.02-.02.01v.03h.02l.12.05.02.02v.03c-.01.05 0 .1.02.1v.03l-.1.03-.02.01a.04.04 0 0 0 0 .05l.02.01.1.01.01.01.01.02a.03.03 0 0 1 0 .03.36.36 0 0 1-.18.06l-.44.02.5-.08h.02a.01.01 0 0 0 0-.02h-.01l-.4-.03-.03-.01-.02-.02-.13-.45h.06c.03-.02.03-.04.02-.07l-.06-.02c.02-.03.02-.06 0-.08a.04.04 0 0 0-.03-.02h-.47c-.01 0-.03 0-.04-.02a.06.06 0 0 1-.02-.04V12.2l.03-.02c.1-.05.21-.06.34-.02a.07.07 0 0 0 .06-.02l.07-.05.01-.01v-.02l-.01-.01h-.02l-.6-.01h1.37Z" fill="#838383"/><path d="M10.35 12.04h.6l.02.02a.03.03 0 0 1 0 .03l-.08.05a.07.07 0 0 1-.06.02.47.47 0 0 0-.34.02l-.02.02V12.54l.01.04.04.02h.49l.01.02c.02.02.02.05 0 .08H11l-.02.02.02.07.13.45.02.02h.02l.4.03h.02v.02l-.01.01-.5.08-.7.03a.06.06 0 0 1-.04-.02.05.05 0 0 1-.02-.03l-.02-.8v-.43c0-.05 0-.09.05-.11Z" fill="#6F5245"/><path d="M11.25 12.59c-.14-.01-.2-.09-.2-.23 0-.07.03-.11.07-.13l.03-.02.01-.01a.03.03 0 0 0 0-.03h-.04v-.01a.01.01 0 0 1 0-.02c.05 0 .1 0 .16.02.01 0 .02 0 .02.02v.02c0 .04 0 .07.04.1v.02l-.01.01c-.04.02-.05.05-.05.1v.01a.02.02 0 0 1-.03 0c-.04-.02-.05-.06-.04-.11a.03.03 0 0 0 0-.04h-.05c-.04.13 0 .22.1.27v.01a.01.01 0 0 1 0 .02ZM11.57 12.3c.02.02.03.05.02.09 0 .04-.03.04-.08.02l-.02-.01h-.02c-.03.01-.05.04-.05.07l-.01.02a.05.05 0 0 1-.03.02h-.04a.04.04 0 0 1-.03-.02.04.04 0 0 1 0-.04c.03-.07.08-.1.15-.1h.04l.03-.03.01-.01h.03Z" fill="#D5C4BB"/><path d="m6.35 13.3-.03.17v.02l-.02.01c-.04 0-.06 0-.07-.05.07-.34.08-.6.05-.8a.8.8 0 0 1-.03-.26l.02-.01a.02.02 0 0 1 .01.01c.06.17.09.28.1.35 0 .16 0 .35-.03.57Z" fill="#6F5245"/><path d="M11.44 12.71v.06a.1.1 0 0 1-.04.03.16.16 0 0 1-.04.02.2.2 0 0 1-.06 0h-.02a.2.2 0 0 1-.05 0 .16.16 0 0 1-.05-.03.1.1 0 0 1-.03-.03.07.07 0 0 1 0-.04v-.02l.29.01ZM11.32 12.9c0 .04-.07.05-.19.03-.03 0-.04-.01-.04-.04 0-.02.02-.03.05-.03.12 0 .18 0 .18.05Z" fill="#D5C4BB"/><path d="M10.66 13h.16l.01.02v.02l-.01.01a.43.43 0 0 1-.16.01.44.44 0 0 1-.15-.02l-.02-.01V13l.02-.01h.15Z" fill="#838383"/><path d="M11.11 13.01V13h.05a2.98 2.98 0 0 1 .33.03l.03.01v.03l-.1.03H11.11a.02.02 0 0 1-.01 0V13Z" fill="#D5C4BB"/><defs><linearGradient id="a" x1="3.35" y1="3.12" x2="21.9" y2="24.43" gradientUnits="userSpaceOnUse"><stop stop-color="#1A1E21"/><stop offset="1" stop-color="#06060A"/></linearGradient></defs></svg>