<!-- by TradingView --><svg width="18" height="18" viewBox="0 0 18 18" xmlns="http://www.w3.org/2000/svg"><path fill="#F0F3FA" d="M0 0h18v18H0z"/><path d="M4.54 8.87c.11.06.2.04.28-.04a.9.9 0 0 0 .16-.26c.05-.13.07-.23.08-.33 0-.03.02-.05.05-.06a.52.52 0 0 0 .2-.14.07.07 0 0 1 .03-.03.8.8 0 0 0 .26-.11l.01-.03c0-.01 0-.02-.02-.03-.05-.01-.14.04-.25.15a.03.03 0 0 1-.04 0 .03.03 0 0 1-.02-.03V7.9a.1.1 0 0 1 .05-.1l.15-.08c.04-.03.08-.02.11 0 .1.1.18.1.25.04l.01-.03v-.05c0-.02.01-.03.03-.04.02 0 .04 0 .05.02.04.06.07.1.11.1l.12-.01a6.25 6.25 0 0 1 1.34.1c.2.07.38.09.54.06a6.07 6.07 0 0 1 1.7-.1c.06 0 .13.02.23.06.02.01.03.03.03.05.03.11.05.18.08.2.03.05.1.07.22.07l.2-.05a.9.9 0 0 1 .16-.05c.06 0 .11 0 .16.03.04.03.06.06.07.1 0 .03 0 .07-.03.12v.04c-.01.02 0 .03.01.04.08.02.14.07.2.13l.02.03a.2.2 0 0 1 0 .08c0 .05 0 .08.02.1a.4.4 0 0 1-.02.35v.03c0 .02.02.02.04.01a.29.29 0 0 0 .11-.06c.03-.03.06-.03.1-.01.07.03.13.07.18.11l.51.4.2.1c.02 0 .03.01.04.03l.03.07c.01.05.03.08.05.1.1.13.17.25.23.38.02.04.05.06.08.08a.96.96 0 0 0 .35-.01l.02-.04.06-.19c0-.02.01-.02.03-.02a.1.1 0 0 0 .06-.03l.02-.01.16-.29a.1.1 0 0 1 .09-.05h.33c.09-.03.13-.08.13-.16 0-.01 0-.02.02-.03h.03l.04.2a5.6 5.6 0 0 1-1.59 2.75 1.34 1.34 0 0 0-.07-.58v-.12a.08.08 0 0 0-.05-.07l-.18-.1-.02-.01a2.5 2.5 0 0 0-.18-.16 9.5 9.5 0 0 1-.79-.6l-.22-.18a18.47 18.47 0 0 0-.38-.3 1.26 1.26 0 0 0-.54-.3 6.93 6.93 0 0 0-1.46.04l-.35.03a7.73 7.73 0 0 0-.82.07 3.82 3.82 0 0 0-.56-.04 4.26 4.26 0 0 1-.63-.06 2.66 2.66 0 0 1-.9-.34 3.7 3.7 0 0 0-.18-.09c-.02 0-.03 0-.04.02 0 .14.02.23.07.29l.11.12a2.64 2.64 0 0 0 .6.51c.02.04.03.11.03.21 0 .08-.01.16-.03.23a2.4 2.4 0 0 0-.06.51l-.03.23a2.13 2.13 0 0 0-.03.21c0 .22 0 .42-.05.62a.95.95 0 0 0-.04.38c0 .03 0 .05.02.07.05.06.07.11.05.15a5.6 5.6 0 0 1-.57-.4c.16-.39.3-.78.41-1.17.08-.26.12-.52.13-.78 0-.08 0-.13-.02-.17a.3.3 0 0 0-.12-.13c-.17-.1-.33-.28-.49-.5-.1-.17-.15-.32-.13-.46 0-.08-.04-.18-.16-.32-.09-.1-.18-.18-.27-.24a2.26 2.26 0 0 1-.4-.77 3.12 3.12 0 0 1-.05-.97 1.23 1.23 0 0 1 .13-.41 2.07 2.07 0 0 1 .38-.64c.15-.25.32-.47.5-.65.05-.04.1-.12.16-.23a.29.29 0 0 0 .04-.11l.01-.1a.31.31 0 0 0 0-.17c-.02-.07 0-.15.04-.25.05-.11.1-.22.13-.34.04-.13.13-.2.29-.22l.07-.03c.1-.1.21-.14.33-.14h.43c.12 0 .22.01.29.05a26.87 26.87 0 0 1 .92.45h.7a.1.1 0 0 0 .04-.01c.1-.05.23-.07.38-.09a.3.3 0 0 0 .08-.02l.26-.11.05-.01c.45-.03.82-.03 1.13 0l.33.06c.1.02.21.05.31.1l.6.3a4.11 4.11 0 0 1 1.53 1.5l.06.07.02.04c0 .11.05.22.12.34.04.06.05.11.05.16 0 .02 0 .04.02.05.1.04.14.08.13.12 0 .03-.02.04-.05.03a.1.1 0 0 1-.07-.06 1.69 1.69 0 0 0-.31-.5l-.05-.15-.02-.02a.83.83 0 0 1-.14-.2l-.61-.67a.23.23 0 0 0-.07-.05c-.1-.06-.24-.17-.41-.33a2.54 2.54 0 0 0-.3-.2 2.36 2.36 0 0 1-.24-.12c-.18-.1-.33-.15-.43-.17a.32.32 0 0 1-.08-.03c-.2-.09-.37-.13-.53-.13-.03 0-.1-.01-.22-.05-.12-.03-.3-.02-.57.03l-.21.03a.39.39 0 0 0-.1.02l-.19.05a.75.75 0 0 0-.22.06 1.33 1.33 0 0 1-1.32.01 18.86 18.86 0 0 1-.63-.3c-.02 0-.04 0-.05.03 0 .02 0 .04.02.05.14.13.2.3.18.53v.17a.6.6 0 0 1-.13.4c-.08.1-.2.2-.35.3a.22.22 0 0 1-.08.04 1.08 1.08 0 0 1-.77-.14l-.18-.17c-.03-.03-.06-.03-.09 0l-.14.14a18.23 18.23 0 0 0-.73.95c-.1.13-.15.23-.18.32l-.07.24a1.54 1.54 0 0 0-.08.5.34.34 0 0 0-.03.15c.04.4.19.77.45 1.11Z" fill="#00FF04"/><path d="M5.4 5.1v-.21a.1.1 0 0 1 0-.04.57.57 0 0 0 .02-.22v-.06c.07-.17.17-.3.32-.39h.04c.2-.01.32-.02.35-.01a.57.57 0 0 1 .52.4v.02c0 .01 0 .02-.02.03H6.6a.96.96 0 0 1-.07-.05c-.08-.05-.15-.08-.2-.07-.1 0-.16.04-.14.1.01.04 0 .07-.02.1a.09.09 0 0 1-.08.02h-.12a.06.06 0 0 0-.03.03.86.86 0 0 0-.12.36v.03l.18.3v.05c0 .02-.02.04-.04.04-.04.02-.13-.03-.28-.15a3.66 3.66 0 0 0-.1-.06.16.16 0 0 1-.04-.06.3.3 0 0 0-.1-.12.06.06 0 0 1-.03-.04Z" fill="#F0F3FA"/><path d="m10.34 5.3-.01.61c0 .12-.05.24-.12.34-.06.08-.15.17-.27.27a.6.6 0 0 1-.28.12 1.97 1.97 0 0 1-.4.02.62.62 0 0 1-.2-.05 1.2 1.2 0 0 1-.43-.32c-.1-.3-.12-.57-.07-.84.04-.19.15-.38.34-.59.02-.03.1-.07.24-.14.1-.05.19-.08.27-.08.1 0 .23.03.35.08.12.05.22.1.3.17l.04.03.24.38Z" fill="#00FF04"/><path d="m6.55 4.85.02-.02h.01v.02c.04.01.05.05.04.1l-.02.03-.19.18a.72.72 0 0 1-.16.1c-.01 0-.03 0-.04-.02l-.14-.14c-.04-.05-.04-.1 0-.14l.17-.21.03-.02a.35.35 0 0 1 .27.01l.02.02-.01.02-.03.06.02.01h.01Z" fill="#020601"/><path d="m13.96 9.5-.03.01c-.02 0-.02.02-.02.03 0 .08-.04.13-.13.15-.05.01-.13.02-.25.01h-.08a.1.1 0 0 0-.09.05l-.16.29-.02.01a.1.1 0 0 1-.06.03c-.02 0-.03 0-.03.02l-.06.2s-.01.02-.03.02a.95.95 0 0 1-.34.02.15.15 0 0 1-.08-.08 1.87 1.87 0 0 0-.23-.37.29.29 0 0 1-.05-.1.34.34 0 0 0-.03-.08.07.07 0 0 0-.03-.03 1.62 1.62 0 0 1-.2-.1 46.94 46.94 0 0 1-.7-.51c-.04-.02-.07-.02-.1.01a.29.29 0 0 1-.11.06h-.04a.03.03 0 0 1 0-.04.4.4 0 0 0 .02-.34.27.27 0 0 1-.01-.11v-.08a.1.1 0 0 0-.03-.03.47.47 0 0 0-.2-.13c-.02 0-.02-.02-.02-.04l.01-.04.03-.12c0-.04-.03-.07-.07-.1a.24.24 0 0 0-.16-.03.9.9 0 0 0-.15.05.73.73 0 0 1-.21.05c-.11 0-.19-.02-.22-.06A.53.53 0 0 1 10 7.9a.06.06 0 0 0-.03-.05.74.74 0 0 0-.22-.07 6.07 6.07 0 0 0-1.7.11c-.17.03-.35 0-.55-.07a6.25 6.25 0 0 0-1.34-.1.24.24 0 0 1-.12.02c-.04 0-.07-.04-.11-.1-.01-.02-.03-.03-.05-.02-.02 0-.03.02-.03.04v.05l-.01.03c-.07.06-.15.05-.25-.03-.03-.03-.07-.04-.1-.01l-.16.08a.1.1 0 0 0-.05.1v.07c0 .02 0 .03.02.04l.04-.01c.11-.11.2-.16.25-.15l.02.03-.01.03a.8.8 0 0 1-.26.11.07.07 0 0 0-.04.03.52.52 0 0 1-.2.14.07.07 0 0 0-.04.06c0 .1-.03.2-.08.33a.9.9 0 0 1-.16.26c-.07.08-.17.1-.28.04.04 0 .07 0 .08-.03.04-.14.12-.29.2-.43a.06.06 0 0 0 .02-.05.17.17 0 0 0-.06-.09.07.07 0 0 1-.02-.05c0-.02 0-.04.02-.05l.14-.14.02-.03.04-.15a.79.79 0 0 1 .09-.27c.1-.16.2-.35.29-.58.01-.03.06-.07.14-.12a29.9 29.9 0 0 0 .83-.65c.05-.03.13-.06.26-.07a3.37 3.37 0 0 1 .43-.1c.07-.01.14-.1.19-.27.04-.11.06-.23.07-.36 0-.02.02-.04.03-.05a.08.08 0 0 1 .07-.02l.15.02c.05.01.08.04.08.09v.15c0 .02 0 .03.02.04h.05l.17-.12.04-.01c.07-.01.14 0 .21.06a1.07 1.07 0 0 1 .2.2.1.1 0 0 1 .02.06l.01.15c0 .02 0 .03.02.04.08.16.17.24.28.25.13.14.27.25.43.32a.43.43 0 0 0-.03.2c0 .03.02.04.04.05.04 0 .07-.02.11-.07a.57.57 0 0 0 .08-.13 16.29 16.29 0 0 1 .4-.02.6.6 0 0 0 .28-.12c.12-.1.21-.2.27-.27.07-.1.11-.22.12-.34.01-.2.02-.41.01-.6.12.03.17-.05.13-.25 0-.04 0-.05.04-.06.2-.03.3-.1.32-.2 0-.02.02-.04.03-.05.09-.06.18-.04.3.04.06.05.14.1.24.11.06.01.1.05.12.1l.04.08.02.03c.05.02.1.06.15.11v.04c0 .01 0 .02-.02.02h-.1a.05.05 0 0 0-.05.03l.01.06c.1.11.17.23.22.35 0 .02.01.03.03.04h.05l.1-.06a.1.1 0 0 1 .06-.02c.04 0 .07.03.1.08v.05c0 .02-.02.03-.04.03a.33.33 0 0 0-.1.03.06.06 0 0 0-.04.03c-.03.09-.02.16.04.2.04.05.12.07.24.07h.04c.03 0 .05.02.06.05 0 .08.03.14.07.19.11.14.13.28.05.42-.03.05-.03.12 0 .19l.02.1c.03.24.03.44.02.6V8.36c0 .05.02.08.07.09l.24.04a4.41 4.41 0 0 0 .27.23c.07.06.15.09.24.08.03 0 .05.01.05.04l.04.2c.02.07.06.12.13.14l.2.06c.02 0 .04 0 .05-.02a.05.05 0 0 0 .02-.05.45.45 0 0 1 .08-.38c.03-.04.04-.11.04-.23a4.47 4.47 0 0 1 .03-.43l.01.1c0 .24 0 .5.02.77 0 .15 0 .32-.02.5Z" fill="#FFFF01"/><path d="M9.75 6.22h.02v.03c-.06.12-.15.17-.29.16-.2-.02-.4-.1-.6-.23a.08.08 0 0 1-.02-.03c-.1-.17-.14-.35-.13-.55A1.74 1.74 0 0 1 9 4.98c.04-.05.13-.1.27-.16h.06c.3 0 .53.12.69.35v.05c-.02.01-.03.02-.05 0l-.1-.05a.1.1 0 0 0-.04 0c-.1-.02-.17.01-.21.08a.39.39 0 0 0-.06.23l-.01.04a.05.05 0 0 1-.04.01l-.2-.02c-.04-.01-.06 0-.07.05-.04.22 0 .42.12.6l.04.03c.08.04.2.05.36.03Z" fill="#F0F3FA"/><path d="M7.6 5.02c.01-.04.03-.06.07-.05h.01c.12 0 .23.03.3.08.1.04.13.1.13.14v.01c0 .05-.05.1-.14.13a.78.78 0 0 1-.32.03c-.05 0-.07-.03-.06-.07l.02-.27Z" fill="#FFFF01"/><path d="M10.18 5.37c.01 0 .02.01.01.03l-.06.2c0 .01 0 .02-.03.02-.04 0-.08.04-.12.12a.37.37 0 0 1-.04.09c-.08.12-.2.14-.37.07-.03-.01-.05-.04-.04-.07l.04-.26v-.02l.08-.07v-.03c-.03-.04 0-.1.07-.2a.07.07 0 0 1 .08-.01.5.5 0 0 1 .16.08c.01.02.03.02.04.02l.18.03Z" fill="#020601"/><path d="m8.12 5.79-.1.01a.09.09 0 0 0-.07.1l.02.1c0 .06.05.09.1.08h.08c.05-.01.09-.06.08-.1l-.01-.11a.09.09 0 0 0-.1-.08ZM9.26 6.66a.57.57 0 0 1-.08.13c-.04.05-.07.07-.1.07s-.05-.02-.05-.04c0-.08 0-.14.03-.21.07.03.14.05.2.05Z" fill="#F0F3FA"/><path d="M13.05 6.77c.02-.03.02-.07 0-.09-.03-.02-.06 0-.09.02-.02.03-.02.07 0 .09.03.02.07 0 .1-.02ZM13.9 8.01a.24.24 0 0 1-.04-.15c0-.03 0-.05-.02-.07a.36.36 0 0 1-.14-.2c0-.02 0-.03.02-.04h.04c.08.06.1.14.1.23v.05c.05.04.07.1.07.17 0 .01 0 .02-.02.02L13.9 8Z" fill="#FFFF01"/><path d="M4.76 7.74c0-.1-.06-.19-.12-.18-.05 0-.09.1-.08.2.01.1.06.19.12.18.06 0 .1-.1.08-.2Z" fill="#00FF04"/><path d="M13.36 8.67c.01-.04 0-.08-.02-.09-.03 0-.05.03-.06.07-.01.05 0 .09.02.1.03 0 .06-.03.06-.08Z" fill="#FFFF01"/><path d="M13.89 9.44c-.02-.05-.07-.07-.1-.06-.03.02-.04.06-.02.11s.06.07.1.06c.03-.02.04-.07.02-.11Z" fill="#F0F3FA"/><path d="M9.25 11.72c.01 0 .02 0 .03.02v.03l-.03.03a.08.08 0 0 1-.09.03l-.15-.04-.56-.02h-.03a1.77 1.77 0 0 0-.68-.07h-.1l-.7-.18a.45.45 0 0 1-.1-.06.79.79 0 0 0-.1-.06 2.92 2.92 0 0 1-.4-.23.05.05 0 0 1-.02-.05c0-.02 0-.03.02-.04h.04l.4.1c.06.02.13.07.22.16a.1.1 0 0 0 .07.03l.26.03.49.14h.03c.16 0 .3.03.43.08l.1.02c.1 0 .2.02.3.04a2.63 2.63 0 0 0 .57.04ZM8.36 12.2l.02.01c0 .02 0 .02-.02.03l-.38.08h-.02a.5.5 0 0 1-.07-.05.38.38 0 0 0-.09-.06 1.08 1.08 0 0 0-.14-.03.5.5 0 0 1-.24-.1v-.03l.01-.01a1.26 1.26 0 0 1 .81.13l.12.02ZM5.65 12.6c-.01.03 0 .06.02.08h.17c.02 0 .04 0 .06.03.02.04.12.13.31.27.06.05.15.08.27.1.12 0 .2.03.25.06l.18.15c.03.02.06.02.09.01a.43.43 0 0 1 .17-.02c.01 0 .02 0 .03-.02l.03-.07c0-.03.02-.05.05-.06.04 0 .07 0 .09.03.06.05.13.1.22.12.1.03.19.02.25-.03l.01-.03.01-.1c0-.02 0-.02.02-.03h.02c.02.02.03.04.03.08 0 .02 0 .03.02.04.06.03.13.02.22-.02.03-.02.07-.01.1.02.03.04.07.06.1.08l.05.01.45.01c.05 0 .14.03.26.06l.07.01.66.03h.02l.12.06c.16.09.34.1.52.02l.04-.01c.1-.01.2 0 .29.03-.55.24-1.11.4-1.7.46 0-.03-.02-.05-.04-.07a3.06 3.06 0 0 0-.77 0l-.32.07a5.52 5.52 0 0 1-2.34-.77c.02-.04 0-.09-.05-.15a.12.12 0 0 1-.02-.07.95.95 0 0 1 .04-.38Z" fill="#FFFF01"/><path d="M9.14 13.97c-.37.04-.74.04-1.12 0l.32-.08a3.06 3.06 0 0 1 .77.01c.02.02.03.04.03.07Z" fill="#00FF04"/></svg>