<!-- by TradingView --><svg xmlns="http://www.w3.org/2000/svg" width="18" height="18"><path fill="#6DD9ED" d="M0 0h18v18H0z"/><path fill-rule="evenodd" d="M6.12 8.6l-.74-2.67a.5.5 0 01.6-.63l2.69.6c.22.04.44.04.66 0l2.7-.6a.5.5 0 01.6.63l-.75 2.66c-.07.27-.07.55 0 .82l.74 2.66a.5.5 0 01-.6.63l-2.69-.6a1.52 1.52 0 00-.66 0l-2.7.6a.5.5 0 01-.6-.63l.75-2.66c.07-.27.07-.55 0-.82zm-.03 4.6c-.75.16-1.4-.53-1.2-1.26l.74-2.67a.99.99 0 000-.54l-.74-2.67c-.2-.73.45-1.42 1.2-1.26l2.69.6c.15.03.3.03.44 0l2.7-.6c.74-.16 1.4.53 1.2 1.26l-.75 2.67a.99.99 0 000 .54l.74 2.67c.2.73-.45 1.42-1.2 1.26l-2.69-.6c-.14-.03-.3-.03-.44 0l-2.7.6z" fill="#fff"/><path fill-rule="evenodd" d="M7.25 6.67l1.36-2.4a.5.5 0 01.87-.03l1.48 2.33c.12.19.28.35.47.47l2.33 1.48a.5.5 0 01-.02.87l-2.41 1.36c-.24.14-.44.34-.58.58l-1.36 2.4a.5.5 0 01-.87.03l-1.48-2.33a1.52 1.52 0 00-.47-.47L4.24 9.48a.5.5 0 01.02-.87l2.41-1.36c.24-.14.44-.34.58-.58zM3.97 9.91a1.01 1.01 0 01.05-1.74l2.4-1.36c.16-.1.3-.23.39-.39l1.36-2.4c.38-.67 1.33-.7 1.74-.05l1.48 2.33c.08.12.19.23.31.31l2.33 1.48c.65.41.62 1.36-.05 1.74l-2.4 1.36c-.16.1-.3.23-.39.39l-1.36 2.4c-.38.67-1.33.7-1.74.05L6.61 11.7a1.01 1.01 0 00-.31-.31L3.97 9.91z" fill="#fff"/><path d="M9.6 7.62l1.18 1.02v1.54h-.9V9h.3v.89h.3V8.77l-.89-.76-.89.76V9.9H9v.3h-.6V8.63l1.2-1.02z" fill="#fff"/><path d="M8.4 7.62L7.23 8.64v1.54h.9V9h-.3v.89h-.3V8.77l.89-.76.89.76V9.9H9v.3h.6V8.63L8.4 7.62z" fill="#fff"/></svg>