<!-- by TradingView --><svg width="18" height="18" viewBox="0 0 18 18" xmlns="http://www.w3.org/2000/svg"><path fill="#713FFE" d="M0 0h18v18H0z"/><path d="M12.46 5.48 9.69 7.97c-.03.02-.03.04 0 .07l1.16 1.02 1.58 1.4a.38.38 0 0 1-.13.2l-2.64 2.36-5.4-4.8A.57.57 0 0 0 4 8.12c0-.08.02-.13.04-.14L9.6 3.02c.03-.03.05-.03.08 0l2.77 2.46Z" fill="#fff"/><path d="M10.85 9.06 9.7 8.04c-.03-.03-.03-.05 0-.07l2.77-2.49.03.01v.03l-.01 1.89a.2.2 0 0 1-.07.15l-1.54 1.37c-.02.02-.03.06-.02.13Z" fill="#AB87FF"/><path d="m9.66 13.02.04 1.97c-.04.02-.08 0-.13-.04l-5.52-4.9a.14.14 0 0 1-.05-.1V8.1c.11.02.2.06.26.11l5.4 4.8Z" fill="#CAB3FF"/><path d="m9.7 15-.04-1.98 2.64-2.36a.38.38 0 0 0 .13-.2c.03 0 .04 0 .06.02l.01.05c-.01.64-.02 1.28 0 1.93a.1.1 0 0 1-.04.08L9.7 14.99Z" fill="#AB87FF"/></svg>