<!-- by TradingView --><svg width="18" height="18" xmlns="http://www.w3.org/2000/svg"><path fill="url(#paint0_linear)" d="M0 0h18v18H0z"/><path d="M6.619 10.326c.093.158.406.68.532.751.01.574.334 1.024.785 1.337 1.076.747 2.677.968 3.907.533.279-.098.63-.29.802-.439-.036.22-.757.7-1.032.804-.677.254-1.438.267-2.143.145a4.203 4.203 0 01-1.283-.433c-.468-.25-.853-.62-1.202-1.02-.31-.584-.349-1.17-.366-1.678z" fill="#90BCCF"/><path d="M7.09 12.81c-.164-.248-.213-.506-.211-.795.258.2 1.227 1.682 3.602 1.595.738-.027 1.526-.243 2.044-.802l.093-.102c0 .5-.371.73-.479.805-.473.332-1.139.459-1.71.48-1.107.06-2.665-.16-3.34-1.182z" fill="#2D5163"/><path d="M7.652 11.38c.049.228.312.955.409 1.01.361.211.73.378 1.133.49a4.882 4.882 0 001.91.153 3.016 3.016 0 001.72-.771c.474-1.064.338-2.43-.208-3.445a4.157 4.157 0 00-.406-.612c-.603-.48-1.617-.433-2.177-.288-.777.201-1.872.903-2.244 1.698-.165.528-.28 1.102-.137 1.764z" fill="#536976"/><path d="M7.863 12.253c-.828-.637-.718-1.649-.233-2.475-.488 1.567.239 2.469.233 2.475z" fill="#ECDE69"/><path d="M4.287 10.51a.46.46 0 00-.125.297.18.18 0 01-.103-.124.347.347 0 01.172-.377c0 .073.024.14.056.204z" fill="#E2F0F0"/><path d="M6.58 4.572c.177-.131-.56-.525-.834-.411 0 .241.2.512.349.713l.053.074a.484.484 0 00.11-.095c.086-.082.21-.2.321-.28zm3.25-.396c-.151-.013-.393.248-.469.357-.077.11.273.334.278.327a4.21 4.21 0 01.041-.084c.09-.178.211-.422.15-.6zm3.924 5.786a.405.405 0 00-.174.058c-.253.143-.334.45-.397.714l-.002.19h.003l.007.002.004-.004.003-.004c.051-.07.353-.488.41-.57a.467.467 0 01-.282-.008l.02-.003a1.16 1.16 0 00.145-.031.318.318 0 00.159-.09.514.514 0 00.104-.254zm-8.695.767c-.149-.266-.414-.455-.708-.284.06.12.212.137.33.15h.002c-.156.08-.28.03-.396-.084a.464.464 0 00-.125.297c.097.07.27.047.377.033-.027.106-.321.085-.39.06-.004.064 0 .128.003.192l.002.027c.088.038.21-.016.303-.057l.04-.018c-.037.044-.153.171-.153.171s.25.454.411.65a.558.558 0 00.331-.288.927.927 0 00-.027-.85zm8.94-.762a.355.355 0 00-.224-.015c.01.093.01.184-.033.277.105-.045.254-.128.257-.262z" fill="#F3968D"/><path d="M4.15 10.9c-.006.074 0 .146.004.22-.155-.028-.178-.2-.135-.327.033.051.08.08.13.108z" fill="#E2F0F0"/><path d="M6.367 8.393c.116-.038.227-.07.35-.078l.002-.004-.002.004.027.002c.05.002.098.005.147.018.011.003.016-.004.02-.011l.004-.005a3.46 3.46 0 011.493-1.166h-.005l.016-.005a2.56 2.56 0 01-.372-.012c.125-.01.25-.026.374-.046.45-.074.903-.195 1.223-.548.599-.64.16-1.297-.221-1.84l-.008-.01c-.026-.036-.086-.115-.037-.183.078-.114.301-.283.449-.332-.054-.239-.585.015-.754.096l-.033.016a.119.119 0 01-.09.006c-.642-.188-1.455-.193-1.996-.113a3.82 3.82 0 00-.827-.177c-.126-.01-.382-.025-.373.164.147-.11.999.22.813.414-.176.128-.233.219-.347.4l-.03.049c-.157.25-.254.52-.264.817-.01.311.097.567.34.763.34.274.751.383 1.156.489l.14.037c-.189 0-.392-.041-.575-.087h.002a1.99 1.99 0 01-.746-.352c-.013-.01-.02-.01-.027.006l-.078.145-.011.021c-.294.562-.51 1.174-.536 1.815-.011.279.016 1.404.54.98.129-.104.235-.229.332-.36.035-.048.101-.062.167-.076.045-.01.09-.019.123-.039.105-.062.138-.262-.007-.294-.074-.015-.15-.003-.224.008l-.008.001c.133-.106.286-.122.394.02a.37.37 0 00.064-.17c.016-.234-.378-.102-.478-.065.154-.13.34-.23.516-.067.034.031.116-.082.007-.14-.293-.223-.691.01-.977.178l-.097.056c.078-.09.244-.239.313-.282.15-.327.25-.726-.174-.857a.566.566 0 01.179.024c.343.107.2.55.106.79zm2.745-1.831c-.254-.066-.411-.233-.505-.474-.164.28-.427.385-.717.474l.052-.035c.159-.104.586-.387.608-.572a.617.617 0 01-.116-.106c-.067-.082-.042-.152.061-.17a.507.507 0 01.257.024c.062.022.103.083.061.145a.386.386 0 01-.122.106c0 .253.231.469.421.608zm-.275-1.69a.567.567 0 00-.047.177c-.005.098.09.095.155.092h.034l.112.002c.203.004.405.008.586.122.11.069.146.16.114.287a.537.537 0 01-.404.364c-.313.044-.551-.479-.616-.733-.15-.086.005-.345.102-.414a.917.917 0 01-.036.103zm-.752-.133c-.026-.042-.053-.084-.077-.128a.918.918 0 01.266.311c.076.137-.002.227-.14.221-.037-.001-.15.15-.257.295-.082.11-.16.216-.2.246-.314.238-.787.066-.923-.297-.128-.342.38-.386.594-.391.195-.004.388.02.581.043h.001l.028.003c.065.009.13.017.196.016.076 0 .085-.014.057-.087-.032-.084-.079-.158-.126-.232zm2.76 2.552c-.054.02-.166.006-.247-.048a.18.18 0 01-.078-.01l-.028-.007c-.566-.095-1.367-.109-1.876.23.127.052.228.16.247.303.044.329-.313.575-.547.736l-.011.008c-.204.14-.467.311-.716.34l-.03.005c-.127.018-.371.053-.383-.228-.01.013-.023.032-.035.052-.025.04-.053.084-.083.1a.507.507 0 01-.119.253c-.006.008-.006.016-.007.025a.235.235 0 01-.096.187l-.027.02-.017.012c-.061.223-.173.89-.173 1.056l.064.123c.114.227.315.628.468.628 0-.447.15-.882.366-1.268.485-.865 1.305-1.56 2.24-1.866.696-.228 1.527-.303 2.208.016l.002.001c.004.002.008.004.011-.002v-.001-.004l-.015-.015a3.208 3.208 0 00-.713-.523c-.023-.012-.048-.015-.073-.018-.023-.003-.045-.005-.067-.015l-.007-.003c-.029-.013-.058-.027-.091-.017-.051.013-.122-.037-.162-.066l-.004-.004zm1.503.625c-.087-.39-.256-.727-.566-.987a3.372 3.372 0 00-.303-.214c-.408-.266-.91-.594-.653-1.091.342-.665 1.363.113 1.62.436.556.7.786 1.735.548 2.61a2.531 2.531 0 01-.152.427 4.517 4.517 0 00-.444-.784 2.06 2.06 0 01-.05-.397zm-6.113 2.788c-.231-.212-.647-.213-.924-.177-.034.004.615.956.666 1.03l.002.005c-.214-.09-.422-.403-.535-.596a6.42 6.42 0 01-.127-.23c-.102-.19-.205-.384-.347-.541a.421.421 0 00-.48-.124c-.162.061-.221.224-.138.373.12-.06.238-.083.368-.026.4.172.561.783.366 1.16a.561.561 0 01-.33.287l.004.007a.15.15 0 00.008.012c.272.36.648.793 1.106.89.203.09.496.05.686-.054.238-.131.236-.38.234-.607 0-.065-.001-.128.004-.185v-.003c.001-.017.003-.032-.005-.049a4.163 4.163 0 01-.34-2.407l-.064.07c-.03.031-.058.063-.088.093l-.015.012-.043.04a.765.765 0 01-.24.156c-.12.044-.216.018-.296-.082a2.945 2.945 0 00-.032-.04 2.536 2.536 0 01-.17-.802c-.027.167-.04.338-.044.507v.006a5.922 5.922 0 00.03.82c0 .022 0 .044.009.064h-.001l.041.11c.123.006.534.065.695.28zm.048-.239v.001zm6.848-.752l-.09.02c.073.242.141.62.141.994.023-.046.046-.096.07-.148.15-.328.336-.73.746-.613a.223.223 0 00-.086-.211c-.21-.167-.526-.098-.781-.042zm-2.554-2.892c-.008.013-.017.041-.027.072-.019.061-.042.133-.069.126-.093-.021-.189-.034-.284-.046-.103-.013-.207-.026-.306-.052.03-.058.734-.193.83-.147.14.066.334.36.087.423-.109.032-.198-.022-.22-.135-.013-.065-.012-.13-.011-.196v-.045zM6.63 12.783c.116-.084.195-.187.198-.337.006 0 .006.004.007.007v.002a1.267 1.267 0 00.11.278c.009.017.01.023-.012.025l-.294.024-.009.001zm4.29-5.547c.087-.065.108-.15.084-.251h.003l.003-.001a.874.874 0 00.024.026c.018.019.036.038.05.06.035.055.027.112-.006.166-.03.048-.124.052-.157 0zm.32.04c.017-.058-.007-.102-.05-.148 0 .015-.018.077-.032.123a.471.471 0 00-.014.053c.028.023.085.007.095-.028z" fill="#E2F0F0"/><path d="M10.512 10.896a.037.037 0 01.026-.01c.042.004.083-.003.124-.006.075-.006.15-.014.225-.009.064.004.127-.013.19-.006.015.002.026-.01.04-.01.07-.004.137-.014.206-.01.01 0 .02.002.031.005.006.002.019-.004.018.008-.001.01-.013.006-.02.008-.047.01-.095 0-.142.01a.095.095 0 01-.052-.004c-.024-.008-.048-.015-.069.01-.006.007-.014.004-.022.004-.127-.002-.254.027-.381.016-.035.02-.073.014-.111.017a.083.083 0 01-.063-.023zM11.404 10.857c.003-.01.011-.011.019-.012.085-.014.171-.02.257-.016h.005c.052.005.103-.008.154-.015l.016-.001h.26c.006 0 .016-.004.018.005.002.009-.007.01-.013.013-.006.003-.013.007-.02.007h-.34c-.069 0-.137.009-.206.014a5.332 5.332 0 01-.126.008c-.008 0-.017.002-.024-.003z" fill="#374D5A"/><path d="M7.338 5.723a.543.543 0 01-.31-.122.587.587 0 01-.186-.22.325.325 0 01-.014-.04c-.03-.097.015-.145.099-.186.014-.007.014.003.014.011v.005a.591.591 0 00.034.17c.067.174.19.279.376.292a.432.432 0 00.43-.234.592.592 0 00.07-.252c.002-.026.009-.032.034-.028.027.005.055.008.083.011l.036.004h.002c.01.001.018.002.01.017-.119.195-.25.378-.444.503a.426.426 0 01-.234.069zm3.273 1.53c-.453-.077-.96-.11-1.45.01l-.039.01c-.167.042-.366.091-.506.184.13.054.25.173.27.318.067.486-.967 1.08-1.392 1.13-.157.02-.317-.09-.317-.241-.007-.022-.024.003-.044.035-.022.033-.049.074-.075.074v-.047a.32.32 0 00.068-.091c.013-.024.099-.232-.133-.28.392-.518.922-.921 1.523-1.149.646-.245 1.31-.253 1.977-.097.03.006.055.048.078.087a.305.305 0 00.04.057zm-.896-1.755a.136.136 0 00-.011-.087.402.402 0 00-.002.03c-.016.183-.14.294-.321.28-.152-.012-.253-.097-.315-.234a.67.67 0 01-.052-.24v-.005c0-.008 0-.016-.012-.016l-.054-.004a7.298 7.298 0 00-.058-.003V5.228c.044.123.094.244.162.356.046.078.097.15.17.204a.21.21 0 00.202.032.46.46 0 00.292-.322z" fill="#FEFEFE"/><path d="M7.023 5.144c.006.233.143.406.388.406.218.001.337-.195.355-.39.007-.054.007-.054-.047-.06l-.011-.001c-.02-.003-.036-.005-.036.023-.004.162-.092.332-.273.325-.18-.006-.252-.168-.25-.33 0-.017-.005-.022-.021-.018a1.186 1.186 0 01-.085.016c-.018.003-.022.012-.02.03zm2.592.193c-.002-.015-.012-.02-.029-.024v.067a.185.185 0 01-.044.11c-.084.097-.238.075-.305-.041a.369.369 0 01-.043-.149v-.024c.002-.016.003-.033-.008-.04-.011-.007-.027-.007-.043-.006h-.026c-.018-.003-.02.006-.02.021a.643.643 0 00.043.2c.056.136.193.212.326.178a.183.183 0 00.132-.112.37.37 0 00.017-.18z" fill="#F5F818"/><path d="M8.722 5.783a3.468 3.468 0 01-.102.117l-.114-.135a.43.43 0 01.216.018z" fill="#F3968D"/><defs><linearGradient id="paint0_linear" x1="3.349" y1="3.122" x2="21.904" y2="24.434" gradientUnits="userSpaceOnUse"><stop stop-color="#1A1E21"/><stop offset="1" stop-color="#06060A"/></linearGradient></defs></svg>