<!-- by TradingView --><svg width="18" height="18" viewBox="0 0 18 18" xmlns="http://www.w3.org/2000/svg"><path fill="#F0F3FA" d="M0 0h18v18H0z"/><path d="M11.78 4.85c-.3.18-.6.36-.86.56a.28.28 0 0 1-.18.06.67.67 0 0 1-.18-.05 1.71 1.71 0 0 0-.3-.08 6.17 6.17 0 0 0-3.09.12c-.07.02-.13.01-.17-.03a3.75 3.75 0 0 0-.69-.45c-.03-.02-.07-.06-.1-.12a5.01 5.01 0 0 1 5.57 0Z" fill="#FA0701"/><path d="M6.2 4.86c.04.06.08.1.11.12.25.13.48.28.7.45.03.04.1.05.17.02h.03a6.17 6.17 0 0 1 3.53.02c.06 0 .12-.02.18-.06.27-.2.56-.38.86-.56l.4-.15a2 2 0 0 1 .3-.06c.41-.07.64.22.68.87l.03.78c-.05.43-.12.85-.2 1.26a.55.55 0 0 0 .02.31c.15.39.26.71.32.98.05.19.13.62.27 1.31 0 .07.03.13.07.18l.1.18c0 .15-.05.27-.14.35a5.99 5.99 0 0 0-.12-.03c-.07-.01-.1 0-.12.05v.06l.13.16-.05.1a.45.45 0 0 1-.33.14.4.4 0 0 0-.3.15c-.37.44-.83.75-1.36.95-.54.2-1.1.32-1.69.38-.13.01-.21 0-.25-.05l1.06-.26c.37-.08.7-.19 1-.32a2.6 2.6 0 0 0 1-.75c.14-.22.33-.32.56-.3.02 0 .03 0 .05-.02a.05.05 0 0 0 0-.05l-.14-.44a.08.08 0 0 1 .02-.1.08.08 0 0 1 .1-.01l.29.11c.02.01.04 0 .05-.01a.05.05 0 0 0 .02-.06c-.1-.22-.16-.4-.18-.53l-.24-1.17a6.94 6.94 0 0 0-.4-1.18c.23-.8.3-1.58.2-2.35-.02-.09-.05-.2-.12-.35-.08-.18-.33-.18-.75 0-.44.18-.83.43-1.16.74a.05.05 0 0 1-.05 0 5.73 5.73 0 0 0-3.77 0 .11.11 0 0 1-.13-.02 3.8 3.8 0 0 0-1.12-.72c-.2-.08-.35-.13-.47-.13-.18-.01-.3.07-.34.25-.07.25-.1.5-.1.73a6.99 6.99 0 0 0 .22 1.92l-.32.9c-.11.42-.2.84-.28 1.24-.05.26-.11.49-.2.68l.01.05h.04l.33-.1c.02-.01.05 0 .07.01.02.02.03.04.03.07v.07l-.18.4.01.06c.02.02.03.03.06.03.1-.01.18 0 .27.02.06.02.13.07.21.16l.41.43c.3.25.68.45 1.11.58a11.35 11.35 0 0 0 1.52.39l.27.08c-.85 0-1.61-.15-2.3-.45a3.13 3.13 0 0 1-1.2-.93c-.05-.08-.14-.1-.25-.1-.02 0-.03.01-.03.04l-.02.16a.59.59 0 0 0-.12-.2.73.73 0 0 1-.13-.17.41.41 0 0 1 0-.26c.01-.02 0-.03-.02-.04a.56.56 0 0 1-.27-.1.1.1 0 0 1-.03-.13c.04-.13.05-.26.05-.39.1-.06.15-.15.16-.25.1-.82.28-1.52.52-2.12.06-.13.07-.23.05-.32a3.36 3.36 0 0 1-.13-.63 6.2 6.2 0 0 1-.06-1.41c.05-.62.26-.92.63-.89.24.02.5.1.75.23.02.01.04.02.06.01l.05-.01Z" fill="#030101"/><path d="M8.51 5.43c-.02.44-.11.86-.29 1.26a.4.4 0 0 1-.06.1.37.37 0 0 0-.06.1 6.69 6.69 0 0 1-.43.61c-.08.1-.17.18-.27.24-.05.04-.04.06.01.08.19.08.33.2.43.35a.88.88 0 0 0-.88-.2.76.76 0 0 0-.33.15c-.16.16-.32.31-.5.46v.05l.03.05a.33.33 0 0 1-.2-.1.06.06 0 0 0-.05-.02c-.35.08-.72.1-1.1.08l.33-.9a2.9 2.9 0 0 1-.13-2.65c.05-.17.17-.25.35-.24.12 0 .27.05.47.13.44.19.81.43 1.12.72.04.03.08.04.13.02a5 5 0 0 1 1.43-.3Z" fill="#FABD08"/><path d="M6.37 6.2c-.3.24-.58.57-.83.97-.04.08-.1.1-.16.07a.09.09 0 0 1-.04-.06 5.2 5.2 0 0 1-.15-1.59c.01-.12.04-.23.09-.33.06-.15.2-.16.42-.05.35.17.66.39.92.64a.1.1 0 0 1 .03.08.1.1 0 0 1-.03.08 5.1 5.1 0 0 1-.25.2ZM11.54 6.2c-.11-.08-.2-.14-.25-.2a.1.1 0 0 1-.04-.07.1.1 0 0 1 .04-.08c.26-.26.57-.47.92-.65.22-.1.36-.09.43.06.04.1.07.21.08.33.03.54-.02 1.07-.15 1.6 0 .02-.02.04-.04.05-.06.04-.12.02-.16-.06a3.38 3.38 0 0 0-.83-.97Z" fill="#030101"/><path d="M6.42 5.95c-.39.29-.69.6-.9.95-.04.07-.07.07-.09-.01-.07-.37-.1-.75-.09-1.12 0-.15.03-.29.06-.41 0-.03.02-.05.05-.06a.08.08 0 0 1 .07 0c.34.16.64.35.9.6.03.02.03.03 0 .05ZM11.49 5.95c-.03-.02-.03-.03 0-.05.26-.24.56-.44.9-.6a.08.08 0 0 1 .07 0c.02.02.04.04.04.06.04.12.06.26.06.4.01.38-.02.75-.1 1.12 0 .08-.03.09-.07.02a3.3 3.3 0 0 0-.9-.95Z" fill="#FABD08"/><path d="M13.77 10.5a4.12 4.12 0 0 0-.1-.17.53.53 0 0 1-.07-.18c-.14-.69-.22-1.12-.27-1.3-.06-.28-.17-.6-.32-.99a.55.55 0 0 1-.02-.31c.08-.4.15-.83.2-1.26a4.97 4.97 0 0 1 .58 4.22ZM4.18 10.25c-.06-.15-.1-.34-.14-.55-.14-1.2.08-2.3.68-3.3.03.17.05.35.06.53.01.17.06.38.13.63.02.09 0 .2-.05.32-.24.6-.41 1.3-.51 2.12a.35.35 0 0 1-.17.25Z" fill="#EC0D07"/><path d="M10.66 7.83a.8.8 0 0 1 .65.08c.12.06.26.18.42.35l.14.1.1.06c.02.02.03.05.03.08 0 .02-.01.05-.04.06l-.04.03a.27.27 0 0 0-.11.1 4.43 4.43 0 0 1-.36.55.75.75 0 0 1-.58.2 1.52 1.52 0 0 1-.42-.06c-.18-.08-.35-.11-.51-.1-.03 0-.03-.02-.03-.04l.16-.76a.8.8 0 0 1 .6-.65ZM7.84 8.17c.1.15.18.31.2.5a16.68 16.68 0 0 0 .13.58c.06.08.05.11-.04.1-.11 0-.27.04-.47.1-.26.09-.5.1-.74.04-.23-.06-.42-.27-.59-.63a.39.39 0 0 0-.17-.18l-.03-.05v-.05c.18-.15.34-.3.5-.46a.76.76 0 0 1 .33-.16c.33-.1.62-.02.88.21Z" fill="#030101"/><path d="M11.59 8.64c0 .2-.07.36-.2.5-.14.13-.3.2-.5.2a.67.67 0 0 1-.48-.2.67.67 0 0 1-.2-.5c0-.2.06-.36.2-.5.13-.13.3-.2.49-.2s.35.07.49.2c.13.14.2.3.2.5ZM7.89 8.75c0 .2-.08.35-.22.48s-.3.2-.5.19a.67.67 0 0 1-.48-.22.66.66 0 0 1-.2-.5c.01-.19.09-.35.23-.48s.3-.19.5-.18c.19 0 .35.08.48.22.13.13.2.3.19.5Z" fill="#F9EDB9"/><path d="M11.04 8.14c.09.17.14.34.15.5 0 .1-.02.18-.07.26l-.14.23a.06.06 0 0 1-.05.04h-.13a.9.9 0 0 1-.29-.55c.08 0 .14-.01.18-.06a.72.72 0 0 0 .13-.3l-.01-.05a.11.11 0 0 0-.07-.04c-.04-.01-.04-.03-.01-.05.1-.09.21-.08.3.02ZM7.55 8.73c-.02.16-.1.33-.24.52-.04.02-.1.03-.17 0a4.7 4.7 0 0 1-.2-.32.56.56 0 0 1-.04-.34c.01-.05.04-.12.09-.2l.1-.19a.21.21 0 0 1 .23-.03c.02 0 .02.02.03.03l-.01.04c-.08.08-.09.18-.03.29.06.1.14.16.24.2Z" fill="#5B3304"/><path d="M10.84 9.17h.09c.02 0 .04-.02.05-.04l.14-.23a.42.42 0 0 0 .07-.26c-.01-.16-.06-.33-.15-.5.24.07.38.22.4.44a.53.53 0 0 1-.11.44c-.12.13-.28.18-.5.15ZM7.09 8.2l-.1.2a.61.61 0 0 0-.09.2c-.02.12 0 .23.04.33l.2.33c-.21.01-.36-.08-.45-.28a.43.43 0 0 1-.04-.24l.02-.16c0-.06.01-.1.05-.15.08-.12.2-.2.37-.23ZM10.51 8.62c.02.2.12.38.3.56a.66.66 0 0 1-.41-.3c-.06-.1-.07-.24-.03-.41 0-.02 0-.03.02-.03l.02-.01.02.01c0 .09.03.15.08.18ZM7.3 9.25c.15-.19.24-.36.25-.52.03 0 .06-.01.08-.03.03-.03.03-.07.02-.14v-.02c0-.03 0-.03.03-.02h.02l.02.03c.05.3-.05.54-.3.7h-.11Z" fill="#E5BD31"/><path d="M8.95 9.95a.6.6 0 0 1 .32.1c.04.02.06.05.06.09 0 .04 0 .07-.03.1a.59.59 0 0 1-.22.14c-.07.03-.09.08-.06.14.06.1.12.17.2.2.08.03.16 0 .24-.07a3.19 3.19 0 0 0 .16-.13l.02.03v.02c.01.03.01.05 0 .07-.2.29-.42.31-.66.08l-.04-.02s-.02 0-.03.02c-.25.23-.47.2-.66-.1a.06.06 0 0 1-.01-.05l.01-.03.02-.02h.03l.12.12c.08.08.17.1.25.07.08-.02.14-.09.2-.19.03-.06.01-.11-.06-.14a.59.59 0 0 1-.22-.14.12.12 0 0 1-.03-.1c0-.05.02-.08.06-.1a.6.6 0 0 1 .33-.09Z" fill="#030101"/><path d="M11.37 11.1c.25 0 .45-.1.45-.23s-.2-.22-.46-.22c-.24 0-.44.11-.44.24s.2.22.45.22ZM6.52 11.1c.25 0 .45-.1.46-.21 0-.13-.2-.22-.46-.23-.25 0-.45.1-.45.22s.2.22.45.22Z" fill="#E5BD31"/><path d="M4.82 10.67a30.22 30.22 0 0 1 .4.37c.36.4.75.67 1.15.81.44.15.9.27 1.37.36.79.14 1.56.15 2.32.01.34-.06.68-.13 1.01-.22.61-.15 1.15-.46 1.6-.94a.4.4 0 0 1 .17-.11c.06-.02.07 0 .02.04l-.34.35a.04.04 0 0 0 0 .04c0 .02.01.03.03.04l.05.02c-.27.33-.6.58-1 .75-.3.13-.63.24-1 .32-.34.08-.7.16-1.06.26l-1.04.05a10.64 10.64 0 0 1-.53-.15c-.4-.08-.82-.18-1.26-.32-.43-.13-.8-.33-1.11-.58a8.14 8.14 0 0 1-.4-.43.54.54 0 0 0-.22-.16.76.76 0 0 0-.27-.02c-.03 0-.04-.01-.06-.03a.06.06 0 0 1 0-.06l.17-.4Z" fill="#D4CADD"/><path d="m13.63 10.86-.11.24-.12-.16a.06.06 0 0 1-.01-.06c.02-.04.05-.06.12-.05l.12.03Z" fill="#EC0D07"/><path d="M13.47 11.2a4.68 4.68 0 0 1-1.65 1.93 5 5 0 0 1-7.12-1.59l.02-.16c0-.03.01-.04.03-.04.11 0 .2.02.26.1.32.4.72.71 1.2.93.68.3 1.44.45 2.29.45l1.04-.05c.04.05.12.06.25.05a6.82 6.82 0 0 0 1.69-.38c.53-.2.99-.51 1.35-.95a.4.4 0 0 1 .31-.15c.14 0 .25-.05.33-.13Z" fill="#FA0701"/></svg>