<!-- by TradingView --><svg width="18" height="18" viewBox="0 0 18 18" xmlns="http://www.w3.org/2000/svg"><path fill="#F0F3FA" d="M0 0h18v18H0z"/><path fill-rule="evenodd" d="M14 9a4.98 4.98 0 0 1-1.5 3.57c-1.4 1.5-3.05 2.34-3.65 2.43l-.5-1.04A5 5 0 1 1 14 9Zm-8-.01C6 7.37 7.47 6 9.22 6c1.38 0 2.33.75 2.64 1.2.1.14.14.29.14.43 0 .28-.21.54-.53.54a.63.63 0 0 1-.42-.17 2.22 2.22 0 0 0-1.88-1C7.97 7 7 7.9 7 9s.97 2 2.17 2a2.2 2.2 0 0 0 1.89-1.02c.1-.15.21-.27.4-.27.34 0 .54.25.54.53 0 .22-.1.45-.23.62A3.37 3.37 0 0 1 9.22 12C7.58 12 6 10.68 6 8.99Z" fill="#1666FF"/></svg>