<!-- by TradingView --><svg width="18" height="18" viewBox="0 0 18 18" xmlns="http://www.w3.org/2000/svg"><path fill="#F0F3FA" d="M0 0h18v18H0z"/><path d="M4.25 12.39A5.9 5.9 0 0 1 3.5 9.5c0-3.31 2.73-6 6.1-6 2 0 3.8.96 4.9 2.45l-.82.59A5.1 5.1 0 0 0 4.52 9.5c0 .89.23 1.72.64 2.44l-.9.45Zm8.61-5.26A4.08 4.08 0 0 0 5.53 9.5a4.03 4.03 0 0 0 4.17 4v-1h-.1a3.02 3.02 0 0 1-3.05-3 3.06 3.06 0 0 1 5.5-1.78l.81-.59Zm-1.64 1.18A2.04 2.04 0 0 0 7.56 9.5a2.04 2.04 0 0 0 3.5 1.37l-.69-.73a1.02 1.02 0 0 1-1.8-.64 1.02 1.02 0 0 1 1.83-.6l.82-.59Z"/></svg>