<!-- by TradingView --><svg width="18" height="18" viewBox="0 0 18 18" xmlns="http://www.w3.org/2000/svg"><path fill="url(#az50l5kyo)" d="M0 0h18v18H0z"/><path d="M9 4C6.27 4 4 6.24 4 9s2.27 5 5 5c1.72 0 3.2-.93 4.08-2.3a.49.49 0 0 1 .68-.15c.15.1.24.26.24.42 0 .1-.04.19-.1.27A5.4 5.4 0 0 1 9 15c-3.27 0-6-2.69-6-6s2.65-6 5.92-6c2.02 0 4.18 1.24 5 2.84.05.1.08.18.08.26 0 .12-.07.24-.21.34a.49.49 0 0 1-.69-.12A5.19 5.19 0 0 0 9 4Z" fill="#F6CD95"/><path d="M10.91 5.82c-.5-.44-1.97-.42-2.65-.35-.34-.26-.69-.31-.8-.31-.11 0-.24.27-.34.43a.6.6 0 0 0-.05.47 2.75 2.75 0 0 0-.95 2.71c-.24.32-.75.98-.83 1.11-.1.16-.16.23-.11.37.33.85 1.17.87 1.34.87.13 0 .29.09.35.13v.87c.86.59 1.83.72 2.2.72 2.74 0 3.77-2.92 3.77-3.92 0-.76-.46-1.62-.74-2.07-.2-.76-.76-.93-1.19-1.03Z" fill="#FFB53C"/><path d="M8.63 6.6c-.16 0-.6.55-.84.83-.07-.91.63-1.35.7-1.38.07-.03.13.09.14.1.02.02.03.15.08.17.18 0 .39.1.46.15l-.2.12h-.34Z" fill="#D58C0C"/><path d="M8.63 8.13c.19 0 .44.08.54.12a1.9 1.9 0 0 1-.64.23c-.13 0-.4-.06-.4-.12s.26-.23.5-.23Z" fill="#331B00"/><path d="M5.35 9.87c.06-.03.19-.12.33-.23.18-.13.39-.28.52-.35.26-.15.54-.3.54-.37-.11 0-.44-.05-.65-.1-.16.18-.63.7-.74.88v.17ZM10.47 5.59c.2.05.35.12.46.22.42.09.99.26 1.18.97a4.16 4.16 0 0 1 .73 2.03l-.24.34c-.07.04-.12.05-.17.04-.07-.01-.13-.08-.18-.15l-.07-.09c-.06-.06-.15-.19-.25-.33a4.42 4.42 0 0 0-.35-.46 2.97 2.97 0 0 1-.35-.8c-.04-.13-.07-.22-.09-.24-.02-.04-.1-.07-.2-.1-.08-.01-.16-.03-.22-.07-.06-.04-.14-.14-.2-.22-.06-.09-.12-.16-.15-.16s-.05.03-.08.06c-.04.04-.08.1-.15.1-.1 0-.27-.31-.27-.54 0-.23.2-.4.27-.43.07-.02.25-.12.33-.17Z" fill="#D58C0C"/><path d="M6.06 8.43c.18 0 .34-.03.34-.12s-.18-.14-.34-.18c-.02.1 0 .2 0 .3Z" fill="#331B00"/><path d="M6.04 7.57c.13.09.37.1.6.1.5 0 .81-.31.8-.76-.02-.33-.27-.68-.47-.87-.67.47-.72.97-.93 1.53Z" fill="#FFE3B4"/><path d="m6.89 11.68.27.09.6.19 1.07-.6c-.03-.3.17-.82.17-.97 0-.19-.47-.52-.71-.52-.1 0-.29.1-.5.22-.32.17-.7.38-1 .38-.4 0-.42-.33-.43-.46l-1 .2-.01.18c.38.65 1.04.79 1.18.79.13 0 .3.1.36.15v.35Z" fill="#D58C0C"/><path d="M9.92 12.76a6 6 0 0 1 .56-.82c.4-.47.72-1.2.82-1.5a.63.63 0 0 1 .19-.27c.06-.06.12-.11.12-.22 0-.2-.7-1.17-.84-1.25a1.82 1.82 0 0 0-.82-.22c-.35 0-1.8.23-1.88.36-.08.13-.29.92-.29 1.11 0 .07.14.08.32.1.31.01.73.04.73.4 0 .56-.98.81-1.54.81l-.39-.01v.87c.88.59 1.87.72 2.25.72.28 0 .53-.03.77-.08Z" fill="#FFE3B4"/><path d="M6.56 11.18c.3-.01.75-.14 1.03-.19.41-.07.89-.58.89-.64 0-.07-.06-.13-.13-.13-.17 0-.43.19-.57.35-.14.15-.55.34-1.07.34-.42 0-.45-.67-.38-.87l-1 .32-.14.14c.29.48.86.67 1.37.68Z" fill="#B76801"/><path d="M5.35 10.57c.26-.04.98-.25.98-.6a.72.72 0 0 0-.7-.45c-.13 0-.15.13-.28.18-.04.04-.35.46-.34.5.11.21.17.24.34.37Z" fill="#331B00"/><path d="M6.71 12.2v-.86a.92.92 0 0 0-.05-.02.41.41 0 0 0-.14-.04c-.17 0-1.13-.01-1.5-.97a.4.4 0 0 1 .01-.3.76.76 0 0 1 .09-.15l.03-.06.37-.5c.14-.2.3-.4.43-.56-.12-.6-.09-1.87.94-2.74a.72.72 0 0 1 .09-.49l.05-.08c.03-.07.08-.14.12-.2l.11-.14a.3.3 0 0 1 .2-.09c.14 0 .49.05.85.3.34-.03.86-.05 1.36 0 .26.02.53.05.76.12.21.05.41.13.56.25.2.05.47.13.7.28.25.17.46.43.57.83.14.23.32.56.47.93.15.38.27.8.27 1.21a4.8 4.8 0 0 1-.88 2.42A3.63 3.63 0 0 1 9.07 13c-.4 0-1.4-.14-2.29-.75l-.07-.05Zm2.36.64c2.74 0 3.77-2.92 3.77-3.92 0-.76-.46-1.62-.74-2.07-.2-.76-.76-.93-1.19-1.03-.5-.44-1.97-.42-2.65-.35-.34-.26-.69-.3-.8-.3-.1 0-.2.17-.28.33l-.06.1a.6.6 0 0 0-.05.46 2.79 2.79 0 0 0-.93 2.75c-.24.32-.77.94-.85 1.07l-.04.07c-.07.11-.11.18-.07.3.33.85 1.17.87 1.34.87.13 0 .32.09.38.13v.87c.87.59 1.8.72 2.17.72Z" fill="#FAFDF4"/><defs><linearGradient id="az50l5kyo" x1="18" y1="9" x2="0" y2="9" gradientUnits="userSpaceOnUse"><stop stop-color="#E5991F"/><stop offset="1" stop-color="#F3B455"/></linearGradient></defs></svg>