<!-- by TradingView --><svg width="18" height="18" viewBox="0 0 18 18" xmlns="http://www.w3.org/2000/svg"><path fill="#888E72" d="M0 0h18v18H0z"/><path d="M7.84 14.3c.13-.02.13-.05 0-.1-.05-.01-.1-.06-.13-.15a49.87 49.87 0 0 0-.25-.68l.02-.02h.03l.05-.01c.03 0 .03-.02.03-.04-.15-.53-.28-1.08-.4-1.66a.37.37 0 0 0-.13-.22c-.06-.05-.08-.09-.07-.16 0-.01 0-.03-.02-.04-.06-.07-.06-.13-.13-.2a.88.88 0 0 1-.2-.3c-.26-.66 0-1.23.28-1.88.02-.06.07-.1.1-.14a.04.04 0 0 0 0-.04l-.14-.34-.02-.01h-.02a3 3 0 0 1-1.4-.22c-.24-.1-.45-.26-.68-.37-.9-.45-.87-1.67-.57-2.45l.04-.04a.94.94 0 0 1 .25-.08c.44-.08 1.04-.13 1.53-.24l1.53-.34a14.61 14.61 0 0 1 1.88-.35c-.23-.38-.25-.9.16-1.17.23-.14.37.04.38.25.02.27 0 .56-.05.86-.01.04 0 .06.04.07l.07.02c.04.01.06 0 .06-.04 0-.47.13-.82.38-1.03a.52.52 0 0 1 .5-.12c.3.09.16.58.08.77a4.45 4.45 0 0 1-.35.73 1.75 1.75 0 0 1 .4 1.07c.03.33.04.66.02 1-.02.58-.06 1.09-.12 1.52a.3.3 0 0 0 .02.18c.02.03.03.08.02.15v.03l.04.03c.32.14.64.75.77 1.05.28.64.2 1.22-.26 1.73a15.43 15.43 0 0 1-.06 2.17c0 .02.01.04.04.04.02 0 .03 0 .05.02.02 0 .02.02.03.04v.58c0 .07-.02.1-.07.15a6.93 6.93 0 0 0 .02.53c0 .12-.02.26-.04.38-.02.13-.2.17-.24.32a.06.06 0 0 1-.03.04c-.17.1-.29.3-.5.35-.43.1-.9.08-1.31-.07-.15-.05-.26-.31-.3-.44l-.01-.01-.01-.01a.04.04 0 0 0-.03 0c-.1.06-.21.09-.32.1-.11 0-.2 0-.28.02-.28.05-1.14.13-1.33-.1a21.5 21.5 0 0 1-.13-.16c-.13-.17-.14-.32-.13-.54.02-.43.38-.47.78-.5a.07.07 0 0 1 .05.01c.04.04.07.05.08.05Z" fill="#010100"/><path d="M10.61 4.68c.24.05.38.78.4.94.01.26.04.58.04.87-.01.6-.05 1.2-.12 1.77 0 .04-.04.08-.1.11-.64.38-1.31.5-2.08.54-.5.03-.97-.03-1.4-.16-.26-.07-.32-.25-.36-.48a.06.06 0 0 0-.02-.04 3.83 3.83 0 0 1-1.46-.26.57.57 0 0 1-.16-.08c-.02-.03-.02-.04.02-.04.6-.06.79-.55.79-1.05 0-.66 0-1.16-.23-1.69 0-.02 0-.04.03-.04a96.06 96.06 0 0 1 3.54-.8l-.12-.3c-.13-.32-.05-.6.23-.8a.2.2 0 0 1 .17-.04c.02 0 .03.01.05.03.06.06.08.16.08.28-.02.3-.05.56-.09.78 0 .02-.01.03-.04.03h-.1c-.02 0-.03 0-.02.02v.03h.02a1.2 1.2 0 0 1 .45.07.03.03 0 0 0 .02-.01v-.02l.01-.37c.03-.33.26-.78.65-.82.61-.06-.04 1.1-.15 1.3a.49.49 0 0 0-.07.2c0 .02 0 .03.02.03Z" fill="#A0773D"/><path d="M10.65 8.57c.07-.03.1-.06.17-.12l.02-.01h.03l.01.02v.04s-.01.02-.03.02c-.15.08-.3.17-.42.28-.03.02-.04.02-.06 0a.08.08 0 0 1-.01-.03c0-.04 0-.06.03-.07l.26-.13Z" fill="#959F9C"/><path d="m7.03 9.17-.01.01a20.97 20.97 0 0 0-.12.91h-.05l-.05.01c-.03.02-.05.04-.04.08 0 .02.02.03.04.03a.3.3 0 0 1 .1.04c.01 0 .02 0 .02.02l.01.02c0 .2.06.38.16.52v.05l-.06.19a.02.02 0 0 0 .01.02h.02l.07-.14c.03-.07.06-.07.08 0 0 .01-.01.03-.04.04a.05.05 0 0 0-.03.04.32.32 0 0 1-.05.15.02.02 0 0 1-.02 0l-.01-.02c0-.02-.02-.03-.04-.03a.2.2 0 0 1-.14-.09 1.54 1.54 0 0 1-.18-1.37 5.08 5.08 0 0 1 .35-.81.05.05 0 0 1 .04 0c.54.32 1.13.47 1.78.45.6-.02 1.16-.16 1.67-.43.08-.05.18-.15.28-.18.32-.12.43.09.6.33.19.26.33.53.42.82.22.6 0 1.26-.57 1.62a.08.08 0 0 1-.05 0 .93.93 0 0 1-.66-.42c-.13-.2.1-.53.25-.7a.1.1 0 0 0 0-.12.1.1 0 0 0-.03-.02c-.05-.03-.08-.06-.1-.11a4.08 4.08 0 0 1-.08-.5l.02-.02c.12-.05.2-.14.22-.27v-.01a.03.03 0 0 0-.03-.02h-.02l-.02.02a1.31 1.31 0 0 1-.16.23.02.02 0 0 1-.02 0v-.02l-.04-.12h-.04c.02.06.03.18.04.36 0 .16.04.32.12.5v.05c-.16.26-.24.39-.26.62 0 .02 0 .03-.02.04a5.14 5.14 0 0 1-1.54.13c-.64-.05-1.02-.04-1.46-.19a.42.42 0 0 1-.23-.22 1.68 1.68 0 0 1-.16-.64c-.01-.25.1-.59.05-.83 0-.02 0-.02-.02-.02Z" fill="#959F9C"/><path d="M7.4 8.84c-.04 0-.06.02-.06.05l-.23-.11-.02-.02v-.04l.02-.01a.02.02 0 0 1 .02 0c.08.06.17.1.27.13Z" fill="#7C8368"/><path d="M10.16 8.8c-.03.04-.03.09 0 .1.03.03.08.01.12-.03.03-.04.03-.1 0-.11-.04-.03-.09 0-.12.03ZM9.87 8.92V9c.01.03 0 .05-.03.06l-.15.03c-.03 0-.04 0-.05-.04l-.02-.1c0-.02 0-.03.02-.03l.4-.08a.04.04 0 0 1 .03 0v.02l.03.07c0 .02 0 .03-.02.04a.18.18 0 0 1-.12.03c-.02 0-.03 0-.04-.03a.12.12 0 0 0-.02-.05c-.03-.02-.04-.02-.03.01ZM7.4 8.84c.08.04.15.07.24.07.06 0 .1.03.12.08.01.02.02.02.03 0l.01-.02h.22c.03 0 .05.01.05.04l.01.08c0 .03 0 .04-.04.03l-.2-.06a.1.1 0 0 1-.04-.02c-.02-.02-.06-.03-.1-.02a.1.1 0 0 1-.06 0l-.3-.13c0-.03.02-.04.06-.05ZM9.5 8.92l-.08.01a.04.04 0 0 0-.03.05l.04.13c0 .02.02.03.05.03l.07-.02c.02 0 .04-.02.03-.05l-.03-.12a.04.04 0 0 0-.05-.03ZM9.3 8.96l-.27.03a.03.03 0 0 0-.03.03l.02.14c0 .02.01.03.03.03l.28-.03c.02 0 .03-.02.03-.04l-.02-.14a.03.03 0 0 0-.04-.02ZM8.13 9.04c0-.03 0-.05.04-.05h.16c.02 0 .03.02.03.03l.02.1c0 .02-.01.04-.03.04-.11.03-.19-.01-.22-.12ZM8.85 8.98l-.05.01a.05.05 0 0 0-.04.06l.04.12c.01.03.04.04.07.04l.04-.02c.03 0 .05-.03.04-.06l-.04-.12a.05.05 0 0 0-.06-.03ZM8.7 9l-.25.01-.02.02v.14l.02.02h.25l.02-.02v-.15l-.02-.01Z" fill="#959F9C"/><path d="m9.27 13.53-.35-1.16a.03.03 0 0 0-.02-.02h-.03v.01c.1.47.22.79.34 1.19-.09.02-.17.03-.26.03-.23 0-.5-.02-.83-.06-.14-.02-.42-.06-.46-.22l-.36-1.53c0-.04 0-.08.02-.13v-.05c-.13-.19-.2-.32-.1-.55v-.01a.03.03 0 0 1 .03 0h.01c.36.22.74.36 1.16.42.02 0 .03.01.02.03v.02h-.02a4.65 4.65 0 0 1-.66-.07l-.01.02c0 .01 0 .03.02.04.26.14.53.25.83.31l.02.02v.04a.02.02 0 0 1 0 .02.02.02 0 0 1-.02 0L8 11.7c-.02 0-.03 0-.03.02v.02c.22.13.45.21.7.23.04 0 .12.04.24.12l.03.04c.07.32.2.76.38 1.32.02.06 0 .09-.05.08Z" fill="#77B1A5"/><path d="M10.1 11.63h.01v-.02l-.01-.01c-.38 0-.76 0-1.14-.02-.07 0-.09-.04-.16-.03-.1.02-.18.02-.23 0-.07-.04-.07-.07.02-.08l.17.01.04.02c.02.02.05.02.08 0a1.74 1.74 0 0 0 1.45-.36l.05.01c.1.18.17.28.21.3.2.14.4.16.63.07a.03.03 0 0 1 .03 0v.02l-.05 2.04-.02.05a4.18 4.18 0 0 1-1.79-.19 176.34 176.34 0 0 0-.37-1.26v-.13l.04-.03.62-.07c.02 0 .03-.01.04-.03a.11.11 0 0 0 .02-.04v-.02h-.02l-.66-.04c-.05 0-.08-.03-.08-.08v-.04c0-.04.03-.06.07-.06.36.03.72.02 1.05-.01ZM11.47 11.61c.02.28.04.47.02.7a52.3 52.3 0 0 0-.07 1.22h-.06c0-.57-.02-1.14-.03-1.7 0-.1-.03-.21-.04-.27 0-.02 0-.04.02-.05.05-.04.1-.07.16-.09h.02a.04.04 0 0 1 .03.03v.02l-.04.1-.01.04Z" fill="#77B1A5"/><path d="M8.47 11.62c.05.05.08.06.17.1v.03l-.64-.2-.04-.04v-.02h.01l.43.09.07.04Z" fill="#77B1A5"/><path d="M8.88 14.2c-.06-.01-.1.04-.15.03-.03 0-.04 0-.04-.03 0 0 0-.02-.02-.02l-.02-.02h-.07c-.1.05-.18.04-.24-.01a.07.07 0 0 0-.05-.02c-.22.02-.29.04-.51-.04a.03.03 0 0 1-.02-.03l-.2-.58v-.02l.02-.02c.03-.02.07-.01.1 0 .07.05.11.08.17.1.48.13.96.15 1.44.05.02 0 .03 0 .03.03l.16.69v.01h-.01l-.53-.01c-.02 0-.03-.01-.03-.03v-.05c0-.02 0-.03-.03-.03ZM11.4 14.18l-1 .14a.74.74 0 0 0-.37.02c-.17-.07-.32-.06-.44.03l-.17-.74v-.02l.01-.02h.04c.23.1.45.17.7.2a3.38 3.38 0 0 0 1.1-.08.15.15 0 0 1 .1-.05c.01 0 .02.01.02.03-.02.12 0 .22.06.3.01.02.02.04.01.06 0 .04-.02.08-.06.13Z" fill="#9AD2B8"/><path d="M11.48 13.95a.36.36 0 0 1-.05-.27c0-.01.01-.03.03-.03H11.54l.01.01v.02l.04.52-.01.03-.02.02h-.08c-.02-.01-.02-.03-.01-.05.04-.1.05-.19.01-.25Z" fill="#9AD2B8"/><path d="M11.4 14.18v.08c-.01.02-.03.03-.06.04-.12.03-.3.09-.42.07-.08-.01-.12-.01-.17.03a.07.07 0 0 1-.06.02.07.07 0 0 1-.03-.02l-.02-.03v-.03a.03.03 0 0 0-.02-.02h-.03l-.1.1a.04.04 0 0 1-.04.01c-.04 0-.06-.04-.05-.11l1-.14ZM10.03 14.34l-.13.02a.1.1 0 0 0-.05.02c-.06.04-.14.04-.26-.01.12-.09.27-.1.44-.03Z" fill="#7C8368"/><path d="M8.35 14.29h.01l.1.23c.03.1.07.19.08.26.02.06.02.1 0 .11l-.03-.01a1.52 1.52 0 0 1-.16-.32l-.1-.22v-.01l.1-.04Z" fill="#D1CAB6"/><path d="m8.5 15.2.01.05v.02h-.03c-.42.06-.82.05-1.22-.03-.08-.02-.13-.05-.17-.11-.22-.4-.04-.72.42-.8a.6.6 0 0 1 .41.09c.32.19.51.45.58.79Z" fill="#C8D5B9"/><path d="m7.64 15.44.24-.04a8.64 8.64 0 0 0 .8-.11l-.2-.01.02-.01c.01 0 .02-.01.01-.02a.1.1 0 0 0-.01-.04c.04-.01.06-.07.05-.16 0-.02 0-.03.02-.04.13-.07.08-.18.06-.3 0-.02 0-.05.02-.07a.1.1 0 0 1 .06-.04c.27-.04.51-.11.72-.2l.05.01c.02.03.07.06.14.09l.01.02v.02c0 .1-.02.12-.11.16-.28.12-.4.32-.39.63 0 .02 0 .03-.03.03-.08 0-.2 0-.31.02-.36.09-.75.1-1.15.06ZM11.14 14.7a.05.05 0 0 0 .07 0c.02-.04.01-.07-.01-.1-.06-.05-.16-.02-.22-.08-.02-.02-.02-.03 0-.03h.08l.05-.01c.04-.02.15-.05.33-.08l.03.01.07.55c0 .02 0 .04-.02.05a.09.09 0 0 1-.05.04l-.13.01a.06.06 0 0 0-.05.03 1.18 1.18 0 0 1-.35.36.06.06 0 0 1-.05 0l-.01-.02c-.1-.18-.24-.35-.45-.54-.02-.02-.02-.04 0-.07l.02-.01h.05c.01 0 .03 0 .04.02.12.16.2.26.25.3.06.07.13.06.18 0 .08-.12-.05-.34-.12-.45v-.02h.02c.1-.04.2-.02.27.05Z" fill="#A54A3E"/><path d="M10.78 14.97h.02l.02-.03a6.51 6.51 0 0 1-.18-.3c-.08-.14-.06-.15.06-.04.11.12.2.23.23.34.05.16 0 .2-.14.12-.05-.03-.1-.1-.15-.23a.1.1 0 0 0-.04-.05.69.69 0 0 1-.2-.17c-.02-.02-.01-.04.02-.04h.04c.04 0 .06.02.08.05.01.04.04.07.1.1 0 .02.02.03.03.05l.1.2Z" fill="#A0773D"/><path d="m9.33 15.49-.06.01c-.11-.24-.07-.5.19-.63a.87.87 0 0 1 .53-.09c.36.06.64.37.83.66l-.01.03c-.41.18-1.06.2-1.48.02Z" fill="#D1CAB6"/><path d="m9.27 15.5.06-.01c.04.06.1.1.18.12.44.1.87.08 1.29-.07.07-.02.2-.01.25-.05a8.08 8.08 0 0 0 .42-.36.07.07 0 0 1 .02.07.1.1 0 0 1-.02.03 44.3 44.3 0 0 1-.17.11c-.04.02-.07.06-.1.13-.24.56-1.39.4-1.8.23-.06-.03-.1-.1-.13-.2Z" fill="#C8D5B9"/><path d="M8.29 5.49c-.09-.09-.12-.18-.1-.28 0-.02 0-.03-.02-.03h-.13L8 5.19 8 5.22c0 .02 0 .06.03.1-.07 0-.1-.04-.1-.12.02-.1.09-.14.1-.23v-.02l-.01-.02a.04.04 0 0 0-.04 0l-.15.04c-.03 0-.04 0-.04-.04v-.02l.01-.04.03-.02a.7.7 0 0 1 .65-.02c.04.02.07.06.08.1l.02.04V5l-.01.02a.03.03 0 0 1-.04 0c-.16-.08-.3-.1-.42-.06a.06.06 0 0 0-.03.02L8.07 5v.02c0 .03 0 .04.03.03.15-.01.3.01.45.07l.03.04c.03.1.03.19 0 .24-.07.09-.16.12-.3.09ZM9.33 5.44a.42.42 0 0 1-.04-.22c0-.01 0-.03-.02-.03a.3.3 0 0 0-.12-.02.2.2 0 0 1-.16 0l-.02-.02a.04.04 0 0 1 0-.04L9 5.1l.06-.02c.03 0 .04-.02.04-.04.01-.05.03-.09.06-.1.03-.02.04-.01.04.01s0 .04-.03.09c0 .02 0 .03.03.03.28 0 .68-.02.62.33-.01.07-.03.08-.06 0l-.03-.08c-.03-.06-.05-.06-.07 0l-.04.15c0 .02-.02.03-.04.04-.11.06-.19.04-.24-.07Z" fill="#010100"/><path d="M9.33 5.44c-.06.04-.12.02-.18-.04a.06.06 0 0 1-.02-.05l.02-.18c.04 0 .09 0 .12.02.02 0 .03.02.02.03 0 .07 0 .15.04.22Z" fill="#D1CAB6"/><path d="M9.56 7.54a.4.4 0 0 1-.04-.07c-.02-.05 0-.07.05-.04l.31.17.03.03c0 .02 0 .03-.02.03-.05.02-.1 0-.17-.01h-.05a2.84 2.84 0 0 1-1.44.44l-.01-.01v-.02c-.01-.03 0-.04.03-.05a3.95 3.95 0 0 0 1.31-.45.03.03 0 0 0 0-.02ZM8.53 8.4c.2 0 .43-.04.62-.12.02 0 .04 0 .05.03v.02l-.02.05-.03.03c-.26.09-.47.1-.63.03-.1-.04-.1-.05.01-.05Z" fill="#010100"/></svg>