<!-- by TradingView --><svg width="18" height="18" viewBox="0 0 18 18" xmlns="http://www.w3.org/2000/svg"><path fill="#F0F3FA" d="M0 0h18v18H0z"/><path d="m6.93 8.1-1.1-.7.37-.65 1.1.7-.37.66ZM10.98 8.1l1.1-.7-.36-.65-1.1.7.36.66ZM9.34 12.52v-1.43h-.68v1.43h.68Z" fill="#03DA96"/><path fill-rule="evenodd" d="M8.97 11.49a2.5 2.5 0 1 0 0-5 2.5 2.5 0 0 0 0 5Zm0-.72a1.79 1.79 0 1 0 0-3.57 1.79 1.79 0 0 0 0 3.57Z" fill="#03DA96"/><path d="M9.68 9.76A1.03 1.03 0 0 1 8 9a1.03 1.03 0 0 1 1.7-.74l-.27.4a.55.55 0 0 0-.97.34c0 .3.25.54.55.54.16 0 .3-.07.4-.18l.27.4Z" fill="#03DA96"/><path fill-rule="evenodd" d="M9 15a1.5 1.5 0 1 0 0-3 1.5 1.5 0 0 0 0 3Zm0-.76a.74.74 0 1 0 0-1.48.74.74 0 0 0 0 1.48ZM9 6a1.5 1.5 0 1 0 0-3 1.5 1.5 0 0 0 0 3Zm0-.76a.74.74 0 1 0 0-1.48.74.74 0 0 0 0 1.48ZM5.5 8a1.5 1.5 0 1 0 0-3 1.5 1.5 0 0 0 0 3Zm0-.76a.74.74 0 1 0 0-1.48.74.74 0 0 0 0 1.48ZM12.5 8a1.5 1.5 0 1 0 0-3 1.5 1.5 0 0 0 0 3Zm0-.76a.74.74 0 1 0 0-1.48.74.74 0 0 0 0 1.48ZM5.5 13a1.5 1.5 0 1 0 0-3 1.5 1.5 0 0 0 0 3Zm0-.76a.74.74 0 1 0 0-1.48.74.74 0 0 0 0 1.48ZM12.5 13a1.5 1.5 0 1 0 0-3 1.5 1.5 0 0 0 0 3Zm0-.76a.74.74 0 1 0 0-1.48.74.74 0 0 0 0 1.48Z" fill="#03DA96"/></svg>