<!-- by TradingView --><svg width="18" height="18" xmlns="http://www.w3.org/2000/svg"><path fill="#F0F3FA" d="M0 0h18v18H0z"/><path d="M10.014 5.925L6.892 4.077c-.656-.259-.864.195-.887.454-.004 1.244-.01 3.772 0 3.938.01.167.125.224.182.232.47.016 1.483.038 1.764 0 .281-.038.25-.257.2-.362l-.253-.434c-.047-.076-.143-.11-.242-.11-.098 0-.245.08-.38.11-.384 0-.362-.334-.327-.48l.328-1.1c.107-.238.316-.251.434-.238l1.13.238c.337.11.257.426.186.51-.07.05-.223.173-.282.268-.06.095-.058.245 0 .322l.282.45c.08.162.261.067.342 0 .215-.379.677-1.195.806-1.44.128-.245-.054-.442-.162-.51z" fill="#37C98A"/><path d="M10.014 12.075l-3.122 1.848c-.656.259-.864-.195-.887-.454-.004-1.244-.01-3.772 0-3.938.01-.167.125-.224.182-.232.47-.016 1.483-.038 1.764 0 .281.038.25.257.2.362l-.253.434c-.047.076-.143.11-.242.11-.098 0-.245-.08-.38-.11-.384 0-.362.334-.327.48l.328 1.1c.107.237.316.251.434.237l1.13-.237c.337-.11.257-.426.186-.51a1.255 1.255 0 01-.282-.268c-.06-.095-.058-.245 0-.322l.282-.45c.08-.162.261-.067.342 0 .215.379.677 1.195.806 1.44.128.245-.054.442-.162.51z" fill="#16405A"/><path d="M11.347 6.673l3.14 1.785c.55.438.267.84.056.987a363.51 363.51 0 01-3.367 1.934c-.147.074-.254.003-.289-.042-.249-.399-.774-1.26-.883-1.521-.108-.262.096-.342.21-.35l.497.004c.089.003.167.07.216.154.05.085.055.251.095.382.193.332.468.149.575.047l.776-.823c.15-.21.057-.397-.014-.49l-.769-.86c-.262-.236-.492-.012-.529.092a1.237 1.237 0 01-.087.374c-.052.098-.18.17-.276.158l-.525-.022c-.18.01-.189-.192-.17-.295.214-.371.682-1.17.826-1.402.146-.231.405-.17.518-.112z" fill="#37C98A"/></svg>