<!-- by TradingView --><svg width="18" height="18" viewBox="0 0 18 18" xmlns="http://www.w3.org/2000/svg"><path fill="#F0F3FA" d="M0 0h18v18H0z"/><path d="M14.42 8.66a3.17 3.17 0 0 0-.53-.4c-1.07-.64-2.45.02-3.32.68l-.21.18a2173.7 2173.7 0 0 1-2.31 2.3 5.9 5.9 0 0 1-1.44.86 3.3 3.3 0 0 1-2.76 0c-.42-.2-.82-.5-1.11-.86l.05.01c.34.35.74.61 1.2.78.76.3 1.58.18 2.33-.11a5.8 5.8 0 0 0 1.81-1.16c.65-.64 1.17-1.29 1.82-1.93.08-.1.16-.17.24-.23.24-.2.67-.32.94-.47.76-.42 1.77-.78 2.6-.25.18.1.35.22.5.36.09.07.15.15.19.24Zm1.26-.1c.56 1 .33 2.23-.29 3.16a3.54 3.54 0 0 1-1.73 1.18c-.67.18-1.35.12-1.99-.17-.36-.17-.7-.38-.99-.63a1.1 1.1 0 0 1-.19-.22h.04c.27.25.58.45.9.61.75.37 1.55.44 2.33.15a3.65 3.65 0 0 0 1.42-.98 3.45 3.45 0 0 0 .65-2.53.87.87 0 0 0-.02-.1c0-.05-.02-.1-.03-.13a9.84 9.84 0 0 1-.1-.35Z" fill="#E71DFD"/><path d="M11.69 9.63c0 .04.1.03.13.03a63.76 63.76 0 0 0 .7-.03h.02v.26l-.27.01v.84h-.01l-.3.01-.01-.01V9.9l-.01-.01h-.27v-.27h.02ZM12.7 9.63c0 .02.02.03.04.03.1.01.19.04.27.08.07.03.13.09.2.16H13.28l.08-.08V9.8l.1-.06a.7.7 0 0 1 .3-.1h.01v-.02h.03v.27c-.13 0-.27.07-.33.17s-.03.23.07.31v.03c-.01 0-.01 0 0 0v.01c.02.02.24.14.23.05h.02v.28a.7.7 0 0 1-.54-.25.71.71 0 0 1-.56.25v-.27l.01-.01h.01c0 .02.02.03.04.03a.48.48 0 0 0 .22-.08c.02-.02.03-.04.01-.07.19-.22-.03-.44-.28-.45v-.27h.02Z" fill="#850995"/><path d="M13.79 9.63h-.02v.02h-.01l-.02.01a.7.7 0 0 0-.3.09l-.08.06h-.01l-.08.09H13.2a.67.67 0 0 0-.47-.24c-.02 0-.03-.01-.03-.03a.67.67 0 0 1 .53.24.68.68 0 0 1 .55-.24Z" fill="#E71DFD"/><path d="M9.38 4c-2.34 0-3.6 1.91-3.94 2.87-.08 0-.34-.18-.95-.18-.6 0-2.49.24-2.49 2.88.05.93.72 2.81 2.93 2.81.6.03 2.14-.25 3.39-1.56 1.55-1.63 2.8-3 4.64-3 .67.08 1.98.67 1.83 2.33-.2 2.08-3.01 3.14-4.83.77.16.63.97 1.9 2.85 1.9 2.34 0 3.09-2.2 3.09-3.33s-1.27-3.02-3.19-3.02-3.4 1.27-4.33 2.17c-.97.93-1.91 2.22-3.63 2.22-.44 0-1.47-.41-1.3-1.59.2-1.55 1.5-1.36 2.11-.8.1.05.37.12.58 0 .26-.16.28-.55.3-.66.02-.12.58-3.15 3.64-3.15a4 4 0 0 1 2.88 1.75C12.6 5.6 11.4 4 9.38 4Z" fill="url(#adzxyixdn)"/><path d="M12.8 6.12a4.05 4.05 0 0 1 .16.3 4.1 4.1 0 0 0-1.88-1.4 3.22 3.22 0 0 0-1.9-.07c-.72.19-1.3.57-1.77 1.13a4.11 4.11 0 0 0-.87 2.05.82.82 0 0 1-.13.32c-.2.3-.53.27-.8.12a7.1 7.1 0 0 1-.27-.16c-.48-.29-1.02-.27-1.41.15a1.5 1.5 0 0 0-.4 1.27c.03.16.08.33.17.5a.1.1 0 0 1-.05-.04l-.05-.09-.05-.1c-.2-.45-.2-1 .04-1.44.33-.58.91-.8 1.52-.5l.2.12c.15.1.3.19.5.21.3.03.48-.16.57-.42a4.25 4.25 0 0 1 .78-2 3.37 3.37 0 0 1 2.58-1.41 3.64 3.64 0 0 1 2.97 1.41l.03.03.03.03h.02v-.01Z" fill="url(#bdzxyixdn)"/><defs><linearGradient id="adzxyixdn" x1="8.95" y1="4" x2="8.95" y2="12.83" gradientUnits="userSpaceOnUse"><stop stop-color="#2B6DF8"/><stop offset=".34" stop-color="#404EE9"/><stop offset=".75" stop-color="#5B29D6"/></linearGradient><linearGradient id="bdzxyixdn" x1="8.19" y1="4.65" x2="8.19" y2="10.3" gradientUnits="userSpaceOnUse"><stop stop-color="#22C9E1"/><stop offset=".81" stop-color="#7E79EE"/></linearGradient></defs></svg>