<!-- by TradingView --><svg width="18" height="18" viewBox="0 0 18 18" xmlns="http://www.w3.org/2000/svg"><path fill="#F0F3FA" d="M0 0h18v18H0z"/><path d="M7 5.94 9 3l2 2.94-2 .74-2-.74ZM7 10.06 9 13l2-2.94-2-.74-2 .74Z" fill="#D82292"/><path d="M9 6.68v2.68l-2 .74V5.94l2 .74Z" fill="#EF6FC4"/><path d="M9 6.68v2.68l2 .74V5.94l-2 .74ZM4.36 11.37 4 9l1.99 1.16-.52 1.05-1.1.16Z" fill="#FF8ABC"/><path d="M6.01 13.84 8 15l-.36-2.37-1.11.16L6 13.84Z" fill="#D82292"/><path d="m5.47 11.21 1.07 1.6-.51 1.05-1.67-2.49 1.11-.16Z" fill="#E748B1"/><path d="m5.47 11.21 1.07 1.6 1.11-.15L6 10.16l-.52 1.05Z" fill="#DA33A2"/><path d="M13.64 11.37 14 9l-1.99 1.16.52 1.05 1.1.16ZM11.99 13.84 10 15l.36-2.37 1.11.16.52 1.05Z" fill="#E748B1"/><path d="m12.53 11.21-1.07 1.6.51 1.05 1.67-2.49-1.11-.16Z" fill="#FF8ABC"/><path d="m12.53 11.21-1.07 1.6-1.11-.15 1.66-2.5.52 1.05Z" fill="#DA33A2"/></svg>