<!-- by TradingView --><svg width="18" height="18" viewBox="0 0 18 18" fill="none" xmlns="http://www.w3.org/2000/svg"><path fill="#F0F3FA" d="M0 0h18v18H0z"/><path d="M9 14.81A5.81 5.81 0 1 0 9 3.2 5.81 5.81 0 0 0 9 14.8ZM9 15A6 6 0 1 0 9 3a6 6 0 0 0 0 12Z"/><path d="M9 13.88a4.87 4.87 0 1 0 0-9.75 4.87 4.87 0 0 0 0 9.75Zm0 .93A5.81 5.81 0 1 0 9 3.2 5.81 5.81 0 0 0 9 14.8Z" fill="url(#a)"/><path d="M9 13.5a4.5 4.5 0 1 0 0-9 4.5 4.5 0 0 0 0 9Zm0 .38a4.87 4.87 0 1 0 0-9.75 4.87 4.87 0 0 0 0 9.75Z" fill="#040F47"/><circle cx="9" cy="9" r="4.5" fill="url(#b)"/><path d="m6 8.83 2.67-2.6.22.21L6.78 8.5h.44l1.45-1.39.22.22-1.56 1.5H6Z" fill="#91DBF4"/><path fill-rule="evenodd" d="M7.89 9 9 10.11 10.11 9 9 7.89 7.89 9ZM9 8.33 8.33 9l.67.67.67-.67L9 8.33Z" fill="#91DBF4"/><path d="m6.44 9.11-.22.22L8.83 12v-1.33L7.33 9.1l-.22.22 1.39 1.45v.44l-2.06-2.1ZM9.11 11.56l2.11-2.06h-.44l-1.45 1.39-.22-.22 1.56-1.5H12l-2.67 2.6-.22-.21ZM11.56 8.89l.22-.22L9.17 6v1.33l1.5 1.56.22-.22L9.5 7.22v-.44l2.06 2.1Z" fill="#91DBF4"/><defs><linearGradient id="a" x1="9" y1="3.19" x2="9" y2="14.81" gradientUnits="userSpaceOnUse"><stop stop-color="#04F1F9"/><stop offset="1" stop-color="#1D67EC"/></linearGradient><linearGradient id="b" x1="9" y1="4.5" x2="9" y2="13.5" gradientUnits="userSpaceOnUse"><stop stop-color="#0673C6"/><stop offset=".33" stop-color="#1472F0"/><stop offset="1" stop-color="#031760"/></linearGradient></defs></svg>