<!-- by TradingView --><svg xmlns="http://www.w3.org/2000/svg" width="18" height="18"><path fill="#F0F3FA" d="M0 0h18v18H0z"/><path d="M10.05 14H5.6a6.64 6.64 0 004.04.98c.14-.28.29-.61.4-.98zm.92.75l.17-.75h1.54c-.51.32-1.1.58-1.71.75z" fill="#2013F9"/><path d="M3.99 7.98h-.9a6 6 0 0111.82 0h-4.86a5.3 5.3 0 00-2.01-1.5 5.36 5.36 0 014.75-1.03A4 4 0 008.1 5.3c-.14.12-.38.64-.48.9-.05-.47-.14-1.49-.1-1.85.03-.36.95-.57 1.4-.63-.8.04-2.5.25-2.86.82-.36.57.35 1.46.76 1.83a4.76 4.76 0 00-1.57-.18c-.55.04-1 1.01-1.26 1.8zm.2 0h2.38c.32-.5.59-.98.56-1.25-.44.06-1.34.18-1.45.23-.02 0-.05 0-.09.02-.22.04-.75.13-1.4 1zm3.66 0h1.1a6.71 6.71 0 00-1.14-.97c.03.24.06.62.04.97z" fill="#FE1161"/><path d="M7.84 8.33h1.28a4.81 4.81 0 011.2 2.33H6.66c-.06-.64.63-1.45.95-1.76.12-.12.19-.33.22-.57zm-3.8 0h2.4l-.03.04a4.55 4.55 0 00-.79 1.45c-.05.33.19.62.48.84H3.25a5.17 5.17 0 01-.2-2.33h.88l-.1.31.22-.31zm7.3 2.33a5.3 5.3 0 00-1.13-2.33h4.74a5.2 5.2 0 01-.2 2.33h-3.42z" fill="#FC12BF"/><path d="M10.28 12.67H4.3c.29.37.6.7.97 1h4.82c.09-.32.16-.65.2-1zm.93 1c.07-.35.11-.68.14-1h2.33c-.29.37-.6.7-.97 1h-1.5z" fill="#7C13FF"/><path d="M6.7 10.92h3.64c.07.48.08.96.03 1.4h-6.3c-.32-.42-.57-.9-.75-1.4H6.4c.15.08.3.15.42.19a.7.7 0 01-.11-.2zm4.73 1.4c.03-.5 0-.97-.07-1.4h3.3c-.17.5-.43.98-.75 1.4h-2.48z" fill="#DB12FF"/></svg>