<!-- by TradingView --><svg width="18" height="18" viewBox="0 0 18 18" xmlns="http://www.w3.org/2000/svg"><path fill="#E91E63" d="M0 0h18v18H0z"/><path d="M13.95 9.16a1.4 1.4 0 0 1-.6.88v.04l.05.1c.08.21.1.41.09.6-.08.66-.6 1.22-1.3 1.24l-.03.03c0 .08 0 .16-.02.22-.12.46-.4.78-.81.95a1.46 1.46 0 0 1-1.18-.03h-.01a1.4 1.4 0 0 1-2.31 0h-.04a1.38 1.38 0 0 1-1.99-1.13c0-.02 0-.03-.03-.03a1.39 1.39 0 0 1-1.17-.8 1.36 1.36 0 0 1-.02-1.08l.04-.08v-.04a1.48 1.48 0 0 1-.58-.76c-.13-.64.06-1.14.57-1.5.02-.02.02-.03.01-.05-.4-.8.07-1.68.92-1.92.07-.02.15-.01.23-.02.02 0 .03-.01.03-.03.07-.62.4-1.02.97-1.22a1.3 1.3 0 0 1 1.02.09l.04-.01a1.4 1.4 0 0 1 2.3 0h.05c.23-.1.44-.16.62-.14.68.04 1.36.53 1.36 1.27l.01.03h.03c1 .06 1.57 1.1 1.15 1.95v.04c.49.34.68.8.6 1.4Zm-2.48-.47c.38-.05.66-.24.84-.57a.16.16 0 0 0-.05-.22l-.03-.02c-.12-.08-.22-.06-.3.05-.13.18-.24.28-.32.3-.58.18-1.1-.52-1.42-.89-.08-.1-.16-.1-.23-.02-.36.42-.6.57-1.18.5-.38-.05-.53-.22-.78-.5a.14.14 0 0 0-.1-.04.14.14 0 0 0-.1.05c-.33.4-.67.79-1.19.95-.17.05-.36-.06-.58-.34a.2.2 0 0 0-.14-.08.21.21 0 0 0-.15.05l-.03.02a.17.17 0 0 0-.04.22c.18.32.46.5.83.56.02 0 .03.02.04.03.23.86.84 1.74 1.69 2.08.91.37 1.9.02 2.5-.72.34-.4.57-.86.7-1.38 0-.02.02-.03.04-.03Z" fill="#fff"/><path d="M11.43 8.72c-.13.52-.36.98-.7 1.38-.6.74-1.59 1.1-2.5.72a3.15 3.15 0 0 1-1.7-2.08.04.04 0 0 0-.03-.03 1.1 1.1 0 0 1-.83-.56.17.17 0 0 1 .04-.22l.03-.02a.21.21 0 0 1 .3.03c.2.28.4.4.57.34.52-.16.86-.55 1.19-.95a.14.14 0 0 1 .1-.05.14.14 0 0 1 .1.04c.25.28.4.45.78.5.58.07.82-.08 1.18-.5.07-.08.15-.07.23.02.32.37.84 1.07 1.42.9.08-.03.19-.13.32-.3.08-.12.18-.14.3-.06l.03.02a.17.17 0 0 1 .05.22c-.18.33-.46.52-.84.57a.04.04 0 0 0-.04.03Zm-5.02-.1c.12.02.19.03.23.18.17.62.58 1.26 1.11 1.67.76.57 1.78.55 2.51-.02.54-.4.9-1.03 1.07-1.66.01-.06.04-.1.07-.13a.27.27 0 0 1 .14-.07l.18-.03c.21-.08.35-.23.5-.44a.1.1 0 0 0-.02-.16h-.02a.15.15 0 0 0-.2.03c-.61.89-1.45-.12-1.83-.59a.1.1 0 0 0-.07-.03.1.1 0 0 0-.07.03c-.15.14-.3.32-.47.4-.28.15-.82.16-1.13 0-.16-.1-.3-.25-.43-.39a.1.1 0 0 0-.16 0c-.19.23-.4.45-.62.65-.14.12-.5.34-.7.31-.19-.02-.39-.2-.5-.35-.05-.07-.12-.09-.2-.05h-.02a.1.1 0 0 0-.05.06.09.09 0 0 0 0 .08c.17.27.37.44.68.5Z" fill="#010201"/><path d="M6.64 8.8c-.04-.15-.1-.16-.23-.19a.98.98 0 0 1-.68-.5.09.09 0 0 1 .05-.13l.02-.01c.08-.04.15-.02.2.05.11.14.31.33.5.35.2.03.56-.19.7-.31a5.52 5.52 0 0 0 .66-.67.1.1 0 0 1 .12.02c.13.14.27.3.43.38.3.17.85.16 1.13.02.18-.1.32-.27.47-.41a.1.1 0 0 1 .07-.03.1.1 0 0 1 .07.03c.38.47 1.22 1.48 1.83.6a.15.15 0 0 1 .2-.05l.02.01a.1.1 0 0 1 .05.12.1.1 0 0 1-.02.04c-.16.21-.3.36-.51.44 0 0-.07 0-.18.03a.27.27 0 0 0-.14.07.29.29 0 0 0-.07.13 3.14 3.14 0 0 1-1.07 1.66c-.73.57-1.75.59-2.5.02A3.23 3.23 0 0 1 6.63 8.8Z" fill="#1C1D1A"/><path d="M8.69 9a.62.62 0 1 1-1.25 0 .62.62 0 0 1 1.25 0Zm-.07 0a.55.55 0 1 0-1.1 0 .55.55 0 0 0 1.1 0Z" fill="#010201"/><path d="M8.62 9a.55.55 0 1 1-1.1 0 .55.55 0 0 1 1.1 0Z" fill="#fff"/><path d="M10.56 9a.62.62 0 1 1-1.25 0 .62.62 0 0 1 1.25 0Zm-.07 0a.55.55 0 1 0-1.1 0 .55.55 0 0 0 1.1 0Z" fill="#010201"/><path d="M10.49 9a.55.55 0 1 1-1.1 0 .55.55 0 0 1 1.1 0Z" fill="#fff"/><path d="M8.38 9a.31.31 0 1 1-.63 0 .31.31 0 0 1 .63 0Zm-.14 0a.18.18 0 1 0-.35 0 .18.18 0 0 0 .35 0ZM10.25 9a.31.31 0 1 1-.62 0 .31.31 0 0 1 .62 0Zm-.13 0a.18.18 0 1 0-.35 0 .18.18 0 0 0 .35 0Z" fill="#010201"/><path d="m13.95 9.16.03.06c.02 0 .02.02.02.04-.1.35-.3.66-.6.93l-.05-.11v-.04c.32-.22.52-.51.6-.88ZM4.04 9.27c.11.33.3.58.57.76.02.02.02.03.01.04l-.04.08h-.04c-.02 0-.03 0-.04-.02l-.1-.09c-.24-.23-.36-.5-.36-.77ZM13.49 10.79a.95.95 0 0 1-.2.75c-.08.11-.15.24-.25.32-.22.2-.47.31-.75.33a.1.1 0 0 0-.09.08c-.03.17-.09.33-.18.48-.06.1-.12.24-.2.33-.16.17-.35.28-.57.35-.35.11-.68.12-1.04-.04a.07.07 0 0 0-.1.02c-.19.29-.64.59-1.11.59-.47 0-.84-.2-1.16-.6a.04.04 0 0 0-.05-.02c-.07.03-.14.08-.22.1l-.44.04a1.4 1.4 0 0 1-1.29-.97c-.04-.1-.05-.2-.08-.31 0-.02-.02-.03-.04-.03l-.21-.03a1.52 1.52 0 0 1-.96-.89v-.03a.1.1 0 0 1 .01-.03h.04c.24.48.63.74 1.17.8.02 0 .03.01.03.03.1.96 1.08 1.56 1.99 1.13h.04a1.4 1.4 0 0 0 2.32 0h.02c.4.17.78.18 1.16.03.42-.17.69-.49.8-.95.02-.06.02-.14.03-.22 0-.02.02-.03.04-.03.69-.02 1.2-.58 1.29-1.23Z" fill="#910631"/></svg>