<!-- by TradingView --><svg width="18" height="18" viewBox="0 0 18 18" xmlns="http://www.w3.org/2000/svg"><path fill="#283265" d="M0 0h18v18H0z"/><path d="M8.7 7.1a.3.3 0 1 1 .6 0v3.8a.3.3 0 0 1-.6 0V7.1ZM7.41 8.04a.3.3 0 1 1 .59 0v1.92a.3.3 0 0 1-.59 0V8.04ZM10 8.04a.3.3 0 0 1 .59 0v1.92a.3.3 0 0 1-.59 0V8.04Z" fill="#fff"/><path d="M8 4 4.4 7.95a1.6 1.6 0 0 0 0 2.1L8 14v-1.96L5.62 9.4a.6.6 0 0 1-.15-.4.6.6 0 0 1 .15-.4L8 5.96V4ZM10 14l3.6-3.95a1.6 1.6 0 0 0 0-2.1L10 4v1.96l2.38 2.64c.1.11.15.26.15.4a.6.6 0 0 1-.15.4L10 12.04V14Z" fill="#fff"/></svg>