<!-- by TradingView --><svg width="18" height="18" viewBox="0 0 18 18" xmlns="http://www.w3.org/2000/svg"><path fill="#F0F3FA" d="M0 0h18v18H0z"/><path d="M8.3 4.33c.03.01.06.02.09.01a2.29 2.29 0 0 0 2.28 1.22c.17.85 1.4 1.04 2.03.62l.03-.01.02.01a4.7 4.7 0 0 1-3.6 7.48 4.7 4.7 0 0 1-.85-9.33Z" fill="#F3AE1C"/><path d="M8.38 4.01c.13 0 .24.07.3.18.38.7 1.16 1.14 1.94 1.03.18-.02.34.1.37.27.06.26.27.45.6.53.34.09.7.03.92-.12a.37.37 0 0 1 .5.09 5.03 5.03 0 0 1-3.84 8 5.03 5.03 0 0 1-.79-9.98Zm4.37 2.17a.04.04 0 0 0-.05 0c-.62.42-1.86.23-2.03-.62a2.29 2.29 0 0 1-2.28-1.22h-.1a4.7 4.7 0 0 0 .86 9.33 4.7 4.7 0 0 0 3.6-7.49Z" fill="#4D2D04"/><path d="M11.36 7.67c.55.05.87.34.97.85.05.3-.3.18-.45.14-.51-.15-.93.16-1.36.33a.14.14 0 0 1-.13-.01.13.13 0 0 1-.06-.12c0-.17-.01-.36.04-.51a.96.96 0 0 1 .84-.67l.15-.01ZM6.63 8.67c.58.04.92.32 1.03.83.05.22-.11.27-.29.2-.62-.21-1 .1-1.52.3a.14.14 0 0 1-.12-.02.13.13 0 0 1-.04-.05.12.12 0 0 1-.02-.05c0-.2-.02-.42.06-.6.12-.31.54-.64.9-.61ZM7.35 11.08c.04-.17.15-.26.34-.28.5-.06 1.06.02 1.55-.1.48-.12 1-.4 1.5-.36.3.02.28.76.24.93-.15.65-.71 1.34-1.47 1.4-.66.04-2.37-.54-2.16-1.59Z" fill="#4D2D04"/><path d="M8.68 11.98c-.16-.64 1.8-.96 1.65-.22-.02.1-.1.2-.25.3-.4.31-.81.35-1.23.14a.32.32 0 0 1-.17-.22Z" fill="#F9E09B"/><circle cx="7" cy="6" r=".33" fill="#4D2D04"/><circle cx="9.67" cy="7" r=".33" fill="#4D2D04"/><circle cx="12.33" cy="10.33" r=".33" fill="#4D2D04"/><circle cx="5.67" cy="11" r=".33" fill="#4D2D04"/></svg>