<!-- by TradingView --><svg xmlns="http://www.w3.org/2000/svg" width="18" height="18"><path fill="#F0F3FA" d="M0 0h18v18H0z"/><path d="M8.37 4H13v2.2h-.56V4.62H9v3.75H6.19V5.56h.31v-.94h1.87V4z" fill="gray"/><path d="M4 8.37h5.31v5.31H4z"/><path d="M4 7.13h4v6.24H4V7.13z" fill="gray"/><path d="M7.13 4.62h.94v.31h-.94z"/><path fill="#F0F3FA" d="M7.13 4.31h.63v.31h-.63z"/><path d="M8.69 6.19H9v1.56h-.31z"/><path d="M7.75 7.44H4.31v5.93H9V8.7H7.75V7.44z" fill="#F0F3FA"/><path d="M7.44 8.37h-2.5v4.38h3.43V9.31h-.93v-.94z" fill="#00F"/><path d="M6.81 4.31H6.5v.63h-.63v.31h.63v.62h.31v-.3h.32v-.32h.3v-.31h-.3v-.32H6.8v-.3zm-1.25.94h.32v.31h-.32v.94h-.31v-.94h.31v-.31zm6.88 7.19v.31h-.63v.62h-.31v-.62h-.63v-.31h.32v-.32h.31v-.3h.31v.3h.31v.32h.32zm-.94 1.25v-.31h-.31v.3h-.94V14h.94v-.31h.31z" fill="red"/><path d="M12.75 5.88H14v.31h-1.25z"/><path fill="#00F" d="M10.56 8.06h.63v1.88h-.63zm.32-2.18H9.62v.3h-.3v1.26h.3v.31h1.26v-.31h.3V6.19h-.3v-.32zm-.94.3h.62v1.26h-.62V6.19zm3.12 1.88h-1.25v.31h-.31v1.25h.31v.32h1.25v-.32h.31V8.37h-.3v-.3zm-.94.31h.63v1.25h-.63V8.37zm-.62-2.5h.63v1.84h-.63V5.88zm1.88.32h-.63V7.7h.63V6.19z"/><path d="M10.25 10.56h1.88v.31h-1.88zm1.88.32h.31v.63h-.31z"/><path d="M12.13 11.19h.63v.31h-.63zm.62.31H14v.31h-1.25z"/><path d="M13.69 5.88H14v5.94h-.31zm-4.5 4.99h1.06v.63H9.19z"/></svg>