<!-- by TradingView --><svg xmlns="http://www.w3.org/2000/svg" width="18" height="18"><path fill="#F0F3FA" d="M0 0h18v18H0z"/><path d="M11.5 3.69c.39.15.39.53.34.7.07-.17.29-.46.67-.32.38.14.38.5.33.65-.05.2-.4.68-1.37.91-.74-.78-.73-1.43-.63-1.65.06-.16.27-.44.66-.29z" fill="url(#adjj5ev4k)"/><path d="M11.27 13.48l.63.52s1.02-.2 1.1-.86l-.46-.64-1.27.98z" fill="#404D1E"/><path d="M9.91 7.66L8.6 7l-.4-.94s-.04-.57 0-.65c.06-.09.61-.33.61-.33h.03c-.03.13.38 1 .52 1.29.05.23.25.7.47.8.14.06.12.38.1.5z" fill="url(#bdjj5ev4k)"/><path d="M7.62 11.21l-1.69 1.37C5.88 11.64 7 10.83 7 10.83l.02-.19-.65-.46-1.14-.9v-.06c.03-.38.63-.69.63-.69l1.39 1.35.37 1.33z" fill="#64862B"/><path d="M6.48 10.66v.12c-.42.17-.87-.6-.87-.6s-.36-.53-.37-.91l.91.74s-.04.22-.03.34c.01.11.36.31.36.31z" fill="#4B5C20"/><path d="M5.87 5.22c-1.2.34-.85 2.56-.31 3.2.31.54.87 1.52 1.96 2.7 0 0 1.33-.6 2.4.08 0 0 .67.48.97.43l-1-4.05c-1.07-.86-2.45-2.8-4.02-2.36z" fill="url(#cdjj5ev4k)"/><path d="M12.04 13s-.48.57-1.15.6c-.67.03-2.27-1.27-2.27-1.27s-1.08-1.06-2.08.09c-1.01 1.15-.74 1.18-.74 1.18s.74.53.87-.05c0 0 .05-.1.09.02.04.13-.1.3-.1.3s-.33.25-.64.06c-.3-.2-.39-.2-.4-.38-.01-.18.25-.87.25-.87s.79-1.45 1.73-1.67c.95-.22 1.64-.35 2.14-.05.5.3 1.18.74 1.18.74s.48 1.58 1.12 1.3z" fill="#3D5D25"/><path d="M9.93 6.76c-.22-.07-.35-.69-.54-.53-.05.03-.05.1-.04.14a6.48 6.48 0 01-.52-1.3c.7.08 1.03 1.1 1.1 1.69z" fill="#4C5C20"/><path d="M12.27 12.92s-.55.56-1.02-.32c-.47-.9-1.56-4.75-1.37-5.6.2-.84.47-1.11.47-1.11s.59-.68.97-.69c.38-.01.8.2.87.28.23.29.04.64-.1.91-.13-.05.07-.53.06-.67-.01-.1-.26-.28-.52-.28-2.6 0 1.36 5.39.99 6.96-.01.04-.35.52-.35.52z" fill="url(#ddjj5ev4k)"/><defs><linearGradient id="adjj5ev4k" x1="11.99" y1="3.87" x2="11.35" y2="5.59" gradientUnits="userSpaceOnUse"><stop stop-color="#FF98D4"/><stop offset=".59" stop-color="#F6239E"/></linearGradient><linearGradient id="bdjj5ev4k" x1="8.54" y1="4.57" x2="9.39" y2="7.77" gradientUnits="userSpaceOnUse"><stop offset=".22" stop-color="#64862B"/><stop offset="1" stop-color="#315515"/></linearGradient><linearGradient id="cdjj5ev4k" x1="6.12" y1="10.58" x2="9.84" y2="7.15" gradientUnits="userSpaceOnUse"><stop offset=".17" stop-color="#805501"/><stop offset=".75" stop-color="#F0CF01"/></linearGradient><linearGradient id="ddjj5ev4k" x1="12.72" y1="13.01" x2="10.39" y2="5.2" gradientUnits="userSpaceOnUse"><stop stop-color="#535215"/><stop offset=".07" stop-color="#848633"/><stop offset=".51" stop-color="#9FD259"/><stop offset=".74" stop-color="#7CC950"/><stop offset=".84" stop-color="#6EA643"/><stop offset="1" stop-color="#5C7831"/></linearGradient></defs></svg>