<!-- by TradingView --><svg xmlns="http://www.w3.org/2000/svg" width="18" height="18" viewBox="0 0 18 18"><path fill="url(#a4kixyakv)" d="M0 0h18v18H0z"/><path d="M9.5 3c-3.33.1-6 2.74-6 6s2.67 5.9 6 6V3z" fill="url(#b4kixyakv)"/><path d="M9.59 6.26A2.74 2.74 0 1 0 12 10.3l1.5.81A4.45 4.45 0 0 1 5.13 9a4.46 4.46 0 0 1 8.37-2.12l-1.5.81a2.74 2.74 0 0 0-2.41-1.43z" fill="#fff"/><path opacity=".5" d="M9.5 3c-3.33.1-6 2.74-6 6s2.67 5.9 6 6V3z" fill="url(#c4kixyakv)"/><defs><linearGradient id="a4kixyakv" x1="3.35" y1="3.12" x2="21.9" y2="24.43" gradientUnits="userSpaceOnUse"><stop stop-color="#1A1E21"/><stop offset="1" stop-color="#06060A"/></linearGradient><linearGradient id="b4kixyakv" x1="9.5" y1="3.34" x2="8.33" y2="14.49" gradientUnits="userSpaceOnUse"><stop stop-color="#23B77F"/><stop offset=".44" stop-color="#2857B3"/><stop offset=".65" stop-color="#396CC6"/><stop offset=".82" stop-color="#5AA3EA"/><stop offset="1" stop-color="#92F5EA"/></linearGradient><linearGradient id="c4kixyakv" x1="9.5" y1="3.34" x2="8.33" y2="14.49" gradientUnits="userSpaceOnUse"><stop stop-color="#23B77F"/><stop offset=".44" stop-color="#2857B3"/><stop offset=".65" stop-color="#396CC6"/><stop offset=".82" stop-color="#5AA3EA"/><stop offset="1" stop-color="#92F5EA"/></linearGradient></defs></svg>