<!-- by TradingView --><svg width="18" height="18" viewBox="0 0 18 18" xmlns="http://www.w3.org/2000/svg"><path fill="url(#a)" d="M0 0h18v18H0z"/><path d="M7.4 4 9 5.6 10.6 4H14v3.38L12.38 9 14 10.62V14h-3.4L9 12.4 7.4 14H4v-3.38L5.61 9 4 7.38V4h3.4Z" fill="url(#b)"/><path d="M9 6c.83 0 1.58.34 2.13.89L9.7 8.3a1 1 0 0 0-1.64 1.08l-.5.5A1.66 1.66 0 0 1 9.6 7.44l.5-.5a2.33 2.33 0 0 0-3.02 3.38l-.47.48A3 3 0 0 1 9 6ZM9 12c-.83 0-1.58-.34-2.13-.89L8.3 9.7A1 1 0 0 0 10 9a1 1 0 0 0-.07-.38l.49-.49a1.67 1.67 0 0 1-2.02 2.42l-.5.5a2.33 2.33 0 0 0 3.02-3.38l.47-.48A3 3 0 0 1 9 12Z" fill="#fff"/><defs><linearGradient id="a" x1="9" y1="0" x2="9" y2="18" gradientUnits="userSpaceOnUse"><stop stop-color="#2E6F65"/><stop offset="1" stop-color="#4E4F7C"/></linearGradient><linearGradient id="b" x1="4" y1="4" x2="14" y2="14" gradientUnits="userSpaceOnUse"><stop stop-color="#4FE39E"/><stop offset=".51" stop-color="#69D6FA"/><stop offset="1" stop-color="#AC92F6"/></linearGradient></defs></svg>