<!-- by TradingView --><svg width="18" height="18" viewBox="0 0 18 18" xmlns="http://www.w3.org/2000/svg"><path fill="#A6FB0C" d="M0 0h18v18H0z"/><path d="M10.36 13.01c.2-.07.42.04.49.24.06.2-.04.42-.24.49a4.99 4.99 0 0 1-3.22 0 .38.38 0 0 1 .25-.73c.87.3 1.85.3 2.72 0Zm-4.58-1.33a.38.38 0 1 1 .54.54l-.83.83a.38.38 0 0 1-.54 0 .38.38 0 0 1 0-.54l.83-.83Zm5.9 0c.15-.15.39-.15.54 0l.83.83a.38.38 0 0 1-.54.54l-.83-.83a.38.38 0 0 1 0-.54Zm1.57-4.53c.2-.07.42.04.48.24a4.99 4.99 0 0 1 0 3.22.38.38 0 0 1-.48.24.38.38 0 0 1-.24-.49 4.23 4.23 0 0 0 0-2.72.38.38 0 0 1 .17-.46l.07-.03Zm-9 .28a.38.38 0 0 1 .73.24 4.17 4.17 0 0 0 0 2.7.38.38 0 1 1-.72.24 5.05 5.05 0 0 1 0-3.18Zm.7-2.48c.15-.15.39-.15.54 0l.83.83a.38.38 0 1 1-.54.54l-.83-.83a.38.38 0 0 1 0-.54Zm7.56 0a.38.38 0 0 1 .54.54l-.82.82a.38.38 0 0 1-.54 0 .38.38 0 0 1 0-.54l.82-.82Zm-5.12-.69a5.05 5.05 0 0 1 3.22 0 .38.38 0 0 1-.25.73c-.87-.3-1.85-.3-2.72 0a.38.38 0 0 1-.49-.24.38.38 0 0 1 .24-.49Z"/></svg>