<!-- by TradingView --><svg width="18" height="18" viewBox="0 0 18 18" xmlns="http://www.w3.org/2000/svg"><path fill="url(#al4n2zrlk)" d="M0 0h18v18H0z"/><path d="M7.74 4.15C8.11 4.06 8.5 4 8.87 4c1.63 0 3.22.73 4.09 2.3a.3.3 0 0 1 .04.17c0 .11-.1.19-.2.2a.33.33 0 0 1-.26-.1C11.76 5.85 10.86 5 9.36 5h-.04c-.65-.5-1.18-.66-1.58-.85Z" fill="url(#bl4n2zrlk)"/><path d="M4.02 8.34a5 5 0 0 0-.01.64C4.47 8.49 5.13 7.83 6 7.72 6.27 6.13 8.06 5.02 9.32 5c-.65-.5-1.18-.66-1.58-.85a4.68 4.68 0 0 0-3.72 4.19Z" fill="url(#cl4n2zrlk)"/><path d="M6 7.73c-.87.1-1.53.76-2 1.25a5.16 5.16 0 0 0 1.18 3c.95.1 2.64.03 3.61-.87A2.9 2.9 0 0 1 6 7.73Z" fill="url(#dl4n2zrlk)"/><path d="M10.04 13.97a5.35 5.35 0 0 0 .92-3.69c.4-.3.89-.6 1.37-.6.88-.02 1.64.6 1.67 1.5 0 .26-.06.53-.2.75a4.83 4.83 0 0 1-3.76 2.04Z" fill="url(#el4n2zrlk)"/><path d="M8.8 11.1c-.98.9-2.67.98-3.62.88 1 1.23 2.5 2.02 4.15 2.02a6.28 6.28 0 0 0 .73-.03c.91-1.16 1-2.78.9-3.69l-.04.03c-.67.53-1.34.84-2.13.8Z" fill="url(#fl4n2zrlk)"/><defs><linearGradient id="al4n2zrlk" x1="3.35" y1="3.12" x2="21.9" y2="24.43" gradientUnits="userSpaceOnUse"><stop stop-color="#1A1E21"/><stop offset="1" stop-color="#06060A"/></linearGradient><linearGradient id="bl4n2zrlk" x1="8.7" y1="4.62" x2="13.06" y2="6.58" gradientUnits="userSpaceOnUse"><stop stop-color="#57AFA6"/><stop offset="1" stop-color="#90FDBF"/></linearGradient><linearGradient id="cl4n2zrlk" x1="8.36" y1="5" x2="4.35" y2="7.84" gradientUnits="userSpaceOnUse"><stop stop-color="#579CA8"/><stop offset="1" stop-color="#DA69DD"/></linearGradient><linearGradient id="dl4n2zrlk" x1="4.29" y1="8.61" x2="8.81" y2="10.85" gradientUnits="userSpaceOnUse"><stop stop-color="#542086"/><stop offset="1" stop-color="#7ADDDF"/></linearGradient><linearGradient id="el4n2zrlk" x1="13.99" y1="11.5" x2="10.88" y2="11.89" gradientUnits="userSpaceOnUse"><stop stop-color="#51A7A4"/><stop offset="1" stop-color="#78DCB5"/></linearGradient><linearGradient id="fl4n2zrlk" x1="6.28" y1="11.74" x2="11.18" y2="12.14" gradientUnits="userSpaceOnUse"><stop stop-color="#1ACACD"/><stop offset="1" stop-color="#86FAC2"/></linearGradient></defs></svg>