<!-- by TradingView --><svg width="18" height="18" viewBox="0 0 18 18" xmlns="http://www.w3.org/2000/svg"><path fill="#F0F3FA" d="M0 0h18v18H0z"/><circle cx="9" cy="9" r="6" fill="#06311D"/><path d="M9.1 3.39c0 .06 0 .1-.04.1-.75.23-1.53.37-2.33.42.73-.43 1.52-.6 2.37-.52Z" fill="#D0EBBF"/><path d="m9.1 3.39.9.13c-.04.06-.04.12-.01.18l-.79-.2-.07.01c-.05.02-.07.01-.07-.02.03 0 .05-.04.04-.1Z" fill="#3CC07F"/><path d="M9.99 3.7c.72.2 1.72.53 2.22 1.1.38.43.76.77 1 1.24.22.46.36.95.4 1.48l-.33-.57a.2.2 0 0 1-.02-.17c.02-.07.02-.11 0-.14-.06-.1-.17-.24-.32-.4-.15-.3-.35-.57-.6-.8-.1-.1-.22-.27-.38-.52-.07-.1-.37-.12-.47-.04a2.5 2.5 0 0 0-.78-.43c-.18-.13-.34-.18-.48-.14l-.27-.14c.02-.03.03-.07.02-.1a.1.1 0 0 0-.09-.06 4.43 4.43 0 0 0-3.37.63c-.18.11-.2.2-.08.28a.93.93 0 0 0-.3.16c-.54.12-.9 1.21-1.48 1.1.21-.63.62-1.11 1.24-1.44.1-.05.18-.11.23-.17.16-.2.16-.3.01-.32.23-.2.42-.32.6-.34.8-.05 1.57-.19 2.32-.41 0 .02.02.03.07.01a.11.11 0 0 1 .07 0l.79.19Z" fill="#077468"/><path d="M10 3.52c.55.06 1.07.23 1.54.5.33.18.63.53.99.78a3.8 3.8 0 0 1 1.33 2.09c.23 1.22-.02 2.3-.12 3.47-.03.4-.16.86-.38 1.37l-.14.24c-.08.04-.11-.03-.1-.2.14-.37.23-.7.26-.97.11-.9.19-2 .23-3.28a3.96 3.96 0 0 0-.4-1.48c-.24-.48-.62-.81-1-1.24-.5-.57-1.5-.9-2.22-1.1-.03-.06-.03-.12 0-.18ZM9.96 4.17c-.78-.02-1.58-.1-2.3.16a8.1 8.1 0 0 0-1.22.59c-.12-.08-.1-.17.08-.28A4.43 4.43 0 0 1 9.89 4a.1.1 0 0 1 .09.06c0 .03 0 .07-.02.1ZM6.14 4.25c.15.01.15.12-.01.32a.75.75 0 0 1-.23.17c-.62.33-1.03.8-1.24 1.45l-.57 1c-.1 0-.14-.08-.14-.22l.71-1.4c.36-.55.85-.99 1.48-1.32Z" fill="#E9FDF0"/><path d="M12.94 6.23c.15.17.26.3.32.4.02.03.02.08 0 .15a.2.2 0 0 0 .02.17l.33.57a39.4 39.4 0 0 1-.23 3.28c-.03.28-.12.6-.26.96-.05 0-.06 0-.04.04-.2-.02-.3.13-.3.45.01.04-.02.1-.09.19a3.08 3.08 0 0 0-.13-.91c.09-.47.05-1.04-.42-1.28h-1a.33.33 0 0 1-.16-.04c-.2-.11-.4-.06-.6.17.03.03-.02.03-.16.02.08-.06.11-.12.1-.16 0-.06-.33-.18-.38-.18-.39.04-.74.02-1.05-.07.7.07 1.3-.06 1.85-.38.5-.3.35-.82-.09-1.07l-.08-.34.46.05c.2.48.34.54.39.2.08.12.1.3.09.5-.01.06.02.08.08.08.32-.03 1.28.18 1.46.1a.1.1 0 0 0 .06-.1l.02-.74c.25-.3.24-.52 0-.64.26-.08.3-.26.12-.55a4.7 4.7 0 0 1-.31-.87ZM13.36 12.36l.12-.26c.02-.05 0-.09-.04-.11-.11-.06-.14-.15-.08-.26.22-.51.35-.97.38-1.37.1-1.18.35-2.25.12-3.47a.36.36 0 0 0 .2-.09c.03-.03.06-.03.1 0 .3.23.26.62.37.96.02.05.03.11.02.17-.02.15.01.28.12.39.04.04.06.09.07.15.04.61-.02 1.21-.18 1.8-.07.22.01.48-.2.69a.33.33 0 0 0-.08.15c-.12.46-.5.72-.62 1.22-.02.07-.07.11-.14.11-.17.01 0-.03-.16-.08ZM8.45 7.38c-.13 0-.18.02-.16.1a.31.31 0 0 1-.1.02c-.04.01-.07.04-.07.08 0 .05.01.09.03.13.03.06.08.09.15.08l.94-.08c.1 0 .12-.08.06-.21V7.4c0-.07.03-.09.1-.05l.87.6c-.19-.05-.31-.02-.38.1a.18.18 0 0 1-.14.1l-.43.05c-.48.08-.84-.04-1.36.22l-.1-.3a.16.16 0 0 1 0-.15c.15-.26-.08-.53.3-.75h.01v.01a.11.11 0 0 0-.02.06c0 .01.01.02.03.02.12 0 .21.01.27.06Z" fill="#015130"/><path d="m8.3 7.47.85-.02.15.05c.06.13.04.2-.06.21l-.94.08c-.07 0-.12-.02-.15-.08a.26.26 0 0 1-.03-.13c0-.04.03-.07.07-.08.05 0 .08-.01.1-.03Z" fill="#E9FDF0"/><path d="M13.12 7.65c.25.12.26.34.01.64-.1-.28-.11-.5 0-.64Z" fill="#3CC07F"/><path d="M10.27 7.97c.01.07.05.11.12.13.1.1.15.13.18.1l.08.34c-1.29-.47-.05-.11-1.33-.33l.43-.06c.06 0 .1-.04.14-.1.06-.11.2-.14.38-.08Z" fill="#077468"/><path d="m9.32 8.21.62.1.15.02.56.21c.44.25.6.77.09 1.07-.54.32-1.16.45-1.85.38-.11-.01-.18-.04-.22-.08-.04-.05-.03-.08.04-.1l.36-.06c.33-.11.6-.13.8-.06.07.02.13.01.19-.02l.43-.22a.3.3 0 0 0 .1-.44c-.5-.65-1.8-.53-2.47-.3-.06.02-.11 0-.15-.06-.04-.06-.05-.13-.01-.22.51-.25.88-.14 1.36-.22Z" fill="#E9FDF0"/><path d="M10.22 10.4c-.25.11-.47.14-.66.08-.16-.05-.16-.1 0-.15l.43-.13.23-.05c.06-.01.1.02.1.09.01.04-.02.1-.1.16Z" fill="#3CC07F"/><path d="m12.14 10.25-1.75.13c.19-.23.38-.28.59-.17.05.03.1.04.16.04h1Z" fill="#06311D"/><path d="M4.72 11.37c.16.27.18.41.06.42-.32-.59-.34-.73-.06-.42Z" fill="#3CC07F"/><path d="M13.36 11.73c-.06.11-.03.2.08.26.05.02.06.06.04.11l-.12.26c-.34.63-.86 1.1-1.53 1.4a5.4 5.4 0 0 0 1.4-1.8l.13-.23Z" fill="#C3643E"/><path d="M13.12 11.76c-.01.18.02.25.1.2a5.41 5.41 0 0 1-1.4 1.8c-.3.2-.7.35-1.2.44l.26-.3a5.63 5.63 0 0 0 2.24-2.14Z" fill="#D0EBBF"/><path d="M13.08 11.8a.92.92 0 0 1-.3.45c0-.32.1-.47.3-.45Z" fill="#077468"/><path d="M6.66 13.75a5 5 0 0 0 4.22.15l-.26.3c-1.22.44-2.43.4-3.63-.13-.24-.1-.35-.21-.33-.32ZM4.67 7.3l-.02-.05c-.01-.04-.03-.04-.06-.02a.23.23 0 0 0-.04.04.76.76 0 0 1 .18-.46c.05-.06.07-.05.05.02l-.1.48Z" fill="#3CC07F"/><path d="M4.67 7.3c0 .4.1.95-.05 1.3-.07.17-.13.28-.08.47a5.68 5.68 0 0 1 .2 1.5.07.07 0 0 1-.09.05l-.06-.01c-.06-.01-.1-.05-.1-.12v-.9c0-.05-.03-.1-.06-.15a.8.8 0 0 1-.1-.78c.1-.23.14-.46.1-.69l.12-.7a.23.23 0 0 1 .04-.04c.03-.02.05-.02.06.02l.02.06ZM6.9 9.7c-.36-.37 0-.6-.2-.89a.14.14 0 0 1-.03-.09c0-.03.02-.06.04-.08.17-.17.37-.3.6-.39.1-.03.11-.01.04.07-.21.26-.3.5-.27.7a.16.16 0 0 1-.03.13l-.06.08a.13.13 0 0 0-.03.09c0 .03.02.06.04.08.07.07.12.16.16.25.03.08 0 .12-.08.13-.05 0-.11-.02-.18-.08Z" fill="#E9FDF0"/><path d="M6 8.95c-.08.15-.03.28.15.38l-1.11.08c.14-.03.22-.07.23-.13.02-.16-.01-.25-.11-.26.06-.2.2-.35.39-.44a.17.17 0 0 1 .17.02c.13.08.22.2.28.35Z" fill="#077468"/><path d="M6 8.95c.42.2.47.33.15.38-.18-.1-.23-.23-.15-.38ZM5.16 9.02c.1.01.13.1.11.26 0 .06-.09.1-.23.13-.22-.04-.18-.17.12-.39Z" fill="#3CC07F"/><path d="M11.76 9.58a.02.02 0 0 1-.02-.03v-.02c.02-.1.1-.2.2-.27.1-.06.23-.09.36-.07l.15.02c.13.02.25.08.33.18.08.09.12.2.1.3v.03a.03.03 0 0 1-.02.01l-1.1-.15Z" fill="#E9FDF0"/><path d="M11.02 13.64a.21.21 0 0 1-.1.01c-.04 0-.06-.02-.06-.05v-.11c.8-.37 1.04-.8 1.57-1.33a.06.06 0 0 1 .08 0l.02.03c.02.09-.02.18-.1.27-.52.55-1 .95-1.41 1.18Z" fill="#3CC07F"/><path d="M10.87 13.49a.32.32 0 0 0-.01.1c0 .04.02.06.06.06l.1-.01-.61.23c-.03.02-.05 0-.06-.02l-.03-.07v-.04l.03-.03.52-.22Z" fill="#077468"/></svg>