<!-- by TradingView --><svg width="18" height="18" viewBox="0 0 18 18" xmlns="http://www.w3.org/2000/svg"><path fill="#151E57" d="M0 0h18v18H0z"/><path d="M9 5H7.57l-.46 2H5.86C5.06 7 3 7.78 3 9.98 3 11.2 3.68 12 4.85 12h2.83L8 10.75H5.27c-.24-.01-.8-.33-.8-.9 0-.7.77-1.6 1.65-1.6h.7L6.43 10a1.8 1.8 0 0 0 1.76-1.4L9 5ZM12.3 5h-1.5l-1.2 5h1.5l.42-1.75h1.25c.25.01.73.33.73.9 0 .7-.77 1.6-1.66 1.6h-1.45A1.4 1.4 0 0 0 9 12h3.1c.97-.07 2.9-.78 2.9-2.98C15 7.8 14.3 7 13.12 7h-1.3l.48-2Z" fill="#fff"/></svg>