<!-- by TradingView --><svg width="18" height="18" viewBox="0 0 18 18" xmlns="http://www.w3.org/2000/svg"><path fill="#F0F3FA" d="M0 0h18v18H0z"/><path d="M7.75 4.94H9v8.43H7.75v-.62h-.94v-.31H6.5v-.31h-.31v-.32h-.32v-.31h-.3v-.31h-.32v-.94h-.31v-2.5h.31v-.94h.31V6.5h.32v-.31h.3v-.32h.32v-.3h.31v-.32h.94v-.31Z" fill="#FFD058"/><path d="M10.25 4.94H9v8.43h1.25v-.62h.94v-.31h.31v-.31h.31v-.32h.31v-.31h.32v-.31h.31v-.94h.31v-2.5h-.31v-.94h-.31V6.5h-.31v-.31h-.32v-.32h-.31v-.3h-.31v-.32h-.94v-.31Z" fill="#F8C056"/><path d="M8.38 8.69h-.63v-.94H8v-.31h1.31v.31H8.7v.31h-.31v.63ZM10.56 6.81h-.62v.63h.31v1.25h-.31v.62h.31V10h.31v.56H11V11h.5v-.44h-.31V10h-.31v-.69h-.32V8.7H11V7.13h-.44V6.8ZM8.38 9.31h-.63V11h.63V9.31Z" fill="#C04A07"/><path d="M10 6.81v.63H8v.31h-.25v.94h1.56v.62H7.75V11H7V7.44h.44v-.32h.31v-.3H10Z" fill="#E86609"/><path d="M9.31 7.75v-.94h.63v.63h.31v1.25H10v.62h.25V10h.31v.56H11V11h-.75v-.13H10v-.62h-.38v-.63h-.3V8.38h.3v-.63h-.3Z" fill="#E86609"/><path d="M9 4.31H7.75v.32h-.94v.3H6.2v.32h-.32v.31h-.3v.32h-.32v.3h-.31v.63h-.32v.94h-.3v2.19h.3v.94h.32v.62h.31v.31h.31v.31h.32v.32h.3v.31h.63v-.31H6.5V12h-.31v-.19h-.2v-.31h-.43V11h-.31v-.75H5v-2.5h.25V7h.31v-.5h.32v-.31h.3v-.32h.32v-.3h.31v-.32h.94V5H9v-.69Z" fill="#fff"/><path d="M9 4.31h1.25v.32h.94v.3h.62v.32h.31v.31h.32v.32h.31v.3h.31v.32h.31v1.25h.32v2.19h-.31v.94h-.32v.62h-.31v.31h-.31v.31h-.31v.63H11v-.31h.38v-.31h.28v-.32H12v-.31h.44v-.31h.31v-.94H13v-2.5h-.25v-.94h-.31V6.5h-.31v-.31h-.32v-.32h-.31v-.3H11v-.32h-.75V5H9v-.69ZM10.25 12.75h.94v.62h-.94v-.62Z" fill="#F29914"/><path d="M9 13.38H7.75v.3H9v-.3Z" fill="#FFE6A6"/><path d="M10.56 13.38H9v.3h1.56v-.3Z" fill="#F29914"/><path d="M7.75 4h2.5v.31h-2.5zM10.25 4.31h.94v.31h-.94zM11.19 4.63h.63v.31h-.63zM11.5 4.94h.63v.31h-.63zM11.81 5.25h.63v.31h-.63zM12.44 5.56h.31v.31h-.31zM12.75 5.88h.31v.31h-.31zM13.06 6.19h.31v.31h-.31zM13.38 6.5h.31v1.25h-.31zM13.38 9.94h.31v.94h-.31zM12.75 11.19h.31v.63h-.31zM12.44 11.81h.31v.31h-.31zM13.06 10.88h.31v.31h-.31zM12.13 12.13h.31v.31h-.31z"/><path d="M12.13 12.44h.31v.31h-.31zM11.81 12.75h.31v.31h-.31z"/><path d="M11.19 12.75h.63v.31h-.63zM11.19 13.06h.31v.31h-.31zM7.75 13.69h2.81V14H7.75zM6.81 13.06h.63v.31h-.63zM6.19 12.75h.63v.31h-.63zM5.88 12.44h.31v.31h-.31zM7.44 13.38h.31v.31h-.31zM10.56 13.38h.63v.31h-.63zM5.56 12.13h.31v.31h-.31zM5.25 11.81h.31v.31h-.31zM4.94 11.5h.31v.31h-.31zM4.63 10.88h.31v.63h-.31zM4.31 9.94h.31v.94h-.31zM4 7.75h.31v2.19H4zM4.31 6.81h.31v.94h-.31zM4.63 6.19h.31v.63h-.31zM4.94 5.88h.31v.31h-.31zM5.25 5.56h.31v.31h-.31zM5.56 5.25h.31v.31h-.31zM5.88 4.94h.31v.31h-.31zM6.19 4.63h.63v.31h-.63zM6.81 4.31h.94v.31h-.94zM13.69 7.75H14v2.19h-.31z"/></svg>