<!-- by TradingView --><svg width="18" height="18" viewBox="0 0 18 18" xmlns="http://www.w3.org/2000/svg"><path fill="url(#a)" d="M0 0h18v18H0z"/><path d="m13.59 6.44.01.02h.01c.04.05.09.06.13.1a8.46 8.46 0 0 0 .2.16 3.54 3.54 0 0 0 .23.22l.1.13.05.06a.3.3 0 0 1 .03.05l.07.08a2.3 2.3 0 0 1-.09 2.55 2.17 2.17 0 0 1-.91.72l-.18.07a2.15 2.15 0 0 1-1.12.03l-.2-.06c-.06-.01-.11-.05-.17-.08h-.01a1 1 0 0 0-.1.47c0 .34 0 .68.03 1.01-.1 0-.2-.03-.3-.05a2.9 2.9 0 0 1-1.43-.85l-.76-.79 1.06-1.1h.02a447.05 447.05 0 0 1 .86.89l.07.06.24.18c.21.1.44.14.68.13.32-.01.6-.12.83-.31.3-.25.5-.6.53-1a1.44 1.44 0 0 0-.72-1.39c-.3-.17-.61-.22-.95-.15a1.36 1.36 0 0 0-.78.45L9.8 9.28a.52.52 0 0 1-.06-.22l-.01-.24v-.96c0-.18-.03-.35-.07-.5a.58.58 0 0 1-.01-.12 47.42 47.42 0 0 0 .5-.51 2.89 2.89 0 0 1 3.44-.3ZM6.57 7.72l-.05-.07a.41.41 0 0 1-.07-.04.7.7 0 0 0-.11-.05L6.2 7.5c-.09-.04-.18-.08-.26-.1l-.19-.04a1.87 1.87 0 0 0-.68-.02 2.07 2.07 0 0 0-.9.35 2.23 2.23 0 0 0-.8 2.7 2.53 2.53 0 0 0 .14.29 15.45 15.45 0 0 0 .1.16A3.01 3.01 0 0 1 3 8.91 3.02 3.02 0 0 1 5.22 6.1l.18-.04C5.63 6 5.85 6 6.07 6a2.89 2.89 0 0 1 1.98.92l.67.68.1.11v.01l-1.1 1.12L6.95 8c-.11-.12-.24-.22-.39-.3Z" fill="#EBEBED"/><path d="M13.59 6.44a2.99 2.99 0 0 1 1.4 2.79 3.04 3.04 0 0 1-1.5 2.39 6.28 6.28 0 0 1 0-.72c0-.16.03-.3.09-.44a2.25 2.25 0 0 0 .84-3.2l-.07-.08a.28.28 0 0 0-.03-.05l-.05-.06-.1-.12a8.73 8.73 0 0 1-.43-.38c-.04-.05-.09-.06-.13-.1v-.01c-.02 0-.03-.01-.02-.02ZM6.57 7.72a1.35 1.35 0 0 0-.95-.12 1.4 1.4 0 0 0-.78.5 1.46 1.46 0 0 0-.01 1.8c.19.24.44.4.74.5.03.52.03 1.05 0 1.58l-.31-.06a2.91 2.91 0 0 1-1.74-1.24 2.53 2.53 0 0 1-.26-.65 2.34 2.34 0 0 1 .08-1.26 2.23 2.23 0 0 1 .99-1.17 2.07 2.07 0 0 1 1.43-.24l.19.04c.08.02.17.06.26.1l.13.06.11.05.07.04.05.07Z" fill="#C6C7C9"/><path d="M13.58 10.46c-.06.13-.09.28-.1.44l.01.72a2.87 2.87 0 0 1-1.82.35 9.05 9.05 0 0 1-.02-1 1 1 0 0 1 .09-.47h.01c.06.02.11.06.17.07l.2.06a2.15 2.15 0 0 0 1.12-.03l.18-.07.16-.07Z" fill="url(#b)"/><path d="M9.66 7.35a.58.58 0 0 1-.01-.11 12005.33 12005.33 0 0 0-2.85 2.9 1.38 1.38 0 0 1-1.23.25c.03.53.03 1.06 0 1.59l.14.01h.43a2.9 2.9 0 0 0 1.92-.92L9.8 9.28a.52.52 0 0 1-.06-.22l-.01-.24v-.96c0-.18-.03-.35-.07-.5Z" fill="url(#c)"/><defs><linearGradient id="a" x1="3.35" y1="3.12" x2="21.9" y2="24.43" gradientUnits="userSpaceOnUse"><stop stop-color="#1A1E21"/><stop offset="1" stop-color="#06060A"/></linearGradient><linearGradient id="b" x1="11.7" y1="11.13" x2="13.28" y2="11.13" gradientUnits="userSpaceOnUse"><stop stop-color="#EBEBED"/><stop offset="1" stop-color="#C6C7C9"/></linearGradient><linearGradient id="c" x1="5.8" y1="11.6" x2="9.82" y2="10.24" gradientUnits="userSpaceOnUse"><stop offset=".01" stop-color="#C6C7C9"/><stop offset="1" stop-color="#EBEBED"/></linearGradient></defs></svg>