<!-- by TradingView --><svg width="18" height="18" viewBox="0 0 18 18" xmlns="http://www.w3.org/2000/svg"><path fill="#F0F3FA" d="M0 0h18v18H0z"/><path d="m7.81 4 .01.02v.02c0 .01 0 .02-.02.02l-1.09 1.1-1-1.94-.08-.16c-.03-.05-.02-.07.04-.04l2.14.99Z" fill="#FF7E00"/><path d="M7.84 3c.07.1.14.17.2.24a826.52 826.52 0 0 1 1.42 1.48l.6 1.47h-.03a106.63 106.63 0 0 0-1.49-.38.36.36 0 0 1-.16-.07l-.55-.54v-.1A29.66 29.66 0 0 0 7.8 4v-.9l.02-.02c.01-.02.02-.05.01-.08Z" fill="#EFF3DC"/><path d="m7.84 3 2.2 1c-.04.09-.1.18-.17.26l-.18.18-.23.28a.2.2 0 0 1-.04-.04A822.6 822.6 0 0 0 7.84 3Z" fill="#FEA815"/><path d="m5.72 3.22 1 1.94c-.25.21-.49.44-.72.7a1.54 1.54 0 0 1-.08-.36 98.43 98.43 0 0 0-.27-2.18c0-.04.02-.07.07-.1Z" fill="#EFF3DC"/><path d="M10.04 4c.1.18.18.4.23.63l.92 2.7v.02h-.02c-.06-.04-.1-.1-.14-.15l-.97-1.01-.6-1.47a9 9 0 0 1 .4-.46.74.74 0 0 0 .18-.26Z" fill="#FF7E00"/><path d="M7.8 4.06c.02.05.02.09.02.11a29.6 29.6 0 0 1 0 1.03l-.51.5a1532.8 1532.8 0 0 0-2.24 2.22 7.2 7.2 0 0 1-.03-1.01c0-.07.03-.13.08-.18a72.96 72.96 0 0 1 1.6-1.57l1.08-1.1Z" fill="#FFCB84"/><path d="M10.27 4.63a.3.3 0 0 1 .13.03 810.19 810.19 0 0 1 3.55 1.58l-.02.04-.02.02-2.67 1.05c-.02 0-.03.02-.02.04l.08.27a403.97 403.97 0 0 0 1.08 3.2c0 .02-.01.03-.03.04-.01.02-.03.02-.06.02l-.91-.11-.83-.08c-.1-.01-.3-.05-.46-.05h-.02v.02A542.48 542.48 0 0 0 9 14.9c-.01.02-.02.02-.03.02L7.86 10.7l.02-.01h.02a1059.97 1059.97 0 0 0 2.12-.02h.02a.03.03 0 0 0 .03-.02V7.43a.03.03 0 0 0-.03-.01h-.02A211.05 211.05 0 0 0 7.92 9a365.74 365.74 0 0 1-2.2-.52c-.05-.02-.08-.02-.1 0l-1.68 1.66-.92-.15 2.05-2.06A1538.22 1538.22 0 0 1 7.3 5.7l.5-.5h.02l.55.54c.04.03.09.05.16.07a106.55 106.55 0 0 1 1.52.38l.97 1.01c.04.04.08.11.13.15a.02.02 0 0 0 .03 0v-.01l-.92-2.71Z" fill="#FEA815"/><path d="M13.95 6.24H14v.04l-1.5 4.44a.85.85 0 0 1-.17.32 1671.65 1671.65 0 0 0-3.34 3.95l-.01-.07.03-.01.02-.04.15-.57a541.24 541.24 0 0 1 .92-3.62c.16 0 .35.04.46.05l.83.08.9.1c.04.01.06 0 .07 0a.08.08 0 0 0 .03-.1 403.97 403.97 0 0 1-1.16-3.42c0-.02 0-.03.02-.04L13.9 6.3l.02-.02.02-.04Z" fill="#FF7E00"/><path d="m6.78 7.98-1.02.4c-.07.03-.08.02-.03-.03l.93-.93c.06-.06.16-.09.24-.11a68221.88 68221.88 0 0 0 1.5-.47L7.02 7.85c-.06.05-.14.09-.25.13Z" fill="#66100B"/><path d="m10.02 10.66-2.1-1.67.12-.11a211.45 211.45 0 0 1 2.01-1.46l.02.01v3.21a.03.03 0 0 1-.01.02h-.04Z" fill="#FF7E00"/><path d="M5.71 8.48c.03.07.07.13.12.18l.33.3a190.42 190.42 0 0 0 1.1 1.15h-.01l-2.68 1.63v.01l.02.01c-.06.03-.12.02-.17-.02a39.49 39.49 0 0 0-1.06-.82l.58-.79 1.67-1.66c.03-.02.06-.02.1 0Z" fill="#EFF3DC"/><path d="M5.71 8.48c.1 0 .2.03.3.05a366.32 366.32 0 0 0 1.9.46l2.11 1.67-.01.01a1060.06 1060.06 0 0 1-2.15.02l-3.27 1.07h-.02a.01.01 0 0 1 0-.02l2.68-1.62a.03.03 0 0 0 .01-.03v-.02l-1.1-1.1-.33-.31a.52.52 0 0 1-.12-.18Z" fill="#FFD7A6"/><path d="m3.02 9.98.93.15-.59.79L3 10v-.03h.02Z" fill="#66100B"/></svg>