<!-- by TradingView --><svg width="18" height="18" viewBox="0 0 18 18" xmlns="http://www.w3.org/2000/svg"><path fill="url(#a)" d="M0 0h18v18H0z"/><path d="M6 9.5a1 1 0 1 0 0-2 1 1 0 0 0 0 2ZM12 9.5a1 1 0 1 0 0-2 1 1 0 0 0 0 2Z" fill="#fff"/><path d="m13.56 5.1-.33.34a5.54 5.54 0 0 0-5.09-1.9c.1-.16.16-.32.2-.5a5.92 5.92 0 0 1 5.22 2.06Z" fill="url(#b)"/><path d="M8.33 3.04c-.03.18-.1.34-.19.5a5.59 5.59 0 0 0-4.29 3.48 5.58 5.58 0 0 0 .86 5.46l-.24.45a5.94 5.94 0 0 1-1.23-5.6 5.88 5.88 0 0 1 3.32-3.81 5.96 5.96 0 0 1 1.77-.48Z" fill="url(#c)"/><path d="m14.68 7.06-.35.48a5.64 5.64 0 0 0-1.1-2.1l.33-.34c.5.58.87 1.24 1.12 1.96Z" fill="#96F39D"/><path d="M14.68 7.06a5.96 5.96 0 0 1-2.64 7.11l-.57.3c.12-.22.2-.44.24-.66a5.65 5.65 0 0 0 2.38-2.68 5.49 5.49 0 0 0 .24-3.6l.35-.47Z" fill="url(#d)"/><path d="M9.72 8H8.28c-.16 0-.28.21-.28.48v.04c0 .27.12.48.27.48h1.45c.15 0 .28-.21.28-.47v-.05c0-.26-.12-.48-.28-.48Z" fill="#fff"/><path d="M4.7 12.48a5.54 5.54 0 0 0 4 2.04l-.24.45a5.95 5.95 0 0 1-4-2.04l.25-.45Z" fill="url(#e)"/><path d="M11.7 13.81c-.03.22-.11.44-.23.66a5.9 5.9 0 0 1-3 .5l.23-.45a5.57 5.57 0 0 0 3-.7Z" fill="#90F0B2"/><defs><linearGradient id="a" x1="3.35" y1="3.12" x2="21.9" y2="24.43" gradientUnits="userSpaceOnUse"><stop stop-color="#1A1E21"/><stop offset="1" stop-color="#06060A"/></linearGradient><linearGradient id="b" x1="8.14" y1="3.67" x2="12.65" y2="6.07" gradientUnits="userSpaceOnUse"><stop stop-color="#8AAAFE"/><stop offset=".25" stop-color="#F9A5BF"/><stop offset="1" stop-color="#96F39D"/></linearGradient><linearGradient id="c" x1="5.67" y1="3.04" x2="5.67" y2="12.93" gradientUnits="userSpaceOnUse"><stop offset=".54" stop-color="#8AAAFE"/><stop offset="1" stop-color="#DEA9D6"/></linearGradient><linearGradient id="d" x1="15" y1="7.22" x2="11.96" y2="14.47" gradientUnits="userSpaceOnUse"><stop stop-color="#96F39D"/><stop offset=".56" stop-color="#7FB0FF"/><stop offset="1" stop-color="#90F0B2"/></linearGradient><linearGradient id="e" x1="4.47" y1="12.63" x2="8.36" y2="14.39" gradientUnits="userSpaceOnUse"><stop stop-color="#F8A5C0"/><stop offset=".67" stop-color="#F2F494"/><stop offset="1" stop-color="#90F0B2"/></linearGradient></defs></svg>