<!-- by TradingView --><svg xmlns="http://www.w3.org/2000/svg" width="18" height="18"><path fill="#F0F3FA" d="M0 0h18v18H0z"/><path d="M13.16 9.15l-3.22 1.36a.53.53 0 00-.26.29l-1.23 3.86a.27.27 0 000 .2c.04.06.09.1.14.13h.16l3.08-1.28c.11-.05.21-.13.3-.22.07-.1.14-.2.18-.33l1.16-3.69a.27.27 0 00-.02-.2.25.25 0 00-.06-.07.23.23 0 00-.23-.05zm-.22-.33l-2.9 1.23c-.29.04-.45-.11-.65-.29L5.9 6.81a.47.47 0 01-.15-.22.5.5 0 01-.02-.28c.03-.09.07-.17.14-.23.06-.07.15-.1.23-.12l3.15-.8a.4.4 0 01.3.07l1.28.92c-.17-.06-.34-.1-.52-.11-1.37-.12-2.59.38-2.64 1.1-.05.73 1.08 1.4 2.43 1.51 1.36.12 1.76-.31 1.8-1.04l-.51-1.2 1.65 1.33c.29.21.23.95-.1 1.08z" fill="#FF7E36"/><path d="M7.4 3c.2-.08.8.47 1.17.74.34-.12.86-.26 1.3-.18.23.03.45.1.65.21.19-.14 1.22-1 1.29-.7.04.22.05.44.01.66-.06.4-.14.8-.24 1.2-.05.19-.17.38-.15.55.02.27.06.54.12.8.06.24.1.5.24.66.81.67 1.53 1.64 1.67 2.13a.43.43 0 01-.09.47.55.55 0 01-.71-.02 4.08 4.08 0 01-.49-.5 5.16 5.16 0 00-.36-.37.22.22 0 00-.13-.07 6.72 6.72 0 01-1.2.25c.11.15.36.37.52.55.12.12.2.29.21.46 0 .17-.17.4-.64.34a3.42 3.42 0 01-.65-.28c-1.9-1.2-1.97-2.37-2.19-4.33-.07-.54-.3-1.22-.39-1.8-.04-.26-.13-.67.06-.76" fill="#050000"/><path d="M10.3 4.23a.35.35 0 00-.18-.05c-.11-.01-.2.06-.27.12a.78.78 0 00-.1.12h-.02a.05.05 0 01-.03-.04v-.02a.33.33 0 00-.18-.16.3.3 0 00-.23 0c-.1.03-.17.1-.22.18l-.08.14H8.9a.59.59 0 00-.2.04.48.48 0 00-.3.34c-.04.18.04.3.13.53a.08.08 0 00-.06-.02.1.1 0 00-.03.01.17.17 0 00-.06.05.21.21 0 00-.03.2l.02.04.01.05c.01.04.03.08.07.12.07.08.18.12.38.13h.05v.04c.01.03.03.07.06.1.03.04.07.1.12.13.04.04.1.07.18.08.44.05.17-.27.44-.05a.4.4 0 00.18.09c.07 0 .2 0 .34-.04.12-.05.27-.13.3-.3.02-.09.02-.17.02-.26l.02-.02h.01a.5.5 0 000 .08l.05.08c.04.04.1.05.14.05a.47.47 0 00.37-.27c.04-.1.06-.26.05-.38a.5.5 0 00-.05-.17c-.24-.5-.06.4-.22-.48a.44.44 0 00-.12-.24.4.4 0 00-.19-.1.56.56 0 00-.19-.01.39.39 0 00-.1-.1z" fill="#F0F3FA"/><path d="M5.71 7.12l3.49 2.94a.5.5 0 01.16.25c.03.1.03.21 0 .31l-1.2 3.73a.52.52 0 01-.11.2.46.46 0 01-.2.13.44.44 0 01-.42-.09l-3.25-2.94a.51.51 0 01-.16-.25.55.55 0 010-.31l.96-3.73a.52.52 0 01.09-.17c.04-.05.09-.1.14-.12a.44.44 0 01.5.05z" fill="#FF7E36"/></svg>