<!-- by TradingView --><svg width="18" height="18" viewBox="0 0 18 18" xmlns="http://www.w3.org/2000/svg"><path fill="url(#a)" d="M0 0h18v18H0z"/><path fill-rule="evenodd" d="m7.1 4.4 3.72 1.95c.92.5 1.49 1.42 1.49 2.43v3.35c-.02.15-.12.5-.39.72.36-.08 1.08-.44 1.08-1.17v-3.4c0-.99-.57-1.9-1.48-2.38L7.83 4l-.72.4Zm2.68 2.53-3.7-1.96.72-.4 3.68 1.9a2.7 2.7 0 0 1 1.49 2.4v3.38c0 .74-.72 1.1-1.08 1.18.26-.22.37-.57.39-.73V9.36c0-1.01-.58-1.94-1.5-2.43ZM5 11.85l3.89 2.06c.67.19 2.02.21 2.02-1.2V9.28c0-.47-.3-1.57-1.47-2.2L5.77 5.12 5 5.55v6.3Zm.75-5.91.38.2v5.1l4.01 2.15a.32.32 0 0 1-.44.14l-3.95-2.05V5.94Zm1.33.72-.36-.2v4.4l3.44 1.87v-.33l-3.08-1.66V6.66Zm.6.32v3.39l2.48 1.35V9.8a2.6 2.6 0 0 0-1.3-2.18l-1.19-.64Z" fill="url(#b)"/><defs><linearGradient id="a" x1="3.35" y1="3.12" x2="21.9" y2="24.43" gradientUnits="userSpaceOnUse"><stop stop-color="#1A1E21"/><stop offset="1" stop-color="#06060A"/></linearGradient><linearGradient id="b" x1="5.97" y1="4.65" x2="13.48" y2="7.45" gradientUnits="userSpaceOnUse"><stop stop-color="#F6E29B"/><stop offset=".35" stop-color="#D76298"/><stop offset=".63" stop-color="#823CFC"/><stop offset="1" stop-color="#69D5FF"/></linearGradient></defs></svg>