<!-- by TradingView --><svg width="18" height="18" viewBox="0 0 18 18" xmlns="http://www.w3.org/2000/svg"><path fill="#FE41A2" d="M0 0h18v18H0z"/><path d="M3 7.77c0-.43.29-.77.65-.77.36 0 .65.34.65.77V9.7c0 .64.43 1.15.97 1.15s.97-.51.97-1.15V7.77c0-.43.3-.77.65-.77.36 0 .65.34.65.77v3.46c0 .43-.29.77-.65.77-.3 0-.57-.26-.63-.6-.35.37-.8.6-1.31.6C3.87 12 3 10.97 3 9.7V7.77ZM8.65 7c-.36 0-.65.32-.65.71v4.58c0 .39.29.71.65.71.36 0 .65-.32.65-.71v-.9c.4.38.92.61 1.48.61 1.26 0 2.27-1.12 2.27-2.5S12.04 7 10.78 7c-.57 0-1.09.23-1.49.62-.04-.35-.31-.62-.64-.62Zm.65 2.87v-.81c.15-.62.63-1.07 1.2-1.07.69 0 1.25.66 1.25 1.47 0 .82-.56 1.48-1.25 1.48-.57 0-1.05-.45-1.2-1.07ZM13.39 6.03l.4 3.28c.05.47.66.48.73 0l.47-3.26c.08-.55-.3-1.05-.8-1.05s-.87.48-.8 1.03Z" fill="#fff"/><ellipse cx="14.19" cy="11.03" rx=".81" ry=".97" fill="#fff"/></svg>