<!-- by TradingView --><svg width="18" height="18" viewBox="0 0 18 18" xmlns="http://www.w3.org/2000/svg"><path fill="#F0F3FA" d="M0 0h18v18H0z"/><circle cx="11" cy="8" r="1" fill="url(#a5cg1ur3f)"/><path d="M5.3 8.16a3.26 3.26 0 0 0 1.39 4.22L11.62 15a3 3 0 0 0-1.25-4.13L5.3 8.16Z" fill="url(#b5cg1ur3f)"/><path d="M9.2 7.36A3.3 3.3 0 0 0 7.95 3L5.37 7.99a3.3 3.3 0 0 0 1.24 4.36l1.43.76c-.35-.33-.98-1.16-.74-2.1l1.9-3.65Z" fill="url(#c5cg1ur3f)"/><path d="M8.02 9.62 5.3 8.16a3.26 3.26 0 0 0 1.39 4.22l1.34.7c-.36-.33-.97-1.15-.73-2.07l.72-1.4Z" fill="url(#d5cg1ur3f)"/><defs><linearGradient id="a5cg1ur3f" x1="12.25" y1="7.75" x2="10" y2="8.4" gradientUnits="userSpaceOnUse"><stop stop-color="#25C2CE"/><stop offset="1" stop-color="#0277BE"/></linearGradient><linearGradient id="b5cg1ur3f" x1="7.06" y1="12.15" x2="12.38" y2="12.36" gradientUnits="userSpaceOnUse"><stop stop-color="#05404F"/><stop offset=".45" stop-color="#14A3A1"/><stop offset="1" stop-color="#20DFC2"/></linearGradient><linearGradient id="c5cg1ur3f" x1="9.86" y1="6.93" x2="4.92" y2="9.25" gradientUnits="userSpaceOnUse"><stop stop-color="#24AFC2"/><stop offset="1" stop-color="#0A83BE"/></linearGradient><linearGradient id="d5cg1ur3f" x1="8.03" y1="9.49" x2="4.99" y2="10.12" gradientUnits="userSpaceOnUse"><stop stop-color="#0F77B0"/><stop offset="1" stop-color="#03388B"/></linearGradient></defs></svg>