<!-- by TradingView --><svg xmlns="http://www.w3.org/2000/svg" width="18" height="18"><path fill="url(#anodsrbqu)" d="M0 0h18v18H0z"/><path fill-rule="evenodd" d="M11.88 7.55L9.5 5.27v4.57l2.38-2.29zm-4.64 4.6l1.17-1.11L6 8.73v2.24l1.24 1.19zm.67.65l.59-.56v2.26h1v-2.25l1.07 1.03.19.17 2.23-2.15H13V7.32h-.02L9 3.5 5.02 7.32H5v3.98h.01l1.56 1.5.67.65.67-.65zm1.67-1.76l1.17 1.13 1.25-1.2V8.73l-2.42 2.31zM6.12 7.55L8.5 9.84V5.27L6.12 7.55z" fill="url(#bnodsrbqu)"/><defs><linearGradient id="anodsrbqu" x1="9" y1="0" x2="9" y2="18" gradientUnits="userSpaceOnUse"><stop stop-color="#1B1E4F"/><stop offset="1" stop-color="#181B46"/></linearGradient><linearGradient id="bnodsrbqu" x1="5.87" y1="12.19" x2="12.08" y2="7.21" gradientUnits="userSpaceOnUse"><stop stop-color="#10CB88"/><stop offset="1" stop-color="#BDF418"/></linearGradient></defs></svg>