<!-- by TradingView --><svg width="18" height="18" viewBox="0 0 18 18" xmlns="http://www.w3.org/2000/svg"><path fill="#FF5800" d="M0 0h18v18H0z"/><path d="M12.26 4.33h.62c.02 0 .03 0 .04.02v.64l-.04.01h-2.05l-.04-.01v-.62l-.02-.03H6.54l-.03-.02-.01-.03v-.58l.01-.03.03-.01h1.33c.02 0 .03 0 .04-.02v-.61l.02-.03.03-.01h2.07l.03.01.01.03v.57l.02.04.03.02H12.2l.01.04v.58l.01.03.04.01ZM5.53 5.4h.65a.06.06 0 0 0 .03-.02v-.61l.02-.04a.06.06 0 0 1 .04-.01h2.1a.06.06 0 0 1 .04.01l.01.02v.61l.02.04h2.5c.02 0 .03.02.04.03l.02.04v1.48c0 .01 0 .03-.02.04a.06.06 0 0 1-.04.01H9.58c-.01 0-.03 0-.04.02a.05.05 0 0 0-.01.04v.85l-.01.05a.05.05 0 0 1-.03.03H8.05l-.04-.01a.05.05 0 0 1-.02-.04v-.42l-.01-.03a.06.06 0 0 0-.05-.02h-.92c-.02 0 0-.01 0 0L7 7.52v2.02s.02 0 0 0h.67l.01.05v2.98l-.01.04a.06.06 0 0 1-.04.02H7l-.04.01-.02.04v.57c0 .02 0 .03-.02.04a.06.06 0 0 1-.04.02h-.62c-.02 0-.03 0-.04.02a.05.05 0 0 0-.02.03v.59c0 .01 0 .02-.02.03a.06.06 0 0 1-.04.02H4.8c-.02 0-.03 0-.05-.02a.05.05 0 0 1-.01-.03v-.58a.05.05 0 0 0-.02-.04l-.02-.02h-.64c-.02 0-.03 0-.04-.02a.05.05 0 0 1-.02-.03v-1.27c0-.01 0-.03.02-.04a.06.06 0 0 1 .04-.01h.62a.06.06 0 0 0 .04-.02.05.05 0 0 0 .02-.04V8.9l.01-.04a.06.06 0 0 1 .04-.02h.62l.05-.01a.05.05 0 0 0 .01-.04V5.46l.02-.03a.06.06 0 0 1 .04-.02ZM14 6.71v1.24a.05.05 0 0 1-.05.05h-.56c-.01 0-.03 0-.04-.02l-.02-.03V6.7c0-.02-.03-.03-.04-.03H12.7a.05.05 0 0 0-.03.05v.56c0 .01 0 .03-.02.04a.09.09 0 0 1-.05.01h-.55a.05.05 0 0 1-.05-.05V6.05a.05.05 0 0 1 .05-.05h1.23c.02 0 .03 0 .04.02l.01.03v.56a.05.05 0 0 0 .04.05H13.95c.03 0 .05.02.05.05ZM10.7 14h-.64a.06.06 0 0 1-.06-.06v-2.13c0-.02 0-.03.02-.04a.1.1 0 0 1 .05-.02h1.38c.01 0 .02 0 .03.02.02.01.02.02.02.04v.63a.06.06 0 0 0 .06.06h.63c.01 0 .03 0 .04-.02l.02-.04v-1.38l.01-.04a.06.06 0 0 1 .04-.02h.64a.06.06 0 0 1 .06.06v2.88a.06.06 0 0 1-.06.06h-1.38a.06.06 0 0 1-.04-.02l-.01-.02-.01-.03v-.62l-.01-.04a.06.06 0 0 0-.04-.02h-.66c-.03.02-.04.05-.04.08v.61l-.01.04a.06.06 0 0 1-.04.02Z"/></svg>