<!-- by TradingView --><svg width="18" height="18" viewBox="0 0 18 18" xmlns="http://www.w3.org/2000/svg"><path fill="url(#a3jgohs3c)" d="M0 0h18v18H0z"/><path d="M6 10.37V7.5l4.17-1.9L9 5 5 6.96v3.93L9 13l4-1.96V9.83l-4 1.96-3-1.42Z" fill="url(#b3jgohs3c)"/><path d="m10.83 6.36.5-.3 1 .6-.5.3-1-.6Zm-3.5 2.87V8.17l3.17-1.66 1 .6-4.17 2.12Z" fill="url(#c3jgohs3c)"/><path d="m12 8.02-3.83 2.11 1 .6L12 9.09V8.02Z" fill="url(#d3jgohs3c)"/><path d="m13 8.62-.67.3V7.87l.67-.3v1.05Z" fill="url(#e3jgohs3c)"/><path fill-rule="evenodd" d="M9 14.65a5.65 5.65 0 1 0 0-11.3 5.65 5.65 0 0 0 0 11.3ZM9 15A6 6 0 1 0 9 3a6 6 0 0 0 0 12Z" fill="url(#f3jgohs3c)"/><defs><linearGradient id="a3jgohs3c" x1="3.35" y1="3.12" x2="21.9" y2="24.43" gradientUnits="userSpaceOnUse"><stop stop-color="#1A1E21"/><stop offset="1" stop-color="#06060A"/></linearGradient><linearGradient id="b3jgohs3c" x1="5.17" y1="10.28" x2="13.17" y2="10.28" gradientUnits="userSpaceOnUse"><stop stop-color="#B28947"/><stop offset=".16" stop-color="#F9CE97"/><stop offset=".52" stop-color="#B08656"/><stop offset=".83" stop-color="#F7CF89"/><stop offset="1" stop-color="#B68E5D"/></linearGradient><linearGradient id="c3jgohs3c" x1="11.17" y1="6.96" x2="7.53" y2="9.23" gradientUnits="userSpaceOnUse"><stop stop-color="#CAC5C1"/><stop offset=".47" stop-color="#D3CDCD"/><stop offset="1" stop-color="#6D6D6D"/></linearGradient><linearGradient id="d3jgohs3c" x1="13" y1="8.17" x2="9.08" y2="10.94" gradientUnits="userSpaceOnUse"><stop stop-color="#ACACAC"/><stop offset=".5" stop-color="#E5DDDA"/><stop offset="1" stop-color="#747474"/></linearGradient><linearGradient id="e3jgohs3c" x1="13" y1="8.17" x2="9.08" y2="10.94" gradientUnits="userSpaceOnUse"><stop stop-color="#ACACAC"/><stop offset=".5" stop-color="#E5DDDA"/></linearGradient><linearGradient id="f3jgohs3c" x1="5.82" y1="4.06" x2="12" y2="14.29" gradientUnits="userSpaceOnUse"><stop stop-color="#F4E9CD"/><stop offset="1" stop-color="#F4F2DA"/></linearGradient></defs></svg>