<!-- by TradingView --><svg width="18" height="18" viewBox="0 0 18 18" xmlns="http://www.w3.org/2000/svg"><path fill="#F0F3FA" d="M0 0h18v18H0z"/><circle cx="9" cy="9" r="6" fill="#550592"/><circle cx="9" cy="9" r="5.83" fill="#010A07"/><circle cx="9" cy="9" r="5.53" fill="url(#a)"/><circle cx="9" cy="9" r="5.29" fill="url(#b)"/><circle cx="9" cy="9" r="5" fill="url(#c)"/><path d="M12 7.03V8.3l-1.06.72 1.06.7v1.21L9.03 13 8 12.32v-1.34l-1.03.69-.97-.76V7.02l.99-.6L8 7.14V5.7L9.03 5 12 7.03Zm-3.37 3.6v1.36l.4.3 2.34-1.7v-.54l-.95-.7-1.79 1.28Zm-2-3.25v3.22l.36.22L8 10.28V7.83l-1.02-.65-.35.2Zm2 2.55 1.26-.92-1.26-.84v1.76Zm0-3.89v1.44l1.78 1.18.96-.71v-.58L9.03 5.7l-.4.34Z" fill="url(#d)"/><defs><linearGradient id="a" x1="9" y1="3.47" x2="9" y2="14.53" gradientUnits="userSpaceOnUse"><stop stop-color="#5B029A"/><stop offset="1" stop-color="#996BCE"/></linearGradient><linearGradient id="b" x1="9" y1="3.71" x2="9" y2="14.29" gradientUnits="userSpaceOnUse"><stop stop-color="#420084"/><stop offset="1" stop-color="#490191"/></linearGradient><linearGradient id="c" x1="9" y1="4" x2="9" y2="14" gradientUnits="userSpaceOnUse"><stop stop-color="#694F9A"/><stop offset=".77" stop-color="#3E0079"/><stop offset="1" stop-color="#46008C"/></linearGradient><linearGradient id="d" x1="9" y1="5" x2="9" y2="13" gradientUnits="userSpaceOnUse"><stop stop-color="#E4E9F0"/><stop offset="1" stop-color="#CBE1EC"/></linearGradient></defs></svg>