<!-- by TradingView --><svg width="18" height="18" viewBox="0 0 18 18" xmlns="http://www.w3.org/2000/svg"><path fill="#F0F3FA" d="M0 0h18v18H0z"/><path d="M12.94 7.13c.11-.27-.12-.54-.11-.82 0-.04.01-.04.05-.01l3.03 2.64.07.09a.23.23 0 0 1 0 .2.26.26 0 0 1-.07.09l-2.7 2.26c-.16.13-.22.1-.18-.08.24-1.01-.2-2.36-1.38-2.83-.98-.39-2.38-.38-3.37-.52-.69-.1-1.25-.58-1.1-1.2.22-.98 1.88-1.09 2.75-.83.62.2.74.5.97.94.05.1.18.15.37.17a9.34 9.34 0 0 0 1.6-.02.16.16 0 0 0 .07-.08Z" fill="#4D4D4D"/><path d="m5.16 11.07.17.54c.01.03 0 .05-.04.07-.05.02-.09.01-.12-.02-1.01-.92-2.04-1.82-3.08-2.7-.12-.1-.12-.2 0-.3l3.03-2.5c.12-.1.18-.08.15.07l-.07.6c-.16 1.63 1.3 2.84 3.08 2.93 1.01.04 2.54-.12 2.73.78.15.7-.5 1.24-1.25 1.39-1.12.22-1.96-.08-2.52-.9-.23-.35-1.46-.21-1.9-.18a.23.23 0 0 0-.08.02.2.2 0 0 0-.07.05.16.16 0 0 0-.03.07v.08Z" fill="#8C1A09"/></svg>