<!-- by TradingView --><svg width="18" height="18" viewBox="0 0 18 18" xmlns="http://www.w3.org/2000/svg"><path fill="url(#abin0om5z)" d="M0 0h18v18H0z"/><path d="M14.3 7.19c.06.46.04.88-.06 1.27-.1.38-.28.7-.53 1a3.1 3.1 0 0 1-.9.73c-.35.19-.74.33-1.19.43-.94.2-1.87.3-2.78.27a6.42 6.42 0 0 1-3.36-1.05c.87.91 1.92 1.5 3.14 1.79A7.22 7.22 0 0 0 15 10.1a5.9 5.9 0 0 1-1.18 2.02 5.68 5.68 0 0 1-2.6 1.58c-.59.16-1.2.26-1.85.3-.61.02-1.24-.02-1.88-.11a5.66 5.66 0 0 1-1.56-.47 4.68 4.68 0 0 1-1.35-.92 3.08 3.08 0 0 1-.9-1.77l-.02-.26c-.01-.32.02-.63.1-.94.23-.81.78-1.42 1.63-1.81.64-.3 1.46-.48 2.47-.56a7.5 7.5 0 0 1 3.17.3 4.38 4.38 0 0 1 1.46.71 6.23 6.23 0 0 0-3.37-1.85A7.13 7.13 0 0 0 3.02 7.9v-.02a5.48 5.48 0 0 1 3.37-3.44A7.4 7.4 0 0 1 8.57 4c.74-.04 1.48.02 2.22.16.48.09.97.26 1.47.5.54.28.99.62 1.33 1.02.38.45.61.95.7 1.5Z" fill="#AFEB00"/><defs><linearGradient id="abin0om5z" x1="3.35" y1="3.12" x2="21.9" y2="24.43" gradientUnits="userSpaceOnUse"><stop stop-color="#1A1E21"/><stop offset="1" stop-color="#06060A"/></linearGradient></defs></svg>