<!-- by TradingView --><svg width="18" height="18" viewBox="0 0 18 18" xmlns="http://www.w3.org/2000/svg"><path fill="#181B1E" d="M0 0h18v18H0z"/><path d="M12.2 5c.66 0 1.04.72.63 1.21l-5.3 6.44a.98.98 0 0 1-.73.35h-.03v-.38c.18 0 .34-.07.44-.2l5.3-6.44c.2-.25.02-.6-.31-.6h-.75a.57.57 0 0 0-.43.2L5.49 12c-.21.25-.03.61.31.61V13c-.66 0-1.03-.7-.64-1.2l.02-.02 5.53-6.44a.98.98 0 0 1 .74-.34h.75Zm-5.43 7.62V13H5.8v-.38h.97ZM5.59 5a.6.6 0 0 0-.46.98l1.4 1.74c.14.18.35.28.58.28v-.3a.43.43 0 0 1-.34-.17l-1.4-1.74a.3.3 0 0 1 .24-.49h.58c.12 0 .25.06.33.16L7.67 6.8c.02.03.03.08.02.17a.92.92 0 0 1-.15.34c-.08.12-.18.22-.28.3-.1.08-.15.09-.15.09V8c.39 0 1.14-.9.8-1.37v-.02L6.75 5.27A.73.73 0 0 0 6.19 5h-.6Z" fill="#fff"/><circle cx="11.5" cy="11.5" r="1.5" fill="#fff"/></svg>