<!-- by TradingView --><svg width="18" height="18" viewBox="0 0 18 18" xmlns="http://www.w3.org/2000/svg"><path fill="url(#a)" d="M0 0h18v18H0z"/><path d="M4 9v3h3.47v-.42H8v-.43h.28v-.42h.46v-.43h.4v-.42h.43v-.45H10V6H6.84v.45h-.31v.45h-.4v.4h-.46v.42h-.4v.38h-.45v.5h-.4V9H4Z" fill="#fff"/><path d="M8 9v3h3.47v-.42h.44v-.48h.37v-.37h.46v-.43h.47v-.4h.47v-.3H14V6h-3.16v.45h-.31v.45H10v.4h-.33v.42h-.4v.38h-.45v.5h-.4V9H8Z" fill="url(#b)"/><defs><linearGradient id="a" x1="3.35" y1="3.12" x2="21.9" y2="24.43" gradientUnits="userSpaceOnUse"><stop stop-color="#1A1E21"/><stop offset="1" stop-color="#06060A"/></linearGradient><linearGradient id="b" x1="13.86" y1="6.1" x2="8.1" y2="12.02" gradientUnits="userSpaceOnUse"><stop stop-color="#7FE0AA"/><stop offset="1" stop-color="#5EEDEB"/></linearGradient></defs></svg>