<!-- by TradingView --><svg width="18" height="18" viewBox="0 0 18 18" xmlns="http://www.w3.org/2000/svg"><path fill="#F11F2C" d="M0 0h18v18H0z"/><path d="m7.99 5.27 1.38 1.12 1.03-1.18 1 .58-.31.48.92.6-.51.73-.67-.55-.56.83a2.17 2.17 0 0 0-2.75 2.1c0 1.21.97 2.2 2.15 2.2.6 0 1.14-.26 1.53-.66l1.8 2.15A4.84 4.84 0 0 1 9.67 15a4.97 4.97 0 0 1-4.9-5.02 5.01 5.01 0 0 1 3.22-4.71Z"/><path d="m7.37 5 1.35 1.03 1-1.03.91.48-.23.38.84.7-.5.68-.68-.52-.55.78a2.1 2.1 0 0 0-.6-.09A2.3 2.3 0 0 0 6.7 9.67 2.26 2.26 0 0 0 8.9 11.9c.6 0 1.14-.29 1.53-.7l1.8 2.17a4.84 4.84 0 0 1-3.33 1.32A4.97 4.97 0 0 1 7.37 5ZM9 3l1 1-1 1-1-1 1-1ZM13 4l1 1-1 1-1-1 1-1Z" fill="#fff"/><path d="m12 8 1 1-1 1-1-1 1-1ZM13.5 6 15 7.5 13.5 9 12 7.5 13.5 6Z" fill="#fff"/></svg>