<!-- by TradingView --><svg width="18" height="18" viewBox="0 0 18 18" xmlns="http://www.w3.org/2000/svg"><path fill="#333" d="M0 0h18v18H0z"/><path d="M5.77 5H9.7L5.94 9.63l.36.3L9.32 6.2A3.06 3.06 0 0 1 11.88 5c.81.05 1.51.42 1.91.75a3.44 3.44 0 0 1 .65 4.5L12.24 13H8.3l3.78-4.67-.35-.3a351 351 0 0 1-2.95 3.65A3.3 3.3 0 0 1 6.19 13a3 3 0 0 1-2.25-1.07 3.42 3.42 0 0 1-.23-4.42L5.77 5Z" fill="url(#anma2nlbn)"/><defs><linearGradient id="anma2nlbn" x1="9.89" y1="5.24" x2="8.96" y2="12.99" gradientUnits="userSpaceOnUse"><stop stop-color="#FFEEAC"/><stop offset=".4" stop-color="#FFDD5C"/><stop offset=".72" stop-color="#FFB740"/><stop offset="1" stop-color="#FED14E"/></linearGradient></defs></svg>