<!-- by TradingView --><svg width="18" height="18" viewBox="0 0 18 18" xmlns="http://www.w3.org/2000/svg"><path fill="#F0F3FA" d="M0 0h18v18H0z"/><path d="M12.24 6.83c0-.8-.38-1.63-.52-1.95.5.37 2.28 1.38 2.28 4.43 0 3.4-3.2 4.54-4.81 4.69H6.06v-.71c0-2.1 2.35-2.83 4.03-3.56 1.68-.74 2.15-1.89 2.15-2.9Z" fill="url(#awas3520o)"/><path d="M6.06 13.94v-.65c0-.13 0-.25.02-.37a4.22 4.22 0 0 1 3-2.23 17.6 17.6 0 0 0 3.95-1.12c.6-.31.81-.96.86-1.52.07.38.11.8.11 1.26a4.6 4.6 0 0 1-.22 1.44l-4.48 3.2-.19.05H6.13a.67.67 0 0 1-.07-.06Z" fill="#38AADE"/><path d="M14 9.42c-.07 3.32-3.22 4.44-4.81 4.58H6.06v-.17l.02-.2c.37-2.39 3.5-2.8 5.66-2.9 1.37-.05 2.02-.75 2.26-1.31Z" fill="url(#bwas3520o)"/><path d="M4 8.54v3.7c.64-1.37 2.66-2.2 3.74-2.54C8.82 9.36 10 8.93 10 8.45S8.41 7.79 8.41 7.3c0-.2.31-.69.96-1.1.64-.4 1.4-1.07 1.4-1.5 0-.6-1.37-.72-2.05-.7C5.37 4 4 7.23 4 8.53Z" fill="url(#cwas3520o)"/><path d="M4 12.24v-3.7c0-.7.4-1.95 1.28-2.97C7.1 4.85 9.82 3.9 9.82 4.43c0 .61-.87 1.18-2.02 1.94l-.89.6c-1.56 1.07-2.08 1.7-2.08 2.71 0 .6.16 1.03.31 1.27-.49.36-.9.79-1.14 1.29Z" fill="#39B6C8"/><path d="M9.45 4.03c.18.12.33.25.33.38 0 .32-.55 1.03-2.23 1.78C5.9 6.94 4.01 8.12 4 9.3v-.76C4 7.24 5.37 4 8.72 4c.2 0 .47 0 .73.03Z" fill="url(#dwas3520o)"/><defs><linearGradient id="awas3520o" x1="13.17" y1="6.28" x2="6.07" y2="13.03" gradientUnits="userSpaceOnUse"><stop stop-color="#1CC7FD"/><stop offset=".83" stop-color="#32A6D9"/></linearGradient><linearGradient id="bwas3520o" x1="13.98" y1="9.54" x2="6.14" y2="13.97" gradientUnits="userSpaceOnUse"><stop stop-color="#00F6F9"/><stop offset="1" stop-color="#199CF4"/></linearGradient><linearGradient id="cwas3520o" x1="10.74" y1="4.82" x2="4.88" y2="10.74" gradientUnits="userSpaceOnUse"><stop stop-color="#32DAA9"/><stop offset="1" stop-color="#2BC9BA"/></linearGradient><linearGradient id="dwas3520o" x1="9.78" y1="4.39" x2="4.03" y2="8.73" gradientUnits="userSpaceOnUse"><stop stop-color="#90FFC5"/><stop offset=".85" stop-color="#44D3BF"/></linearGradient></defs></svg>