<!-- by TradingView --><svg width="18" height="18" viewBox="0 0 18 18" xmlns="http://www.w3.org/2000/svg"><path fill="#FF3C01" d="M0 0h18v18H0z"/><path d="M5.75 15h-.02v-.01l1.43-5.25a.04.04 0 0 0 0-.05h-.02l-.03-.01H6.03c-.4 0-.64-.03-.74-.09-.25-.16-.36-.37-.25-.78l.73-2.64c0-.01 0-.02.02-.03l.03-.01h1.74l.03-.01.01-.03.55-2.05.02-.03.04-.01h4.1c.43 0 .66.2.69.61a.2.2 0 0 1 0 .07l-.47 1.77-.02.02-.03.01H8.6l-.04.01-.01.03-.76 2.75a.03.03 0 0 0 0 .03h.02l.01.02c1.06-.01 1.85-.02 2.37 0 .26.01.44.13.53.37.08.24.03.45-.16.63C7.4 13.4 5.77 14.96 5.75 15Z" fill="#fff"/></svg>