<!-- by TradingView --><svg width="18" height="18" viewBox="0 0 18 18" xmlns="http://www.w3.org/2000/svg"><path fill="#3669BC" d="M0 0h18v18H0z"/><path d="m11.32 14-6-.64H5.3a.02.02 0 0 1 0-.03l1.27-1.9.01-.02h.02l3.96.5h.03l.02-.02 1.01-1.52v-.02h-.01L5.06 9.6h-.01l-.01.02-1.19 1.73-.01.01h-.01L3 9.38a.05.05 0 0 1 0-.04l1.16-1.73 2.4-3.6.02-.02h.01l6.09.64.01.01v.02L11.42 6.6h-.03l-3.96-.5H7.4l-.02.03-1.01 1.52a.02.02 0 0 0 0 .01v.01h.01l6.55.73h.02l.02-.02 1.18-1.73a.01.01 0 0 1 .01 0h.01L15 8.62a.05.05 0 0 1 0 .05l-3.56 5.33h-.01l-.01.01h-.1Z" fill="#fff"/></svg>