<!-- by TradingView --><svg xmlns="http://www.w3.org/2000/svg" width="18" height="18"><path fill="#070618" d="M0 0h18v18H0z"/><path fill-rule="evenodd" d="M8.98 3.12c-.06-.17-.31-.16-.36.01l-.58 2.2-.55.04L7 6.57v-.05l-1.24.25-.46.94.68 3.27 1.46 1.1.67 1.05v.01l.02.01v.02l.9 1.73a.2.2 0 00.32.02l2.28-3.22.12-.1-.03-.03.1-.14.68-4.16-1.1-.69h-.76L9.7 5.31l-.72-2.19zm1.01 3.1l.03.09.09.06-.12-.15zm-.28.14l-.9-2.75-.47 1.79.3.58.02.02.4 1.2.65-.84zm-3.73.66l.92-.18-.14.35.66.43h1.64l1.75-.33c.16-.03.2-.22.09-.31l-.14-.1h.55l.73.45-.9.52-3.3.15-2.13-.43.26-.54zm5.35 1.07l.8-.47-.43 2.6-.37-2.13zm.2 2.94h.04l-.05.3-.12.17-1.05.82 1.02-2.16.16.87zm-1.47 1.9l.73-.57-1.1 1.54.36-.95v-.02zm-.34.02l-.56 1.53-.7-1.37.37-.99.89.83zm-1.18-.94l-.3.76-.43-.68.73-.08zm-.07-.3l-.88.11-1.23-.93.84-.75 1.27 1.58zM7 9.92l-.79.7-.48-2.3L7 9.92zm1.11-4.26l-.04-.03h.03l.01.03zM9.1 7.3v.01h.02-.02zm-.31.02l-.35-1.05-1.25.84.34.21h1.26zM7.3 6.66l.9-.6-.52-.34-.38.94zm3.2.39l-1.1.2.5-.65.6.45zM8.03 8.28l2.98-.13.26 1.49-1.43 3.02-.93-.86-.04-.06-.84-3.46zm-2.26-.4l1.94.38.7 2.91-2.64-3.3z" fill="#fff"/></svg>