<!-- by TradingView --><svg width="18" height="18" viewBox="0 0 18 18" xmlns="http://www.w3.org/2000/svg"><path fill="url(#ajdo2oibx)" d="M0 0h18v18H0z"/><path d="M10.34 7.16A10.6 10.6 0 0 1 10.2 4h-2.4a9.02 9.02 0 0 1-.09 3.16c-1.26 0-2.49-.57-2.94-.86L4 8.73c1.73.32 2.61.86 2.84 1.08a7.8 7.8 0 0 1-1.67 2.65L7.1 14A8.99 8.99 0 0 1 9 11.5a6.83 6.83 0 0 1 1.9 2.5l1.91-1.54a8 8 0 0 1-1.65-2.65c.97-.62 2.3-.98 2.84-1.08l-.75-2.43c-1.02.53-2.36.8-2.9.86Z" fill="#fff"/><defs><linearGradient id="ajdo2oibx" x1="3.35" y1="3.12" x2="21.9" y2="24.43" gradientUnits="userSpaceOnUse"><stop stop-color="#1A1E21"/><stop offset="1" stop-color="#06060A"/></linearGradient></defs></svg>