<!-- by TradingView --><svg width="18" height="18" viewBox="0 0 18 18" xmlns="http://www.w3.org/2000/svg"><path fill="#FB933B" d="M0 0h18v18H0z"/><path d="m8.6 6.1.02.01c.21-.1.44-.16.68-.18.09 0 .2 0 .32.02l.2.05h.01c.09-.22.2-.4.35-.57l.16-.16a3.08 3.08 0 0 1 1.86-.8c.1 0 .18 0 .24.02.17.05.3.2.37.37.15.3.23.66.3.98a16.41 16.41 0 0 1 .25 1.89c.31.78.61 1.56.64 2.4 0 .24-.02.47-.08.7a4.38 4.38 0 0 1-1.4 2.19c-.64.53-1.41.85-2.23.94-.46.06-.95.05-1.43 0a7.24 7.24 0 0 1-2.2-.5 5.64 5.64 0 0 1-.9-.44 4.56 4.56 0 0 1-1.27-1.18A2.94 2.94 0 0 1 4 10.38v-.52l.02-.26c.03-.33.06-.65.11-.97l.1-.51a77.51 77.51 0 0 1 .32-1.32l.2-.6c.23-.56.5-1.1.88-1.53A1.8 1.8 0 0 1 6.97 4c.37 0 .67.32.88.6.12.15.25.4.37.6.15.3.28.6.39.9Z" fill="#290348"/><path d="M13.63 9.6a4.18 4.18 0 0 1-.08-.15c-.14-.3-.42-.56-.73-.69a1.9 1.9 0 0 0-.97-.1l-.25.04c-.54.15-.75.68-.77 1.2 0 .18 0 .37.05.56-.08 0-.16-.02-.24 0-.1.03-.2.07-.3.13-.07.04-.09.09-.11.16-.18-.29-.25-.6-.34-.94a1.66 1.66 0 0 0-.37-.75 1.1 1.1 0 0 0-.49-.28c-.07-.12-.2-.23-.33-.2a.3.3 0 0 0-.17.11H8.3c-.45-.01-.88.09-1.26.3a4.46 4.46 0 0 0-1.67 2 9 9 0 0 1 .12-3.41c.02-.1 0-.18-.06-.23-.08-.07-.18-.07-.25 0a3.79 3.79 0 0 0-.4.53c0-.06.02-.12.03-.16a7.35 7.35 0 0 1 1.36-2.64c.12-.14.26-.26.42-.36.14-.1.33-.15.5-.1.2.04.42.24.55.41a5.76 5.76 0 0 1 .82 1.6l.04.25c0 .02.01.03.03.01.09-.1.17-.25.15-.39h.01a2.8 2.8 0 0 1 1.33.1c.2.05.39.11.57.18l.15.06c.01-.09-.04-.2-.08-.26a.96.96 0 0 0-.37-.4 7.12 7.12 0 0 1 1.13-.96c.25-.16.5-.31.79-.4.18-.05.25.04.33.18a5.36 5.36 0 0 1 .28.92 16.21 16.21 0 0 1 .25 1.9l.38 1.02a6.62 6.62 0 0 1 .19.77Z" fill="#F0964A"/><path d="m5.36 10.98-.28.6a2.65 2.65 0 0 1-.54-1.17 12.3 12.3 0 0 1 .1-2.03l.12-.5a3.6 3.6 0 0 1 .4-.52c.08-.08.18-.08.26-.01.06.05.08.13.06.22l-.08.4a9 9 0 0 0-.17 2.1 5.06 5.06 0 0 0 .13.91Z" fill="#D48643"/><path d="M13.63 9.6v.06c.05.24.07.45.06.62 0 .11-.02.24-.06.4a4.22 4.22 0 0 1-3.56 2.89h-.14c-.12 0-.25.02-.38.01-.14 0-.3 0-.42-.02a6.46 6.46 0 0 1-2.87-.93 4.15 4.15 0 0 0-.25-.28 3.38 3.38 0 0 1-.65-1.37c.37-.76.9-1.56 1.67-1.98a2.48 2.48 0 0 1 1.5-.3l-.05.05c-.07.12-.13.25-.16.37-.1.41-.1.81.02 1.2.04.18.18.46.38.5.17.02.32-.17.38-.32a1.99 1.99 0 0 0 .15-.8h-.48c-.02 0-.02 0 0-.01l.46-.23a.01.01 0 0 0 0-.01 1.53 1.53 0 0 0-.2-.67c.19.05.35.14.49.28.2.2.3.48.37.75.09.34.16.65.34.94 0 .07.01.13.05.18.11.16.25.3.4.41.12.08.26.1.36-.01a1.13 1.13 0 0 0 .22-.64c-.01-.1-.13-.17-.23-.2a2.34 2.34 0 0 0-.15-.03c-.04-.2-.06-.38-.05-.57.02-.51.23-1.04.77-1.19l.25-.04c.33-.05.67-.02.97.1.31.13.6.4.73.7l.08.15Z" fill="#fff"/><path d="M12.32 9.54c-.02 0-.02.01 0 .02.13.04.26.08.37.15l.01.02v.03a65.77 65.77 0 0 1-.82.16c-.13.04-.26.1-.39.1-.21 0-.13-.17-.06-.28.15-.24.36-.47.6-.61l.24-.1c.15-.04.34-.08.5-.05.02 0 .04 0 .05.02.03.02 0 .1 0 .14a.83.83 0 0 1-.5.4Z" fill="#290348"/><path d="M5.36 10.98a3.38 3.38 0 0 0 .9 1.65 4.68 4.68 0 0 1-1.18-1.05l.28-.6Z" fill="#E0DAD4"/><path d="M9.68 11.3c.33.03.65.1.98.16a.7.7 0 0 0 .1 0h.63c.19-.05.37-.12.56-.1.12.02.25.08.34.17.25.28.2.67-.06.92-.25.25-.61.37-.96.37a58.8 58.8 0 0 1-1.13-.02l-.28-.01a22 22 0 0 1-.58-.07c-.29-.09-.55-.3-.59-.63v-.14c0-.07.03-.18.06-.24.19-.4.57-.42.93-.4Z" fill="#290348"/><path d="m10.02 12.12-.3.05-.09.04a.31.31 0 0 0-.11.07.24.24 0 0 0-.07.16c-.17-.03-.35-.12-.43-.3l.33-.04c.22-.04.44-.03.67.02Z" fill="#CC899B"/><path d="M10.02 12.12c.18.04.34.08.46.13a9.89 9.89 0 0 0 .73.26c-.58 0-1.17-.01-1.76-.07 0-.06.03-.12.07-.16a.31.31 0 0 1 .11-.07l.09-.04.3-.05Z" fill="#EFA4A3"/></svg>