<!-- by TradingView --><svg width="18" height="18" viewBox="0 0 18 18" xmlns="http://www.w3.org/2000/svg"><path fill="url(#abmljyefm)" d="M0 0h18v18H0z"/><path d="m5.58 11.08-.1.1-.02.04A47.53 47.53 0 0 1 4 12.78c.4.4.8.8 1.22 1.18l.04.04.63-.67.72-.76.22-.21a4 4 0 0 0 4.32.01c.54.55 1.09 1.08 1.64 1.61.02 0 1.21-1.26 1.21-1.27l-1.5-1.51a1.28 1.28 0 0 1-.1-.1 4 4 0 0 0-.02-4.24l.86-.9c.39-.4.7-.75.7-.75-.01-.03-1.24-1.2-1.25-1.2l-.69.7-.87.9a4 4 0 0 0-4.2-.04l-.28-.28-.6-.58-.17-.16-.45-.43L5.31 4l-.6.63-.6.65.66.65.7.67.2.2a4 4 0 0 0-.09 4.28ZM11.46 9a2.46 2.46 0 1 1-4.92 0 2.46 2.46 0 0 1 4.92 0Z" fill="#fff"/><defs><linearGradient id="abmljyefm" x1="3.35" y1="3.12" x2="21.9" y2="24.43" gradientUnits="userSpaceOnUse"><stop stop-color="#1A1E21"/><stop offset="1" stop-color="#06060A"/></linearGradient></defs></svg>