<!-- by TradingView --><svg width="18" height="18" viewBox="0 0 18 18" xmlns="http://www.w3.org/2000/svg"><path fill="url(#abaauvrr0)" d="M0 0h18v18H0z"/><path d="M8.66 12.03c-.5.57-1.63.97-2.63.97A4.01 4.01 0 0 1 2 9a4.01 4.01 0 0 1 6.36-3.26c.24.17.05.76-.26.76H5.85A2.44 2.44 0 0 0 3.5 9c0 1.44 1.05 2.5 2.5 2.5a2.8 2.8 0 0 0 2.66-2H6.4a.18.18 0 0 1-.14-.3l1.72-1.94c1-1.18 2.2-2.26 4-2.26C14.2 5 16 6.8 16 9a4.01 4.01 0 0 1-6.59 3.09c-.17-.15-.04-.59.2-.59h2.37A2.44 2.44 0 0 0 14.5 9c0-1.44-1.05-2.5-2.5-2.5-1.26 0-2.4 1.1-2.63 2h2c.15 0 .24.18.13.3-.94 1.08-1.9 2.13-2.84 3.23Z" fill="#E9FFF9"/><defs><linearGradient id="abaauvrr0" x1="3.21" y1="1.77" x2="13.02" y2="17.04" gradientUnits="userSpaceOnUse"><stop stop-color="#1E7B60"/><stop offset=".53" stop-color="#165E4A"/><stop offset="1" stop-color="#218A6B"/></linearGradient></defs></svg>