<!-- by TradingView --><svg width="18" height="18" viewBox="0 0 18 18" xmlns="http://www.w3.org/2000/svg"><path fill="#F74206" d="M0 0h18v18H0z"/><path d="M9 4a5 5 0 1 1 0 10A5 5 0 0 1 9 4Zm4.38 6.37c-.38.42-.81.72-1.35.96-.24.11-.6.2-.85.32a3.65 3.65 0 0 0-1.9 1.92l.01.01h.01a4.6 4.6 0 0 0 4.08-3.2v-.01Zm-7.96-1v.01a4.29 4.29 0 0 1 1.32 1.7c.09.19.14.38.22.58.3.84.91 1.62 1.8 1.88h.02l.01-.01a4.62 4.62 0 0 0-3.36-4.15Zm-1-.08v.02a4.6 4.6 0 0 0 3.21 4.08v-.01a3.82 3.82 0 0 1-.96-1.35c-.1-.24-.2-.6-.32-.85a3.65 3.65 0 0 0-1.93-1.9Zm9.1-.08a4.62 4.62 0 0 0-4.14 3.35 4.28 4.28 0 0 1 1.7-1.3c.19-.1.38-.15.58-.22.84-.31 1.62-.91 1.88-1.8v-.02l-.02-.01ZM9 5.64A5 5 0 0 1 5.63 9l.01.01A5 5 0 0 1 9 12.37l.01-.01A5 5 0 0 1 12.37 9l-.01-.01A5 5 0 0 1 9 5.63l-.01.01Zm.03 1.98 1.36 1.36v.04l-1.36 1.36h-.04L7.62 9.02v-.04l1.36-1.36h.04Zm-.4-2.19a4.28 4.28 0 0 1-1.7 1.32c-.19.08-.38.14-.58.21-.84.31-1.62.91-1.88 1.8a.02.02 0 0 0 0 .02v.01h.02a4.62 4.62 0 0 0 4.14-3.36Zm1.74-.81c.43.38.72.81.97 1.35.1.24.2.6.31.84a3.65 3.65 0 0 0 1.93 1.9h.01v-.02a4.6 4.6 0 0 0-3.21-4.08Zm-1.14-.16-.01.01a4.62 4.62 0 0 0 3.36 4.15 4.28 4.28 0 0 1-1.32-1.7c-.08-.19-.14-.38-.21-.58-.31-.84-.91-1.62-1.8-1.88h-.02Zm-.53-.04a4.6 4.6 0 0 0-4.08 3.21h.01c.38-.42.81-.71 1.35-.96.24-.1.6-.2.84-.32a3.65 3.65 0 0 0 1.9-1.93h-.02Z" fill="#EDE6D5"/></svg>