<!-- by TradingView --><svg xmlns="http://www.w3.org/2000/svg" width="18" height="18"><path fill="#F59C00" d="M9 0h9v18H9z"/><path fill="#A71A17" d="M0 0h9v18H0z"/><path d="M9 15c2.2 0 4-2.14 4-4.78s-1.8-4.78-4-4.78-4 2.14-4 4.78S6.8 15 9 15z" fill="#fff"/><path d="M10.17 9.57l-1.6-1.08a.72.72 0 01-.26-.27.65.65 0 01.05-.68c.07-.1.17-.18.29-.24a.82.82 0 01.74.03c.12.06.2.15.27.25s.1.22.1.34h.6c0-.21-.05-.42-.17-.61a1.3 1.3 0 00-.48-.46 1.46 1.46 0 00-1.85.38 1.16 1.16 0 00-.1 1.22c.1.2.26.37.45.5l1.65 1c.18.14.32.3.42.5h.59a1.82 1.82 0 00-.7-.88zM9 12.32a1.54 1.54 0 01-1.01-.38 1.3 1.3 0 01-.3-.42 1.21 1.21 0 01.01-1.06h-.58a1.67 1.67 0 00.2 1.5c.14.22.34.42.58.56a2.08 2.08 0 001.63.24c.27-.07.52-.2.74-.37.22-.17.4-.38.51-.61.12-.24.18-.5.18-.76h-.53c0 .35-.16.68-.42.92a1.5 1.5 0 01-1.01.38z" fill="#F59C00"/><path d="M11.6 10.46h-1.32v.56h.77c0 .35-.12.7-.32 1a2 2 0 01-.86.7 2.21 2.21 0 01-2.17-.25c-.3-.23-.52-.53-.64-.86-.12-.34-.14-.7-.05-1.05.1-.34.3-.65.57-.9.28-.24.63-.41 1.01-.48l-.38-.24a1.33 1.33 0 01-.23-.19c-.47.18-.88.48-1.17.86a2.29 2.29 0 00-.12 2.63c.26.4.64.73 1.1.95a2.87 2.87 0 002.85-.25c.4-.29.7-.67.87-1.11.17-.44.2-.92.09-1.37zm-1.15-.76l.44-.42a2.8 2.8 0 00-2.19-.7l1 .67c.28.1.54.25.75.44z" fill="#A71A17"/><path d="M8 10.5h2v.5H8z"/><path d="M7.82 4.71c.48 0 .87-.38.87-.85A.86.86 0 007.82 3a.86.86 0 00-.88.86c0 .47.4.85.88.85zm-1.95.98c.48 0 .87-.39.87-.86a.86.86 0 00-.87-.85.86.86 0 00-.87.85c0 .47.39.86.87.86zm5.3-1.81c0 .47-.4.85-.87.85a.86.86 0 01-.87-.85c0-.48.39-.86.87-.86s.87.38.87.86zm.96 1.8c.48 0 .87-.37.87-.85a.86.86 0 00-.87-.85.86.86 0 00-.87.85c0 .48.39.86.87.86z" fill="#fff"/></svg>