<!-- by TradingView --><svg width="18" height="18" xmlns="http://www.w3.org/2000/svg"><path fill="url(#paint0_linear)" d="M0 0h18v18H0z"/><path d="M13.777 10.485c.146-.47.224-.968.224-1.485 0-.604-.598-1-1.202-1H9.42c-.415 0-.688.187-.688.601 0 .69.497 1.066 1.188 1.066h1.697v.002c.435.012 1.022.088 1.518.327.242.117.468.275.642.489zm-.128.362a1.156 1.156 0 00-.056-.09 1.49 1.49 0 00-.593-.48c-.47-.227-1.048-.294-1.468-.299a2.501 2.501 0 01-4.202.885 3.9 3.9 0 00.613.991c.67.785 1.773 1.428 3.542 1.486a5.018 5.018 0 002.164-2.493zm-2.718 2.767c-1.54-.163-2.567-.787-3.225-1.558a4.345 4.345 0 01-1.008-2.49 2.5 2.5 0 011.036-2.45c-2.116.474-3.262 2.097-3.52 3.33a5.002 5.002 0 006.717 3.168zm-6.86-3.78A5 5 0 019 4h5a2.667 2.667 0 01-2.666 2.667H9.066l-.065.003c-2.74 0-4.367 1.668-4.93 3.164z" fill="#fff"/><defs><linearGradient id="paint0_linear" x1="9" y1="0" x2="9" y2="18" gradientUnits="userSpaceOnUse"><stop stop-color="#0B9946"/><stop offset="1" stop-color="#82C742"/></linearGradient></defs></svg>