<!-- by TradingView --><svg width="18" height="18" viewBox="0 0 18 18" xmlns="http://www.w3.org/2000/svg"><path fill="url(#a)" d="M0 0h18v18H0z"/><path d="m10.09 6.1.36.79A2.92 2.92 0 0 1 9.4 9.04L5.65 12.4l-.12-.1c-.03-.02-.03-.05 0-.08l.15-.14c.02-.02.02-.04 0-.06l-.2-.17-.37-.32a.82.82 0 0 0-.23-.25c-.02-.01-.05-.01-.07 0l-.22.17-.23-.2c-.02-.02-.02-.04 0-.06a.4.4 0 0 1 .14-.14c.04-.02.04-.04 0-.07l-.32-.29c-.1-.13-.22-.23-.37-.3a.7.7 0 0 0-.22-.27c-.02-.02-.04-.02-.07 0l-.22.17-.24-.2c-.02-.02-.02-.05 0-.07l.16-.14c.02-.01.02-.03 0-.05a.75.75 0 0 0-.23-.2c-.09-.12-.2-.21-.31-.28-.07-.1-.16-.2-.27-.27-.04-.04-.08-.03-.11.02l-.11.17A.43.43 0 0 1 2 9.15c-.02-.03-.01-.05 0-.07L5.3 6.13c.5-.45.9-.74 1.17-.86a3.03 3.03 0 0 1 1.82-.22c.72.13 1.32.48 1.8 1.06Z" fill="#fff"/><path d="M14.22 6.17c.2.3.32.58.38.86-.07.8-.43 1.49-1.07 2.07-1.24 1.13-2.5 2.25-3.75 3.36l-.11-.09c-.04-.02-.04-.05 0-.08l.16-.15c.03-.02.03-.04 0-.06l-.23-.2-.31-.27-.26-.26c-.02-.02-.04-.03-.07 0l-.24.16a.74.74 0 0 1-.2-.2c-.02-.03-.02-.05 0-.07l1.6-1.42a2.97 2.97 0 0 0 1.07-2.1c.05-.8-.22-1.53-.8-2.19-.05-.05-.04-.09.02-.12a3.15 3.15 0 0 1 2.07-.3c.71.14 1.3.5 1.74 1.06Z" fill="#fff"/><path d="M5.97 12.7c1.13-1 2.26-2.02 3.37-3.03.48-.44.79-.77.92-1.02.3-.54.36-1.12.18-1.76l-.35-.79c.65.6.9 1.34.73 2.22-.1.5-.38.96-.83 1.37a626.7 626.7 0 0 0-3.64 3.26c-.03.02-.05.02-.08 0l-.3-.25ZM10.12 12.74l3.77-3.38c.7-.62.93-1.4.71-2.33a2.58 2.58 0 0 0-.38-.86c.4.32.64.73.73 1.2.12.62.03 1.17-.25 1.67-.15.26-.5.64-1.05 1.13l-3.13 2.8c-.04.03-.09.04-.14.01a.78.78 0 0 1-.26-.24Z" fill="#8D0ABC"/><path d="m5.97 12.7-.32-.29L9.4 9.04a2.92 2.92 0 0 0 1.05-2.15c.17.64.11 1.23-.19 1.76-.13.25-.44.59-.92 1.02a370.38 370.38 0 0 1-3.37 3.03ZM14.6 7.03c.22.93-.01 1.7-.7 2.33l-3.78 3.38-.34-.28c1.26-1.11 2.5-2.23 3.75-3.36.64-.58 1-1.27 1.07-2.07ZM2.68 9.36l-.2.18-.3-.26.12-.17c.03-.05.07-.06.11-.02.1.08.2.17.27.27Z" fill="#E0E0E0"/><path d="m2.99 9.63-.15.15c-.03.02-.05.02-.08 0-.1-.06-.2-.14-.28-.24l.2-.18c.12.07.22.16.3.27Z" fill="#8D0ABC"/><path d="M3.81 10.4a.47.47 0 0 1-.17.19l-.34-.29.22-.17c.03-.02.05-.02.07 0 .11.09.19.18.22.27Z" fill="#E0E0E0"/><path d="m4.19 10.7-.2.15c-.03.01-.05.01-.07 0l-.28-.26c.06-.03.12-.1.17-.2.15.08.27.18.38.31Z" fill="#8D0ABC"/><path d="M5.11 11.54a.58.58 0 0 1-.18.2l-.34-.28.22-.17c.02-.01.05-.01.07 0 .1.08.18.16.23.25ZM9.29 11.61l-.22.2-.35-.3.24-.17c.03-.02.05-.01.07.01l.26.26Z" fill="#E0E0E0"/><path d="M5.47 11.86 5.3 12a.06.06 0 0 1-.07 0c-.12-.06-.21-.15-.29-.25a.58.58 0 0 0 .18-.2l.36.32ZM9.29 11.61l.31.28-.18.17c-.02.02-.05.02-.07 0l-.28-.26.22-.19Z" fill="#8D0ABC"/><defs><linearGradient id="a" x1="9" y1="0" x2="9" y2="18" gradientUnits="userSpaceOnUse"><stop stop-color="#FB01FF"/><stop offset="1" stop-color="#9516F9"/></linearGradient></defs></svg>