<!-- by TradingView --><svg width="18" height="18" viewBox="0 0 18 18" xmlns="http://www.w3.org/2000/svg"><path fill="#F0F3FA" d="M0 0h18v18H0z"/><path d="m12.02 10.8.13-2.69V8.1l.05-.05c.17-.18.16-.28.15-.4v-.19c.03-.41-.02-.89-.21-1.02l-.02-.02c.02-.76-.25-1.04-.25-1.04l-.02-.02.02-.02s.05-.04.05-.26c0-.87-.3-.99-.59-1.1l-.06-.03c-.3-.53-.92-.59-.93-.6a3.42 3.42 0 0 0-1.62-.33c-.52 0-.93.07-.99.09l-.12.14-.25-.08c-.97.2-1.6.97-1.61 1.01v.17h-.01c-.37.39-.42.61-.42.65.03.04.17.22.2.46 0 .2-.1.6-.16.78-.3.31-.4.61-.29.83l.06.09c.09.13.19.28.09.55-.12.32-.1.61.03.89l.26.6v.02c.01.45.16 1 .3 1.35l-.22 1.01c-.03.16-.02.24.05.34.11.15.6.66.7.66l.55-.05.12-.01a.36.36 0 0 1-.09-.26v-.03l.35.16c.2.52.23 1.62.23 1.62 0 .01.52 1.4 1.82 1.97a5.8 5.8 0 0 0 2.06-2.51l1.6-1.29-.96-1.38Z" fill="#fff"/><path d="M9.8 11.19s1.12.36.36 2.2c-.13.62-.36 1.13-.36 1.13l.11.72 1.1-1.2.5-.9.03-1.05s.1-.65.58-.76c-.22-.46-.2-.97-.2-.97l-.25-1.72-.34.28.11.89-1.29 1.09-.35.29Z" fill="gray"/><path d="M7.82 12.77s.6 1.2.98 1.63v.4l-.2.3.58.19.44-.55.18-.71v-1.67l-.25-.7-.53.14-.95.48-.25.49ZM6.88 4.28s-.74.27-1.09 1.09c-.1.23.02.5-.09.62-.1.12-.22.18-.22.18H5.4l.13-.63.2-.69.28-.33.37-.22.49-.02ZM7.29 7.14s.23.47.72.47c.5 0 .61-.39 1-.52.4-.14.6-.37.74-.37a1.19 1.19 0 0 0-.86-.79c-.5-.12-1.38.29-1.38.29l-.14.36.13.04s.29-.31.5-.27c.22.04.38.04.38.04s.5-.08.8.37c-.11 0-.28.02-.39.1-.16.1-.55.38-1.09.1-.54-.3-.13.06-.13.06s.22.22.67.3c-.36.1-.75-.13-.75-.13l-.2-.05ZM6.96 7.84h-.18l.43-.23s.72.09 1.18.6c.47.52.15.54.15.54l-.36-.28-.31-.1S7.7 8.08 7.52 8l-.41-.17-.15.02Z" fill="gray"/><path d="M7.03 8.31s-.4.2-.83.28c-.43.09-.52-.32-.52-.32l.17-.16.58-1.1-.15.01-.16-.2.25-.25s.2.09.25-.03c-.07-.1-.12-.3-.12-.3s.25.2.54.17c.3-.03.3.07.3.07l-.26.3s-.23-.05-.23.06c0 .12.14.12.14.12s-.22.15-.33.13c-.27.38-.45.93-.45.93s.07.03.1.12c-.25-.01-.36.1-.36.1s.14.25.64.11.44-.04.44-.04Z" fill="gray"/><path d="m5.39 8.87.18.1s-.22-.41.02-.84c.2-.36.07-.38.07-.38l-.22-.21-.12-.32.28-.16s-.32.02-.37-.23c-.05-.25.63-.12.63-.12l.26.2v.25l-.2.5-.2.57.16.35.1.2s-.18.3-.2.54c-.03.25-.1.26-.1.26l-.16-.37-.13-.34ZM6.02 9.61s.18.35.5.46l.05-.08s1.53-.22 1.7-.83L8 8.83s-.54-.28-1.28 0-.75.66-.75.66l.06.12ZM10.93 7.38s.24-.33.44-.47c.2-.13.49-.02.49-.02l.02.74-.03.05-.04.1-.15.27-.26.13-.14-.1s-.06-.32-.15-.47c.03-.11.24-.31.24-.31v-.11s-.23.04-.42.19ZM8.71 9.43s.74-1-.44-1.7l.04-.02s.59.32 1.27.12c.48-.15.74-.84.74-.84S10.2 5.76 8.7 5.46c.25-.45.2-.82.2-.82s-.13-.36-.8-.55c-.67-.18 1.6-.21 1.6-.21l-.07.5-.48.73.69-.44.93.56.44 1.42-.1.18-.4.65v-.35s-.33.51-.58.82c.32-.23.5-.4.5-.4l-.84 1.5-1.07.38Z" fill="gray"/><path d="M12.37 7.46c.03-.42-.02-.9-.22-1.04 0-.77-.26-1.06-.26-1.06s.06-.03.06-.28c0-.94-.36-1.02-.67-1.15-.3-.54-.93-.59-.93-.59-1.06-.57-2.63-.25-2.63-.25l-.12.13-.24-.07c-1 .2-1.64 1-1.64 1.03v.16c-.42.44-.43.67-.43.67s.18.2.2.45c.01.2-.1.62-.14.76-.37.38-.4.67-.3.86.1.17.26.3.15.62-.16.45-.05.75.03.9l.26.62c0 .42.14.97.3 1.35l-.22 1c-.03.18-.02.26.05.36.1.13.61.68.72.67.22-.01.44-.04.71-.07-.13-.13-.1-.27-.1-.27l.47.22s.93-.04 1.23-.1c.3-.06.75-.82.75-.82s1.65-1.2 2.24-1.72c-.04-.32-.1-.6-.17-.85.19-.24.58-.74.74-.92.25-.27.14-.36.16-.6Zm-7.18-.52c.12-.1.3-.15.46-.16.12 0 .27.07.2.13-.22.07-.35.22-.5.2-.14-.02-.16-.17-.16-.17Zm.5 2.52a.46.46 0 0 1-.1-.1l.1.1s-.4-.72-.4-1.2c0-.5.16-.6.16-.6l.25.13v-.07s-.2-.1-.2-.2c.06-.03.29-.06.37-.24-.17.1-.39.08-.39.08l-.04-.06s.1-.13.36-.26c.25-.13.27.04.27.06-.04.23-.2.58-.36.98-.18.46.23.62.23.62s-.2.36-.25.76Zm1.33.6a.8.8 0 0 1-.29-.02c-.2-.07-.38-.07-.38-.07s.13.07.13.12c-.14.03-.26.09-.36.15.01-.17-.06-.47-.05-.72.11.13.3.2.3.2l-.04.1c.23-.09.83-.18 1.22-.29.06.01.13.02.22-.01a.24.24 0 0 1-.13-.04l.13-.05a1 1 0 0 0 .34-.25.72.72 0 0 1-.15.23c.2-.07.37-.23.47-.29-.14.69-1.39.93-1.41.93Zm-.94-.6c.01-.12.04-.21.1-.29a2.9 2.9 0 0 1 1.36-.37c.12 0 .3.08.48.16-.2-.01-.39-.09-.66-.07-.28.02-.7.15-.97.28-.2.1-.24.2-.31.28Zm6.16-1.98c-.05.3-.18.42-.27.6-.15.31-.32.6-.59.6-.3-.9-.7-1.3-.7-1.3l-.78 1.2.06-.48-.17.18-1.04-.27s.37.19.37.53c0 .15 0 .53-.47.89l-.15.1s.32-.28.32-.85c0-.53-.9-.83-.9-.83s.62.38.59.79c-.41-.44-.93-.32-.93-.32s.08-.08.08-.23c0-.25-.36-.37-.36-.37l-.34.12c.27-.01.43.16.43.26s-.08.13-.42.13c-.35 0-.55.1-.55.1s.07.04.22.04.5-.08.5-.08-.22.25-.53.36c-.2.07-.37.02-.4-.06.33-.05.56-.16.56-.16l-.45.05c-.5.06-.53-.2-.53-.33 0-.14.2-.55.32-.82.12-.26.2-.4.47-.47-.15-.05-.33.02-.33.02s.03-.17.18-.26c-.23-.19-.4-.5-.4-.5s-.2 0-.48.14a.63.63 0 0 0-.04.02c.03-.15.2-.29.2-.29h-.1l-.16.13.18-.8c.06-.35.3-.69.57-.84.27-.14.87-.24.98.08.88-.53 1.58-.39 1.58-.39s-.02.22.19.37c.3-.23.8-.15.8-.15s-.13.15-.13.28c.24.1.48.3.48.3s-.52 0-.86.25c.7.48.98 1.1.98 1.1h.13c.2.28.18.82.18.82s.18-.43.06-.73c.23 0 .45.14.5.18v.24s.32-.41.77-.41c.36 0 .42.85.38 1.06Z"/><path d="m6.75 12.35-.32.07s-.7-.43-.7-.62c0-.2.12-1 .64-1.48 0 0-.1.28-.09.47.16-.25.37-.4.37-.4s-.28 1.16.65 1.73l-.06.12s-.6-.22-.9-.47c.08.38.41.58.41.58Z" fill="#FCC900"/><path d="M7.59 12.11c-.98-.39-.82-1.47-.7-1.8a5.5 5.5 0 0 0 1.07-.3c-.27.34-.68.97-.68 1.45 0 .27.3.55.3.55v.1Z" fill="#FCC900"/><path d="M8.79 9.5c-.7.47-1.37 1.52-1.37 1.98 0 .52.76.61.76.61s-.4-.3-.4-.56c.26.28.75.4.75.4s1.1-.87 1.53-3.17l-.3.46s-.02-.62-.5-.9c.23 1.42-.75 2.38-.75 2.38s-.04-.64.28-1.2Z" fill="#FCC900"/><path d="M10.71 7.68s.55.74.55 2.08c-.06-.09-.14-.16-.14-.16s.03.2 0 .31c-.04.11-1.34 1.1-1.79 1.38.92-1.53.94-2.73.94-2.73l.25-.63s.03 1.02-.12 1.79c.41-.97.3-2.04.3-2.04Z" fill="#FCC900"/><path d="M8.47 6.1c.4 0 .7.2.7.2v-.16s-.4-.56-.84-.56c-.3 0-.74.1-1.2.24V6l-.2-.1-.34.11s.1.54.65.47a.27.27 0 0 1-.09.12c-.55-.06-.72-.46-.72-.46.1.75.86.57.86.77 0 .08-.09.26-.09.26.14 0 .44.24.68.13-.17-.01-.34-.11-.37-.22.27-.07.9-.33 1.12-.33.21 0 .48.18.48.18s-.15-.31-.73-.53c-.57-.22-.9.09-.9.09v-.11c.25-.11.64-.28.99-.28Z"/><path d="M9.63 5.3s.69.33.81.87c.16-.01.37.04.54.13.39-.15.75-.13.9-.13.1-.42-.11-1.06-.99-1.06-.87 0-1.27.19-1.27.19ZM11.7 5.14s-.78-.38-1.39-.37c-.17-.15-.43-.22-.43-.22s.16-.28.43-.37c-.76-.03-1.08.1-1.29.16-.22-.2-.18-.68.83-1l-.02.11s.3-.06.61.04c.3.1.5.4.57.52.32.04.82.27.7 1.13ZM9.55 3.25s-.71.25-.77.68c-.77-.17-1.56.31-1.56.31s-.2-.53.3-.83c.62-.38 2.03-.16 2.03-.16ZM7.08 4.24s-.23-.41.1-.83c-.76.06-1.24.87-1.24.87s.8-.23 1.14-.04ZM5.55 5.23l-.15-.3s.1-.3.36-.48l.31-.02s-.46.27-.52.8Z" fill="#FCC900"/><path d="M11.14 7.14s.18-.34.64-.34c.4 0 .25 1 .12 1.08 0 0-.02-.45-.42-.5.09-.14.38-.1.38-.1s.1-.34-.22-.34-.5.2-.5.2Z"/><path d="M11.81 7.79s-.15.25-.22.25-.17-.16-.18-.31a.92.92 0 0 1-.19.4s.04.17.2.17c.17 0 .38-.19.4-.51Z"/><path d="M5.95 7.19s-.17-.17-.31-.12c-.23.1-.23.29-.23.29s.24.14.54-.17ZM8.31 6.62s-.13-.2-.36-.18a.46.46 0 0 0-.34.24c-.05.1.03.13.14.12.31-.05.36-.15.56-.18Z" fill="#FF000A"/><path d="M6.76 8.8s.28-.38 1-.38c.62 0 .7.59.7.59s-.3-.34-.82-.34c-.54 0-.76.13-.82.16-.06.02-.06-.03-.06-.03ZM6.57 8.82s-.16-.1-.39-.06c-.19.04-.36.27-.27.54.11-.32.46-.41.6-.4.12 0 .06-.08.06-.08ZM5.88 9.65s.1.06.1.16v.63s-.1-.08-.1-.2v-.59ZM6.72 6.05s.21.24.33.27c.11.03.17-.06.25-.1.07-.05.64-.45 1.32-.32-.11-.17-.29-.23-.5-.23-.33 0-.88.26-.88.26l-.05.16-.2-.1s-.31.01-.27.06ZM6.18 6.68s-.02-.24-.26-.37l-.02.05s-.5-.01-.62.24c.29-.1.74 0 .9.08Z" fill="#FCC900"/><path d="M6.57 9.65s.28-.02.85-.2c.5-.17.54-.34.54-.34-1.04-.23-1.58.25-1.58.25s.06.06.08.12c.02.07 0 .16.11.17Z" fill="#fff"/><path d="m12.18 8.01-.14 2.78.96 1.4-1.6 1.28s-.55 1.5-2.08 2.53c-1.33-.57-1.84-1.98-1.84-1.98s-.03-1.23-.27-1.7c.09 0 .34.05.34.05s-.02.83.08 1.5.53 1.03.53 1.03l.8.25c.13.03.4 0 .55-.46.16-.45.6-2-.27-2.88l.01-.3.6-.37s.12.18.12.6c0 .4 0 2.08-.1 2.57.1.32.11.63.11.63s.88-.68 1.34-1.65l.22-1.2.05.91s.59-.34.72-.54.21-.37.21-.37l-.7-1.2-.17-2.21.53-.67Z"/><path d="m11.77 8.76.25-.33-.1 1.1-.15-.77Z" fill="#FACD19"/><path d="M8.27 12.25v.35l.53 1.03s-.66-.71-.98-.86c-.1-.21-.33-.4-.33-.4l.78-.12Z"/><path d="M10.77 12.94s.74-1.36.74-2.5c0-.28-.25-.34-.25 0 0 0-.1 1.76-.49 2.5Z" fill="#fff"/></svg>