<!-- by TradingView --><svg width="18" height="18" viewBox="0 0 18 18" xmlns="http://www.w3.org/2000/svg"><path fill="#181B1E" d="M0 0h18v18H0z"/><path d="M7.9 4.46c.6-.61 1.6-.61 2.2 0l.55.54h.78c.86 0 1.57.7 1.57 1.57v.78l.54.54c.61.61.61 1.6 0 2.22l-.54.54v.78c0 .86-.7 1.57-1.57 1.57h-.78l-.54.54c-.62.61-1.6.61-2.22 0L7.35 13h-.78C5.71 13 5 12.3 5 11.43v-.78l-.54-.54a1.56 1.56 0 0 1 0-2.22L5 7.35v-.78C5 5.71 5.7 5 6.57 5h.78l.54-.54ZM7.37 9c-.18 0-.37.1-.38.26v.07c0 .92.9 1.67 2 1.67s2-.75 2-1.67v-.07c-.01-.15-.17-.26-.35-.26h-.78c-.2 0-.37.15-.37.33 0 .19.17.34.37.34h.22c-.16.37-.59.63-1.09.63-.64 0-1.17-.43-1.17-.97 0-.16-.18-.33-.38-.33h-.07Zm2.63-2c-.3 0-.6.14-.87.33-.15.1-.18.34-.09.5.1.18.29.21.44.12a1 1 0 0 1 .52-.2c.16 0 .34.08.5.19.14.1.33.07.43-.1.1-.17.07-.4-.07-.5A1.54 1.54 0 0 0 10 7Zm-2.63-.06a.5.5 0 1 0 0 1 .5.5 0 0 0 0-1Z" fill="#F3B830"/></svg>