<!-- by TradingView --><svg width="18" height="18" viewBox="0 0 18 18" xmlns="http://www.w3.org/2000/svg"><path fill="#132333" d="M0 0h18v18H0z"/><path d="m6 11.57.04.01a.01.01 0 0 1 0 .02.7.7 0 0 1-.37-.01l-.56-.2c-.14-.04-.25-.1-.3-.22l-.01-.04c-.04-.08-.05-.13-.13-.2a2.34 2.34 0 0 1-.57-.76.97.97 0 0 1 .12-1.05c.04-.05.13-.13.27-.23a3.48 3.48 0 0 0 1.26-1.42c.1-.22.22-.43.35-.63.31-.46.75-.77 1.3-.91.04-.01.05-.03.06-.05.2-.66.47-1.29.92-1.83A5.27 5.27 0 0 1 9.53 3v.01c.01 0 .01 0 0 0-.34.3-.66.65-.96 1.03a3.9 3.9 0 0 0-.8 1.7c.1.07.43.08.46-.06a3.07 3.07 0 0 1 .98-1.94c.02 0 .02 0 .01.02a3.26 3.26 0 0 0-.72 1.79l.01.02a.07.07 0 0 0 .06.02.7.7 0 0 1 .4.1.03.03 0 0 0 .02 0v-.02c.15-.28.29-.58.46-.83a5.7 5.7 0 0 1 1.77-1.67v.03c-.47.42-.91.87-1.31 1.37-.33.4-.6.83-.8 1.28-.23.53.37.63.75.58.05 0 .09-.04.1-.08a295.05 295.05 0 0 0 .53-1.32.04.04 0 0 1 .04 0l.01.02c.05.09.02.2 0 .3l-.02.03c-.1.4-.19.73-.23.96-.01.04 0 .07.02.1.02.06.04.1 0 .17a.43.43 0 0 1-.3.2c-.35.07-.76.02-1.06-.18-.13-.09-.19-.21-.16-.36l.01-.05c.02-.07.05-.16-.04-.2a.79.79 0 0 0-.24-.06h-.05a1.37 1.37 0 0 1-.79.28c-.15 0-.31.02-.43.08-.41.2-.73.49-.95.87-.06.09-.17.31-.35.67A3.2 3.2 0 0 1 4.92 9c-.23.18-.5.4-.56.67a.8.8 0 0 0 .01.35c.04.13.1.14.22.08l.5-.27c.04-.02.05-.01.03.02a1.8 1.8 0 0 1-.13.26c-.1.15-.26.22-.43.29l-.02.01-.01.02a.05.05 0 0 0 0 .05l.01.01c.08.11.24.34.36.38.39.13.78.15 1.16 0a.2.2 0 0 1 .12-.03h.01v.04A1.47 1.47 0 0 1 5 11v.02c.12.29.43.44.72.47h.02v-.02a.14.14 0 0 1-.06-.07c0-.02 0-.02.02-.02.08.04.16.06.25.07.02 0 .03 0 .01-.03l-.02-.04c-.02-.02-.02-.03.01-.02.13.05.25.1.38.11.1.02.1.03 0 .04h-.1c-.02 0-.03 0-.01.02.01.01.03.03.05.03v.02c-.08.01-.17.01-.24-.01H6v.01Zm4.68-7.08a4.26 4.26 0 0 1 .46-.91h.01v.01l-.38 1-.01.02a.04.04 0 0 1-.05 0l-.01-.02a.1.1 0 0 1-.02-.1Zm.43-.05c-.09.27-.17.41-.5.25a1.83 1.83 0 0 0-.32-.12v.03c.18.08.54.26.49.48a1 1 0 0 1-.18.38v.02h.01c.1-.1.2-.2.27-.32.1-.17.36-.04.47.05h.01v-.02l-.27-.24c-.05-.04-.07-.08-.05-.13a2.58 2.58 0 0 0 .1-.38l-.02-.01Zm1.85 5.84c.01-.16-.13-.3-.26-.37a4.59 4.59 0 0 1-1-.76c-.12-.13-.23-.3-.34-.45l-.06-.1c-.2-.3-.33-.63-.46-.97l-.1-.23c-.07-.19-.2-.29-.35-.4l-.1-.09c-.02 0-.02-.02-.01-.02.1-.11.2-.12.32-.03.3.24.45.56.6.89l.08.2a3.4 3.4 0 0 0 1.21 1.18l.16.08c.47.26 1.35.74 1.35 1.21 0 .4-.46.45-.78.42a3.17 3.17 0 0 1-1.87-.75c-.1-.09-.3-.28-.28-.42h.02l.2.16c.32.26.7.44 1.1.54.12.03.55.13.57-.1Zm-2.7-1.1-.03.03a.02.02 0 0 1-.01 0 .02.02 0 0 1-.01-.01c-.12-.42-.2-.85-.24-1.28 0-.05-.02-.09-.04-.13l-.02-.01a.05.05 0 0 0-.06.01.44.44 0 0 0-.08.17c-.13.64-.06 1.25.23 1.84.05.11.36.57.5.54h.03a.05.05 0 0 0 .02-.04v-.02c-.13-.44-.12-.86.02-1.3v-.03a.05.05 0 0 0-.03-.03c-.1-.04-.24.19-.28.26ZM7.46 8.1a.93.93 0 0 0-.48.47c-.12.26 0 .38.28.43.28.06.57.06.87 0 .24-.06.26-.14.22-.35-.02-.17-.16-.32-.3-.42-.2-.13-.37-.23-.59-.13Zm-.38.63c-.1-.1.24-.62.4-.4v.03a.16.16 0 0 1-.05.07 1.67 1.67 0 0 0-.3.3.04.04 0 0 1-.02 0 .04.04 0 0 1-.03 0Zm5.1 2c-.38-.12-.77-.25-1.04-.56-.12-.13-.21-.3-.3-.47l-.08-.14a.18.18 0 0 0-.08-.08.06.06 0 0 0-.07.02l-.01.02c-.06.3.07.72.19 1 .14.32.35.54.74.56.23 0 .75 0 .86-.18v-.03a.14.14 0 0 0-.1-.1l-.1-.04Zm-3.5.11c.67-.06 1.09-.59.98-1.21l.01-.03.04.01c.28.5.13 1.19-.45 1.43-.41.17-.91.1-1.35.03l-.16-.03a2.2 2.2 0 0 0-.55 0c-.05 0-.1.02-.14.04l-.08.02c-.02 0-.02 0 0-.02a.27.27 0 0 1 .07-.06c.32-.15.68-.15 1.05-.15.19 0 .38 0 .58-.03Zm1.8 1.33a1.17 1.17 0 0 1-.54-1.42c0-.02 0-.02-.02-.01a.1.1 0 0 0-.04.05 2.51 2.51 0 0 0-.18 1.72c.18.49.6.6 1.04.72.42.12.84.23 1.06.69h.02l.01-.01v-.02a5.12 5.12 0 0 1-.22-.65c-.13-.48-.53-.72-.94-.96l-.2-.11Zm-3.04 1.18h-.01a.08.08 0 0 0-.07.05.85.85 0 0 0-.05.76H7.3c-.12-.24-.16-.5-.12-.77a.45.45 0 0 1 .05-.17c.13-.22.3-.38.47-.54.3-.28.56-.53.56-1a26.09 26.09 0 0 1 .02-.33c.22.22.3.48.26.79-.04.24-.21.47-.38.7l-.13.18c-.5.72-.25 1.37.56 1.7a1.77 1.77 0 0 0 1.08.07h.01v.04l-.01.04a3.31 3.31 0 0 1-.7.14c-.63.04-1.2-.29-1.46-.82a.98.98 0 0 1-.04-.82l-.01-.02h-.02Zm1.65-1.6c-.32.51-.71 1.31-.52 1.93.18.56.8.72 1.35.67l.49-.07c.46-.07.89-.14 1.35 0l.1.02a.04.04 0 0 0 .02-.02.03.03 0 0 0 0-.04 2.04 2.04 0 0 0-1.31-.74c-.5-.07-1.02-.14-1.25-.63-.2-.4-.12-.82.01-1.23a.42.42 0 0 0 0-.28.02.02 0 0 0-.02 0l-.02.01-.07.14-.13.23Z" fill="#9BF2FD"/></svg>