<!-- by TradingView --><svg xmlns="http://www.w3.org/2000/svg" width="18" height="18" viewBox="0 0 18 18"><path fill="#F0F3FA" d="M0 0h18v18H0z"/><path d="M4.72 6.57a21.3 21.3 0 0 1 1.33-.56l-.37 1.35.99 2.37.3 1.03-1.5-.63-1.1-2.63.35-.93z" fill="url(#anhfiye0h)"/><path d="M4.23 10.13l.6-1.24.7 1.24 3.54 1.25-1.66.9-2.64-1.02-.54-1.13z" fill="url(#bnhfiye0h)"/><path d="M11.6 9.03l-.56-1.41-.18-.1-1.59 3.88-1.86.86-1.33-.42.45 1.3 1.01.5 2.62-1.24 1.44-3.37z" fill="url(#cnhfiye0h)"/><path d="M10.42 13.66l-1.44-.62 1.25-.71 1.46-3.2.6 1.4-1 2.72-.87.4z" fill="url(#dnhfiye0h)"/><path d="M12.42 7.73l-1.5-.55c.45 1.09 1.35 3.29 1.37 3.38.01.1-.3.96-.47 1.38l1.42-.52.42-.98-1.24-2.71z" fill="url(#enhfiye0h)"/><path d="M6.99 10.34l1.65-3.82 2.29.81-1.7 4.04-2.24-1.03z" fill="url(#fnhfiye0h)"/><path d="M10.5 5.6l-1.43.71 3.33 1.33.73 1.4.54-1.27-.34-1.05L10.5 5.6z" fill="url(#gnhfiye0h)"/><path d="M11.46 4.72L11.92 6l-.07.11-1.31-.52-1.78.76-1.77 4-.62-1.53L7.7 5.46l2.7-1.15 1.07.41z" fill="url(#hnhfiye0h)"/><path d="M5.65 7.31l1-2.57 1.12-.5 1.25.64-1.25.52-1.45 3.4-.67-1.49z" fill="url(#inhfiye0h)"/><path d="M10.32 8.52l-.1-.05-1.87-.84-.05.12 1.98.88.04-.1z" fill="#4AB7E5"/><path d="M6.59 13.04l.94.43.04-.14-.9-.4-.38-.92-.08-.08-.06.08.44 1.03z" fill="#2E6CA9"/><path d="M11.74 9.37h-.2l.04.18.04-.1.45 1.11-1 2.46.1.1 1.04-2.56-.47-1.19z" fill="#0B3463"/><path d="M7.07 10.1L7 10.02h-.02l-.46-1.08H6.4l.47 1.13c.03.08.14.1.2.03z" fill="#3286C1"/><path d="M8.7 6.3l-.1-.08-1.6 3.8.08.1L8.7 6.3z" fill="#0B427B"/><path d="M10.51 5.39v.14L8.7 6.3l-.1-.08 1.92-.83z" fill="#328ABA"/><path d="M5 9.13h-.2l.06.13.02-.05c.01-.02.04-.02.05 0l.45 1.1 3.09 1.28-.05.03.12.07v-.17l-3.1-1.3L5 9.12z" fill="#07366B"/><path d="M4.52 10.16l-.08.07.35.91 2.55 1.05 1.2-.5-.12-.07-1.08.45-2.46-1.02-.36-.9z" fill="#327ABB"/><path d="M4.8 9.13l.06.13-.35.86v.04l-.07.07-.03-.07.4-1.03z" fill="#1D4D76"/><path d="M5.52 10.07l1.19.5.1-.04-.01-.02-.1-.1-1.1-.43-1.01-2.5h-.15l1.08 2.6z" fill="#348AC9"/><path d="M6.15 6.02l-1.28.53.06.1 1-.43-.49 1.11 1.25 3.08.15.14v-.18l-1.3-3.02.61-1.33z" fill="#0B3061"/><path d="M7.66 5.44l-.08-.11-1.26 3.05.08.12 1.26-3.06z" fill="#093062"/><path d="M6.8 4.8l.05.04.9-.38.92.38-.01.04.02.1h.03a.1.1 0 0 0 .05-.1v-.05a.07.07 0 0 0-.04-.07l-.93-.41a.1.1 0 0 0-.07 0l-.9.37a.05.05 0 0 0-.01.08z" fill="#0C2F57"/><path d="M7.66 5.44l1.06-.47a.07.07 0 0 0 .04-.07l-.1-.02-1.08.45.08.1z" fill="#2C73AA"/><path d="M4.74 8.65l-.1.05-.62 1.42h.1l.62-1.47z" fill="#1F5275"/><path d="M4 10.16l.02-.04h.1l-.01.04v.02l.45 1.1.01.02 1.4.6.02.01.56 1.47h.01l.96.42h.02l1.36-.57h.01l1.47.63h.02l.9-.39.02-.01.62-1.38.01-.02 1.44-.57.01-.01.41-.9h.14l-.43 1-.01.02-1.5.6H12l-.6 1.34-.01.02-1.02.44h-.02l-1.46-.66h-.02l-1.35.56H7.5l-1.05-.43v-.01l-.56-1.48-.01-.01-1.38-.55v-.01L4 10.18v-.02z" fill="#0E1D3D"/><path d="M13.4 9.22l.55 1.35h-.14l-.5-1.35h.1z" fill="#348296"/><path d="M13.39 9.16l.02.06h-.1l-.04-.08.61-1.4-.45-1.12c.1.03.5 1.08.5 1.08H14l-.61 1.46z" fill="#225973"/><path d="M13.59 6.61l.41 1.1h-.07l-.45-1.03-1.31-.57.04-.07 1.38.57z" fill="#377585"/><path d="M12.17 6.11l.04-.07-.52-1.48-.07.1.55 1.45z" fill="#255A73"/><path d="M10.5 4.1l1.2.46-.08.1-1.2-.53.08-.04z" fill="#336C80"/><path d="M6.82 4.49H6.6l-.63 1.38.06.09.8-1.47z" fill="#1F4F66"/><path d="M7.82 5.47l.06.1 2.49-1.04.89.38.38.95.11.06v-.15l-.39-.93-.94-.44a.12.12 0 0 0-.1 0l-2.5 1.07z" fill="#0E3762"/><path d="M11.75 5.91l-.11-.05-1.13-.47v.14l1.22.49.02-.11z" fill="#4396D9"/><path d="M9.5 6.27l-.11-.09 1.22-.53 2.53 1.06.41 1-.44 1.02-.08-.1.4-.93-.38-.89-2.44-1.03-1.1.49z" fill="#0F3467"/><path d="M9.5 6.27l-.11-.09.02.18 3.09 1.3.44 1.07h.17l-.08-.1H13l-.43-1.08L9.5 6.27z" fill="#3C94CC"/><path d="M11.2 7.4l-.13-.17 1.36.57 1.05 2.54-.4.96-.1-.09.37-.9-1.02-2.45-1.13-.45z" fill="#0A3260"/><path d="M11.2 7.4l-.13-.17-.04.1 1.34 3.18h.12l-1.3-3.1z" fill="#3B9ED4"/><path d="M13.08 11.3l-.1-.09-1.04.4v.16l1.14-.47z" fill="#2B709C"/><path d="M10.13 13.54l1.04-.43-.1-.1-.89.39-1.03-.48v.17l.98.45z" fill="#3581BD"/><path d="M10.26 12.45l-1.1.47.12.06 1.08-.47-.1-.06z" fill="#0C396A"/><path d="M10.83 7.73l.07.13.01-.04h.05l.45 1.13-1.38 3.34.1.11 1.4-3.44-.49-1.23h-.2z" fill="#0C4D7D"/><path d="M7.53 13.47l2.6-1.07-.1-.1-2.46 1.03-.04.14z" fill="#266096"/><path d="M6.3 12l-.1-.07h.23l.98.41 1.83-.75.09.06-1.93.82-1.1-.46z" fill="#092D54"/><path d="M6.3 8.4l.02-.02.08.12h-.2L5.7 7.27h.15L6.3 8.4z" fill="#3584C7"/><path d="M10.58 7.67l-1.9-.82-.03.06-.08-.17h.2l1.96.86v.03l-.4.9-.1-.06.35-.8z" fill="#0D628F"/><path d="M8.04 8.05l.08.1.03-.04 1.89.83-.36.8.11.06s.23-.52.33-.8l.05-.11-1.9-.84h-.23z" fill="#0B799C"/><path d="M9.8 9.8l-.12-.07-1.88-.82-.04.1 2 .86.03-.07z" fill="#3CA3D6"/><path d="M9.26 11.07l-.13-.06.38-.83-1.9-.82-.02.05-.1-.12h.2l1.96.84-.4.94z" fill="#0D668A"/><path d="M9.26 11.07l-.1-.07-1.9-.83-.05.1 2.01.88.04-.08z" fill="#3790CC"/><path d="M9.22 4.75v-.12L7.71 4l-1.11.49h.22l.89-.36 1.51.62z" fill="#2E647A"/><path d="M4.28 7.51l-.06.03.42 1.16.1-.05-.46-1.14z" fill="#0F2D54"/><path fill-rule="evenodd" d="M7.68 4.04a.1.1 0 0 1 .08 0l1.35.6a.1.1 0 0 0 .07 0l1.24-.5 1.18.5a.1.1 0 0 1 .05.05l.5 1.33c0 .02.02.04.04.05l1.2.53a.1.1 0 0 1 .05.05l.44 1.05a.1.1 0 0 1 0 .08l-.6 1.31a.1.1 0 0 0 0 .08l.53 1.35a.1.1 0 0 1 0 .08l-.39.86a.1.1 0 0 1-.05.05l-1.39.55a.1.1 0 0 0-.05.05l-.59 1.34a.1.1 0 0 1-.05.04l-.87.38a.1.1 0 0 1-.07 0l-1.4-.61a.1.1 0 0 0-.08 0l-1.3.54a.1.1 0 0 1-.07 0l-.93-.39a.1.1 0 0 1-.06-.05L6 11.94a.1.1 0 0 0-.06-.05l-1.34-.57a.1.1 0 0 1-.05-.05L4.1 10.2a.1.1 0 0 1 0-.08l.58-1.38a.1.1 0 0 0 0-.07l-.48-1.15a.1.1 0 0 1 0-.07l.45-1.04a.1.1 0 0 1 .05-.05l1.23-.48a.1.1 0 0 0 .05-.05l.6-1.3a.1.1 0 0 1 .04-.05l1.05-.44zm4.27 7.59c0 .06.06.1.12.08l.97-.42a.1.1 0 0 0 .05-.05l.36-.88a.1.1 0 0 0 0-.07l-1.02-2.46a.1.1 0 0 0-.05-.05l-1.26-.53a.05.05 0 0 0-.07.06l1.32 3.2h.12l-.45 1.08-.1.04zM9.47 6.15a.1.1 0 0 0-.06.08v.04c0 .04.03.08.06.1l3.03 1.3.41 1a.1.1 0 0 0 .09.05h.03a.1.1 0 0 0 .09-.05l.4-.9a.1.1 0 0 0 0-.07l-.37-.93a.1.1 0 0 0-.05-.06L10.64 5.7a.1.1 0 0 0-.07 0l-1.1.46zM7.72 4.36a.1.1 0 0 1 .07 0l.92.4a.1.1 0 0 1 .05.09v.04a.1.1 0 0 1-.05.08l-1.01.44a.1.1 0 0 0-.05.05L6.42 8.44a.1.1 0 0 1-.09.06h-.06a.1.1 0 0 1-.09-.06l-.45-1.06a.07.07 0 0 1 .07-.1h.04l1-2.44a.07.07 0 0 1 .03-.12l.85-.36zm1 1.91a.1.1 0 0 0-.05.06L7.1 10.06a.1.1 0 0 1-.1.06h-.04a.1.1 0 0 1-.09-.06l-.44-1.05a.05.05 0 0 1 .05-.07c.02 0 .04-.02.05-.04l1.34-3.34v-.04a.05.05 0 0 1 .01-.07l2.45-1.04a.1.1 0 0 1 .08 0l.92.43a.1.1 0 0 1 .05.05l.33.98a.08.08 0 0 1-.1.1l-1.06-.44a.1.1 0 0 0-.07 0l-1.76.74zm2.25 1.46a.1.1 0 0 1 .09.06l.43 1.12a.1.1 0 0 1 0 .07l-1.36 3.38a.1.1 0 0 1-.06.06l-2.5 1.03a.1.1 0 0 1-.07 0l-.88-.4a.1.1 0 0 1-.05-.04l-.39-.95a.1.1 0 0 1 .09-.13h.14a.1.1 0 0 1 .04 0l.94.4a.1.1 0 0 0 .07 0l1.78-.74.09.06.14-.33L10.9 7.9a.1.1 0 0 0 0-.07l-.02-.1h.1zm-1.7 5.26a.1.1 0 0 0 .03.16l.82.36a.1.1 0 0 0 .07 0l.94-.38a.1.1 0 0 0 .05-.05l1.02-2.48a.1.1 0 0 0 0-.08l-.46-1.14h-.2l.04.12a.1.1 0 0 1 0 .06l-1.22 2.95-.1-.06-1.1.47.12.06V13zm-.04-1.94a.1.1 0 0 1-.13.04l-1.79-.79a.1.1 0 0 1-.05-.12l.37-.85a.05.05 0 0 1 .07-.03l1.86.8a.1.1 0 0 1 .05.12l-.38.83zm.56-1.26a.1.1 0 0 1-.12.05l-1.82-.8a.1.1 0 0 1-.05-.12l.34-.8a.1.1 0 0 1 .12-.05l1.83.78a.1.1 0 0 1 .05.12l-.02.04-.33.78zm.52-1.25a.1.1 0 0 1-.12.05l-1.8-.8a.1.1 0 0 1-.05-.13l.34-.83a.1.1 0 0 1 .12-.05l1.84.79a.1.1 0 0 1 .05.12l-.38.85zm-5.88 1.65a.1.1 0 0 1 0-.06l.36-.94a.1.1 0 0 1 .09-.06h.05a.1.1 0 0 1 .08.05l.42 1.01a.1.1 0 0 0 .05.05l3 1.26a.1.1 0 0 1 .06.09v.04a.1.1 0 0 1-.06.08l-1.1.46a.1.1 0 0 1-.07 0l-2.47-1.02a.1.1 0 0 1-.05-.06l-.36-.9zm1.12-2.84l1.27 3.03-.02.1a.1.1 0 0 1-.13.06l-1.11-.45a.1.1 0 0 1-.05-.05L4.5 7.63a.1.1 0 0 1 .05-.13l.04-.01.34-.84a.08.08 0 0 1 .03-.13l.96-.4a.1.1 0 0 1 .12.13l-.5 1.1z" fill="url(#jnhfiye0h)"/><defs><linearGradient id="anhfiye0h" x1="5.29" y1="6.56" x2="6.42" y2="10.39" gradientUnits="userSpaceOnUse"><stop stop-color="#1155F2"/><stop offset="1" stop-color="#8FE7FB"/></linearGradient><linearGradient id="bnhfiye0h" x1="4.66" y1="9.72" x2="8.54" y2="11.8" gradientUnits="userSpaceOnUse"><stop stop-color="#114CF9"/><stop offset=".72" stop-color="#9AE5FA"/><stop offset="1" stop-color="#52C9FA"/></linearGradient><linearGradient id="cnhfiye0h" x1="10.97" y1="8.24" x2="7.26" y2="13.19" gradientUnits="userSpaceOnUse"><stop stop-color="#5BDDFB"/><stop offset=".23" stop-color="#D2FAFB"/><stop offset="1" stop-color="#1659F1"/></linearGradient><linearGradient id="dnhfiye0h" x1="11.77" y1="10.03" x2="10.26" y2="13.38" gradientUnits="userSpaceOnUse"><stop stop-color="#4ED3F9"/><stop offset=".23" stop-color="#82E0FA"/><stop offset="1" stop-color="#1563F1"/></linearGradient><linearGradient id="enhfiye0h" x1="11.78" y1="7.7" x2="12.69" y2="11.5" gradientUnits="userSpaceOnUse"><stop stop-color="#5EDEFB"/><stop offset="1" stop-color="#136DE8"/></linearGradient><linearGradient id="fnhfiye0h" x1="9.7" y1="7.2" x2="8.07" y2="10.82" gradientUnits="userSpaceOnUse"><stop stop-color="#73E2FC"/><stop offset=".25" stop-color="#D5F7FA"/><stop offset=".49" stop-color="#EAFBFC"/><stop offset=".72" stop-color="#CCF6FB"/><stop offset="1" stop-color="#83E9FB"/></linearGradient><linearGradient id="gnhfiye0h" x1="13.36" y1="7.77" x2="9.9" y2="6.17" gradientUnits="userSpaceOnUse"><stop stop-color="#1566F0"/><stop offset="1" stop-color="#87DCFB"/></linearGradient><linearGradient id="hnhfiye0h" x1="11.32" y1="5.42" x2="6.73" y2="9.54" gradientUnits="userSpaceOnUse"><stop stop-color="#1E68F3"/><stop offset=".33" stop-color="#5AC9FD"/><stop offset=".7" stop-color="#BAF5FC"/><stop offset="1" stop-color="#50CFFB"/></linearGradient><linearGradient id="inhfiye0h" x1="7.34" y1="4.24" x2="6.33" y2="8.34" gradientUnits="userSpaceOnUse"><stop stop-color="#2972F7"/><stop offset=".63" stop-color="#93E0FD"/><stop offset="1" stop-color="#8ADAFC"/></linearGradient><linearGradient id="jnhfiye0h" x1="9.31" y1="6.62" x2="10.93" y2="13.45" gradientUnits="userSpaceOnUse"><stop stop-color="#255E8B"/><stop offset=".3" stop-color="#2492AE"/><stop offset="1" stop-color="#153A5A"/></linearGradient></defs></svg>