<!-- by TradingView --><svg width="18" height="18" viewBox="0 0 18 18" xmlns="http://www.w3.org/2000/svg"><path fill="#FF9115" d="M0 0h18v18H0z"/><path fill-rule="evenodd" d="M9 14.3A5.3 5.3 0 1 0 9 3.7a5.3 5.3 0 0 0 0 10.6Zm0 .7A6 6 0 1 0 9 3a6 6 0 0 0 0 12Z" fill="#FAE73D"/><path fill-rule="evenodd" d="M9 13.94a4.94 4.94 0 1 0 0-9.88 4.94 4.94 0 0 0 0 9.88Zm0 .35A5.3 5.3 0 1 0 9 3.71a5.3 5.3 0 0 0 0 10.58Z" fill="#D86508"/><circle cx="9" cy="9" r="4.24" fill="#FEB800"/><path d="M6.53 11.3c-.14-2.12 1.82-5.6 2.82-7.06-.35 2.47 2.15 5.4 2.47 6.7.18.7.36 3-2.47 3a2.63 2.63 0 0 1-2.82-2.65Z" fill="url(#a13kymy0f)"/><circle cx="8.65" cy="9.71" r="1.06" fill="#080913"/><path d="M9 10.41c.2 0 .39-.05.55-.15A1.06 1.06 0 1 1 8.1 8.8a1.05 1.05 0 0 0-.14.78.35.35 0 1 1 .24.47c.2.22.48.36.8.36Z" fill="#D9D9D9"/><circle cx="11.12" cy="9.71" r="1.06" fill="#080913"/><path d="M11.47 10.41c.2 0 .4-.05.55-.15a1.06 1.06 0 1 1-1.45-1.46 1.05 1.05 0 0 0-.13.78.35.35 0 1 1 .23.47c.2.22.48.36.8.36Z" fill="#D9D9D9"/><path d="M10.06 11.82a8.3 8.3 0 0 1-2.82-.7c-.29.28-.25.95 0 1.06.52.23 1.83.7 2.82.7 1.23 0 2.12-.53 2.12-1.23 0-.57-.24-.6-.36-.53-.17.23-.77.7-1.76.7Z" fill="#A72D2D"/><defs><linearGradient id="a13kymy0f" x1="6.71" y1="10.59" x2="12" y2="10.94" gradientUnits="userSpaceOnUse"><stop stop-color="#22532B"/><stop offset="1" stop-color="#42812E"/></linearGradient></defs></svg>