<!-- by TradingView --><svg width="18" height="18" viewBox="0 0 18 18" xmlns="http://www.w3.org/2000/svg"><path fill="url(#a)" d="M0 0h18v18H0z"/><path d="M7.46 6.43a2.99 2.99 0 0 1 3.13.03l1.44-1.44A4.98 4.98 0 0 0 6.02 5l1.44 1.44Zm-1 .98L5.02 5.97a4.98 4.98 0 0 0 0 6.06l1.44-1.44a2.99 2.99 0 0 1 0-3.18Zm1 4.16-1.44 1.44a4.98 4.98 0 0 0 6-.03l-1.43-1.44a2.99 2.99 0 0 1-3.13.03Zm4.11-1.03 1.44 1.44a4.98 4.98 0 0 0 0-5.96l-1.44 1.44a2.99 2.99 0 0 1 0 3.08Z" fill="#fff"/><defs><linearGradient id="a" x1="16.92" y1="2.42" x2="3.58" y2="18" gradientUnits="userSpaceOnUse"><stop stop-color="#315E97"/><stop offset=".45" stop-color="#1C1558"/><stop offset="1" stop-color="#292572"/></linearGradient></defs></svg>