<!-- by TradingView --><svg width="18" height="18" viewBox="0 0 18 18" xmlns="http://www.w3.org/2000/svg"><path fill="#C5F06B" d="M0 0h18v18H0z"/><path d="M11.5 15c.04-.17.11-.35.2-.5l.4-.67c.16-.27.26-.47.31-.6.12-.33.12-.82-.08-1.12a.88.88 0 0 0-.16-.17c-.22-.2-.42-.28-.72-.23-.17.02-.33.08-.49.18a4.25 4.25 0 0 0-.3.18.06.06 0 0 1-.03-.02l.01-.06a.9.9 0 0 1 .26-.27 5.24 5.24 0 0 1 .17-.13 4.32 4.32 0 0 1-1.45-.13.34.34 0 0 1-.12-.05.05.05 0 0 1-.02-.03v-.1c.04-.03.09-.03.15-.02.28.09.55.14.82.16.84.06 1.65-.2 2.28-.75 1.25-1.1 1.25-3 .67-4.43 0-.02-.02-.02-.03-.01l-.31.3-.25.14a.07.07 0 0 1-.08 0c-.05-.03-.06-.08-.04-.15.36-.16.6-.4.74-.74a1.37 1.37 0 0 0-.47-1.67 1.36 1.36 0 0 0-1.16-.3c-.48.08-.83.36-1.06.82a1.8 1.8 0 0 0-.16.64c0 .01 0 .02-.02.03h-.05l-.02-.05a1.11 1.11 0 0 1 0-.34l.05-.22v-.02l-.02-.01a.94.94 0 0 0-.25-.12c-.37-.1-.75-.13-1.12-.09l-.02.02-.01.08c-.03.11-.17.48-.3.5-.05 0-.08-.02-.1-.09.15-.2.23-.4.24-.62.02-.39-.13-.7-.46-.93-.16-.12-.34-.2-.55-.23-.57-.08-1.16.2-1.35.76-.08.24-.07.5.03.74.06.15.17.3.28.42.02.03.02.05 0 .07a.04.04 0 0 1-.04.01.53.53 0 0 1-.16-.1 11.89 11.89 0 0 0-.14-.12c-.24.15-.48.33-.7.56-.02.01-.02.02 0 .03.1.07.2.15.28.24a4.11 4.11 0 0 1 .68.94c.46.02.93.1 1.42.28.86.29 1.62.71 2.27 1.26a4.03 4.03 0 0 1 .62.62.05.05 0 0 0 .04 0 .6.6 0 0 1 .48-.16c.04 0 .08.02.1.05.02 0 .02.02.02.03 0 .03-.01.04-.03.05a.59.59 0 0 0-.48.17.83.83 0 0 0-.23.36l-.07.28c0 .04-.03.05-.07.05-.04-.01-.07-.03-.07-.05a.41.41 0 0 1 0-.2c.03-.13.08-.25.14-.37a.12.12 0 0 0 .03-.05c0-.02 0-.03-.02-.05A6.36 6.36 0 0 0 6.5 6.84a.06.06 0 0 1-.01-.04c0-.03.04-.05.12-.06.03 0 .04-.03.02-.06-.1-.2-.26-.43-.44-.67-.1-.14-.22-.27-.37-.4l-.05.01a2.86 2.86 0 0 0 .3 4.18 2.95 2.95 0 0 0 1.5.66c.03 0 .04.02.06.03v.01c0 .1-.04.14-.12.13a30.65 30.65 0 0 1-.28-.02l.49.7.01.05c-.03.05-.1.03-.17-.06l-.25-.27a1.21 1.21 0 0 0-.3-.19.67.67 0 0 0-.5-.05.49.49 0 0 0-.32.24c-.26.44-.47.9-.61 1.37-.14.4-.2.85-.1 1.26a.4.4 0 0 0 .1.2c.1.1.23.17.38.2.4.05.8 0 1.2-.12l.71-.13a.01.01 0 0 0 .01-.01v-.01a9.54 9.54 0 0 0-.75-.67 2 2 0 0 0-.81-.38.03.03 0 0 1-.03-.02c0-.03 0-.07.04-.11l.23-.16.03-.02.16-.44.18-.2a.06.06 0 0 1 .06-.02s.02 0 .02.02l.02.02-.02.06a22.14 22.14 0 0 1-.26.51 1.98 1.98 0 0 1 1.54.22 5.49 5.49 0 0 1 .86.55.03.03 0 0 0 .02-.02c.14-.25.34-.43.61-.54.16-.06.3-.04.48-.03.57.01.81.58.76 1.08-.02.18-.15.28-.3.36a6.8 6.8 0 0 0-.29.18v.13c-.03.02-.06.02-.08 0l-.04-.05a.91.91 0 0 0-.61-.53c-.01 0-.02 0-.01.01l.2.32.06.22c0 .03-.02.06-.07.06l-.03-.01a.06.06 0 0 1-.03-.03l-.13-.29a3.2 3.2 0 0 0-1.14-1.03c-.3-.19-.56-.32-.76-.39a1.77 1.77 0 0 0-1.08-.02c-.05.01-.06.03 0 .05l.12.06a9.14 9.14 0 0 1 1.15.98c.37.38.68.8.85 1.34h-.2c-.08-.2-.16-.38-.25-.54-.09-.18-.2-.34-.33-.49-.08-.09-.32.04-.44.1a8.61 8.61 0 0 1-.78.19c-.24.03-.49.02-.81.02a.01.01 0 0 0 0 .01c.12.22.22.46.28.71l-.15-.01a9.73 9.73 0 0 0-.43-.7.4.4 0 0 0-.11-.11.68.68 0 0 1-.3-.39c-.1-.3-.07-.68 0-1l.21-.93c.08-.3.23-.6.45-.89l.17-.17c.15-.14.33-.2.52-.2.14 0 .34.07.44.1.01 0 .02 0 0-.02l-.1-.14a.34.34 0 0 0-.15-.09 3.07 3.07 0 0 1-1.96-3.4 3.13 3.13 0 0 1 .76-1.54c-.44-.1-.81 0-1.28.08a.43.43 0 0 1-.2-.02c-.17-.05-.2-.27-.15-.42a.44.44 0 0 1 .38-.32c.3-.05.69.08.92.28.03.03.05.07.05.12-.03 0-.08 0-.1-.03l-.3-.15c-.19-.07-.56-.13-.72.01-.08.07-.12.18-.1.3l.02.04a.2.2 0 0 0 .18.05c.27-.05.5-.08.67-.09a1.5 1.5 0 0 1 .57.07V5.4l-.18-.12.28.15a.04.04 0 0 0 .06 0c.22-.23.48-.42.77-.57v-.02c-.23-.47-.2-.91.1-1.31a1.45 1.45 0 0 1 1.82-.34c.44.23.68.6.71 1.12 0 .02.01.02.02.02.44-.1.92-.05 1.42.17.02 0 .03 0 .04-.02a1.64 1.64 0 0 1 2.55-.42 1.58 1.58 0 0 1 .3 2.01v.03a4.03 4.03 0 0 1-.13 4.19c-.4.56-.93.95-1.6 1.17-.03.01-.03.02 0 .03.24.03.38.13.6.3.17.14.28.34.33.58.08.4.04.78-.13 1.13-.1.22-.32.58-.63 1.08a4.64 4.64 0 0 0-.2.4l-.02.02h-.2Z" fill="#054404"/><path d="M8.5 3.41c.02.07.05.14.09.2a1 1 0 0 1 .1.16c.07.17.1.32.11.45.01.21-.04.42-.14.61v.04c.01.04.03.07.06.1.02.06.05.09.1.08.13-.02.27-.39.3-.5.36 0 .68.03.94.1.12.04.27.12.43.26-.02.1-.02.2 0 .34 0 .02 0 .04.02.05h.05l.02-.03c.02-.27.08-.48.15-.64.24-.46.6-.74 1.07-.82.44-.08.83.02 1.16.3.16.28.26.52.3.71.07.25.06.52-.03.8-.1.29-.26.51-.5.68a.22.22 0 0 0-.08.09c-.02.05 0 .1.04.13-.02.07-.01.12.04.15a.07.07 0 0 0 .08 0l.25-.15a5.43 5.43 0 0 1 .33 2c-.03.28-.06.6-.16.87-.06.15-.14.32-.24.5-.07.15-.18.3-.34.47a2.83 2.83 0 0 1-1.87.86c-.3.01-.58.01-.88-.04a5.96 5.96 0 0 0-.4-.04.07.07 0 0 0-.03.04c0 .03 0 .07.02.1a.2.2 0 0 0-.01.1s0 .02.02.03l.12.05.43.11c.23.14.43.28.6.42-.02.03-.03.05-.02.06a.06.06 0 0 0 .04.02.05.05 0 0 0 .04 0c.08-.07.17-.13.25-.18.16-.1.32-.16.49-.18.2.06.35.13.46.21.12.09.2.21.23.38.03.1.01.24-.04.41a5.71 5.71 0 0 1-.46 1.1c-.2.38-.38.78-.53 1.19H9.2a2.64 2.64 0 0 0-.4-.9 6.4 6.4 0 0 0-.62-.73c-.2-.2-.43-.38-.7-.52-.16-.1-.26-.15-.3-.16a.54.54 0 0 0-.34-.01l-.13-.06c-.05-.02-.04-.04 0-.05.37-.1.73-.1 1.1.02.2.07.44.2.75.39.28.17.58.38.8.6.1.12.22.26.34.43a1.92 1.92 0 0 0 .2.59.02.02 0 0 0 .03-.01c.04-.1.05-.2.03-.31l-.06-.22c.18.1.31.23.4.42.04.06.08.08.14.08h.03a.05.05 0 0 0 .02-.06l-.05-.2v-.12a6.6 6.6 0 0 1 .28-.18c.16-.08.3-.18.31-.36.05-.5-.2-1.07-.76-1.08-.18 0-.32-.03-.48.03a1.1 1.1 0 0 0-.62.55.03.03 0 0 1-.02 0h-.02a5.5 5.5 0 0 0-.83-.54 1.98 1.98 0 0 0-1.55-.22c-.01 0-.02 0 0-.02a22.14 22.14 0 0 0 .3-.55.07.07 0 0 0-.06-.04h-.03l-.02.02-.18.2a.39.39 0 0 0-.18.14c-.13.17-.21.33-.24.48-.04.04-.05.08-.04.1 0 .02.01.03.03.03.32.08.6.2.81.38a9.54 9.54 0 0 1 .74.69l-.71.13a6.68 6.68 0 0 0-.4-.07c-.2-.02-.33-.05-.4-.07a1.03 1.03 0 0 1-.66-.7 1.54 1.54 0 0 1-.05-.3 1.86 1.86 0 0 0-.07-.4c.14-.47.34-.93.61-1.37a.49.49 0 0 1 .32-.24c.1.04.19.08.28.1l.2.08.18.13.36.39c.04.04.1.08.17.04.05-.03.06-.09.03-.17l-.01-.05a.93.93 0 0 0 0-.36 3.74 3.74 0 0 0-.1-.45v-.01c0-.1-.04-.17-.12-.19-.35-.08-.66-.2-.93-.33a2.73 2.73 0 0 1-1.24-1.35 4.12 4.12 0 0 0-.27-.51c-.15-.95.08-1.78.71-2.49.02-.02.04-.02.05 0 .15.12.27.25.37.39.18.24.33.47.44.67.02.03.01.05-.02.06-.08 0-.12.03-.12.06a.06.06 0 0 0 .05.06c.6 0 1.16.11 1.68.32.32.19.64.36.96.53a6.39 6.39 0 0 1 1.47 1.13c.08.08.19.17.32.26-.06.12-.11.24-.14.38a.42.42 0 0 0 0 .19c0 .02.03.04.07.05.05.12.15.17.3.15a.07.07 0 0 0 .05-.07c0-.1-.02-.21 0-.32a.65.65 0 0 1 .26-.39 13.01 13.01 0 0 1 .23-.19v-.04c.03 0 .04-.02.04-.05l-.01-.03a.19.19 0 0 0-.1-.05.6.6 0 0 0-.5.15.05.05 0 0 1-.06 0 4.03 4.03 0 0 0-.59-.61A7.02 7.02 0 0 0 8.25 7a5.05 5.05 0 0 0-1.45-.3c-.17-.34-.4-.64-.65-.92-.09-.1-.19-.17-.29-.24v-.03c.23-.23.47-.41.71-.56h.03l.11.12.16.1a.04.04 0 0 0 .04 0c.02-.03.02-.05 0-.08-.11-.13-.22-.27-.28-.42-.1-.25-.1-.5-.03-.74.19-.56.78-.84 1.35-.76.2.03.39.1.55.23Z" fill="#64CD66"/><path d="M8.73 4.96a.17.17 0 0 1-.08-.09v-.04A1.14 1.14 0 0 0 8.6 3.6a.57.57 0 0 1-.09-.19c.33.23.48.54.46.93 0 .22-.09.43-.23.62Z" fill="#4DBA44"/><path d="m8.38 4.32-.04.14c-.15.38-.63.66-1 .42-.27-.17-.32-.5-.2-.78v-.04A.2.2 0 0 0 7.11 4a.03.03 0 0 1 0-.03.03.03 0 0 1 .03-.02h.1a26.98 26.98 0 0 1 1.48.28l.01.04v.01c0 .04-.03.06-.07.06l-.24-.04c-.02 0-.03 0-.04.02Z" fill="#054404"/><path d="M12.7 6.52c-.06-.04-.07-.08-.05-.13a.22.22 0 0 1 .08-.1 1.42 1.42 0 0 0 .54-1.47 3.37 3.37 0 0 0-.3-.71 1.37 1.37 0 0 1 .46 1.67c-.14.34-.38.58-.74.74Z" fill="#4DBA44"/><path d="M11.8 5.26c.06.03.16.04.29.02.28-.04.56-.07.84-.08.04 0 .06 0 .07.03v.03h-.02l-.91.16a.63.63 0 0 1-.26 0c-.2-.04-.34-.25-.4-.43a.04.04 0 0 1 .01-.04c.03-.02.05-.02.08.01l.05.04c.08.13.16.21.25.26Z" fill="#054404"/><path d="m5.37 5.23.04.05.18.12v.03s0 .01 0 0a1.5 1.5 0 0 0-.57-.07c-.17.01-.4.04-.67.09a.2.2 0 0 1-.18-.05.06.06 0 0 1-.02-.03c-.02-.13.02-.24.1-.31.16-.14.53-.08.72 0 .1.03.2.08.3.14.02.02.07.03.1.03Z" fill="#FDE70D"/><path d="M8.24 6.43c-.04-.07-.14-.17-.08-.24.02-.03.05-.03.1-.02.06.01.1.05.13.12a1.97 1.97 0 0 1 .07.4.04.04 0 0 1-.06.02.13.13 0 0 1-.05-.07l-.1-.21Z" fill="#054404"/><path d="M9.49 11.28a.11.11 0 0 1-.02-.1c0-.02.02-.03.03-.04.01-.01.03-.02.05-.01l.35.05a3.83 3.83 0 0 0 1.5-.07 2.83 2.83 0 0 0 1.25-.74c.16-.18.27-.33.35-.47l.23-.51c.1-.28.13-.59.16-.87a5.43 5.43 0 0 0-.33-2l.3-.3c.02 0 .03 0 .04.02.58 1.43.58 3.32-.67 4.43-.63.56-1.44.81-2.28.75a4.04 4.04 0 0 1-.82-.16c-.06-.01-.1-.01-.14.02Z" fill="#4DBA44"/><path d="m9.65 6.69-.55.19c-.03-.05-.03-.09.01-.12l.19-.14c.17-.11.29-.09.35.07Z" fill="#054404"/><path d="M9.65 6.69c.04.03.05.07.03.12-.05.14-.4.15-.51.13-.04-.01-.06-.03-.07-.06l.55-.19ZM10.98 9.1c-.14-.09-.25-.18-.33-.26a2.8 2.8 0 0 0-.44-.4 6.4 6.4 0 0 0-1.03-.73c-.32-.17-.64-.34-.96-.53l.18.05A6.36 6.36 0 0 1 11 9.05l-.02.05ZM7.63 10.49l-.05-.03a2.95 2.95 0 0 1-2.51-2.35l.13.25.13.26a2.91 2.91 0 0 0 .86 1.1c.13.1.26.19.38.25.27.14.58.25.93.33.08.02.13.08.13.19ZM11.75 8.86v.04l-.01.02-.02.01-.2.16a.65.65 0 0 0-.27.4c-.02.1 0 .22 0 .31a.07.07 0 0 1-.06.07c-.14.02-.23-.03-.29-.15.04 0 .07-.01.07-.05l.07-.28a.83.83 0 0 1 .23-.36c.14-.13.3-.19.48-.17ZM7.72 11.3l-.49-.7.01-.01.27.04c.08.01.12-.03.12-.13l.1.45c.01.13.01.24-.01.36ZM7.73 11.36c.03.08.02.14-.03.17-.06.04-.13 0-.17-.04-.17-.18-.3-.3-.36-.39a.63.63 0 0 0-.18-.13 1.12 1.12 0 0 0-.2-.08c-.09-.02-.18-.06-.28-.1a.67.67 0 0 1 .5.05c.16.08.26.15.3.2l.25.26c.08.1.14.11.17.06ZM10.64 12a3.87 3.87 0 0 0-.6-.43l.34.03a4.32 4.32 0 0 0 .7 0l-.18.12a.9.9 0 0 0-.26.27ZM11.5 15h-.39c.15-.41.33-.81.53-1.2.14-.24.23-.42.27-.52.06-.15.13-.34.2-.57a.85.85 0 0 0 .03-.41.63.63 0 0 0-.23-.38c-.11-.08-.27-.15-.46-.21.3-.05.5.04.72.23.07.06.13.12.16.17.2.3.2.8.08 1.12-.05.13-.15.33-.3.6l-.4.66a2 2 0 0 0-.22.51ZM6.75 11.99l-.16.44-.03.02-.23.16c.03-.15.1-.31.24-.48a.39.39 0 0 1 .18-.14ZM5.58 12.4c.04.13.06.26.07.4.01.14.03.24.05.3.1.35.33.58.66.7.07.02.2.05.4.07l.4.07c-.4.13-.8.17-1.2.11a.64.64 0 0 1-.38-.19.4.4 0 0 1-.1-.2c-.1-.41-.04-.85.1-1.26ZM9.2 15h-.37c-.2-.5-.48-.96-.85-1.35a9.12 9.12 0 0 0-1.15-.97.54.54 0 0 1 .35.01l.3.16c.26.14.5.32.7.52.2.2.4.45.6.73.19.25.33.56.41.9Z" fill="#4DBA44"/><path d="M9.82 13.57a.07.07 0 0 1-.04-.04c-.11-.15-.25-.27-.42-.35.2-.27.47-.47.8-.43.14.01.24.04.32.06.1.04.18.12.25.25a.5.5 0 0 1 .07.17v.39a.3.3 0 0 1-.06.14c-.03.04-.05.03-.05-.01a.58.58 0 0 0-.3-.46.23.23 0 0 0-.13-.04c-.11.01-.12.05-.02.12.13.08.23.17.27.32.03.1.02.24-.1.27-.04 0-.08-.01-.1-.06-.1-.17-.19-.28-.25-.33-.09-.07-.17-.07-.24 0Z" fill="#64CD66"/><path d="M9.36 13.18c.17.08.3.2.41.35l.05.04c0 .02-.02.03-.04.03l-.16-.05a.3.3 0 0 1-.13-.07l-.19-.2v-.03l.06-.07ZM10.43 14.3l.05.2v.02a.05.05 0 0 1-.02.03h-.03c-.06.01-.1 0-.13-.07a.95.95 0 0 0-.4-.42l-.21-.32v-.01c.3.09.5.26.62.53l.04.05c.02.02.05.02.08 0Z" fill="#4DBA44"/><path d="M8.64 15H6.3a2.62 2.62 0 0 0-.28-.72c.32 0 .57.01.81-.03a8.68 8.68 0 0 0 .78-.19c.12-.05.36-.18.44-.09.13.15.24.31.33.49.09.16.17.35.26.54Z" fill="#64CD66"/><path d="m9.69 14.01.13.3a.06.06 0 0 0 .06.03c.05 0 .07-.03.07-.06.02.1 0 .21-.03.3a.02.02 0 0 1-.05 0 1.93 1.93 0 0 1-.18-.57Z" fill="#4DBA44"/></svg>