<!-- by TradingView --><svg width="18" height="18" viewBox="0 0 18 18" xmlns="http://www.w3.org/2000/svg"><path fill="url(#al1gzb5kn)" d="M0 0h18v18H0z"/><path fill-rule="evenodd" d="m6.07 5.68 1.36-1.6A.23.23 0 0 1 7.6 4h2.8c.06 0 .13.03.17.09l1.36 1.59c.04.05.07.13.07.2v1.06h-1.5v-.46c0-.16-.05-.3-.15-.42l-.4-.47a.23.23 0 0 0-.18-.09H8.23a.23.23 0 0 0-.18.09l-.4.47a.64.64 0 0 0-.15.42v5.04c0 .16.05.3.15.42l.4.47c.05.06.11.09.18.09h1.54c.07 0 .13-.03.18-.09l.4-.47c.1-.11.15-.26.15-.42V10H9v-.56h3v2.97c0 .08-.03.15-.07.2l-1.1 1.3a.23.23 0 0 1-.18.09h-3.3a.23.23 0 0 1-.17-.09l-1.1-1.3a.32.32 0 0 1-.08-.2v-2.09h.5v-.14H6v-.74h.5V9.3H6v-.73h.5V8.4H6v-.73h.5v-.15H6V5.9h1.5v-.15H6.02a.3.3 0 0 1 .05-.08ZM12 9.29V9H9v.3h3Zm-4 3.53h2.5v.15H8v-.15Zm2.75-8.23h-2.5v.14h2.5V4.6Zm.75 5.59h-.75v.14h.75v-.14Z" fill="#84FAA2"/><defs><linearGradient id="al1gzb5kn" x1="3.35" y1="3.12" x2="21.9" y2="24.43" gradientUnits="userSpaceOnUse"><stop stop-color="#1A1E21"/><stop offset="1" stop-color="#06060A"/></linearGradient></defs></svg>