<!-- by TradingView --><svg width="18" height="18" viewBox="0 0 18 18" xmlns="http://www.w3.org/2000/svg"><path fill="url(#a)" d="M0 0h18v18H0z"/><circle cx="9" cy="9" r="5" fill="url(#b)"/><path d="m6.7 5.7.03.02.13.1.09.07.05.05.11.1.08.08.08.1.1.1c.2-.14.42-.23.66-.28l.15-.02c.26-.02.49.03.73.1h.16l.26-.07.17-.03H9.8a1.66 1.66 0 0 1 .84.3c.19-.23.4-.44.65-.6.07-.06.15-.1.23-.12a.48.48 0 0 1 .34 0 .48.48 0 0 1 .22.21l.03.06.06.16.07.33.03.17.02.13.02.2v.09a624.33 624.33 0 0 0 .08 1.3c0 .03 0 .05.03.07.24.22.38.47.31.8l-.02.14-.04.16-.04.15-.07.2-.1.3-.13.32-.07.15c-.07.17-.16.34-.25.5l-.1.14v.02l-.1.13-.06.06-.12.1c-.1.18-.2.35-.33.52l-.03.04-.1.1-.05.06-.12.1-.06.05c-.15.12-.3.21-.48.29l-.16.06a5.8 5.8 0 0 0-.2.07 1.31 1.31 0 0 1-1.04.26h-.18l-.18.02c-.3 0-.56-.1-.8-.27a2.52 2.52 0 0 1-.56-.23l-.1-.07a2.26 2.26 0 0 1-.7-.7l-.05-.1-.1-.18a4.61 4.61 0 0 1-.5-.66l-.06-.12a6.95 6.95 0 0 1-.4-.98l-.05-.17-.04-.15a3.38 3.38 0 0 1-.08-.33.75.75 0 0 1 .08-.48 1.38 1.38 0 0 1 .27-.34l.06-1.11.01-.17.02-.17.01-.14.02-.17.03-.15c.01-.12.04-.23.07-.34l.05-.13a.67.67 0 0 1 .13-.22c.2-.2.48-.11.69.03Z"/><path d="M7.07 6.63a.39.39 0 0 0-.2-.16 1.58 1.58 0 0 0-.43-.06l-.02.02a.2.2 0 0 0-.02.08v.27a21.08 21.08 0 0 1 .05.5l-.15.14a.5.5 0 0 0-.08.1A9.66 9.66 0 0 1 6 6.16v-.21a.42.42 0 0 1 .1-.2l.06-.08c.37-.16.94.46 1.14.7v.02l-.23.23ZM11.87 5.7c.07.06.1.13.12.21l.02.21a8.3 8.3 0 0 1-.23 1.39 7.38 7.38 0 0 1-.22-.24v-.06c0-.18.06-.47.04-.7a.22.22 0 0 0-.02-.08.04.04 0 0 0-.04-.02c-.14 0-.28.02-.41.06a.37.37 0 0 0-.2.16l-.23-.23v-.01c.2-.24.82-.93 1.17-.69Z" fill="#FF9C00"/><path d="m6.16 5.68-.06.08a.42.42 0 0 0-.1.2v.2L6 6.4l.04.28c.05.29.1.57.17.84l-.05.09-.16.24a1.55 1.55 0 0 1-.3.35l.01-.32.05-.86a6 6 0 0 1 .1-.75c.04-.19.12-.49.3-.58ZM11.78 7.51A8.3 8.3 0 0 0 12 6.12l-.02-.2a.34.34 0 0 0-.12-.22c.08.07.14.15.17.25.06.15.1.3.12.48.03.2.06.4.07.6a237.77 237.77 0 0 1 .07 1.16 1.83 1.83 0 0 1-.32-.37l-.2-.3Z" fill="#C37601"/><path d="M12.62 9.06a.52.52 0 0 0-.27.03c-.1.04-.2.1-.3.18l-.31.27c-.2.16-.42.25-.67.18l-.17-.06a1.37 1.37 0 0 0-.4-.08.68.68 0 0 0-.5.18.93.93 0 0 0-.19.24.5.5 0 0 0-.23-.15 1.53 1.53 0 0 0-.52-.05h-.14c-.19 0-.41 0-.58.09a.48.48 0 0 0-.15.11.91.91 0 0 0-.23-.27c-.25-.2-.58-.17-.86-.07l-.17.06c-.2.06-.4 0-.57-.1-.25-.18-.44-.42-.71-.53a.53.53 0 0 0-.27-.03.6.6 0 0 1 .03-.3c.03-.1.1-.2.18-.28.14-.14.36-.33.5-.53l.08-.14.17-.24c.03-.06.11-.13.15-.17l.93-.94c.03-.04.08-.07.13-.1.3-.19.62-.26.97-.2.13.01.28.05.41.09.06.01.14 0 .21-.02l.27-.07a1.43 1.43 0 0 1 1.18.3l1 1.02.08.1c.1.13.18.27.27.41l.16.19.28.27c.05.04.09.1.13.16.1.14.13.3.1.45Z" fill="#F6A200"/><path d="m7.07 6.63-.62.64-.01-.1a21.17 21.17 0 0 0-.04-.66.2.2 0 0 1 .02-.08.04.04 0 0 1 .04-.02c.14 0 .27.02.4.06.09.02.16.08.21.16ZM11.55 7.27l-.62-.64a.38.38 0 0 1 .2-.16 1.48 1.48 0 0 1 .43-.06l.02.02.02.09c.02.22-.03.51-.04.69v.06ZM8.49 8.14c-.1-.03-.23-.05-.4-.06-.36-.01-.73.01-1.06.02-.14 0-.26 0-.36-.02-.07-.01-.14-.04-.17-.1a.03.03 0 0 1 0-.03c.13-.12.23-.25.3-.4l.11-.23c.08-.14.17-.2.33-.15l.16.08a13.63 13.63 0 0 0 .88.48c.11.1.18.26.23.4v.02h-.02ZM9.51 8.14H9.5c.06-.15.12-.3.23-.41.06-.06.15-.11.23-.15a4.95 4.95 0 0 0 .81-.4c.16-.06.26 0 .33.14l.11.23a1.27 1.27 0 0 0 .3.41v.02c-.03.06-.1.09-.16.1-.11.02-.23.02-.36.02-.34 0-.7-.03-1.06-.02-.17 0-.31.03-.4.06Z" fill="#fff"/><path d="M7.24 8.48c.08-.1.19-.15.33-.12.24.03.46.19.52.43l.02.04a5.95 5.95 0 0 1 .23.26l-.28.01c-.05 0-.07.01-.12.03a.82.82 0 0 1-.5.04c-.16-.03-.25-.18-.26-.34 0-.01 0-.02-.02-.03a1.88 1.88 0 0 0-.48-.3h.01a2.45 2.45 0 0 1 .54-.01h.01ZM10.77 8.49h.16a2.44 2.44 0 0 1 .39.02c-.18.06-.32.17-.48.29l-.02.03c-.01.16-.1.3-.25.34a.82.82 0 0 1-.5-.04c-.06-.02-.08-.03-.13-.03a2.55 2.55 0 0 1-.29-.02 5.95 5.95 0 0 1 .26-.3c.06-.23.28-.39.52-.42.14-.03.25.02.33.12h.01Z"/><path d="M8.19 10a.68.68 0 0 0 .3.68 2.76 2.76 0 0 0 .46.24v.3c0 .08-.12.16-.18.19a.47.47 0 0 1-.17.03l-.2.01-.2-.01a29.53 29.53 0 0 1-.35-.12c-.1-.13-.2-.2-.33-.28H7.5l.14.27v.02l-.02.13v.01H7.85l-.02.17h.01l.12-.05a.01.01 0 0 1 .01 0l.06.3c0 .02 0 .02.01 0l.1-.24h.45a47.98 47.98 0 0 1 .37.14c.08 0 .16 0 .24-.04a40.06 40.06 0 0 0 .27-.1H9.87l.1.24c0 .02 0 .02.01 0l.06-.3h.01l.12.06.01-.01-.02-.16v-.01H10.38v-.01l-.02-.13v-.02l.14-.26c0-.01 0-.01 0 0-.14.07-.25.15-.34.27-.02.02-.16.06-.3.1a.55.55 0 0 1-.2.03 8.84 8.84 0 0 0-.42-.04c-.06-.03-.17-.11-.17-.18a15.3 15.3 0 0 0 0-.32c.16-.06.32-.14.46-.24.06-.03.1-.07.15-.12A.68.68 0 0 0 9.8 10c.05-.1.12-.17.2-.24.13-.12.3-.18.49-.18.13 0 .27.03.4.08l.18.06c.24.07.47-.02.66-.18l.32-.27c.09-.08.19-.13.29-.18a.52.52 0 0 1 .27-.03 6.02 6.02 0 0 1-.85 2.12.43.43 0 0 1-.11.13l-.7.53a4.38 4.38 0 0 0-.7.65c-.26.24-.57.44-.93.45l-.2-.02-.35.01a.95.95 0 0 1-.37-.03 1.82 1.82 0 0 1-.75-.49l-.37-.37-.34-.27-.63-.48a6.35 6.35 0 0 1-.94-2.22c.1-.02.18 0 .27.02.27.1.46.35.7.52.18.12.37.17.58.1l.17-.05c.28-.1.62-.13.86.07.1.07.17.16.23.27Z" fill="#fff"/><path d="M7.14 12.08a7.46 7.46 0 0 1 .45.45 2.13 2.13 0 0 1-.95-.84c.16.11.34.25.5.4ZM10.95 12.19a2.13 2.13 0 0 1-.54.34 7.38 7.38 0 0 1 .95-.84c-.11.2-.25.36-.4.5Z" fill="#F6A200"/><defs><linearGradient id="a" x1="3.35" y1="3.12" x2="21.9" y2="24.43" gradientUnits="userSpaceOnUse"><stop stop-color="#1A1E21"/><stop offset="1" stop-color="#06060A"/></linearGradient><linearGradient id="b" x1="9.94" y1="4.63" x2="5.88" y2="11.81" gradientUnits="userSpaceOnUse"><stop stop-color="#8B0100"/><stop offset="1" stop-color="#0D0000"/></linearGradient></defs></svg>