<!-- by TradingView --><svg width="18" height="18" viewBox="0 0 18 18" xmlns="http://www.w3.org/2000/svg"><path fill="#F0F3FA" d="M0 0h18v18H0z"/><path d="M11.52 3.68c.04.03.1.04.19.03.17-.01.37-.06.48.11l.12.22c.1.18.3.16.48.18.37.03.18.52.56.59.15.03.38.07.41.25.03.16.04.37.2.45.07.04.15.08.23.1.22.09.2.33.19.5-.01.34.54.28.45.66-.02.1-.03.22-.03.32 0 .02-.01.03-.03.02l-.2-.1A5.87 5.87 0 0 0 3.88 6.6l-.02.02h-.02c-.14.05-.26.1-.36.18-.06.05-.08.03-.08-.04a14.21 14.21 0 0 0 .04-.17.26.26 0 0 1 .06-.08c.07-.05.13-.1.2-.13.18-.1.19-.28.17-.45-.02-.24.17-.3.36-.37.18-.07.22-.25.24-.42.02-.23.2-.28.4-.31.24-.04.28-.27.35-.44.14-.31.55-.02.74-.37.11-.23.19-.37.5-.3.13.04.3-.01.4-.14a.98.98 0 0 1 .2-.22c.09-.07.37.01.48.04.16.03.32-.14.43-.24.13-.12.3-.05.44.03.13.07.27.06.39-.02l.24-.14c.26-.12.42.33.75.17.12-.06.21-.09.3-.1.13-.03.3.15.4.23.24.2.5-.12.71.04.13.1.2.24.32.32Z" fill="#0D38A0"/><path d="M14.07 6.63a.14.14 0 0 1-.06-.03.06.06 0 0 1-.03-.03c0-.06-.01-.12-.04-.17A5.5 5.5 0 0 0 9.2 3.69a5.59 5.59 0 0 0-4.69 2.4.34.34 0 0 0-.05.14c0 .01 0 .02-.02.03a.13.13 0 0 1-.08.04l-.03.02v.11c0 .02 0 .03-.03.04l-.13.07c-.02.01-.03 0-.03-.01v-.14c0-.02.01-.04.04-.05l.08-.05a.03.03 0 0 0 .02-.01.03.03 0 0 0 0-.03c-.07-.08.04-.14.08-.2a5.55 5.55 0 0 1 1.5-1.5 5.7 5.7 0 0 1 3.27-.99 5.66 5.66 0 0 1 5.01 2.9c.04.06.05.09.02.14v.03l.1.07v.02l.01.01v.14c0 .02-.02.02-.03.02-.12-.06-.17-.12-.14-.2a.04.04 0 0 0 0-.04l-.01-.01-.02-.01Z" fill="#DF7E24"/><path d="M9.7 5.19a3.99 3.99 0 0 0-4.23 2.28c-.03.03-.03.02-.04 0-.03-.52-.47-.88-.98-.95h-.01a.02.02 0 0 1 0-.02A5.29 5.29 0 0 1 6.9 4.3c1.8-.8 3.91-.56 5.5.6.67.5 1.27 1.2 1.6 1.97.01.02 0 .03-.01.02a7.66 7.66 0 0 0-1.57-.1A4.07 4.07 0 0 0 9.69 5.2Z" fill="#0D38A0"/><path d="M8.81 4.55c-.03 0-.04.01-.04.04v.11a.06.06 0 0 0 .03.04.06.06 0 0 0 .05.02h.05c.06.04.05.06-.02.06a5.46 5.46 0 0 0-.52.03v-.03l.03-.01c.06 0 .08-.04.08-.1a8.29 8.29 0 0 0-.05-.37c0-.03-.02-.04-.05-.03h-.06c-.08-.03-.08-.06 0-.07.29-.05.55-.06.8-.04.1.01.19.05.25.13a.07.07 0 0 1 0 .1c-.13.12-.38.13-.55.12ZM9.97 4.66c-.04.1-.07.18.09.22a.02.02 0 0 1 0 .03c0 .02-.02.03-.04.02a5.7 5.7 0 0 0-.54-.1.02.02 0 0 1 .01-.03h.01l.08-.01.04-.02.01-.03.06-.37c0-.02 0-.04-.02-.05a.07.07 0 0 0-.04-.03l-.07-.01-.01-.02v-.02a.02.02 0 0 1 0-.02.02.02 0 0 1 .02 0c.26.02.51.07.76.14.09.02.24.1.27.2v.07a.1.1 0 0 1-.06.04c-.17.07-.37.03-.54-.03-.02 0-.03 0-.03.02Z" fill="#DFDEDE"/><path d="m8.75 4.29.01-.02.02-.01h.06a.2.2 0 0 1 .12.02c.03.02.05.05.05.08v.05l-.04.04a.18.18 0 0 1-.05.03.22.22 0 0 1-.06.01H8.8a.03.03 0 0 1-.02 0 .03.03 0 0 1-.01-.02l-.02-.18Z" fill="#0D38A0"/><path d="M8.09 4.84h.08c.02 0 .03.01.03.03v.01c-.01.02-.02.03-.05.04-.15.02-.3.06-.44.1-.02.01-.03 0-.04-.01v-.02l.08-.07c.02-.01.02-.03.02-.04l-.11-.35a.09.09 0 0 0-.04-.05.1.1 0 0 0-.07 0h-.04c-.02 0-.03 0-.03-.02v-.03l.03-.01.54-.14c.02 0 .03 0 .04.02v.01a.01.01 0 0 1 0 .01v.01a.25.25 0 0 0-.1.06.04.04 0 0 0-.02.04l.09.38c0 .02.01.03.03.03Z" fill="#DFDEDE"/><path d="m10.03 4.38.01-.02h.07l.07.03a.2.2 0 0 1 .05.04l.02.04v.05c0 .04-.03.06-.07.07a.24.24 0 0 1-.13 0h-.04a.04.04 0 0 1-.02-.02.04.04 0 0 1 0-.03l.04-.16Z" fill="#0D38A0"/><path d="M7.03 4.99c0-.01-.02-.02-.03-.01l-.38.2-.01.01v.02c.04.08.1.2.2.13a.04.04 0 0 1 .05.01v.01a.01.01 0 0 1 0 .01.01.01 0 0 1 0 .01l-.44.28H6.4v-.03a.2.2 0 0 1 .04-.05.07.07 0 0 0 0-.09l-.22-.3a.05.05 0 0 0-.07-.01.18.18 0 0 1-.1.01c-.03 0-.03 0 0-.03.16-.12.32-.23.5-.32l.02.01v.02l-.08.09c-.02.01-.02.03 0 .04l.07.12c0 .01.02.02.03 0l.38-.19.01-.02V4.9l-.06-.12a.04.04 0 0 0-.04-.02.2.2 0 0 0-.09.02.02.02 0 0 1-.02 0l-.01-.01c-.02-.02-.02-.03 0-.04l.54-.23h.02v.01a.03.03 0 0 1 0 .05l-.09.06v.03l.15.37c0 .02.01.02.03.02h.11c.02 0 .02.02.02.03 0 .02-.01.03-.02.03a3.57 3.57 0 0 0-.48.19l-.01-.02v-.02l.07-.06a.04.04 0 0 0 0-.05l-.06-.14ZM11.82 5.35c-.04.08-.14.12-.28.12a1.08 1.08 0 0 1-.64-.25.76.76 0 0 1-.14-.15.4.4 0 0 1-.07-.16c0-.05 0-.1.02-.14.05-.07.15-.12.28-.12.14 0 .3.04.44.11.08.04.14.09.2.14l.15.15.06.16c.01.05 0 .1-.02.14Z" fill="#DFDEDE"/><path d="m11.46 4.86-.05-.04a.25.25 0 0 0-.34.05l-.04.04c-.08.1-.06.25.05.33l.06.04c.1.08.26.06.34-.04l.03-.05a.23.23 0 0 0-.05-.33Z" fill="#0D38A0"/><path d="M11.91 6.67c-.11-.23-.2-.44-.47-.46l-.36-.23a3.78 3.78 0 0 0-4.6.54c-.21.22-.38.62-.28.93a.02.02 0 0 1 0 .02l-.01.01h-.02a.24.24 0 0 1-.17-.1c-.02-.03-.04-.03-.04.02-.03.26.03.55.3.67.07.03.07.05 0 .06-.32.05-.52-.06-.6-.34-.07-.29.14-.7.32-.93a3.96 3.96 0 0 1 5.94-.4c.07.01.1.06.08.12l.01.04.09.04.03.01.01.03.03.14c0 .03 0 .04-.03.03l-.1-.04A.07.07 0 0 1 12 6.8L12 6.78a.15.15 0 0 0-.08-.11Z" fill="#DF7E24"/><path d="M11.44 6.21c.27.02.36.23.47.46l.05.3c-.03.07-.03.12 0 .17l-.02.15c0 .2-.04.4-.12.6a.92.92 0 0 0-.22-.26c-.1-.07-.2-.16-.3-.22l-.17-.08a.83.83 0 0 1-.29-.37 3.11 3.11 0 0 1-.17-.55c0-.05-.03-.09-.05-.13l.01-.02h.02c.27.02.56.05.8-.05Z" fill="#D9BD9E"/><path d="m10.62 6.28.05.13c.04.18.1.36.17.55.07.16.16.28.29.37.05.14.1.24.15.28a5.23 5.23 0 0 1 .49.42l.02-.02c.08-.01.17-.12.23-.18l.02-.04L12 7.6c0-.04 0-.08.04-.1.08-.07.15-.15.2-.23l.02-.14c0-.02 0-.02-.02-.02l-.3.03c-.02-.05-.01-.1.01-.16l.5-.04c-.11.08-.15.16-.13.23 0 .02.02.02.04.01l.03-.02h.04a.2.2 0 0 0 .13-.03c.07.04.13.02.17-.04.08-.06.14-.06.2 0-.01.05 0 .1.05.15h-.08c0-.03-.02-.05-.05-.05h-.03v.11c.02.02.01.05 0 .06-.03.03-.03.04 0 .05.17.03.2.23.1.34-.03.05-.08.08-.08.15a.67.67 0 0 1-.1.27l-.04.02-.25-.04-.04-.02-.07-.07a.03.03 0 0 0-.03 0 .57.57 0 0 0-.24.21l-.01.04v.05c0 .02 0 .03-.02 0a.82.82 0 0 0-.26-.3l-.01-.02h-.02l-.02.01c-.1.2-.23.37-.4.55-.11.12-.25.19-.42.16a.77.77 0 0 0-.21 0c-.22.02-.41.02-.6 0-.04 0-.04 0 0 .03.14.1.47.06.62.03.06-.01.07 0 .03.05-.18.2-.42.25-.68.27-.36.03-.59-.14-.8-.38h-.03v.01c.2.26.43.43.78.44.12 0 .3-.04.53-.13a1.1 1.1 0 0 1-.26.35c-.24.22-.45.4-.63.54l-.22.04a.45.45 0 0 1-.16-.06c0-.03.02-.03.06-.02l.01.01v.02l.03.02c.01 0 .03 0 .04-.02a.12.12 0 0 1 .05-.05l.03-.02a.54.54 0 0 0 .02-.29s0-.02-.02-.03l-.03-.02c-.1-.02-.27-.12-.35 0l-.1.1a.33.33 0 0 0-.1.11c-.06-.02-.1 0-.12.04a.64.64 0 0 1-.58.34.45.45 0 0 0-.13.06.32.32 0 0 1-.09.05c-.05.01-.09-.01-.1-.07-.02-.1 0-.22.07-.37l.18-.03.03.01c.05.05.1.09.18.08.1-.01.2-.02.25-.1l.2-.24c.05-.05.07-.12.1-.18 0-.01 0-.02.02-.02l.03-.01c.09.01.26.04.34 0a.2.2 0 0 1 .1-.02c.02 0 .02 0 .02-.02H9.4l.01-.01v-.02a1.24 1.24 0 0 1-.13-.14.45.45 0 0 0-.17-.1 7.57 7.57 0 0 1-.7-.26 25.43 25.43 0 0 0-.24-.03 1.6 1.6 0 0 1-.29-.32c-.07-.12-.07-.27-.01-.45.08-.11.16-.21.25-.3.1-.11.21-.24.14-.4.08-.04.11-.1.1-.15.15-.08 0-.23-.07-.3h-.02v.04l.06.1c.02.03.01.04-.02.03l-.05-.02h-.02v.03l.09.11v.02l-.03.01a1.4 1.4 0 0 1-.43-.08.07.07 0 0 1-.03-.03.37.37 0 0 1-.06-.24c0-.07.05-.14.13-.15.12 0 .23 0 .33.02.15.02.21.14.25.27l.01.01a.05.05 0 0 0 .04.02l.02-.01.24-.16a.26.26 0 0 0 .1-.1c.06-.15.12-.28.26-.37h.04l.28.17c.1.05.2.03.29-.03a.06.06 0 0 1 .08.02l.14.2a.41.41 0 0 1-.16-.16.04.04 0 0 0-.03-.02.05.05 0 0 0-.04 0 .28.28 0 0 1-.2.05.6.6 0 0 1-.37-.23l-.01.01-.01.02v.03c.14.1.36.33.33.5 0 .01 0 .02.02.03.06.06.14.08.22.05.02 0 .03 0 .03.02v.06l.01.02h.04a.32.32 0 0 1 .13-.09c.05 0 .1-.01.14-.05a.25.25 0 0 0 .07-.06c.03-.05.09-.07.16-.06.02 0 .03 0 .03.02 0 .03.02.04.05.02.07-.04.11-.09.15-.16v-.04c0-.04-.02-.05-.05-.05-.01 0-.02.01-.02.03 0 .07-.02.13-.07.16-.03.02-.04.02-.03-.02l.04-.07v-.04c-.01-.05 0-.08.03-.13.05-.05.1-.11.13-.18l.03-.04Z" fill="#AB8E6E"/><path d="M11.52 6.54c.07.03.15 0 .18-.07.02-.06-.02-.13-.1-.16-.07-.03-.15 0-.18.07-.02.06.02.13.1.16Z" fill="#451A02"/><path d="M10 6.67a.4.4 0 0 1 .25 0l-.29.28a.32.32 0 0 0-.13.08.04.04 0 0 1-.04.01v-.08c-.01-.02-.02-.02-.04-.02a.22.22 0 0 1-.23-.05v-.03c.02-.17-.2-.4-.33-.5l-.01-.02v-.03a.01.01 0 0 1 .02 0c.11.12.23.2.37.22.07.01.14 0 .2-.04a.05.05 0 0 1 .07.01c.04.08.1.13.16.17Z" fill="#D9BD9E"/><path d="M10.6 6.32c-.04.07-.09.13-.14.18-.03.05-.04.08-.03.13v.04l-.04.07c-.01.04 0 .04.03.02.05-.03.08-.09.07-.16 0-.02 0-.03.02-.03.03 0 .04.01.05.05v.04a.39.39 0 0 1-.15.16c-.03.02-.04.01-.05-.02 0-.01-.01-.02-.03-.02-.07 0-.13.01-.16.06a.25.25 0 0 1-.07.06.25.25 0 0 1-.14.05l.3-.27a1.61 1.61 0 0 0 .28-.36c.03-.02.04-.02.05 0Z" fill="#835A37"/><path d="M11.07 6.55c-.03.12-.15.12-.23.06-.07-.04-.07-.12-.06-.18.01-.04.03-.05.07-.05.09.02.16.06.21.13a.05.05 0 0 1 0 .04Z" fill="#451A02"/><path d="M7.53 7.99c-.15.12-.3.22-.45.28-.4.13-.82.24-1.22.34-.44.1-.89.15-1.34.13-.63-.02-1.32-.3-1.41-.96a1 1 0 0 1 .68-1.08c.3-.1.7-.07.98.06.35.16.6.52.5.9a.49.49 0 0 1-.36.35c-.02 0-.03 0-.02-.02.18-.61-.36-1.1-.99-.94-.4.1-.55.52-.46.89.15.66 1.34.67 1.85.6a.02.02 0 0 0 .01 0 .01.01 0 0 0 0-.02.32.32 0 0 1 0-.22c0-.02.01-.02.02 0 .26.22.69.13 1 .04L7.53 8Z" fill="#DF7E24"/><path d="M8.37 7.1h-.03l-.1-.12v-.03h.02l.06.02c.03 0 .04 0 .02-.03a.83.83 0 0 1-.06-.1v-.03c0-.02 0-.02.02-.01.07.07.22.22.07.3ZM9.2 6.83a.1.1 0 0 0 .09.01l.04.01c.03.04.05.08.05.12 0 .02-.01.03-.03.04-.08.04-.14.02-.18-.05a.1.1 0 0 1 .01-.13.01.01 0 0 1 .02 0Z" fill="#451A02"/><path d="M12.66 6.96c-.02.04-.07.06-.13.07l-.03.01c-.02.03 0 .05.03.06 0 .02.01.03.04.03a.2.2 0 0 1-.13.02l-.04.01-.03.02c-.02.01-.03 0-.04-.01-.02-.07.02-.15.13-.23.04-.02.11-.02.2.02Z" fill="#BCAA78"/><path d="M12.67 6.96c.33-.02.67 0 1 .04.5.07 1.08.24 1.33.7v.01c0 .02-.01.02-.02 0-.18-.2-.4-.34-.66-.43-.44-.14-.9-.2-1.39-.19-.05-.06-.11-.06-.2 0a.44.44 0 0 0-.2.01c-.04-.01-.05-.03-.03-.06l.03-.01c.06 0 .1-.03.14-.07Z" fill="#DF7E24"/><path d="M8.83 7.26c-.06 0-.11-.04-.16-.1v-.04c-.02-.07.01-.1.09-.1a1.16 1.16 0 0 1 .5.13.04.04 0 0 1 0 .05l-.09.07a36.54 36.54 0 0 0-.34 0Z" fill="#BCAA78"/><path d="m12.25 7.27-.3.02v-.15l.3-.03c.02 0 .02 0 .02.02l-.02.14Z" fill="#DFDEDE"/><path d="M3.58 7.46c.18-.2.42-.28.69-.25.03 0 .03.01 0 .01-.28.03-.56.08-.7.35 0 .03-.02.05-.04.08-.01.02-.02.02-.02 0 0-.08.03-.14.07-.2Z" fill="#AB8E6E"/><path d="M12.82 7.24H13c.32 0 .63.03.93.1.41.08.74.25 1 .57v.02h-.02a1.95 1.95 0 0 0-.52-.3v.01c.2.11.37.25.5.4.09.1.08.1-.02.03-.16-.12-.3-.23-.5-.3v.02a2.16 2.16 0 0 1 .57.46h-.03a2.27 2.27 0 0 0-.52-.3v.02a1.84 1.84 0 0 1 .54.45h-.02a1.79 1.79 0 0 0-.54-.32v.01a1.93 1.93 0 0 1 .56.47.02.02 0 0 1-.03 0 1.72 1.72 0 0 0-.5-.31c-.02.01-.01.02 0 .02.2.1.36.25.5.42.02 0 .01.02 0 .02v.01h-.01a1.7 1.7 0 0 0-.48-.31h-.02v.01c.2.12.38.26.52.44l-.01.02h-.02a1.67 1.67 0 0 0-.48-.31v.01c.2.12.35.25.49.42.05.06.04.06-.02.02l-.14-.1a1.9 1.9 0 0 0-.34-.2v.02c.09.05.18.1.25.17a2.68 2.68 0 0 1 .28.29h-.03a1.77 1.77 0 0 0-.5-.32v.02a1.68 1.68 0 0 1 .51.45l-.01.01h-.01a2 2 0 0 0-.38-.28c-.12-.06-.13-.05-.02.03.15.1.29.23.4.37v.04a1.45 1.45 0 0 0-.4-.28c-.06-.03-.07-.02 0 .02.15.11.29.24.4.38v.02h-.01c-.09-.05-.15-.13-.24-.18a2.9 2.9 0 0 0-1.6-.36 9.7 9.7 0 0 0-1.9.22l-.02-.05a.2.2 0 0 0 .03-.15c0-.02 0-.02-.03-.01a.06.06 0 0 1-.04 0 .05.05 0 0 1-.04-.03 2.22 2.22 0 0 0-.16-.28.02.02 0 0 1 .02-.02h.01c.16.03.27-.03.4-.13a6.72 6.72 0 0 0 .6-.56c.06.06.12.14.16.23.01.03.02.02.02 0V8.3l.01-.04c.06-.1.13-.16.24-.21h.03l.07.07.04.02.25.04c.02 0 .03 0 .03-.02.06-.09.1-.18.1-.27.01-.07.06-.1.1-.15.1-.11.06-.3-.1-.34-.04 0-.04-.02-.02-.05.02-.01.03-.04.01-.06a.08.08 0 0 1 0-.06Z" fill="#0D38A0"/><path d="M8.27 7.26c.07.15-.05.28-.14.38l-.25.31c-.01-.19.07-.38.25-.58 0-.04.05-.07.14-.11Z" fill="#451A02"/><path d="M12.25 7.27c-.05.08-.12.16-.2.23a.1.1 0 0 0-.04.1l.03.19c0 .01 0 .03-.02.04-.06.06-.15.17-.23.18-.01-.04 0-.09.03-.13.08-.19.12-.39.12-.59l.31-.02Z" fill="#0D38A0"/><path d="m11.13 7.33.16.08.31.22c.06.03.13.11.22.25a.2.2 0 0 0-.04.13l-.01.02h-.04c-.14-.15-.3-.3-.45-.42a.69.69 0 0 1-.15-.28ZM11.67 7.54l-.02.01h-.04a.6.6 0 0 1-.11-.05l-.01-.01a.58.58 0 0 1-.1-.08.12.12 0 0 1-.02-.03v-.02l.3.18Z" fill="#BCAA78"/><path d="M3.55 7.94a.21.21 0 0 1 0-.18c.15-.26.47-.44.78-.35v.01c-.37-.04-.7.15-.75.52 0 .04-.01.04-.03 0Z" fill="#AB8E6E"/><path d="M8.13 7.37c-.18.2-.26.4-.25.58-.06.18-.06.33 0 .45.04.07.14.18.3.32v.05c-.1.04-.13.1-.1.18a.84.84 0 0 1-.44.31c.02.01.02.01 0 0H7.6c-.13.08-.24.17-.34.27-.08.08-.17.15-.24.24l-.29.41-.13.23a.01.01 0 0 0 0 .01c.32-.07.61-.2.87-.37.02.14.05.23.08.26.05.06.1.07.17.04l.08-.05c.17.05.3 0 .42-.16.27-.01.46-.13.58-.34.03-.05.06-.06.11-.04l.24.43.01.01a.04.04 0 0 0 .04.01h.01a.24.24 0 0 1 .18-.04h.02a.04.04 0 0 0 .02-.02V10l.23-.04c.1 0 .17.02.2.05a58.4 58.4 0 0 1 .78 1.39.15.15 0 0 1-.1 0l-1.26.06-1.2.07a.46.46 0 0 0-.17 0l-.78-.24a.59.59 0 0 0-.4-.01 4.22 4.22 0 0 1-.53.17.78.78 0 0 1-.23-.12l-.02-.02v-.03l.07-.28.02-.15a.1.1 0 0 0 0-.07c0-.02 0-.03-.02-.03-.12 0-.23.02-.35.05-.26.05-.54.1-.85.13-.38.04-.75 0-1.13-.14a1.16 1.16 0 0 1-.65-.57h.04c.12.16.27.27.45.35l.02-.01a1.17 1.17 0 0 1-.5-.5v-.01h.02c.13.15.28.27.46.34h.01v-.01a1.14 1.14 0 0 1-.47-.48v-.03h.01c.11.14.26.26.44.34h.01v-.01a1.2 1.2 0 0 1-.46-.47c-.02-.04-.02-.05.02-.02.07.06.12.13.2.18a1.14 1.14 0 0 0 .24.14 1.32 1.32 0 0 1-.45-.48c-.01-.04 0-.04.02-.01.1.11.22.2.36.28h.01v-.01c-.16-.12-.3-.26-.39-.43v-.02h.02c.1.1.19.19.3.26h.03v-.01a1.3 1.3 0 0 1-.34-.4c-.02-.04-.01-.04.02-.01l.11.1c.07.07.16.13.26.18v-.01a1.48 1.48 0 0 1-.39-.44v-.01l.02-.01c.12.13.25.23.41.31h.02v-.01c-.2-.12-.34-.27-.44-.46v-.02h.02c.11.13.25.24.41.32h.01v-.02a1.11 1.11 0 0 1-.42-.44l.01-.01h.01c.11.13.24.22.4.29v-.01a1.15 1.15 0 0 1-.42-.45h.04a1.03 1.03 0 0 0 .38.29v-.03a.99.99 0 0 1-.4-.4c-.02-.06-.01-.06.04-.01.78.72 2.07.53 3.03.3.12-.04.13-.15.27-.17l.28-.06a.6.6 0 0 0 .31-.17c.15-.06.3-.16.45-.28.08-.1.15-.22.23-.35.06-.1.18-.2.37-.27Z" fill="#0D38A0"/><path d="M9.95 8.7c-.05.04-.1.02-.15-.03-.05-.05-.05-.13-.1-.2l-.03-.08c0-.02-.02-.02-.04-.01h-.01c-.02 0-.03 0-.04-.02-.1-.1-.18-.19-.24-.32a2.84 2.84 0 0 0-.3-.51.25.25 0 0 0-.14-.1.03.03 0 0 1-.02 0 .03.03 0 0 1 0-.03c.03-.03.05-.03.08 0l.46.35c.12.1.2.33.24.47.04.13.1.24.16.36.03.06.08.09.13.13Z" fill="#451A02"/><path d="M4.34 7.57h.01v.02c-.38-.02-.6.14-.7.49 0 .03-.02.03-.03 0l-.02-.04v-.03c.12-.32.37-.47.74-.44Z" fill="#AB8E6E"/><path d="M4.15 7.76a.63.63 0 0 1 .18-.02h.01a.01.01 0 0 1 0 .02h-.12a.56.56 0 0 0-.48.42c0 .02-.01.02-.03 0a.04.04 0 0 1-.02-.05c.07-.2.22-.32.46-.37Z" fill="#AB8E6E"/><path d="m9.57 8.08.06.21c0 .04-.01.05-.04.02a.95.95 0 0 1-.21-.32.1.1 0 0 1 .02-.12h.01c.03-.04.05-.03.07 0l.09.21Z" fill="#BCAA78"/><path d="M4.04 7.98c.1-.05.2-.07.3-.06h.01v.02c-.24 0-.4.1-.5.3a.02.02 0 0 1-.02.02.02.02 0 0 1-.02 0c-.02-.02-.02-.03 0-.05.06-.1.12-.17.23-.23Z" fill="#AB8E6E"/><path d="m11.79 8.06-.29.44-.22.2c-.12.1-.23.15-.39.12h-.01a.02.02 0 0 0-.02.02v.01l.16.27c0 .02.02.03.04.03h.04c.02-.01.03 0 .03.01 0 .06 0 .1-.04.15l-.24-.4a.04.04 0 0 0-.02-.03.04.04 0 0 0-.03.01l-.24.19c-.24.09-.42.13-.53.13-.35 0-.59-.18-.79-.44l.01-.01h.03c.21.24.44.41.8.38.26-.02.5-.07.68-.27.04-.04.03-.06-.03-.05-.15.03-.48.06-.63-.03-.03-.02-.03-.03.01-.03.19.02.38.02.6 0h.2c.17.03.31-.04.43-.16a2.24 2.24 0 0 0 .42-.56h.02l.01.02Z" fill="#835A37"/><path d="m11.79 8.05.1.08c-.12.14-.24.26-.39.37l.29-.45Z" fill="#DFDEDE"/><path d="M9.7 8.47c.05.07.05.15.1.2.05.05.1.07.15.04.03-.01.06 0 .08.02a.03.03 0 0 1 .01.03v.01h-.02a.28.28 0 0 1-.21-.02 1.73 1.73 0 0 0-.25-.13.02.02 0 0 1 0-.01l.06-.11c.03-.04.05-.05.09-.03Z" fill="#BCAA78"/><path d="M8.17 8.72a26.9 26.9 0 0 1 .24.03c.23.1.47.19.7.27.06.01.15.05.18.1l.13.13v.02h-.01c-.1-.05-.12-.15-.24-.19a7.54 7.54 0 0 1-.7-.27.61.61 0 0 0-.3-.04v-.05Z" fill="#835A37"/><path d="M8.17 8.77c.1 0 .2 0 .3.04.24.1.47.2.7.27.12.04.14.13.24.2h.01v.02a.2.2 0 0 0-.1.02c-.1.04-.26.01-.35 0h-.03a.05.05 0 0 0-.03.03c-.02.06-.04.13-.09.18l-.2.24c-.06.08-.16.09-.25.1-.08 0-.13-.03-.18-.08a.04.04 0 0 0-.03 0l-.18.02c.1-.1.24-.18.41-.26l.23-.14c.02 0 .02-.02 0-.03a.13.13 0 0 1-.03-.07.06.06 0 0 0-.03-.04l-.48-.32c-.03-.08 0-.14.1-.18Z" fill="#D9BD9E"/><path d="m11.1 9.3.02.06v.07c.07.12.12.25.14.39 0 .03.03.06.06.09l.05.68a.3.3 0 0 1-.05.2c-.17.25-.33.5-.46.78-.02.05-.05.07-.08.08a.67.67 0 0 1-.22-.23h.08l.01-.01a.02.02 0 0 0 0-.03l-.79-1.36c-.02-.03-.08-.05-.2-.05.19-.14.4-.32.64-.54.12-.1.2-.23.26-.35l.24-.19a.04.04 0 0 1 .03 0 .04.04 0 0 1 .02.01l.24.4Z" fill="#EDDCB4"/><path d="m8.08 8.95.48.32.03.04c0 .03.02.05.04.07v.03l-.24.14a.69.69 0 0 0-.34.14.44.44 0 0 0-.14.18.67.67 0 0 0-.05.34l-.01.03-.04.06-.08.05c0-.05 0-.1.04-.12v-.02h-.02a7.79 7.79 0 0 0-.12.04.08.08 0 0 1-.06-.03l-.01-.03a.45.45 0 0 1 .07-.33 60.68 60.68 0 0 0 .33-.5l-.01-.01a.01.01 0 0 0-.02 0l-.18.27-.02.02H7.7c-.07 0-.14 0-.2.02l-.2.03c-.04 0-.04 0-.02-.02l.3-.3c.04-.05.06-.08.06-.1.21-.09.36-.19.44-.32Z" fill="#AB8E6E"/><path d="M7.64 9.26c0 .03-.02.06-.06.1l-.3.31c-.02.02-.02.03.01.02l.2-.03v.02c-.1.04-.2.07-.3.14-.16.1-.3.23-.45.36.09-.14.18-.28.29-.4.07-.1.16-.17.24-.25.1-.1.2-.19.34-.27h.03Z" fill="#451A02"/><path d="m11.44 9.86-.1.04h-.02c-.03-.02-.05-.05-.06-.08a1.3 1.3 0 0 0-.13-.4c.03 0 .05.01.05.04a.04.04 0 0 0 .03.03h.01a10 10 0 0 1 1.26-.19 3.8 3.8 0 0 1 1.9.24 1 1 0 0 1 .52.54c.2.48.01 1.03-.51 1.22-.2.07-.4.1-.6.07-.63-.06-.9-.66-.69-1.2.02-.05.03-.05.03 0 0 .1 0 .2.02.28.1.32.3.52.62.58.36.07.7-.08.81-.43.19-.56-.16-.94-.7-1.08-.25-.06-.48-.1-.7-.1-.55-.01-1.16.05-1.81.18-.03 0-.03.02-.01.03.06.05.09.13.08.23Z" fill="#DF7E24"/><path d="M7.73 10.35c-.06.03-.12.02-.17-.04-.03-.03-.06-.12-.08-.27l.21-.36v-.01l-.2.01v-.02a.62.62 0 0 1 .21-.02h.03l.01-.02.2-.27h.02v.02l-.33.49c-.07.1-.1.2-.07.33a.07.07 0 0 0 .03.06.08.08 0 0 0 .07 0 6.41 6.41 0 0 1 .11-.03.13.13 0 0 0-.04.13Z" fill="#835A37"/><path d="M9.3 9.95c-.04 0-.07-.02-.08-.04a2.7 2.7 0 0 0-.2-.26l.1-.1c.1-.12.25-.02.36 0l.03.02.02.03c.02.1 0 .2-.02.29l-.03.02a.12.12 0 0 0-.05.05l-.04.02-.02-.02v-.02h-.02c-.04-.02-.05-.02-.06.01Z" fill="#DF7E24"/><path d="M8.4 9.55a1.4 1.4 0 0 0-.42.26c-.07.15-.09.28-.07.37.01.06.05.08.1.07l.1-.05a.45.45 0 0 1 .12-.06c-.11.16-.25.21-.42.16l.04-.06v-.03a.67.67 0 0 1 .06-.34.44.44 0 0 1 .14-.18c.1-.08.22-.12.34-.14Z" fill="#835A37"/><path d="M7.48 10.05a2.47 2.47 0 0 1-.87.37v-.01l.13-.23c.14-.13.3-.26.45-.36.1-.07.2-.1.3-.14l.2-.01v.01l-.21.37Z" fill="#DF7E24"/><path d="m9.03 9.65.19.26c.01.02.04.04.07.04.05.03.1.05.16.06V10.15a.04.04 0 0 1-.03.02H9.4a.24.24 0 0 0-.18.03.04.04 0 0 1-.03.01.04.04 0 0 1-.03-.02l-.24-.43a.33.33 0 0 1 .1-.1Z" fill="#BCAA78"/><path d="m12.3 11.12-.13-.52v-.03a.18.18 0 0 0-.02-.18.03.03 0 0 1 0-.02.03.03 0 0 1 .03-.02.2.2 0 0 1 .16.08c.03.04.05.03.05-.02 0-.27-.08-.58-.38-.66-.03 0-.03-.02 0-.03.2-.1.48 0 .6.16.16.26.03.67-.11.93l-.2.3Z" fill="#DF7E24"/><path d="M12.08 10.38a5.98 5.98 0 0 1-.32-.36 3.17 3.17 0 0 1-.11-.08c-.05-.05-.1-.06-.13-.05l-.17.04-.01-.03.1-.04.09-.01h.04c.23.12.4.3.51.53Z" fill="#451A02"/><path d="M11.52 9.9c.05.05.1.06.13.04l.11.08c.04.03.08.06.1.1l.22.26.05.06.01.03.02.1v.03c.02.14.04.25.07.33.05.1.04.21-.03.3-.17.21-.37.4-.58.56a30.24 30.24 0 0 1-1.1.56h-.05c0-.02.02-.04.04-.05.12-.08.27-.13.38-.24.1-.1.23-.18.37-.25a.18.18 0 0 0 .09-.09c0-.02 0-.02-.02-.01l-.3.2H11v-.01c-.01 0-.01 0 0 0 .06-.07.14-.14.23-.2a.06.06 0 0 0 .03-.06 17.72 17.72 0 0 0-.33.23 6.19 6.19 0 0 1-.66.5v.02l-.02.03a45.6 45.6 0 0 0-.2-.11c.22-.13.4-.28.6-.43.06-.05.08-.09.07-.13l.05-.1c.03 0 .06-.03.08-.08.13-.27.29-.53.46-.79a.3.3 0 0 0 .05-.2 26.43 26.43 0 0 0-.03-.68l.01.03.17-.04Z" fill="#7D7567"/><path d="M13.82 10.67c.21-.05.43-.09.55-.3.04-.07.08-.15.1-.22.02-.04.03-.04.04 0 .04.2-.22.41-.4.47-.1.04-.21.05-.34.06-.03 0-.03 0 0-.02h.02l.03.01Z" fill="#AB8E6E"/><path d="M8.7 14.15a5.37 5.37 0 0 1-4.36-2.86 6.57 6.57 0 0 0 1.48-.1 4.14 4.14 0 0 0 4.99 1.31 3.93 3.93 0 0 0 2.03-2.08c.03-.07.04-.06.04 0 .01.51.33 1.01.9 1.06a.03.03 0 0 1 .02.01v.02a5.41 5.41 0 0 1-5.1 2.64Z" fill="#0D38A0"/><path d="m6.05 10.86-.02.15c-.33.08-.65.13-.98.15-.72.07-1.7.08-2.05-.7h.01a.01.01 0 0 1 .02 0c.16.29.42.46.77.54.7.17 1.55.06 2.25-.14Z" fill="#DF7E24"/><path d="M14.84 11.22v.1a.22.22 0 0 1-.1.2l-.28.18a.24.24 0 0 0-.08.2v.27c-.04.31-.51.2-.57.51l-.04.24c-.03.13-.11.2-.25.23-.15.03-.37.07-.42.23l-.06.22c-.06.2-.27.2-.44.2-.43 0-.29.63-.8.5-.17-.05-.31-.02-.4.12-.1.16-.22.32-.44.26-.12-.04-.28-.09-.4-.04a.64.64 0 0 0-.2.16c-.33.35-.57-.2-.9.05-.15.1-.33.22-.5.1a2.2 2.2 0 0 0-.26-.15c-.25-.12-.48.29-.75.05a4.27 4.27 0 0 0-.2-.17c-.26-.2-.58.21-.8-.13a1.08 1.08 0 0 0-.18-.2c-.21-.18-.59.14-.74-.21-.07-.15-.17-.33-.36-.33-.13 0-.3 0-.4-.1-.11-.1-.1-.3-.21-.42-.1-.1-.22-.1-.34-.14-.41-.09-.13-.53-.47-.67-.18-.07-.4-.14-.38-.38v-.23c-.03-.18-.22-.27-.36-.35-.14-.1-.12-.26-.08-.42 0-.01.01-.02.03 0a1.23 1.23 0 0 0 .32.11l.02.02a5.86 5.86 0 0 0 6.36 3.28 5.83 5.83 0 0 0 4.22-3.09.94.94 0 0 0 .37-.23c.06-.07.09-.06.09.03Z" fill="#0D38A0"/><path d="M7.92 11.55c-.02 0-.02.02.01.05l.04.04c.17.11.33.24.5.37.12.11.2.27.22.43 0 .01 0 .03.02.04a.1.1 0 0 0 .04.03l.19.06c-.17 0-.34-.01-.5-.06l.03-.03.01-.01v-.02a.04.04 0 0 0-.03-.03 7.18 7.18 0 0 1-.2-.05.19.19 0 0 0-.12 0c-.02.01-.02.02-.02.04 0 .01 0 .03.02.05a3.73 3.73 0 0 1-1.4-.64.45.45 0 0 0-.2-.1l-.32-.26.17-.06c.06 0 .18-.05.37-.11a.59.59 0 0 1 .39 0c.26.1.52.18.78.26Z" fill="#7D7567"/><path d="M13.9 11.71v-.1l.03-.04.1-.06h.04v.14c0 .02 0 .04-.02.05a.22.22 0 0 1-.08.05.04.04 0 0 0-.02.02.03.03 0 0 0 0 .02l.01.09c0 .01 0 .03-.02.04a.72.72 0 0 0-.13.13 5.7 5.7 0 0 1-4.86 2.4 5.7 5.7 0 0 1-4.66-2.62c-.04-.07-.09-.1-.13-.16a.04.04 0 0 1 0-.04v-.08l-.01-.02-.06-.04a.07.07 0 0 1-.03-.06v-.14c0-.02 0-.02.02-.01.07.04.18.08.15.18a.06.06 0 0 0 0 .05.07.07 0 0 0 .05.03c.04.01.07.04.08.08 0 .06.03.12.06.17a5.46 5.46 0 0 0 2.9 2.24 5.73 5.73 0 0 0 3.18.14c.16-.02.32-.07.46-.12l.13-.07a5.56 5.56 0 0 0 2.63-2.04l.07-.15c0-.02.02-.03.03-.03h.04a.03.03 0 0 0 .03-.05Z" fill="#DF7E24"/><path d="M10.56 11.42c.05.1.13.17.22.23l-.05.1c-.3.28-.63.51-1 .68-.06.03-.2.07-.42.13l-.37.01-.2-.06a.1.1 0 0 1-.03-.03.09.09 0 0 1-.02-.04.68.68 0 0 0-.23-.43 4.92 4.92 0 0 0-.53-.4c-.03-.04-.03-.06-.01-.06a.46.46 0 0 1 .18 0c.06.05.15.07.26.06l.2-.02c.18 0 .31.01.5-.06a.67.67 0 0 1 .11-.02l.12-.04 1.27-.05Z" fill="#BCAA78"/><path d="M9.29 11.47a.47.47 0 0 1-.12.04.68.68 0 0 0-.11.02c-.19.07-.32.06-.5.06l-.2.02a.37.37 0 0 1-.26-.07l1.19-.07Z" fill="#AB8E6E"/><path d="M10.47 12.35c-.01.02-.03.02-.05 0-.03-.02-.08 0-.14.04v-.01a.02.02 0 0 1 0-.03 6.19 6.19 0 0 0 .96-.72c.02-.01.03 0 .03.01 0 .02-.01.04-.03.05a2.61 2.61 0 0 0-.24.21h.02l.3-.19c.03-.01.04 0 .03.01a.18.18 0 0 1-.1.1c-.13.06-.25.15-.36.24-.11.1-.26.16-.38.24a.07.07 0 0 0-.04.05Z" fill="#451A02"/><path d="m8.13 12.46.31.05c.16.05.33.07.5.06l.37-.01.35-.02a2.93 2.93 0 0 0 .6-.12c.06 0 .1 0 .15-.03l.02-.01v-.02l.04-.01h.09l1.06-.56c-.73.62-1.57.92-2.51.92-.98 0-1.84-.33-2.59-.99.08.02.14.05.2.1l.12.09c.4.26.82.44 1.29.55Z" fill="#DF7E24"/><path d="M10.73 11.75c.01.04-.01.08-.07.13-.2.15-.38.3-.6.43l-.4.23-.35.02c.22-.06.36-.1.42-.13.37-.17.7-.4 1-.68Z" fill="#451A02"/><path d="m7.08 12.94.04-.01.07-.14a.04.04 0 0 0-.01-.04l-.08-.06a.01.01 0 0 1 0-.02v-.01c.02-.01.03-.02.05 0 .14.07.29.14.44.19.01 0 .02.01.02.03v.02h-.14a.06.06 0 0 0-.03.03l-.16.37v.02l.01.02.09.06.01.03-.01.01h-.03l-.52-.23a.02.02 0 0 1-.01-.03v-.02h.02l.1.02h.03l.02-.03.07-.12V13l-.36-.2c-.03-.02-.04-.01-.05 0l-.08.13v.03l.01.03c.04.02.05.05.06.08a.02.02 0 0 1 0 .02h-.02a2.68 2.68 0 0 1-.49-.34.02.02 0 0 1 .01-.02c.02 0 .05 0 .1.03a.05.05 0 0 0 .06-.01l.24-.3a.08.08 0 0 0 0-.1.32.32 0 0 1-.04-.05v-.02l.02-.01h.02c.12.1.25.19.38.27.06.04.06.05-.01.06l-.06-.02H6.8l-.09.12c-.02.02-.01.04.01.05l.35.2Z" fill="#DFDEDE"/><path d="m8.44 12.51-.31-.05a.18.18 0 0 1-.02-.05c0-.02 0-.03.02-.03a.19.19 0 0 1 .13-.01 7.18 7.18 0 0 0 .22.08.04.04 0 0 1 0 .03l-.04.03Z" fill="#451A02"/><path d="M11.85 12.7c.04.08.02.19-.05.3-.08.1-.2.2-.35.27a.95.95 0 0 1-.43.11c-.14 0-.24-.05-.28-.13-.04-.08-.02-.18.05-.3.07-.1.2-.2.34-.27.15-.07.3-.11.44-.1.13 0 .23.04.28.12Z" fill="#DFDEDE"/><path d="m11.17 12.74-.07.05a.22.22 0 0 0-.06.31l.05.06c.07.1.22.12.32.05l.07-.05c.1-.07.13-.2.06-.31l-.04-.06a.24.24 0 0 0-.33-.05Z" fill="#0D38A0"/><path d="m7.7 13.45.14-.4-.01-.03-.1-.07v-.01l.01-.01a.04.04 0 0 1 .05-.01c.15.05.3.1.46.13.02 0 .02.01.02.03v.01a.02.02 0 0 1-.01.02h-.01c-.08-.02-.13 0-.14.07a8 8 0 0 1-.08.4.06.06 0 0 0 .05.02c.02 0 .03 0 .04.02.04.05.03.06-.04.04a79.97 79.97 0 0 0-.52-.16c-.02-.03 0-.04.03-.04l.07.01h.03l.02-.02ZM9.64 13.2a.16.16 0 0 0-.08 0h-.02a.02.02 0 0 1-.01-.02v-.03l.03-.01.66-.1c.1-.03.4-.01.3.17-.08.15-.32.2-.48.22a.03.03 0 0 0-.02.01.02.02 0 0 0 0 .02l.02.14c0 .02.02.03.05.03h.13v.03c0 .02-.02.03-.04.03l-.57.08a.02.02 0 0 1-.03-.02v-.02l.02-.02h.02l.07-.02.02-.01v-.03l-.04-.41v-.02l-.03-.02ZM8.84 13.5c-.02 0-.03 0-.03.02l-.01.13c0 .03.01.05.04.05l.1.02s.02.01.02.03c0 .02-.02.03-.05.03l-.57-.06c-.02 0-.03-.02-.03-.04a.02.02 0 0 1 .01-.02h.02c.05 0 .12-.01.13-.07l.06-.36c0-.03-.01-.05-.04-.06-.03-.01-.06-.02-.08-.06l.01-.01.02-.01c.2.03.41.05.63.06.11 0 .21.04.3.11l.01.02v.02c0 .23-.39.2-.54.2Z" fill="#DFDEDE"/><path d="M9.96 13.17a.02.02 0 0 1 0-.02h.02l.04-.02h.07a.2.2 0 0 1 .06.01l.05.03.02.04v.06l-.04.04a.2.2 0 0 1-.05.04.26.26 0 0 1-.06.02H10l-.01-.01-.04-.2ZM8.83 13.23v-.02h.08a.2.2 0 0 1 .11.03c.03.03.04.06.04.09l-.01.05-.04.03a.17.17 0 0 1-.05.02H8.82v-.2Z" fill="#0D38A0"/></svg>