<!-- by TradingView --><svg width="18" height="18" viewBox="0 0 18 18" xmlns="http://www.w3.org/2000/svg"><path fill="#181B1E" d="M0 0h18v18H0z"/><path d="M10.86 4.3c-.22.25-.33.53-.27.87.11.55.21 1.15-.53 1.2-.53.04-1.02.31-1.6.32-.83 0-1.64.03-2.44.06-.44.01-.7.22-.77.64 0 .02-.02.03-.03.04a.08.08 0 0 1-.1 0 .08.08 0 0 1-.02-.05l-.06-.5-.01-.01-.01-.01H5l-.01.01-.1.33c0 1.07 0 2.15-.03 3.23a3.78 3.78 0 0 1-.56-1.81c-.03-.56-.1-1.21-.2-1.97.6-.89 1.4-1.6 2.35-2.05a5.81 5.81 0 0 1 4.41-.3Z" fill="#002515"/><path d="m15 9.65-1.74-.19a.08.08 0 0 1-.05-.02.09.09 0 0 1-.02-.06l-.07-2.98-.01-.03a.05.05 0 0 0-.04-.02h-1a.2.2 0 0 1-.1-.02c-.17-.09-.26-.25-.27-.49a16.65 16.65 0 0 0-.05-.77.02.02 0 0 0-.02.01c-.23.28-.2.7-.17 1.14a.18.18 0 0 1-.04.12.16.16 0 0 1-.12.06h-.22a.18.18 0 0 1-.13-.05.2.2 0 0 1-.06-.15c.01-.42.05-.8.12-1.17.04-.16 0-.4-.1-.71.59.2 1.15.5 1.65.88A6.28 6.28 0 0 1 15 9.65ZM4.86 10.43l.03 1.7c0 .33.07.62.21.88a.18.18 0 0 1-.01.2c-.25.3-.54.56-.88.79a6.37 6.37 0 0 1-.98-5.48c.19-.67.48-1.3.87-1.87.1.76.17 1.41.2 1.97.04.68.23 1.28.56 1.8Z" fill="#001C0F"/><path d="M8.32 7.03a5.72 5.72 0 0 0 2.96 1.26.2.2 0 0 1 .08.04c.24.17.32.4.25.69-.06.25-.2.56-.41.93a4.05 4.05 0 0 1-3.1.52c-.83-.24-1.23-.82-1.58-1.59a.15.15 0 0 1-.01-.1l.06-.28.01-.03.79-1.36.95-.08Z" fill="#004D20"/><path d="M11.76 7.26c.38.46.42.95.48 1.62.07.76-.04 1.5-.11 2.26-.04.38-.2.64-.5.8-.17.08-.29.13-.35.14-.9.15-1.8.22-2.66.2-.29 0-.56-.04-.81-.12-.66-.21-1.22-.46-1.56-1.06-.33-.6-.4-1.35-.36-2.02.04-.7.26-1.33.65-1.9l.83-.07-.79 1.36v.03l-.07.29v.1c.36.76.76 1.34 1.6 1.58a4.05 4.05 0 0 0 3.09-.52c.21-.37.35-.68.41-.93a.61.61 0 0 0-.25-.7.2.2 0 0 0-.08-.03 5.72 5.72 0 0 1-2.96-1.26c.81-.01 1.62 0 2.44.06.33.02.67.08 1 .17Z" fill="#003415"/><path d="M6.55 7.17c-.4.58-.62 1.21-.66 1.9-.04.68.03 1.44.36 2.03.34.6.9.85 1.56 1.06.25.08.52.13.81.13.87 0 1.75-.06 2.66-.21.06-.01.18-.06.35-.15.3-.15.46-.41.5-.79.07-.75.18-1.5.11-2.26-.06-.67-.1-1.16-.48-1.62.65.26.64.88.69 1.5.03.41.16.82.13 1.2-.03.39-.15.75-.19 1.23-.03.31-.07.6-.13.87 0 .03-.02.06-.05.09a.15.15 0 0 1-.1.03c-.25-.01-.5 0-.73.02-1.12.12-2.07.2-2.83.2-.5.01-.94-.01-1.3-.07a9.82 9.82 0 0 0-1.27-.13 11.87 11.87 0 0 1-.36-3.07c0-.58.15-1.18.18-1.78l.03-.06a.09.09 0 0 1 .05-.03l.67-.09Z" fill="#001C0F"/><path d="M7.41 9.86a1.54 1.54 0 0 1-.59-1.27l.05-.06v-.01h.02c.88.02 1.38.46 1.5 1.32a.16.16 0 0 1-.04.12.15.15 0 0 1-.1.05l-.9.03-.03-.01L7.3 10v-.02l.02-.03.09-.05a.03.03 0 0 0 0-.03ZM9.79 9.9v-.02a1.45 1.45 0 0 1 1.5-1.26.08.08 0 0 1 .05.05.1.1 0 0 1 0 .03c-.02.44-.2 1.08-.63 1.22-.15.04-.43.06-.85.06 0 0-.04 0-.07-.08Z" fill="#0FD451"/><path d="M7.11 9.1a.16.16 0 0 1 .06-.21.14.14 0 0 1 .08-.02c.05 0 .12.03.2.1l.73.63c.04.04.06.08.06.13a.08.08 0 0 1-.03.06.07.07 0 0 1-.06.02 21.94 21.94 0 0 0-.72-.2.27.27 0 0 1-.07-.09L7.1 9.1ZM11.01 9.06a.89.89 0 0 1-.17.43.3.3 0 0 1-.18.13c-.23.04-.44.2-.66.22l-.04-.01a.08.08 0 0 1-.03-.04.08.08 0 0 1 .02-.1c.8-.6.35-.36.83-.68a.17.17 0 0 1 .1-.03c.06 0 .1-.01.11-.04l.01-.01a.02.02 0 0 1 .03 0c.04.08.06.13.06.17v.02h-.04a.26.26 0 0 1-.02-.07.01.01 0 0 0-.01 0Z" fill="#B2FFCD"/></svg>