<!-- by TradingView --><svg width="18" height="18" viewBox="0 0 18 18" xmlns="http://www.w3.org/2000/svg"><path fill="#485865" d="M0 0h18v18H0z"/><path d="M8.65 3h.75A6.02 6.02 0 0 1 15 8.49v1A6.05 6.05 0 0 1 9.46 15l-.89.01a5.87 5.87 0 0 1-3.34-1.33A5.98 5.98 0 0 1 3 9.55V8.36c.05-.18.1-.37.13-.56A5.97 5.97 0 0 1 8.65 3Z" fill="#42DBED"/><path d="M14.57 9.48a6.38 6.38 0 0 0-.26-.33c-.04-.05-.08-.07-.11-.06l-.02-.04c.02 0 .02-.01.02-.02V9c-.28-.32-.58-.62-.9-.92-.04-.14-.04-.22-.02-.27l.14-.34.04-.04a.07.07 0 0 0 .02-.04c.02-.21.03-.35 0-.42-.12-.5-.55-.8-1.07-.65-.06.01-.1 0-.13-.03a3.37 3.37 0 0 0-1.87-1.01 6.1 6.1 0 0 0-4.82 1.05 3.47 3.47 0 0 0-.32.3h-.03L5.1 6.6c-.47-.06-.82.1-1.05.46-.19.3-.17.54-.1.87l-.51.49v-.21c.14-.88.45-1.68.92-2.42.1-.15.29-.37.57-.66a5.64 5.64 0 0 1 2.6-1.56 5.63 5.63 0 0 1 7.07 5.84l-.03.06Z" fill="#465665"/><path d="M13.42 7.47c.03-.11.04-.21.05-.31a.8.8 0 0 0-1-.81c-.08.03-.14.02-.18-.03a3.57 3.57 0 0 0-1.9-1 5.97 5.97 0 0 0-5.03 1.26c-.05.03-.08.1-.16.08a1.2 1.2 0 0 0-1.15.41c.23-.37.58-.52 1.05-.46a3.9 3.9 0 0 0 .17.01l.02-.01c.14-.15.24-.24.3-.28a6.1 6.1 0 0 1 4.82-1.05c.67.13 1.42.48 1.87 1.01.03.04.07.04.13.03.52-.15.95.15 1.08.65.02.07.01.2 0 .42l-.03.04-.04.04Z" fill="#A2A8D7"/><path d="M12.47 6.35c.03.01.05.04.04.06a.1.1 0 0 0-.03.02c-.02 0-.02.02-.01.03l.34.48.02.02h.03c.1-.04.26-.05.26.1 0 .02 0 .04-.02.05l-.06.07a.05.05 0 0 0-.01.04l.19.57c0 .02-.03.04-.09.06h.02a1.8 1.8 0 0 0-.2-.5 5.97 5.97 0 0 0-.54-.77 3.45 3.45 0 0 0-1.96-1.15 5.88 5.88 0 0 0-5.02 1.22.41.41 0 0 1-.33.1.98.98 0 0 0-.84.24c-.1.1-.18.21-.23.36-.13.41.1.77.42 1.02a.03.03 0 0 0 .05-.02l.21-.63-.01-.03-.18-.13a.06.06 0 0 0-.06 0l-.06.02a.05.05 0 0 1-.05-.02.1.1 0 0 1-.02-.03c.1-.28.44-.23.64-.1a.02.02 0 0 1 0 .02l-.13.26a2.83 2.83 0 0 0-.16 1.99.05.05 0 0 0 .04 0l.61-.18a7.2 7.2 0 0 1 2.4-.07c.02 0 .02.01 0 .03 0 .01-.04.02-.08.01-.64-.04-1.28-.08-1.93.03l-.38.06-.62.2a.02.02 0 0 0-.02 0 .02.02 0 0 0 0 .03 4.1 4.1 0 0 0 .37.76.04.04 0 0 0 .03 0l.5-.32c.35-.15.7-.27 1.06-.36.14-.03.55-.14.68-.1.02.01.02.02 0 .03l-.15.03c-.5.08-1 .23-1.5.44-.05.02-.06.05-.02.1l.18.23a.11.11 0 0 0 .14.03c.43-.23.88-.42 1.34-.58.02 0 .04 0 .08.03a11.2 11.2 0 0 0-1.42.64v.04c.18.15.35.32.54.42.34.2.71.34 1.1.41l-.03.4a3.18 3.18 0 0 1-1.74-1.2.05.05 0 0 0-.03.02l-.34.23a.09.09 0 0 0-.03.1l.12.34c.02.08.1.19.2.32a1.23 1.23 0 0 1-.38-.22c-.06-.17-.06-.38-.18-.53l-.1-.15-.09-.15v-.01a.02.02 0 0 0-.03 0l-.78.5-.01-.01v-.03l.75-.54v-.04a3.93 3.93 0 0 1-.36-.76.06.06 0 0 0-.07-.02l-.9.39-.01-.01v-.02l.93-.45c.02 0 .02-.02.02-.04a2.85 2.85 0 0 1-.1-1.18c0-.01 0-.03-.02-.04-.22-.2-.38-.28-.5-.57-.07-.33-.09-.58.1-.87.3-.34.7-.48 1.15-.4.08 0 .11-.06.16-.1l.44-.3c1.36-.96 2.99-1.25 4.6-.95.72.14 1.35.47 1.89 1 .04.05.1.06.18.03Z" fill="#64352A"/><path d="M13.15 7.85v.05c0 .02-.01.03-.03.02l-.03-.03a1.48 1.48 0 0 0-.04-.1.64.64 0 0 0-.15-.3c-.1-.28-.27-.53-.5-.78-.12-.2-.29-.38-.52-.52-.1-.06-.18-.15-.27-.2A4.5 4.5 0 0 0 10 5.44c-.09 0-.18.02-.27 0a5.66 5.66 0 0 0-4.1 1.17c-.11.08-.37.22-.5.2-.26-.06-.63.1-.84.21h-.03v-.03c.24-.21.52-.3.84-.24.12.02.24-.03.33-.1a5.88 5.88 0 0 1 5.02-1.22c.8.17 1.45.55 1.96 1.15.2.22.37.5.53.77.1.15.17.32.21.5Z" fill="#F9E0E0"/><path d="M10.63 5.56c-.23-.01-.35.05-.36.18-.03.21-.11.41-.16.62-.05.26-.28.52-.44.76-.1.12-.28.2-.3.36l-.03.04-.49.4a.05.05 0 0 1-.04.02.3.3 0 0 0-.32.1.05.05 0 0 1-.04.03l-.95-.02c-.02 0-.03 0-.04-.03a.69.69 0 0 0-.13-.24c-.17-.3-.44-.38-.72-.15a.83.83 0 0 0-.28.57l-.01.1a.03.03 0 0 1-.05.02.13.13 0 0 1-.02-.08.08.08 0 0 0-.08-.08 4.26 4.26 0 0 0-.34-.02.77.77 0 0 1-.24-.05c-.16-.07-.35-.07-.5-.16-.1-.07-.18-.14-.25-.22l.14-.26a.02.02 0 0 0 0-.03c-.2-.12-.55-.17-.65.1 0 .04-.01.04-.05.03a.43.43 0 0 1-.25-.2.76.76 0 0 1 .23-.36v.03h.03c.21-.11.58-.27.83-.22.14.03.4-.1.5-.18.35-.23.6-.4.75-.48a5.66 5.66 0 0 1 3.36-.7c.1.02.18 0 .27 0l.63.12Z" fill="#FCBB56"/><path d="M10.63 5.56c.34.1.67.25.98.43.1.05.18.14.27.2.23.14.4.31.53.52.05.16.03.31-.06.46-.04.07-.09.1-.14.1-.3-.16-.49-.07-.56.28-.01.28-.03.5.16.7.03.04.06.06.1.07.04.05.1.09.15.13.12.08.26.1.4.14-.56.13-1.03.17-1.51-.3h-.02v.07c.13.15.22.43 0 .53.23-.28-.07-.6-.23-.84-.2-.31-.97-.17-1.27-.06-.2.08-.33.2-.4.39A.07.07 0 0 0 9 8.36c-.02 0-.03.01-.04.03a.97.97 0 0 1-.55.38c-.61.16-1.34.12-1.97.05a2.23 2.23 0 0 0-.45-.02c-.37.05-.66.32-.65.72l-.6.18a.05.05 0 0 1-.07-.03 2.83 2.83 0 0 1 .18-1.96c.07.08.16.15.26.22.14.09.33.1.5.16.08.03.15.04.23.05a4.26 4.26 0 0 1 .4.05l.02.05c0 .03 0 .05.02.08a.03.03 0 0 0 .05-.02v-.1c0 .1-.02.25.06.34.23.27.72.2.95 0 .16-.08.17-.3.11-.44l-.1-.32c.05.06.09.14.12.24 0 .02.02.03.04.03l.95.02a.05.05 0 0 0 .04-.02c.08-.1.18-.14.32-.11a.05.05 0 0 0 .04-.01l.5-.41a.06.06 0 0 0 .02-.04c.02-.15.2-.24.3-.36.16-.24.39-.5.44-.76.05-.2.13-.4.16-.62.01-.13.13-.2.36-.18Z" fill="#F6AE4B"/><path d="m13.42 7.47-.14.34c-.02.05-.02.13.01.27.09.3.22.67.2.96l.01.01a.02.02 0 0 0 .02.01h.66l.02.03-.68.05c-.01 0-.02 0-.02.02.02.2 0 .4-.06.6 0 .01 0 .02.02.03l.98.3v.03l-1.01-.27-.02.01-.18.4a6.92 6.92 0 0 1 .92.54v.01h-.01l-.92-.47c-.03-.01-.05 0-.07.02a4.52 4.52 0 0 1-.6.7c0 .05.02.1.05.13l-.01.03v.04a.87.87 0 0 1 0 .36h-.03l-.01-.02a.07.07 0 0 1-.03-.05l-.03-.43v-.01l-.01-.01h-.02c-.02.01-.03.04-.03.08l-.11-.06a3.75 3.75 0 0 0 .74-.84.04.04 0 0 0-.03-.03l-.28-.12-.2-.07-.11-.04-.28-.1V9.9a.02.02 0 0 1 .03-.02l.43.13.44.2a.06.06 0 0 0 .08-.03l.16-.33-.01-.03-.42-.08-.71-.08h-.01v-.02a13.67 13.67 0 0 1 1.17.1c.02 0 .03 0 .03-.02l.07-.54c0-.03 0-.04-.04-.04h-.15l-1.18.11a.1.1 0 0 1-.02-.01c-.02-.01-.02-.02 0-.03l1.1-.12.18-.03h.07c.03 0 .04-.01.03-.04l-.28-1.17c.06-.02.1-.04.09-.06l.12-.35a.98.98 0 0 0 .01-.5c-.12-.38-.38-.56-.77-.53h-.07c0-.02 0-.05-.04-.06a.8.8 0 0 1 1 .8c0 .1-.02.21-.05.32Z" fill="#564055"/><path d="M13.35 6.94c-.01.02-.03.02-.05 0a.1.1 0 0 1-.02-.04.7.7 0 0 0-.64-.45c-.04 0-.05-.02-.05-.04.38-.03.64.15.76.53Z" fill="#F9E0E0"/><path d="M12.51 6.41h.07c0 .02.02.03.06.04a.7.7 0 0 1 .63.45l.03.04c.02.02.04.02.05 0 .04.22.03.39 0 .5-.05.1-.1.22-.13.35l-.19-.57a.05.05 0 0 1 .01-.04l.06-.07a.07.07 0 0 0 .02-.05c0-.15-.16-.14-.26-.1h-.03a.05.05 0 0 1-.02-.02l-.34-.48v-.03l.04-.02Z" fill="#F6AE4B"/><path d="M12.4 6.71c.23.25.4.5.5.77l.01.3c.01.22.1.44.1.67l-.54.14c-.15-.05-.3-.06-.41-.14l-.16-.13c.18.09.35.09.52 0l.02-.03c-.04-.18-.04-.2 0-.08h.08l.02-.04c.02-.17.06-.44-.11-.52l-.22-.37c.05 0 .1-.04.14-.1.1-.16.11-.31.06-.47Z" fill="#AF6849"/><path d="M11.56 6.98c.07-.06.1-.14.07-.18-.04-.03-.12-.02-.19.04s-.1.14-.06.18c.03.04.11.02.18-.04ZM7.28 7.2c.11.05.22.05.24 0 .02-.04-.06-.11-.17-.16-.11-.05-.22-.06-.24-.01-.02.04.06.12.17.17Z" fill="#64352A"/><path d="m12.21 7.28.22.37.06.38c.02.11 0 .17-.04.18-.05-.12-.05-.1-.01.08 0 .01 0 .02-.02.03a.55.55 0 0 1-.52 0 .35.35 0 0 1-.1-.06l.02-.03V8.2a1.2 1.2 0 0 1-.17-.65c.07-.35.26-.44.56-.27Z" fill="#331011"/><path d="M4.03 7.35c.04.1.13.16.25.2.04.01.05 0 .05-.02l.02.03a.04.04 0 0 0 .05.02l.06-.03.06.01.18.13c.01 0 .02.02.01.03l-.21.63a.03.03 0 0 1-.05.02c-.33-.25-.55-.6-.42-1.02Z" fill="#D78632"/><path d="M11.71 7.5c0 .07.06.11.12.1.05 0 .1-.05.09-.11 0-.06-.05-.11-.11-.1-.06 0-.1.05-.1.11Z" fill="#fff"/><path d="m7.33 7.78.11.32c.02.16-.02.3-.11.45-.23.18-.72.26-.95 0-.08-.1-.06-.24-.05-.35a.83.83 0 0 1 .28-.57c.28-.23.55-.15.72.15Z" fill="#451E19"/><path d="M12.9 7.48c.08.1.13.2.15.31a.32.32 0 0 0 .01.21c.06.15.09.3.08.47l-.01.01-.02.01a.11.11 0 0 0-.05-.01.19.19 0 0 0-.05-.03c0-.23-.09-.45-.1-.67v-.3Z" fill="#A987AA"/><path d="M11.65 7.55c-.01.23.04.45.16.65v.06c-.2-.2-.18-.43-.16-.71Z" fill="#64352A"/><path d="M6.67 7.73c-.06.08-.04.18.02.22.06.04.16.01.21-.06.05-.08.04-.18-.02-.22-.07-.04-.16-.02-.21.06Z" fill="#fff"/><path d="M12.43 7.65c.17.08.13.35.11.52 0 .01 0 .02-.02.03-.03.02-.05.02-.07 0 .05 0 .06-.06.04-.17l-.06-.38Z" fill="#465665"/><path d="m13.05 7.8.04.1s.01.02.03.02c.02 0 .03 0 .03-.02v-.05h-.02l.28 1.17c0 .03 0 .04-.03.04h-.07c-.05-.2-.06-.4-.2-.57h.02l.01-.02c0-.16-.02-.32-.08-.47a.32.32 0 0 1 0-.2Z" fill="#A2A8D7"/><path d="M10.92 8.89c-.2.13-.49.14-.76.17h-.03a.06.06 0 0 0 .02-.04L10.14 9c-.04-.06-.03-.11.03-.14.22-.12.39-.24.51-.37a.05.05 0 0 0 .01-.04.1.1 0 0 0-.02-.05c.1-.06.03-.27-.12-.17-.05.04-.05.09 0 .13l.03.03c-.39.17-.79.24-1.2.2a.44.44 0 0 1-.15-.05c-.1-.06-.12-.04-.05.06.1.14.6.28.78.3a.05.05 0 0 1 .04.05l-.02.13-.4.03a.91.91 0 0 1-.56-.14l-.07-.36a.64.64 0 0 1 .09-.22c.06-.18.2-.31.4-.39.3-.11 1.05-.25 1.26.06.16.24.46.56.22.84Z" fill="#451E19"/><path d="M3.95 7.94c.12.3.28.38.5.57l.02.04c-.05.4-.02.8.1 1.18 0 .02 0 .03-.02.04l-.93.45v.02l.01.01.9-.39a.06.06 0 0 1 .07.02l.02.02c.09.26.2.5.35.74l-.01.04-.75.54v.03l.79-.5a.02.02 0 0 1 .02 0l.01.02.08.15c-.11.12-.24.24-.33.36-.21.32-.29.68-.22 1.07-.03 0-.06 0-.08-.03a5.6 5.6 0 0 1-1.04-3.9l.51-.48ZM13.3 8.08a11.88 11.88 0 0 1 .9.95c0 .01 0 .02-.02.02l-.66.01a.02.02 0 0 1-.01 0l-.01-.01c0-.3-.12-.68-.2-.97Z" fill="#9EF1F8"/><path d="M10.67 8.39h-.1l-.02-.04v-.13c.15-.1.21.11.12.17Z" fill="#fff"/><path d="m12.47 8.59.54-.14c.02 0 .04.02.05.03l.08.6-1.1.13c-.03 0-.03.01-.02.03l.03.01c0 .05-.03.09-.06.1-.3.14-.72.2-1.07.3-.17.04-.35.04-.53-.01l-.2-.18a.05.05 0 0 1-.03-.04v-.36c.27-.03.55-.04.76-.17.23-.1.14-.38.01-.53a.04.04 0 0 1 0-.05V8.3h.02c.48.46.94.42 1.52.29Z" fill="#FEDDA4"/><path d="M9.04 8.38a.64.64 0 0 0-.1.22c-.06.13-.04.25.08.36.15.1.34.15.55.14.14 0 .28-.02.41-.03.02 0 .03.01.03.03v.21c.01.11 0 .19-.05.23l-1.15.3c-.46.11-.87.15-1.31.12-.1-.01-.2-.04-.3-.1l.14-.04c.02-.01.02-.02 0-.02-.13-.05-.54.06-.68.1-.02-.07-.05-.1-.12-.1-.32-.02-.6-.11-.82-.28.65-.11 1.29-.07 1.93-.03l.09-.01c.02-.02.01-.03-.01-.03a7.2 7.2 0 0 0-2.4.07c0-.4.28-.67.65-.72.08-.01.23 0 .45.02.63.07 1.36.12 1.97-.05.22-.06.4-.19.55-.38.01-.02.02-.03.04-.03.01 0 .03 0 .05.02Z" fill="#FFE8B3"/><path d="M10.58 8.38h.09a.1.1 0 0 1 .02.06l-.01.04c-.12.13-.3.25-.51.37-.06.03-.07.08-.03.14l.01.03c0 .02 0 .03-.02.04-.04.04-.08.05-.12.04 0-.02 0-.03-.03-.03l.02-.13a.05.05 0 0 0-.04-.05c-.18-.02-.69-.16-.78-.3-.07-.1-.05-.12.05-.06.03.02.1.05.15.05.41.04.81-.03 1.2-.2Z" fill="#331011"/><path d="m13.07 8.48.04.01c.14.17.15.37.2.57l-.17.03-.07-.61Z" fill="#F9E0E0"/><path d="M10.13 9.06h.03v.36c0 .02 0 .03.02.04l.2.18c.32.32.66.29 1.06.17h.05a.04.04 0 0 1 0 .07c-.53.29-.92.14-1.33-.24a.06.06 0 0 0-.1.01c-.2.3-.48.47-.85.5-.2.03-.43 0-.65-.07-.04-.06-.05-.1-.02-.1h.07c.56.08 1 .08 1.35-.44.04-.04.06-.12.06-.23V9.1c.03.01.07 0 .11-.04Z" fill="#64352A"/><path d="M14.2 9.1c.03-.02.07 0 .1.05.1.1.18.21.27.33v.02a9.42 9.42 0 0 0-.05.57c0 .04-.03.05-.08.02l-.98-.3-.02-.03c.06-.2.08-.4.06-.6 0-.01 0-.02.02-.02l.68-.05Z" fill="#9EF1F8"/><path d="M13.15 9.72c-.01-.21.16-.33.08-.58h.15c.03 0 .04.01.04.04l-.07.54c0 .02 0 .03-.03.03a.5.5 0 0 1-.17-.03Z" fill="#A2A8D7"/><path d="M13.23 9.14c.08.25-.1.37-.08.58a13.67 13.67 0 0 0-1-.08v.02l.72.08-.25.27-.43-.13a.02.02 0 0 0-.03.02v.02l.28.1a2.95 2.95 0 0 1-1.15.54l-.55.15-1.06.3-.48.1c-.1.03-.35.06-.73.1-.07 0-.19.02-.34.05-.12.02-.28-.04-.39-.04a4.96 4.96 0 0 1-.8-.12c-.17-.04-.34-.12-.52-.18a1.13 1.13 0 0 1-.26-.17.28.28 0 0 0-.07-.07c.43-.23.86-.4 1.32-.58l.06.03.04.01 1.04-.06c.23.07.45.1.66.08.36-.04.65-.2.85-.5a.06.06 0 0 1 .04-.03.06.06 0 0 1 .05.01c.42.38.8.53 1.34.24a.04.04 0 0 0 .02-.03.04.04 0 0 0-.02-.03h-.05c-.4.1-.74.14-1.05-.18.18.05.36.05.53.01.35-.1.77-.16 1.07-.3.03-.01.05-.05.06-.1l1.18-.1Z" fill="#F1B982"/><path d="M5.72 9.52c.22.17.5.26.82.27.07 0 .1.04.12.1-.36.09-.71.2-1.06.36a1.1 1.1 0 0 1-.26-.67l.38-.06ZM9.96 9.54c-.35.52-.8.52-1.35.44h-.07c-.02 0-.02.04.02.1l-1.05.06h-.04a.17.17 0 0 0-.06-.04l-.08-.03a9 9 0 0 0-1.33.58.11.11 0 0 1-.15-.03l-.18-.23c-.04-.05-.03-.08.03-.1.5-.21 1-.36 1.5-.44.1.07.2.1.3.1.44.04.85 0 1.3-.12l1.16-.29Z" fill="#FEDDA4"/><path d="M5.34 9.58c.01.26.1.49.27.67l-.51.32a.04.04 0 0 1-.03 0h-.01l-.01-.01a4.1 4.1 0 0 1-.34-.78l.63-.2Z" fill="#D78632"/><path d="m12.87 9.74.42.08c.01 0 .02.01.01.03l-.16.33a.06.06 0 0 1-.08.02l-.44-.19.25-.27Z" fill="#A987AA"/><path d="M14.44 10.12c.05 0 .06.02.05.06l-.2.7c-.16.5-.43 1-.83 1.5a1.92 1.92 0 0 0-.86-1.19.21.21 0 0 1-.05-.12l.02-.05c.22-.2.41-.42.58-.66.02-.03.04-.03.07-.02l.92.47v-.03a6.9 6.9 0 0 0-.91-.52l.18-.4h.02l1.01.26Z" fill="#9EF1F8"/><path d="m12.44 10.02.1.04-.01.04h-.02v-.01h-.01c-.24.19-.42.31-.57.37a5.9 5.9 0 0 1-1.2.37c-.42.09-.7.15-.82.2-.12.03-.22.03-.32.06a1.29 1.29 0 0 1-.27.04l-.02.02c-.04.02-.18 0-.24.02a.96.96 0 0 1-.17.05 6.91 6.91 0 0 0-.24.04c-.74.06-1.46.05-2.17-.24a1 1 0 0 1-.32-.27c.13.1.21.16.26.17.18.06.35.14.52.18.26.06.53.1.8.12.11 0 .27.06.39.04l.34-.06c.38-.03.63-.06.73-.08l.48-.11 1.06-.3.55-.15c.32-.1.55-.2.7-.26.1-.04.25-.14.45-.28Z" fill="#CE9271"/><path d="m12.55 10.06.2.07a.2.2 0 0 0-.17.13l-.04.04a.35.35 0 0 0-.17.19l-.03.03a.72.72 0 0 0-.14.14c-.2.23-.35.49-.49.77-.32.12-.67.2-1.06.22-.8.06-1.57.1-2.56.03a4.41 4.41 0 0 1-1.56-.48c-.2-.1-.36-.27-.53-.42-.02 0-.02-.02 0-.04a.19.19 0 0 1 .09-.06l.07.07a1 1 0 0 0 .32.27 4.63 4.63 0 0 0 2.58.15c.06-.01.2 0 .24-.02a.6.6 0 0 1 .03-.02c.1 0 .18-.02.26-.04.1-.03.2-.03.32-.06.12-.05.4-.11.82-.2.5-.1.9-.22 1.2-.37a2.98 2.98 0 0 0 .58-.37l.01.01.03-.04Z" fill="#B17876"/><path d="m12.75 10.13.28.12a.04.04 0 0 1 .02.03v.03c-.2.3-.44.57-.73.8l-.49.3c-.01 0-.05.02-.12.02.14-.28.3-.54.49-.77.04-.06.09-.1.14-.14l.03-.03a.35.35 0 0 1 .17-.19c.02 0 .03-.02.04-.04a.2.2 0 0 1 .17-.13Z" fill="#A987AA"/><path d="m5.12 10.64.4-.27a.03.03 0 0 1 .05 0l.23.34a.03.03 0 0 1-.01.04l-.42.3h-.02a.03.03 0 0 1-.02 0l-.22-.37a.03.03 0 0 1 0-.04ZM7.6 12c.02 0 .04.02.04.05l.11.48h-.02a6.98 6.98 0 0 1-1.95-.7 1.24 1.24 0 0 1-.2-.33 24.83 24.83 0 0 0-.12-.39c0-.02.01-.03.03-.05l.34-.23a.05.05 0 0 1 .05 0h.01c.38.6 1.07.97 1.71 1.18Z" fill="#D78632"/><path d="m5.11 10.92.1.15c0 .04-.01.06-.04.06-.03-.03-.06-.03-.1 0-.13.1-.2.2-.24.34-.17.36-.13.66.11.9.41.4 1.15.64 1.7.76a3.98 3.98 0 0 0 .87.28l-.01.02h-.02a5.48 5.48 0 0 1-2.33-.74c-.17-.13-.2-.1-.08.07.04.05.12.14.24.25-.1-.01-.17-.13-.26-.17a.07.07 0 0 1-.03-.03.13.13 0 0 0-.04-.04 1.08 1.08 0 0 1-.31-.51l-.02-.02-.03-.01c-.03 0-.04.02-.04.06v.15a.2.2 0 0 0-.02-.09c-.07-.4 0-.75.22-1.07.09-.12.22-.24.33-.36Z" fill="#1D9EBD"/><path d="M5.22 11.07c.12.15.12.36.18.53-.18-.06-.43-.28-.23-.47.03 0 .05-.02.05-.06ZM12.6 11.19l.04.02c-.03 0-.04.02-.02.07 0 .03.02.04.05.05l.03.03c.14.18.32.32.42.51.08.14.2.36.19.52v.2a5.39 5.39 0 0 1-1.91 1.48l-1.2.2a10.73 10.73 0 0 1-1.63.16l-.02-.01-.03-.01c-.55-.04-1.1-.12-1.67-.24a5.57 5.57 0 0 1-2.27-1.73v-.15c0-.04.01-.06.04-.06a.05.05 0 0 1 .05.03c.07.19.15.38.31.5l.04.05c0 .02.01.03.03.03.1.04.17.16.26.17a10.16 10.16 0 0 0 1.36.72 31.96 31.96 0 0 0 .5.14l.95.19c.35.05.67.08.96.08 1.11-.01 2.57-.25 3.48-.95.31-.25.26-.47.19-.81a.03.03 0 0 0-.04-.03h-.01l-.47.33-.45.19c-.03.01-.06 0-.1-.02a4.17 4.17 0 0 0 1.05-.62.06.06 0 0 0 .02-.04.53.53 0 0 0-.16-.36c-.01-.02-.03-.02-.04-.01l-.2.11-.16.1a.1.1 0 0 0-.1-.04c.11-.08.3-.17.37-.28v-.04a1.49 1.49 0 0 1-.03-.5c0-.03 0-.06.03-.07a.02.02 0 0 1 .02 0l.01.02.03.43c0 .02.01.04.03.05l.01.02h.02l.01-.01a.87.87 0 0 0 0-.35v-.07Z" fill="#1B87AD"/><path d="m12.32 11.12.1.06c0 .16 0 .33.04.49v.04c-.07.11-.26.2-.36.28l-.43.18.16-.76.5-.3Z" fill="#64352A"/><path d="M12.64 11.21c.4.23.68.7.82 1.17l-.15.2a.65.65 0 0 1 0-.2c.01-.15-.11-.37-.19-.51-.1-.2-.28-.33-.42-.51a.07.07 0 0 0-.03-.03.08.08 0 0 1-.05-.05c-.02-.05-.01-.07.02-.07Z" fill="#1D9EBD"/><path d="m11.83 11.4-.16.77a6.72 6.72 0 0 1-1.12.27l-.03-.03a4.7 4.7 0 0 1-1.14-.03 13.58 13.58 0 0 1-1.78-.37l.04-.4c.22.04.37.07.46.07.98.06 1.75.03 2.56-.03a3.98 3.98 0 0 0 1.17-.24Z" fill="#A76B63"/><path d="M4.84 11.47c-.23.77 1.43 1.32 1.94 1.46a6.41 6.41 0 0 0 2.5.38 8.29 8.29 0 0 0 2.4-.46c.04.03.07.03.1.02l.45-.19a.86.86 0 0 1-.51.45c-.24.08-.42.2-.63.27-.63.22-1.3.34-2 .36-.25.01-.57.05-.8-.1-.08-.06-.07-.08.02-.09.41-.02.82.04 1.18-.09a.03.03 0 0 0 .02-.02.03.03 0 0 0-.01-.02.5.5 0 0 0-.29-.06 5.6 5.6 0 0 1-1.44-.07c-.3-.07-.6-.12-.9-.17a.76.76 0 0 0-.23 0 3.82 3.82 0 0 1-1.7-.77c-.24-.24-.28-.54-.1-.9Z" fill="#34CADF"/><path d="M12.4 12.49c.02-.2 0-.39-.04-.56l.19-.1c.01-.02.03-.02.04 0 .1.1.15.22.16.36 0 .02 0 .03-.02.04-.08.1-.2.19-.32.26Z" fill="#2DBBD1"/><path d="M12.1 11.99a.1.1 0 0 1 .09.04.83.83 0 0 1-.22.14c-.46.18-.93.3-1.4.38l-.62.07c-.28.04-.59.03-.88.04-.02 0-.06 0-.11.02H8.9a.26.26 0 0 0-.12-.03c-.37.03-.73 0-1.06-.12h.02a7.12 7.12 0 0 0 2.9-.1c.37-.06.7-.15 1.02-.26l.43-.18Z" fill="#34CADF"/><path d="M7.64 12.05h.04c.5.13 1.06.24 1.7.33.42.06.8.07 1.14.03l.03.03-.01.01h-.02c-.88.2-1.88.25-2.77.08l-.11-.48Z" fill="#F1B982"/><path d="M5.3 13c-.11-.1-.19-.19-.23-.24-.11-.18-.09-.2.08-.07a5.48 5.48 0 0 0 2.36.73.02.02 0 0 0-.02-.03 3.98 3.98 0 0 1-.85-.26h.23l.9.18c.46.1 1.02.1 1.44.07.12 0 .2 0 .29.06a.03.03 0 0 1 0 .03v.01c-.37.13-.78.07-1.2.1-.08 0-.09.02-.02.07.24.16.56.12.82.11.7-.02 1.36-.14 2-.36.2-.08.38-.19.62-.27.23-.08.4-.23.5-.45l.48-.32a.03.03 0 0 1 .05.02c.07.34.12.56-.2.8-.9.71-2.36.95-3.47.96-.3 0-.61-.03-.96-.08a15.21 15.21 0 0 1-1.45-.33 10.2 10.2 0 0 1-1.36-.72Z" fill="#2DBBD1"/><path d="M11.4 14.07c-.88.41-1.8.59-2.75.53a.38.38 0 0 0-.08-.17 10.73 10.73 0 0 0 1.63-.16l1.2-.2Z" fill="#A76B63"/><path d="M8.57 14.43c.04.05.07.1.08.17a5.39 5.39 0 0 1-1.8-.43 11.86 11.86 0 0 0 1.7.25h.02Z" fill="#64352A"/></svg>