<!-- by TradingView --><svg xmlns="http://www.w3.org/2000/svg" width="18" height="18"><path fill="#004022" d="M0 0h18v18H0z"/><path d="M8.24 6.22c.53-.56 1.64-1.71 1.84-1.83.25-.14 1.97-.76 2.56-.07.47.56.38 1.66.27 2.14l-1.67 2.12c-.04-.68-.1-2.14-.07-2.56.01-.08-.02-.23-.25-.22-.23.02-1.88.29-2.68.42zm-1.61 6.99l.3-.7a11 11 0 011.77-.67l-.2.48-1.87.89zM5.5 14c.2-.73.66-2.4.94-3.17-.1-.47-.32-1.5-.36-1.81.42-.6 1.36-1.9 1.8-2.31.54-.13 1.83-.4 2.58-.5-1.2 1.4-3.82 4.93-4.59 7.79H5.5zm1.6-1.94c.57-1.14 2.1-3.85 3.7-5.6.03.74.11 2.28.15 2.56L9.7 11.16c-.65.2-2.07.65-2.6.9z" fill="#00C805"/></svg>