<!-- by TradingView --><svg width="18" height="18" viewBox="0 0 18 18" xmlns="http://www.w3.org/2000/svg"><path fill="#006403" d="M0 0h18v18H0z"/><path d="M7.4 4 9 5.6 10.6 4H14v3.38L12.38 9 14 10.62V14h-3.4L9 12.4 7.4 14H4v-3.38L5.61 9 4 7.38V4h3.4Z" fill="#00C805"/><path d="M10.29 6c.24.01.4.06.5.16.14.12.27.6.18 1.22 0 .04-.02.06-.04.1-.3.4-.59.8-.86 1.2a17.7 17.7 0 0 1-.05-1.53c0-.07-.05-.1-.12-.1-.45.04-.9.12-1.34.23l-.03.01h-.02v-.04l.02-.02c.28-.35.57-.68.87-1a.4.4 0 0 1 .11-.08c.3-.1.56-.16.78-.15Zm-1.61 4.71-.04.02c-.23.09-.57.21-.87.37l-.03.04-.02.05-.03.07-.07.2-.02.04v.03h.02l.03-.02.16-.09.14-.08h.01l.59-.31.03-.04.11-.24v-.02c0-.02 0-.03-.01-.02Zm-.86-.37.1-.22c.47-.99 1.03-1.9 1.68-2.75l.01-.03v-.03h-.05c-.43.06-.86.15-1.29.27l-.07.05c-.32.43-.62.88-.9 1.34v.08s.07.6.17 1.04C7.23 10.9 7 12 7 12h.18c.17-.58.38-1.13.64-1.66Zm2-2.8v-.03L9.8 7.5h-.03l-.01.03c-.76.98-1.4 2.07-1.9 3.24l-.02.03v.03h.05c.42-.2.85-.37 1.3-.52.02 0 .04-.03.05-.05.2-.4.64-1.21.64-1.21v-.05s-.07-.96-.07-1.44Z" fill="#fff"/></svg>