<!-- by TradingView --><svg width="18" height="18" viewBox="0 0 18 18" xmlns="http://www.w3.org/2000/svg"><path fill="#F0F3FA" d="M0 0h18v18H0z"/><path d="m8.3 7-.77 1h6.98c.64 0 1.22-.42 1.49-1H8.3Zm4.79 2.5h.68c.64 0 1.22-.42 1.49-1h-1.4l-.77 1ZM11.76 11h1.26c.63 0 1.21-.42 1.48-1h-1.97l-.77 1Zm-1-1H3.5c.13.29.34.38.6.55.27.18.58.45.9.45h4.97l.78-1ZM5.44 8l.76-1H2c.28.58.85 1 1.49 1h1.96Zm1.03.5 2.5-2.95 1 .95h1.25L8.99 4 4.57 9.5h6.93l-2.51 2.95-.01-.02-1.25-1.24H6.48L8.98 14l4.43-5.5H6.48Zm-2.36 1 .78-1H2.75c.24.49.67.83 1.19.93.07.01.13.06.18.07Z" fill="#CE1417"/></svg>