<!-- by TradingView --><svg width="18" height="18" viewBox="0 0 18 18" xmlns="http://www.w3.org/2000/svg"><path fill="#181B1E" d="M0 0h18v18H0z"/><path d="M10 4c.67 0 1.28.38 1.6.99l2.17 4.1c.32.6.3 1.35-.04 1.94L13 12.36l-.52.78a1.8 1.8 0 0 1-1.53.86h-3.8a1.8 1.8 0 0 1-1.51-.84l-.9-1.39-.01-.01-.46-.82a2.02 2.02 0 0 1 0-1.99l2.32-4.02c.34-.58.93-.93 1.57-.93H10ZM8.46 6.45a.3.3 0 0 0-.52 0l-2.57 4.81a.7.7 0 0 0 .03.7l.6.93c.26.4.68.64 1.14.64h3.8c.47 0 .9-.25 1.16-.65l.28-.4H7.21c-.58 0-.94-.67-.64-1.2l.52-.97 1.7-3.22-.33-.64Zm3.98 3.03c.3.52-.06 1.19-.64 1.19H7.4l-.45.85c-.11.21.03.48.26.48h5.1c.23 0 .43-.12.55-.32l.49-.9c.26-.45.27-1 .03-1.46l-2.17-4.1c-.24-.46-.7-.72-1.2-.72h-.46l2.9 4.98ZM8.15 4.5c-.48 0-.93.24-1.18.67L4.65 9.2a1.52 1.52 0 0 0 0 1.5l.25.47 2.65-4.95a.73.73 0 0 1 1.3 0l1.8 3.26c.13.24.12.5.03.71h1.12c.23 0 .37-.26.26-.47L9.2 4.82a.63.63 0 0 0-.55-.32h-.51Zm-.49 5.7 2.34-.02c.23 0 .37-.26.26-.47l-1.2-2.14-1.4 2.62Z" fill="#fff"/></svg>