<!-- by TradingView --><svg width="18" height="18" viewBox="0 0 18 18" xmlns="http://www.w3.org/2000/svg"><path fill="#181B1E" d="M0 0h18v18H0z"/><path d="m11.79 5.2-.6-.53a.1.1 0 0 1-.03-.1c.03-.15 0-.24-.06-.27.06-.29.07-.56.01-.83 0-.05-.02-.05-.03 0l-.27 1.06c-.12-.07-.17-.24-.16-.5 0-.08-.02-.09-.06-.03a.31.31 0 0 0-.06.18.16.16 0 0 1-.05.11c-.08.08-.18.07-.29-.02l.5-.9c.1-.14.26-.4.45-.37.1.02.18.1.23.27a15.55 15.55 0 0 1 .42 1.92Z" fill="#C77C4B"/><path d="m11.1 4.3-.07.2c-.02.04-.05.07-.09.07a.28.28 0 0 1-.13-.04l.27-1.06c.01-.05.02-.05.03 0 .06.27.05.54-.01.83Z" fill="#BCAE97"/><path d="M8.74 4.65c.04.07.04.13 0 .2.09.61-.57.55-1.18.98l-.3-.56c-.02-.03-.04-.03-.06-.02-.03 0-.04.02-.03.05.05.35.1.7.29 1l.17.3c-.08.13-.15.2-.23.21-.01-.1 0-.16-.05-.25a4.55 4.55 0 0 1-.43-2.54c.02-.15.1-.22.24-.22.4 0 .93.5 1.23.75.1.09.23.1.35.1Z" fill="#DC935D"/><path d="M10.81 4.53c.05.03.1.04.13.04.04 0 .07-.03.09-.07l.07-.2c.07.03.09.12.06.27a.1.1 0 0 0 .03.1l.6.52c.05 0 .06.08.02.27-.07-.01-.15-.07-.23-.19a2.57 2.57 0 0 0-1.4-.85l.01-.15c.11.1.2.1.29.02a.15.15 0 0 0 .03-.05l.02-.06c0-.06.02-.12.06-.18.04-.06.06-.05.06.03-.01.26.04.43.16.5Z" fill="#6D3829"/><path d="m8.24 5.18-.11.2c-.05.08-.09.08-.11-.01a.54.54 0 0 0-.23-.3.22.22 0 0 0-.13-.1l-.22-.09a.16.16 0 0 1-.1-.08 1.4 1.4 0 0 1-.12-.53l.01-.06.04-.05a.12.12 0 0 1 .11-.02c.17.06.34.17.49.32.19.18.23.47.37.72Z" fill="#FAF3DD"/><path d="M10.18 4.42c.55.13 1.02.41 1.4.85l-.01.06-.02.04a.08.08 0 0 1-.08.02.08.08 0 0 1-.04-.02c-.2-.28-.4-.35-.56-.21-.01-.13-.08-.21-.2-.24a.16.16 0 0 0-.13.03.17.17 0 0 0-.07.12c0 .03 0 .05.03.09a.96.96 0 0 1-.68.06c-.1-.09-.2-.13-.27-.12-.13.01-.19.1-.2.24-.1.02-.2.07-.3.14a.16.16 0 0 0-.05.1.79.79 0 0 1-.36.54.88.88 0 0 0-.33.12.1.1 0 0 1-.1 0 .1.1 0 0 1-.04-.05.11.11 0 0 1-.01-.05c.01-.16 0-.33-.05-.52.16-.3.38-.55.63-.78.04-.06.04-.12 0-.19.47-.18.95-.25 1.44-.23Z" fill="#EDA462"/><path d="M8.74 4.84c-.25.23-.47.49-.63.78-.17.2-.27.42-.32.68-.03.16-.07.3-.12.38l-.19.36a.39.39 0 0 1-.08-.23c.08-.01.15-.08.23-.2l.12-.56c.1-.15.16-.3.2-.47 0-.04 0-.07-.02-.1l-.2-.34c-.03-.02-.02-.04.01-.05l.05-.01c.12.08.2.18.23.29.02.09.06.09.1 0l.12-.2c.12-.2.29-.31.5-.33Z" fill="#6D3829"/><path d="M10.87 5.16c-.11.14-.24.14-.37 0a.14.14 0 0 1-.03-.09.18.18 0 0 1 .07-.12.16.16 0 0 1 .13-.03c.12.03.19.1.2.24Z" fill="#FAF3DD"/><path d="M7.66 4.97c.06.03.1.06.13.1l-.05.02c-.03 0-.04.03-.02.05l.21.34c.02.03.03.06.02.1-.04.16-.1.32-.2.47l-.19-.22c-.04-.27-.01-.56.1-.86Z" fill="#8A6F57"/><path d="M9.82 5.22c.04.12.05.2.02.25 0 .01-.02.03-.04.03h-.04l-.4-.16c0-.14.06-.23.19-.24.08-.01.17.03.27.12Z" fill="#FAF3DD"/><path d="M11.58 5.27c.08.12.16.18.23.2.21.29.73.83.72 1.2l.02.64c.01.08 0 .17-.03.26l-.08.27a.92.92 0 0 1-.01-.36l.04-.21c.02-.45-.1-.83-.35-1.14a.96.96 0 0 0-.57-.4c-.06-.02-.09.02-.1.1-.05-.02-.08-.04-.1-.08.02-.14 0-.25-.08-.33-.04-.13-.13-.17-.25-.13-.18.06-.27.17-.26.31a.98.98 0 0 0-.66-.04.15.15 0 0 0-.09.07l-.15.28c-.12-.1-.24-.2-.38-.25-.37-.17-.5.25-.65.5-.04-.03-.1-.05-.19-.04.2-.14.32-.32.36-.54 0-.04.02-.07.05-.1.1-.07.2-.12.3-.14l.4.16h.05c.02 0 .03-.02.04-.03.03-.05.02-.13-.02-.25.2.07.42.05.68-.06.13.14.26.14.37 0 .17-.14.35-.07.56.2 0 .02.02.03.03.03a.08.08 0 0 0 .09-.02.09.09 0 0 0 .02-.04l.01-.06ZM7.56 5.83l.19.22-.12.55c-.05-.1-.1-.21-.17-.3-.2-.3-.24-.65-.3-1 0-.03.01-.05.04-.05.02-.01.04 0 .06.02l.3.56Z" fill="#A2593A"/><path d="M11.35 5.75a.52.52 0 0 1-.08-.33c.08.08.1.2.08.33Z" fill="#BCAE97"/><path d="M10.76 5.6c.08.09.18.13.3.13.02 0 .03.02.03.04v.05c-.18.01-.34.05-.5.13-.04 0-.06-.01-.06-.04-.26.1-.47.27-.63.5l-.22-.08c.03-.02.04-.07.04-.12l.14-.3.15-.28a.15.15 0 0 1 .1-.07c.2-.06.42-.05.65.04Z" fill="#EDA462"/><path d="M8.1 5.62c.05.19.07.36.06.52v.05l.04.05a.1.1 0 0 0 .1 0 .88.88 0 0 1 .34-.12c.09 0 .15 0 .19.04l.36.15c.07.04.15.05.25.02.05-.01.07.1.02.1-.12.02-.2.07-.25.15-.12 0-.2-.03-.2-.08a.21.21 0 0 0-.25-.14.24.24 0 0 0-.1.04c-.32.23-.62.55-.9.95-.13.2-.04.35-.07.55-.01.07.01.12.06.16.08.05.13.13.15.22.14.34.24.68.3 1.04.01.14.15.4.4.76a.14.14 0 0 1 .02.13c-.06.17-.11.32-.32.34l-.57.08a.32.32 0 0 0-.18.09.35.35 0 0 0-.09.18l-.1.5a2.09 2.09 0 0 0-.22-.69.27.27 0 0 1-.03-.11l-.01-.4c.06-.15.02-.3.03-.46.01-.18.08-.32.05-.51-.07-.4.05-.69.15-1.06.03-.09.03-.2.02-.33-.03-.28.01-.54.13-.8l.2-.36c.04-.09.08-.22.1-.38.06-.26.16-.49.33-.68Z" fill="#DC935D"/><path d="m9.86 5.9-.14.3-.05.06c-.05.05-.07.04-.06-.04A.4.4 0 0 1 9.7 6v-.04c0-.01-.01-.02-.03-.02-.02 0-.03 0-.03.02-.1.19-.21.24-.36.17-.07-.09-.13-.14-.2-.15h-.04a.07.07 0 0 0-.03.03.07.07 0 0 0 0 .07c.03.07.1.12.2.15l.03.02-.01.04a.1.1 0 0 1-.05.02l-.36-.15c.15-.25.28-.67.65-.5.14.06.26.14.38.25Z" fill="#16040A"/><path d="M12.12 6.13c.02.15-.04.24-.19.26a.8.8 0 0 0-.48-.56c.01-.08.04-.12.1-.1.21.04.4.17.57.4Z" fill="#FAF3DD"/><path d="M10.53 5.91c-.17.23-.37.41-.6.55l-.02-.01a.1.1 0 0 1 0-.04c.15-.23.36-.4.62-.5Z" fill="#BCAE97"/><path d="M9.72 6.2c0 .06-.01.1-.04.13-.12.22-.28.3-.47.25.05-.08.13-.13.25-.15h.02v-.08c0-.02-.02-.03-.04-.02-.1.03-.18.02-.25-.02a.1.1 0 0 0 .05-.02c.01-.01.02-.02 0-.04a.06.06 0 0 0-.02-.02c.06 0 .08-.04.07-.1.15.07.27.02.36-.17l.03-.02c.02 0 .03 0 .03.02V6a.4.4 0 0 0-.1.22c-.01.08 0 .1.06.04l.05-.05Z" fill="#8A6F57"/><path d="m10.6 5.95-.09.2a.1.1 0 0 0 .02.12l.24.29.13.18c.03.04-.4.41-.43.5-.04.13-.14.17-.3.15a.76.76 0 0 1-.33-.07c-.44.53-.9.79-1.36.77-.33-.01-.33.01 0 .09.24.05.52.07.84.05.2 0 .48.04.64.19.16.14.3.22.41.23.17.25.37.43.6.56.06.03.14.05.24.06.02.03.03.05.02.07-.01.02-.04.04-.07.05a1.14 1.14 0 0 1-.65-.32c-.06-.1-.14-.17-.23-.2-.04 0-.07.02-.07.07 0 .12-.06.2-.19.23-.04 0-.08 0-.12-.02a76.71 76.71 0 0 1-.66-.33v.04a.9.9 0 0 1 .29.3c.03.05.03.1.02.14 0 .03-.02.05-.04.07-.04.03-.04.06-.02.1l.13.27v.04l-.01.03c-.03.03-.09.05-.17.05L8.3 9.04c-.03-.02-.03-.05 0-.07a.07.07 0 0 0 .03-.05c0-.04 0-.07-.03-.1l-.4-.54a.37.37 0 0 0-.15-.22.15.15 0 0 1-.06-.16c.03-.2-.06-.36.07-.55.28-.4.58-.72.9-.95a.24.24 0 0 1 .1-.04h.1A.21.21 0 0 1 9 6.5c.02.05.09.08.21.08.2.05.35-.03.47-.25l.23.08a.1.1 0 0 0 0 .04h.03c.22-.13.42-.31.59-.54 0 .03.02.04.07.04Z" fill="#FAF3DD"/><path d="M9.29 6.13c0 .06-.02.1-.07.1-.1-.03-.17-.08-.2-.15a.07.07 0 0 1 0-.07l.03-.03h.04c.06.01.13.06.2.15Z" fill="#BCAE97"/><path d="M11.8 6.32c-.1.22-.21.3-.32.22.07-.1.13-.22.16-.35.01-.05.04-.05.07-.02a.4.4 0 0 1 .1.15Z" fill="#FAF3DD"/><path d="M12.44 7.84a.5.5 0 0 0-.04.26c-.1.4-.14.65-.13.79.05.4-.06.76-.32 1.06-.04.04-.03.06.02.07h.05c.04 0 .08 0 .12.03.43.31.72.71.85 1.21-.01.6-.16 1.18-.45 1.7l-.2.44-.41.52c-.03.03-.06.08-.1.08H10.8c-.83-.48-.6-.2-.8-.2-.02.11-.09.17-.2.18l-.02-.03c.13-.03-.1-.87-.11-.96-.03-.1.42-.26.5-.2.2.19.34.5.6.64a.06.06 0 0 0 .06 0l.02-.02.01-.03.06-.66c0-.07.03-.08.07-.03.1.13.23.23.38.3.04.01.09 0 .13-.02.07-.06.13-.04.18.04.08.14.15.13.2-.02.1-.34.11-.7.03-1.09-.04-.18-.15-.29-.2-.45-.14-.34-.52-.35-.71-.6l-.08-.1a.24.24 0 0 0-.1-.06l-.92-.36-.46-.47c.08 0 .14-.02.17-.05l.01-.03v-.04l-.13-.27c-.02-.04-.02-.07.02-.1a.13.13 0 0 0 .04-.07c.01-.05 0-.1-.02-.14a.9.9 0 0 0-.29-.3v-.03c0-.02.01-.02.02-.01l.64.33s1.19-2.18.7-1.77c-.1.09-.24.09-.42.01.15.02.25-.02.29-.14.14-.4.59-.3.3-.69l.27-.28h.05l.02.05v.01a1.7 1.7 0 0 0-.17.23c-.03.05-.02.09.03.12.18.12.36.07.51-.15.11.07.22 0 .33-.22.06.17.09.15.12.07.15-.02.21-.1.2-.26.25.3.36.69.34 1.14l-.04.21c-.02.1-.02.22.01.36Z" fill="#BCAE97"/><path d="M11.9 9.17c-.03 0-.06 0-.1-.02a.1.1 0 0 0-.1 0 .83.83 0 0 1-.49.12.53.53 0 0 1-.24-.06 1.79 1.79 0 0 1-.6-.56c-.16-.15-.3-.3-.42-.44-.18-.22-.22-.52-.12-.89.12.05.23.08.35.07.18.08.32.08.41-.01.2-.18.38-.34.58-.48a.13.13 0 0 1 .1-.03c.27.05.5.28.39.58-.1.26-.17.74.1.91a.1.1 0 0 1 .05.1c-.02.27.14.44.09.71Z" fill="#16040A"/><path d="M9.84 7.32c-.1.37-.07.67.11.89.12.14.26.29.42.44-.11 0-.25-.09-.41-.23-.16-.15-.44-.2-.64-.19-.32.02-.6 0-.85-.05-.32-.08-.32-.1.01-.1.47.03.92-.23 1.36-.76Z" fill="#BCAE97"/><path d="M12.99 11.26a2.1 2.1 0 0 0-.85-1.21.18.18 0 0 0-.12-.04h-.05c-.05 0-.06-.02-.02-.06.26-.3.37-.65.32-1.06-.01-.14.03-.4.13-.79.08.32.12.65.11 1 0 .1.03.2.1.32.21.3.2.73.3 1.09.09.24.1.5.08.75Z" fill="#A2593A"/><path d="m9.44 9.86.46.47c-.32.2-.44.43-.36.7a.24.24 0 0 1-.04.21l-.27.41c-.15.27-.07.56-.06.85 0 .12.03.24.1.35.14.29.26.6.38.94.01.04.06.1.13.16l.03.03V14H9.1c-.27 0-.41-.04-.5-.17-.36-.57-.72-1.15-1.07-1.74l-.16-.69.09-.5a.35.35 0 0 1 .1-.18.32.32 0 0 1 .17-.1l.57-.07c.2-.02.26-.17.32-.34a.14.14 0 0 0-.02-.13 2.3 2.3 0 0 1-.4-.76c-.06-.36-.16-.7-.3-1.04l.4.55c.02.02.03.05.03.09 0 .02-.01.04-.03.05-.03.03-.03.05 0 .07l1.14.82Z" fill="#EDA462"/><path d="M10.5 9.07c.2.19.42.3.66.32.2.05.4 0 .56-.14h.03l.02.01.02.03v.01a.89.89 0 0 1-.95.13.99.99 0 0 1-.27-.15c-.13-.1-.15-.17-.06-.21Z" fill="#16040A"/><path d="M11.9 9.17a.5.5 0 0 1 .02.2c0 .03-.01.07-.04.1-.28.32-.62.37-1 .16a.1.1 0 0 1-.06-.09c0-.03 0-.07.02-.11.34.14.66.1.95-.13V9.3l-.02-.03-.02-.01h-.03a.63.63 0 0 1-.56.14c.03 0 .06-.03.07-.05 0-.02 0-.04-.02-.07.18 0 .35-.03.5-.12a.1.1 0 0 1 .1 0c.03.02.06.03.09.02Z" fill="#8A6F57"/><path d="M7.1 10.2v.4c0 .04.02.08.04.11.11.22.2.45.23.7l.16.68.6 1.9h-.2l-.88-3.13-.03-.61.08-.04Z" fill="#6D3829"/><path d="m7.02 10.25.03.61a.1.1 0 0 1 0 .06c-.09.15-.14.34-.14.57a5.8 5.8 0 0 0 .23 1.8c.1.23.06.26-.11.1-.66-.52-.53.1-1.09.6h-.85c.2-.7.55-1.45 1.07-2.2.14-.19.15-.33.04-.42.08-.09.17-.26.28-.52.08-.17.25-.37.54-.6Z" fill="#EDA462"/><path d="M9.78 13.95a.47.47 0 0 1-.13-.16 6.95 6.95 0 0 0-.39-.94.82.82 0 0 1-.1-.35c0-.29-.08-.58.07-.85l.27-.4a.24.24 0 0 0 .04-.21c-.08-.28.04-.52.36-.7l.92.35c.04.01.07.04.1.07l.08.1c.2.24.57.25.7.59.06.16.17.27.21.45.08.39.07.75-.03 1.09-.05.15-.12.16-.2.02-.05-.08-.1-.1-.18-.04a.12.12 0 0 1-.13.01 1.01 1.01 0 0 1-.38-.29c-.04-.05-.06-.04-.07.03l-.06.66-.01.03-.02.02a.06.06 0 0 1-.06 0c-.26-.15-.49-.3-.7-.49-.07-.07-.1-.05-.07.06l.07.3c.01.05 0 .09-.03.12s-.05.04-.06.03a.08.08 0 0 0-.09 0 .08.08 0 0 0-.03.04v.05c.03.25 0 .39-.08.41Z" fill="#FAF3DD"/><path d="M7.92 14h-.5c.1 0 .18-.04.2-.1a.09.09 0 0 0 .01-.08c-.34-.7-.74-1.66-.61-2.45a2.83 2.83 0 0 0 .03-.5L7.92 14Z" fill="#A2593A"/><path d="M7.05 10.92c0 .15 0 .3-.03.45-.13.8.27 1.74.61 2.45.02.03.01.06 0 .09-.03.05-.1.09-.18.09h-1.5c.22-.52.37-1.14.39-1.76 0-.04.02-.06.05-.07a.2.2 0 0 1 .05 0c.03.15.09.31.18.48.07.3.2.55.4.74.18.16.22.13.12-.1a5.8 5.8 0 0 1-.23-1.8c0-.23.05-.42.14-.57Z" fill="#C77C4B"/><path d="M6.2 11.37c.11.09.1.23-.04.43A7.3 7.3 0 0 0 5.09 14H5c.25-.9.65-1.85 1.2-2.63Z" fill="#FAF3DD"/><path d="M9.1 14h-.98l-.6-1.91c.36.6.72 1.17 1.09 1.74.08.13.22.17.49.17Z" fill="#C77C4B"/><path d="M10.8 14H9.8v-.02c.1 0 .17-.07.19-.18a3.98 3.98 0 0 0 .1-.64h.03c.02 0 .03.01.03.03l.07.4.03.06c0 .02.02.03.04.04l.5.3Z" fill="#8A6F57"/><path d="m12.51 13.42-.15.47c-.02.07-.07.11-.15.1h-.09c-.07 0-.09-.04-.04-.1l.32-.44a.1.1 0 0 1 .11-.03Z" fill="#BCAE97"/><path d="M10.98 5.58c.04 0 .08-.03.08-.06s-.04-.06-.08-.06-.07.03-.07.06c0 .04.03.06.07.06Z" fill="#9A9A9A"/><path d="M10.86 6.07a.23.23 0 0 0-.14.14c-.02.04-.05.05-.1.02a.06.06 0 0 1-.02-.03v-.05c.04-.1.1-.16.21-.2h.05l.02.04a.06.06 0 0 1 .01.05.05.05 0 0 1-.03.03Z" fill="#BCAE97"/><path d="M7.47 9.1c.14.27.27.42.38.43a.2.2 0 0 1 .1.04l.4.33c.05.04.05.07 0 .09-.34.12-.73-.24-.92-.52a.35.35 0 0 1-.06-.17c0-.07 0-.14.04-.2v-.02a.03.03 0 0 1 .06.02ZM11.7 8.92c-.04-.04-.1-.05-.19-.04.06-.02.1-.05.11-.08.02-.04 0-.08-.03-.09-.41-.13-.75-.4-1.03-.8a.06.06 0 0 0-.04-.03c-.08-.01-.11.04-.1.15.02.09.05.17.1.25a.4.4 0 0 1 .08.23.5.5 0 0 1-.3-.33c-.04-.13-.1-.19-.2-.27a.1.1 0 0 1-.03-.05c-.02-.06.02-.12.08-.12.02 0 .04 0 .06.02.03.04.06.04.1.01a.32.32 0 0 1 .28-.06c.1.02.22.01.33-.02a.24.24 0 0 1 .27.1c.14.18.28.36.44.52.14.15.19.34.13.56 0 .01 0 .02-.02.03a.07.07 0 0 1-.04.02Z" fill="#A2593A"/><path d="M11.51 8.88h-.38a.09.09 0 0 0-.05-.02c-.08-.41-.2-.48-.37-.2l-.11-.15a.4.4 0 0 0-.08-.23.67.67 0 0 1-.1-.25c-.01-.11.02-.16.1-.15.02 0 .03.01.04.03a1.94 1.94 0 0 0 1.05.81l.01.03a.07.07 0 0 1 0 .05c-.01.03-.05.06-.11.08Z" fill="#EDA462"/><path d="M11.08 8.86a.24.24 0 0 0-.11-.02c-.04 0-.05.02-.02.05.02.03.05.05.09.07.13.06.13.1-.02.1-.1 0-.15-.06-.16-.17a.27.27 0 0 0-.05-.11l-.1-.12c.17-.28.29-.21.37.2ZM11.5 8.88c.1 0 .16 0 .2.04-.05.08-.14.13-.27.13-.16 0-.26-.05-.3-.16h.38Z" fill="#8A6F57"/><path d="M11.27 5.42c0 .13.02.24.08.33.02.04.05.06.1.08.25.1.41.29.48.56.1.34.06.66-.15.96h-.02l-.03-.02-.01-.02v-.02c.2-.3.22-.63.1-.97a.4.4 0 0 0-.1-.15c-.04-.03-.06-.03-.08.02-.03.13-.09.25-.16.35-.15.22-.32.27-.51.15-.05-.03-.06-.07-.03-.12a1.7 1.7 0 0 1 .17-.24l-.02-.04c-.02-.02-.03-.02-.05 0l-.28.27-.23-.3a.1.1 0 0 1-.02-.1l.09-.2c.15-.09.31-.13.48-.14l.02-.01v-.04c0-.02-.02-.04-.04-.04a.42.42 0 0 1-.3-.13c0-.14.08-.25.26-.31.12-.04.2 0 .25.13Z" fill="#16040A"/></svg>