<!-- by TradingView --><svg width="18" height="18" viewBox="0 0 18 18" xmlns="http://www.w3.org/2000/svg"><path fill="url(#a)" d="M0 0h18v18H0z"/><path d="m7.31 9.32 1.7 1.66a.02.02 0 0 0 .03 0l1.66-1.63.03-.02c.01 0 .03 0 .03.02l.56.54v.04l-1.83 1.8a.13.13 0 0 0-.04.1v1.16a.01.01 0 0 1-.02 0l-.8.01a.03.03 0 0 1-.03 0v-1.17a.15.15 0 0 0-.05-.1L6.69 9.9v-.02l.58-.56.02-.01h.02Zm5.27.03 1.41 1.4v.01l-2.18 2.16-.02.01h-.02l-.58-.58v-.02l1.59-1.57v-.02l-.81-.8v-.02l.58-.57.02-.01h.01Zm-7.13 0 .58.57v.02l-.8.8-.01.01v.02l1.59 1.55v.02l-.58.58H6.2L4 10.77v-.02l1.41-1.4.02-.01h.02Zm.76-4.28h.01l.58.58v.01a.02.02 0 0 1 0 .02L5.24 7.25v.02l.8.8v.02a.02.02 0 0 1 0 .01l-.59.59h-.02L4.02 7.28v-.03l2.17-2.18h.02ZM9.44 5l.01.02V6.2l.01.02 1.87 1.84v.03l-.57.56a.03.03 0 0 1-.03.01L9.03 7 9.01 7H9L7.3 8.69l-.01.01a.03.03 0 0 1-.02 0h-.01l-.57-.56v-.04l1.9-1.87V5.02L8.6 5 8.62 5H9.44Zm2.37.07 2.18 2.17v.02l-1.42 1.4-.02.01h-.01l-.58-.58v-.02l.81-.8v-.01a.02.02 0 0 0 0-.01L11.2 5.67v-.02l.59-.58h.03Z" fill="#fff"/><defs><linearGradient id="a" x1="3.35" y1="3.12" x2="21.9" y2="24.43" gradientUnits="userSpaceOnUse"><stop stop-color="#1A1E21"/><stop offset="1" stop-color="#06060A"/></linearGradient></defs></svg>