<!-- by TradingView --><svg width="18" height="18" viewBox="0 0 18 18" xmlns="http://www.w3.org/2000/svg"><path fill="#F0F3FA" d="M0 0h18v18H0z"/><path fill-rule="evenodd" d="M14 9A5 5 0 1 1 4 9a5 5 0 0 1 10 0Zm-.3 0a4.7 4.7 0 1 1-9.4 0 4.7 4.7 0 0 1 9.4 0Zm-1.11-.16.41-.42L10.63 6 8.45 8.23 7.39 7.14 5.93 8.63l.19.19 1.27-1.3.87.9-1.43 1.47-1.44-1.47 2-2.04 1.27 1.3.18-.2L7.4 6 5.02 8.42l2.37 2.42 3.22-3.3.38.38-3.62 3.7-2-2.04.23-.23-.19-.19-.41.42L7.37 12l2.18-2.23 1.06 1.09 1.46-1.49-.19-.19-1.27 1.3-.87-.9 1.43-1.47 1.44 1.47-2 2.04-1.27-1.3-.18.2L10.6 12l2.37-2.42-2.37-2.42-3.22 3.3-.38-.38 3.62-3.7 2 2.04-.23.23.19.19Z" fill="#18E010"/></svg>