<!-- by TradingView --><svg width="18" height="18" viewBox="0 0 18 18" xmlns="http://www.w3.org/2000/svg"><path fill="#181B1E" d="M0 0h18v18H0z"/><path fill-rule="evenodd" d="M11 12a3 3 0 1 0 0-6 3 3 0 0 0 0 6Zm0-1a2 2 0 1 0 0-4 2 2 0 0 0 0 4ZM6 7.26c0-.14.12-.26.27-.26h.46c.15 0 .27.12.27.26v3.48c0 .14-.12.26-.27.26h-.46a.26.26 0 0 1-.27-.26V7.26ZM4.27 8c-.15 0-.27.06-.27.13v1.74c0 .07.12.13.27.13h.46c.15 0 .27-.06.27-.13V8.13C5 8.06 4.88 8 4.73 8h-.46Z" fill="url(#a)"/><defs><linearGradient id="a" x1="14.9" y1="8.42" x2="4" y2="8.42" gradientUnits="userSpaceOnUse"><stop stop-color="#BBFA55"/><stop offset="1" stop-color="#70EDF5"/></linearGradient></defs></svg>