<!-- by TradingView --><svg width="18" height="18" viewBox="0 0 18 18" xmlns="http://www.w3.org/2000/svg"><path fill="url(#a)" d="M0 0h18v18H0z"/><path d="M13.77 7.92c-.04.04-.08.02-.13-.06-.26-.38-.6-.67-1.02-.87-.21-.1-.39-.2-.53-.3-.46-.32-.8-.75-.98-1.3a1.59 1.59 0 0 0-.16-.27 2.15 2.15 0 0 0-1.3-.96c-.2-.05-.37-.04-.57-.05-.2-.01-.4 0-.6.05a2.4 2.4 0 0 0-.63.28c-.28.16-.51.39-.69.7-.11.2-.2.43-.31.6-.22.35-.5.65-.84.88-.23.16-.55.27-.77.4-.44.24-.75.6-.92 1.07a.73.73 0 0 0-.03.2l-.04.2a.58.58 0 0 0-.01.2.3.3 0 0 0-.09.14.62.62 0 0 0-.08-.45c.16-.63.5-1.1 1.04-1.42.24-.14.57-.24.8-.38.37-.22.65-.53.86-.95l.21-.41c.5-.9 1.3-1.28 2.28-1.21.86.05 1.56.55 1.93 1.33.08.17.17.42.28.59.26.4.6.71 1.03.9l.47.23c.33.21.6.5.8.86Z" fill="#FDFEE9"/><path d="M10.54 4.62c0 .14.06.26.16.36V5c-.47.64-1 1.15-1.64 1.48-.75.39-1.72.6-2.2 1.43-.55.93-.4 2.2.54 2.79.27.17.57.3.9.37a889.22 889.22 0 0 0 1.59.4c.44.18.86.37 1.36.43l-.22.35c-.32.47-.7.8-1.13 1-.13.06-.27.1-.43.12-.59.05-1.1.06-1.56-.3a2.8 2.8 0 0 1-.65-.68c-.1-.16-.16-.32-.25-.53a.74.74 0 0 0-.16-.23c-.2-.16-.38-.34-.52-.53-.12-.15-.28-.3-.41-.36-.32-.18-.6-.35-.86-.52-.32-.2-.45-.41-.7-.77a.63.63 0 0 1-.1-.2c-.05-.22 0-.37-.02-.57-.01-.07 0-.13.01-.2a.95.95 0 0 0 .04-.2c0-.09 0-.16.03-.2.17-.47.48-.83.92-1.07.22-.13.54-.24.77-.4.34-.23.62-.53.84-.88.1-.17.2-.4.31-.6.18-.31.4-.54.69-.7.27-.16.48-.25.64-.28.2-.05.4-.06.6-.05.2.01.36 0 .55.05.34.08.64.24.9.46Z" fill="#F5D165"/><path d="M10.54 4.62c.17.15.3.31.41.5.1.62.08 1.21-.53 1.55-.43.23-.95.34-1.36.5l-1.58.6c-.06.03-.08.06-.13.1-.03.01-.05.04-.06.09-.24.65-.3 1.19-.06 1.84.03.08.07.22.13.3.04.06.1.11.2.15.6.26 1.24.38 1.91.36 1.27-.03 2.3-.03 3.3-.08.09 0 .16-.03.2-.06l.26-.2c.02-.02.03-.03.05-.02.02.01.02.02.01.04l-.05.1c-.2.21-.38.36-.55.46-.08.04-.23.1-.45.17-.4.2-.74.5-1 .89-.5-.06-.9-.25-1.35-.43a881.61 881.61 0 0 1-1.6-.4 3 3 0 0 1-.9-.37c-.93-.6-1.08-1.86-.53-2.79.48-.82 1.45-1.04 2.2-1.43a4.76 4.76 0 0 0 1.64-1.48v-.03a.5.5 0 0 1-.16-.36Z" fill="#E2BF54"/><path d="M10.95 5.12c.09.13.14.22.16.27.19.55.52.98.98 1.3.14.1.32.2.53.3a.1.1 0 0 1-.09 0c-.02 0-.02 0-.01.01 0 .02.02.03.04.04l.05.03c.05.05.18.1.24.16.16.12.29.24.38.34.16.16.26.4.4.58.04.06.04.1.08.18l.04.15.04.38c.03.2.03.32.03.38a1.9 1.9 0 0 1-.58 1.16l.05-.11v-.04l-.06.01-.25.2a.35.35 0 0 1-.2.07c-1 .05-2.04.05-3.31.08-.67.02-1.3-.1-1.92-.36a.43.43 0 0 1-.19-.14c-.06-.1-.1-.23-.13-.3a2.46 2.46 0 0 1 .06-1.85c.01-.05.03-.08.06-.1.05-.03.07-.06.13-.08l1.58-.61c.41-.16.93-.27 1.36-.5.61-.34.63-.93.53-1.55ZM8.12 7.97a1.2 1.2 0 0 0-.67-.01v.02c-.02.03 0 .06.02.1.02.04.06.07.14.05a.02.02 0 0 1 .02.01.02.02 0 0 1 0 .02l-.05.05v-.03a.02.02 0 0 0-.02-.02h-.01c-.04-.01-.07 0-.1.02a2.3 2.3 0 0 0-.01 1.68c0 .02.02.03.03.03l.02.01c-.07.06-.07.11-.01.15 0 .02 0 .04.03.04a39.4 39.4 0 0 1 .58.01.08.08 0 0 0 .02-.06.1.1 0 0 0-.04-.06l-.16-.13a.06.06 0 0 1-.02-.05V8.17h.09c.02 0 .03.01.03.03v1.58c0 .06.03.11.09.1l.56-.02c0 .03.02.03.03.02a8.63 8.63 0 0 0-.03.13c0 .02.02.02.05.02l-.01.02c-.01.02 0 .03.01.03a8.62 8.62 0 0 1 .51.01v-.03c.04.04.07.05.1.03v-.05a.58.58 0 0 0-.18-.18c-.02-.01-.03 0-.02.02l.02.06c-.05.1-.14.12-.29.09-.02 0-.02-.02-.02-.04l.02-.12.02.06c0 .02.02.03.03.03H9a.07.07 0 0 0 .07-.04V9.9c.02-.03.01-.04-.02-.04h-.13c-.02 0-.03-.01-.03-.03V8.2c0-.02.01-.03.03-.03H9.1c.04-.03.1-.03.14 0h.05l.6-.02H10c.28.04.49.19.62.44.01.13.06.27.01.4v.05c.02.14-.02.23-.12.26a.9.9 0 0 1 .11-.3v-.04c-.01-.02-.03-.02-.04-.01-.1.07-.13.13-.1.18a.55.55 0 0 1-.3.1c-.32 0-.64 0-.95.04-.01-.03-.04-.04-.08-.01a.05.05 0 0 0-.03.03c-.02.05 0 .09.06.1l.1.04a.3.3 0 0 0-.16.01.06.06 0 0 0-.04.04.65.65 0 0 0-.03.34h.03a.31.31 0 0 1 .05-.24v.07c.02.02.03.02.05.02.08-.04.11-.07.1-.11.04-.04.05-.08.05-.12v.03c0 .02.02.03.04.03a10 10 0 0 1 .72-.02.5.5 0 0 0 .4-.16c.13 0 .23-.06.3-.2a.04.04 0 0 0-.01-.05c-.06-.03-.07-.1-.05-.18.04.06.08.1.12.1a.03.03 0 0 0 .03-.02v-.03l-.1-.13c-.02-.02-.03-.02-.04 0v.08c-.04-.01-.05-.03-.05-.06 0-.12-.03-.24-.06-.37a.64.64 0 0 1-.16-.23c.22.15.24.33.38.52.03.05.05.04.05-.02.01-.36-.14-.6-.44-.73-.1-.04-.3-.07-.4-.07h-1.4c-.2.06-.39.07-.55.04Zm1.15.46-.03.01c-.11-.01-.17.03-.17.15l-.01.05v.02c0 .02.01.03.03.01l.04-.04.01.05h.04a.15.15 0 0 1 .12-.03c-.2.07-.13.33 0 .44.05.03.1.05.18.05h.8c.19-.1.24-.26.18-.5-.02-.06-.09-.1-.21-.11-.2-.08-.43-.1-.66-.06l-.27-.11c.33-.04.63-.03.9.03.13.03.14 0 .03-.07a.38.38 0 0 0-.19-.06 3.85 3.85 0 0 0-.79.01c-.07-.04-.12-.03-.14.05a.05.05 0 0 0 0 .05c.04.03.09.05.14.06Z" fill="#CDAA3C"/><path d="M12.62 7c.42.19.76.48 1.02.86.05.08.1.1.13.06.15.28.22.6.23.94v.37l-.04.3c-.15.38-.3.66-.46.85a6.27 6.27 0 0 1-.51.52c0 .02 0 .05.02.07-.18.13-.4.23-.63.3l.1-.26c0-.01 0-.02-.02-.02l-.22.03c.22-.07.37-.13.45-.17.17-.1.35-.25.55-.45.33-.32.52-.7.58-1.16 0-.06 0-.19-.03-.38a14.5 14.5 0 0 1-.08-.53c-.04-.07-.04-.12-.09-.18-.13-.19-.23-.42-.39-.58-.1-.1-.22-.22-.38-.34-.06-.05-.2-.11-.24-.16l-.05-.03a.1.1 0 0 1-.04-.04c-.01-.01 0-.02.01-.01a.1.1 0 0 0 .1 0Z" fill="#826102"/><path d="M8.68 7.93c-.04.02-.04.07-.01.15l-.01 1.78-.56.03a223.86 223.86 0 0 0 .02-1.92c.16.03.35.02.56-.04Z" fill="#907B3A"/><path d="M8.12 7.97a224.92 224.92 0 0 1-.02 1.92c-.06 0-.1-.05-.1-.11V8.2c0-.02 0-.03-.02-.04h-.03l-.48-.09c-.03-.03-.04-.06-.03-.09l.01-.02.03-.01a1.2 1.2 0 0 1 .64.02ZM10.48 8.23a.75.75 0 0 0-.47-.07l-.13-.01-1.1-.03a.23.23 0 0 1-.11-.04c-.03-.08-.03-.13 0-.15h1.4c.1 0 .3.03.4.07.3.12.45.37.44.73 0 .06-.02.07-.05.02-.14-.19-.16-.37-.38-.52Z" fill="#FFFFFE"/><path d="M7.95 8.16H7.9V9.8l.01.05.16.13a.1.1 0 0 1 .04.06c0 .02 0 .05-.02.06h-.05l-.14-.2h-.03c-.04.06-.1.08-.18.07a.04.04 0 0 1-.03-.04V9.9c-.01-.03-.03-.03-.04-.01l-.14.16c-.06-.04-.06-.09 0-.14v-.02a.05.05 0 0 1-.04-.03 2.3 2.3 0 0 1 .02-1.68v1.68l.04.01c.03.01.05 0 .07-.04l.01-1.62.05-.05a.02.02 0 0 0 0-.02.02.02 0 0 0-.02 0c-.08 0-.12-.02-.14-.07l.48.1Z" fill="#FDE791"/><path d="M8.78 8.12c-.04.01-.04.02.01.02.01 0 .02.01.01.02l-.02.09v1.54c0 .04-.03.07-.09.09-.01.01-.02 0-.03-.02V8.08c.05.03.1.04.12.04Z" fill="#2F2401"/><path d="m8.78 8.12 1.1.03-.6.02h-.05a.18.18 0 0 0-.14 0 .12.12 0 0 1-.05 0h-.12c-.02 0-.03.01-.03.03v1.63c0 .02.01.03.03.03h.13c.03 0 .04.01.03.04l-.01.02a.07.07 0 0 1-.07.04h-.1c-.01 0-.03-.01-.03-.03a.17.17 0 0 0-.02-.06c-.06.05-.1.1-.14.16-.03 0-.04 0-.05-.02v-.05l.03-.08c.06-.02.09-.05.09-.1V8.26l.02-.09v-.02c-.06 0-.06 0-.02-.02Z" fill="#FDE791"/><path d="M7.55 8.16c.02.02.02.04.02.08a38 38 0 0 0 0 1.6c-.02.03-.04.04-.07.03l-.03-.01a.06.06 0 0 1-.02-.04V8.18c.03-.03.06-.03.1-.02Z" fill="#2F2401"/><path d="M7.7 9.86h-.01V8.2l.01-.02.01-.01h.11l.01.01.01.05v1.6l-.01.02H7.7Z" fill="#CDAA3C"/><path d="m9.32 8.36-.07-.01c-.01 0-.02-.01-.01-.03a.1.1 0 0 1 .03-.05c.26-.03.52-.03.8 0 .08 0 .14.02.18.05.1.07.1.1-.03.07a2.55 2.55 0 0 0-.9-.03Z" fill="#FDE791"/><path d="M4.07 8.38c.08.13.11.28.08.45-.06.13-.02.32 0 .52 0 .06 0 .13.03.18 0 .02.01.02.01 0V9.4c0-.07.02-.07.05-.01a.83.83 0 0 1 .02.06h-.01l-.01-.02h-.02a.02.02 0 0 0-.02.02l-.01.15-.18-.4c-.02-.27 0-.55.06-.82Z" fill="#F5D165"/><path d="M9.59 8.47c.23-.03.45-.02.66.06-.03.04-.02.08.03.11l.08.04c.02 0 .03.02.04.04.06.12 0 .24-.1.33-.07.05-.07.08-.02.09h-.43c.23.02.4-.06.5-.23a.1.1 0 0 0 0-.1l-.02-.02c-.03-.05-.05-.06-.09-.01-.06.08-.12.13-.2.13a595.12 595.12 0 0 1-.72-.02.06.06 0 0 1 0-.04.5.5 0 0 0-.02-.2.15.15 0 0 0-.12.02h-.04l-.01-.04c0-.09.06-.11.16-.07.02 0 .03 0 .03-.03v-.05c0-.02 0-.03-.02-.03h-.06l.03-.02h.06l.01.02v.02c.01.05.01.05.01-.01l.01-.03.01.01v.03c0 .01 0 .02.02.02.07 0 .14 0 .2-.02Z" fill="#907B3A"/><path d="M9.24 8.44h.06c.02.01.02.02.02.04v.05c0 .03 0 .04-.03.03-.1-.04-.15-.02-.16.07l-.04.04c-.02.02-.03.01-.03 0v-.03a.6.6 0 0 0 .01-.05c0-.12.06-.16.17-.15Z" fill="#FDFEE9"/><path d="M10.75 8.89c-.03.09-.02.15.04.18a.04.04 0 0 1 .01.06c-.07.13-.17.2-.3.2l.02-.03c.1-.03.14-.12.12-.26v-.06c.05-.12 0-.26-.01-.4a.38.38 0 0 0 .01-.12c.03.13.05.25.05.37 0 .03.02.05.06.06Z" fill="#FFFFFE"/><path d="M10.25 8.53c.12.01.2.05.2.12.07.23.02.4-.17.49-.05 0-.05-.04.02-.1.1-.08.16-.2.1-.32a.07.07 0 0 0-.04-.04.44.44 0 0 1-.08-.04c-.05-.03-.06-.07-.03-.11Z" fill="#FDFEE9"/><path d="M4.24 8.7c.01.19-.03.34.03.55.01.07.04.14.09.2.25.37.38.57.7.78.26.17.54.34.86.52.13.07.3.21.4.36.15.2.33.37.53.53.05.04.13.15.16.23.1.21.15.37.25.53.18.27.4.5.65.69.46.35.97.34 1.56.29.16-.02.3-.06.43-.11.43-.2.8-.54 1.13-1-.15.42-.4.75-.74 1l-.12.06a.22.22 0 0 0-.1.12c-.04.12-.1.18-.18.2a.53.53 0 0 0-.21.11.12.12 0 0 1-.05.02l-.25.09a.2.2 0 0 0-.11.12 2.32 2.32 0 0 1-2.33-1.14v-.03l.01-.02h.02a.04.04 0 0 1 .04 0c.24.35.54.61.9.8.2.1.45.16.64.16.06 0 .09-.03.08-.09 0-.02 0-.03-.02-.03l-.33-.11.32.03h.01l.01-.02-.01-.03c-.37-.1-.62-.2-.76-.27a1.88 1.88 0 0 1-.7-.7c-.14-.21-.25-.55-.4-.78a3.07 3.07 0 0 0-1.3-1.11c-.2-.1-.33-.18-.4-.23-.31-.21-.6-.5-.75-.85a.03.03 0 0 0-.03-.02h-.02a.02.02 0 0 0-.02 0 .02.02 0 0 0 0 .02l.11.33a.88.88 0 0 1-.15-.3v-.15l.01-.02h.04v.01l.02.01a.83.83 0 0 0-.02-.06c-.03-.06-.04-.06-.04 0v.14c-.01.02-.02.02-.02 0a.72.72 0 0 1-.04-.18c-.01-.2-.05-.39.01-.52a.3.3 0 0 1 .09-.14Z" fill="#FDE791"/><path d="M9.3 8.65a.5.5 0 0 1 .01.2.06.06 0 0 0 .01.04.06.06 0 0 0 .05.02h.67c.08 0 .14-.05.2-.13.04-.05.06-.04.09 0l.01.03a.1.1 0 0 1 0 .1c-.1.17-.26.25-.5.23h-.36a.29.29 0 0 1-.18-.05c-.13-.11-.2-.37 0-.44Z" fill="#FFFFFE"/><path d="M9.09 8.88c.04.1.1.2.18.26.02 0 .02.01 0 .02h-.08a.1.1 0 0 1-.05-.05.52.52 0 0 1-.08-.33.01.01 0 0 1 .01 0c.01.02.02.04.01.06v.04Z" fill="#FDE791"/><path d="m10.52 9.3-.01.02a.5.5 0 0 1-.4.16c-.3 0-.54 0-.73.02-.02 0-.03-.01-.04-.03v-.03l-.06-.01a.32.32 0 0 0-.1-.04c-.05-.01-.07-.05-.05-.1 0-.01.01-.03.03-.03.04-.03.07-.02.08 0-.03.06 0 .08.11.08.17.12.38.15.65.12a.6.6 0 0 0 .4-.2c.08-.07.11-.11.09-.13-.03-.05 0-.1.1-.18h.04V9a.9.9 0 0 0-.1.3Z" fill="#2F2401"/><path d="m4.16 9.1.02.08c.01 0 .02-.04.02-.09 0-.05-.01-.09-.02-.09s-.02.04-.02.1Z" fill="#FDFEE9"/><path d="M10.49 9.13c.02.02 0 .06-.08.12a24.61 24.61 0 0 1-.45.08l-.6.01c-.12 0-.15-.02-.12-.07.31-.04.63-.05.96-.04.07 0 .17-.03.29-.1Z" fill="#FDE791"/><path d="M4.19 9.6c.03.1.08.2.15.3.18.3.43.55.75.72l.59.3.45.32c.34.27.57.6.74.97l.22.49c.27.43.67.71 1.19.83l.33.1.02.04c0 .06-.02.09-.08.09-.2 0-.45-.06-.63-.16a2.5 2.5 0 0 1-.92-.8.04.04 0 0 0-.05 0v.05l-.34-.74a1.95 1.95 0 0 0-1.12-1.12 4.53 4.53 0 0 1-.47-.24l-.46-.26c-.3-.34-.49-.77-.55-1.28l.18.39ZM10.4 9.25a.6.6 0 0 1-.4.2.88.88 0 0 1-.65-.11 30.83 30.83 0 0 1 .83-.04l.23-.05Z" fill="#CDAA3C"/><path d="m9.28 9.43.06.01c0 .04-.01.08-.05.12-.06-.05-.11-.04-.15.02a.31.31 0 0 0-.05.24h-.03a.65.65 0 0 1 .03-.34l.04-.04a.3.3 0 0 1 .15-.01Z" fill="#FDFEE9"/><path d="M9.3 9.56c0 .04-.03.07-.11.1h-.04c-.01-.02-.02-.05-.01-.08.04-.06.09-.07.15-.02Z" fill="#2F2401"/><path d="M8.28 13.53a1.8 1.8 0 0 1-1.2-.83 7.9 7.9 0 0 1-.21-.49c-.17-.37-.4-.7-.74-.97a3.7 3.7 0 0 0-1.04-.62 1.9 1.9 0 0 1-.75-.72l-.1-.33a.02.02 0 0 1 0-.01.02.02 0 0 1 .01-.01h.02c.02 0 .03 0 .03.02.16.36.44.64.75.85l.4.23c.55.27.97.59 1.3 1.11.15.23.26.57.4.79.2.31.43.54.7.69a4.71 4.71 0 0 0 .77.3v.01H8.6l-.32-.02Z" fill="#FDFEE9"/><path d="M13.96 9.54c-.1.61-.42 1.09-.95 1.43a.18.18 0 0 1-.02-.07.05.05 0 0 1 .01-.05c.26-.23.43-.39.5-.47.16-.19.31-.47.46-.84Z" fill="#FDE791"/><path d="M9.32 9.88a.1.1 0 0 1-.08-.02.1.1 0 0 1-.03-.07v-.01c0-.03 0-.05.02-.07a.1.1 0 0 1 .07-.04h.01l.01.21Z" fill="#FDFEE9"/><path d="m9.23 10.06-.09-.12-.02-.06c-.01-.03 0-.03.02-.02.07.05.13.1.18.18v.05c-.03.02-.06 0-.1-.03Z" fill="#FDE791"/><path d="M6.6 12.1a2.6 2.6 0 0 0-1.33-1.06c-.24-.1-.48-.28-.71-.55l.46.26c.13.08.28.16.47.24.2.1.36.19.5.29.26.2.47.47.62.83Z" fill="#FDFEE9"/><path d="m12.38 11.27-.1.06h-.03c-.02 0-.02-.02-.01-.03.01-.02.02-.04 0-.06 0-.02-.01-.03-.03-.02-.33.14-.56.4-.77.68-.2.28-.3.62-.5.9a12.16 12.16 0 0 1-.26.37l.02.02h.02l.04.02c-.4.45-.9.71-1.5.78a.2.2 0 0 1 .12-.12l.25-.09c.02 0 .03 0 .05-.02.07-.06.14-.1.21-.11.08-.02.14-.08.18-.2.02-.06.05-.1.1-.12l.12-.07c.35-.24.6-.57.74-1l.22-.35c.25-.4.58-.7.99-.9l.22-.02c.02 0 .02 0 .02.02l-.1.26Z" fill="#6D5001"/><path d="M12.27 11.33h-.05v.03c-.35.2-.63.46-.85.8-.13.2-.23.48-.35.7-.06.1-.15.22-.26.35l-.04-.02h-.02l-.02-.02v-.04c.12-.14.2-.25.26-.34.2-.27.3-.6.5-.89.2-.29.44-.54.77-.68.02 0 .03 0 .04.02l-.01.06v.03h.03Z" fill="#FDE791"/><defs><linearGradient id="a" x1="3.35" y1="3.12" x2="21.9" y2="24.43" gradientUnits="userSpaceOnUse"><stop stop-color="#1A1E21"/><stop offset="1" stop-color="#06060A"/></linearGradient></defs></svg>