<!-- by TradingView --><svg width="18" height="18" viewBox="0 0 18 18" xmlns="http://www.w3.org/2000/svg"><path fill="url(#a)" d="M0 0h18v18H0z"/><path d="M13.74 8.89a1.98 1.98 0 0 1-.37 2.43c-.4.38-.9.59-1.51.61l-.02.01c-.22.36-.52.63-.9.81a2.4 2.4 0 0 1-1.22.25 2.33 2.33 0 0 1-1.58-.7l-.14.02a1.95 1.95 0 0 1-1.99-.83l-.02-.01a2.07 2.07 0 0 1-1.66-.9 1.81 1.81 0 0 1-.26-1.55c.13-.44.39-.8.8-1.08v-.01c.04-.5.27-.92.69-1.25a2.14 2.14 0 0 1 .86-.42A2.41 2.41 0 0 1 8.4 5a2.43 2.43 0 0 1 1.58.42h.02a2.1 2.1 0 0 1 2.07.49 1.91 1.91 0 0 1 .49.75v.01c.52.12.9.39 1.14.8.12.22.19.45.2.69 0 .24-.05.47-.15.7v.03Z" fill="#F0F0F0"/><path d="M12.28 6.97c.44.03.78.21 1.02.53a1.19 1.19 0 0 1 .05 1.38v.02a1.69 1.69 0 0 1-.4 2.34c-.38.27-.8.4-1.3.36h-.02c-.22.45-.56.76-1.03.94-.45.17-.92.18-1.38.04-.39-.12-.7-.34-.95-.66h-.02a1.65 1.65 0 0 1-1.4-.1 1.47 1.47 0 0 1-.63-.67l-.02-.01a1.8 1.8 0 0 1-1.1-.26 1.63 1.63 0 0 1-.71-.98c-.06-.24-.06-.49 0-.74.11-.44.38-.78.81-1.03l.01-.01c0-.32.07-.6.24-.83a1.7 1.7 0 0 1 1-.68 2.9 2.9 0 0 1 .22-.06 1.98 1.98 0 0 1 1.41-1.17 2.12 2.12 0 0 1 1.83.42h.02c.3-.14.63-.18.97-.12.34.05.63.2.87.41.26.24.42.52.49.87h.02Z" fill="#123849"/><path d="M9.36 6.72h.03a.1.1 0 0 0 .1-.04 1.36 1.36 0 0 1 .85-.64 1.32 1.32 0 0 1 1.25.37c.19.2.3.46.33.75 0 .01 0 .02-.02.02-.13.03-.26.1-.4.2-.05.04-.05.09-.01.14.04.05.1.06.15.02a1 1 0 0 1 .41-.2.44.44 0 0 1 .11-.01c.25-.02.47.05.66.2a.87.87 0 0 1 .18 1.2h-.02l-.2-.16c-.06-.04-.1-.04-.15.01-.05.06-.04.1 0 .14.2.16.32.26.35.3.09.09.16.21.22.38.13.36.12.71-.05 1.06-.12.24-.3.44-.55.58-.3.18-.64.25-1.02.2l-.02-.03a1.33 1.33 0 0 0-.03-.6c-.02-.05-.02-.1 0-.12 0-.04.02-.07.03-.1.04-.13.06-.27.07-.41 0-.01 0-.02.01-.01.2.02.4.01.6-.03.07-.01.1-.05.1-.1l-.01-.04c-.03-.05-.06-.07-.12-.06-.19.04-.38.05-.58.02l-.01-.01c-.05-.36-.2-.67-.47-.93a1.5 1.5 0 0 0-.7-.38l-.02-.02c0-.18-.04-.35-.11-.51v-.03a1.57 1.57 0 0 1 .37-.66c.04-.05.04-.1 0-.14h-.01c-.05-.04-.1-.04-.14 0-.16.16-.29.35-.37.55h-.01a1.65 1.65 0 0 0-1.44-.62L8.71 7c-.06-.12-.1-.24-.11-.38 0-.06-.04-.1-.11-.1v.01c-.07 0-.1.04-.1.1 0 .14.04.27.1.4v.02c-.12.02-.23.05-.34.1h-.02A1.7 1.7 0 0 0 7 6.72H7c.14-.36.38-.63.71-.82a1.72 1.72 0 0 1 1.1-.2c.33.04.63.17.9.4v.02c-.17.12-.3.27-.4.46-.03.06-.02.1.05.14Z" fill="#FF5DA8"/><path d="M6 8.2v-.02c-.02-.06-.06-.08-.12-.08-.09 0-.17.02-.27.05l-.02-.01a.97.97 0 0 1 .07-.48c.06-.14.15-.27.27-.38.11-.1.25-.19.4-.26.16-.06.32-.1.49-.12.42-.03.8.08 1.12.33v.02c-.15.1-.27.2-.38.34-.04.05-.03.1.03.15a.1.1 0 0 0 .07 0c.03 0 .05 0 .07-.03a1.45 1.45 0 0 1 .44-.36.84.84 0 0 1 .17-.08 1.53 1.53 0 0 1 1.54.32c.2.2.33.46.37.78 0 .01 0 .02-.03.02-.48-.03-.9.12-1.23.45-.05.05-.04.1.02.15a.1.1 0 0 0 .07.02l.06-.03a1.35 1.35 0 0 1 1.2-.38l.12.02a1.37 1.37 0 0 1 .95 1.63c0 .02-.02.02-.03 0a1.54 1.54 0 0 0-.44-.46c-.05-.04-.1-.03-.14.02-.04.05-.04.1.01.14.21.16.36.33.46.52.08.17.12.34.13.51 0 .16-.04.32-.11.49-.14.3-.37.53-.7.69-.38.18-.78.21-1.2.1a1.47 1.47 0 0 1-.95-.75c-.02-.05-.06-.06-.12-.02-.37.2-.74.25-1.1.11a1.2 1.2 0 0 1-.68-.6 2.3 2.3 0 0 1-.1-.4 1.17 1.17 0 0 1 .68-1.19c.05-.02.06-.06.04-.12-.04-.06-.09-.07-.15-.05-.14.07-.27.16-.38.28H6.6a1.4 1.4 0 0 0-1.13-.08c-.07.02-.1.06-.08.12.03.07.07.1.13.07.33-.11.65-.1.94.05v.02c-.22.32-.3.68-.22 1.07v.01c-.34.05-.64-.02-.92-.18A1.22 1.22 0 0 1 4.8 9.1c.12-.32.35-.56.69-.71.08-.04.23-.07.43-.1.05-.01.08-.05.09-.1Z" fill="#FF5DA8"/><path d="M7.4 8.46a.9.9 0 0 0 .4 0c.04-.01.07 0 .1.03s.03.06.02.1a.12.12 0 0 1-.09.06c-.16.04-.33.05-.49 0a.98.98 0 0 1-.42-.21.11.11 0 0 1-.05-.1c0-.04.03-.06.07-.08.04-.01.07 0 .1.01.1.1.23.16.35.2ZM11.79 8.49a.84.84 0 0 0-.24.1c-.03.02-.06.02-.1 0-.03-.03-.04-.05-.04-.09 0-.03.01-.06.04-.08.08-.06.18-.1.29-.13a.79.79 0 0 1 .32 0 .1.1 0 0 1 .08.05v.1c-.03.03-.05.04-.08.04h-.27ZM9.86 10.63c.07.16.11.33.1.52 0 .04-.02.07-.06.09h-.04c-.07 0-.1-.04-.1-.1 0-.15-.04-.3-.1-.45h-.02a1.3 1.3 0 0 1-.8-.09c-.24-.1-.43-.28-.57-.53h-.03c-.27.07-.48.23-.65.45a.07.07 0 0 1-.05.03h-.07c-.07-.04-.09-.1-.05-.15.2-.26.44-.44.75-.52v-.02c-.1-.39-.02-.74.23-1.05.04-.05.1-.06.15-.02.06.04.07.08.03.13a.95.95 0 0 0 0 1.23 1 1 0 0 0 .38.28 1.07 1.07 0 0 0 1.2-.28c.05-.05.1-.06.15-.02v.01c.05.04.06.09.02.13-.14.16-.29.27-.46.34v.02Z" fill="#123849"/><defs><linearGradient id="a" x1="3.35" y1="3.12" x2="21.9" y2="24.43" gradientUnits="userSpaceOnUse"><stop stop-color="#1A1E21"/><stop offset="1" stop-color="#06060A"/></linearGradient></defs></svg>