<!-- by TradingView --><svg width="18" height="18" viewBox="0 0 18 18" xmlns="http://www.w3.org/2000/svg"><path fill="url(#a)" d="M0 0h18v18H0z"/><path d="M14 9.02v.12a12.46 12.46 0 0 1-.25 2.58c-.12.48-.32.87-.58 1.19-.43.5-1.08.8-1.96.94a9.22 9.22 0 0 1-1.74.15H9a12.3 12.3 0 0 1-1.37-.05 4.53 4.53 0 0 1-2.5-.75c-.5-.39-.81-1-.97-1.82a8 8 0 0 1-.15-1.46A9.57 9.57 0 0 1 4 8.86a12.02 12.02 0 0 1 .25-2.58c.12-.48.32-.87.58-1.19.43-.5 1.08-.8 1.96-.94A9.23 9.23 0 0 1 8.53 4H9a12.1 12.1 0 0 1 1.37.05c1.14.08 1.97.33 2.5.75.5.39.81 1 .97 1.82a8 8 0 0 1 .15 1.46 9.6 9.6 0 0 1 .02.94Z" fill="url(#b)"/><path d="M9.1 10c.18 0 .3 0 .34.03.1.04.16.1.2.2.02.06.03.17.03.31v.42c0 .2.02.33.08.41.06.09.17.13.33.13h.5c.12 0 .21.02.26.06.1.08.16.22.16.42v.62c0 .16-.06.27-.16.34-.05.04-.14.06-.27.06h-.54c-.26 0-.38-.18-.37-.56v-.41c0-.14 0-.24-.03-.3a.32.32 0 0 0-.18-.2 1 1 0 0 0-.36-.03H8.9a1 1 0 0 0-.36.03.32.32 0 0 0-.18.2 1 1 0 0 0-.03.3v.41c.01.38-.11.56-.37.56h-.54c-.13 0-.22-.02-.27-.06-.1-.07-.16-.18-.16-.34v-.62c0-.2.05-.34.16-.42.05-.04.14-.06.27-.06h.49c.16 0 .27-.04.33-.13.06-.08.08-.21.08-.4v-.43c0-.14.01-.25.04-.32.03-.09.1-.15.19-.2.05-.02.16-.02.34-.02h.2ZM6.02 7c.2 0 .34.05.42.16.04.05.06.14.06.27v.49c0 .16.04.27.13.33.08.06.21.08.4.08h.43c.14 0 .25.01.32.04.09.03.15.1.2.19.02.05.02.16.02.34a4.14 4.14 0 0 0 0 .2c0 .18 0 .3-.03.34-.04.1-.1.16-.2.2-.06.02-.17.03-.31.03h-.42c-.2 0-.33.02-.41.08-.09.06-.13.17-.13.33v.5c0 .12-.02.21-.05.26-.09.1-.23.16-.43.16H5.4c-.16 0-.27-.06-.34-.16-.04-.05-.06-.14-.06-.27v-.54c0-.26.18-.38.56-.37h.41c.14 0 .24 0 .3-.03a.32.32 0 0 0 .2-.18 1 1 0 0 0 .03-.36 4.55 4.55 0 0 1 0-.18 1 1 0 0 0-.03-.36.33.33 0 0 0-.2-.18 1.01 1.01 0 0 0-.3-.03h-.41c-.38.01-.56-.11-.56-.37v-.54c0-.13.02-.22.05-.27.08-.1.2-.16.35-.16h.62Zm6.58 0c.16 0 .27.06.34.16.04.05.06.14.06.27v.54c0 .26-.18.38-.56.37h-.41a1 1 0 0 0-.3.03.32.32 0 0 0-.2.18 1 1 0 0 0-.03.36 4.6 4.6 0 0 1 0 .18 1 1 0 0 0 .03.36c.04.1.1.15.2.18.06.02.16.03.3.03h.41c.38 0 .56.11.56.37v.54c0 .13-.02.22-.06.27-.07.1-.18.16-.34.16h-.62c-.2 0-.34-.05-.42-.16-.04-.05-.06-.14-.06-.27v-.49c0-.16-.04-.27-.13-.33-.08-.06-.21-.08-.4-.08h-.43c-.14 0-.25-.01-.32-.04a.33.33 0 0 1-.2-.19A1.03 1.03 0 0 1 10 9.1a4.24 4.24 0 0 0 0-.2c0-.18 0-.3.03-.34.04-.1.1-.16.2-.2.06-.02.17-.03.31-.03h.42c.2 0 .33-.02.41-.08.09-.06.13-.17.13-.33v-.5c0-.12.02-.21.05-.26.09-.1.23-.16.43-.16h.62ZM7.97 5c.26 0 .38.18.37.56v.41c0 .14 0 .24.03.3.03.1.09.16.18.2a1 1 0 0 0 .36.03h.18a1 1 0 0 0 .36-.03c.1-.04.15-.1.18-.2a1 1 0 0 0 .03-.3v-.4c0-.38.11-.57.37-.57h.54c.13 0 .22.02.27.06.1.07.16.18.16.34v.62c0 .2-.05.34-.16.43-.05.03-.14.05-.27.05h-.49c-.16 0-.27.04-.33.13-.06.08-.08.21-.08.4v.43c0 .14-.01.25-.04.32-.03.09-.1.15-.19.2C9.4 8 9.28 8 9.1 8a4.16 4.16 0 0 0-.2 0c-.18 0-.3 0-.34-.03a.33.33 0 0 1-.2-.2 1.05 1.05 0 0 1-.03-.31v-.42c0-.2-.02-.33-.08-.41-.06-.09-.17-.13-.33-.13h-.5c-.12 0-.21-.02-.26-.06-.1-.08-.16-.22-.16-.42V5.4c0-.16.06-.27.16-.34.05-.04.14-.06.27-.06h.54Z" fill="#15181B"/><defs><linearGradient id="a" x1="3.35" y1="3.12" x2="21.9" y2="24.43" gradientUnits="userSpaceOnUse"><stop stop-color="#1A1E21"/><stop offset="1" stop-color="#06060A"/></linearGradient><linearGradient id="b" x1="13.52" y1="8.53" x2="4.76" y2="8.53" gradientUnits="userSpaceOnUse"><stop stop-color="#F8A433"/><stop offset=".51" stop-color="#E96245"/><stop offset="1" stop-color="#9E3180"/></linearGradient></defs></svg>