<!-- by TradingView --><svg width="18" height="18" viewBox="0 0 18 18" xmlns="http://www.w3.org/2000/svg"><path fill="url(#a)" d="M0 0h18v18H0z"/><path d="M6.7 5c-.02.4-.11.74-.27 1l-.4.64a2.6 2.6 0 0 0-.25 1.5.03.03 0 0 0 .03.01h.05a.02.02 0 0 1 .01 0v.02h-.13l-.2-.02c-.3-.11-.52-.32-.54-.65V6.01c0-.25.06-.43.1-.52a.9.9 0 0 1 .37-.38c.11-.06.31-.1.6-.11h.63Z" fill="#DD5ACB"/><path d="M8.2 5c.04.55.05 1.14-.62 1.3a5.2 5.2 0 0 0-.83.28c-.17.14-.29.26-.35.36-.17.29-.15.68-.07 1.01a.23.23 0 0 1-.06.06l.01.01.1.01a.99.99 0 0 1-.68.21c0-.02 0-.05.04-.07h.12a.02.02 0 0 0 .01-.01.01.01 0 0 0 0-.02l-.06.01a.03.03 0 0 1-.03 0 .03.03 0 0 1-.01-.03 2.6 2.6 0 0 1 .27-1.48c.08-.14.2-.36.39-.65.16-.25.25-.6.27-.99h1.5Z" fill="#B25BBE"/><path d="M9.68 5.32c0 .09.02.18.07.26l.02.05c.03.26.06.44.1.55.06.15.18.28.37.39l-.03 1.64H8.98c-.32-.02-.55-.2-.68-.53v-.04l-.05-.31v.05c-.07-.32-.3-.76-.68-.8-.17-.02-.34 0-.53.07-.03-.08-.12-.1-.3-.07.28-.12.56-.2.84-.28.67-.16.66-.75.61-1.3h.79c.33 0 .55.1.7.32Z" fill="#7A5BAF"/><path d="M12.83 9.5v-.03a.03.03 0 0 0-.06-.01.8.8 0 0 1-.68.31.03.03 0 0 1-.04-.03 1.8 1.8 0 0 1-.03-.27 5.83 5.83 0 0 0 .03-1.12h-.02c-.36-.03-.72.1-.98.04a31.85 31.85 0 0 1-.84-.18l.03-1.64a.47.47 0 0 0 .23.03.74.74 0 0 1-.45-.35.03.03 0 0 1 0-.04c.39-.34.67-.7.86-1.21h1.29c.4 0 .7.31.8.69.02.08.03.22.03.43v2.9c0 .17-.07.33-.17.49Z" fill="#3969A4"/><path d="M10.88 5a2.84 2.84 0 0 1-.86 1.23v.02a.74.74 0 0 0 .45.34v.01c-.08.01-.16 0-.23-.03a.83.83 0 0 1-.37-.4c-.04-.1-.07-.28-.1-.54 0-.02 0-.03-.02-.05a.45.45 0 0 1-.07-.26l.12.17a.03.03 0 0 0 .03.01.03.03 0 0 0 .02-.01c.21-.43.53-.49 1.03-.49Z" fill="#4F8FC4"/><path d="M10.72 6.32c.34-.07.77.02 1.03.27.31.3.41.8.2 1.19-.2.33-.63.47-1 .46v-.02c.42-.15.8-.32.87-.81.06-.42-.08-.71-.42-.9a2 2 0 0 0-.69-.18h.01Z" fill="#385F9A"/><path d="M10.46 6.5a.51.51 0 0 1 .22-.1c.75-.1 1.31.44 1.07 1.2-.07.21-.2.35-.42.44a.05.05 0 0 1-.06-.02.05.05 0 0 1 0-.06c.29-.39.1-.8-.16-1.16a.01.01 0 0 1 0-.01h.01c.04 0 .08.04.11.09h.01a.02.02 0 0 0 .02 0v-.01a.68.68 0 0 0-.26-.2c-.16-.04-.4-.06-.54-.13a.02.02 0 0 1 0-.04Z" fill="#385F9A"/><path d="m7.04 6.65-.23.18a.01.01 0 0 1-.01 0V6.8a.01.01 0 0 0 0-.02.02.02 0 0 0-.02 0c-.4.23-.41.6-.4 1.04a.02.02 0 0 0 .02.01h.02v.03l-.09.08c-.08-.33-.1-.72.07-1 .06-.1.18-.23.35-.37.17-.03.26 0 .3.07Z" fill="#A26063"/><path d="m8.25 7.38-.02 1.68a27.2 27.2 0 0 0-1.77-1.08l-.08.05c0-.02-.04-.02-.1 0V8a.23.23 0 0 0 .05-.06l.1-.08v-.03H6.4a.02.02 0 0 1-.03-.01c-.01-.43 0-.81.4-1.04a.02.02 0 0 1 .02.02v.02a.01.01 0 0 0 .01 0l.23-.18c.19-.07.36-.1.53-.07.37.04.61.48.68.8Z" fill="#DE64BC"/><path d="M8.23 9.06a.83.83 0 0 1-.37.59c-.77-.08-1.84-.03-2.14.86-.06.18-.1.37-.13.56L5 10.54V9.12c0-.23.04-.4.09-.5a.82.82 0 0 1 .35-.37c.08.03.17.03.26 0 .25 0 .47-.06.68-.22l.08-.05a.05.05 0 0 1 .05 0c.58.34 1.16.7 1.72 1.08Z" fill="#E177A4"/><path d="M5.74 8.17c-.03.02-.05.05-.04.07a.35.35 0 0 1-.26 0c.12-.03.16-.06.1-.09l.2.02Z" fill="#DE64BC"/><path d="m10.37 8.24.68.15c.26.05.62-.07.98-.05l.02.01.01.02c.03.34.01.7-.04 1.1a1.83 1.83 0 0 0 .04.3h.03a.8.8 0 0 0 .68-.31.03.03 0 0 1 .05 0v.05a.86.86 0 0 1-.38.28l-.31.06c-.14.03-.25.05-.31.08-.23.11-.37.3-.43.56-.01.2-.05.39-.12.55-.09.18-.49.6-1.04.33a.18.18 0 0 1-.07-.03l-.12-.1a2 2 0 0 0-.14-.23c-.11-.17-.11-.42-.12-.64a9.1 9.1 0 0 1 0-1.53c.05-.31.24-.51.59-.6Z" fill="#4F8FC4"/><path d="M7.86 9.65c-.1.06-.2.1-.3.1l-.38-.02c-.49.1-1.04.43-1.14.94-.12.65 1.23 1.33 1.76.94l.01-.02a.02.02 0 0 0 0-.02.76.76 0 0 0-.39-.16 3.38 3.38 0 0 1-.33-.05c.25 0 .48.06.7.17l.04.04.07.08c.12.09.2.26.2.42.02.15.05.28.1.38l-.2.27c-.27-.07-.59-.17-.97-.3-.7-.24-1.1-.66-1.44-1.35.02-.19.07-.38.13-.56.3-.89 1.37-.94 2.14-.86Z" fill="#D4877C"/><path d="M7.56 9.75c-.02 0-.03.02-.02.04-.25.02-.7.08-.97.56a.04.04 0 0 1 0-.02h-.01c-.02.24-.02.4.01.5.07.25.24.43.52.53l.33.05a.76.76 0 0 1 .39.17.02.02 0 0 1 0 .02c-.99.74-1.89-.28-1.77-.93.1-.5.65-.84 1.14-.94l.38.02Z" fill="#A26063"/><path d="M7.54 9.79h1.2c.1 1.05.12 2.14.02 3.21-.26-.06-.45-.26-.57-.55-.04-.1-.07-.23-.08-.38a.61.61 0 0 0-.21-.42.33.33 0 0 1-.07-.08.12.12 0 0 0-.05-.04 1.5 1.5 0 0 0-.69-.17c-.28-.1-.45-.28-.52-.52a1.65 1.65 0 0 1 0-.52v.02c.21-.55.72-.53.97-.55Z" fill="#DF9E73"/><path d="M9.74 10.45c0 .36.03.69.17.97l.09.2a8 8 0 0 1 .3 1.38H8.75c.1-1.07.09-2.16-.03-3.2.55-.05.89.17 1.01.65Z" fill="#B28D7C"/><path d="M12.44 9.8a.13.13 0 0 0-.03.03v.02a.03.03 0 0 0 .02.02c.06 0 .12.02.17.05.32.2.4.51.4.9v1.3c0 .55-.45.88-1 .88a1.4 1.4 0 0 1-.1-.4c0-.28-.04-.56-.12-.84-.02-.05 0-.15.05-.3v-.01h-.02c-.32.23-.86.34-1.16.03a.01.01 0 0 1 0-.02h.01c.16-.03.54-.28.61-.42 0 .04-.01.08-.03.11v.02h.01c.31-.08.39-.48.14-.68.06-.26.2-.45.43-.56.06-.03.17-.05.3-.08l.32-.06Z" fill="#385F9A"/><path d="M10.84 11.39a.43.43 0 0 1-.18.07.01.01 0 0 0 0 .02c.29.3.83.2 1.15-.03h.01v.01c-.04.15-.06.25-.04.3.08.28.12.56.12.84 0 .09.03.22.1.4h-1.7a8 8 0 0 0-.39-1.58 1.95 1.95 0 0 1-.17-.97c.03.02.04 0 .04-.08 0 .22 0 .47.12.65a2 2 0 0 1 .14.22l.12.1.07.03c.2.05.4.06.61.02Z" fill="#6C728C"/><path d="M5.59 11.07c.33.69.73 1.1 1.44 1.35.38.13.7.23.97.3-.18.15-.37.27-.58.28H6.03c-.3 0-.48-.07-.6-.13-.32-.16-.44-.5-.43-.85v-1.48l.59.53Z" fill="#E79B7C"/><defs><linearGradient id="a" x1="3.35" y1="3.12" x2="21.9" y2="24.43" gradientUnits="userSpaceOnUse"><stop stop-color="#1A1E21"/><stop offset="1" stop-color="#06060A"/></linearGradient></defs></svg>