<!-- by TradingView --><svg width="18" height="18" viewBox="0 0 18 18" xmlns="http://www.w3.org/2000/svg"><path fill="url(#a)" d="M0 0h18v18H0z"/><path d="M10.4 12.39a5.37 5.37 0 0 0 1.53-3.4c.02-.27.02-.8 0-1.6A2.45 2.45 0 0 0 8 5.57c-.41.32-.74.74-.9 1.28-.06.2-.1.5-.09.87v.89c0 .02 0 .04-.03.04h-.92c-.03 0-.04-.02-.04-.05v-.28c-.02-1.07-.03-1.83.53-2.7a3.42 3.42 0 0 1 2.97-1.6c.61-.02 1.18.13 1.7.43a3.4 3.4 0 0 1 1.77 2.8c.02.3.02.7.02 1.09v.27c-.01 1.56-.53 2.95-1.55 4.2-.12.13-.24.2-.36.2-.1 0-.17-.03-.21-.07l-.48-.47c-.02-.02-.02-.05 0-.07Zm-3.73-2.35c.9 0 1.54-.66 1.6-1.5 0-.03.02-.04.05-.04h.97a.04.04 0 0 1 .03.01l.01.01v.02a2.63 2.63 0 0 1-2.66 2.53A2.63 2.63 0 0 1 4 8.51h.03l.97-.01c.03 0 .04.01.05.04.06.84.7 1.5 1.6 1.5ZM10 8.54c-.06 1.96-1.41 3.48-3.3 3.56-.03 0-.04.01-.04.04v.82c0 .02.01.04.04.04h.94c.3.01.63-.14.87-.27A4.7 4.7 0 0 0 11 8.55c0-.03-.01-.05-.04-.05h-.91c-.03 0-.04.01-.04.04Z" fill="#fff"/><defs><linearGradient id="a" x1="3.35" y1="3.12" x2="21.9" y2="24.43" gradientUnits="userSpaceOnUse"><stop stop-color="#1A1E21"/><stop offset="1" stop-color="#06060A"/></linearGradient></defs></svg>