<!-- by TradingView --><svg width="18" height="18" viewBox="0 0 18 18" xmlns="http://www.w3.org/2000/svg"><path fill="url(#avzdmqitu)" d="M0 0h18v18H0z"/><path fill-rule="evenodd" d="M9 14.5a5.5 5.5 0 1 0 0-11 5.5 5.5 0 0 0 0 11Zm0 .5A6 6 0 1 0 9 3a6 6 0 0 0 0 12Z" fill="#fff"/><path d="M11.25 7.41H5.68c-.1 0-.16-.13-.1-.22l1.03-1.15a.12.12 0 0 1 .1-.04h5.66c.12 0 .17.14.1.22l-1.13 1.15a.12.12 0 0 1-.09.04ZM11.22 12H5.65c-.1 0-.16-.13-.09-.22l1.02-1.15a.12.12 0 0 1 .1-.04h5.67c.1 0 .16.14.08.22l-1.12 1.15a.12.12 0 0 1-.09.04ZM6.78 9.7h5.57c.1 0 .16-.13.09-.21l-1.02-1.15a.12.12 0 0 0-.1-.05H5.65c-.1 0-.16.14-.08.23l1.12 1.15c.02.02.05.04.09.04Z" fill="#fff"/><defs><linearGradient id="avzdmqitu" x1="3.87" y1="1.35" x2="12.42" y2="18" gradientUnits="userSpaceOnUse"><stop stop-color="#85D48E"/><stop offset="1" stop-color="#39987D"/></linearGradient></defs></svg>