<!-- by TradingView --><svg width="18" height="18" viewBox="0 0 18 18" xmlns="http://www.w3.org/2000/svg"><path fill="#181B1E" d="M0 0h18v18H0z"/><path d="M7.95 7.3c-.16-.1-.32-.16-.4-.19l.09-.3c.1.04.28.11.46.21.18.1.37.24.5.41l-.24.2c-.1-.13-.25-.24-.41-.33ZM10.03 10.7c.16.1.32.16.4.19l-.09.3c-.1-.04-.28-.11-.46-.21-.18-.1-.37-.24-.5-.41l.24-.2c.1.13.25.24.41.33ZM8.85 7.2c-.39-.48-.97-.7-1.2-.74l.07-.3c.28.05.93.3 1.38.85l-.25.2ZM9.13 10.8c.39.48.97.7 1.2.74l-.07.3c-.28-.05-.93-.3-1.38-.85l.25-.2Z" fill="#BBB"/><path d="M9.64 6.72c-.2.13-.37.3-.47.4L7.22 9.17a2.7 2.7 0 0 0-.72 1.87c0 .68.23 1.36.72 1.87a2.44 2.44 0 0 0 3.56 0 2.7 2.7 0 0 0 .72-1.85 2.7 2.7 0 0 0-.72-1.89l.2-.22a3.07 3.07 0 0 1 0 4.18 2.74 2.74 0 0 1-3.97 0 3.03 3.03 0 0 1-.82-2.09c0-.75.27-1.51.82-2.09L8.96 6.9c.1-.12.3-.3.52-.44.22-.15.5-.28.76-.27v.31c-.18 0-.4.09-.6.22Z" fill="#BBB"/><path d="M10.78 5.09a2.42 2.42 0 0 0-3.56 0 2.74 2.74 0 0 0 0 3.74l-.2.22a3.07 3.07 0 0 1 0-4.18 2.72 2.72 0 0 1 3.97 0 3.07 3.07 0 0 1 0 4.18L9.04 11.1c-.11.12-.3.3-.52.44-.22.15-.5.28-.76.27v-.31c.18 0 .4-.09.6-.22.2-.13.37-.3.46-.4l1.96-2.05c.98-1.04.98-2.71 0-3.74Z" fill="#BBB"/><path d="M10.34 7.13a.62.62 0 0 0-.46.18L7.66 9.66c-.36.38-.53.87-.55 1.36 0 .53.17 1.06.55 1.47.73.77 1.93.77 2.66 0 .37-.4.55-.91.54-1.43 0-.5-.17-1.01-.54-1.4l.22-.22c.85.9.85 2.36 0 3.27-.86.9-2.24.9-3.1 0a2.38 2.38 0 0 1-.64-1.67c.01-.58.22-1.16.64-1.6l2.2-2.33c.1-.11.37-.3.71-.29l-.02.32Z" fill="#BBB"/><path d="M9 4.94c-1.66 0-2.51 2.22-1.35 3.43l-.22.22c-1.34-1.4-.36-3.95 1.55-3.96 1.93-.02 2.94 2.54 1.58 3.96L8.33 10.9c-.1.11-.36.3-.7.29l.01-.32c.23.02.42-.12.47-.18l2.24-2.32c1.17-1.22.3-3.44-1.36-3.43Z" fill="#BBB"/><path d="M9.89 5.96a1.2 1.2 0 0 0-1.78 0 1.4 1.4 0 0 0 0 1.89l-.22.22a1.73 1.73 0 0 1 0-2.33 1.5 1.5 0 0 1 2.21 0c.61.64.61 1.69 0 2.33l-1.95 2.08c-.25.26-.4.6-.4.94 0 .3.13.62.34.87l.03.03c.44.54 1.21.59 1.71.12.28-.27.43-.64.42-1-.01-.32-.14-.63-.37-.87l-.13-.14.22-.23.13.14c.3.31.46.72.46 1.13 0 .44-.19.88-.53 1.2-.62.6-1.59.53-2.14-.14l-.03-.03a1.74 1.74 0 0 1-.42-1.1c0-.42.2-.83.5-1.15l1.95-2.07c.49-.52.49-1.37 0-1.89ZM6.4 6.49A2.6 2.6 0 0 0 4.32 9a2.6 2.6 0 0 0 2.08 2.51l-.07.3A2.91 2.91 0 0 1 4 9c0-1.37 1-2.52 2.33-2.81l.07.3Z" fill="#BBB"/><path d="M6.45 7.17a1.88 1.88 0 0 0 0 3.66l-.07.3a2.2 2.2 0 0 1 0-4.26l.07.3Z" fill="#BBB"/><path d="M6.58 7.85c-.54.12-.94.59-.94 1.15 0 .56.4 1.03.94 1.15l-.07.3A1.5 1.5 0 0 1 5.31 9c0-.7.51-1.3 1.2-1.45l.07.3ZM11.6 11.51A2.6 2.6 0 0 0 13.69 9a2.6 2.6 0 0 0-2.07-2.51l.07-.3A2.91 2.91 0 0 1 14 9c0 1.37-.99 2.52-2.32 2.81l-.07-.3Z" fill="#BBB"/><path d="M11.55 10.83a1.88 1.88 0 0 0 0-3.66l.08-.3a2.2 2.2 0 0 1 0 4.26l-.08-.3Z" fill="#BBB"/><path d="M11.42 10.15c.54-.12.95-.59.95-1.15 0-.56-.4-1.03-.95-1.15l.08-.3c.68.15 1.2.74 1.2 1.45 0 .7-.52 1.3-1.2 1.45l-.08-.3Z" fill="#BBB"/></svg>