<!-- by TradingView --><svg width="18" height="18" viewBox="0 0 18 18" xmlns="http://www.w3.org/2000/svg"><path fill="#F0F3FA" d="M0 0h18v18H0z"/><path d="M7.68 3.03a4.2 4.2 0 0 0-1.7.58c-.52.32-2.14 1.9-2.47 2.4-.44.67-.48.85-.5 2.2a9.05 9.05 0 0 0 .2 2.6c.2.68.39.96 1.48 2.1 1.11 1.15 1.47 1.45 1.97 1.65 1.19.48 2.34.57 3.48.27a6.14 6.14 0 0 0 4.1-3.25c.19-.4.57-1.4.7-1.82.1-.36.08-1.42-.04-1.85a6.54 6.54 0 0 0-1.65-3.1 6.18 6.18 0 0 0-3.1-1.7c-.43-.1-1.88-.14-2.47-.08Zm2.9 2.55L11.12 9c-.16 1.07-.41 2.29-.56 3.36l-1.26-.3c.18-1.16.35-2.27.33-2.3 0 0-.05 0-.09.04L7.01 11.7l-.76-.97c.36-.3 2.27-1.8 2.27-1.8L6.25 7.12l.7-.96 2.69 1.96s-.28-2.07-.33-2.3l1.27-.24Z" fill="#71C9BB"/></svg>