<!-- by TradingView --><svg width="18" height="18" xmlns="http://www.w3.org/2000/svg"><path fill="#223D54" d="M0 0h18v18H0z"/><path d="M14.293 8.842l-1.493.037h-.027l-.021.004-.014.005-.026.011-.009.005a.167.167 0 00-.026.018l-1.403 1.183-2.092-1.233V7.718l2.08.192h.02a.21.21 0 00.027 0h.01a.241.241 0 00.034-.01l.009-.003.017-.01 1.004-.582 1.648.724a.198.198 0 00.262-.106.204.204 0 00-.105-.267l-1.372-.602.848-.493a.205.205 0 00.074-.276.197.197 0 00-.272-.076l-2.04 1.182-.267-1.49 1.648-.337a.2.2 0 00.157-.133.206.206 0 00-.04-.205.197.197 0 00-.196-.06l-1.402.29.542-.937a.206.206 0 00.002-.203.199.199 0 00-.171-.103.199.199 0 00-.174.1l-.729 1.259a.208.208 0 00-.017.038.204.204 0 00-.048.17l.306 1.703-1.855-.171V5.138l1.323-1.106a.206.206 0 00.02-.277.197.197 0 00-.27-.038l-1.07.894v-.918a.201.201 0 00-.2-.193.201.201 0 00-.199.193v2.29l-1.37-.445.446-1.608a.204.204 0 00-.137-.251.2.2 0 00-.247.139l-.382 1.376-.597-.897a.197.197 0 00-.277-.056.205.205 0 00-.055.281l.838 1.259.007.01.01.011.015.015.011.01.023.016.009.005c.01.005.019.009.029.012l1.676.545v2.463l-1.029.603-.876-1.877-.003-.004a.196.196 0 00-.027-.042h-.003a.208.208 0 00-.043-.037l-.006-.004-1.002-.586-.221-1.813a.202.202 0 00-.12-.161.196.196 0 00-.199.025.205.205 0 00-.077.187l.186 1.51-.846-.494a.198.198 0 00-.264.08.205.205 0 00.066.273l2.036 1.187-1.125.991-1.125-1.272a.197.197 0 00-.282-.015.206.206 0 00-.015.286l.957 1.08H3.699c-.11 0-.2.091-.2.203 0 .112.09.203.2.203h1.436a.2.2 0 00.041-.005.194.194 0 00.169-.045l1.287-1.134.774 1.67-1.925 1.13-1.438-.7a.198.198 0 00-.257.101.205.205 0 00.085.266l1.194.58-.747.44a.205.205 0 00-.073.276c.055.097.176.13.272.075l1.076-.632.933-.548.197 1.48-1.618.28a.203.203 0 00-.154.233.2.2 0 00.22.168l1.383-.239-.537.929a.205.205 0 00.07.278.197.197 0 00.273-.072l.758-1.31.005-.011.007-.014a.197.197 0 00.014-.073.157.157 0 000-.033L6.9 10.444l2.082-1.22.863.507-1.14 1.788a.044.044 0 00-.003.007l-.006.011a.17.17 0 00-.011.025s0 .004-.003.007v.002a.2.2 0 00-.007.036V11.636l.03 1.176-1.398 1.143a.205.205 0 00-.03.286.197.197 0 00.28.03l1.165-.952.03.993a.201.201 0 00.206.188.202.202 0 00.193-.201l-.075-2.39 1.42.456-.476 1.643a.206.206 0 00.043.203c.05.054.125.076.196.057a.201.201 0 00.143-.148l.406-1.392.56.925a.198.198 0 00.345-.01.206.206 0 00-.006-.203l-.752-1.244a.186.186 0 00-.025-.033.197.197 0 00-.127-.123l-1.623-.522 1.011-1.58 2.076 1.223.126 1.698a.2.2 0 00.213.177.202.202 0 00.185-.208l-.105-1.42.743.438a.197.197 0 00.2 0 .204.204 0 00.099-.175.204.204 0 00-.1-.176l-1.071-.631-.915-.54 1.141-.957 1.087 1.25a.197.197 0 00.282.019.205.205 0 00.017-.287l-.931-1.07 1.064-.026a.204.204 0 00.198-.21.204.204 0 00-.207-.201z" fill="#1AEEC2"/></svg>