<!-- by TradingView --><svg width="18" height="18" viewBox="0 0 18 18" xmlns="http://www.w3.org/2000/svg"><path fill="#1F3338" d="M0 0h18v18H0z"/><path d="M6.95 10c.03 0 .05.03.05.06v2.88c0 .03-.02.06-.05.06h-1.9c-.03 0-.05-.03-.05-.06v-2.88c0-.03.02-.06.05-.06h1.9Zm6-5 .04.01.01.04v1.22a.24.24 0 0 1-.08.18A944.52 944.52 0 0 0 10.04 9v.03a887.92 887.92 0 0 0 2.93 2.6c.02.03.02.06.03.1v1.22l-.02.04-.03.01h-1.3a.16.16 0 0 1-.1-.04 2096 2096 0 0 0-2.37-2.08 2.5 2.5 0 0 1-.27-.3A372.03 372.03 0 0 0 7.15 9a173.4 173.4 0 0 0 1.76-1.57c.12-.16.21-.26.27-.31l2.37-2.08a.16.16 0 0 1 .1-.04h1.3Zm-6 0c.03 0 .05.03.05.06v2.88c0 .03-.02.06-.05.06h-1.9C5.02 8 5 7.97 5 7.94V5.06c0-.03.02-.06.05-.06h1.9Z" fill="#8CFF05"/></svg>