<!-- by TradingView --><svg width="18" height="18" viewBox="0 0 18 18" xmlns="http://www.w3.org/2000/svg"><path fill="#B72622" d="M0 0h18v18H0z"/><path d="m6.87 4.9.36.3.08.06h.03a6.1 6.1 0 0 1 1.28-.36c.29-.04.6-.03.92.03a5.75 5.75 0 0 1 1.16.33l.48-.39c.38-.27.7-.47.95-.6.17-.1.36-.17.55-.23.26-.08.48-.05.64.1.22.19.34.47.35.84.02.54-.06 1.15-.25 1.84a1.8 1.8 0 0 1-.2.46.06.06 0 0 0 0 .05 4.78 4.78 0 0 1 .4 1.95l.12.2c.1.13.16.3.19.49a18.26 18.26 0 0 1 .05.36l.02.47c0 .18-.02.34-.05.48a1.93 1.93 0 0 1-.33.65.07.07 0 0 1-.06.03.07.07 0 0 1-.06-.03.11.11 0 0 1-.02-.07c0-.04-.02-.05-.04-.02l-.03.04c-.03.04-.07.07-.1.08-.05 0-.1 0-.14-.04 0-.02-.02-.04-.03-.04h-.03a4 4 0 0 1-1.36.71c-.37.11-.63.19-.77.21a9.33 9.33 0 0 1-1.73.19 6.5 6.5 0 0 1-1.1-.02c-.6-.07-1.19-.18-1.74-.33a4.06 4.06 0 0 1-1.52-.76c-.01-.02-.03-.01-.04 0-.04.08-.1.1-.18.07-.02 0-.05-.04-.09-.1-.03-.04-.05-.04-.05 0l-.02.07-.01.02c-.02.01-.05.02-.08.01a1.72 1.72 0 0 1-.31-.49 1.82 1.82 0 0 1-.1-.78 7 7 0 0 1 .05-.66c.02-.15.07-.3.15-.47l.18-.28.01-.02c0-.21 0-.37.02-.49a5.83 5.83 0 0 1 .37-1.48 1.9 1.9 0 0 1-.22-.51 6.76 6.76 0 0 1-.25-1.55c-.01-.57.14-.96.45-1.14.15-.1.34-.1.57-.03.25.07.5.19.75.35.33.2.6.37.78.5Z" fill="#020101"/><path d="M7.05 5.44a6.4 6.4 0 0 0-1.7-1.12 1.24 1.24 0 0 0-.38-.06c-.04 0-.1.01-.22.05a.4.4 0 0 1 .34-.14c.1 0 .22.04.38.1l.37.17a9.53 9.53 0 0 1 1.32.92v.03l-.1.05Z" fill="#FBCA8C"/><path d="m7.05 5.44-.18.13h-.02a26.69 26.69 0 0 1-.8-.56 3.8 3.8 0 0 0-.58-.31.5.5 0 0 0-.35-.02c-.2.06-.3.23-.3.53a4.37 4.37 0 0 0 .28 1.7c0 .02.01.02.02.02l.02-.01v-.03l.03.03h.02a9.58 9.58 0 0 0 .45-.4l.16-.14.38-.14c.02-.01.03-.03.03-.05 0-.02 0-.04-.03-.05l-.09-.05a.04.04 0 0 1-.02-.03c0-.01 0-.03.02-.03.02-.03.08-.04.17-.03h.04L6.34 6a.04.04 0 0 0 .01-.05l-.07-.17a.35.35 0 0 1 .25-.03c.07.01.15.03.22.06.06.01.11 0 .16-.02l.05-.04c.17-.1.36-.19.57-.28.1-.05.21-.08.34-.11l.65-.15c.38-.07.77-.06 1.17.04a32.68 32.68 0 0 1 .71.19l.19.07c.02.01.04.03.05.06l.03.01c.16.06.3.13.43.21.04.03.08.04.12.03l.2-.06a.73.73 0 0 1 .22-.01l.03.01.01.04.03.01-.05.15V6c.02.01.04.02.06.01a.28.28 0 0 1 .18 0c.02.01.03.02.03.04s0 .03-.03.04a.37.37 0 0 0-.1.06.05.05 0 0 0 0 .05c0 .02 0 .03.03.04l.38.15c.2.16.4.34.59.52.02.02.04.02.06 0 .02.03.05.02.07-.04.2-.48.29-1.03.26-1.66 0-.17-.04-.3-.1-.4-.09-.11-.21-.16-.38-.15a.78.78 0 0 0-.28.09c-.27.13-.5.26-.68.4a53.43 53.43 0 0 1-.61.43l-.16-.12a.24.24 0 0 1 .1-.16l.13-.09.09-.08.05-.05a4.26 4.26 0 0 1 .85-.55c.18-.1.36-.18.53-.24l.2-.03a.6.6 0 0 1 .34.08c.05.04.09.1.12.18l.02.2a4.46 4.46 0 0 1-.15 1.66 3.4 3.4 0 0 1-.3.65l.2.66c0 .13.02.25.04.37a21.46 21.46 0 0 1 .2 1.18 2.31 2.31 0 0 0-1.51-.26c-.05 0-.07.02-.07.04a.88.88 0 0 0-.38-.75v-.02l.16-.03c.04-.01.04-.03.01-.06a.1.1 0 0 0-.03-.02.22.22 0 0 0-.09-.01c-.26.05-.5.16-.7.31l-.4.33a.97.97 0 0 1-.27.14c-.04.02-.03.03 0 .03a.5.5 0 0 0 .15-.02c.01 0 .02 0 .03.02l.04.3a5.06 5.06 0 0 1-.5-.18 3.35 3.35 0 0 0-1.2-.1 2.8 2.8 0 0 0-1 .3c.04-.1.06-.2.07-.33 0-.01 0-.02.02-.02l.16.04.01-.02a.19.19 0 0 1-.06-.04.94.94 0 0 0-.15-.13 2.27 2.27 0 0 1-.2-.15 3.68 3.68 0 0 0-.43-.34c-.17-.11-.35-.17-.52-.18h-.02v.02l.03.03h-.13c-.07.04-.06.07.01.08l.14.03v.02a.88.88 0 0 0-.4.72 2.25 2.25 0 0 0-1.57.25.04.04 0 0 1 0-.04l.02-.1.04-.15c.02-.19.05-.4.1-.62a6.7 6.7 0 0 0 .07-.6A35.83 35.83 0 0 0 5.04 7a8.16 8.16 0 0 0-.13-.25 2.5 2.5 0 0 1-.31-1.1 3.61 3.61 0 0 1 .04-1.21l.1-.14a.85.85 0 0 1 .23-.06c.13 0 .26.03.4.08.1.03.22.09.37.16a6.4 6.4 0 0 1 1.31.95Z" fill="#F7AA42"/><path d="M6.27 5.54c-.24-.2-.47-.36-.7-.5a2.2 2.2 0 0 0-.51-.2c.1-.06.2-.07.3-.05a2.21 2.21 0 0 1 .5.26 31.46 31.46 0 0 1 .61.46c-.08 0-.15 0-.2.03ZM12.97 4.86c-.2.03-.37.09-.5.16a4.5 4.5 0 0 0-.73.52.47.47 0 0 0-.2-.02c-.03 0-.03 0-.01-.02.2-.15.4-.3.61-.43.21-.15.38-.24.51-.28a.32.32 0 0 1 .32.07Z" fill="#F2DABE"/><path d="M5.06 4.84c.21.06.38.13.52.2.22.14.45.3.69.5-.08.03-.12.07-.12.13 0 .04 0 .1.03.18v.02c-.1.01-.17.04-.2.1-.04.05-.04.11.02.19v.02a.5.5 0 0 0-.2.2 3.73 3.73 0 0 1-.32.27 9.6 9.6 0 0 1-.31.27l-.02-.02a6.18 6.18 0 0 1-.21-1.45c-.02-.25 0-.43.06-.54.02-.04.04-.06.06-.07ZM12.97 4.86c.04.04.06.1.08.17.02.1.03.2.02.3l-.06.83c-.03.2-.07.44-.15.75-.02.02-.04.02-.06 0-.2-.18-.4-.36-.6-.52a.52.52 0 0 0-.19-.21v-.02c.06-.08.07-.14.03-.2-.05-.05-.11-.08-.2-.1h-.02a.4.4 0 0 0 .04-.2c0-.05-.04-.1-.12-.12 0-.02.03-.04.05-.06a1.59 1.59 0 0 1 1.18-.63Z" fill="#fff"/><path d="m11.7 5.8-.02-.01v-.04a.04.04 0 0 0-.04-.01h-.21a1.8 1.8 0 0 0-.21.07c-.04.01-.08 0-.12-.03a1.54 1.54 0 0 0-.43-.2l-.03-.02a.16.16 0 0 0-.05-.06 2.7 2.7 0 0 0-.37-.13l-.53-.13c-.4-.1-.8-.1-1.17-.04l-.65.15c-.13.03-.24.06-.34.1a7.4 7.4 0 0 0-.62.33.17.17 0 0 1-.16.02 2.58 2.58 0 0 0-.22-.07.35.35 0 0 0-.25.04c-.02-.05 0-.08.03-.1a.17.17 0 0 1 .12-.03c.14.02.27.06.39.13.02.01.04 0 .06-.01a.6.6 0 0 1 .1-.1c.19-.13.4-.24.65-.33.18-.07.42-.14.71-.2.38-.09.73-.1 1.06-.05.33.05.64.13.94.24.25.08.47.2.67.34a.6.6 0 0 1 .11.1c.02.01.03.02.05.01l.02-.01.26-.1a.4.4 0 0 1 .25 0l.02.03c.02.03.01.07-.01.11Z" fill="#FBCA8C"/><path d="M8.05 8.01a.87.87 0 0 0-.34-.41.32.32 0 0 0-.29-.03c-.1.04-.13.11-.07.21a.38.38 0 0 0 .19.17l.25.1a1 1 0 0 1-.34-.07.46.46 0 0 1-.24-.21c-.04-.09-.03-.17.05-.25.08-.1.2-.1.36-.05.24.1.38.27.43.54ZM10.29 8.02c.09-.02.17-.05.24-.1.09-.04.14-.1.16-.18.02-.09-.01-.15-.1-.17a.33.33 0 0 0-.24.02.86.86 0 0 0-.39.4.65.65 0 0 1 .51-.54c.1-.03.2 0 .27.06s.1.14.07.23a.4.4 0 0 1-.19.21.49.49 0 0 1-.33.07Z" fill="#020101"/><path d="M8.05 8.01a.47.47 0 0 1-.26.03 4.22 4.22 0 0 0-.25-.08.38.38 0 0 1-.2-.17c-.05-.1-.02-.18.08-.22.1-.04.2-.03.3.03.13.08.24.21.33.41ZM10.29 8.02c-.1.02-.2.02-.29 0-.01 0-.03 0-.04-.03.1-.19.23-.32.4-.4a.33.33 0 0 1 .22-.02c.1.02.13.08.1.17 0 .07-.06.14-.15.19a.73.73 0 0 1-.24.09Z" fill="#fff"/><path d="M7.84 8.89a.99.99 0 0 1-.26-.15l-.07-.06c-.2-.16-.35-.27-.45-.33-.16-.1-.33-.17-.51-.21l-.02-.02V8.1l.01-.01c.18.01.35.07.52.18a3.68 3.68 0 0 1 .47.37l.16.12.15.13Z" fill="#F2DABE"/><path d="M6.98 9a.2.2 0 0 0 .16.23c.1.02.2-.06.22-.17a.2.2 0 0 0-.16-.23.2.2 0 0 0-.22.18ZM10.64 9.06a.2.2 0 0 0 .22.17.2.2 0 0 0 .17-.22.2.2 0 0 0-.22-.18.2.2 0 0 0-.17.23Z" fill="#fff"/><path d="M6.18 8.99c0 .2.05.36.15.5a.7.7 0 0 0 .46.3c.19.04.37 0 .55-.12.13-.09.24-.22.3-.4a2.8 2.8 0 0 1 1.62-.31 3.35 3.35 0 0 1 1.08.28c.06.17.16.3.3.41.14.1.3.15.47.15.2 0 .38-.09.52-.25.12-.15.19-.32.2-.53 0-.02.01-.03.06-.04.53-.09 1.03 0 1.5.26l.03.03.01.06c.1.12.17.23.22.33.06.12.1.24.12.37.02.14.04.35.05.62a4.37 4.37 0 0 0-.11.48l-.03.07a.58.58 0 0 1-.08.18.11.11 0 0 1-.07.04.45.45 0 0 0-.16.07.11.11 0 0 1-.05.02.3.3 0 0 1-.07 0 .29.29 0 0 0-.25.04l-.46.32c-.1.07-.2.12-.29.16a8.2 8.2 0 0 1-1.25.37l-.17.03-.46.07a16.16 16.16 0 0 1-2.08.05l-.13-.01a6.31 6.31 0 0 1-2.56-.58l-.6-.42a.22.22 0 0 0-.12-.04l-.12.01c-.05.01-.1 0-.16-.04-.07-.03-.12-.04-.16-.04-.04.01-.06 0-.07-.03a27.16 27.16 0 0 0-.17-.58c0-.04 0-.08-.02-.13 0-.27.02-.5.05-.66.04-.2.11-.37.22-.54l.12-.17c.01-.01.02-.03.01-.06l.03-.02A2.25 2.25 0 0 1 6.18 9Z" fill="#fff"/><path d="M9 9.14h.01c.27 0 .44.03.5.11.09.1.1.2.03.32-.1.17-.22.3-.36.4A.32.32 0 0 1 9 10a.32.32 0 0 1-.18-.05 1.25 1.25 0 0 1-.35-.39c-.08-.11-.07-.22.02-.32.07-.08.23-.11.5-.11H9Z" fill="#020101"/><path d="M8.63 9.34c0-.03.03-.06.1-.08a.97.97 0 0 1 .24-.04h.04c.1 0 .18 0 .25.02s.1.04.1.06l-.73.04Z" fill="#fff"/><path d="M10.21 10.2h-.01a.58.58 0 0 1-.43.35c-.16.03-.3 0-.42-.12-.02-.03-.02-.03.02-.03l.17.04c.1.01.2 0 .3-.06a.4.4 0 0 0 .2-.22c0-.02 0-.02-.02-.03l-.1-.02v-.02a.19.19 0 0 1 .13-.08c.05 0 .1 0 .15.02.05.03.1.06.12.1.03.05.04.1.02.16l-.01.01h-.02l-.1-.1Z" fill="#020101"/><path d="M13.82 10.65c.02.2 0 .4-.04.6a3.56 3.56 0 0 1-.2.57h-.02c0-.04 0-.1.02-.18 0-.05 0-.08-.03-.1-.03-.01-.06 0-.1.03l-.15.16h-.01c-.05-.08-.13-.09-.23-.02l-.18.13-.26.19c-.55.32-1.25.55-2.08.67-1.06.15-2.11.15-3.17-.02a5.61 5.61 0 0 1-1.95-.63c-.07-.04-.17-.1-.3-.2l-.2-.16c-.09-.05-.15-.04-.2.04l-.2-.18c-.01-.02-.03-.03-.06-.01-.03 0-.04.03-.04.06l.04.27h-.03l-.02-.05c-.1-.26-.16-.44-.18-.56a1.78 1.78 0 0 1-.05-.57l.02.13.02.1.02.06.01.05.12.37c.01.03.03.04.07.03.04 0 .1 0 .16.04s.12.05.16.04a.44.44 0 0 1 .12-.01c.04 0 .08.02.11.04a73.21 73.21 0 0 0 .69.46 6.31 6.31 0 0 0 2.49.54h.12a14.32 14.32 0 0 0 2.08-.04 5.45 5.45 0 0 0 .63-.1 4.5 4.5 0 0 0 2-.85.29.29 0 0 1 .25-.04h.07c.02 0 .04 0 .05-.02.06-.04.11-.06.17-.08.03 0 .05-.01.06-.03.03-.04.06-.1.08-.18l.03-.07.05-.19c.01-.1.04-.2.06-.29Z" fill="#F2DABE"/></svg>