<!-- by TradingView --><svg width="18" height="18" viewBox="0 0 18 18" xmlns="http://www.w3.org/2000/svg"><path fill="#02D767" d="M0 0h18v18H0z"/><path d="M6.01 5.86 6.84 5l2.72 2.85s-.67 1.01-1.62.02L6.83 6.7 4.63 9l2.2 2.3c.7.73-.02 1.71-.02 1.71l-3-3.16L3 8.99l.82-.85 2.2-2.28ZM6.3 8.3l.01-.01a.99.99 0 0 1 1.4 0l.01.01a.99.99 0 0 1 0 1.4l-.01.01a.99.99 0 0 1-1.4 0l-.01-.01a.99.99 0 0 1 0-1.4ZM15 9H15l-3.8-3.98s-.7.95-.04 1.64l2.25 2.35-2.2 2.28-1.03-1.07c-.74-.77-1.71-.08-1.71-.08l2.7 2.83.83-.85 3-3.1-.01-.01Zm-4.7-.7.01-.01a.99.99 0 0 1 1.4 0l.01.01a.99.99 0 0 1 0 1.4l-.01.01a.99.99 0 0 1-1.4 0l-.01-.01a.99.99 0 0 1 0-1.4Z" fill="#fff"/></svg>