<!-- by TradingView --><svg width="18" height="18" viewBox="0 0 18 18" xmlns="http://www.w3.org/2000/svg"><path fill="#F0F3FA" d="M0 0h18v18H0z"/><path d="M8.88 3.08A.13.13 0 0 1 9 3c.05 0 .1.03.12.08.17.44.63 1.43 1.34 2.42.24.34.53.66.82.99.84.95 1.72 1.94 1.72 3.55 0 .2-.01.4-.04.6h-2.14c.02-.1.03-.21.03-.32 0-.74-.49-1.37-.97-2a5.44 5.44 0 0 1-.82-1.3.06.06 0 0 0-.06-.05.06.06 0 0 0-.06.04c-.17.46-.5.89-.82 1.32-.48.62-.97 1.25-.97 2l.03.3H5.04c-.03-.19-.04-.38-.04-.59 0-1.6.88-2.6 1.72-3.55a11.94 11.94 0 0 0 2.16-3.4Zm1.87 7.86h2.15l-.08.31h-2.2l.13-.3Zm-.35.62h2.3l-.14.3h-2.49c.12-.09.24-.19.33-.3Zm-2.53.6a.3.3 0 0 0-.03 0H5.6l.22.31h6.34l.22-.3h-2.23A1.17 1.17 0 0 1 9.18 11v-.29a.18.18 0 1 0-.35 0V11c0 .58-.41 1.06-.96 1.17Zm-1.78.62h5.82l-.33.3H6.42a3.9 3.9 0 0 1-.33-.3Zm.76.6c.6.38 1.3.6 2.09.62a4.63 4.63 0 0 0 .12 0c.79-.02 1.5-.24 2.09-.61h-4.3Zm1.08-1.52h-2.5c-.04-.1-.1-.2-.13-.3h2.3c.1.11.2.21.33.3Zm-.54-.61h-2.2l-.09-.3h2.15c.04.1.08.2.14.3ZM9 10.05a.22.22 0 1 0 0-.43.22.22 0 0 0 0 .43Z" fill="#079239"/></svg>