<!-- by TradingView --><svg width="18" height="18" viewBox="0 0 18 18" xmlns="http://www.w3.org/2000/svg"><path fill="#F0F3FA" d="M0 0h18v18H0z"/><path d="M12.53 5c.76.01 2.3.44 2.3 2.06 0 1.1-.93 1.6-1.4 1.7v.22c.53.08 1.57.6 1.57 1.94C15 12.6 12.97 13 12.16 13H11v-1.33h.85c.64 0 1.15-.5 1.15-1.08 0-.58-.51-.92-1.15-.92H7V8.33h4.75c.58 0 1.05-.42 1.05-.96 0-.53-.47-1.04-1.05-1.04H7V5h5.53ZM4 5v8h6v-1.33H6V5H4Z" fill="url(#a0dmrv0lz)"/><defs><linearGradient id="a0dmrv0lz" x1="4.35" y1="11.52" x2="14.67" y2="11.52" gradientUnits="userSpaceOnUse"><stop stop-color="#2C52CB"/><stop offset="1" stop-color="#A52C6D"/></linearGradient></defs></svg>