<!-- by TradingView --><svg width="18" height="18" viewBox="0 0 18 18" xmlns="http://www.w3.org/2000/svg"><path fill="url(#aw4vztnbg)" d="M0 0h18v18H0z"/><path d="M6.71 4.54A4.78 4.78 0 0 1 8.85 4a5 5 0 0 1 1.58 9.78c-.2.06-.4.11-.59.14-.34.05-.7.1-1.05.07-.1-.02-.21-.02-.32-.03a4.94 4.94 0 0 1-1.59-.44c-.16-.06-.29-.16-.43-.26a.7.7 0 0 0-.1-.05l-.21-.13-.13-.09a5.05 5.05 0 0 1-.9-7.16l.14-.15c.21-.21.42-.44.66-.63.26-.2.49-.33.75-.49l.05-.02h.01Z" fill="#B52331"/><path d="M13.6 8.97c-.01 1.18-.5 2.31-1.36 3.15a4.67 4.67 0 0 1-7.49-1.46 4.32 4.32 0 0 1 1-4.84 4.67 4.67 0 0 1 7.5 1.45c.22.54.34 1.12.34 1.7Z"/><path d="M13.32 9.02a4.1 4.1 0 0 1-1.27 2.94A4.4 4.4 0 0 1 5 10.58a4.05 4.05 0 0 1 .95-4.54A4.4 4.4 0 0 1 13 7.42c.21.5.32 1.05.32 1.6Z" fill="#F49521"/><path d="M12.79 9a3.5 3.5 0 0 1-1.1 2.55 3.76 3.76 0 0 1-2.65 1.06c-1 0-1.95-.38-2.65-1.06a3.54 3.54 0 0 1 0-5.1 3.82 3.82 0 0 1 6.11 1.17c.19.44.29.9.29 1.38Z"/><path d="M12.46 8.97c0 .88-.37 1.72-1.02 2.34a3.53 3.53 0 0 1-4.88 0 3.26 3.26 0 0 1-1.02-2.34c0-.88.37-1.73 1.02-2.35a3.53 3.53 0 0 1 4.88 0 3.26 3.26 0 0 1 1.02 2.35Z" fill="#FFF200"/><ellipse cx="7.38" cy="8.93" rx=".7" ry=".71" fill="#BAB45C"/><ellipse cx="10.61" cy="8.93" rx=".7" ry=".71" fill="#BAB45C"/><path d="m11.75 7.74-.12-.24a2.9 2.9 0 0 0-1.29-1.1 2.44 2.44 0 0 0-1-.26l-.01-.01V6.1a.02.02 0 0 1 .01-.01c.4-.03.85.06 1.21.23a2.88 2.88 0 0 1 1.16 4.42c-.39.5-.93.85-1.53 1.05-.2.07-.39.08-.6.13a.94.94 0 0 1-.35.01c-.02 0-.02-.01-.03-.02v-.03l.04-.01a3.05 3.05 0 0 0 2.62-1.83c.06-.18.13-.33.16-.53a3.1 3.1 0 0 0 0-1c-.02-.1-.06-.21-.1-.32-.02-.1-.08-.19-.1-.3a.73.73 0 0 0-.07-.16Z" fill="#FFFFDC"/><path d="M7.78 8.34c.15.13.12.3.1.5-.03.67-1.05.63-1.04.01V7.6c0-.04.01-.04.04-.03l.07.04c.28.25.55.5.83.73ZM11.14 8.05v.81c0 .37-.39.54-.7.44-.37-.11-.36-.45-.36-.78a.32.32 0 0 1 .12-.17 79.64 79.64 0 0 0 .91-.8.02.02 0 0 1 .03.02v.48ZM9.5 10.82c-.71.19-1.32-.1-1.85-.58a.09.09 0 0 1 0-.12l.01-.02c.05-.06.1-.06.16-.01.56.52 1.26.75 1.97.37.24-.12.36-.24.54-.39a.1.1 0 0 1 .08-.02.1.1 0 0 1 .07.04l.01.02a.1.1 0 0 1 0 .13c-.3.27-.62.48-.98.58Z"/><defs><linearGradient id="aw4vztnbg" x1="3.35" y1="3.12" x2="21.9" y2="24.43" gradientUnits="userSpaceOnUse"><stop stop-color="#1A1E21"/><stop offset="1" stop-color="#06060A"/></linearGradient></defs></svg>