<!-- by TradingView --><svg width="18" height="18" viewBox="0 0 18 18" xmlns="http://www.w3.org/2000/svg"><path fill="#F0F3FA" d="M0 0h18v18H0z"/><circle cx="9" cy="9" r="6" fill="#F7B137"/><path d="M9 15a6 6 0 0 0 3.4-10.95L7.41 8.83l2.65.2-4.78 4.69C6.31 14.52 7.6 15 9 15Z" fill="url(#afsqfzm2n)"/><path d="M5.96 9.05 13.8 3 9.25 7.88h2.12c.25 0 .4.16.43.35a.37.37 0 0 1-.14.34L4 15l4.67-5.25H6.23c-.27 0-.44-.2-.43-.41 0-.11.05-.22.16-.3Z" fill="#1D5B9C"/><path fill-rule="evenodd" d="M7.25 5.21c0-.12.1-.21.22-.21h.31c.12 0 .22.1.22.21v1c0 .07.06.12.12.12h.76c.06 0 .12-.05.12-.12v-1c0-.12.1-.21.22-.21h.29c.12 0 .24.1.24.21v1c0 .07.06.12.12.13.73.04 1.76.34 1.76 1.13 0 .9-.56 1.22-.76 1.27.2.04 1.13.36 1.13 1.26 0 1.6-1.4 1.62-2.13 1.66-.06 0-.12.06-.12.13v1c0 .12-.1.21-.22.21h-.36c-.12 0-.17-.1-.17-.21v-1a.12.12 0 0 0-.12-.12h-.76a.12.12 0 0 0-.12.12v1c0 .12-.1.21-.22.21h-.31a.21.21 0 0 1-.22-.21v-1a.12.12 0 0 0-.12-.12h-.94a.18.18 0 0 1-.19-.18l.08-.72c0-.1.09-.19.19-.19h.48c.14 0 .25-.1.25-.24v-3.1A.25.25 0 0 0 6.75 7H6.2A.18.18 0 0 1 6 6.82v-.37c0-.1.08-.18.19-.18h.94c.06 0 .12-.05.12-.12v-.94ZM8 7.42c0-.1.08-.18.19-.18h1.2c.4 0 .61.4.61.55 0 .4-.2.85-.61.85h-1.2A.18.18 0 0 1 8 8.46V7.42Zm0 2.98c0 .1.08.18.19.18h1.45c.4-.1.86-.16.86-.56s-.42-.57-.8-.66H8.19c-.1 0-.19.08-.19.18v.86Z" fill="#fff"/><defs><linearGradient id="afsqfzm2n" x1="7.67" y1="8.55" x2="13.77" y2="12.88" gradientUnits="userSpaceOnUse"><stop stop-color="#B47C21"/><stop offset="1" stop-color="#E2A728"/></linearGradient></defs></svg>