<!-- by TradingView --><svg width="18" height="18" viewBox="0 0 18 18" xmlns="http://www.w3.org/2000/svg"><path fill="url(#a)" d="M0 0h18v18H0z"/><path d="M4.03 5H6v5.48c.02.43.33.53.67.52h.92l.03.01v1.97l-.05.02H5.62c-.37 0-.78-.2-1.07-.5A1.96 1.96 0 0 1 4 11.08V5.04l.01-.02.02-.02ZM10 5.81v.8c0 .02 0 .03-.02.04a.05.05 0 0 1-.03.02H8.49l-.01.01v.02l.92.7c.12.1.22.2.31.3.16.21.25.44.27.68l.02.4v4.2l-.02.01-.02.01H8.04l-.03-.01-.01-.03V5.05c0-.01 0-.02.02-.03A.06.06 0 0 1 8.06 5h1.9l.02.01.02.03v.77ZM12.34 6.67H14v1.96c0 .05-.05.04-.08.04h-1.55l-.03.03v1.45c0 .43.06.85.53.85h1.11l.02.02v1.95l-.02.02H12.2c-.85 0-1.56-.55-1.76-1.43-.04-.15-.06-.4-.06-.73v-5.8l.02-.02h1.95c0-.01 0 0 0 0 0-.01 0 0 0 0 0-.01 0 0 0 0 0-.01 0 0 0 0v1.66Z" fill="#fff"/><defs><linearGradient id="a" x1="11.89" y1="1.89" x2="5.87" y2="18" gradientUnits="userSpaceOnUse"><stop stop-color="#FC6A3F"/><stop offset="1" stop-color="#FF3E06"/></linearGradient></defs></svg>