<!-- by TradingView --><svg width="18" height="18" viewBox="0 0 18 18" xmlns="http://www.w3.org/2000/svg"><path fill="#F0F3FA" d="M0 0h18v18H0z"/><path d="m4.35 6.75.03.01.32.15.36.16a4.15 4.15 0 0 1 1.99-1.99l-.16-.36-.23-.52c-.25-.51-.71-.34-.88-.26a5.8 5.8 0 0 0-1.8 1.75v.03c-.29.68.22.96.37 1.03Z" fill="#00934B"/><path d="m5.07 7.06.58.26.5.22.4.18c.24-.5.64-.9 1.16-1.16l-.18-.4-.22-.5-.25-.59a4.18 4.18 0 0 0-1.99 1.99Z" fill="#22D511"/><path d="m6.54 7.72.84.36.77.34a.28.28 0 0 0 .26-.27l-.34-.77-.37-.83a2.6 2.6 0 0 0-1.16 1.17Z" fill="#BEF000"/><path d="M14.86 7.76c-.27-.67-.82-.51-.97-.45l-.04.01-.34.13-.36.15c.33.94.31 1.93 0 2.81l.36.15.47.18c.55.23.77-.16.86-.37.2-.84.22-1.73.02-2.6Z" fill="#00934B"/><path d="m13.15 7.6-.58.23-.52.2-.4.16c.18.55.17 1.12 0 1.64l.4.16.51.2.59.22c.32-.88.34-1.87 0-2.81Z" fill="#22D511"/><path d="m11.65 8.19-.85.33-.79.3a.27.27 0 0 0-.04.3l.04.07.8.3.84.34c.17-.52.19-1.1 0-1.64Z" fill="#BEF000"/><path d="m4.48 10.56.37-.15a4.15 4.15 0 0 1 0-2.81l-.37-.15-.47-.18c-.55-.22-.78.18-.85.38-.2.83-.21 1.7-.03 2.57.27.7.83.54.98.48l.37-.14Z" fill="#00934B"/><path d="m4.85 10.41.59-.22.5-.2.41-.16a2.53 2.53 0 0 1 0-1.64l-.4-.16-.51-.2-.6-.22a4.13 4.13 0 0 0 0 2.8Z" fill="#22D511"/><path d="m6.36 9.83.85-.33.78-.3a.27.27 0 0 0-.01-.38l-.78-.3-.85-.33c-.17.52-.18 1.1 0 1.64Z" fill="#BEF000"/><path d="m5.08 10.95-.36.16-.37.17s-.66.35-.36 1.02v.01c.48.74 1.1 1.34 1.83 1.78.18.1.65.24.88-.33l.2-.46.16-.35a4.22 4.22 0 0 1-1.98-2Z" fill="#00934B"/><path d="m7.55 11.86.17-.4c-.5-.24-.9-.64-1.16-1.16l-.4.18-.5.22-.58.25c.42.9 1.14 1.59 1.99 1.99l.25-.58.23-.5Z" fill="#22D511"/><path d="m7.72 11.46.36-.84.34-.77a.28.28 0 0 0-.27-.26l-.76.34-.84.37c.26.52.68.91 1.17 1.16Z" fill="#BEF000"/><path d="m12.93 7.07.36-.16.4-.18h-.03c.14-.06.65-.34.36-1a5.7 5.7 0 0 0-1.87-1.82c-.53-.27-.85.34-.85.34l-.2.46-.16.36c.85.4 1.57 1.09 2 2Z" fill="#00934B"/><path d="m10.46 6.15-.17.4c.5.24.9.64 1.17 1.17l.4-.18.5-.22.57-.25a4.18 4.18 0 0 0-2-2l-.25.58-.22.5Z" fill="#22D511"/><path d="m10.3 6.55-.37.83-.34.78c0 .1.07.2.17.24l.1.02.77-.34.83-.36a2.66 2.66 0 0 0-1.17-1.17Z" fill="#BEF000"/><path d="m10.55 13.52-.14-.37c-.95.34-1.93.32-2.82 0l-.14.37-.24.6s-.11.48.58.74a5.75 5.75 0 0 0 2.49 0c.11-.04.69-.22.48-.82l-.2-.52Z" fill="#00934B"/><path d="m10.42 13.15-.23-.58-.2-.52-.16-.4c-.55.19-1.12.18-1.64 0l-.16.4-.2.52-.23.58c.88.32 1.87.34 2.82 0Z" fill="#22D511"/><path d="m9.82 11.65-.33-.85-.3-.78a.29.29 0 0 0-.3-.05.28.28 0 0 0-.08.05l-.3.78-.33.85c.52.17 1.09.19 1.64 0Z" fill="#BEF000"/><path d="m7.44 4.49.15.36a4.2 4.2 0 0 1 2.81 0l.15-.37.14-.37c.06-.15.21-.72-.48-.98l-.01-.01a5.92 5.92 0 0 0-2.53.03c-.2.07-.65.29-.4.87l.17.47Z" fill="#00934B"/><path d="m7.59 4.85.23.59.2.5.15.42a2.52 2.52 0 0 1 1.65 0l.15-.41.2-.51.23-.59a4.15 4.15 0 0 0-2.81 0Z" fill="#22D511"/><path d="m8.17 6.36.33.85.32.79a.28.28 0 0 0 .36-.02l.3-.78.34-.85a2.62 2.62 0 0 0-1.65 0Z" fill="#BEF000"/><path d="m13.66 11.26-.04-.01-.33-.15-.36-.15a4.17 4.17 0 0 1-1.99 1.99l.16.36.2.45c.26.64.8.39.94.3A5.74 5.74 0 0 0 14 12.33s0-.02.02-.03c.3-.68-.22-.96-.36-1.03Z" fill="#00934B"/><path d="m12.93 10.95-.58-.26-.5-.22-.4-.17c-.24.49-.64.9-1.16 1.15l.17.4.22.5.26.58c.9-.42 1.6-1.14 2-1.98Z" fill="#22D511"/><path d="m11.45 10.3-.84-.36-.75-.33c-.03 0-.07 0-.1.02a.27.27 0 0 0-.15.15.2.2 0 0 0-.02.09l.33.76.37.83c.52-.26.92-.67 1.16-1.16Z" fill="#BEF000"/></svg>