<!-- by TradingView --><svg width="18" height="18" viewBox="0 0 18 18" xmlns="http://www.w3.org/2000/svg"><path fill="#F0F3FA" d="M0 0h18v18H0z"/><path d="M12.77 4.34c-.02.08.03.16.14.24l.21.17c.26.25.49.52.69.83v.05c0 .02-.02.03-.04.03h-.02c-.05-.08-.09-.11-.1-.1a.1.1 0 0 0-.08.06.15.15 0 0 0 0 .1c.07.17.14.3.23.42l.23.38.23.38c0 .05.02.1.05.13.03.03.05.03.07 0a.17.17 0 0 0 .01-.07c0-.03.02-.04.05-.04.03 0 .07.04.1.1l.11.14c.03.03.04.02.03-.01l-.04-.3c.05.12.1.23.13.34.04.1.06.21.08.34.03.35.07.67.13.97.03.19.03.47-.02.84l-.04.47a4.33 4.33 0 0 1-.2.97l-.24.67c-.07.22-.22.5-.45.81a1 1 0 0 0-.3-.4 3.05 3.05 0 0 0-.3-.22.94.94 0 0 0-.3-.12c-.24-.06-.4-.11-.51-.17-.21-.13-.48-.26-.8-.42a2.42 2.42 0 0 1-.5-.32c-.27-.19-.5-.32-.7-.38-.05 0-.06-.04-.04-.08l.01-.03c.02-.02.04-.03.06-.02l.66.18c.2.04.4.06.62.06.4 0 .7-.08.89-.26.22-.2.28-.5.18-.91-.01-.05 0-.1.03-.14a.15.15 0 0 1 .12-.07h.53c.04 0 .06-.03.06-.06 0-.24-.04-.5-.15-.79a7.45 7.45 0 0 0-.37-.76 2.25 2.25 0 0 0-.73-.61 9.53 9.53 0 0 0-.7-.32c-.26-.1-.55-.12-.87-.07a.42.42 0 0 1-.25-.05c-.03-.02-.03-.05-.02-.07l.07-.14a.07.07 0 0 0 0-.08l-.3-.4a.36.36 0 0 0-.13-.14.7.7 0 0 1-.35-.11c.18-.15.35-.15.5 0 .01.03.03.03.06.02.04-.02.06-.03.07-.05.08-.12.13-.1.15.03.01.13-.04.2-.15.2-.06.01-.08.05-.06.1.02.07.07.1.15.08.05-.02.06-.05.04-.1.01-.09.06-.09.13 0l.15.03c.02 0 .04 0 .04-.04-.02-.13.03-.21.14-.23.02 0 .03-.01.04-.03v-.05a2 2 0 0 0-.38-.39.16.16 0 0 1-.06-.1c0-.03 0-.07.02-.12a.13.13 0 0 0 .01-.07.46.46 0 0 0-.16-.27.9.9 0 0 0-.27-.17l.64-.27c.04-.02.04-.04 0-.07-.48-.28-1-.45-1.58-.49a.47.47 0 0 0-.36.12 1.1 1.1 0 0 0-.23.34.06.06 0 0 1-.05.03h-.03c-.03 0-.05 0-.06-.04l-.03-.1c-.06-.19-.11-.32-.15-.4a.78.78 0 0 0-.27-.28h.01a2.7 2.7 0 0 1 .96 0l.27.03c.3.06.72.12 1.28.2a5.96 5.96 0 0 1 2.01 1.07Z" fill="#DAD7D1"/><path d="M8.24 3.04c.11.07.2.17.27.29a2.52 2.52 0 0 1 .18.5c.01.02.03.03.06.03h.03c.03 0 .04 0 .05-.03.08-.16.15-.28.23-.34.1-.09.21-.13.36-.12.58.04 1.1.2 1.58.5.04.02.04.04 0 .06l-.64.27a.73.73 0 0 1-.1-.01c-.12-.03-.12-.07-.01-.1l.27-.1c.02 0 .02 0 .02-.02v-.02l-.03-.01-.68-.07c-.04-.01-.07 0-.09.03-.02.03-.02.05.01.06l.1.05c.02.01.02.03.01.06s-.03.05-.06.04c-.22-.02-.4 0-.55.06-.19.09-.27.24-.26.46l.02.1.01.1c0 .03 0 .05.02.07.25.31.55.46.9.46.11.07.23.1.35.11-.1.03-.16.08-.16.15 0 .03.01.05.03.06.15.06.24.04.26-.06l.3.4c.01.02.01.04 0 .07l-.07.14c-.01.02 0 .05.02.07.06.04.14.05.25.05-.27.04-.46.04-.58 0l-.41-.1h-.07l-.2.14c-.05.07-.07.13-.06.17.04.14 0 .17-.11.08-.03-.02-.04-.07-.04-.14l.2-.3a.09.09 0 0 0 .02-.05l.01-.19c0-.02 0-.04-.03-.06l-.3-.28c-.09-.24-.23-.35-.44-.32l-.13-.02-.07.01a.3.3 0 0 1-.17.06c-.02 0-.03 0-.02-.03.06-.11.1-.17.15-.18.16-.02.17-.07.04-.17a.39.39 0 0 1-.14-.21c0-.04 0-.05.04-.05h.06c.03 0 .05-.01.05-.04V4.6l-.07-.04c-.11 0-.2-.08-.28-.21a.11.11 0 0 1-.01-.07 1.4 1.4 0 0 0-.01-.51c-.08-.2-.24-.3-.47-.31-.23 0-.49.04-.77.13a.86.86 0 0 1-.42 0c.2-.06.38-.14.56-.23a.73.73 0 0 1 .2-.05.68.68 0 0 0 .17-.04c.01 0 .02-.01.02-.03v-.02c0-.02 0-.03-.02-.03h-.14l.76-.16Z" fill="#C2BFBA"/><path d="M7.48 3.2h.14c.02 0 .02.01.02.03v.02c0 .02 0 .03-.02.03a.68.68 0 0 1-.17.04.73.73 0 0 0-.2.05c-.18.09-.37.17-.56.23-.24.08-.4.15-.49.2-.1.09-.2.15-.27.19l-.25.15-.23.2c-.02.02-.02.04.01.06l.05.01c-.22.2-.47.35-.76.45-.02.01-.02 0 0-.02l.23-.31a6.08 6.08 0 0 1 2.5-1.34Z" fill="#8F8F8D"/><path d="M8.9 5.3a.21.21 0 0 1-.13.05c-.05 0-.09.02-.11.05a.88.88 0 0 0-.15.43c-.02.15.01.27.1.35.1.1.22.15.36.16.06 0 .12-.03.2-.1.18-.14.24-.34.17-.62l.31.28.03.06v.19l-.02.04-.2.3-.3.03c-.04-.04-.08-.05-.11-.04C9 6.5 9 6.52 9 6.56c0 .04.02.08.06.12.05.16.12.3.2.45l-.01.08c-.02.03-.04.03-.05 0l-.03-.04-.14-.19a7.48 7.48 0 0 1-.23-.38c-.06-.11-.12-.2-.2-.28a.8.8 0 0 1-.23-.72c.01-.09-.02-.1-.09-.05l-.17.14c-.05.04-.09.03-.12-.02l-.25-.45h-.03l-.02.01c-.02.12-.05.23-.1.33-.02.03-.03.03-.04 0l-.03-.1c.03-.27-.1-.46-.37-.56.23-.02.4-.1.51-.25.02-.04.02-.07 0-.1a1.58 1.58 0 0 0-.45-.36c-.02-.06-.04-.1-.06-.1-.03-.02-.05 0-.05.02-.01.06 0 .1.05.13A.4.4 0 0 1 7 4.2c-.37-.27-.82-.22-1.34.17l-.15.05-.05-.01c-.03-.02-.03-.04 0-.07l.22-.19.25-.15.27-.18c.08-.06.25-.13.5-.2.16.03.3.03.41-.01.28-.09.54-.13.77-.13.23 0 .39.1.47.3.03.09.03.26.01.52l.01.07c.08.13.17.2.28.21.03 0 .05.02.06.04.01.03.02.04.01.06 0 .03-.02.04-.05.04h-.06c-.03 0-.04.01-.04.05.03.1.08.16.14.21.13.1.12.15-.04.17-.04.01-.1.07-.15.18-.01.02 0 .03.02.03a.3.3 0 0 0 .17-.06.08.08 0 0 1 .07-.01l.13.02Z" fill="#9F9D99"/><path d="M10.36 4.2c.1.04.2.1.27.17.1.09.15.18.16.27l-.01.07a.2.2 0 0 0-.02.13c0 .03.03.06.06.1a2 2 0 0 1 .37.38c.02.01.02.03.01.05 0 .02-.02.03-.04.03-.1.02-.16.1-.15.23 0 .03 0 .04-.03.04a.44.44 0 0 1-.15-.04c-.07-.08-.12-.08-.13 0a.22.22 0 0 0-.13-.07c.11 0 .16-.07.14-.2-.01-.14-.06-.15-.14-.03-.01.02-.04.03-.07.05-.03.01-.05 0-.07-.01-.15-.16-.31-.16-.5-.01a1.1 1.1 0 0 1-.89-.46.1.1 0 0 1-.02-.07l-.01-.1a.46.46 0 0 1-.02-.1c-.01-.22.07-.37.26-.46.14-.06.33-.08.55-.06.03 0 .05 0 .06-.04.01-.03 0-.05-.02-.06l-.09-.05c-.03-.01-.03-.03-.01-.06a.09.09 0 0 1 .09-.03 14.57 14.57 0 0 0 .7.08l.01.02c0 .01 0 .02-.02.02l-.27.1c-.12.03-.11.07 0 .1l.11.01Z" fill="#9F9D99"/><path d="M7.16 4.24c.05 0 .07-.02.06-.05.17.09.32.21.45.36.02.03.02.06 0 .1a.65.65 0 0 1-.5.25c-.16-.01-.28 0-.38.05h-.02l-.45-.56c-.02-.04-.06-.05-.1-.04-.12.04-.2.04-.25 0a.08.08 0 0 0-.05-.03c-.09 0-.17 0-.26.04.52-.39.97-.44 1.34-.17a.4.4 0 0 0 .16.05Z" fill="#8F8F8D"/><path d="M7.22 4.19c.01.03 0 .05-.06.05a.13.13 0 0 1-.05-.13c0-.03.02-.04.04-.02.03 0 .05.04.07.1Z" fill="#434343"/><path d="M6.77 4.96c-.1.24-.13.47-.08.68.05.24.2.4.44.48-.23 0-.41-.12-.56-.36l.05.23V6h-.03l-.02-.03c0-.04 0-.09-.03-.13a.3.3 0 0 1-.04-.07 1.16 1.16 0 0 1-.02-.56c0-.03 0-.04-.03-.03-.03 0-.05.02-.06.05-.24.45-.2.8.1 1.03-.13.07-.3.1-.5.12l.2-.07c.02 0 .03-.02.02-.05l-.14-.35a8.39 8.39 0 0 0-.38-1.08l.01-.09c.08-.1.06-.13-.06-.08-.21.1-.44.2-.7.29-.16.06-.42.23-.78.5.24-.34.5-.65.82-.92l-.24.31c-.01.02-.01.03.01.02.29-.1.54-.25.76-.45l.15-.05a.56.56 0 0 1 .26-.04c.02 0 .03 0 .05.02.05.05.13.05.24.01.05-.01.08 0 .11.04l.45.57Z" fill="#6C6B6A"/><path d="M11.34 5.4c.02-.05 0-.1-.04-.15a2.6 2.6 0 0 1-.17-.2.09.09 0 0 1-.02-.06.87.87 0 0 0 0-.42c-.02-.05 0-.08.05-.08h.25c.03 0 .05-.02.06-.04v-.03c0-.06.04-.09.1-.08.14.03.27.1.4.2l.02.08c0 .03-.02.05-.04.06a.16.16 0 0 0-.06.07c-.02.02-.01.05 0 .07.12.11.2.23.23.34l-.01.07a.46.46 0 0 1-.28.18c-.03 0-.04.02-.03.05l.08.45c0 .02 0 .04-.02.05a.05.05 0 0 1-.06 0 .54.54 0 0 1-.22-.22.08.08 0 0 0-.06-.03c-.14-.02-.23-.11-.26-.28 0-.03 0-.04.03-.03l.03.02.02-.01ZM12.77 4.34a5.78 5.78 0 0 1 1.87 2.52l.04.29c0 .03 0 .04-.03 0l-.1-.14c-.04-.05-.08-.08-.11-.09-.03 0-.04 0-.05.04l-.01.06c-.02.04-.04.04-.07.01a.2.2 0 0 1-.05-.13l.05.06c.02.02.04.02.04-.02a.8.8 0 0 0-.08-.4 7.92 7.92 0 0 0-.5-.88c.02 0 .03-.01.04-.03a.05.05 0 0 0 0-.05 5.15 5.15 0 0 0-.9-1c-.11-.08-.16-.16-.14-.24Z" fill="#A9A8A5"/><path d="M6.07 5.91c-.22.04-.37-.06-.45-.3-.07-.2-.11-.4-.12-.6 0-.06-.03-.09-.1-.08-.4.06-.74.26-1 .6-.19.13-.34.3-.46.5l.09-.39.13-.18c.36-.28.62-.45.78-.51l.7-.29c.12-.05.14-.02.06.08l-.01.1.01.07c.15.33.27.66.37 1Z" fill="#795B51"/><path d="M7.16 4.9c.27.1.4.29.37.56-.02.24-.1.42-.24.53L7.23 6c-.02-.02-.03-.05-.02-.08a.89.89 0 0 0 .08-.39v-.08l-.01-.16c-.02-.05-.07-.09-.14-.12a3.8 3.8 0 0 1-.23-.1.04.04 0 0 1-.02-.04c0-.02 0-.03.02-.04a.61.61 0 0 1 .28-.05V4.9l-.4.04c.1-.05.23-.06.37-.05Z" fill="#100E10"/><path d="m6.07 5.91.14.35c0 .03 0 .04-.02.05l-.2.07c-.11.12-.05.15.18.1a.55.55 0 0 1 .19 0l.45.06a2.16 2.16 0 0 1 .78.3l.49.48c.07.06.13.14.16.23.12.3.2.6.24.93l.03.58.01.01h.03c0-.05.02-.1.05-.14l-.02 1.25-.24.3c-.07.09-.07.18 0 .26.09.12.21.22.36.32.16.1.31.13.48.1.15-.03.27-.04.37-.03.32.04.42.18.3.4-.12.12-.21.18-.28.17a1.45 1.45 0 0 0-.4.01.12.12 0 0 0-.09.07.13.13 0 0 0 0 .12c.02.05.04.1.05.17 0 .08-.02.11-.09.1a.11.11 0 0 1-.1-.07c-.04-.13-.13-.17-.26-.13l.43-.32a.13.13 0 0 1 .07-.02c.2-.02.38-.06.52-.11.1-.04.1-.1.03-.16l-.08-.06c-.08-.06-.15-.06-.23 0l-.33.27a.32.32 0 0 1-.22.07.33.33 0 0 1-.21-.08l-.35-.32c-.05-.05-.05-.06.02-.04a2.8 2.8 0 0 1 .39.18c.06.01.1 0 .1-.07a.09.09 0 0 0-.04-.07l-.61-.5c-.06-.04-.06-.1-.02-.15l.29-.37a.11.11 0 0 0 .02-.07l-.03-1.97a9.53 9.53 0 0 1-.53-.72l-.26-.33a.61.61 0 0 0-.35-.28l-.88-.22a1.79 1.79 0 0 0-.89.08l-.3-1.24c0-.02-.01-.04-.04-.04a.9.9 0 0 0-.63.12c-.08.06-.18.16-.29.31-.09.13-.16.26-.22.38-.1.23-.24.55-.4.98a4.1 4.1 0 0 0-.2.91l-.02-.01a3.9 3.9 0 0 1 .98-2.6c.26-.33.6-.53 1-.59.07 0 .1.02.1.08 0 .2.05.4.12.6.08.24.23.34.45.3Z" fill="#434343"/><path d="m7.29 6-.16.12a.62.62 0 0 1-.44-.48c-.05-.2-.02-.44.08-.68l.02-.01.4-.04v.03c-.1 0-.2.01-.28.05a.04.04 0 0 0-.02.04c0 .01 0 .03.02.04l.23.1c.07.03.12.07.14.12l.02.16v.08c0 .14-.03.27-.09.4-.01.02 0 .05.02.07h.06Z" fill="#292222"/><path d="M7.12 6.12 7.3 6c.14-.11.22-.29.24-.53l.03.1c.01.03.02.03.03 0 .06-.1.1-.2.11-.33l.02-.02.03.01.25.45c.03.05.07.06.12.02l.17-.14c.07-.06.1-.04.09.05a.8.8 0 0 0 .23.72c.07.08.14.17.2.28l.23.38c-.17-.02-.27 0-.3.1-.1.24-.05.4.17.49l.06-.01.07-.06c.07-.05.1-.1.12-.12.03-.05.04-.12.02-.21l.02.04c.02.03.04.03.06 0a.08.08 0 0 0 0-.08c-.08-.14-.14-.3-.2-.45.05.02.08.02.1 0 .04-.04.04-.1 0-.16l.29-.02c0 .07 0 .12.04.14.1.09.15.06.11-.08-.01-.04 0-.1.06-.17l-.03.48a2.05 2.05 0 0 0 .06.9c.05.24.09.42.1.54.02.22.05.46.1.71.02.08.06.09.1.02a.18.18 0 0 1 .07-.05c.03-.01.04 0 .05.03v.15a.47.47 0 0 0-.1.14c-.04.15-.08.15-.11 0L9.64 8.1c-.25-.06-.44.01-.6.23-.12.18-.19.4-.2.67-.05.42-.13.82-.26 1.2l.02-1.26c.1-.42.06-.81-.13-1.18a19.56 19.56 0 0 0-.3-.53h-.02c-.01.01-.02.02-.01.03.2.38.3.8.34 1.23a3.48 3.48 0 0 0-.24-.93.63.63 0 0 0-.16-.23l-.5-.47a2.16 2.16 0 0 0-.77-.3l-.46-.07h-.18c-.23.05-.3.02-.18-.1.2-.01.37-.05.5-.12l.3.03c.11 0 .12-.03.02-.1l-.2-.1c-.12-.06-.2-.17-.22-.34a.83.83 0 0 1 .03-.41v-.08l-.03-.03c.01-.03.03-.05.06-.05s.04 0 .03.03c-.04.19-.03.38.02.56l.04.07c.02.04.04.09.03.13 0 .01 0 .02.02.02L6.6 6h.01l-.05-.24c.15.24.33.36.55.36Z" fill="#8F8F8D"/><path d="m6.4 5.23.01.03c.01.03.02.05 0 .08a.83.83 0 0 0-.02.41c.03.17.1.28.22.33.05.03.12.06.2.12.1.06.1.09-.02.1l-.3-.04c-.3-.23-.34-.58-.1-1.03Z" fill="#C2BFBA"/><path d="M9.34 5.62c.07.28 0 .48-.17.62l-.06.01c-.03-.02-.03-.05-.01-.07.06-.1.09-.22.09-.34 0-.27-.13-.4-.37-.4-.03 0-.04-.01-.05-.04v-.05c.05 0 .1-.02.13-.05.21-.03.36.08.44.32Z" fill="#434343"/><path d="M5.52 6.7c-.22.12-.37.2-.46.21a2 2 0 0 1-.46 0 .05.05 0 0 1-.05-.03c-.03-.12-.01-.2.06-.25a.08.08 0 0 0 .04-.08V6.4c0-.06-.02-.1-.06-.13a.14.14 0 0 0-.14-.01.25.25 0 0 0-.13.13c-.38.72-.53 1.5-.45 2.32.05.45.12.9.21 1.33a4.64 4.64 0 0 0 .37.96 5.83 5.83 0 0 0 1.9 2.38l.74.59c.12.1.26.18.42.25l.86.34c.18.08.34.13.48.14.22.03.36-.02.42-.15.02-.03 0-.05-.02-.06l-.43-.23a.1.1 0 0 1-.06-.08c0-.03 0-.06.03-.1.18-.2.43-.39.76-.56l.02-.03v-.02c-.01-.03-.03-.04-.06-.04-.3.02-.67 0-1.1-.07-.07 0-.1-.04-.12-.08a.26.26 0 0 1 .02-.17c.02-.05.06-.08.1-.09l.63-.13-.4.09-.22.1a.07.07 0 0 0-.04.06c0 .04.01.06.04.08.18.09.37.14.58.15h.66c.05 0 .06.02.02.06l-.66.54a.04.04 0 0 0-.02.03l.02.04.15.07.02.04v.1c0 .02.01.03.03.02l.37-.07c.03 0 .05 0 .06.02.08.1.13.16.17.17.31.17.6.23.87.18.27-.05.5-.07.66-.05a5.78 5.78 0 0 1-3.24.42c-.04-.16-.14-.26-.31-.3-.5-.13-.9-.29-1.18-.47l-.28-.14c-.14-.06-.23-.1-.3-.15a.77.77 0 0 1-.21-.26c-.09-.16-.2-.3-.3-.42a5.6 5.6 0 0 0-.4-.35l-.02-.02c-.1-.09-.21-.22-.32-.39l-.36-.55a9.3 9.3 0 0 1-.7-1.44l-.2-.3c.02-.17.02-.34.01-.51 0-.08-.03-.18-.09-.32a1.02 1.02 0 0 1-.07-.52c.07-.53.16-1.06.26-1.57.16-.43.3-.75.4-.98.06-.12.13-.25.22-.38a.9.9 0 0 1 .92-.43c.03 0 .04.02.05.04l.3 1.24Z" fill="#292222"/><path d="M13.55 6.23c-.28.11-.42.39-.4.84a1.06 1.06 0 0 1-.04-.45c0-.02 0-.04-.03-.04a.3.3 0 0 0-.24.1c-.03.03-.06.04-.1.02a.83.83 0 0 1-.48-.59c-.02-.05 0-.1.03-.13.04-.05.05-.1.03-.16-.02-.06-.06-.08-.12-.07h-.09c-.02.01-.03 0-.02-.04a.33.33 0 0 0-.01-.2.09.09 0 0 1 0-.08.08.08 0 0 1 .06-.04c.09-.02.15 0 .19.08 0 .02.01.04 0 .07-.02.06-.02.11-.01.14 0 .02.02.02.05.02l.37-.1c.02-.01.03-.02.01-.04-.04-.07-.05-.13-.03-.18a.06.06 0 0 1 .06-.04c.14 0 .24.07.32.2.08.15.09.27.02.36a.1.1 0 0 0 0 .1c.05.1.14.19.28.25.02.01.04 0 .04-.03V6.1c0-.05.02-.05.06-.02.03.03.05.09.05.15Z" fill="#A9A8A5"/><path d="M8.77 5.35v.05c.01.03.03.04.05.04.24 0 .37.13.37.4 0 .12-.03.24-.09.34-.02.02-.01.05 0 .07h.07c-.08.06-.14.1-.2.09a.55.55 0 0 1-.36-.16c-.09-.08-.12-.2-.1-.35a.89.89 0 0 1 .15-.43c.02-.03.06-.05.1-.05Z" fill="#6C6B6A"/><path d="M10.3 5.47c.04.03.09.08.12.15-.02.1-.1.12-.26.06a.06.06 0 0 1-.03-.06c0-.07.05-.12.16-.15Z" fill="#A9A8A5"/><path d="M4.4 5.53a3.9 3.9 0 0 0-.96 2.6v-.01c.04-.31.1-.61.2-.9-.1.51-.2 1.04-.26 1.57-.02.19 0 .36.07.52.05.14.08.24.09.32.01.17 0 .34-.01.5v-.61L3.5 9.5l-.02.01v.41c0 .1.03.23.1.37l.4.95.09.16h.02c.01-.01.02-.02.01-.03l-.37-.93.06.15a9.3 9.3 0 0 0 1.32 2.23l.02.02.4.35c.1.12.21.26.3.42.06.11.13.2.22.26.06.05.15.1.29.15l.28.14c.28.18.67.34 1.18.47.17.04.27.14.3.3a5.66 5.66 0 0 1-2.1-.75 2.02 2.02 0 0 0-.28-.52.47.47 0 0 0-.28-.13.2.2 0 0 1-.16-.1l-.13-.22a.96.96 0 0 0-.2-.21 2 2 0 0 1-.12-.1.94.94 0 0 1-.1-.15.69.69 0 0 0-.16-.18.09.09 0 0 0-.07-.01c-.16.02-.27-.05-.31-.2v-.03l.03-.17a1.66 1.66 0 0 0-1.1-2.57c-.03-.03-.04-.02-.04 0l-.01.34a5.9 5.9 0 0 1 .36-3.13c.11-.16.2-.32.29-.5a1 1 0 0 1 .22-.28c.12-.2.27-.36.46-.49Z" fill="#523F3A"/><path d="M13.75 5.66c.22.33.4.62.52.87a.8.8 0 0 1 .08.41c0 .04-.02.04-.05.02l-.04-.06a3.36 3.36 0 0 1-.24-.38 3.4 3.4 0 0 0-.22-.38 1.7 1.7 0 0 1-.23-.41.15.15 0 0 1 0-.11.1.1 0 0 1 .07-.07c.02 0 .06.03.1.1Z" fill="#8F8F8D"/><path d="m4.03 5.64-.09.38a1 1 0 0 0-.22.28c-.08.18-.18.34-.29.5.14-.42.34-.8.6-1.16Z" fill="#6C6B6A"/><path d="M9.73 5.76c0 .05.03.08.06.08.02 0 .04-.04.04-.08 0-.05-.03-.08-.05-.08-.03 0-.05.04-.05.08Z" fill="#795B51"/><path d="M5.12 5.94H5.1a.06.06 0 0 0-.03.09l.07.13c.02.03.05.04.08.03a.06.06 0 0 0 .03-.08l-.07-.14a.06.06 0 0 0-.07-.03Z" fill="#6C6B6A"/><path d="M5.52 6.7c.37-.1.67-.13.89-.07l.88.22c.13.03.25.13.35.28.05.08.14.19.26.33l.19.24a9.54 9.54 0 0 0 .34.48l.03 1.97c0 .02 0 .05-.02.07l-.29.37c-.04.06-.04.1.02.15l.61.5c.03.02.04.04.04.07 0 .06-.04.08-.1.06H8.7a2.8 2.8 0 0 0-.38-.17c-.07-.02-.07 0-.02.04l.34.32c.07.05.14.08.22.08.08 0 .16-.02.22-.07l.33-.27c.08-.06.15-.06.23 0l.07.06c.09.07.08.12-.02.16-.14.05-.32.09-.52.1a.13.13 0 0 0-.07.03l-.43.32a.37.37 0 0 0-.13.12c-.04.01-.07.03-.07.07 0 .02 0 .04.03.06l.23.12c.11.08.21.07.3-.03a.1.1 0 0 1 .07-.03c.14-.01.28.03.43.11l.55.2h.18c.07 0 .13-.01.18-.05.04-.05.09-.1.14-.12a.07.07 0 0 1 .07 0l.02.01.2.14c.06.05.08.12.07.2 0 .03-.01.04-.04.03a.3.3 0 0 1-.16-.07.15.15 0 0 0-.07-.04.43.43 0 0 0-.4.1c-.25 0-.5 0-.76-.02-.08 0-.2.03-.36.09a.2.2 0 0 0-.12.02l-.63.13c-.04.01-.08.04-.1.1a.26.26 0 0 0-.02.16c.01.04.05.07.12.08.43.07.8.1 1.1.07.03 0 .05.01.05.04v.02l-.01.03c-.33.17-.58.37-.76.57a.1.1 0 0 0-.03.1c0 .03.03.06.06.07l.43.23c.03.01.03.03.02.06-.06.13-.2.18-.42.15-.14-.01-.3-.06-.48-.14l-.86-.34c-.16-.07-.3-.15-.42-.25-.26-.21-.5-.41-.75-.59A5.89 5.89 0 0 1 4.8 11.7a6.33 6.33 0 0 1-.42-.89c-.16-.34-.25-.6-.29-.77-.1-.44-.16-.88-.2-1.33-.09-.82.06-1.6.44-2.32a.25.25 0 0 1 .13-.13c.05-.02.1-.02.14.01.04.03.06.07.06.13v.16c0 .04 0 .06-.04.08-.07.04-.1.13-.06.25.01.02.03.04.05.04a2 2 0 0 0 .45 0c.1-.03.25-.1.47-.21Z" fill="#100E10"/><path d="M13.55 6.23c.17.16.29.41.35.75 0 .07-.02.12-.1.14-.04 0-.08.05-.11.14-.02.05 0 .07.04.09a.1.1 0 0 1 .04.02v.03c0 .01 0 .02-.02.02l-.13-.01a.11.11 0 0 1-.07-.03l-.4-.31c-.02-.45.12-.73.4-.84Z" fill="#8F8F8D"/><path d="M10.92 6.35c.32-.05.61-.02.87.07.12.05.36.15.7.32.25.12.49.32.73.6v.09c-.03.01-.06 0-.08-.01a3.2 3.2 0 0 0-.48-.36.88.88 0 0 0-.45-.14c-.23 0-.4.01-.49.05a36.6 36.6 0 0 0-.42.19l-.1.08c-.06.05-.05.09.03.1.28.04.55.1.81.17a2.06 2.06 0 0 1 .71.4c.19.2.39.39.6.57.03.03.04.06.02.1-.02.02-.04.03-.06.02a.74.74 0 0 1-.2-.11 2.9 2.9 0 0 1-.39-.41.57.57 0 0 0-.2-.17c-.09-.07-.16-.1-.2-.1-.03 0-.03.01 0 .03l.06.08-.32-.13a.2.2 0 0 1-.06-.03l-.48-.14c-.04-.01-.04-.02 0-.03a.94.94 0 0 1 .28-.02l.02-.01.01-.03c.01-.02 0-.03-.01-.03l-1.08-.05a.06.06 0 0 1-.05-.04.06.06 0 0 1 0-.06c.17-.17.39-.3.68-.4.24-.09.5-.14.77-.15.15 0 .16-.05.02-.1a2.55 2.55 0 0 0-.97-.24c-.72-.01-1.17.14-1.34.46-.11.22-.06.43.17.62l.1.09v.05c-.16.38-.2.78-.16 1.22 0 .02.02.03.04.03h.1c.03 0 .04.02.04.04v.28a.24.24 0 0 1-.03-.08v-.15c0-.03-.02-.04-.05-.03a.18.18 0 0 0-.07.05c-.04.07-.07.06-.09-.02-.06-.25-.1-.49-.11-.7-.01-.13-.05-.31-.1-.56a2.05 2.05 0 0 1-.06-.9c.02-.15.03-.31.03-.47l.2-.13a.08.08 0 0 1 .07-.01l.4.1c.13.04.32.04.59 0Z" fill="#6C6B6A"/><path d="M12 7.76h-.94c-.04 0-.04-.02-.02-.04.04-.05.1-.08.17-.1 0 0 .01 0 0 0v-.03c0-.02-.01-.03-.03-.02-.69.14-1.08.55-1.18 1.25 0 .03.01.04.04.03.04-.02.06-.03.07-.05.05-.09.08-.08.1.02l-.01.13-.05.11v-.09c0-.02-.02-.03-.04-.03H10c-.02 0-.04-.02-.04-.04-.05-.44 0-.84.16-1.22v-.05a1.5 1.5 0 0 0-.1-.09c-.23-.2-.28-.4-.17-.62.17-.32.62-.47 1.34-.46.32.01.64.09.97.23.14.06.13.1-.02.1-.27.02-.53.07-.77.15-.29.1-.51.24-.67.4a.06.06 0 0 0-.01.07c0 .03.02.04.05.04l1.08.05c.02 0 .02.01.01.03v.03h-.03c-.1 0-.19 0-.27.03-.04 0-.05.02 0 .03l.47.14ZM9.16 6.52c.04.07.04.12 0 .16-.02.02-.05.02-.09 0a.26.26 0 0 1-.06-.12c-.01-.04 0-.06.03-.08.04-.01.08 0 .12.04Z" fill="#434343"/><path d="m11.36 6.6.08.05.02.05c0 .03-.02.04-.04.05-.4.19-.83.32-1.27.42-.02 0-.04 0-.06-.02a.06.06 0 0 1 0-.06c.1-.26.3-.4.6-.46.22-.05.43-.07.62-.07.02 0 .04.02.05.04Z" fill="#292222"/><path d="M13.22 7.35c.18.34.3.6.37.76.1.28.16.55.15.79 0 .03-.02.05-.06.05l-.53.01c-.05 0-.1.03-.12.07a.16.16 0 0 0-.03.14c.1.4.04.71-.18.91-.2.18-.5.27-.9.26a3 3 0 0 1-.62-.06l-.65-.18c-.02-.01-.04 0-.06.02l-.01.03c-.02.04-.01.07.04.08a2.26 2.26 0 0 1 .8.46c.12.1.26.18.4.24l.8.42c.1.06.27.11.5.17.12.02.22.06.32.12a3.07 3.07 0 0 1 .3.24 1 1 0 0 1 .3.38l-.54.74c-.16-.24-.3-.4-.41-.51-.18-.16-.32-.3-.42-.42a.8.8 0 0 0-.36-.17 1.06 1.06 0 0 1-.28-.1 3.71 3.71 0 0 1-.56-.42c-.21-.27-.48-.59-.8-.95a.5.5 0 0 1-.13-.4c0-.03.02-.04.05-.03l.49.16c.46.16.93.16 1.42.01.02 0 .02 0 .01-.02h-.02c-.13.04-.27.05-.42.04l.23-.1c.05-.02.1-.08.12-.17 0-.03 0-.04-.03-.04H12.15c-.03-.01-.04-.03-.03-.06l.01-.05.33-.17a.53.53 0 0 0 .3-.18c.06-.06.12-.16.2-.31l.1-.19a.1.1 0 0 1 .05-.04l.17-.05.1-.02v-.04a.04.04 0 0 0-.03-.03.62.62 0 0 1-.26-.16 3.72 3.72 0 0 0-.7-.66.25.25 0 0 0-.08-.08c-.02-.02-.02-.03 0-.03a4.68 4.68 0 0 1 .25.12c.06.04.12.08.16.15.11.14.24.28.39.4.04.04.1.08.2.12.02 0 .04 0 .06-.02.02-.04.01-.07-.02-.1a6.57 6.57 0 0 1-.6-.58 2.06 2.06 0 0 0-.71-.4 7.03 7.03 0 0 0-.81-.16c-.08-.01-.1-.05-.03-.1a3.07 3.07 0 0 1 .2-.14l.32-.13c.1-.04.26-.06.49-.05.15 0 .3.05.45.14.2.13.36.24.48.36.02.02.05.02.08 0v-.07Z" fill="#C2BFBA"/><path d="m9.04 6.98.14.19c.02.09.01.16-.02.2a.45.45 0 0 1-.12.13l-.07.06a.06.06 0 0 1-.06.01c-.21-.08-.27-.25-.17-.5.03-.08.13-.11.3-.09Z" fill="#434343"/><path d="M13.19 7.56c.02.02.02.04 0 .06l-.13.17c-.02.03-.04.03-.07.02l-1.09-.57a.06.06 0 0 1-.03-.06l.01-.04.06-.02c.45-.03.87.12 1.25.44Z" fill="#DAD7D1"/><path d="M6.5 7.45c-.29-.1-.54-.1-.77-.03-.17.06-.17.1 0 .12l.55.09c.27.06.52.2.76.44l.32.38c.02.03.03.03.04 0 0-.05 0-.1-.03-.15.05.06.08.14.1.27 0 .07.03.11.08.14.03 0 .03.02.02.05a.1.1 0 0 1-.01.02h-.03l-.35-.45c-.03-.03-.04-.02-.04 0v.21c0 .04-.03.06-.06.05h-.19a.12.12 0 0 1-.1-.07.13.13 0 0 1-.01-.13c.06-.12.12-.19.18-.18.1 0 .11-.02.02-.08a1.5 1.5 0 0 0-.73-.23c-.26-.02-.52 0-.78.07-.06.01-.1 0-.14-.05a.17.17 0 0 0-.05-.05.64.64 0 0 1-.28-.35c-.01-.04 0-.07.02-.1.27-.23.58-.31.94-.24.13.03.3.12.54.27Z" fill="#292222"/><path d="M14.03 7.44c-.03-.12-.02-.2.04-.25.07-.05.13-.04.18.03l.24.37c.07.1.13.26.16.5l.02.12c.02.1.01.2-.03.29a.06.06 0 0 1-.06.03c-.02 0-.04-.01-.05-.04a3.01 3.01 0 0 0-.29-.52.93.93 0 0 1-.12-.25 9.76 9.76 0 0 1-.09-.28Z" fill="#8F8F8D"/><path d="M8.6 8.93a.28.28 0 0 0-.05.15h-.03l-.01-.02-.03-.58a3.21 3.21 0 0 0-.34-1.23v-.02l.03-.01.3.53c.19.37.24.76.13 1.18Z" fill="#6C6B6A"/><path d="M5.57 7.32a.14.14 0 0 0-.13.14v.08c0 .05.03.08.09.08h.52c.02 0 .03 0 .02.02l-.02.02h-.6a.11.11 0 0 1-.1-.05.12.12 0 0 1-.02-.1l.01-.1c.02-.1.07-.14.16-.14l.56-.01c.02 0 .02 0 .01.02l-.01.01-.49.03Z" fill="#434343"/><path d="m5.58 7.55.01.02c.01.03 0 .03-.03.02l-.05-.02a.07.07 0 0 1-.03-.07.2.2 0 0 1 .04-.12.07.07 0 0 1 .05-.03l.5-.03c.02 0 .02 0 .02.02h-.02l-.4.04a.06.06 0 0 0-.04.04l-.06.1v.03Z" fill="#434343"/><path d="M6.5 7.45c.38.21.67.5.86.85.03.06.04.1.04.14 0 .04-.02.04-.04.01l-.32-.38a1.49 1.49 0 0 0-.76-.44l-.54-.09c-.18-.02-.18-.06-.01-.12.23-.07.48-.06.77.03Z" fill="#C2BFBA"/><path d="M8.58 7.42a2.03 2.03 0 0 1 .15 1.04h-.01a4.27 4.27 0 0 0-.16-.96v-.12h.01l.01.04Z" fill="#6C6B6A"/><path d="M12 7.76a.2.2 0 0 0 .06.03 2.7 2.7 0 0 0-.84.05c-.27.07-.5.22-.69.45-.13.17-.24.39-.33.66v-.13c-.01-.1-.04-.11-.1-.02 0 .02-.02.03-.06.05-.03.01-.04 0-.04-.03.1-.7.5-1.11 1.18-1.25.02 0 .03 0 .03.02v.03a.32.32 0 0 0-.17.1c-.02.02-.02.04.02.04H12Z" fill="#292222"/><path d="m12.06 7.8.32.12c.25.17.48.39.71.66.06.06.14.11.26.16.02 0 .02.01.03.03v.04l-.1.02-.19-.01c-.01 0-.02 0-.03-.02l-.19-.24a.04.04 0 0 0-.04-.01.04.04 0 0 0-.03.03.2.2 0 0 0 0 .1l-.07.44-.27.48-.33.17c-.44.13-.86.1-1.28-.11a.34.34 0 0 1-.1-.06 1.88 1.88 0 0 0-.61-.35v-.19l.06-.11c.09-.27.2-.5.33-.66.19-.23.42-.38.69-.45.2-.06.49-.07.84-.05Z" fill="#100E10"/><path d="M9.64 8.1c-.38-.03-.65.27-.8.89.01-.27.08-.5.2-.67.16-.22.35-.3.6-.23ZM13.86 8.13c.02.08.07.14.1.13.05 0 .07-.09.05-.17-.02-.09-.07-.15-.11-.14-.04.01-.06.1-.04.18Z" fill="#9F9D99"/><path d="M12.13 8.27c.07.03.16 0 .19-.08a.15.15 0 0 0-.1-.18.14.14 0 0 0-.18.08c-.03.07 0 .15.09.18Z" fill="#DAD7D1"/><path d="M9.64 8.1 9.9 9.3c.03.15.07.15.12 0 0-.03.04-.07.1-.14l.02.08a1.88 1.88 0 0 1 .61.35l.1.06c.42.2.84.24 1.28.11l-.01.05c-.01.03 0 .05.03.05h.04a.4.4 0 0 1-.1.06c-.39.1-.76.07-1.13-.1-.1-.04-.33-.18-.68-.42a.05.05 0 0 0-.05 0 .05.05 0 0 0-.03.04v.03c0 .03.01.05.03.07l.29.22c.1.1.2.16.3.2.22.11.43.18.62.2a4.77 4.77 0 0 0 1.07-.02v.02c-.5.15-.97.15-1.43-.01l-.5-.16c-.02 0-.04 0-.04.03a.5.5 0 0 0 .13.4c.32.36.59.68.8.95.04.06.23.2.56.41.05.04.15.08.28.11.18.05.3.11.36.17.1.12.24.26.42.42.11.1.25.27.41.51l-.45.42a1.1 1.1 0 0 0-.27-.44 1.9 1.9 0 0 0-.45-.29 1.24 1.24 0 0 1-.3-.24c-.08-.1-.18-.19-.3-.29a7.5 7.5 0 0 1-.51-.47l-.28-.4c-.13-.18-.24-.3-.33-.35-.19-.12-.38-.09-.57.09a.15.15 0 0 1-.03-.06 1.01 1.01 0 0 0-.25-.36c-.02-.02-.02-.04 0-.06.14-.29.2-.58.16-.89l-.5-.99c0-.03-.03-.03-.05-.01l-.28.33c0 .01 0 .02-.01.01v-.02c.1-.18.24-.33.42-.45V8.5l-.02-.01h-.02c-.18.12-.3.26-.4.41-.08.15-.14.34-.2.59a5.1 5.1 0 0 1-.28.99v.06c.02.01.03.03.02.05 0 .02 0 .05.03.06.36.22.75.35 1.17.41.03 0 .12 0 .24-.03l.37.9c.02.05 0 .08-.04.1l-.47.19c-.02 0-.02.01-.01.02l.32.35H10.1l-.55-.2a.5.5 0 0 0-.26-.17c-.05-.02-.08-.05-.07-.1 0-.02.02-.04.04-.05a.09.09 0 0 1 .08 0l.36.2h.02l.02-.03c-.07-.03-.1-.07-.09-.12 0-.03.02-.04.05-.05l.49-.1c.03 0 .04-.02.05-.05.05-.43-.08-.56-.38-.38.12-.23.02-.37-.3-.4-.1-.02-.22 0-.37.02a.64.64 0 0 1-.48-.1c-.15-.1-.27-.2-.36-.32-.07-.08-.07-.17 0-.26l.24-.3c.13-.37.22-.77.25-1.2.16-.61.43-.91.8-.89Z" fill="#A9A8A5"/><path d="M6.98 8.51c.07 0 .12-.05.12-.12a.12.12 0 0 0-.12-.11.12.12 0 0 0-.11.11c0 .07.05.12.11.12Z" fill="#DAD7D1"/><path d="M11 9.58c.03-.02.06 0 .08.02.16.1.32.12.48.05.04-.02.05-.05.04-.1a.06.06 0 0 0-.03-.05l-.51-.26a.1.1 0 0 1-.05-.05l-.3-.55a.04.04 0 0 0-.05-.02c-.01 0-.03 0-.04.02-.07.1-.07.23 0 .38l.24.47c-.4-.23-.48-.57-.26-1a.08.08 0 0 1 .09-.06c.03 0 .06.03.07.06l.13.3c.04.08.1.15.18.21a11.86 11.86 0 0 1 .37.25l.2.05c.12 0 .18.06.2.16.01.04 0 .08-.02.12a.16.16 0 0 1-.09.07c-.22.07-.44.08-.66.02a.08.08 0 0 1-.05-.04.14.14 0 0 1-.02-.05Z" fill="#523F3A"/><path d="M9.92 9.66a2.98 2.98 0 0 0-.52-.68.09.09 0 0 0-.08-.02.08.08 0 0 0-.06.04c-.15.26-.2.53-.19.84 0 .05-.02.16-.09.31a.7.7 0 0 0-.07.31c.02.12.1.21.22.28.21.1.43.18.65.25.05.01.12 0 .23-.02l.03.06a.98.98 0 0 1-.25.03c-.41-.06-.8-.2-1.16-.41a.06.06 0 0 1-.03-.06l-.01-.05a.06.06 0 0 1-.01-.06c.12-.31.22-.64.29-1 .05-.24.11-.43.2-.58.08-.15.21-.3.39-.41h.02l.02.01v.03a1.3 1.3 0 0 0-.43.45l.01.02h.01l.28-.34c.02-.02.04-.02.06.01l.49.99Z" fill="#DAD7D1"/><path d="m6.47 9.73-.26.1c-.57.05-.9-.2-.98-.74.16.42.43.63.79.64.17 0 .19-.04.06-.15a1.05 1.05 0 0 0-.28-.13 1.16 1.16 0 0 1-.3-.3.12.12 0 0 1-.03-.06c0-.14-.04-.28-.11-.42-.02-.03-.03-.03-.06-.01l-.05.04c0-.05.01-.1.03-.13a.06.06 0 0 1 .06-.04c.03 0 .05.01.06.04l.22.54c.02.05.06.1.13.16.06.05.13.09.2.1.08.04.17.08.26.14l.09.03.1.03c.04 0 .07.02.08.04.02.04.02.08-.01.12Z" fill="#795B51"/><path d="m13.28 8.83-.17.05a.1.1 0 0 0-.05.04l-.1.19c-.08.15-.14.25-.2.31a.53.53 0 0 1-.3.18l.27-.48v.07l.03.02.02-.01v-.01c.11-.17.16-.3.15-.4-.01-.15-.05-.18-.12-.1a.2.2 0 0 1 0-.1c0-.03 0-.04.02-.04l.04.01.19.24.03.02h.19Z" fill="#6C6B6A"/><path d="M11.08 9.6c.05 0 .11 0 .18.05.05.02.1.02.15 0l.03-.02c.04-.03.04-.06 0-.08a3.15 3.15 0 0 0-.37-.2.45.45 0 0 1-.15-.14.54.54 0 0 1-.1-.17 1.53 1.53 0 0 0-.1-.26.03.03 0 0 0-.04-.01c-.01 0-.03 0-.03.02a.55.55 0 0 0-.03.23c-.07-.15-.07-.27 0-.38.01-.02.03-.02.04-.02.02 0 .03 0 .04.02l.32.55a.1.1 0 0 0 .04.05l.51.26c.02 0 .03.02.03.04.01.06 0 .09-.04.1a.49.49 0 0 1-.48-.04Z" fill="#9F9D99"/><path d="m5.23 9.09.02-.39.05-.04c.03-.02.04-.02.06 0 .07.15.1.29.11.43l.03.07c.15.17.25.27.3.29.14.05.23.1.28.13.13.1.1.16-.06.15-.36 0-.63-.22-.79-.64ZM11.08 9.6c-.02-.03-.05-.04-.08-.02l-.14-.1-.24-.46c0-.1 0-.18.03-.23 0-.02.02-.02.03-.02l.03.01c.05.1.09.18.1.26l.1.17c.06.07.11.11.16.13l.37.2c.04.03.04.06 0 .09l-.03.02a.14.14 0 0 1-.15 0 .28.28 0 0 0-.18-.05Z" fill="#DAD7D1"/><path d="M9.92 9.66c.03.3-.02.6-.17.89-.01.02 0 .04.01.06.11.1.2.23.25.36a.49.49 0 0 1-.23.02 4.29 4.29 0 0 1-.65-.25c-.13-.07-.2-.16-.22-.28a.7.7 0 0 1 .08-.31c.06-.15.09-.26.08-.31-.02-.3.04-.58.19-.84a.08.08 0 0 1 .06-.04c.03 0 .06 0 .08.02.2.2.37.42.52.68Z" fill="#fff"/><path d="m7.32 11.29-.52.63a.08.08 0 0 1-.06.03c-.18 0-.37-.01-.6-.05a.33.33 0 0 1-.14-.07l-.14-.1a.21.21 0 0 1-.1-.13l.15-.3c.02-.05.01-.1-.04-.12-.25-.12-.33-.35-.25-.66.01-.02.02-.04.05-.05l.52-.17c.43-.1.52-.17.27-.19l.58-.23c.02-.01.04 0 .05.01v.05l-.4.33a.1.1 0 0 0-.03.07.88.88 0 0 0 .01.33c.01.04.04.06.07.05.12-.03.24 0 .36.06.03.01.05.01.07 0a1.87 1.87 0 0 0 .41-.66l-.06-.6c0-.04-.02-.05-.06-.05l-.2.04-.03.01-.33.25.05-.04a.83.83 0 0 0 .26-.32c.03-.1.07-.17.1-.24.04-.07.06-.06.07.01l.02.15c0 .06.04.08.1.07a.5.5 0 0 1 .17 0c.03 0 .05.01.06.04l.11.2c.05.07.08.13.09.2.03.17.02.33-.03.47a8.88 8.88 0 0 1-.58.98Z" fill="#6C6B6A"/><path d="m6.21 9.83.26-.1.05-.14a.06.06 0 0 0-.01-.06c-.1-.1-.2-.17-.3-.22-.1-.06-.1-.07.02-.04.2.05.32.19.34.41 0 .03 0 .05-.03.06a.97.97 0 0 1-.33.1Z" fill="#292222"/><path d="m6.9 9.77.33-.25h.03l.2-.05c.04 0 .06.01.06.05l.07.6v.04c-.11.24-.25.45-.42.61-.02.02-.04.02-.07.01a.49.49 0 0 0-.35-.06c-.04 0-.07 0-.08-.05a.88.88 0 0 1-.01-.33.1.1 0 0 1 .04-.07 4.73 4.73 0 0 0 .4-.38c-.02-.02-.03-.02-.06-.01l-.58.23c-.73.13-1.29-.1-1.67-.68-.05-.08-.04-.09.03-.02l.32.33c.04.05.17.12.37.2a.8.8 0 0 0 .4.06l.44-.02c.12 0 .3-.07.55-.2Z" fill="#9F9D99"/><path d="M12.2 9.87h.19c.02 0 .03.02.03.05-.03.09-.07.15-.12.17l-.23.1c-.27 0-.48 0-.63-.02-.2-.02-.4-.09-.62-.2a1.4 1.4 0 0 1-.3-.2 6.45 6.45 0 0 0-.29-.22.08.08 0 0 1-.03-.07v-.03c0-.02 0-.03.03-.04h.05c.35.24.58.38.68.42.37.17.74.2 1.13.1a.4.4 0 0 0 .1-.06Z" fill="#100E10"/><path d="m3.53 10.13.2.31.37.93v.02l-.03.01-.1-.16c-.1-.27-.24-.58-.4-.95a.85.85 0 0 1-.1-.37 5.71 5.71 0 0 0 .03-.42l.02.02v.61Z" fill="#434343"/><path d="M6 14.18a5.88 5.88 0 0 1-2.93-4.25l.01-.33c0-.03.01-.04.03-.01.1.15.17.3.21.45a8.89 8.89 0 0 0 .9 2.12l-.03.17v.04c.05.14.15.2.31.19l.07.01c.04.03.1.1.15.18.05.08.09.13.12.15a2 2 0 0 0 .1.1c.1.08.18.15.21.21l.13.22c.04.06.09.1.16.1.1 0 .2.05.28.13.06.06.16.23.28.52Z" fill="#795B51"/><path d="m6.2 10.3-.53.17a.07.07 0 0 0-.05.05c-.08.31 0 .54.25.66.05.03.06.07.04.11l-.14.31v-.1c0-.03-.02-.03-.04 0l-.06.08c-.05.06-.09.05-.12-.01l-.07-.14a3.48 3.48 0 0 0-.8-1.11c.17.07.31.1.43.08l.27-.02c.28 0 .55-.02.82-.08Z" fill="#434343"/><path d="m4.69 10.32.27.28a3.48 3.48 0 0 1 .59.97c.03.06.07.07.12 0l.06-.08c.02-.02.03-.02.03.01v.1c.02.06.05.1.1.13l.14.1c.05.04.1.06.15.07.22.04.42.05.6.05.02 0 .04-.01.05-.03l.52-.63c-.24.4-.51.78-.83 1.11a.08.08 0 0 1-.06.03h-.37a.07.07 0 0 1-.06-.02 6.78 6.78 0 0 0-.4-.53 2.83 2.83 0 0 1-.37-.52 6.2 6.2 0 0 0-.35-.55c-.07-.1-.13-.26-.2-.5Z" fill="#292222"/><path d="M6.37 11.2c.03-.14-.02-.24-.14-.28-.02-.01-.04 0-.04.03-.02.06 0 .12.04.18.02.06.05.12.1.17l-.01.03-.02.01h-.05a.28.28 0 0 0-.13-.08.07.07 0 0 1-.05-.04L6 11.06a.16.16 0 0 1 .03-.16l.39-.5c.04-.06.06-.05.07 0a1 1 0 0 0 .28.5c.08.06.1.14.07.22l-.08.24c0 .02-.02.02-.03 0-.03-.03-.05-.05-.07-.05h-.03v.04l.15.26c.04.08.03.1-.05.06a.48.48 0 0 1-.21-.24.17.17 0 0 0-.05-.06.32.32 0 0 1-.11-.16Z" fill="#8F8F8D"/><path d="M12 10.8c.04.06.11.09.15.06.03-.03.02-.1-.02-.16-.05-.07-.12-.1-.16-.07-.03.03-.02.1.03.16Z" fill="#434343"/><path d="m13.05 13.42-.65.53a.8.8 0 0 0-.7-.45c-.04 0-.07-.02-.09-.07a.1.1 0 0 1 .04-.11l.29-.24c.02-.02.02-.04 0-.07l-.52-.55c-.2-.18-.35-.3-.47-.37-.16-.07-.31-.05-.44.08-.11.1-.19.24-.24.42h-.06l-.32-.35v-.03l.48-.18c.05-.02.06-.05.04-.1l-.37-.9c.2-.18.38-.2.57-.1.09.06.2.18.33.37.1.12.19.26.28.39l.52.47.3.29c.12.13.22.21.29.24.2.1.36.2.45.29.11.1.2.25.27.44Z" fill="#8F8F8D"/><path d="M12.62 11.02c.04.05.1.07.14.04.04-.03.04-.1 0-.15-.04-.05-.1-.07-.14-.04-.03.03-.03.1 0 .15Z" fill="#6C6B6A"/><path d="M6.37 11.2c-.05 0-.1-.02-.14-.07a.24.24 0 0 1-.04-.18c0-.03.02-.04.04-.03.12.04.17.14.14.29ZM5.94 11.58c.03.07.08.11.11.1.04-.02.05-.08.02-.15-.03-.07-.08-.11-.12-.1-.03.02-.04.08-.01.15Z" fill="#100E10"/><path d="M9.54 12.4a.74.74 0 0 0-.43-.12.1.1 0 0 0-.07.03c-.09.1-.18.1-.3.03h.18c.04 0 .07-.03.1-.07 0-.03 0-.05-.03-.06a.46.46 0 0 1-.16-.13.07.07 0 0 0-.07-.02l-.2.03a.37.37 0 0 1 .12-.12c.13-.04.22 0 .27.13.01.04.05.07.09.07.07.01.1-.02.08-.1a.57.57 0 0 0-.04-.17.13.13 0 0 1 0-.12.12.12 0 0 1 .1-.07c.14-.02.27-.02.39-.01.07 0 .16-.05.28-.16.3-.18.43-.05.38.38 0 .03-.02.05-.05.05l-.5.1a.06.06 0 0 0-.04.05c-.01.05.02.09.08.11v.03h-.03l-.36-.19a.09.09 0 0 0-.08 0 .07.07 0 0 0-.04.06c0 .04.02.07.07.09.12.04.2.1.26.17Z" fill="#C2BFBA"/><path d="m12.4 13.95-.92.51a6.03 6.03 0 0 0-1.12-.55c-.21-.08-.39-.28-.53-.58a.06.06 0 0 0-.05-.03H9.5c-.45 0-.77-.05-.98-.12a.06.06 0 0 1-.04-.05c0-.03 0-.05.02-.06l.13-.1.4-.09a.2.2 0 0 1 .12-.02l-.4.14a.05.05 0 0 0-.05.05l.01.03.04.03c.14 0 .66.05 1.57.15.15.01.32.01.5-.01.02 0 .04-.02.05-.04a.07.07 0 0 0 0-.07l-.24-.38.45.34c.02.01.05.02.07 0a.07.07 0 0 0 .04-.06l.02-.35c0-.06-.02-.1-.07-.14-.16-.11-.35-.2-.56-.26-.03 0-.05 0-.06.02a.49.49 0 0 0-.08.23.23.23 0 0 1-.18.05.87.87 0 0 1 .24-.42c.13-.13.28-.15.43-.08.13.06.29.19.48.37.12.12.3.3.52.55.02.03.02.05 0 .07l-.3.24a.1.1 0 0 0-.03.11c.02.05.05.07.1.07.3.02.53.17.69.45Z" fill="#6C6B6A"/><path d="M10.64 12.76c-.09-.04-.2-.03-.36.02.12-.1.25-.12.4-.09l.07.04c.04.04.1.06.16.07.03 0 .04 0 .04-.03a.25.25 0 0 0-.07-.2.98.98 0 0 0-.2-.14l-.02-.01a.07.07 0 0 0-.07 0 .47.47 0 0 0-.14.12.49.49 0 0 1 .08-.23c.01-.02.04-.03.06-.02.21.06.4.15.56.26.05.04.07.08.07.14l-.02.35c0 .03-.01.05-.04.06a.06.06 0 0 1-.07 0l-.45-.34Z" fill="#434343"/><path d="m10.64 12.76.23.38c.02.02.02.04 0 .07a.07.07 0 0 1-.05.04c-.17.02-.34.02-.49 0a32.68 32.68 0 0 0-1.6-.17.06.06 0 0 1-.02-.03c0-.03.02-.04.04-.05l.4-.14a.97.97 0 0 1 .37-.09l.76.02c.15-.06.27-.07.36-.03Z" fill="#9F9D99"/><path d="M9.14 13.02A.04.04 0 0 1 9.1 13l.01-.04c.1-.11.37-.13.78-.07h.03c.05.02.06.03.01.06-.26.13-.53.16-.8.08Z" fill="#DAD7D1"/><path d="m8.64 12.97-.13.1a.06.06 0 0 0-.02.06c0 .02.01.04.04.05.2.07.53.11.98.11h.27c.02 0 .04.02.05.04.14.3.32.5.53.58.5.2.87.39 1.12.55l-.14.05c-.16-.02-.38 0-.65.05s-.56 0-.87-.18a.68.68 0 0 1-.17-.17.06.06 0 0 0-.06-.02l-.37.07c-.02 0-.03 0-.03-.02v-.1c0-.02 0-.03-.02-.04l-.15-.07a.04.04 0 0 1-.02-.04c0-.01 0-.02.02-.03l.66-.54c.04-.04.03-.06-.02-.05L9 13.36c-.2-.01-.4-.06-.58-.15a.07.07 0 0 1-.04-.08c0-.03.01-.05.04-.07l.22-.09Z" fill="#434343"/></svg>