<!-- by TradingView --><svg width="18" height="18" viewBox="0 0 18 18" xmlns="http://www.w3.org/2000/svg"><path fill="#F0F3FA" d="M0 0h18v18H0z"/><path d="m8.7 4.04.01-.02.01-.01a.04.04 0 0 1 .04 0l.52.15c.04 0 .07.02.09.05l.01 3.05a.03.03 0 0 0 .01.02c.03.03.06.05.08.05a16.68 16.68 0 0 1 .41.1l.03-.01 1.84-2.47.03-.02h.05l.57.17a.03.03 0 0 1 .02.02v.02l-2.25 2.98-.02.01h-.02a13.88 13.88 0 0 1-.8-.24 6.33 6.33 0 0 1-.58-.2L8.7 4.04ZM6.3 4.8l.02.02.04.07a1471.34 1471.34 0 0 1 2.12 2.76c.07.08.1.14.06.18a4.29 4.29 0 0 0-.24.31 40.13 40.13 0 0 0-.58.76H7.7a9.68 9.68 0 0 1-1-.3 6.6 6.6 0 0 0-1.17-.35 5.38 5.38 0 0 0-.33-.09 5.78 5.78 0 0 1-.43-.13 7.01 7.01 0 0 0-.6-.17A1.19 1.19 0 0 1 4 7.8a.03.03 0 0 1 0-.03v-.01a36.73 36.73 0 0 1 .4-.49c.03 0 .07 0 .12.03l.05.02a8.07 8.07 0 0 0 .8.24c.15.05.26.09.34.1l.5.16a4.97 4.97 0 0 0 .65.2 10.38 10.38 0 0 0 .64.17.28.28 0 0 0 .08-.09 1.46 1.46 0 0 1 .22-.28V7.8L5.87 5.34a.06.06 0 0 1 0-.08 12.17 12.17 0 0 0 .4-.48.03.03 0 0 1 .02.01ZM10.87 8.98v.2l.01.03.04.03a8295.81 8295.81 0 0 1 3.07.92l.01.63v.01a.02.02 0 0 1-.02.01L10.32 9.7l-.03-.02v-.03a579.26 579.26 0 0 1 0-1.36s0-.02.02-.02l3.62-1.17a.02.02 0 0 1 .02 0v.02h.01v.65h-.02l-.07.02a9041.52 9041.52 0 0 1-3 .96l-.01.03v.2ZM4.05 10.25h.04a9.94 9.94 0 0 1 1-.33l.4-.12a6.9 6.9 0 0 0 .8-.26 5.98 5.98 0 0 0 .72-.22 6.83 6.83 0 0 0 .72-.22l.83 1.08c.03.03.03.06 0 .09l-.13.17a18.68 18.68 0 0 1-.7.95 3109.32 3109.32 0 0 0-1.4 1.86l-.4-.5a.04.04 0 0 1 0-.05l1.88-2.48a.04.04 0 0 0 0-.04l-.27-.35a.06.06 0 0 0-.07-.02c-.2.08-.4.15-.61.2a6.7 6.7 0 0 0-.8.26l-.35.11-.4.13-.43.14a5.14 5.14 0 0 1-.46.13.06.06 0 0 1-.02-.02l-.37-.47a.03.03 0 0 1 0-.02v-.01h.02ZM8.79 10.27a7.75 7.75 0 0 1 1.17-.36 4.94 4.94 0 0 0 .22-.07l2.28 2.93a.04.04 0 0 1 0 .06h-.02l-.54.2h-.04a.06.06 0 0 1-.03-.03l-1.91-2.45-.02-.02h-.03l-.4.14a.07.07 0 0 0-.04.03l-.02.04.04 3.02-.01.02-.03.02-.57.2a.04.04 0 0 1-.03 0l-.02-.02v-.02l-.02-3.67v-.01l.02-.01Z"/></svg>