<!-- by TradingView --><svg width="18" height="18" viewBox="0 0 18 18" xmlns="http://www.w3.org/2000/svg"><path fill="#F0F3FA" d="M0 0h18v18H0z"/><path d="m14.1 6.74.07-.03c-.43.41-.83.42-1.22 0-.1-.1-.14-.08-.15.06a57.6 57.6 0 0 0 0 4.02c.01.25.07.26.18.04.2-.43.35-.88.44-1.38.11-.35.34-.58.68-.7.16-.02.33.01.52.1.35.32.46.78.32 1.37a5.72 5.72 0 0 1-3.26 4.17 5.9 5.9 0 0 1-4.27.4c-.37-.1-.7-.2-.97-.33a6.38 6.38 0 0 1-3.04-3.13c-.2-.43-.25-.86-.3-1.32l-.03-.15a5.6 5.6 0 0 1 .18-2.66A6.48 6.48 0 0 1 6.8 3.45l.51-.12c1.32-.6 3.17-.3 4.38.32.43.21.77.5 1.12.78.17.15.34.29.52.42.18.14.34.33.48.57l.17.26c.22.31.45.63.13 1.06ZM6.55 5.26h.14c.05 0 .09.03.1.08.04.06.08.1.13.1l.5.34.73.77c.04.05.11.05.16 0 .5-.49 1.05-.5 1.61-.03.08.07.16.07.23 0l.94-.94.4-.2a.09.09 0 0 0 .06-.08c0-.03-.01-.04-.04-.05-.01-.08.01-.17.12-.15a.1.1 0 0 1 .05.03c.28.28.59.47.93.57.1.04.19.09.26.16.04.03.1.05.15.04a.3.3 0 0 0 .17-.07c.05-.1.07-.19.05-.28-.02-.06-.06-.09-.12-.09h-.05a.14.14 0 0 1-.14-.08.63.63 0 0 0-.32-.3.86.86 0 0 0-.35-.25.23.23 0 0 1-.11-.1.61.61 0 0 0-.31-.29l-.5-.23a4.66 4.66 0 0 0-3.77-.3l-.02.01c-1.78 1.27-1.56 1.42-1 1.34Zm3.88 7.85c.35-.07.7-.23 1.02-.47-.35-.31-.53-.7-.54-1.18a14 14 0 0 1 0-1.11h-.04c-.04 0-.06 0-.06.04-.13 1-1.03 1.8-2.06 1.55-.74-.18-1.08-.74-1.31-1.43-.04-.1-.06-.1-.07 0-.03.24-.04.62-.03 1.14 0 .35-.16.65-.47.9-.01.06 0 .1.03.13a4.12 4.12 0 0 0 3.52.43ZM5.2 7.1a3.7 3.7 0 0 0-.4 2.59c.08.38.2.77.37 1.18.12.29.17.28.17-.03v-3.7c0-.2-.05-.22-.14-.04Z" fill="#00481F"/><path d="M12.6 5.08c.01.03 0 .06-.04.1-.18.02-.28-.02-.3-.11a1.77 1.77 0 0 0-.94-.65c-.2-.05-.38-.12-.54-.2a1.75 1.75 0 0 0-.55-.15 8.65 8.65 0 0 0-2.07.03c-.2.03-.4.08-.58.17l-.6.27a4.8 4.8 0 0 0-2.92 4.8c.01.42.2 1.05.57 1.9a4.98 4.98 0 0 0 6.97 2.12 5.4 5.4 0 0 0 2.45-3.75.43.43 0 0 1 .17-.29c.06-.04.1-.03.12.04a.5.5 0 0 1 .03.17 5.27 5.27 0 0 1-2.98 4.26c-1.17.59-2.36.7-3.58.33-.4-.03-.76-.12-1.09-.27a5.9 5.9 0 0 1-2.83-3.02 3.62 3.62 0 0 1-.15-.92 6.4 6.4 0 0 1 .2-2.75 8.03 8.03 0 0 1 1.75-2.28C6.3 4.32 7 4.12 7.77 3.84a4.66 4.66 0 0 1 2.42-.05c.6.1 1.09.42 1.64.65.13.05.23.15.3.28.03.05.07.09.12.1.14.07.26.15.35.26Z" fill="#01FF6C"/><path d="M12.25 5.07a7.53 7.53 0 0 0-3.97-.6c-.2.02-.43.08-.67.19l-.66.26a1.6 1.6 0 0 0-.41.34l-.2.15a4.28 4.28 0 0 0-1.86 2.52c-.02.17-.07.33-.14.48-.1.2-.14.45-.12.74.02.4.1.78.22 1.13.07.2.12.35.13.47l.07.49a5.92 5.92 0 0 1-.58-1.9 4.8 4.8 0 0 1 2.92-4.8l.6-.27c.18-.09.38-.14.58-.17.69-.1 1.38-.1 2.07-.03.18.02.37.07.55.16.16.07.34.14.54.2.36.09.67.3.93.64Z" fill="#007E36"/><path d="M12.25 5.07c.03.09.13.13.3.11h.07c.05 0 .07.03.08.08 0 .12.07.2.18.21.05.01.1.04.11.09.04.1.1.2.19.27a.3.3 0 0 1-.17.07.18.18 0 0 1-.15-.04.71.71 0 0 0-.26-.16c-.34-.1-.65-.3-.93-.57a.1.1 0 0 0-.11-.02.1.1 0 0 0-.07.08l.01.06a4.4 4.4 0 0 0-4.54.08.09.09 0 0 0-.05.06v.05c-.05 0-.1-.04-.12-.1a.11.11 0 0 0-.1-.08h-.15c.2-.2.33-.31.4-.34l.67-.26c.24-.1.47-.17.67-.2a7.53 7.53 0 0 1 3.97.6Z" fill="#005624"/><path d="M12.6 5.08c.14.07.25.16.31.3.03.06.08.09.15.08h.05c.06 0 .1.03.12.1.02.08 0 .17-.05.27a.7.7 0 0 1-.19-.27.13.13 0 0 0-.1-.09c-.12-.02-.18-.09-.2-.21 0-.05-.02-.08-.07-.08h-.06c.04-.04.05-.07.04-.1Z" fill="#5B8"/><path d="M6.6 5.98A8 8 0 0 1 8 7.4l1.02 1.07a.15.15 0 0 0 .16.03c.02 0 .04-.02.05-.03l2.22-2.41c.44-.1.68-.02.7.24l-.04 5.5c0 .05-.02.09-.05.12-.06.08-.13.12-.2.1-.18-.04-.26-.14-.26-.32l-.01-1.84c0-.13-.02-.26-.05-.4a.2.2 0 0 0-.07-.1.21.21 0 0 0-.13-.05c-.46-.03-.88 0-1.27.05-.07.02-.1.06-.08.14.26.82.11 1.38-.45 1.67-.4.2-.77.15-1.13-.16-.38-.34-.44-.82-.18-1.45.05-.13 0-.2-.13-.19l-1.2.02c-.15 0-.22.07-.23.21l-.08 2.22a.23.23 0 0 1-.2.22h-.1c-.13-.04-.19-.11-.19-.23.02-1.84-.02-3.69-.12-5.54.19-.23.4-.33.63-.29Z" fill="#01FF6C"/><path d="m11.45 6.06-2.22 2.4a.14.14 0 0 1-.16.04.15.15 0 0 1-.05-.03L8 7.4c.27-.07.53-.2.77-.4-.02.21.04.37.18.48a.26.26 0 0 0 .35-.02c.27-.27.25-.49-.06-.65.12-.03.29.1.5.37a.08.08 0 0 0 .11.02l1.6-1.14Z" fill="#006D2E"/><path d="M5.98 6.27c.1 1.85.14 3.7.12 5.54 0 .12.06.2.18.23a.24.24 0 0 0 .28-.12.23.23 0 0 0 .03-.1l.08-2.22c0-.14.08-.21.22-.21l1.2-.02c.14 0 .19.06.14.19-.26.63-.2 1.11.18 1.45.36.31.73.37 1.13.16.56-.29.71-.85.45-1.67-.02-.08 0-.12.08-.14.39-.06.81-.08 1.27-.05.05 0 .1.02.13.04a.2.2 0 0 1 .07.11c.03.14.05.27.05.4v1.84c0 .18.1.28.27.32.07.02.14-.02.2-.1a.19.19 0 0 0 .04-.12l.06-5.5.1.25c.02.05.05.08.1.07.07 0 .1.03.1.1v4.92c-.03.18-.1.33-.2.47a.48.48 0 0 1-.37.22c-.36.01-.55-.16-.56-.53-.02-.6-.05-1.2-.1-1.77 0-.19-.1-.28-.3-.28h-.35c-.13 0-.19.07-.16.2.14.75-.3 1.53-1.07 1.7-.3.06-.57.02-.82-.14a1.38 1.38 0 0 1-.6-.77 3.06 3.06 0 0 1-.15-.68c-.02-.19-.12-.28-.3-.29H7.3c-.2 0-.3.1-.32.3-.05.54-.08 1.07-.09 1.58 0 .25-.1.5-.26.71a.15.15 0 0 1-.15.06c-.48-.08-.72-.32-.73-.73-.05-1.37.02-3.17.22-5.42Z" fill="#008B3B"/><path d="M9.24 6.8c.31.17.33.39.06.66a.27.27 0 0 1-.35.02c-.14-.11-.2-.27-.18-.48.07-.18.23-.25.47-.2Z" fill="#01FF6C"/><path d="M14.38 9.53v.14c.01.04.03.07.08.09.11.04.17.12.17.24 0 .15-.02.28-.06.42a8.57 8.57 0 0 1-.72 1.71 4.3 4.3 0 0 1-1.3 1.41c-.33.18-.66.37-.99.58-.13.08-.27.14-.41.2-.1.03-.2.07-.28.13a4.94 4.94 0 0 1-2.77.18 9.7 9.7 0 0 0-.67-.15c-.24-.05-.46-.1-.67-.19a1.5 1.5 0 0 0-.64-.39 4.42 4.42 0 0 1-1.63-1.68l-.7-1.25c-.1-.16-.11-.52-.05-1.06.04.46.1.77.16.92a5.9 5.9 0 0 0 2.83 3.02c.26.12.59.2 1.08.27 1.22.37 2.41.26 3.58-.33a5.27 5.27 0 0 0 2.99-4.26Z" fill="#008B3B"/><path d="M13.43 6.4c.07.09.18.13.24.08.07-.05.07-.16 0-.26s-.18-.13-.25-.09c-.06.05-.06.17 0 .26Z" fill="#5B8"/><path d="m11.55 7.07.03 1.54a.1.1 0 0 1-.1.1l-1.42-.03c-.07 0-.11-.1-.06-.15L11.4 7c.05-.06.15-.02.15.06Z" fill="#008B3B"/><path d="m8.13 8.7-1.37.02a.1.1 0 0 1-.11-.11l.09-1.37c0-.1.12-.13.18-.07l1.29 1.35c.06.07.02.18-.08.18Z" fill="#007E36"/><path d="M8.68 10.18c-.02.3.17.54.41.56.24.01.46-.22.47-.5.02-.3-.17-.55-.41-.56-.25-.02-.46.21-.47.5Z" fill="#008B3B"/></svg>