<!-- by TradingView --><svg width="18" height="18" viewBox="0 0 18 18" xmlns="http://www.w3.org/2000/svg"><path fill="url(#a)" d="M0 0h18v18H0z"/><path d="M13.31 13.04c0 .07-.05.13-.13.18a10.69 10.69 0 0 0-.87-2.02h-.06l-.18.1-1.07.35-.6.13a.6.6 0 0 1-.37-.02.04.04 0 0 1-.02-.03v-.03c.06-.06.13-.1.21-.12l.6-.14c.81-.12 1.53-.43 2.16-.93.31-.25.54-.53.68-.85.15-.34.1-.82-.03-1.15a8.9 8.9 0 0 0-.22-.57c0-.02.01-.05.03-.07.25-.4.35-.86.29-1.36 0-.32-.09-.6-.28-.85a1.47 1.47 0 0 0-1.44-.6 2.1 2.1 0 0 0-1.27.89c-.11.16-.19.34-.23.53-.03.05-.06.07-.1.08a.35.35 0 0 0-.2-.14c-.5-.15-.97-.24-1.44-.25-.4-.02-.7-.03-1.07.07a.04.04 0 0 0-.02.05l.06.18c-.01.05-.04.07-.07.06-.1 0-.14-.18-.2-.26-.29-.57-.86-.9-1.5-.85-.54.03-1 .36-1.3.81a2.07 2.07 0 0 0-.05 2.14.15.15 0 0 1 0 .13l-.15.42c-.15.4-.2.91.02 1.3a3.32 3.32 0 0 0 2.31 1.42l.86.2.05.03.11.07a.05.05 0 0 1 .03.05.05.05 0 0 1-.04.04c-.23.09-.64-.06-.9-.12l-1.02-.33a.53.53 0 0 0-.18-.08.04.04 0 0 0-.04.01 8.95 8.95 0 0 0-.79 1.78c-.1-.06-.13-.1-.13-.14a8.54 8.54 0 0 1 .77-1.76l-.01-.01c-.77-.45-1.48-1.09-1.32-2.08a2.47 2.47 0 0 1 .28-.82v-.02a2.21 2.21 0 0 1-.2-1.74c.18-.64.58-1.1 1.2-1.38.79-.3 1.66.02 2.1.73l.01.02h.03c.36-.15.75-.14 1.14-.12a5.85 5.85 0 0 1 1.65.3v-.02c.34-.92 1.33-1.6 2.32-1.31.81.24 1.24 1.03 1.21 1.87a2.6 2.6 0 0 1-.32 1.16V8c.26.48.41 1.05.27 1.6-.18.68-.82 1.12-1.37 1.5-.01 0-.02 0-.02.02v.03a8.38 8.38 0 0 1 .82 1.9Z" fill="#040404"/><path d="M13.73 6.51c-.1.23-.15.47-.16.72l-.01.07-.24.51v.2c.09.2.28.81.15 1l-.02-.04c-.03-.01-.06 0-.08.02-.28.39-.65.63-1.11.71-.37.07-.7.09-.97.04-.25-.04-.68-.1-1-.2a14.04 14.04 0 0 0-1.02-.25c-.25.03-.45.09-.6.16a6.1 6.1 0 0 1-1.76.63c-.83.14-1.62.09-2.18-.61-.03-.05-.09-.06-.16-.05-.04-.3.02-.58.15-.85.07-.11.08-.2.05-.27a.88.88 0 0 1-.12-.4l.26.44c-.05.4.02.76.2 1.1.05.07.11.14.2.21.35.27.73.32 1.12.15.23-.1.42-.3.57-.57.16-.3.24-.59.23-.87.18-.25.29-.52.32-.82a1.8 1.8 0 0 0-.51-1.52l.44.25c.05.08.08.25.19.26.03.01.06-.01.07-.06-.02.03 0 .05.05.04.68-.11 1.32-.11 1.93-.02a9.05 9.05 0 0 0 .7.07c.03 0 .06-.03.09-.08l.32-.3a1.5 1.5 0 0 0-.08.61l.1.6c0 .55.16 1.17.59 1.53.25.22.54.3.84.28.37-.03.7-.25.79-.61.06-.26.1-.58.11-.99.44-.53.48-1.1.11-1.7a1.3 1.3 0 0 0-.72-.55c-.1-.03-.27-.05-.54-.07.03-.07.03-.14-.02-.21a1.47 1.47 0 0 1 1.72 1.44Z" fill="#746134"/><path d="M12.01 5.07c.05.07.05.14.02.2-.55.11-.95.42-1.2.92l-.32.29c.04-.2.12-.37.23-.53a2.1 2.1 0 0 1 1.27-.88Z" fill="#4C988B"/><path d="M12.04 5.28c.26.02.44.04.53.07.33.12.57.3.72.55.37.6.33 1.17-.1 1.7-.2.2-.33.33-.4.36a2.25 2.25 0 0 1-.84.17 4.64 4.64 0 0 1-.46-.12c-.25-.09-.45-.39-.64-.61l-.1-.6c-.03-.14 0-.34.09-.61.24-.5.64-.8 1.2-.91Z" fill="#040404"/><path d="M11.72 7.96a1.2 1.2 0 0 1-.72-.64 1.33 1.33 0 0 1-.06-1c.11-.33.34-.6.64-.77a1.22 1.22 0 0 1 1.39.15 1.25 1.25 0 0 1 .42.9 1.38 1.38 0 0 1-.7 1.27c-.3.16-.65.2-.97.1Z" fill="#FEFEFE"/><path d="m7.48 6.27-.44-.25a1.32 1.32 0 0 0-1.21-.4c-.38.07-.68.24-.91.52-.4.48-.48 1.16-.27 1.76 0 .14.04.27.12.4.03.07.02.16-.05.27-.13.27-.19.55-.15.85.02.05.03.09.02.1-.03.32.08.62.31.89.34.38.72.68 1.12.9l.4.16c.13.05.26.1.38.17a3.32 3.32 0 0 1-2.31-1.43c-.23-.38-.18-.9-.02-1.29a29.66 29.66 0 0 0 .16-.49l-.01-.06a2.07 2.07 0 0 1 .05-2.14c.3-.45.76-.78 1.3-.81.64-.04 1.21.28 1.5.85Z" fill="#4C988B"/><path d="M7.04 6.02c.41.43.58.94.51 1.52-.03.3-.14.57-.32.82-.66.74-1.7.8-2.32-.02l-.26-.44c-.2-.6-.13-1.28.27-1.76.23-.28.53-.45.91-.52.46-.08.86.05 1.2.4Z" fill="#040404"/><path d="M6.2 8.75c-.34.03-.7-.09-.97-.34a1.58 1.58 0 0 1-.49-1c-.04-.4.06-.79.28-1.09.22-.3.54-.49.9-.52.34-.04.7.08.97.34.27.25.45.61.49 1 .04.4-.06.78-.28 1.08-.22.3-.54.5-.9.53Z" fill="#FEFEFE"/><path d="M10.41 6.56v.02a9.05 9.05 0 0 1-.69-.09c-.6-.1-1.25-.09-1.93.02-.05 0-.07 0-.05-.04l-.06-.18a.04.04 0 0 1 .02-.05 5.59 5.59 0 0 1 2.51.18c.1.02.16.07.2.14Z" fill="#4C988B"/><path d="M12.15 7.55a.56.56 0 0 1-.38-.22.61.61 0 0 1-.11-.45.65.65 0 0 1 .2-.41.53.53 0 0 1 .8.09.61.61 0 0 1 .12.45.65.65 0 0 1-.21.4.53.53 0 0 1-.42.13Z" fill="#F2FCBC"/><path d="M13.73 6.51c.06.5-.04.96-.3 1.36a.16.16 0 0 0 0 .15c.09.2.16.36.2.49.13.33.18.8.03 1.15-.14.32-.37.6-.68.85-.63.5-1.35.81-2.16.93l.2-.1.05-.02c.82-.2 1.51-.62 2.07-1.27.22-.25.34-.55.36-.88 0-.01 0-.03-.02-.05h-.04l.03-.11c.13-.19-.06-.8-.14-1l-.01-.05V7.8l.24-.51.01-.07c0-.25.06-.49.16-.72Z" fill="#4C988B"/><path d="M11.93 6.93c0 .17.11.31.27.32.15 0 .28-.13.29-.3 0-.16-.12-.3-.27-.31-.15 0-.28.13-.3.3ZM6.07 8.26a.73.73 0 0 1-.46-.36.82.82 0 0 1 .06-.88.8.8 0 0 1 .5-.31.72.72 0 0 1 .75.37.82.82 0 0 1-.06.88.8.8 0 0 1-.5.31c-.1.02-.2.01-.3-.01Z" fill="#040404"/><path d="M6.23 8.12a.58.58 0 0 1-.42-.2.64.64 0 0 1-.17-.47c.01-.17.08-.33.2-.44a.6.6 0 0 1 .67-.12.6.6 0 0 1 .32.36.67.67 0 0 1-.16.7.6.6 0 0 1-.44.17Z" fill="#F2FCBC"/><path d="M6.17 7.6c0 .1.1.2.2.18.1 0 .18-.1.17-.23-.02-.11-.1-.2-.21-.19-.1.01-.18.11-.16.23Z" fill="#040404"/><path d="M13.18 7.6c0 .4-.05.73-.11.99-.1.36-.42.58-.79.61-.3.03-.59-.06-.84-.28-.43-.36-.6-.98-.6-1.52.2.22.4.52.65.6a4.64 4.64 0 0 0 .52.14c.26-.01.52-.07.77-.18.08-.03.22-.15.4-.36Z" fill="#39311C"/><path d="M8.71 8.15c.07 0 .14.03.2.07.02.01.02.02.01.03 0 .02-.02.03-.04.02a.64.64 0 0 0-.36-.02c-.01 0-.02 0-.03-.03l.01-.03a.39.39 0 0 1 .21-.04Z" fill="#040404"/><path d="M7.23 8.36c0 .28-.07.57-.23.87a1.2 1.2 0 0 1-.57.57c-.4.17-.77.12-1.11-.15a.73.73 0 0 1-.2-.21 1.8 1.8 0 0 1-.21-1.1c.63.82 1.66.76 2.32.02Z" fill="#39311C"/><path d="M11.66 8.77v-.01l.43.02c.35 0 .61-.1.87-.31a.04.04 0 0 1 .06.02v.03a.65.65 0 0 1-.3.27l-.25.12a.24.24 0 0 1-.14.02c-.17-.01-.52-.03-.67-.16ZM13.47 9l-.03.12c-.53.79-1.37.91-2.25.76-.54-.09-1.02-.2-1.44-.34-.35-.12-.58-.15-.87-.02l-.86.39c-.6.25-1.19.39-1.77.41-.7.03-1.25-.24-1.66-.8.01-.01 0-.05-.02-.1.07-.01.13 0 .16.05.56.7 1.35.75 2.18.61a6.1 6.1 0 0 0 1.77-.63c.14-.07.34-.13.6-.16h.1c.32.08.63.16.92.25.3.1.74.16 1 .2.26.05.59.03.96-.04.46-.08.83-.32 1.1-.7.03-.04.06-.04.1-.03v.04Z" fill="#040404"/><path d="M13.44 9.12h.04l.02.05c-.02.33-.14.63-.36.88a3.81 3.81 0 0 1-2.12 1.29l-.2.1-.6.14a.39.39 0 0 0-.2.12l-.01.02v.01a.04.04 0 0 0 .02.03.6.6 0 0 0 .37.02l.6-.13c.1.32.13.6-.11.86-.13.13-.27.26-.33.4-.09.21-.1.52.1.68a5.27 5.27 0 0 1 .29.28.04.04 0 0 1-.02.03c-.23.22-.27.48-.14.78l-.23.08c-1.15.3-2.29.27-3.41-.1.07-.26 0-.48-.18-.65a.04.04 0 0 1 0-.05v-.01l.3-.27a.17.17 0 0 0 .05-.06c.14-.36-.02-.63-.28-.88-.14-.14-.18-.27-.2-.45 0-.1.05-.26.08-.38.25.06.66.2.9.12a.05.05 0 0 0 .03-.04.05.05 0 0 0-.03-.05l-.1-.07a.17.17 0 0 0-.06-.02l-.86-.2a3.46 3.46 0 0 0-.38-.18l-.4-.16a3.9 3.9 0 0 1-1.12-.9 1.16 1.16 0 0 1-.31-.89c.4.56.96.83 1.66.8a5.03 5.03 0 0 0 1.77-.41l.86-.39c.3-.13.52-.1.87.02.42.14.9.25 1.44.34.88.15 1.72.03 2.25-.76Z" fill="#F2FCBC"/><path d="M6.36 9.56v.02l-.03.01c-.3.04-.48.06-.57.05a.99.99 0 0 1-.65-.37.03.03 0 0 1 .03-.04l.09.02a2 2 0 0 0 1.12.28.03.03 0 0 1 .01.03Z" fill="#040404"/><path d="M13.18 13.22c-.07.1-.17.2-.3.3a11.65 11.65 0 0 0-.81-2.22l.18-.1h.06c.02 0 .03.02.04.04a10.69 10.69 0 0 1 .83 1.98Z" fill="#4C988B"/><path d="M12.07 11.3c.05.08.1.15.12.23.29.63.51 1.3.68 1.99l-.5.39a4.74 4.74 0 0 0-.25-1.17.17.17 0 0 0-.14-.12.03.03 0 0 0-.02 0 .03.03 0 0 0-.01.03v.28l-.22 1.36c-.27.16-.58.29-.94.4-.13-.31-.09-.57.14-.8a.04.04 0 0 0 .02-.02.04.04 0 0 0-.02-.03 5.23 5.23 0 0 0-.27-.25c-.2-.16-.19-.47-.1-.68.06-.14.2-.27.32-.4.25-.25.21-.54.12-.86l1.07-.35Z" fill="#746134"/><path d="M5.89 11.58c-.3.64-.53 1.3-.71 1.99a1 1 0 0 1-.3-.28 8.96 8.96 0 0 1 .8-1.8h.03c.07.03.13.05.18.1Z" fill="#4C988B"/><path d="M6.92 11.91c-.03.12-.09.27-.08.38.02.18.06.3.2.45.26.25.42.52.28.88a.17.17 0 0 1-.04.06l-.3.27a.04.04 0 0 0-.02.03.04.04 0 0 0 .01.03c.19.17.25.39.18.66-.46-.15-.9-.35-1.3-.61-.01-.17 0-.3.02-.38a9.59 9.59 0 0 0 .15-.82.07.07 0 0 0-.04-.03.08.08 0 0 0-.1.06c-.12.38-.2.72-.23 1.03l-.47-.35c.18-.68.4-1.35.7-1.99l1.04.33Z" fill="#746134"/><path d="M12.36 13.9a.6.6 0 0 1-.16.13 6.47 6.47 0 0 0-.25-1.1V12.64a.03.03 0 0 1 .02-.02c.08.01.13.05.15.12.12.35.2.74.24 1.17ZM5.85 14.06l-.2-.14a5.19 5.19 0 0 1 .26-1.08.09.09 0 0 1 .06 0 .08.08 0 0 1 .07.08c-.05.27-.1.52-.17.76-.02.09-.03.21-.02.38Z" fill="#040404"/><path d="M11.95 12.93c.12.38.2.75.25 1.1l-.47.26.22-1.36Z" fill="#39311C"/><path fill-rule="evenodd" d="M9 14.82A5.82 5.82 0 1 0 9 3.18a5.82 5.82 0 0 0 0 11.64ZM9 15A6 6 0 1 0 9 3a6 6 0 0 0 0 12Z" fill="#040404"/><defs><linearGradient id="a" x1="15.16" y1="2.18" x2="1.86" y2="12.52" gradientUnits="userSpaceOnUse"><stop stop-color="#FCA34F"/><stop offset="1" stop-color="#994006"/></linearGradient></defs></svg>