<!-- by TradingView --><svg width="18" height="18" viewBox="0 0 18 18" xmlns="http://www.w3.org/2000/svg"><path fill="url(#a)" d="M0 0h18v18H0z"/><path d="m4.33 6.45 3.55 3.99c.3.33.67.5 1.12.5.45 0 .83-.17 1.12-.5a1501.15 1501.15 0 0 0 3.58-4l.02.01 1.22 1.4.01.03-.01.04-3.52 3.96A3.11 3.11 0 0 1 9 13c-.95 0-1.76-.38-2.42-1.13a14245.99 14245.99 0 0 1-3.53-3.99l.01-.04 1.22-1.39.02-.01.03.01Zm4.7-1.44 1.25 1.42c.01.02.01.06 0 .07L9.04 7.93a.04.04 0 0 1-.06 0L7.74 6.5a.06.06 0 0 1 0-.07L8.97 5a.04.04 0 0 1 .07 0Z" fill="#302E2D"/><defs><linearGradient id="a" x1="15.83" y1="5.44" x2="1.96" y2="13.12" gradientUnits="userSpaceOnUse"><stop stop-color="#FF97D6"/><stop offset="1" stop-color="#F8B994"/></linearGradient></defs></svg>