<!-- by TradingView --><svg width="18" height="18" viewBox="0 0 18 18" xmlns="http://www.w3.org/2000/svg"><path fill="url(#agxhjcae5)" d="M0 0h18v18H0z"/><path fill-rule="evenodd" d="M9 14A5 5 0 1 0 9 4a5 5 0 0 0 0 10Zm0-.44a4.56 4.56 0 1 0 0-9.12 4.56 4.56 0 0 0 0 9.12Z" fill="#CE3A6C"/><path fill-rule="evenodd" d="M9 13.75a4.75 4.75 0 1 0 0-9.5 4.75 4.75 0 0 0 0 9.5Zm0 .11a4.86 4.86 0 1 0 0-9.72 4.86 4.86 0 0 0 0 9.72Z" fill="#FFF6FF"/><path d="M6.57 12.01a159 159 0 0 0-1.27 1.46c-.04-.05-.25-.04-.36.07a.25.25 0 0 0-.05.26l-.17.04-.31 1.1.08.06 1.14-.42-.07-.23c.07 0 .23-.04.28-.12.05-.08.04-.2.02-.25l1.41-1.56-.7-.4Z" fill="#602E9D"/><path fill="#441C56" d="m7.09 12.71-.66-.57.14-.14.65.57zM5.24 13.65a.44.44 0 0 0-.32-.05c.03-.14.28-.16.37-.13.1.03.42.4.52.48.08.07.05.1.02.1-.13-.1-.45-.33-.6-.4Z"/><path d="m6.8 11.25-.2-.16.27-.21 1.2.89-.05.39-.3-.13-.24.17-.76-.5.07-.45Z" fill="#382671"/><path d="M9 13c.9 0 1.73-.3 2.4-.8a.7.7 0 0 1-.02-.18.6.6 0 0 0-.03-.19c-.02-.05.02-.05.06-.05.07-.01.14-.02 0-.18.02-.07-.03-.09-.1-.08a3.4 3.4 0 0 1-.12.1c0-.02 0-.05-.02-.08-.02-.08-.05-.07-.17 0-.2.1-.7.35-1.93.5-1.56.2-2.73-.95-3.12-1.54.08.17.33.57.82 1.1A3.41 3.41 0 0 1 9 5.57a3.42 3.42 0 0 1 2.99 5.09c.03.02.08.04.13.04.1.02.18-.11.24-.3-.02.17 0 .33.04.34.04.02.26-.6.27-.7.01-.06.01.28-.04.63A4 4 0 1 0 9 13Zm3.36-2.58a2.9 2.9 0 0 0 0 0Z" fill="url(#bgxhjcae5)"/><path d="M6.22 10.57a.43.43 0 0 1-.5-.12c.1.67.82.68 1.17.6.26.42.78.72 1.02.82-.12.9.48 1.02.8.97-.28-.48-.1-.81.03-.92l-2.05-1.54-.47.2Z" fill="url(#cgxhjcae5)"/><path d="M8.06 9.64h-.32l.08.32H7.5l.06.25h-.3v.07h-.08v.15l.47.7 2.56-2.8 3.64-4.25-.1-.08c-.9.51-1.63.54-1.87.49L8.34 9l-.4.3.12.33Z" fill="#F3FFFD"/><path d="m9.19 10.58.05.31-.33-.03.05.32-.27-.02.05.3h-.06l.01.09-.15.02-.78-.34 2.5-2.97 3.58-4.18.1.08c-.37.97-.28 1.67-.19 1.9L9.78 10.2l-.24.44-.35-.06Z" fill="#3D89C7"/><path d="M8 10.28c-.08.24-.49.5-.68.59l.34.37.35.18c0-.36.7-.93 1.06-1.17l-.08-.1.41-.3-.17-.06.35-.26-.12-.06.73-1.18-1.02.92-.1-.14-.18.46-.12-.2-.22.52-.12-.18-.33.61H8Z" fill="url(#dgxhjcae5)"/><defs><linearGradient id="agxhjcae5" x1="9" y1="0" x2="9" y2="18" gradientUnits="userSpaceOnUse"><stop stop-color="#0C1817"/><stop offset=".69" stop-color="#254AAB"/><stop offset="1" stop-color="#CD70F8"/></linearGradient><linearGradient id="bgxhjcae5" x1="5.22" y1="7.3" x2="12.53" y2="10.27" gradientUnits="userSpaceOnUse"><stop offset=".55" stop-color="#F3FEFF"/><stop offset="1" stop-color="#2DD2EE"/></linearGradient><linearGradient id="cgxhjcae5" x1="7.09" y1="11.49" x2="7.48" y2="11.01" gradientUnits="userSpaceOnUse"><stop stop-color="#21826F"/><stop offset="1" stop-color="#062F6F"/></linearGradient><linearGradient id="dgxhjcae5" x1="8.2" y1="10.02" x2="8.71" y2="10.51" gradientUnits="userSpaceOnUse"><stop stop-color="#108550"/><stop offset="1" stop-color="#0E4E4D"/></linearGradient></defs></svg>