<!-- by TradingView --><svg width="18" height="18" xmlns="http://www.w3.org/2000/svg"><path fill="#FF6663" d="M0 0h18v18H0z"/><path d="M2 6.335v5.339c0 .178.124.326.276.326h.474c.157 0 .25-.166.25-.345V8.06c0-.419.619-.859 1.23-.859.61 0 1.27.463 1.27 1.32v3.154c0 .183.143.326.302.326h.414c.157 0 .284-.148.284-.326V8.068c0-.418.647-.868 1.27-.868.624 0 1.23.472 1.23 1.33v3.135c0 .183.128.335.287.335h.445c.157 0 .268-.157.268-.335V8.58C10 7.198 9.48 6 8.082 6c-.763 0-1.212.345-1.756 1.034A1.85 1.85 0 004.646 6C3.857 6 3 6.68 3 7.034c0-.03 0-.068.002-.111C3.009 6.608 3.024 6 2.75 6h-.482C2.108 6 2 6.155 2 6.335zM13.379 6c-1.59 0-2.63 1.186-2.63 3.005 0 1.826 1.043 2.978 2.63 2.995 1.638 0 2.475-.805 2.475-1.666 0-.184-.116-.334-.281-.334h-.414c-.153 0-.245.18-.337.36-.04.077-.08.155-.124.218-.148.21-.67.422-1.323.422-.874 0-1.557-.826-1.606-1.5h3.95C16 9.5 16 9.194 16 8.927 16 7.072 14.833 6 13.379 6zm1.624 2.5h-3.234c0-.835.675-1.5 1.606-1.5.93 0 1.628.652 1.628 1.5z" fill="#fff"/></svg>