<!-- by TradingView --><svg width="18" height="18" viewBox="0 0 18 18" xmlns="http://www.w3.org/2000/svg"><path fill="#F0F3FA" d="M0 0h18v18H0z"/><path d="M7.95 14.73c1.46.36 3.21-.32 3.9-.7 1.3-1 2.31-2.54 2.66-3.2.4-.98.75-3.48-1.02-5.62a5.64 5.64 0 0 0-5.35-1.94l-.46.78-.6-.4a5.48 5.48 0 0 0-2.46 1.56c-.9.74-1.31 2.5-1.4 3.3-.28.85.74 3.07 1.2 4.04.47.97 1.7 1.73 3.53 2.18Z" fill="url(#ag5timdzs)"/><path d="m8.25 3.42-.52.87-.68-.45c-.49.13-.96.39-1.37.67-.42.3-.76.62-.94.82l-.01.02a3.6 3.6 0 0 0-.95 1.54 7.98 7.98 0 0 0-.4 1.63v.03c-.06.18-.05.44.01.78.06.33.18.7.32 1.1a23 23 0 0 0 .87 2.04c.43.9 1.6 1.65 3.4 2.1.7.16 1.48.09 2.17-.08a7 7 0 0 0 1.61-.6 11.03 11.03 0 0 0 2.6-3.13c.37-.95.71-3.37-1-5.44a5.48 5.48 0 0 0-5.11-1.9ZM8.1 3.1a5.8 5.8 0 0 1 5.52 2 5.98 5.98 0 0 1 1.04 5.8v.01c-.36.67-1.39 2.24-2.7 3.25l-.02.01c-.37.2-.99.48-1.71.65a5 5 0 0 1-2.32.07c-1.84-.45-3.14-1.22-3.64-2.27-.23-.48-.6-1.29-.88-2.08-.14-.4-.26-.8-.33-1.15a2.07 2.07 0 0 1-.01-.92c.05-.41.18-1.06.4-1.7.24-.63.57-1.28 1.05-1.68.2-.22.55-.55.99-.86a4.6 4.6 0 0 1 1.55-.74l.07-.02.51.34.41-.7h.07Z" fill="url(#bg5timdzs)"/><path d="M13.2 8.97c0 2.38-1.9 4.3-4.26 4.3a4.28 4.28 0 0 1-4.25-4.3c0-2.38 1.9-4.3 4.25-4.3a4.28 4.28 0 0 1 4.26 4.3Z" fill="url(#cg5timdzs)"/><path fill-rule="evenodd" d="M8.94 13.05a4.06 4.06 0 1 0 .01-8.11 4.06 4.06 0 0 0-.01 8.11Zm0 .3a4.36 4.36 0 1 0 0-8.71 4.36 4.36 0 0 0 0 8.71Z" fill="url(#dg5timdzs)"/><path d="m5.34 7.97-.1 2.5h.52c.26-.05.1-.2 0-.28a8.42 8.42 0 0 1 0-1.75l.74 1.4H6.3v.32h.65v-.32H6.8l.64-1.4c.06.02.14 1.2.16 1.83h-.25v.2h.76v-.2h-.24l-.14-2.52c.39-.15-.02-.34-.38-.26-.29.06-.12.2 0 .26v.3l-.68 1.34-.72-1.57c.33-.15-.07-.28-.3-.24-.21.03-.27.06-.3.39ZM10.16 7.47H8.63c-.07 0-.13.06-.13.14 0 .08.06.15.13.15h.14v2.55h-.2c-.04 0-.07.03-.07.08 0 .04.03.08.07.08h1.64l.27-.64h-.27c-.07.25-.75.26-1.08.24v-.99h.74v.18h.23v-.79h-.23v.17h-.74v-.48c.04-.38.86-.4 1.03-.19.16.21.25.05.26-.21 0-.22-.17-.28-.26-.3ZM12.29 7.47h-1.53c-.07 0-.13.06-.13.14 0 .08.06.15.13.15h.14v2.55h-.2c-.04 0-.07.03-.07.08 0 .04.03.08.07.08h1.65l.26-.64h-.26c-.07.25-.76.26-1.1.24v-.99h.76v.18h.22v-.79H12v.17h-.75v-.48c.04-.38.86-.4 1.03-.19.16.21.25.05.26-.21 0-.22-.17-.28-.26-.3Z" fill="#704C3D"/><path d="m5.07 5.28-.16.84.77-.23.14-.76-.75.15Z" fill="#D1BB95"/><path d="m5.89 5.07-.17.86-.88.26.19-.95.86-.17Zm-.78.26-.14.71.66-.19.13-.65-.65.13Z" fill="#8D6B54"/><path d="m12.72 4.96.25.81-.79-.14-.22-.74.76.07Z" fill="#D1BB95"/><path d="m11.89 4.84.25.84.9.16-.28-.93-.87-.07Zm.8.17.2.7-.67-.12-.2-.64.66.06Z" fill="#8D6B54"/><path d="m5.8 12.39.2.83-.78-.2-.17-.76.75.13Z" fill="#D1BB95"/><path d="m4.98 12.2.2.86.88.23-.21-.94-.87-.15Zm.78.23.17.72-.67-.17-.15-.65.65.1Z" fill="#8D6B54"/><path d="m12.4 12.01-.19.83.78-.2.17-.75-.76.12Z" fill="#D1BB95"/><path d="m13.22 11.83-.19.85-.88.23.21-.94.86-.14Zm-.77.23-.17.71.67-.17.14-.65-.64.1Z" fill="#8D6B54"/><path d="m3.49 8.6-.17.18.17.17v.24h.24l.17.17.17-.17h.24v-.24l.17-.17-.17-.18v-.24h-.24L3.9 8.2l-.17.17h-.24v.24Z" fill="#BF9D7B"/><path fill-rule="evenodd" d="m3.49 8.6-.17.18.17.17v.24h.24l.17.17.17-.17h.24v-.24l.17-.17-.17-.18v-.24h-.24L3.9 8.2l-.17.17h-.24v.24Zm.1-.14v.19l-.13.13.13.13v.18h.18l.13.13.13-.13h.18v-.18l.13-.13-.13-.13v-.19h-.18l-.13-.13-.13.13h-.18Z" fill="#8D6B54"/><path d="m13.57 8.24-.17.17.17.17v.25h.24l.17.17.17-.17h.24v-.25l.17-.17-.17-.17V8h-.24l-.17-.18-.17.18h-.24v.24Z" fill="#BF9D7B"/><path fill-rule="evenodd" d="m13.57 8.24-.17.17.17.17v.25h.24l.17.17.17-.17h.24v-.25l.17-.17-.17-.17V8h-.24l-.17-.18-.17.18h-.24v.24Zm.1-.14v.18l-.13.13.13.13v.19h.18l.13.13.13-.13h.18v-.19l.13-.13-.13-.13V8.1h-.18l-.13-.13-.13.13h-.18Z" fill="#8D6B54"/><path d="M8.28 4.36c.08 0 .27.11.35.17h.32V3.38c-.2 0-.25.2-.26.3-.31-.06-.13.2 0 .34h-.22c-.37-.03-.13.15.05.25-.2-.03-.34.08-.24.09Z" fill="#DECCAB"/><path d="M8.8 3.52a.36.36 0 0 0-.06.16v.05h-.06l-.08-.01h-.03v.04l.06.11.1.12.08.09h-.34a.7.7 0 0 0-.14 0l.08.07.13.08-.03.1a.36.36 0 0 0-.15 0h.01l.1.05.18.1H9V3.43c-.05 0-.18.05-.2.09Zm-.1-.06a.27.27 0 0 1 .25-.13H9v1.25h-.38l-.01-.01a2.32 2.32 0 0 0-.34-.16.1.1 0 0 1-.05-.02l-.02-.03v-.04l.02-.04a.18.18 0 0 1 .04-.03.34.34 0 0 1 .09-.03.44.44 0 0 1-.1-.1.11.11 0 0 1-.03-.06c0-.04.03-.06.05-.07a.21.21 0 0 1 .09-.02h.22a.52.52 0 0 1-.1-.18c-.02-.04-.02-.1.03-.14a.16.16 0 0 1 .08-.03h.06c0-.05.03-.1.06-.16Z" fill="#8D6B54"/><path d="M9.09 3.52c.03.05.05.12.05.16v.06l.06-.01h.11v.04a1.1 1.1 0 0 1-.16.23l-.08.08h.34a.7.7 0 0 1 .14 0 .41.41 0 0 1-.08.07l-.13.08.03.1h.15-.02l-.1.05-.17.1h-.35V3.43c.05.01.18.05.2.09Zm.08-.06a.27.27 0 0 0-.24-.13h-.05v1.25h.39a2.32 2.32 0 0 1 .34-.17.1.1 0 0 0 .05-.02l.02-.02v-.04a.09.09 0 0 0-.02-.05.18.18 0 0 0-.04-.02.34.34 0 0 0-.09-.03.44.44 0 0 0 .1-.1.11.11 0 0 0 .02-.07.08.08 0 0 0-.04-.07.21.21 0 0 0-.09-.02H9.3l.03-.03.07-.14c.02-.05.02-.11-.03-.15a.16.16 0 0 0-.08-.03h-.06c0-.05-.03-.1-.06-.16Z" fill="#8D6B54"/><path d="M8.34 13.66c.08-.01.27-.12.35-.17h.32v1.15c-.2 0-.25-.2-.26-.3-.31.05-.13-.21 0-.35h-.22c-.37.03-.13-.15.05-.25-.2.04-.34-.07-.24-.08Z" fill="#DECCAB"/><path d="M8.85 14.5a.36.36 0 0 1-.05-.16v-.06h-.06c-.03.02-.06.02-.08.01h-.03v-.04l.06-.11.1-.12.08-.08h-.34a.69.69 0 0 1-.14 0 .41.41 0 0 1 .08-.07l.13-.08-.03-.1h-.15.02l.1-.06.17-.1h.35v1.06c-.05-.02-.18-.05-.2-.1Zm-.08.05c.04.08.12.14.24.14h.05v-1.25h-.39a2.35 2.35 0 0 1-.34.17.1.1 0 0 0-.05.01l-.02.03v.04l.02.04.04.03.09.03a.44.44 0 0 0-.1.1.11.11 0 0 0-.02.07c0 .03.02.05.04.06.03.02.05.02.09.02h.22a1 1 0 0 0-.03.04.52.52 0 0 0-.07.14c-.02.05-.02.1.03.15l.08.03h.06c0 .04.03.1.06.15Z" fill="#8D6B54"/><path d="M9.66 13.65c-.08 0-.27-.11-.35-.17h-.32v1.15c.2 0 .25-.2.26-.3.31.06.13-.2 0-.34h.22c.37.03.13-.15-.05-.25.2.03.34-.08.24-.09Z" fill="#DECCAB"/><path d="M9.15 14.5a.36.36 0 0 0 .05-.17v-.05h.06l.08.01h.03v-.04a.42.42 0 0 0-.06-.11 1.09 1.09 0 0 0-.1-.12l-.08-.09h.34a.7.7 0 0 0 .14 0 .41.41 0 0 0-.08-.07 1.3 1.3 0 0 0-.13-.08l.03-.1c.06.02.11.01.15 0h-.01a2.43 2.43 0 0 1-.27-.15h-.36v1.05c.05 0 .18-.05.2-.09Zm.08.05a.27.27 0 0 1-.24.13h-.05v-1.25h.38l.01.01a2.32 2.32 0 0 0 .34.16.1.1 0 0 1 .05.02l.02.03v.04l-.02.04a.18.18 0 0 1-.04.03.34.34 0 0 1-.09.03c.04.03.08.06.1.1.01 0 .03.03.03.06 0 .04-.03.06-.05.07a.22.22 0 0 1-.09.02h-.22l.03.04.07.14c.02.04.02.1-.03.14a.16.16 0 0 1-.08.03h-.06c0 .05-.03.1-.06.16Z" fill="#8D6B54"/><defs><linearGradient id="ag5timdzs" x1="9" y1="3.17" x2="9" y2="14.83" gradientUnits="userSpaceOnUse"><stop stop-color="#EFE2D2"/><stop offset=".19" stop-color="#C8B187"/><stop offset=".51" stop-color="#BB9D76"/><stop offset=".79" stop-color="#A48062"/><stop offset="1" stop-color="#664438"/></linearGradient><linearGradient id="bg5timdzs" x1="9" y1="3.17" x2="9" y2="14.83" gradientUnits="userSpaceOnUse"><stop stop-color="#BCA794"/><stop offset="1" stop-color="#52332A"/></linearGradient><linearGradient id="cg5timdzs" x1="8.94" y1="4.66" x2="8.94" y2="13.27" gradientUnits="userSpaceOnUse"><stop stop-color="#EFE1D1"/><stop offset=".33" stop-color="#D3BF98"/><stop offset=".52" stop-color="#AF8F6F"/><stop offset=".75" stop-color="#AD8C69"/><stop offset="1" stop-color="#E7D4C3"/></linearGradient><linearGradient id="dg5timdzs" x1="4.58" y1="9" x2="12.22" y2="6.29" gradientUnits="userSpaceOnUse"><stop stop-color="#946F58"/><stop offset="1" stop-color="#AB896B"/></linearGradient></defs></svg>