<!-- by TradingView --><svg width="18" height="18" viewBox="0 0 18 18" xmlns="http://www.w3.org/2000/svg"><path fill="#F0F3FA" d="M0 0h18v18H0z"/><path opacity=".7" d="M5.56 7 4 4l3 1.5V4l4.38 1.6a4.41 4.41 0 0 1 1.57 6.88A4.29 4.29 0 0 1 6 11.92L4 7h1.56Z" fill="url(#avizjlq4o)"/><path d="m8 7 .33-.72c.12-.25.46-.36.73-.22L11 7H8Z" fill="#40A6DA"/><path d="m11 12-.33.72c-.12.25-.46.36-.73.22L8 12h3ZM6.67 9.5l-.57-.79a.46.46 0 0 1 .13-.69L8 7 6.67 9.5Z" fill="#2391BD"/><path d="M8 12h-.77c-.23 0-.56-.17-.56-.44V9.5L8 12ZM12.33 9.5l.57.65c.18.23.11.56-.14.71L11 12l1.33-2.5Z" fill="#40A6DA"/><path d="M11 7h.77c.23 0 .56.13.57.43V9.5L11 7Z" fill="#2391BD"/><path d="M8.16 7.33 6.66 9.5h5.68L8.16 7.33Z" fill="#83C7E6"/><path d="M6.67 9.5 11 12l1.33-2.5H6.67Z" fill="#57B4DD"/><path d="m11 7-2.94.06 4.27 2.44L11 7ZM8 12h3L6.67 9.5 8 12Z" fill="#65BCDF"/><path d="M8.17 7.33 6.67 9.5h5.66L8.17 7.33Z" fill="url(#bvizjlq4o)" fill-opacity=".5"/><path d="M6.67 9.5 8 7l4.33 2.5-4.16-2.17-1.5 2.17Z" fill="url(#cvizjlq4o)"/><path d="M6.62 9.5h5.71L11 12l1.1-2.3-5.48-.2Z" fill="url(#dvizjlq4o)"/><path d="M11 7H8l4.33 2.5-3.78-2.35L11 7Z" fill="url(#evizjlq4o)"/><path d="M11 12 6.67 9.5 8 12l-.89-2.02L11 12Z" fill="url(#fvizjlq4o)"/><defs><linearGradient id="avizjlq4o" x1="5.75" y1="5.79" x2="12.76" y2="12.66" gradientUnits="userSpaceOnUse"><stop stop-color="#68FEFF"/><stop offset="1" stop-color="#3FA6B1" stop-opacity=".2"/></linearGradient><linearGradient id="bvizjlq4o" x1="7.68" y1="7.38" x2="10.61" y2="10.95" gradientUnits="userSpaceOnUse"><stop stop-color="#fff"/><stop offset="1" stop-color="#fff" stop-opacity=".1"/></linearGradient><linearGradient id="cvizjlq4o" x1="8.06" y1="7.06" x2="10.14" y2="10.76" gradientUnits="userSpaceOnUse"><stop stop-color="#fff"/><stop offset="1" stop-color="#fff" stop-opacity=".1"/></linearGradient><linearGradient id="dvizjlq4o" x1="8.78" y1="8.28" x2="10.86" y2="11.98" gradientUnits="userSpaceOnUse"><stop stop-color="#fff"/><stop offset="1" stop-color="#fff" stop-opacity=".1"/></linearGradient><linearGradient id="evizjlq4o" x1="9.14" y1="6.46" x2="11.22" y2="10.15" gradientUnits="userSpaceOnUse"><stop stop-color="#fff"/><stop offset="1" stop-color="#fff" stop-opacity=".1"/></linearGradient><linearGradient id="fvizjlq4o" x1="7.7" y1="8.89" x2="9.78" y2="12.59" gradientUnits="userSpaceOnUse"><stop stop-color="#fff"/><stop offset="1" stop-color="#fff" stop-opacity=".1"/></linearGradient></defs></svg>