<!-- by TradingView --><svg width="18" height="18" viewBox="0 0 18 18" xmlns="http://www.w3.org/2000/svg"><path fill="#F0F3FA" d="M0 0h18v18H0z"/><path d="M3.26 7.22v-.01a5.91 5.91 0 0 1 3.8-3.91c.15-.06.32-.09.48-.13.43-.1.86-.16 1.3-.17h.18a6.31 6.31 0 0 1 4.23 1.75l.28.31a5.95 5.95 0 0 1 .84 6.6c-.4.78-.9 1.43-1.54 1.96-.9.76-2 1.23-3.16 1.35a6 6 0 0 1-3.8-.88 6.05 6.05 0 0 1-2.61-6.87Z" fill="#010101"/><path d="M8.8 3.11c0 .02 0 .04.03.05h.03v-.04h.1V4.1c-.25.03-.5-.02-.7.11-.07.05-.14.1-.21.13h-.03l-.05-.02.07-.06a.02.02 0 0 0-.02-.04h-.14c-.02 0-.03-.01-.03-.02l-.04-.14c-.02-.05-.04-.05-.06 0l-.04.14-.01.02h-.02l-.15.02c-.05 0-.05.02-.01.05l.1.08a.03.03 0 0 1 .02.03 1.48 1.48 0 0 1-.05.17c0 .02.02.02.05 0l.1-.08h.03l.07.01c-.03.12-.09.2-.18.25-.1.04-.18.1-.25.21-.04.06-.07.08-.11.06l-.03-.1.01-.03.11-.1a.03.03 0 0 0 .01-.02.03.03 0 0 0-.02-.02.5.5 0 0 0-.14 0 .02.02 0 0 1-.03-.02l-.05-.14c-.01-.05-.03-.05-.05 0l-.05.14a.03.03 0 0 1-.03.03h-.15c-.05 0-.05.02-.01.05l.12.09v.03l-.03.14c-.01.04 0 .05.04.03a.56.56 0 0 0 .1-.09.04.04 0 0 1 .05 0l.1.07a.01.01 0 0 1 0 .02c-.08.07-.16.12-.25.17a.16.16 0 0 0-.06.07.27.27 0 0 1-.05.07 1.8 1.8 0 0 0-.49.88c0 .03 0 .06-.02.1l-.02.02-.02.02h-.16a.02.02 0 0 0-.02.03l.01.01.08.06-.4.42a.76.76 0 0 1-.06-.15c0-.06-.03-.06-.05 0a.79.79 0 0 0-.05.14v.02h-.02l-.17.01-.02.01v.01l.01.02.13.1v.02l-.04.17v.06l-.21.4a.62.62 0 0 0-.06.18l-.05.34c-.02.08-.01.19.01.34v.05H3.16l.01-.19v-.03l.01-.12c0 .08.06.1.1.13.06.03.08.02.06-.04a.5.5 0 0 1-.03-.12l.01-.03.1-.1a.03.03 0 0 0 0-.04l-.21-.01v-.03l.06-.24.04-.23a6.71 6.71 0 0 1 .28-.85.4.4 0 0 0 .13-.08c.03-.03.06-.03.1-.01l.09.06a.02.02 0 0 0 .02 0 .02.02 0 0 0 .01-.02l-.04-.15v-.02l.12-.1A.03.03 0 0 0 4 6.38h-.16v-.02c-.01-.04-.03-.06-.05-.06.15-.3.29-.53.4-.68a7.87 7.87 0 0 1 1-1.1c.04.04.08.06.12.07l.01-.01c0-.05 0-.09-.03-.13l.06-.07a17.3 17.3 0 0 1 .57-.4c.03.02.06.03.08.02L6.02 4 6 3.94c.17-.1.32-.19.45-.25a12.28 12.28 0 0 1 .77-.3c.1-.02.19-.08.3-.08l.02-.01a.18.18 0 0 1 .1-.03l-.04.15c-.03.08-.01.1.06.05l.07-.06a.06.06 0 0 1 .07 0l.11.07a.02.02 0 0 0 .04-.02L7.9 3.3l.01-.03A.2.2 0 0 0 8 3.2c.27-.06.54-.09.81-.09Z" fill="#002567"/><path d="M11.92 3.93H8.96v-.76h.84c.2.04.43.07.62.13.52.14 1.02.35 1.5.63Z" fill="#C80036"/><path d="M8 3.2a.2.2 0 0 1-.08.07v.03l.04.15a.02.02 0 0 1-.03.03L7.8 3.4a.06.06 0 0 0-.07 0l-.07.07c-.07.05-.09.03-.06-.04l.05-.16.33-.07ZM8.59 3.76a.03.03 0 0 0-.01.02l.04.15a.02.02 0 0 1-.04.03l-.11-.08a.05.05 0 0 0-.06 0 .65.65 0 0 1-.1.09c-.05.02-.07.01-.05-.04l.05-.13c0-.01 0-.02-.02-.03l-.11-.09c-.04-.03-.04-.04.01-.05h.15a.03.03 0 0 0 .03-.03l.04-.14c.03-.06.04-.06.06 0l.04.13a.03.03 0 0 0 .04.02h.13a.03.03 0 0 1 .03.04l-.01.01-.11.1ZM7.22 3.66h.16c.02.02.02.03 0 .05l-.11.1v.02l.03.12c.01.06 0 .07-.06.04a.84.84 0 0 1-.1-.06.03.03 0 0 0-.03 0 42.17 42.17 0 0 0-.15.1L6.95 4l.04-.14-.01-.04-.12-.09c-.04-.02-.04-.04 0-.04l.17-.01a.03.03 0 0 0 .02-.02l.05-.13c.02-.06.04-.06.06 0l.04.11c0 .02 0 .02.02.03ZM11.92 3.93l.13.08a6.75 6.75 0 0 1 .91.73h-2.29c-.46-.4-1.03-.8-1.65-.65-.03.02-.05.02-.06 0v-.15l2.96-.01ZM7.98 4.32a.1.1 0 0 0-.06.1l-.01.03a.17.17 0 0 1-.06.05l-.08-.01h-.03l-.1.09h-.05v-.02a1.48 1.48 0 0 0 .05-.18l-.01-.01-.11-.08c-.04-.03-.04-.05.01-.05l.15-.02h.02V4.2l.05-.14c.02-.05.04-.05.06 0l.04.14.03.02h.14a.02.02 0 0 1 .03.03h-.01l-.06.07ZM6.61 4.43l.04.16a.02.02 0 0 1-.03.02l-.13-.08a.04.04 0 0 0-.04 0l-.1.08c-.06.04-.07.03-.05-.03l.04-.13-.01-.03-.12-.09c-.04-.03-.04-.05.02-.05l.15-.01c.01 0 .02 0 .02-.02l.05-.15c.02-.05.04-.05.05 0l.04.14.02.02h.17a.02.02 0 0 1 0 .05l-.1.1c-.02 0-.02.01-.02.02ZM5.28 4.46c.03.04.04.08.04.13l-.02.01a.21.21 0 0 1-.12-.07.34.34 0 0 1 .1-.07ZM7.3 5.02c0 .05-.02.06-.05.06L7.15 5a.04.04 0 0 0-.04 0 .56.56 0 0 1-.11.1c-.04.01-.05 0-.04-.04L7 4.93l-.01-.03-.12-.09c-.04-.03-.04-.04.01-.05h.15a.03.03 0 0 0 .03-.03l.05-.14c.02-.05.04-.05.06 0l.04.14a.02.02 0 0 0 .03.01h.14a.03.03 0 0 1 .02.04v.01l-.12.1v.03l.02.1ZM5.88 4.85h.14a.02.02 0 0 1 .01.05l-.1.09a.03.03 0 0 0-.02.03l.04.15a.02.02 0 0 1 0 .02.02.02 0 0 1-.03 0 .5.5 0 0 1-.12-.07.04.04 0 0 0-.05 0l-.11.09h-.01l-.04-.01v-.01A2.7 2.7 0 0 0 5.64 5l-.13-.1c-.04-.02-.04-.04.01-.04l.16-.01h.01l.01-.02.06-.15c.01-.04.03-.04.04 0l.05.14.03.02Z" fill="#fff"/><path d="M12.96 4.74h.02a6.95 6.95 0 0 1 .67.76h-2.38c-.09-.14-.63-.66-.6-.77l2.3.01Z" fill="#C80036"/><path d="M5.17 5.33h.17a.02.02 0 0 1 .02.03l-.14.12a.02.02 0 0 0 0 .02l.04.16a.02.02 0 0 1-.03.02L5.1 5.6a.02.02 0 0 0-.02 0l-.14.1a.02.02 0 0 1-.03-.02l.04-.17a.02.02 0 0 0 0-.02l-.14-.1a.02.02 0 0 1 0-.04h.18A.02.02 0 0 0 5 5.31l.05-.16a.02.02 0 0 1 .03-.01h.01l.06.17a.02.02 0 0 0 .02.01ZM6.3 5.5l-.13-.1c-.04-.03-.03-.05.01-.05l.16-.01a.03.03 0 0 0 .02-.02l.05-.14c.02-.06.04-.06.06 0l.04.13a.03.03 0 0 0 .03.02h.12c.05 0 .06.03.02.06l-.1.09v.02l.04.14a.03.03 0 0 1-.03.03 3.51 3.51 0 0 0-.16-.08.62.62 0 0 0-.1.07c-.07.07-.1.05-.06-.04a.69.69 0 0 1 .03-.1V5.5Z" fill="#fff"/><path d="M9.31 6.36a2.98 2.98 0 0 1-.42-.42 1 1 0 0 0-.46-.3.94.94 0 0 0-.13-.1c-.04-.04-.1-.04-.15-.05-.08-.02-.14-.07-.24-.07a.62.62 0 0 1 .08-.2H8c.15-.01.28.02.4.1.16.11.27.2.33.26.1.11.19.26.3.37l.13.14c.05.05.1.14.14.27Z" fill="#AE463C"/><path d="M8.43 5.63c-.1 0-.19.02-.28.04-.14.04-.26.06-.25.25a.63.63 0 0 1-.14.46l-.06.09-.01.02.02.1a.33.33 0 0 0-.28.01l-.03-.34c0-.01 0-.02-.02-.01l-.02.02a.55.55 0 0 1 .14-.3c.16-.18.35-.3.41-.55.1 0 .16.05.24.07.05 0 .1.01.15.04l.13.1Z" fill="#C06A55"/><path d="M13.65 5.5c-.04 0-.04 0 0 .01.02 0 .02.01.03.02.18.25.34.5.48.78h-2.48a18.17 18.17 0 0 1-.4-.77V5.5h2.37Z" fill="#fff"/><path d="M8.43 5.63a1 1 0 0 1 .46.3c.14.17.28.31.42.43.04.05.07.1.08.18-.02-.03-.05-.04-.08-.03-.04.01-.09.02-.12-.02-.1-.1-.31-.36-.44-.4-.18-.04-.31 0-.41.13a.45.45 0 0 0-.08.17c-.04.16.16.25.3.22a.04.04 0 0 0 .02-.02v-.03c.02-.07.04-.07.08-.02.04.08.12.12.22.15a.2.2 0 0 0-.11.1v.1c.04.05.07.1.09.16-.05 0-.07.02-.07.07 0 .1.03.19.01.28-.02.11.01.22 0 .34 0 .07.02.11.06.15.05.04.06.03.04-.03l-.02-.07v-.02h.04c.08.13.29.19.44.23.15.05.26-.04.36-.14.08-.08.04-.26.02-.35a.04.04 0 0 0-.02-.02.18.18 0 0 1-.07-.07c.09.05.16.12.22.19.07.1.09.2.05.3l-.12.1a.8.8 0 0 0-.16.17.23.23 0 0 0-.05.19c.03.15.2.02.28-.01.04-.03.1-.03.14 0 .08.09.11.2.1.34a.7.7 0 0 1-.24.37c-.22.17-.46.3-.75.4-.1.02-.2.02-.3 0-.12-.04-.29-.11-.44-.11l-.16-.01H8.2l-.03.04v-.14c-.02-.17-.1-.18-.24-.22-.16-.06-.1-.22-.05-.33a.1.1 0 0 0 0-.1 1.68 1.68 0 0 1-.11-.2l-.12-.16a.05.05 0 0 0-.08 0 .1.1 0 0 0-.01.08c.04.25.06.5.07.76a1.46 1.46 0 0 1-.16-.37 2.65 2.65 0 0 1-.07-.38c-.02-.15-.05-.27-.1-.41l.08.12c.01.01.02.02.03.01l.05-.02A.04.04 0 0 0 7.46 8a4.4 4.4 0 0 1-.18-.6l-.05.02c0-.04.03-.12.06-.23a.97.97 0 0 0 .05-.32v-.17c.02-.14.01-.28.02-.42l.02-.02h.02l.03.35-.06.09a.02.02 0 0 0 0 .02.02.02 0 0 0 .02 0h.17-.02c-.01 0-.02.01-.02.03l-.01.04c-.07.09-.12.16-.13.28 0 .05.01.08.04.07l.15-.01c0 .07-.06.18.03.23a.2.2 0 0 0 .2.01.34.34 0 0 1 .08-.03l.02-.02v-.02a.1.1 0 0 1-.01-.03v-.03l.01-.02.02-.02a.37.37 0 0 1 .22-.01c.04.05.05.1.02.13a.47.47 0 0 0-.08.3c0 .13-.09.27-.18.36a.07.07 0 0 1-.1 0c-.08-.07-.14-.26-.17-.36a.13.13 0 0 0-.11-.08.03.03 0 0 0-.04.02v.02c.04.27.18.56.31.8l.03.01.48-.11c.08-.02.11-.09.2-.12.04-.02.06-.05.05-.1l-.01-.03a.45.45 0 0 1-.15-.18c-.03-.06 0-.14.03-.2a.44.44 0 0 0 .03-.14V7a.27.27 0 0 0-.2-.26.44.44 0 0 0-.2-.07 2.01 2.01 0 0 1-.34-.09L7.7 6.5v-.02l.07-.1c.1-.12.15-.27.14-.45-.01-.19.11-.21.25-.25l.28-.04Z" fill="#F1AF7F"/><path d="M4.44 6.18a.34.34 0 0 0-.09.06c-.07.07-.1.06-.06-.04a9.2 9.2 0 0 0 .02-.13l-.14-.1a.02.02 0 0 1 0-.02.02.02 0 0 1 .01-.01l.17-.02a.03.03 0 0 0 .03-.03l.05-.14c.03-.04.04-.04.05 0l.05.15.01.01h.15a.03.03 0 0 1 .03.04l-.01.02-.1.08a.04.04 0 0 0-.02.04l.04.15a.02.02 0 0 1 0 .02.02.02 0 0 1-.03 0l-.13-.08h-.03ZM5.92 6.1l.04.16a.02.02 0 0 1-.02.02l-.15-.08a.02.02 0 0 0-.02 0l-.14.1a.02.02 0 0 1-.03 0v-.02l.05-.17a.02.02 0 0 0 0-.02l-.14-.1a.02.02 0 0 1 0-.04l.18-.01a.02.02 0 0 0 .02-.02l.06-.17a.02.02 0 0 1 .03 0l.06.17a.02.02 0 0 0 .02.01h.16a.02.02 0 0 1 .02.03l-.01.01-.12.11a.02.02 0 0 0-.01.02Z" fill="#fff"/><path d="m9.39 6.54.01.02c0 .01 0 .02-.02.02-.1.01-.23.08-.32.08l-.18.03a.35.35 0 0 1-.22-.15c-.04-.05-.06-.05-.07.02v.03l-.02.01-.02.01c-.13.03-.33-.06-.3-.22l.1-.17c.09-.13.22-.17.4-.13.13.04.34.3.44.4.03.04.08.03.12.02.03 0 .06 0 .08.03Z" fill="#FFD2A1"/><path d="m4.98 6.58-.01-.03a1.42 1.42 0 0 1-.13-.1v-.01l.01-.02.16-.01a.04.04 0 0 0 .03-.03l.06-.17a.02.02 0 0 1 .02-.01.02.02 0 0 1 .01 0l.05.16a.06.06 0 0 0 .05.03l.13.01a.02.02 0 0 1 .03.03l-.01.01-.12.1a.03.03 0 0 0 0 .03l.03.15a.02.02 0 0 1-.02.03h-.01l-.12-.08a.05.05 0 0 0-.06 0 3.2 3.2 0 0 0-.14.1.02.02 0 0 1 0-.01.02.02 0 0 1-.01-.02l.05-.16Z" fill="#fff"/><path d="M14.16 6.31a7.64 7.64 0 0 1 .3.76h-2.53c-.1-.22-.18-.48-.25-.76h2.48Z" fill="#C80036"/><path d="m3.58 6.77.2-.46c.02 0 .04.02.04.06l.01.02H4a.03.03 0 0 1 .02.04v.01l-.12.1-.01.01v.02l.04.15a.02.02 0 0 1 0 .02.02.02 0 0 1-.03 0 .76.76 0 0 1-.1-.06c-.03-.02-.06-.02-.1 0a.4.4 0 0 1-.12.09Z" fill="#fff"/><path d="M7.71 6.58c.1.04.22.07.35.09.06 0 .13.03.18.07l.04.1-.01.02c-.05.03-.11.07-.17.05a1.07 1.07 0 0 1-.19-.07 5.8 5.8 0 0 1-.35-.12h-.17a.02.02 0 0 1-.02-.01.02.02 0 0 1 0-.02l.06-.09a.33.33 0 0 1 .28-.02Z" fill="#2F1C21"/><path d="M7.56 6.71a5.82 5.82 0 0 0 .35.13l.19.07c.06.02.12-.02.17-.05v-.03l-.03-.09c.13.04.2.13.2.26.02.16.02.33 0 .5 0 .05 0 .1-.02.14-.03.06-.06.14-.03.2.03.07.08.14.15.18l.01.03c.01.05-.01.08-.06.1-.08.03-.1.1-.19.12a12.06 12.06 0 0 0-.5.1 2.46 2.46 0 0 1-.32-.82.03.03 0 0 1 .04-.02c.05 0 .1.03.1.08.04.1.1.29.19.36a.07.07 0 0 0 .09 0c.09-.09.18-.23.18-.36 0-.12.02-.2.08-.3.03-.04.02-.08-.02-.13a.2.2 0 0 0 .1-.03v-.03l-.04-.05v-.03c0-.02-.01-.03-.02-.03l-.1-.05a.04.04 0 0 0-.05.02c-.02.03 0 .06.02.09l-.19-.1a.3.3 0 0 0-.1 0c.02-.06 0-.09-.04-.1a.26.26 0 0 0-.24.1l-.01.02-.05.14c-.03 0-.04-.02-.04-.07 0-.12.06-.19.13-.28.01-.01.02-.03.01-.04 0-.02 0-.03.02-.03h.02Z" fill="#C06A55"/><path d="M9.1 6.94c-.03-.02-.01-.06.04-.11.08-.02.16-.06.24-.1a.36.36 0 0 1 .15 0c.04 0 .06.03.07.07v.04c-.01.04-.04.06-.08.06a.8.8 0 0 0-.42.04Z" fill="#D9AD88"/><path d="M5.85 6.95c-.01.06-.03.1-.06.12a.4.4 0 0 0-.15.2c-.01.04-.03.05-.06.03l.05-.17-.01-.02a2.27 2.27 0 0 1-.13-.1v-.03l.18-.02a.03.03 0 0 0 .02-.02l.05-.15c.03-.05.04-.05.05 0l.06.16Z" fill="#fff"/><path d="M9.14 6.83c-.05.05-.07.09-.04.1-.14.08-.18.16-.13.25-.03 0-.07-.04-.11-.13a.86.86 0 0 0-.08-.16c-.01-.02-.02-.05-.01-.1.08.16.25.07.37.04Z" fill="#AE463C"/><path d="m4.32 7.15-.13-.09a.02.02 0 0 1 .01-.04L4.37 7a.02.02 0 0 0 .02-.02l.05-.16a.02.02 0 0 1 .03-.02.02.02 0 0 1 .02.02l.05.15a.02.02 0 0 0 .02.02h.15a.02.02 0 0 1 .02.04l-.12.1a.02.02 0 0 0-.01.03l.04.15a.02.02 0 0 1 0 .02.02.02 0 0 1-.04 0l-.13-.07a.02.02 0 0 0-.02 0l-.13.1a.02.02 0 0 1-.04-.03l.05-.16a.02.02 0 0 0 0-.03Z" fill="#fff"/><path d="M7.66 4.75c-.5.83-.16.33-.74.82a.15.15 0 0 0-.04.05c-.01.03 0 .04.02.02.28-.2.57-.37.84-.6l.13-.11c-.07.17-.16.33-.27.48-.22.29-.5.52-.72.81-.18.23-.37.43-.57.63l.05.04c.25-.25.55-.47.78-.75 0-.01.01-.01 0 0-.03.25-.5.56-.67.73l-.05.1a.27.27 0 0 0-.04.1 2.33 2.33 0 0 1-.54 1.15c-.12.14-.22.3-.29.46-.04.13-.07.29-.12 0-.14-.93-.02.15-.08.07a.1.1 0 0 1-.01-.03.2.2 0 0 0-.07-.1 1.08 1.08 0 0 1-.01-.34l.05-.34c.01-.05.03-.14.06-.18l.21-.4V7.3c.03.02.05 0 .06-.03a.4.4 0 0 1 .14-.2c.03-.03.06-.06.07-.12l.4-.42c.08-.03.15-.15.15-.24a1.78 1.78 0 0 1 .5-.88.27.27 0 0 0 .04-.07.16.16 0 0 1 .06-.07c.11-.06.36-.23.41-.3.07-.11.16-.18.25-.22ZM6.38 11.06c.37-.19.37-.56 0-1.31-.3-.6-.13-1 0-1.13-.2.76.75 1.7.93 2.07.15.3-.18 1-.37 1.31.3-.15.62-.69.75-.94a3.18 3.18 0 0 1-1.13 1.5c-.3.15-.25.56-.18.75-.46-.15-.44-.44-.38-.56-.3.3-.13.88 0 1.13-.6-.46-.5-1.2-.38-1.5-.3.3-.37.74-.37.93V12.2c0-.56.75-.94 1.13-1.13Z" fill="#A6745A"/><path d="M8.37 7.31a.4.4 0 0 0-.05.14 2.71 2.71 0 0 1-.1.36.36.36 0 0 1-.04-.25c.02-.08.07-.17.1-.26s0-.21 0-.3c-.01-.04 0-.07.02-.08h.01c.07.15.1.28.06.4Z" fill="#48170B"/><path d="M8.14 7.18a.37.37 0 0 0-.22.01l-.02.02-.01.02v.03a.1.1 0 0 0 0 .03v.04a.34.34 0 0 0-.1.03.2.2 0 0 1-.19-.01c-.09-.05-.04-.16-.02-.23l.09.09h.02c.06.01.08-.01.05-.07.09.03.18.02.27-.02h.07c.05 0 .05-.02.01-.04l-.04-.01c-.03-.03-.04-.06-.02-.1a.04.04 0 0 1 .06-.01l.09.05.01.02v.01l.01.03.04.05v.03a.2.2 0 0 1-.1.03Z" fill="#A6745A"/><path d="M8.01 7.12a.42.42 0 0 1-.27.02l-.1-.06v-.02l.12-.08a.3.3 0 0 1 .1 0l.19.09h.04c.04.03.04.04 0 .04L8 7.12ZM9.5 7.01a.3.3 0 0 0-.13 0 .4.4 0 0 0-.28.08v.02c.14.09.29.1.45.06l.02-.02c.02-.06 0-.1-.06-.14Z" fill="#FDB92D"/><path d="M8.86 7.05c.04.09.08.13.12.13.15.02.37.1.54.06h.02l.02.02c.02.06.05.11.09.16.01.03.04.05.07.07l.02.02c.02.1.06.27-.02.35-.1.1-.2.19-.36.14-.15-.04-.35-.1-.44-.23h-.03v.02l.02.07c.01.06 0 .07-.05.03a.16.16 0 0 1-.06-.15c.02-.12-.02-.23 0-.34.02-.1 0-.19 0-.28 0-.05.01-.07.06-.07Z" fill="#FFD2A1"/><path d="M14.47 7.07a5.83 5.83 0 0 1 .25.83l-2.22-.01c-.06 0-.08-.02-.1-.07a1.95 1.95 0 0 0-.2-.33.46.46 0 0 1-.07-.12c-.05-.12-.13-.2-.2-.3h2.54Z" fill="#fff"/><path d="M10.12 8.7a.48.48 0 0 0-.1-.34l-.14-.14v-.03l.05-.28c.03-.1.01-.2-.06-.3a.72.72 0 0 0-.22-.2.32.32 0 0 1-.09-.15l-.02-.01h-.02c0-.01 0-.02.02-.02h.02c.03.01.05 0 .07-.01a.05.05 0 0 1 .06-.02c.3.13.5.38.35.7-.05.1-.08.2-.07.3 0 .05.02.08.05.1l.09.05c.03.01.05 0 .05-.04 0-.06.02-.12.06-.16a.02.02 0 0 1 .02 0c.02.13.05.26-.06.35l-.02.03-.04.17Z" fill="#AE463C"/><path d="m5.22 7.48.16.01a.02.02 0 0 1 .01.03l-.12.11c-.01 0-.02.02-.01.03l.03.1c.03.08 0 .1-.06.05l-.08-.05a.05.05 0 0 0-.06 0 .55.55 0 0 1-.1.08c-.05.02-.06 0-.04-.04l.04-.12a.04.04 0 0 0-.02-.05.85.85 0 0 1-.1-.08c-.04-.03-.04-.04 0-.05h.15l.03-.03.04-.13c.03-.06.05-.06.07 0l.04.12c0 .01 0 .02.02.02Z" fill="#fff"/><path d="m8.25 8.07-.05-.06c-.05-.05-.05-.11.02-.2a116.75 116.75 0 0 0 .15-.5c.06.12.05.24-.04.37v.03c0 .1.02.2.08.27l.04.1-.01.02c-.07.04-.13.03-.19-.03Z" fill="#F1AF7F"/><path d="M3.9 7.53h.18a.01.01 0 0 1 .01.03l-.14.12a.01.01 0 0 0 0 .02l.05.18a.01.01 0 0 1-.02.01l-.16-.1a.01.01 0 0 0-.02 0l-.15.1a.01.01 0 0 1-.02 0l.04-.19a.01.01 0 0 0 0-.01l-.15-.12a.01.01 0 0 1 0-.02l.2-.01a.01.01 0 0 0 0-.01l.07-.18a.01.01 0 0 1 .01 0 .01.01 0 0 1 .02 0l.07.17a.01.01 0 0 0 0 .01Z" fill="#fff"/><path d="M7.3 7.92a.96.96 0 0 1-.07-.51l.05-.03.02.01a4.4 4.4 0 0 0 .16.62l-.01.02-.04.02h-.04l-.07-.13Z" fill="#FFD2A1"/><path d="m12.17 7.63.18.22.01.03c0 .01 0 .02-.02.01h-.06a.72.72 0 0 1-.1-.26ZM12 7.71c.05.05.09.1.1.18H12v-.08l.01-.1Z" fill="#fff"/><path d="M14.72 7.9a8.81 8.81 0 0 1 .09.75h-2.47a13.45 13.45 0 0 0-.03-.6c-.03-.1-.04-.1-.03 0l.02.18c0 .09-.02.2-.05.35 0 .02-.02.02-.03.02a.02.02 0 0 1-.03-.03 4.05 4.05 0 0 0 .02-.6h.07v-.08h.06l.02-.01-.01-.03c.02 0 .04-.01.05-.03.02.05.04.07.1.07h2.22ZM11.9 7.84c0 .03.02.06.05.08.02.01.04 0 .04-.02l.12-.01a.5.5 0 0 1 .02.1c.01.1.04.19.03.3l-.04.25a.06.06 0 0 1-.06.05c-.03 0-.07 0-.1-.04-.02-.02-.02-.04-.01-.05l.09-.26c.01-.06 0-.1-.04-.11l-.02-.01V8.1a.6.6 0 0 0-.1-.16V7.9l.02-.06Z" fill="#C80036"/><path d="M4.56 8.09h.1c.08 0 .09.02.03.07a.86.86 0 0 1-.07.06.04.04 0 0 0-.02.05l.04.14a.02.02 0 0 1-.02.03H4.6l-.13-.08h-.04l-.12.08a.04.04 0 0 1-.03.01.02.02 0 0 1-.01-.01v-.01l.05-.16c0-.01 0-.02-.02-.03l-.11-.08c-.05-.03-.04-.05 0-.05l.16-.01a.03.03 0 0 0 .03-.03l.05-.15c.02-.05.03-.05.05 0l.04.15.03.02Z" fill="#fff"/><path d="m9.92 7.91-.05.28v.03l.14.14a.16.16 0 0 0-.14 0c-.08.04-.25.16-.28 0a.23.23 0 0 1 .05-.18A.8.8 0 0 1 9.8 8l.12-.1Z" fill="#C06A55"/><path d="M8.3 8.05c.03.01.06 0 .08-.03 0-.04-.01-.07-.05-.08-.04-.02-.07 0-.08.03-.02.03 0 .07.04.08ZM8.8 8.06l-.04.01a.35.35 0 0 0-.12-.03c-.04 0-.05-.02-.05-.05l.04-.04c.1-.04.16 0 .17.11Z" fill="#48170B"/><path d="m8.91 8.48-.25-.1a.62.62 0 0 1-.02-.34l.12.03c.03.03.07.03.12.02.03-.03.05-.06.05-.09 0-.06.02-.06.05 0 .05.07.11.14.18.2.08.06.13.14.08.24-.04.05-.14.1-.2.08a1.38 1.38 0 0 0-.13-.04Z" fill="#FFD2A1"/><path d="m6.07 8.12-.25.48c-.17.31-.23.63-.03.96.03.05.03.1.07.14l.27.29c.03.04.1.08.12.12.03.05.04.1.03.14l-.08-.02a.33.33 0 0 0-.1-.18 2.99 2.99 0 0 0-.28-.26 1.11 1.11 0 0 1-.26-.33h.02v-.04l-.06-.1v-.04c0-.05 0-.1.02-.12l.1-.3c.01-.05.04-.1.06-.14a.93.93 0 0 0 .1-.19 3.37 3.37 0 0 1 .26-.44v.03Z" fill="#D9AD88"/><path d="m3.17 8.33.03-.21.2.01a.03.03 0 0 1 .02.05l-.1.09a.04.04 0 0 0-.02.03l.03.12c.02.06 0 .07-.05.04-.05-.02-.12-.05-.1-.13Z" fill="#fff"/><path d="M8.16 9.4a.2.2 0 0 0-.03.1c-.22-.11-.37-.2-.5-.42-.02-.25-.04-.5-.08-.76 0-.04 0-.06.02-.08a.05.05 0 0 1 .08 0c.03.05.08.1.11.17l.1.2a.1.1 0 0 1 .01.09c-.04.1-.1.27.05.33.13.04.22.05.23.22l.01.14Z" fill="#FFD2A1"/><path d="m8.66 8.38.25.1.24.13c-.05.02-.08.02-.1-.01a.05.05 0 0 0-.01-.02.27.27 0 0 0-.13-.04c-.01 0-.02 0-.03.02l-.03.02-.24-.03a.7.7 0 0 0-.2 0 7.77 7.77 0 0 1-.3.06c-.02.03-.04.03-.07.01a.75.75 0 0 0 .04-.07.3.3 0 0 1 .2-.16c.04 0 .08 0 .12.02l.06.02c.03 0 .05 0 .07-.02a.28.28 0 0 1 .13-.03Z" fill="#C06A55"/><path d="M9.15 8.6c.1.02.1.04.05.06l-.09.02h-.13a.55.55 0 0 0-.2-.05l-.42-.01a.6.6 0 0 0-.3.08.31.31 0 0 1-.12.02c0-.09.04-.13.1-.11v.01c.03.02.05.02.07-.01l.03-.02c.09 0 .17-.02.26-.04a.7.7 0 0 1 .2 0 4.68 4.68 0 0 0 .29 0l.02-.01c.04 0 .09.01.13.04l.02.02c.01.03.04.03.09 0Z" fill="#48170B"/><path d="M12.08 8.7a2.2 2.2 0 0 1-.1.23c-.02.04-.04.04-.04-.01v-.24l.01-.02h.11l.02.01v.03ZM12.18 8.73a.58.58 0 0 1-.1.16s-.01 0 0 0a.5.5 0 0 1 .05-.17c0-.05.02-.07.05-.07 0 0 .02 0 .02.02s0 .04-.02.06ZM14.8 8.65h.02a5.62 5.62 0 0 1-.02.81h-2.5a.3.3 0 0 1-.14-.1L12 9.12c-.03-.04-.02-.08.02-.12a.97.97 0 0 0 .2-.27c.03-.07.06-.1.12-.08l2.47-.01ZM5.28 8.67l.26.5a.24.24 0 0 0-.03.1l.01.04.06.11v.04H3.16a6.55 6.55 0 0 1-.01-.79h2.13Z" fill="#fff"/><path d="M8.3 8.77c.03.02.04.04.04.06a.02.02 0 0 1-.01.02h-.01a.12.12 0 0 0-.07-.01.26.26 0 0 1-.07-.07v-.02l.13.02Z" fill="#4A121E"/><path d="M8.76 8.85a.33.33 0 0 1-.14.04l-.25-.01c-.02 0-.03 0-.03.03 0 .02.01.03.03.04l.04.02h.13l-.27.07A.02.02 0 0 1 8.25 9c0-.03.04-.04.06-.07.01-.04 0-.07-.06-.1l.06.01a.02.02 0 0 0 .03-.02.08.08 0 0 0-.03-.06c.15 0 .3.05.45.08Z" fill="#C06A55"/><path d="m8.54 8.98-.14-.01s-.02 0-.03-.02a.08.08 0 0 1-.03-.04c0-.03 0-.04.03-.03h.25c.05 0 .1 0 .14-.03l.16-.07a.01.01 0 0 1 .01 0v.04a.88.88 0 0 0-.16.09c-.07.05-.15.05-.23.07Z" fill="#48170B"/><path d="M9.12 9.47a.33.33 0 0 1-.16.07 3.27 3.27 0 0 1-.7.03v.01l.1.01.03.08c.03.12.08.23.17.32-.03 0-.05.01-.06.06a4.4 4.4 0 0 1-.1.3l-.21-.8a.03.03 0 0 0-.02-.01.07.07 0 0 1-.04-.04.2.2 0 0 1 .03-.1l.03-.04c.01-.01.02-.02.03-.01h.16c.15 0 .32.08.45.11.1.03.2.03.3.01Z" fill="#AE463C"/><path d="M5.56 9.46c.09.15.17.26.26.33.13.1.23.2.29.26.05.05.08.11.1.18H3.27c-.06-.25-.1-.5-.12-.77h2.4ZM14.8 9.46l.01.06c-.02.23-.06.47-.1.7h-1.9a9.66 9.66 0 0 0-.4-.63.63.63 0 0 1-.1-.13h2.5Z" fill="#C80036"/><path d="m8.4 10.35.1-.3c0-.05.03-.06.05-.06h.05a.78.78 0 0 1 .53-.16.01.01 0 0 1 0 .02 49 49 0 0 1-.37.37c-.07.04-.16.09-.16.17 0 .07 0 .13.02.18.04.13.1.26.17.4.03.05.07.24-.03.24a.06.06 0 0 1-.06-.05c-.05-.2-.12-.38-.22-.56a1.46 1.46 0 0 1-.09-.25Z" fill="#C06A55"/><path d="m6.2 10.23.08.02.05.13c.03.05.04.1.05.13.01.1 0 .23-.1.3-.15.08-.3.14-.45.16H3.5l-.01-.02a5.3 5.3 0 0 1-.21-.72H6.2ZM14.71 10.23c-.05.25-.12.5-.2.74h-1.68a.88.88 0 0 0 .05-.36c-.01-.12-.03-.25-.07-.38h1.9Z" fill="#fff"/><path d="m8.32 10.45-.01-.06c0-.06.01-.06.03 0 .14.4.53.86.1 1.25a.02.02 0 0 1-.03 0c-.02-.2-.02-.4-.02-.59 0-.2-.05-.4-.07-.6Z" fill="#C06A55"/><path d="m5.83 10.97-.36.21c-.22.07-.38.2-.63.53l-.06.02h-.95l-.08-.15a10.82 10.82 0 0 1-.25-.6l2.33-.01ZM14.5 10.97c-.08.26-.19.51-.32.76h-1.47l-.03-.01h.02l.02-.02c-.02-.17 0-.29.02-.43.01-.07-.02-.11-.02-.17 0-.02 0-.03.02-.03a.19.19 0 0 0 .1-.1h1.67ZM12.5 11.4a1.61 1.61 0 0 1-.09-.11c-.06-.1-.14-.15-.21-.23a.1.1 0 0 0-.05-.02l-.07-.01a1 1 0 0 1 .12 0h.03l.01-.02c.12-.02.21.03.28.15.05.08.04.16-.02.24Z" fill="#C80036"/><path d="M12.15 11.04a.1.1 0 0 1 .05.02c.07.08.15.13.21.23l.09.11.18.32.03.01v.02c.13.25.2.52.2.79l-.01.74c0 .02 0 .03.04.02-.04.04-.05.06-.01.08-.2.17-.4.33-.64.48.01-.07.01-.12 0-.14a.52.52 0 0 0-.1-.12.07.07 0 0 1 0-.06l.05-.62c.02-.23-.9-1.95-.1-1.88Z" fill="#FF3B40"/><path d="M5.01 11.72v.16-.02H5a.46.46 0 0 0-.07.14c-.04.16-.05.32-.02.48 0 .04.03.06.07.06l.04.05.09.24c-.02.1-.08.15-.17.17h-.16v.04a.52.52 0 0 1-.14-.16l-.07-.06c-.06-.08-.14-.16-.19-.24a.36.36 0 0 0-.03-.05h.5l.02-.01-.04-.25a6.52 6.52 0 0 1 .18-.55Z" fill="#C80036"/><path d="M9.1 11.64c.1-.6-.03-.07-.21-.16v-.02c.04-.05.1-.3 0-.2-.6.61-1.08 1.3-1.55 2.02-.2.32-.52.72-.65 1.08l.13.06c.37-.66.66-1.29 1.23-1.81.27-.25.58-.45.84-.7l.04-.04c.08-.07.1-.05.05.04a.93.93 0 0 0-.05.16c.1-.11.15-.25.18-.43Z" fill="#BD1729"/><path d="m4.78 11.73.05.01v.03c-.03.17-.1.33 0 .5l.04.25c0 .01 0 .02-.02.02h-.5c-.2-.25-.37-.52-.52-.8h.02l.93-.01ZM14.18 11.73c-.14.29-.3.56-.5.81h-.77c0-.27-.07-.54-.2-.8h1.47Z" fill="#fff"/><path d="M8.94 12.65c-.12.13-.24.24-.34.38l-.24.33a.58.58 0 0 0-.08.14l-.26.03h-.01a.02.02 0 0 1-.02-.01.02.02 0 0 1 0-.02.5.5 0 0 0 .12-.13l.13-.26a.28.28 0 0 1 .09-.1c.18-.1.34-.23.5-.37l.14-.11H9c0 .05-.03.08-.05.12Z" fill="#2F1C21"/><path d="M9.35 12.9a.22.22 0 0 0-.04.1c0 .02 0 .02.02.02h.04l-.36.31a.38.38 0 0 1-.17.07c-.01 0-.02 0-.02-.02v-.07c.02-.2.08-.35.15-.48.04-.07.04-.07-.02-.01-.2.2-.39.42-.57.65a.23.23 0 0 1-.1.03l.08-.14.24-.33c.5-.68 1.16-.73.75-.13Z" fill="#970E24"/><path d="M12.9 12.54h.78c-.2.28-.44.54-.7.77 0-.01 0-.02-.04 0-.03 0-.05-.01-.05-.03.02-.25.02-.5.02-.74Z" fill="#C80036"/><path d="M8.82 12.64c-.15.14-.31.26-.5.37a.28.28 0 0 0-.08.1l-.13.26a.5.5 0 0 1-.11.13.02.02 0 0 0 0 .03h.02l-.3.06v-.07c.1-.2.24-.36.4-.5.04-.04.1-.07.16-.09a1.5 1.5 0 0 0 .46-.26v-.02H8.7a.23.23 0 0 1 .11-.01Z" fill="#970E24"/><path d="m8.81 13.3-.03.12a.05.05 0 0 1-.05.04 2.66 2.66 0 0 0-.34.05 7.76 7.76 0 0 1 .56-.7c.06-.05.07-.05.02.02-.07.13-.12.29-.16.48Z" fill="#FD6D64"/><path d="M7.16 13.98h-.02v-.03c.15-.23.27-.49.44-.7l.1-.13c.12-.15.14-.14.05.03l-.16.32c-.07.12-.2.3-.4.51Z" fill="#970E24"/><path d="m6.36 14.22.19.08.19-.35a7.5 7.5 0 0 0 .82-1.93c.06-.22.18-.37.34-.52a.04.04 0 0 0 .02-.04l-.03-.16c0-.05-.02-.06-.05-.02l-.02.04a2.9 2.9 0 0 1-.14.15c-.09.07-.18.15-.22.25a4.66 4.66 0 0 0-.1.26.48.48 0 0 1 .1-.1h.03v.01l-.14.28a4.3 4.3 0 0 1-.79 1.2 2.06 2.06 0 0 0-.32.45l-.06.3.18.1.07-.15.06-.14c.09-.18.14-.36.17-.52v-.05.05c-.03.16-.08.34-.17.52a2.3 2.3 0 0 0-.06.14l-.07.15ZM12.08 11.03h.07c-.8-.06.1 1.69.1 1.89-.02.3.07.69.04.94l-.19.13c-.54.34-1.14.58-1.78.72.1-.11.2-.2.3-.26.21-.13.45-.26.7-.37a3.37 3.37 0 0 0 .44-.24c.02-.03 0-.04-.03-.03-.32.1-.64.23-.94.4-.27.13-.52.32-.74.54a4.62 4.62 0 0 0-.35.08h-.2c-.02 0-.02-.01-.02-.03.08-.17.18-.43.32-.55a2.55 2.55 0 0 1 .14-.12v-.1c0-.1 0-.18.03-.28a4.34 4.34 0 0 1 .3-.6l.3-.05a.6.6 0 0 1 .25-.02l.74.03v-.03a49.1 49.1 0 0 0-.85-.06 1 1 0 0 0-.36.05.11.11 0 0 1-.05.04l-.03-.01a.05.05 0 0 0-.04-.04c-.02 0-.03 0-.04.02 0 .02-.02.04-.04.05a.03.03 0 0 1-.03-.03.31.31 0 0 1 .15-.18 149.83 149.83 0 0 0 .63-.63c.02-.05.01-.06-.04-.04l-.03.02c-.02.01-.03 0-.02-.01 0-.03.03-.06.06-.08v-.04c-.26.07-.4.23-.55.44a.04.04 0 0 1-.03.02.04.04 0 0 1-.04-.03.12.12 0 0 1 0-.08c.03-.08.05-.16.06-.25l.05-.14a.86.86 0 0 0 .03-.1l.04-.1c.12-.24.27-.42.49-.58.01 0 .02-.01.01-.02v-.01h-.02c-.29.2-.53.5-.59.85 0 .03-.01.03-.02 0l-.05-.1a.04.04 0 0 0-.04-.02h-.02l-.02.03a4.44 4.44 0 0 0-.02.6c0 .04-.01.08-.05.11 0 .02-.01.01-.01 0 0-.05-.01-.08-.04-.1a.53.53 0 0 0-.22.1c.07.13.16.2.14.37l-.01.02a2 2 0 0 1-.37 0c-.07 0-.4.06-.18.07h.3l.26.01c.05 0 .06.03.05.07v.01c-.02.04-.05.07-.1.06l-.16-.01a2.1 2.1 0 0 0-.32 0H9.4l.01.02.12.01.37.03a.03.03 0 0 1 .03.04 6 6 0 0 1-.04.08c-.07.18-.14.36-.08.56.03.01.03.04 0 .07v.01a16.84 16.84 0 0 0-.64.06c-.23.03-.41.1-.57.25-.06.04-.1.04-.16 0-.28-.1-.58-.14-.89-.11-.05.02-.12.02-.22 0-.02 0-.03-.01-.02-.04a.87.87 0 0 1 .12-.22l.19-.35a.08.08 0 0 1 .06-.04 6.18 6.18 0 0 0 1.22-.13.6.6 0 0 0 .22-.1s0-.02-.02-.03l-.07.04a4.88 4.88 0 0 1-1.05.15l-.31.01c-.01 0-.02 0-.01-.01a.14.14 0 0 1 .04-.07l.31-.06.26-.03c.04 0 .07-.01.1-.03v.04h.02c.1-.02.29 0 .36-.06l.02-.03.03-.11v.07l.03.02c.07-.01.13-.03.17-.07l.36-.3.24-.2a.32.32 0 0 0 .13-.23c-.01-.1.02-.2.1-.32l.28-.37c.13-.16.18-.34.22-.53.11-.46 1.02-.9 1.37-.46.04.04.1.07.17.08l.2.03ZM9.9 14.31l.14-.05.42-.12a5.85 5.85 0 0 0 1.04-.39c.1-.06.08-.08-.02-.07a12.84 12.84 0 0 1-1.03.34l-.37.1a.49.49 0 0 0-.19.12c-.02.02-.02.05.01.07Zm1.7-1.37a6.29 6.29 0 0 0-1.05-.03c-.05 0-.1 0-.15.03-.04.02-.06.04-.07.06.4-.05.8-.06 1.21-.03a4.5 4.5 0 0 0 .44 0v-.01l-.38-.02Z" fill="#BD1729"/><path d="M9.1 14.79a.06.06 0 0 1-.05.03 1.35 1.35 0 0 1-.37 0 .04.04 0 0 1-.02-.03v-.02l.12-.18c.08-.13.34-.14.48-.13.03 0 .04.01.02.04-.06.07-.12.17-.19.29Z" fill="#970E24"/><path d="M8.34 14.8c.08.02.16.02.23 0 .01 0 .02 0 .02-.02a.39.39 0 0 1 0-.18c0-.01 0-.02-.02-.02h-.05l-.13-.01a2.81 2.81 0 0 0-.5-.08l-.26-.03c-.1-.02-.2-.02-.31 0h-.03l-.07.1c.09.05.18.08.29.1.04 0 .13.02.25.06.17 0 .33.03.49.08h.09Z" fill="#FD6D64"/><path d="M12 7.5c-1.13-.56-1.5-2.63-2.06-3-.45-.3-1.06-.13-1.31 0 .74.19.93 1.69 1.5 2.63.44.75 1.43.56 1.87.37ZM11.63 8.63c0-.46-.26-.7-.38-.76 0 .57-.38.75-.38 1.5 0 .76.38.76.76.94.3.15.62.44.74.56.07-.12.2-.44.2-.74 0-.38-.95-.94-.95-1.5ZM9.94 9.75c0-.45.5-.94.75-1.13-.3.46 0 1.57.19 2.07-.46 0-.7-.5-.76-.75 0 .3.13.87.2 1.12a3.55 3.55 0 0 1-.38-1.31ZM9.19 11.25c-.15-.3.19-.88.37-1.13-.18.76.56.94.38 1.5-.15.46-.69.7-.94.76.13-.26.34-.83.19-1.13Z" fill="#A6745A"/></svg>