<!-- by TradingView --><svg width="18" height="18" viewBox="0 0 18 18" xmlns="http://www.w3.org/2000/svg"><path fill="#F0F3FA" d="M0 0h18v18H0z"/><path d="M13.22 4.74a1.02 1.02 0 0 0-.14-.45.04.04 0 0 0-.04-.01h-.02v.03l-.03.14a.15.15 0 0 1-.24.05.15.15 0 0 1-.04-.07V4.3a.1.1 0 0 0-.04-.1.1.1 0 0 0-.04-.02l-.27-.02.13-.07a.04.04 0 0 0 .02-.04.04.04 0 0 0-.04-.04c-.43-.05-.58.31-.68.68a.5.5 0 0 1-.33.34c-.74.23-1.24.4-1.63.95a.05.05 0 0 1-.06.03l-.02-.02-.01-.03c-.05-.34 0-.62.15-.84a.11.11 0 0 0-.04-.16l-.13-.07a.05.05 0 0 0-.06 0 .05.05 0 0 0-.01.06l.07.18a.15.15 0 0 1 0 .13l-.03.04a.07.07 0 0 1-.06.04.08.08 0 0 1-.07-.04c-.14-.2-.14-.4 0-.57a.15.15 0 0 1 .14-.06l.28.04a.1.1 0 0 0 .06-.02.1.1 0 0 0 .04-.05c.26-1.03-.91-1.7-1.77-1.13-.37.25-.51.64-.42 1.16 0 .02.02.04.03.05a.1.1 0 0 0 .05.02l.05-.01a.37.37 0 0 1 .3-.07c.05 0 .1.03.13.06.04.03.07.07.08.12.08.19.03.33-.13.43a.1.1 0 0 1-.14-.03c-.04-.06-.04-.14.01-.24a.05.05 0 0 0 0-.06.06.06 0 0 0-.06-.02c-.1.02-.15.07-.14.16 0 .12.04.23.12.33.03.04.05.1.05.15v.31l-.01.05a.08.08 0 0 1-.1.03.08.08 0 0 1-.04-.03c-.24-.4-.7-.68-1.38-.83a.76.76 0 0 1-.62-.6c-.07-.3-.16-.38-.39-.49-.04-.02-.08-.01-.1.02-.02.02-.02.06 0 .1a.54.54 0 0 0-.2.07c-.07.04-.1.09-.1.15.02.08.06.14.13.2a.03.03 0 0 1-.02.05.12.12 0 0 0-.04.01c-.02.02-.02.04 0 .07 0 .03.03.04.06.03A5.12 5.12 0 0 0 3.4 8.13c.03.18.03.44-.01.76-.02.13 0 .3.07.5-.1.04-.13.16-.1.37l-.04-.09-.02-.02a.04.04 0 0 0-.05.01v.03l.03 1a5.26 5.26 0 0 1-.08-3.06 6.21 6.21 0 0 1 1.58-2.77v-.09a.79.79 0 0 1 .15-.72c.34-.42.74-.47 1.2-.13a.12.12 0 0 0 .13 0 6.12 6.12 0 0 1 1.42-.52c.72-.16 1.17-.65 1.97-.24.21.11.43.19.66.23a4.24 4.24 0 0 1 1.47.55c.03 0 .05 0 .07-.02.72-.49 1.48-.06 1.38.82Z" fill="#1D2129"/><path d="M12.36 4.16a.64.64 0 0 0-.25.23c-.07.54-.36.86-.9.94-.53.14-1 .45-1.37.95a.12.12 0 0 1-.06.04H9.7a.1.1 0 0 1-.05-.05.1.1 0 0 1 0-.07c.01-.04 0-.08-.04-.1a.04.04 0 0 0-.06.03l-.24.55a1.55 1.55 0 0 1-.73-.35c-.08-.07-.16-.06-.24.02a.15.15 0 0 1-.12.05.15.15 0 0 1-.11-.06c-.4-.51-.58-.83-1.18-.92a.43.43 0 0 1-.15-.05 1.2 1.2 0 0 0-.51-.17 8.2 8.2 0 0 1-.25-.35c-.1-.17-.1-.34-.22-.5-.02-.1-.09-.17-.2-.23-.02-.04-.02-.08 0-.1.02-.03.06-.04.1-.02.23.11.32.2.4.49.08.33.28.53.61.6.68.15 1.14.42 1.38.83l.04.03a.09.09 0 0 0 .1-.03.08.08 0 0 0 .01-.05v-.3a.24.24 0 0 0-.05-.16.58.58 0 0 1-.12-.33c0-.09.04-.14.14-.16a.06.06 0 0 1 .05.02.05.05 0 0 1 .01.06c-.05.1-.05.18 0 .24a.1.1 0 0 0 .13.03c.16-.1.2-.24.13-.43a.28.28 0 0 0-.08-.12.31.31 0 0 0-.13-.06.37.37 0 0 0-.3.07c-.02.01-.03.02-.05.01a.1.1 0 0 1-.05-.02.09.09 0 0 1-.03-.05c-.1-.52.05-.91.42-1.16.86-.58 2.03.1 1.77 1.13a.1.1 0 0 1-.04.05.1.1 0 0 1-.06.02l-.28-.04a.15.15 0 0 0-.15.06c-.13.18-.13.37.01.57a.07.07 0 0 0 .07.04.08.08 0 0 0 .06-.04l.02-.04a.15.15 0 0 0 .01-.13l-.07-.18a.05.05 0 0 1 .01-.06.05.05 0 0 1 .06 0l.13.07a.11.11 0 0 1 .06.08.11.11 0 0 1-.02.08c-.15.22-.2.5-.15.84V6A.05.05 0 0 0 9.8 6c.01 0 .02 0 .03-.02.39-.56.9-.72 1.63-.95a.5.5 0 0 0 .33-.34c.1-.37.25-.73.68-.68a.04.04 0 0 1 .04.04v.02l-.02.02-.13.07Z" fill="#FEEE98"/><path d="M5.6 4.12c.11.06.18.13.2.23l.04.8c0 .03 0 .05.03.07a.1.1 0 0 0 .06.02c.05 0 .08.02.1.05.02.06.07.11.16.15.4.16.8.29 1.23.38l.7.99c.15.32.44.56.6.98a1.38 1.38 0 0 0 .3.78.04.04 0 0 0 .05-.02c.2-.4.26-.82.18-1.25l.07-.54a.27.27 0 0 0 .05-.08c0-.02 0-.04.02-.05a.07.07 0 0 1 .1.02l.01.04v.45c0 .02 0 .04.02.05a.08.08 0 0 0 .1.02.08.08 0 0 0 .04-.04c.2-.5.47-.91.8-1.25l1.32-.44a.55.55 0 0 0 .37-.56l-.04-.53c.08-.12.16-.2.25-.23l.27.02a.1.1 0 0 1 .07.04.1.1 0 0 1 .02.08.33.33 0 0 0-.01.13c0 .03.02.05.04.08a.15.15 0 0 0 .24-.06.45.45 0 0 0 .02-.14.03.03 0 0 1 .03-.03.04.04 0 0 1 .04.01c.08.13.13.28.14.45.06.24.22.48.47.72a.35.35 0 0 1-.16.17l-.8-.84-.04-.02a.1.1 0 0 0-.04 0 .11.11 0 0 0-.07.04.13.13 0 0 0 0 .16c.82.9 1.36 1.68 1.6 2.34a.38.38 0 0 1-.25.17 1.74 1.74 0 0 0-1-.62.08.08 0 0 0-.06.04v.04c0 .03.03.06.07.1.03.01.05.04.05.08.06.2.11.33.16.37.38.35.95 1.15.51 1.6-.08.1-.3.16-.65.22-.42.08-.76.21-1.04.41l-.05.22a.08.08 0 0 0 .06.1h.05l.45-.18a.28.28 0 0 1 .19-.01 1.07 1.07 0 0 0 .5.07l.03.02a.08.08 0 0 1 .03.06c0 .05.02.12.06.23.04.1.1.12.2.07a.7.7 0 0 1 .12-.05.1.1 0 0 1 .07.01l.04.05a.08.08 0 0 1-.05.1.57.57 0 0 0-.33.42l.01.05.04.03a.07.07 0 0 0 .09-.03l.02-.04c0-.02.02-.03.04-.03h.06c.08.04.1.12.04.24-.14.27-.36.39-.64.34a.1.1 0 0 0-.11.06.1.1 0 0 0-.01.04l-.02.59v.46a.34.34 0 0 0-.28.11l-.01-1.96c0-.05-.02-.1-.05-.13a.26.26 0 0 0-.12-.09.3.3 0 0 0-.3.06.6.6 0 0 1-.17.1.11.11 0 0 1-.12-.03l-.13-.14c-.2-.69.07-1.12.82-1.3l.03-3.2a.88.88 0 0 0 .02-.35.07.07 0 0 0-.05-.06.07.07 0 0 0-.07 0 3.5 3.5 0 0 1-1.33.52l-.15.06c-.34.2-.54.34-.62.44-.53.75-.87 1.85-1.28 2.71a.04.04 0 0 1-.04.03.04.04 0 0 1-.04-.03L7.88 6.93c-.32-.72-.88-.89-1.65-1l-.05-.02-.6-.4a.07.07 0 0 0-.1.03l-.02.03-.01 3.36c0 .08.03.14.09.16 0 .02.04.05.1.08l.58.43c.19.36.16.7-.08.99a.1.1 0 0 1-.13.02.6.6 0 0 1-.16-.13.23.23 0 0 0-.23-.08.2.2 0 0 0-.1.07.18.18 0 0 0-.05.1c0 .06 0 .14-.02.24l-.01 1.77c-.1.01-.2.06-.28.13a1.2 1.2 0 0 0-.77-.48.04.04 0 0 0-.04.02.04.04 0 0 0 0 .04c.4.42.82.82 1.27 1.2.01.02.04.03.06.02a.1.1 0 0 0 .07-.03l.02.06c.01.01.02.03.04.03a.1.1 0 0 0 .05 0h.06a.86.86 0 0 1-.36.42.07.07 0 0 0-.04.06.07.07 0 0 0 .04.06c.03.02.07.02.12.02-.18.03-.26.08-.24.17-.29-.1-.43-.3-.43-.58 0-.35-.13-.58-.37-.7a7.14 7.14 0 0 1-1.37-2.33c-.05-1.4-.28-.46-.12-1.76.04-.32.27-.62.24-.8.25-.51.52-1.02.79-1.52a5.4 5.4 0 0 1 1.05-1.39c.11-.1.19-.25.24-.44v-.02l-.02-.02-.02-.04c-.03 0-.05 0-.06-.03-.02-.03-.02-.05 0-.07l.04-.01a.03.03 0 0 0 .02-.02.02.02 0 0 0 0-.03.33.33 0 0 1-.12-.2c-.01-.06.02-.11.1-.15a.54.54 0 0 1 .19-.07Z" fill="#13141B"/><path d="m6.27 5.2 1.15.62a6.79 6.79 0 0 1-1.23-.38c-.09-.04-.14-.09-.16-.15-.02-.03-.05-.05-.1-.05a.1.1 0 0 1-.06-.02.1.1 0 0 1-.03-.07l-.04-.8c.12.16.11.33.22.5l.25.35ZM12.1 4.39l.05.53a.54.54 0 0 1-.37.56l-1.31.44c.16-.2.31-.34.47-.4.14-.06.24-.13.28-.2.53-.07.82-.39.89-.93Z" fill="#7A4821"/><path d="M5.43 4.7c0 .02 0 .03.02.04l.02.02v.02a.87.87 0 0 1-.24.44c-.42.4-.77.86-1.05 1.39-.27.5-.54 1-.79 1.52A5.12 5.12 0 0 1 5.43 4.7ZM13.53 5.63A6.68 6.68 0 0 1 14.7 8.1l-.05.02a.03.03 0 0 1-.02 0 .03.03 0 0 1-.02-.02 2.6 2.6 0 0 0-.44-.78 7.63 7.63 0 0 0-1.59-2.34.13.13 0 0 1-.03-.08c0-.03 0-.06.03-.08a.11.11 0 0 1 .07-.05.1.1 0 0 1 .04 0l.03.03.81.84Z" fill="#FEEE98"/><path d="m8.58 6.33.31 1.2c0 .03.02.05.04.07l.07.02a.12.12 0 0 0 .12-.06l.13-.26a1.95 1.95 0 0 1-.2 1.26.04.04 0 0 1-.05 0 1.38 1.38 0 0 1-.28-.77c.05-.31.03-.65-.03-1.01-.02-.11-.07-.18-.14-.2a.07.07 0 0 0-.09.04v.03c.02.14 0 .22-.05.27a.06.06 0 0 1-.07 0l-.22-.11-.7-1-1.15-.61c.16 0 .33.07.51.17.05.03.1.05.15.05.6.09.78.4 1.18.92a.15.15 0 0 0 .1.06.15.15 0 0 0 .13-.05c.08-.08.16-.09.24-.02Z" fill="#D37023"/><path d="M11.22 5.33c-.04.06-.14.13-.28.18-.16.07-.31.2-.47.41-.34.34-.61.75-.8 1.25l-.04.04a.08.08 0 0 1-.11-.02.08.08 0 0 1-.02-.05v-.45l-.01-.04a.07.07 0 0 0-.1-.02.07.07 0 0 0-.02.05l-.05.08a.2.2 0 0 0 0-.08l.23-.55a.04.04 0 0 1 .03-.02.04.04 0 0 1 .03 0c.04.01.05.05.04.1a.1.1 0 0 0 0 .06.1.1 0 0 0 .05.05h.08c.03 0 .05-.02.06-.04.38-.5.84-.81 1.38-.95Z" fill="#FAAF43"/><path d="m11.82 14.35.1-.46c.21.21.42.27.62.17v-.01l.01-.02V14l-.02-.01c-.32-.09-.53-.32-.64-.68.14.07.25.1.3.06l.07.1a.1.1 0 0 0 .06.05.09.09 0 0 0 .07-.02 6.33 6.33 0 0 0 2.25-3.5l-.01-.03a.05.05 0 0 0-.06-.02s-.02 0-.02.02c-.26.26-.25.63-.45.86l-.37.76c-.17.36-.45.73-.83 1.11a.38.38 0 0 0-.04-.17v-.46l.03.33a.06.06 0 0 0 .05.06.06.06 0 0 0 .06-.03l.76-1.3a.06.06 0 0 0-.02-.07l-.03-.01h-.07c.05-.13.04-.2-.04-.25a.08.08 0 0 0-.06 0 .07.07 0 0 0-.04.03l-.03.04-.03.03a.07.07 0 0 1-.09-.03.07.07 0 0 1 0-.05c.04-.2.15-.33.32-.41.02-.01.04-.03.04-.05v-.06a.09.09 0 0 0-.04-.05.1.1 0 0 0-.06 0 .68.68 0 0 0-.12.04 1.08 1.08 0 0 1-.04-.5l.08-.03a.04.04 0 0 1 .06.02v.19a.07.07 0 0 0 .12.06l.07-.04a.1.1 0 0 0 .04-.04.1.1 0 0 0 0-.06l-.05-.31c.15-.08.25-.08.32-.01a.14.14 0 0 0 .24-.07v-.1c-.07-.1-.07-.25-.01-.42a1.8 1.8 0 0 0-.39-1.51c.1-.03.19-.08.24-.17a2.6 2.6 0 0 1 .46.8.03.03 0 0 0 .02 0l.05-.02a6.68 6.68 0 0 0-1.17-2.46c.07-.04.13-.1.16-.17a5.57 5.57 0 0 1-.53 7.7.36.36 0 0 0-.1.32c.06.4-.1.66-.46.8a.28.28 0 0 1-.14.02 1.45 1.45 0 0 0-.64.05Z" fill="#2A2524"/><path d="M12.53 5.96c-.24-.09-.47-.03-.67.17a.27.27 0 0 1-.13.08c-.46.1-.74.18-.85.24-.52.31-.74.92-.97 1.45l-.35.8L9 9.81l-.69-1.4c-.22-.5-.45-1-.7-1.48-.14-.3-.32-.47-.54-.52a26.98 26.98 0 0 1-1.26-.34.14.14 0 0 0-.1.07.14.14 0 0 0-.02.06l-.16 2.88c-.06-.02-.1-.08-.1-.16a163.5 163.5 0 0 0 .03-3.4.07.07 0 0 1 .07-.03l.04.01.6.4.05.02c.77.11 1.33.28 1.65 1A92.89 92.89 0 0 0 9.01 9.3a.04.04 0 0 0 .04-.03c.41-.86.75-1.96 1.28-2.71.08-.1.28-.25.62-.44.04-.03.1-.05.15-.06a3.5 3.5 0 0 0 1.37-.53.07.07 0 0 1 .06.03l.02.04c.01.12 0 .24-.02.35Z" fill="#F8F2D0"/><path d="m12.53 5.96-.03 3.2a3 3 0 0 0-1.17-1.3l.04-.6a.03.03 0 0 0-.02-.04.03.03 0 0 0-.03.01c-.1.12-.17.25-.22.39l-1.19.28c.23-.53.45-1.14.97-1.45.11-.06.4-.14.85-.24.05-.02.1-.04.13-.08.2-.2.43-.26.67-.17ZM8.32 8.41l-1.35-.63-.18-.47c0-.04-.02-.06-.03-.07a.12.12 0 0 0-.17.03 3.32 3.32 0 0 1-.96 1.9c-.06-.03-.09-.06-.1-.08L5.7 6.2a.14.14 0 0 1 .06-.1.14.14 0 0 1 .13-.03c.37.12.77.23 1.19.34.22.05.4.23.54.52.25.49.48.98.7 1.47Z" fill="#FFE583"/><path d="M9.31 6.68a.2.2 0 0 1 0 .08l-.06.54-.13.26a.12.12 0 0 1-.13.06.12.12 0 0 1-.06-.02.11.11 0 0 1-.04-.06l-.3-1.2c.19.17.43.28.72.34Z" fill="#FED263"/><path d="M8.72 7.79c-.16-.42-.45-.66-.6-.98l.22.11a.06.06 0 0 0 .07 0c.06-.05.07-.13.05-.27a.07.07 0 0 1 .06-.07h.03c.07.02.12.09.14.2.06.36.08.7.03 1Z" fill="#7A4821"/><path d="M13.93 7.48c.36.46.5.96.39 1.51-.2.16-.37.33-.53.5-.04.05-.05.08-.02.1a28 28 0 0 0-1.35.18 2 2 0 0 0-.33.08c-.08.03-.12-.02-.12-.13.28-.2.62-.33 1.04-.4.35-.07.57-.14.65-.22.44-.46-.13-1.26-.5-1.6-.06-.05-.11-.18-.17-.38a.17.17 0 0 0-.05-.09c-.04-.03-.07-.06-.07-.09V6.9l.02-.03a.08.08 0 0 1 .07-.01c.4.1.72.3.97.62Z" fill="#FFE583"/><path d="m11.33 7.86-.02 1.5-.08 3.18a.12.12 0 0 0 .13.13l1.22-.02a.34.34 0 0 1 .28-.1c.02.03.04.09.04.16l-.7.67c-.06.03-.17.01-.31-.06-.23.12-.21.3.03.57l-.1.46c-1.92.89-3.82.87-5.7-.07a.23.23 0 0 0-.12-.02l-.56.04c-.02-.09.06-.14.24-.17.2-.08.38-.23.52-.45a.16.16 0 0 0 .01-.16.17.17 0 0 0-.13-.1c-.05 0-.1.04-.16.14l-.06.02a.1.1 0 0 1-.05 0 .09.09 0 0 1-.04-.04.28.28 0 0 1-.02-.06.16.16 0 0 0-.05-.16c-.2-.2-.37-.4-.54-.61a.55.55 0 0 1 .28-.13l.02.05a.07.07 0 0 0 .06.03h1.2a.1.1 0 0 1 .04-.02.1.1 0 0 0 .04-.03.1.1 0 0 0 .02-.06L6.7 7.61l.01-.03.02-.02a.06.06 0 0 1 .07 0c.06.04.11.13.17.28l.68 1.7c.1.31.23.59.4.83a8.04 8.04 0 0 1 .22 2.77.13.13 0 0 0 .07.07l.06.01 1.17-.02c.04 0 .07-.02.1-.05a.13.13 0 0 0 .04-.09v-2c0-.08.01-.15.04-.22l.3-.76.27-.69a2.43 2.43 0 0 0 .42-.86l.36-.91a1.34 1.34 0 0 1 .23-.4.03.03 0 0 1 .04.01v.02l-.04.61Z" fill="#01111C"/><path d="M6.8 7.3a.16.16 0 0 0-.13 0c-.04.02-.05.05-.05.1 0 .66-.02 1.38-.1 2.15l.02.09c0 .04 0 .07-.02.08h-.04a.1.1 0 0 1-.03-.02l-.02-.03c-.02-.05-.1-.08-.21-.07l-.59-.43c.35-.3.63-.64.83-1.03a5.6 5.6 0 0 0 .13-.87.12.12 0 0 1 .11-.05c.02 0 .04 0 .06.02l.03.07Z" fill="#FED263"/><path d="m6.8 7.3.17.48v.06c-.06-.15-.11-.24-.17-.28a.06.06 0 0 0-.07 0 .06.06 0 0 0-.02.02v.03l.11 4.94a.1.1 0 0 1-.06.1.1.1 0 0 0-.04.01c0-.04-.01-.08-.04-.1-.03-.02-.06-.03-.11-.02-.26.03-.54.03-.85.02a.1.1 0 0 1-.07-.03.1.1 0 0 1-.03-.08v-1.77l-.02-.04a.07.07 0 0 0-.04-.02h-.04a.06.06 0 0 0-.03.04 4.84 4.84 0 0 0-.02-.08c0-.04.02-.08.04-.11a.2.2 0 0 1 .1-.07.23.23 0 0 1 .23.07l.17.14a.1.1 0 0 0 .13-.02c.24-.3.27-.63.08-.99.11 0 .19.02.21.07l.02.03.03.02h.04c.02-.01.03-.04.02-.08l-.01-.1c.07-.76.1-1.48.09-2.15 0-.04.01-.07.05-.09a.16.16 0 0 1 .12 0Z" fill="#D37023"/><path d="m11.1 7.62-.37.9a.35.35 0 0 0 .05-.15.05.05 0 0 0-.05-.05.05.05 0 0 0-.05.04l-.07.2a.16.16 0 0 1-.12.1c-.3.06-.6.07-.93.03l.35-.79 1.2-.28ZM8.32 8.41l.7 1.4a1.97 1.97 0 0 0-1.37-.27l-.68-1.7v-.06l1.35.63ZM12.5 9.16c-.75.18-1.02.61-.82 1.3a.41.41 0 0 1-.22.24.06.06 0 0 1-.06 0 .06.06 0 0 1-.03-.05l-.06-1.29.02-1.5a3 3 0 0 1 1.17 1.3Z" fill="#FED263"/><path d="M10.73 8.53a2.43 2.43 0 0 1-.41.86l-.26.69a3.92 3.92 0 0 0-2 .29 2.75 2.75 0 0 1-.41-.83c.44-.08.9 0 1.36.28l.55-1.13c.32.04.63.03.93-.03.03 0 .05-.01.08-.03a.16.16 0 0 0 .04-.07l.07-.2c0-.02 0-.03.02-.03a.05.05 0 0 1 .07 0v.04c0 .05 0 .1-.04.16Z" fill="#FAAF43"/><path d="M14.32 9c-.06.16-.06.3 0 .42a.14.14 0 0 1-.04.17.14.14 0 0 1-.19-.01c-.07-.07-.17-.07-.32 0-.03-.01-.02-.04.02-.09.16-.17.34-.34.53-.5Z" fill="#7A4821"/><path d="m11.68 10.46.13.14a.11.11 0 0 0 .12.03.6.6 0 0 0 .17-.1.3.3 0 0 1 .3-.06c.05.02.09.05.12.09.03.04.04.08.05.13.01.6.02 1.26 0 1.96l-1.21.02a.13.13 0 0 1-.1-.04.13.13 0 0 1-.03-.09l.08-3.18.06 1.3a.06.06 0 0 0 .06.05h.03c.1-.05.18-.13.22-.25Z" fill="#E4842A"/><path d="m13.77 9.59.06.31a.1.1 0 0 1-.01.06.1.1 0 0 1-.04.04l-.07.04a.07.07 0 0 1-.07 0 .07.07 0 0 1-.04-.06V9.8l-.01-.02a.04.04 0 0 0-.04-.02h-.02l-.08.03v.01c-.02.17-.01.33.04.49-.1.05-.16.02-.2-.07a.86.86 0 0 1-.06-.23.08.08 0 0 0-.03-.06.09.09 0 0 0-.08-.02c-.08.02-.23 0-.45-.07a.28.28 0 0 0-.2 0l-.44.18a.08.08 0 0 1-.09 0 .08.08 0 0 1-.02-.09l.05-.22c0 .11.04.16.12.13a2 2 0 0 1 .33-.08l1.35-.18Z" fill="#7A4821"/><path d="m10.06 10.08-.3.76a.57.57 0 0 0-.05.22v2c0 .04-.02.07-.04.1a.14.14 0 0 1-.1.04l-1.18.02a.14.14 0 0 1-.1-.04.13.13 0 0 1-.03-.1c.08-.94.02-1.84-.2-2.71a3.92 3.92 0 0 1 2-.3Z" fill="#E4842A"/><path d="m12.2 13.38.7-.67c.38-.38.66-.75.83-1.1l.37-.77c.2-.23.2-.6.45-.86a.05.05 0 0 1 .05-.02.05.05 0 0 1 .04.05l-.01.13a6.33 6.33 0 0 1-2.27 3.39.09.09 0 0 1-.08-.01.1.1 0 0 1-.02-.03l-.06-.1Z" fill="#FAAF43"/><path d="M6.72 12.66h-1.2a.06.06 0 0 1-.06-.03.17.17 0 0 1-.02-.05v-1.77a.74.74 0 0 1 .05-.15.06.06 0 0 1 .07-.04.07.07 0 0 1 .06.06v1.77c0 .03 0 .06.03.08a.1.1 0 0 0 .07.03c.3.01.59 0 .84-.02.06-.01.1 0 .12.02.03.02.04.06.04.1Z" fill="#FED263"/><path d="m12.86 12.08.02-.59a.1.1 0 0 1 .08-.1.1.1 0 0 1 .04 0c.28.05.5-.07.64-.34h.07a.06.06 0 0 1 .06.07v.03L13 12.44a.06.06 0 0 1-.06.03.06.06 0 0 1-.05-.06l-.03-.33Z" fill="#695D3D"/><path d="M5.16 12.7c.17.22.35.43.54.62.04.05.06.1.05.16a.11.11 0 0 1-.07.03c-.02 0-.05 0-.06-.02a17.1 17.1 0 0 1-1.27-1.24l.02-.01h.02c.31.04.57.2.77.47Z" fill="#FAAF43"/><path d="M11.89 13.32c.1.36.32.6.64.68l.02.01v.02a.03.03 0 0 1-.01.03c-.2.1-.4.04-.62-.17-.24-.26-.26-.45-.03-.57ZM5.68 14.13c-.05 0-.1 0-.12-.02a.07.07 0 0 1-.04-.06.07.07 0 0 1 .04-.06c.16-.1.28-.24.36-.43.06-.1.1-.14.16-.14a.18.18 0 0 1 .13.1.17.17 0 0 1-.01.16c-.14.22-.32.37-.52.45Z" fill="#E4842A"/><path d="M7.58 3.65a.11.11 0 0 1 .1.01.1.1 0 0 1 .05.1l-.01.05a.25.25 0 0 1-.16.17l-1.11.45a.08.08 0 0 1-.07 0 .07.07 0 0 1-.03-.06V4.3a.19.19 0 0 1 .11-.18l1.12-.47ZM10.43 3.66l1.1.44a.18.18 0 0 1 .11.17v.06a.07.07 0 0 1-.03.06.07.07 0 0 1-.07.01l-1.1-.41a.25.25 0 0 1-.14-.17l-.02-.05a.1.1 0 0 1 .04-.1.1.1 0 0 1 .11 0Z" fill="#FEEE98"/><path d="m5.07 6 .01.43a.09.09 0 0 1-.07.09c-.17.02-.36.11-.57.27a.08.08 0 0 1-.1-.01.07.07 0 0 1 0-.1l.74-.92a.06.06 0 0 1 .07-.02l.02.03.01.03c0 .05-.02.09-.07.12a.09.09 0 0 0-.04.07ZM12.85 6.34c.05-.18.07-.39.05-.62V5.7a.05.05 0 0 1 .09 0l.6 1.04a.02.02 0 0 1 0 .03h-.03l-.3-.23a.17.17 0 0 0-.12-.04c-.14.02-.22.02-.25 0a.15.15 0 0 1-.04-.15Z" fill="#695D3D"/><path d="M4.99 7.06c-.56.29-.94.74-1.13 1.36-.02.06-.09.06-.2-.01.14-.8.6-1.33 1.37-1.56a.08.08 0 0 1 .09.03.08.08 0 0 1 0 .09c-.02.05-.07.08-.13.09Z" fill="#F8F2D0"/><path d="M4.99 7.06c.11.1.1.22-.02.33-.22.2-.4.42-.56.68-.09.05-.12.11-.1.19-.08.25-.1.48-.05.7.02.1-.04.18-.19.23a1.18 1.18 0 0 1-.44-.65l.02-.13c.12.07.2.07.21 0 .2-.61.57-1.06 1.13-1.35Z" fill="#FAAF43"/><path d="M4.41 8.07c.08.04.16.05.25.03a.15.15 0 0 1 .16.09.14.14 0 0 1-.04.17c-.12.1-.28.06-.46-.1-.03-.08 0-.14.1-.2Z" fill="#695D3D"/><path d="M3.63 8.54c.08.28.23.5.44.65-.4.33-.54.11-.44-.65Z" fill="#E4842A"/><path d="M5.99 9.94c-.43-.32-.96-.4-1.6-.24-.53.13-.8.81-.54 1.28.06.22.18.43.34.62a.05.05 0 0 1-.04.08l-.03-.01c-.6-.49-.75-1.08-.44-1.78.28-.59 1.16-.63 1.74-.49.44.11.63.3.57.54Z" fill="#FED263"/><path d="M5.99 9.94c-.23 0-.41-.03-.54-.1-.09-.03-.15 0-.18.1a.07.07 0 0 1-.04.03.07.07 0 0 1-.06 0 1.09 1.09 0 0 0-1.11.2.07.07 0 0 0 .02.1l.05.04a.1.1 0 0 1 .01.14.1.1 0 0 1-.05.03.2.2 0 0 1-.1-.01.1.1 0 0 0-.1.04.1.1 0 0 0-.02.04l-.02.43c-.26-.47 0-1.15.54-1.28.64-.16 1.17-.08 1.6.24Z" fill="#7A4821"/><path d="M4.98 11.4H5a.04.04 0 0 1 .02.02h.01l.01.03a4.07 4.07 0 0 1 .18.64c0 .04 0 .06-.02.06l-.04.02c-.01 0-.03 0-.06-.04a2.51 2.51 0 0 1-.3-.58l-.02-.03a.04.04 0 0 1 .02-.04l.18-.07ZM11.54 13.96a5.63 5.63 0 0 1-5-.01H6.5c-.06.04-.07.1-.06.17l-.06-.02a.07.07 0 0 1-.04-.09l.02-.02 1.12-.87a.24.24 0 0 1 .2-.04c.43.07.5.53.56.9a.3.3 0 0 0 .1.18c.06.05.13.08.21.08l.92-.02c.06 0 .1-.02.15-.06a.24.24 0 0 0 .09-.14l.12-.56a.3.3 0 0 1 .1-.16c.36-.33.77-.12 1.06.2.15.17.34.32.55.46Z" fill="#695D3D"/><path d="M11.54 13.96c.07 0 .1.03.1.1a.1.1 0 0 1-.05.09c-1.7.84-3.42.83-5.15-.03-.01-.08 0-.13.06-.16a.08.08 0 0 1 .07 0c1.64.77 3.3.77 4.97 0Z" fill="#FAAF43"/><path d="m11.6 11.45.49.07a.15.15 0 0 1 .12.09l.09.22h.01c.02 0 .03-.01.03-.03l.06.52a.18.18 0 0 1-.1.18.18.18 0 0 1-.07.02l-.63.01a.18.18 0 0 1-.13-.05.18.18 0 0 1-.05-.14l.12-.85a.05.05 0 0 1 .04-.04h.02ZM9.43 11.1l.04 1.78a.14.14 0 0 1-.04.1.14.14 0 0 1-.1.04h-.77a.17.17 0 0 1-.13-.06.16.16 0 0 1-.04-.13 7.76 7.76 0 0 0 .14-1.43l.84-.34a.04.04 0 0 1 .04 0 .04.04 0 0 1 .02.03Z" fill="#B95019"/></svg>