<!-- by TradingView --><svg width="18" height="18" viewBox="0 0 18 18" xmlns="http://www.w3.org/2000/svg"><path fill="url(#a)" d="M0 0h18v18H0z"/><path d="M4 14v-.74l5.19-4.84v-.37l-2.07-.38c-.13-.02-.13-.22 0-.24l1.94-.37-1.93-2.77c-.08-.11.06-.25.17-.17l2.75 1.94.36-1.96c.02-.14.22-.13.24 0l.27 1.96L13.8 4.2c.11-.08.25.06.16.18l-2.06 2.8 1.77.36c.14.02.13.22 0 .24l-1.77.27 1.83 2.76c.08.12-.06.26-.17.17l-2.65-1.94-.37 1.75c-.03.13-.22.13-.24 0l-.38-2-.25.13L4.86 14H4Z" fill="#FEFEFC"/><defs><linearGradient id="a" x1="3.05" y1="3.21" x2="13.82" y2="15.75" gradientUnits="userSpaceOnUse"><stop stop-color="#4B33E3"/><stop offset="1" stop-color="#A977FF"/></linearGradient></defs></svg>