<!-- by TradingView --><svg width="18" height="18" viewBox="0 0 18 18" xmlns="http://www.w3.org/2000/svg"><path fill="url(#am3tonea2)" d="M0 0h18v18H0z"/><path d="M3 13V5h5.25l.44.3c.24.13.54.37.66.53l.23.3.04-.54V5h3.88l.38.23c.44.25.84.7 1 1.09.1.2.12.96.12 3.43V13h-1.5V9.85c0-3-.02-2.98-.19-3.14-.16-.14-.28-.19-1.87-.19H9.75V13h-1.5V9.95c-.02-2.82 0-3.19-.13-3.33-.13-.13-.21-.1-1.74-.1H4.5V13H3Z" fill="#fff"/><defs><linearGradient id="am3tonea2" x1="-.64" y1="0" x2="16.88" y2="18" gradientUnits="userSpaceOnUse"><stop stop-color="#4BD1D3"/><stop offset="1" stop-color="#3C4459"/></linearGradient></defs></svg>