<!-- by TradingView --><svg width="18" height="18" viewBox="0 0 18 18" xmlns="http://www.w3.org/2000/svg"><path fill="url(#asbb2fbbb)" d="M0 0h18v18H0z"/><path d="M5 6.32v1.35c0 .18-.13.33-.28.33H3.28C3.13 8 3 7.84 3 7.67V6.32c0-.17.13-.32.28-.32h1.44c.15 0 .28.15.28.32Zm1.72 2.13h-1.4c-.16 0-.32.16-.32.33v3.87c0 .17.17.32.32.32l1.4.03c.15 0 .28-.18.28-.35V8.8c0-.17-.13-.35-.28-.35ZM13.66 8.45h1.04c.16 0 .3.18.3.35v3.88c0 .17-.14.32-.3.32h-1.42c-.15 0-.28-.15-.28-.32V9.1c0-.46-.3-1.11-.7-1.11h-1.02c-.15 0-.28-.16-.28-.33V6.32c0-.17.13-.32.28-.32h1.45c.15 0 .27.15.27.32v1.19c0 .46.25.94.66.94ZM9.65 8.45h1.05c.15 0 .3.18.3.35v3.88c0 .17-.15.32-.3.32H9.27c-.15 0-.27-.15-.27-.32V9.1C9 8.65 8.7 8 8.29 8H7.28C7.13 8 7 7.84 7 7.67V6.32c0-.17.13-.32.28-.32h1.45c.15 0 .27.15.27.32v1.19c0 .46.25.94.65.94Z" fill="#fff"/><defs><linearGradient id="asbb2fbbb" x1="3.35" y1="3.12" x2="21.9" y2="24.43" gradientUnits="userSpaceOnUse"><stop stop-color="#1A1E21"/><stop offset="1" stop-color="#06060A"/></linearGradient></defs></svg>