<!-- by TradingView --><svg width="18" height="18" viewBox="0 0 18 18" xmlns="http://www.w3.org/2000/svg"><path fill="#F0F3FA" d="M0 0h18v18H0z"/><path d="M9 3v3.18c0 .02-.01.03-.03.04L6.4 7.39 9 3Z" fill="#FF596E"/><path d="m9 3.02 2.57 4.34h-.03L9.06 6.24c-.04-.02-.06 0-.06.03v2.45c0 .02 0 .03-.02.04h-.01L6.4 7.4l2.57-1.17C9 6.22 9 6.2 9 6.18V3.02Z" fill="#800010"/><path d="m11.57 7.36.02.01c0 .02 0 .03-.02.03L9.01 8.77h-.04l.01-.01.02-.04V6.27c0-.04.02-.05.06-.03l2.48 1.12h.03ZM9 9.78v2.74L6.4 8.4c-.03-.03-.02-.04.01-.02L9 9.78Z" fill="#FF596E"/><path d="M9 12.52V9.78l2.54-1.37c.08-.04.09-.02.05.04L9 12.52ZM14 8.54l-.04.01-1.22 2c-.04.07-.02.09.04.07l1.22-.35-1.9 3.1a.09.09 0 0 1-.04.03l-1.42.6 2.03-3.34a.06.06 0 0 0 0-.05l-.58-1.6 1.87-.52c.02 0 .03 0 .04.02v.03Z" fill="#800010"/><path d="M5.93 9.02H5.9l-.02.02-.57 1.57.01.05L7.36 14l-1.3-.55a.39.39 0 0 1-.23-.18c-.6-.99-1.2-1.99-1.83-3l1.29.36c.02 0 .02 0 .01-.02L4.05 8.57c-.01-.02-.03-.03-.05-.02v-.03a.03.03 0 0 1 .01-.02.03.03 0 0 1 .03 0l1.83.47c.02 0 .03.02.06.05ZM14 8.54v1.73l-1.21.35c-.07.02-.09 0-.05-.06A281.35 281.35 0 0 1 14 8.54Z" fill="#FF596E"/><path d="M4 8.55c.02 0 .04 0 .05.02a326.18 326.18 0 0 0 1.24 2.06L4 10.27V8.55Z" fill="#800010"/><path d="m12.1 9 .58 1.61v.05L10.63 14H8.97l.02-.02A8426.19 8426.19 0 0 1 12.09 9Z" fill="#FF596E"/><path d="m5.93 9.02 3.05 4.96V14H7.35l-2.03-3.34a.06.06 0 0 1 0-.05l.56-1.57.02-.02h.02Z" fill="#800010"/></svg>