<!-- by TradingView --><svg width="18" height="18" viewBox="0 0 18 18" xmlns="http://www.w3.org/2000/svg"><path fill="#F0F3FA" d="M0 0h18v18H0z"/><path d="m13.89 6.45-.29.01c-.05-.17-.11-.3-.2-.4-.4-.46-.94-.89-1.62-1.28a.37.37 0 0 0-.22-.04.28.28 0 0 0-.2.1c-.12.15-.27.2-.46.16-.35-.08-.7-.15-1.04-.2-.1-.03-.18 0-.21.1-.02.03-.05.05-.09.05-.11 0-.24 0-.36-.02-.09-.01-.1-.04-.01-.08a.4.4 0 0 1 .26-.02h.02l.01-.04-.01-.01a.78.78 0 0 0-.45 0 .28.28 0 0 1-.13.02 3.24 3.24 0 0 0-.58-.04.44.44 0 0 0-.24.1.6.6 0 0 1-.18.1 3.88 3.88 0 0 0-.83.35l.02.04a3.69 3.69 0 0 1 1.58-.46c.05 0 .08.02.07.07v.36c0 .04-.02.05-.06.04a.48.48 0 0 0-.2 0A4.4 4.4 0 0 0 6.4 6.42c-.02.02-.02.04 0 .06l.04.01.03.8c0 .05-.02.08-.07.09a1.6 1.6 0 0 1-.49-.01c-.03-.25.01-.48.12-.7.02-.03.02-.07-.01-.1a.33.33 0 0 0-.22-.12c-.2.04-.4.04-.57 0-.05 0-.06.02-.04.06l.07.17V8.5a.35.35 0 0 1-.3-.1c-.1.1-.21.16-.33.2-.16.04-.33.06-.5.04-.05 0-.1 0-.15-.04l-.03-.02a5.47 5.47 0 0 0 0-.94c0-.1.03-.23.11-.4l.07-.16c.01-.04.04-.06.09-.05.14.01.24-.02.3-.1.08 0 .16.03.24.08.06.07.14.12.22.16.05.02.07 0 .08-.03.06-.3-.01-.5-.22-.6-.03-.09-.15-.12-.34-.08.15-.35.39-.66.7-.92.04.11.1.16.21.13a.2.2 0 0 1 .14.01c.13.07.27.04.4-.08.07-.05.06-.09-.01-.12a.3.3 0 0 1-.13-.09c-.03-.04-.03-.08 0-.11a1.9 1.9 0 0 1 .44-.29c.02 0 .03.01.03.02.02.04.05.04.08.01.12-.13.2-.27.25-.44.12-.42.38-.52.78-.28a.2.2 0 0 0 .2 0c.14-.07.29-.1.46-.1.17.05.1.1-.2.15a.32.32 0 0 0-.13.06.3.3 0 0 1-.2.06c-.06 0-.08.02-.05.07l.02.04a.1.1 0 0 1-.02.11l-.18.22a.15.15 0 0 1-.1.05c-.2.03-.33-.04-.4-.2 0-.05-.03-.05-.05 0-.02.04 0 .08.04.13.23.23.46.25.67.06l.1-.16c.04-.08.13-.13.26-.15a5.83 5.83 0 0 1 2.79.02c.13.03.2 0 .18-.13l.01-.06c.04-.09 0-.14-.1-.15l-1.82-.28c.7-.07 1.36 0 2.02.2.05.02.1.02.17 0 .24-.07.42 0 .52.2.02.05.06.08.1.1a5.67 5.67 0 0 1 2.22 1.9Z" fill="#0D0E11"/><path d="m8.86 4.04 1.83.28c.1.01.13.06.1.15-.02.02-.02.04-.02.06.01.12-.05.16-.18.13a5.83 5.83 0 0 0-2.8-.02c-.12.02-.2.07-.25.15l-.1.16c-.21.19-.44.17-.67-.06-.05-.05-.06-.09-.04-.14.02-.04.04-.04.06 0 .06.17.2.24.4.21.03 0 .06-.02.08-.05l.2-.22a.1.1 0 0 0 0-.11l-.01-.04c-.03-.05 0-.08.05-.07a.3.3 0 0 0 .2-.06.32.32 0 0 1 .12-.06c.31-.05.38-.1.21-.15l.49-.03c.08 0 .09-.03 0-.05a.1.1 0 0 1-.04-.02c-.03-.04-.03-.06.03-.08a.52.52 0 0 1 .34.02Z" fill="#4C4240"/><path d="M7.26 4.78c0 .03-.01.04-.03.06-.06.08-.13.09-.2.02-.18-.18-.17-.33.04-.47.04-.03.08-.02.1.02l.03.04c.03.04.02.07-.02.1l-.13.1c-.08.06-.07.07.02.05l.09-.03a.13.13 0 0 0 .07-.06c.02-.03.05-.04.1-.03.04.02.05.05.03.1l-.04.04a.1.1 0 0 0-.06.06Z" fill="#4A2B10"/><path d="M11.38 4.39c.02 0 .03.02.03.04l-.01.02c-.05.24-.1.35-.18.34l-.1-.02c-.07 0-.09-.13-.04-.37v-.03c0-.02.02-.02.04-.02l.26.04Z" fill="#875512"/><path d="M6.6 4.58c-.05.17-.13.31-.25.44-.03.03-.06.03-.08 0a.05.05 0 0 0-.03-.03h-.02a1.9 1.9 0 0 0-.41.29c-.04.03-.04.07 0 .11a.3.3 0 0 0 .12.1c.07.02.08.06.02.1-.14.13-.28.16-.41.1a.2.2 0 0 0-.14-.02c-.1.03-.17-.02-.21-.13.38-.39.85-.7 1.4-.96Z" fill="#4A2B10"/><path d="M13.6 6.46a.84.84 0 0 0-.35.25c-.2.28-.22.56-.07.83.02.04.05.05.08.02a.78.78 0 0 0 .19-.23.37.37 0 0 0 .19-.29c0-.07.05-.11.13-.11l.25-.02c.42-.03.74.05.95.25a.97.97 0 0 1-.35.14c-.05.01-.09 0-.12-.03l-.21-.16c-.06-.05-.08-.04-.06.03l.2.67-.38-.45c-.05-.06-.1-.07-.16-.02-.17.12-.31.27-.42.45a.19.19 0 0 0-.03.12c0 .12-.05.19-.17.2-.06 0-.08.03-.06.08.08.17.2.3.35.38-.06.1 0 .14.19.11.04 0 .05-.02.05-.06a.07.07 0 0 0-.03-.04.46.46 0 0 1 .25.02.08.08 0 0 0-.03.02v.04c.07.06.14.07.22.03.07-.05.13-.1.17-.17.07-.12.14-.17.21-.15l.22.08a2 2 0 0 1-.32.35c-.06.06-.07.13-.03.24-.1.1-.25.14-.46.13h-.15a1.6 1.6 0 0 1-.7-.11c.01.28.05.46.12.55.05.03.1.05.15.05h.85c.19.53.03.81-.47.84l-.21-.02c-.05 0-.08.02-.1.06-.1.27-.28.46-.53.6a.19.19 0 0 0-.1.1.33.33 0 0 1-.11.14.12.12 0 0 1-.15 0l-.19-.12c-.05-.03-.06-.07 0-.11.26-.22.39-.45.36-.7.26-.4.24-.75-.07-1.03-.07-.03-.08-.04-.03-.03-.13-.35-.11-.64.06-.85a1 1 0 0 0 .24-.76l-.02-.44c0-.3-.03-.55-.09-.71a.05.05 0 0 0-.02-.03.09.09 0 0 0-.05-.01l.01-.09c0-.05-.02-.07-.08-.05a.85.85 0 0 1-.42.04c-.14-.03-.16.01-.07.1.05.06.07.13.08.22l-.02.88c-.1-.03-.16-.1-.18-.23.04.01.06 0 .08-.01.02-.03.02-.06 0-.08l-.04-.04a.17.17 0 0 1-.04-.13.8.8 0 0 0-.13-.5.14.14 0 0 1 0-.17s0-.02.02-.03c.06-.04.05-.08-.02-.1a.63.63 0 0 1-.2-.17.77.77 0 0 0-.17-.15c-.67-.39-1.2-.6-1.62-.62-.03 0-.04-.01-.05-.04v-.04a.09.09 0 0 0 0-.1.48.48 0 0 1-.1-.36c0-.02 0-.03-.02-.03h-.05v.02l-.04.27c0 .04-.03.06-.07.06-.36-.03-.6-.11-.71-.26-.04-.05-.06-.04-.07.01 0 .11 0 .22.03.32 0 .04 0 .07-.05.1a.94.94 0 0 1-.54.1.2.2 0 0 0-.13.03.63.63 0 0 1-.22.07 4.6 4.6 0 0 0-1.33.67c-.07.05-.07.1.02.12.1.03.2.04.3.03.14-.01.21.05.22.18 0 .1-.06.15-.2.16-.04-.03-.06-.09-.03-.17 0-.04 0-.07-.05-.09a.33.33 0 0 0-.25.01l-.22-.04-.04-.01c-.02-.02-.02-.04 0-.06a4.4 4.4 0 0 1 2.09-1.04.48.48 0 0 1 .19 0c.04 0 .06-.01.06-.05v-.36c0-.05-.02-.07-.07-.07a3.69 3.69 0 0 0-1.58.46l-.02-.04a3.88 3.88 0 0 1 .82-.35.6.6 0 0 0 .19-.1c.09-.06.17-.1.24-.1.2 0 .4 0 .58.04l.13-.01c.15-.05.3-.05.45-.01l.01.01v.03c-.01.01-.02.02-.03.01a.4.4 0 0 0-.26.02c-.08.04-.08.07.01.08.12.02.25.03.36.02.04 0 .07-.02.09-.06.03-.08.1-.12.21-.1l1.04.2c.2.05.34 0 .46-.14.05-.07.11-.1.2-.11.09 0 .16 0 .22.04.68.4 1.22.82 1.63 1.29.08.1.14.22.2.4Z" fill="#4C4240"/><path d="M12.11 7.46a2.55 2.55 0 0 1-.55-.9l.15-.15c.05-.06.04-.1-.01-.14a3.71 3.71 0 0 0-1.68-.7c-.1-.02-.15.02-.14.1v.05c0 .4-.13.57-.43.54l-.5-.07c-.05 0-.08-.04-.1-.08l.01-.08c.01-.05.04-.06.09-.04l.04-.01c.04-.05.02-.08-.04-.08-.15 0-.21-.08-.18-.22.02-.07 0-.1-.09-.1l-.4.02c-.05 0-.1.02-.14.06-.09.07-.2.12-.35.14v.04c.02.04.04.05.08.03.19-.07.36-.03.5.15.1.12.22.23.35.32a.2.2 0 0 0 .12.03c.23 0 .4.07.55.21.02.03.05.04.09.05.03 0 .06-.01.07-.04a.13.13 0 0 1 .12-.06c.1 0 .18.06.26.17l.02 1.69c0 .03-.01.07-.03.1a.3.3 0 0 1-.04.05c-.05.04-.04.07.03.07h.49c.06 0 .08-.03.05-.08l-.05-.12a.17.17 0 0 1-.02-.08V6.71c0-.04.01-.08.04-.12l.12-.14c0-.05.04-.06.1-.06.05 0 .07.03.07.07 0 .14.06.27.18.4v1.62l-.08.12c-.04.05-.02.07.05.06.2-.04.4-.04.6-.01.07 0 .09-.02.05-.07-.1-.17-.12-.4-.03-.67.12.03.26.2.42.48.05.09.05.15 0 .2-.04.03-.03.05 0 .07a.2.2 0 0 0 .11 0l.48-.02c.05 0 .09-.03.1-.06.1-.16.15-.33.15-.52a37.94 37.94 0 0 0 .01-1.41.8.8 0 0 1 .04-.06l.05.01a2.07 2.07 0 0 1 .11.74c0 .2 0 .34.02.44a1 1 0 0 1-.24.76c-.17.21-.2.5-.06.85a1.6 1.6 0 0 0-.77-.17c-.61 0-1.06.02-1.35.06l.23.55c.03.05.06.06.11.03.36-.22.81-.26 1.37-.12.1.03.17.1.18.2.02.1-.02.17-.11.23-.13.07-.45.1-.95.06h-.2c-.06-.01-.07 0-.03.05.24.21.39.48.46.79.03.15 0 .3-.08.45a.1.1 0 0 0 .01.12c.08.1.21.14.4.1h.6c.1 0 .11-.03.03-.09a.52.52 0 0 1-.2-.23 3.73 3.73 0 0 0-.26-.6c-.03-.04-.02-.07.03-.1l.63-.26c.03.24-.1.47-.36.69-.06.04-.05.08 0 .11l.19.13c.05.03.1.03.15 0 .05-.05.09-.1.11-.16a.19.19 0 0 1 .1-.1c.25-.13.43-.32.53-.59.02-.04.05-.06.1-.06l.2.02-.06.3c-.01.07.02.09.1.05.05-.02.1-.05.13-.1l.03-.02.04.01v.04a2 2 0 0 1-.24.55 5.16 5.16 0 0 1-2.1 1.85c-.05.02-.07.06-.06.1a.2.2 0 0 1 0 .1.14.14 0 0 1-.09.1.18.18 0 0 1-.14 0c.05-.06.07-.11.06-.16 0-.06-.03-.1-.1-.1a.3.3 0 0 0-.2.04c-.08-.06-.14-.07-.2-.03a.12.12 0 0 0-.05.1v.08c0 .04-.01.07-.05.09-.63.23-1.04.29-1.24.17a.15.15 0 0 0-.07-.03H9.5a.2.2 0 0 1-.14-.03.7.7 0 0 0-.41-.11c-.03 0-.04-.01-.04-.03v-.12c0-.03.01-.04.04-.03l.44.05c.2.03.22-.02.07-.14-.1-.08-.28-.13-.55-.17a2.08 2.08 0 0 1-.4-.1l-1.17-.45a.86.86 0 0 0-.52-.04.4.4 0 0 1-.13.01l-.24-.03c-.04 0-.05-.02-.04-.05.02-.05.06-.08.11-.08.04 0 .06-.03.04-.06-.03-.07-.11-.08-.24-.03a.18.18 0 0 0-.11.12.2.2 0 0 1-.12.13c-.07.03-.1.02-.11-.05 0-.06.02-.1.09-.11.06-.01.08-.05.05-.1-.16-.35-.39-.6-.66-.73-.12-.05-.14-.03-.07.07.14.2.31.4.52.6.04.04.03.07-.03.08a.88.88 0 0 1-.77-.26 2.85 2.85 0 0 1-.6-.86l.25-.05c.05-.01.08-.04.08-.09l.01-.48c0-.06-.03-.1-.09-.11-.23-.06-.38-.03-.44.1-.13.03-.2-.04-.21-.2a1.64 1.64 0 0 0-.2-.66c-.02-.04-.05-.05-.1-.03a.2.2 0 0 1-.12.01v-.5c.45-.01.91.27 1.4.84.04.01.08.02.13.01.05 0 .08-.03.1-.06.06-.1.11-.13.16-.1l.81 1.86c.24.16.42.13.55-.09.08-.15.16-.32.23-.5.04-.11.09-.11.14 0l.3.61c.03.05.07.07.13.05.17-.03.28-.1.34-.22.19-.36.45-.94.78-1.73.05-.19.15-.35.3-.5.04-.04.03-.06-.02-.06h-.79c-.06 0-.08.02-.03.07l.06.07a.1.1 0 0 1 .03.11l-.6 1.42a2.75 2.75 0 0 1-.08-.21 1.74 1.74 0 0 0-.16-.37.19.19 0 0 1-.02-.18l.1-.23c.13-.33.26-.53.39-.61.08-.06.07-.08-.03-.07l-.26.01-.59-.01c-.1 0-.1.02-.03.08l.08.06c.04.03.05.07.03.1l-.6 1.4a.78.78 0 0 1-.11-.4.36.36 0 0 0 .02-.34c-.1-.2-.18-.42-.26-.64-.02-.07 0-.15.05-.23.04-.05.02-.07-.05-.06l-.12.02-.56.02c-.17-.02-.25 0-.22.09-.06.02-.09.03-.1.02-.1-.05-.13-.12-.1-.2.04-.12.07-.24.08-.36 0-.05.03-.09.08-.1l.11-.06.02.01.57.02c.05 0 .07-.02.06-.06l-.12-.75h.59c.03.24.02.48-.05.71-.01.06.01.09.08.08.13-.03.26-.03.4 0 .08.01.11-.01.1-.08l-.03-.1V6.76c.14 0 .2-.06.2-.16 0-.13-.08-.2-.23-.18a.7.7 0 0 1-.29-.03c-.09-.02-.1-.07-.02-.12a4.6 4.6 0 0 1 1.33-.67c.1-.02.17-.04.22-.07a.2.2 0 0 1 .13-.04c.2.02.38-.01.54-.1.04-.02.06-.05.05-.1a.81.81 0 0 1-.03-.3c0-.06.03-.07.07-.02.12.15.35.23.7.26.05 0 .08-.02.08-.06l.04-.27v-.02h.05c.02 0 .03.01.03.03-.02.13.01.25.1.35.02.04.02.08 0 .11l-.01.04c0 .03.02.04.05.04.41.03.95.23 1.62.62.05.03.1.08.17.15.07.08.14.13.2.16.07.03.08.07.02.11a.07.07 0 0 0-.03.03.14.14 0 0 0 0 .16c.11.16.16.33.14.51 0 .05.01.09.04.13l.04.04c.02.02.02.05 0 .08-.02.02-.04.02-.08.01ZM13.26 6.15c.1.09.07.13-.06.13H13a.4.4 0 0 1-.3-.12 5.1 5.1 0 0 0-.83-.66c-.05-.04-.1-.03-.12.02-.07.15-.22.2-.44.15-.04-.01-.05-.03-.03-.07l.14-.26a.1.1 0 0 0 0-.11c-.03-.04-.07-.06-.12-.06-.08 0-.08-.03-.02-.07a.91.91 0 0 1 .1-.06.2.2 0 0 1 .14-.02l.3.03c.03 0 .06.01.07.04.06.14.16.2.3.2.05-.01.08 0 .1.02l.97.84Z" fill="#0D0E11"/><path d="M9.01 5.72c-.05-.06-.06-.12 0-.2a.14.14 0 0 1 .11-.06l.45-.01c.09 0 .12.03.1.1-.01.09 0 .17.04.24.03.05.02.1 0 .15a.26.26 0 0 1-.12.1c-.05.03-.08.01-.08-.05 0-.04.01-.08.05-.1a.11.11 0 0 0 .05-.1c0-.03-.01-.05-.04-.05s-.04-.01-.04-.03c-.02-.17-.15-.21-.4-.14-.08.03-.1.08-.05.15.02.03.05.06.1.08.05.03.04.05-.02.07h-.03a.05.05 0 0 1-.04-.03.25.25 0 0 0-.08-.12Z" fill="#4C4240"/><path d="M11.56 6.56c0-.08-.13-.1-.37-.04a.44.44 0 0 0-.21-.03c-.05 0-.08.03-.07.08 0 .04.02.08.06.11a.37.37 0 0 0-.08.17.57.57 0 0 1-.18-.39c0-.04-.02-.06-.07-.07-.06 0-.1.01-.1.06-.45 0-.65.1-.6.25-.1-.11-.18-.17-.27-.17a.13.13 0 0 0-.12.06c-.01.03-.04.04-.07.04a.15.15 0 0 1-.1-.05.68.68 0 0 0-.54-.2.2.2 0 0 1-.12-.04 1.5 1.5 0 0 1-.36-.32c-.13-.18-.3-.22-.5-.15-.03.02-.05 0-.06-.03l-.01-.03V5.8a.66.66 0 0 0 .35-.14.22.22 0 0 1 .14-.06l.4-.02c.08 0 .11.03.1.1-.04.14.02.21.16.22.07 0 .09.03.05.08-.02.01-.03.02-.04.01-.05-.02-.08 0-.09.04v.08c0 .04.04.07.09.08l.5.07c.3.03.44-.14.43-.54v-.04c0-.1.04-.13.14-.12.6.1 1.16.32 1.68.7.05.05.06.1 0 .15l-.14.15Z" fill="#4C4240"/><path d="M4.83 6.54a.42.42 0 0 0 0 .27c.04.1.01.18-.08.2a.41.41 0 0 0-.23-.08l-.76-.02c-.13 0-.2.06-.2.18v.4a.14.14 0 0 1-.06-.04c-.05-.04-.08-.04-.1.01 0 .02-.02.02-.04.02-.03.01-.05 0-.04-.03.02-.28-.07-.44-.26-.48a.8.8 0 0 1 .7-.51h.73c.2-.04.3-.01.34.08ZM5.79 6.44c-.12.3-.14.6-.08.92a.5.5 0 0 0-.15.1c-.03-.01-.06.02-.08.1l-.05-.78c0-.04-.02-.07-.07-.08l-.11-.03-.08-.17c-.01-.04 0-.06.05-.05.18.03.37.03.57-.01Z" fill="#F5BC0A"/><path d="M5.9 7.36c-.08.02-.14.02-.19 0-.06-.32-.04-.63.08-.92.09 0 .16.05.22.12.03.03.03.07.01.1-.1.22-.15.45-.12.7Z" fill="#4A2B10"/><path d="m10.54 6.45-.12.14a.18.18 0 0 0-.04.12v1.62c0 .03 0 .05.02.08l.05.12c.03.05.01.08-.05.08H9.9c-.07 0-.08-.03-.03-.07a.3.3 0 0 0 .04-.05.19.19 0 0 0 .03-.1L9.93 6.7c-.04-.16.16-.24.6-.25ZM12.8 6.59a.8.8 0 0 0-.05.06l-.01.06v1.35c0 .19-.05.36-.14.52a.12.12 0 0 1-.1.06l-.49.03a.24.24 0 0 1-.03-.09c0-.02.01-.03.04-.02.05.02.07-.05.07-.2 0-.02 0-.04-.02-.06l-.52-.81c-.03-.04-.05-.04-.06 0a.69.69 0 0 0-.02.42c-.08.27-.07.5.04.67.04.05.02.08-.05.07a1.8 1.8 0 0 0-.6 0c-.07.02-.09 0-.05-.05l.08-.12c0-.04.02-.07.06-.08.04-.02.05-.05.05-.09l-.03-1.63c-.04-.03-.06-.07-.06-.1 0-.06.02-.08.07-.1.07 0 .14.01.21.04.41.63.81 1.27 1.2 1.91.01.02.03.03.05.02.02-.01.03-.02.02-.04a1.01 1.01 0 0 1-.07-.38c.14-.18.17-.42.11-.74a.11.11 0 0 0-.04-.06.06.06 0 0 0-.06-.02c-.05.01-.08 0-.08-.06l-.01-.34c0-.1-.03-.16-.08-.21-.1-.1-.07-.14.07-.11.15.02.29 0 .42-.04.06-.02.09 0 .08.05v.09ZM9.4 8.59c-.06-.11-.15-.16-.26-.14-.32.05-.56.02-.72-.1a.42.42 0 0 1-.1-.16c-.01-.07.01-.09.08-.06.11.05.24.1.37.13.02 0 .05 0 .06-.02.02-.02.02-.06.01-.11.05-.01.1-.04.13-.07a.1.1 0 0 0 .02-.11l-.24-.67c-.02-.04-.05-.06-.1-.07-.04-.01-.1 0-.16.05-.02-.02-.04-.02-.06-.01a11 11 0 0 1-.45 1.07.16.16 0 0 0-.01.13c.01.04.04.08.07.12.06.06.04.09-.05.09l-.73-.01c-.06 0-.07-.03-.03-.07l.26-.26a.17.17 0 0 0 .05-.1c0-.12.05-.22.12-.31.01.04.04.07.1.08.04 0 .08-.01.1-.05.22-.31.24-.55.1-.71l.17-.48a.17.17 0 0 0-.02-.17c-.07-.09-.05-.12.07-.08.22.07.43.06.64-.02.06-.02.07 0 .04.04-.09.13-.1.28-.02.44.2.43.39.87.55 1.3.04.1.11.19.22.27.06.04.05.07-.03.07L9.4 8.6Z" fill="#F8D142"/><path d="m13.6 6.46.29-.01.83.01c.05 0 .07.02.09.06l.16.64c-.21-.2-.53-.28-.95-.25l-.25.02c-.08 0-.12.04-.13.11a.37.37 0 0 1-.2.3c-.11-.12-.13-.28-.05-.5.03-.08-.02-.13-.14-.13.08-.1.2-.18.35-.25Z" fill="#F5BC0A"/><path d="m6.43 6.48.22.04.12 1.02c.02.1.01.24-.01.4-.03.14-.03.28 0 .42 0 .04.03.07.08.07l.14.01.02.1c.02.08 0 .1-.08.09a1.08 1.08 0 0 0-.4 0c-.08 0-.1-.02-.09-.08.07-.23.08-.47.05-.72l.12-.2c.02-.05 0-.07-.05-.07h-.84c-.12 0-.17-.04-.15-.1a.5.5 0 0 1 .15-.1c.05.02.11.02.2 0 .15.03.31.03.48 0 .05 0 .07-.03.07-.07l-.03-.8Z" fill="#FBDE69"/><path d="M11.56 6.56c.1.32.29.62.55.9.02.12.08.2.18.23 0 .1.03.22.1.34 0 .13.02.25.07.38.01.02 0 .03-.02.04-.02 0-.04 0-.05-.02-.39-.64-.79-1.28-1.2-1.91.24-.06.36-.04.37.04Z" fill="#C6731B"/><path d="M6.65 6.52a.33.33 0 0 1 .25 0c.04.01.06.04.05.08-.03.08-.01.14.03.17v1.67l-.14-.01c-.05 0-.08-.03-.09-.07a1.33 1.33 0 0 1 0-.42c.03-.16.04-.3.02-.4l-.12-1.02Z" fill="#CB9C5B"/><path d="M4.83 6.54c.2.1.28.3.22.6 0 .04-.03.05-.08.03a.77.77 0 0 1-.22-.16c.1-.02.12-.1.09-.2a.42.42 0 0 1 0-.27Z" fill="#4A2B10"/><path d="m5.25 6.67.11.03c.05.01.07.04.07.08l.05.78c-.01.11.06.2.21.27-.04.24-.03.47.05.69.01.03 0 .06-.04.07h-.05l-.1-.02c-.05-.03-.11 0-.17.06h-.02l-.08-.02c-.04-.01-.06-.03-.06-.06s0-.05.02-.05l.01-1.83Z" fill="#F8D142"/><path d="M13.25 6.7c.12.01.17.06.14.14-.08.22-.06.38.06.5a.78.78 0 0 1-.19.22c-.03.03-.06.02-.08-.02-.15-.27-.13-.55.07-.83Z" fill="#FBDE69"/><path d="M9.19 6.88c-.01 0-.02 0-.02-.02.04-.12.15-.15.32-.11l.05.01c.17.04.24.12.2.23V7c0 .01 0 .02-.02.02l-.53-.14Z" fill="#4C4240"/><path d="M12.31 6.8v.35c0 .05.04.07.1.06.02 0 .04 0 .05.02.02.01.04.04.04.06.06.32.03.56-.11.74a.73.73 0 0 1-.1-.34l.02-.88Z" fill="#FBDE69"/><path d="M4.52 6.93c-.07.08-.17.11-.31.1-.05 0-.08 0-.1.05 0 .04-.03.09-.06.16a.89.89 0 0 0-.1.4 5.47 5.47 0 0 1-.01.94l.03.02c-.1.03-.21.03-.35 0l-.06-1.1v-.42c0-.11.07-.17.2-.17l.76.02Z" fill="#4A2B10"/><path d="M3.06 6.97c.2.04.28.2.26.48 0 .03 0 .04.04.03.02 0 .03 0 .03-.02.03-.05.06-.05.11 0l.06.03.06 1.12c.2.1.37.1.5.03.17.02.34 0 .5-.04.06.04.06.1 0 .2a.15.15 0 0 0-.04.11c.02.11.1.22.2.33.14.19.24.42.31.7-.49-.56-.95-.84-1.4-.83-.4-.07-.64-.29-.67-.66-.03-.28-.02-.78.04-1.48ZM8.84 8.13l-.34-.87a.22.22 0 0 1 .16-.05c.04 0 .07.03.09.07l.24.67a.1.1 0 0 1-.02.11.26.26 0 0 1-.13.07ZM7.96 7.23c.14.16.11.4-.1.7-.02.05-.06.06-.1.06-.06-.01-.09-.04-.1-.08l.3-.68Z" fill="#FBDE69"/><path d="M14.43 7.8c0 .06 0 .1-.03.13a.53.53 0 0 0-.25-.01c-.06 0-.1-.02-.12-.07-.04-.1-.12-.11-.23-.05-.06.04-.09.09-.08.15 0 .07.04.11.1.14l.27.1.1.08c.03.08.05.17.05.25a.5.5 0 0 1-.22.08.46.46 0 0 0-.25-.02.42.42 0 0 1-.21-.01.79.79 0 0 1-.35-.38c-.02-.05 0-.08.06-.08.12-.01.18-.08.17-.2 0-.04 0-.08.03-.12.11-.18.25-.33.42-.45.06-.05.11-.04.16.02l.38.45Z" fill="#015578"/><path d="M5.56 7.45c-.02.07.03.1.15.11h.84c.06 0 .07.02.05.06l-.12.21h-.6c-.08-.03-.15-.03-.19 0-.15-.07-.22-.16-.21-.27.02-.07.05-.11.08-.1Z" fill="#C6731B"/><path d="M12.01 8.67a.2.2 0 0 1-.1 0c-.04-.03-.05-.05-.02-.08.06-.05.06-.11 0-.2-.15-.29-.3-.45-.42-.48a.69.69 0 0 1 .02-.41c0-.05.03-.05.06 0l.52.8.02.06c0 .15-.02.22-.07.2-.03-.01-.04 0-.04.02l.03.09Z" fill="#4A2B10"/><path d="M14.4 7.93c.18.16.25.3.19.44-.07-.02-.14.03-.21.15a.27.27 0 0 1-.14 0 .48.48 0 0 0-.06-.25.17.17 0 0 0-.09-.08l-.27-.1c-.06-.03-.1-.07-.1-.14 0-.06.02-.11.08-.15.11-.06.19-.04.23.05.02.05.06.08.12.07.11-.02.2-.01.25 0Z" fill="#0493B4"/><path d="m5.89 7.84.12.75c0 .04-.02.06-.06.06l-.57-.02c.06-.06.12-.09.18-.06l.1.03h.04c.04-.02.05-.05.04-.08-.08-.22-.1-.45-.05-.7.04-.02.1-.02.2.02Z" fill="#4A2B10"/><path d="M8.42 8.35c.16.12.4.15.72.1.1-.02.2.03.26.14l-.9.02c-.05 0-.09-.02-.1-.07-.03-.05-.02-.12.02-.2Z" fill="#C6731B"/><path d="m4.96 8.4-.17.84a.64.64 0 0 1-.2-.33c-.01-.04 0-.08.02-.12.07-.08.07-.15.02-.19.1-.04.22-.1.33-.2Z" fill="#CB9C5B"/><path d="M4.96 8.4c.09.08.18.11.28.1-.02 0-.03.02-.02.05 0 .03.02.05.06.06l.08.01-.11.05c-.05.02-.08.06-.08.1-.01.13-.04.25-.08.36-.03.1 0 .16.1.21l.1-.02.2.47c-.06-.02-.11.02-.17.1a.13.13 0 0 1-.1.07l-.13-.01a2.21 2.21 0 0 0-.3-.7l.17-.85Z" fill="#4A2B10"/><path d="m14.8 8.45.04-.02c.02 0 .03.01.04.03.22.45.14.82-.24 1.1l-.37.1h-.85a.23.23 0 0 1-.15-.05l.13-.15.94-.02c.17 0 .25-.08.23-.24a.2.2 0 0 0-.11-.16c-.04-.1-.03-.18.03-.24.15-.14.26-.26.32-.35Z" fill="#FBDE69"/><path d="M14.24 8.52c.03.01.08.01.14 0a.41.41 0 0 1-.17.17c-.08.04-.15.03-.22-.03v-.04l.03-.02a.5.5 0 0 0 .22-.08ZM13.56 8.57c.08.02.15.02.2.01l.04.04c0 .04-.01.06-.05.06-.18.03-.25 0-.19-.11Z" fill="#BF854C"/><path d="M14.46 9.04c.07.03.1.1.11.16.02.16-.06.23-.23.24l-.94.02-.24-.4c.24.09.47.13.69.11H14c.2 0 .36-.04.46-.13Z" fill="#F8D142"/><path d="m13.16 9.06.24.4-.13.15c-.07-.09-.1-.27-.11-.55ZM6.07 9.21c-.13.33-.01.75.36 1.26 0 .13.04.27.12.4l-.03.48a.18.18 0 0 1-.04.04c-.04.02-.06 0-.07-.03-.03-.2-.1-.39-.21-.58a1.81 1.81 0 0 1-.19-.42 4.3 4.3 0 0 0-.33-.83.22.22 0 0 1-.03-.12c0-.02.01-.03.03-.04.06-.06.05-.09-.04-.1a.26.26 0 0 1-.14-.04l.57-.02Z" fill="#CB9C5B"/><path d="M6.43 10.47c-.37-.51-.5-.93-.36-1.26l.12-.02c.07 0 .09.01.05.06-.06.08-.07.16-.05.23.08.22.16.43.26.64.05.12.04.23-.02.35Z" fill="#4A2B10"/><path d="M7.65 9.23c-.06.14-.14.27-.24.39a.82.82 0 0 0-.16.27l-.1.3-.58 1.2-.05-.04.03-.49.59-1.4c.02-.04 0-.07-.03-.1l-.08-.06c-.07-.06-.06-.08.03-.08l.59.01ZM8.75 9.78c-.04.01-.09 0-.13-.03a.12.12 0 0 0-.13-.01c-.06.02-.08.07-.08.13 0 .05 0 .1-.02.14l-.63 1.37-.02.01H7.7c-.03 0-.04 0-.03-.04.05-.15.07-.3.05-.46l.6-1.42a.1.1 0 0 0-.03-.1l-.06-.08c-.05-.05-.04-.07.03-.07h.79c.05 0 .06.02.02.06a1.1 1.1 0 0 0-.3.5Z" fill="#FBDE69"/><path d="M5.5 9.23c.05.03.1.05.14.05.09 0 .1.03.04.09a.07.07 0 0 0-.03.04l.03.12c.14.26.25.54.33.83.05.15.1.3.19.42.1.19.18.38.21.58 0 .04.03.05.07.03l.04-.04.05.04c-.08.19-.17.28-.28.27l-.8-1.87-.2-.47c-.03-.09.05-.11.21-.09Z" fill="#F8D142"/><path d="m7.65 9.23.26-.01c.1-.01.1.01.03.07-.13.08-.26.28-.39.6l-.1.24-.08.1c-.03.02-.07.03-.1.01l-.12-.05.1-.3a.82.82 0 0 1 .16-.27c.1-.12.18-.25.24-.39Z" fill="#CB9C5B"/><path d="M10.22 9.7c-.1 0-.16.03-.18.12 0 .04 0 .1.03.16.16.38.3.77.43 1.17a.58.58 0 0 0-.25 0l-.46-1.07a.43.43 0 0 1-.03-.34l-.01-.04-.04-.01h-.04a55 55 0 0 0-.78 1.71c-.13.16-.22.18-.28.04l.84-1.95c.02-.05.01-.1-.03-.13l-.06-.06c-.06-.06-.04-.08.04-.07.28.04.55.03.8 0 .1-.02.11 0 .05.07l-.1.1c-.03.04-.03.07-.02.1l.09.2Z" fill="#FBDE69"/><path d="M10.55 9.28c.5.16.99.22 1.5.17.05 0 .1-.02.13-.05l.04-.03c.03-.02.05-.02.07.01.06.1.14.15.27.17.24.44.14.73-.3.88a1.26 1.26 0 0 1-.48.04c-.05 0-.07.02-.05.07l.29.76.03.06c.03.03.04.07.04.1 0 .05-.01.08-.06.1-.12.07-.2.08-.24.02.07-.16.02-.33-.18-.51a1.51 1.51 0 0 0-.46-.79c-.04-.04-.03-.06.03-.06l.2.01c.5.03.82 0 .95-.06.1-.06.13-.14.11-.24-.01-.1-.07-.16-.18-.19-.56-.14-1.01-.1-1.37.12-.05.03-.08.02-.1-.03l-.24-.55Z" fill="#F8D142"/><path d="M12.7 9.42c.3.28.33.62.07 1.04l-.63.27c-.05.02-.06.05-.03.1.11.2.2.4.27.59.03.08.1.16.19.23.08.06.07.09-.04.09h-.6l-.17-.05c-.03-.01-.04-.03-.01-.06a.18.18 0 0 0 .04-.05c.04.06.12.05.24-.02.05-.02.07-.05.06-.1a.16.16 0 0 0-.04-.1.28.28 0 0 1-.03-.06l-.3-.76c-.01-.05 0-.07.06-.07h.05c.2.01.34 0 .44-.04.43-.15.53-.44.29-.88.04 0 .09-.04.14-.13Z" fill="#BF854C"/><path d="M4.32 10.48v.35c-.02.15.05.25.19.3.14.32.35.6.6.85.22.21.47.3.77.26.06-.01.07-.04.03-.08-.2-.2-.38-.4-.52-.6-.07-.1-.05-.12.07-.07.27.14.5.38.66.73.03.05.01.09-.05.1-.07.01-.1.05-.1.1.02.08.05.1.12.06a.2.2 0 0 0 .12-.13c.01-.05.05-.1.11-.12.13-.05.2-.04.24.03.02.03 0 .05-.04.06-.05 0-.09.03-.1.08-.02.03 0 .05.03.05l.24.03h.13a.86.86 0 0 1 .52.03l1.17.45c.08.04.21.07.4.1.27.04.45.1.55.17.15.12.13.17-.07.14l-.44-.05c-.03 0-.04 0-.04.03v.12c0 .02.01.03.04.03a.7.7 0 0 1 .4.11c.05.03.1.04.15.04h.05c.02 0 .05 0 .07.02.2.12.61.06 1.23-.17.05-.02.07-.05.06-.09v-.09c0-.04.02-.07.05-.1.06-.03.12-.02.2.04-.03.1 0 .17.07.2.02.02.08.02.17.02.05.01.1.01.14 0a.14.14 0 0 0 .09-.1.2.2 0 0 0 0-.1c0-.04.01-.08.06-.1a5.16 5.16 0 0 0 2.1-1.85 2 2 0 0 0 .24-.55v-.04h-.04l-.03.01a.37.37 0 0 1-.14.1c-.07.04-.1.02-.09-.06l.07-.3c.5-.02.66-.3.47-.83l.38-.1a5.2 5.2 0 0 1-2.72 3.78c-.2.1-.36.23-.5.4a.22.22 0 0 1-.1.06.31.31 0 0 1-.27-.03.18.18 0 0 0-.15-.02c-1.15.33-2.3.33-3.44.02a.27.27 0 0 0-.15 0 .82.82 0 0 1-.54-.06.17.17 0 0 1-.1-.11.34.34 0 0 0-.17-.21A5.05 5.05 0 0 1 3.69 9.6a.2.2 0 0 0 .13-.01c.04-.02.07 0 .1.03.1.2.17.43.19.65.01.17.08.24.21.2Z" fill="#24262D"/><path d="m9.8 10.08-.6 1.3a.11.11 0 0 0 .01.12l.12.17c.03.05.02.07-.05.07h-.81c-.17 0-.18-.05-.04-.14l.18-.16c.06.14.15.12.28-.04a54.96 54.96 0 0 1 .78-1.7c0-.02.02-.02.04-.01l.04.01c.01.01.02.02.01.04a.43.43 0 0 0 .03.34Z" fill="#BF854C"/><path d="M8.76 9.78c-.33.8-.6 1.37-.78 1.73-.06.11-.17.19-.34.22-.06.02-.1 0-.13-.05l-.3-.62c-.05-.1-.1-.1-.14 0-.07.19-.15.36-.24.51-.12.22-.3.25-.54.09.1 0 .2-.08.28-.27l.58-1.2.11.05c.04.02.08.01.1-.02l.08-.09a.19.19 0 0 0 .03.18c.05.08.1.2.16.37l.08.21c.02.16 0 .31-.05.46 0 .03 0 .04.04.04h.04l.02-.01.63-1.37c.02-.04.03-.1.02-.14 0-.06.02-.1.08-.13a.12.12 0 0 1 .13.01c.04.03.09.04.14.03ZM10.22 9.7l.72 1.75c.02.04.05.07.09.09.06.02.11.05.16.1.04.05.03.08-.04.08h-1.3c-.07 0-.12-.03-.14-.1l-.12-.54c-.01-.07.01-.09.08-.04l.2.16c-.1.07-.08.15.05.23.08.05.23.08.46.07h.19c.06.01.08-.02.07-.07a.54.54 0 0 0-.14-.28c-.13-.4-.27-.79-.43-1.17a.28.28 0 0 1-.03-.16c.02-.09.08-.12.18-.11ZM4.5 11.12c-.13-.04-.2-.14-.19-.29l.01-.35c.06-.12.2-.15.44-.1.06.02.1.06.1.12l-.02.48c0 .05-.03.08-.08.1l-.25.04Z" fill="#C6731B"/><path d="m5.18 10.6.15.06c.11.05.12.1 0 .16a.3.3 0 0 0-.18.27c0 .02-.02.03-.04.03h-.05c-.07-.01-.1-.05-.1-.12l.04-.58c0-.04.03-.07.07-.07.12 0 .23 0 .34.03.08.02.08.05.02.09a.5.5 0 0 1-.24.05c-.11.01-.12.03-.01.08Z" fill="#875512"/><path d="M4.58 10.95c-.07-.07-.1-.2-.08-.38 0-.04.03-.06.06-.07l.05-.01c.04 0 .06.01.07.05.03.13.03.26-.01.39-.02.06-.05.06-.1.02Z" fill="#0D0E11"/><path d="M11.61 11.07c.2.18.25.35.18.51l-.04.05c-.03.03-.02.05.01.06l.18.04c-.19.05-.32.01-.4-.1a.1.1 0 0 1 0-.1c.07-.16.1-.3.07-.46Z" fill="#4A2B10"/><path d="M10.25 11.15a.58.58 0 0 1 .25 0c.08.09.13.18.14.28.01.05-.01.08-.07.08a2 2 0 0 0-.2 0c-.22 0-.37-.03-.45-.08-.13-.08-.15-.16-.05-.23a.7.7 0 0 0 .38.04c.04 0 .05-.03.03-.06a.08.08 0 0 0-.03-.03Z" fill="#F5BC0A"/><path d="M8.2 12.35c.2.03.37.08.52.15.18.08.17.11-.02.1a3.44 3.44 0 0 1-1.84-.63c-.02-.01-.02-.02-.01-.04l.02-.03h.02c.45.23.9.38 1.32.45ZM10.8 12.3c.08.03.15.02.21 0l.28-.16c.29-.18.53-.25.73-.19.02 0 .03.02.02.04l-.01.03c0 .02-.02.02-.03.02-.13-.06-.22-.02-.26.1 0 .04 0 .07.04.1.09.06.16.14.2.23.04.08.03.1-.04.03a4.14 4.14 0 0 1-.26-.28c-.03-.04-.08-.05-.13-.03l-.8.32c-.05.02-.06 0-.04-.03l.1-.18Z" fill="#24262D"/><path d="m10.8 12.3-1 .26c-.02 0-.04 0-.05-.02l-.02-.04c0-.01 0-.02.02-.03.1-.04.24-.09.44-.13l.4-.12.64-.27c.07-.03.1-.01.05.06-.05.08-.14.13-.28.16-.11.02-.18.06-.2.13Z" fill="#24262D"/><path d="M7.1 13.34c-.08 0-.13-.03-.17-.08-.03-.04-.01-.07.05-.07.17 0 .29.07.37.2.04.07.02.09-.06.04l-.16-.08a.08.08 0 0 0-.03-.01ZM11.4 13.48c-.09 0-.15 0-.17-.02-.07-.03-.1-.1-.08-.2a.3.3 0 0 1 .2-.04c.08 0 .11.04.11.1 0 .05-.01.1-.06.16Z" fill="#875512"/></svg>