<!-- by TradingView --><svg width="18" height="18" viewBox="0 0 18 18" xmlns="http://www.w3.org/2000/svg"><path fill="url(#aspebargg)" d="M0 0h18v18H0z"/><path d="M12.74 9.15v-.01c.32-.3.35-.77.06-1.1L9.4 4.18a.55.55 0 0 0-.81 0L5.2 8.08c-.29.32-.26.8.06 1.1A.9.9 0 0 0 6.5 9.1l2-2.34c.26-.28.71-.28.96 0l2.01 2.32a.9.9 0 0 0 1.26.06Z" fill="url(#bspebargg)"/><path d="M12.76 12.63h.01c.3-.34.3-.84 0-1.17L9.22 7.4a.3.3 0 0 0-.45 0l-3.55 4.12c-.3.34-.3.83 0 1.17a.99.99 0 0 0 1.44.01l1.98-2.13c.19-.2.53-.2.72 0l1.98 2.09a.99.99 0 0 0 1.42-.03Z" fill="url(#cspebargg)"/><defs><linearGradient id="aspebargg" x1="3.35" y1="3.12" x2="21.9" y2="24.43" gradientUnits="userSpaceOnUse"><stop stop-color="#1A1E21"/><stop offset="1" stop-color="#06060A"/></linearGradient><linearGradient id="bspebargg" x1="9" y1="4" x2="9" y2="8.76" gradientUnits="userSpaceOnUse"><stop stop-color="#FB4459"/><stop offset="1" stop-color="#B60843"/></linearGradient><linearGradient id="cspebargg" x1="9" y1="7.3" x2="9" y2="13" gradientUnits="userSpaceOnUse"><stop stop-color="#843BD2"/><stop offset="1" stop-color="#3414FC"/></linearGradient></defs></svg>