<!-- by TradingView --><svg width="18" height="18" viewBox="0 0 18 18" xmlns="http://www.w3.org/2000/svg"><path fill="url(#ayyvexhyo)" d="M0 0h18v18H0z"/><path d="m7.88 5.4-.44.07a12.96 12.96 0 0 0-1.92-1.05c-.03 0-.06 0-.08.02a.1.1 0 0 0-.04.07c-.1.77-.12 1.52-.03 2.27l.16.7-.18.18a.1.1 0 0 0-.07.04c-.06.01-.1.04-.1.08-.02.03-.04.03-.07.01-.16-.01-.33.07-.32.26a2.68 2.68 0 0 1 0 .45v.03c.04.03.09.04.16.03.04.28.05.57 0 .87l-.51.15c-.03 0-.04 0-.04-.03a6.55 6.55 0 0 1 .7-2.35c0-.02.01-.05 0-.07a8.14 8.14 0 0 1 .06-3.01.15.15 0 0 1 .08-.1.16.16 0 0 1 .12-.01c.12.03.24.08.37.13.74.33 1.46.75 2.15 1.26ZM12.95 9.39v-.8c.17-.04.23-.24.18-.59a.2.2 0 0 0-.12-.16 1.4 1.4 0 0 0-.24-.08h-.03a.36.36 0 0 0-.11-.07l-.08-.1c.02-.18.08-.3.17-.38a.06.06 0 0 0 .03-.06c0-.1-.06-.2-.15-.29a9.04 9.04 0 0 0-.06-2.37.12.12 0 0 0-.14-.04c-.66.31-1.28.65-1.86 1.03l-.44-.1c.49-.36.98-.67 1.5-.95A5.86 5.86 0 0 1 12.64 4a.15.15 0 0 1 .13.1c.05.17.1.33.11.5.12.9.1 1.75-.05 2.58 0 .03 0 .05.02.08.38.65.6 1.38.65 2.22 0 .02-.01.03-.04.03l-.52-.12Z" fill="#FCAF1E"/><path d="M7.44 5.47a3 3 0 0 0-.8.28c-.44.22-.77.45-.98.7-.15.17-.24.28-.3.33-.08-.75-.07-1.5.04-2.27a.1.1 0 0 1 .04-.07.11.11 0 0 1 .08-.02c.06 0 .12.03.2.07.6.28 1.16.6 1.72.98ZM12.6 6.86l-.46-.53a3.69 3.69 0 0 0-1.6-.85 14.8 14.8 0 0 1 1.9-1.04.12.12 0 0 1 .12.1c.14.75.1 1.55.04 2.32Z" fill="#C27627"/><path d="m10.1 5.37.44.1c.59.15 1.12.43 1.6.86a6.53 6.53 0 0 0-.95-.32.83.83 0 0 0-.4-.01.06.06 0 0 0-.04.03l-.01.02v.03l.43.93c-.05.04-.05.08 0 .14a.8.8 0 0 0 .13.1c-.19.05-.38.05-.57.01l-.3-.01c.02-.22.02-.36-.01-.44a3.27 3.27 0 0 0-.37-.6.82.82 0 0 0-.7-.36 11.4 11.4 0 0 0-1.18.01c-.16.01-.32.04-.48.1-.1.03-.17.1-.2.24-.07.4-.08.75-.04 1.05l-.57.05c-.03 0-.04.02-.04.05l.06.35-.02.87v.07c.02.06.03.11.03.17v.82c0 .1-.05.22 0 .33 0 .02 0 .05-.02.07a.12.12 0 0 1-.05.04v.04c.03 0 .05.02.05.05v.65c0 .03-.01.04-.04.05l-.08.04-.28-.06.06-2c0-.03-.02-.05-.06-.06a.2.2 0 0 0-.09.01c-.03 0-.05 0-.05-.04A3.2 3.2 0 0 1 6.3 8c.02-.14-.03-.22-.14-.24a.06.06 0 0 1-.05-.04.48.48 0 0 1 0-.29l.24-.05c.18-.04.3-.12.44-.23a.09.09 0 0 0 .02-.12.09.09 0 0 0-.04-.02.53.53 0 0 0-.48 0l.34-1.26a3 3 0 0 1 .8-.28l.44-.07a15.28 15.28 0 0 1 2.19 0 .14.14 0 0 0 .03-.03Z" fill="#FFDE41"/><path d="M6.64 5.75 6.3 7.01c-.32.1-.57.25-.77.46l-.17-.7c.06-.04.15-.15.3-.32.2-.25.54-.48.98-.7Z" fill="#FDC90E"/><path d="m10.43 7.25-.24.01a.23.23 0 0 0-.14-.05c-.76-.02-1.52-.02-2.27 0a.2.2 0 0 0-.1.04h-.23A3.5 3.5 0 0 1 7.5 6.2c.03-.13.1-.21.2-.25.16-.05.32-.08.48-.09.34-.02.73-.03 1.17-.01.32.01.52.11.7.37.2.26.33.46.38.59.03.08.03.22 0 .44Z" fill="#FFF073"/><path d="m12.14 6.33.46.53c.1.09.14.19.15.3 0 .02 0 .04-.03.05-.09.07-.15.2-.17.37-.3-.33-.9-.74-1.38-.57l-.42-.93a.06.06 0 0 1 .01-.07l.02-.01a.83.83 0 0 1 .41 0c.31.08.63.19.95.33Z" fill="#FDC90E"/><path d="M6.12 7.43c-.1.01-.2.04-.28.08a.58.58 0 0 0-.2.05l-.29.1.18-.19c.2-.2.45-.36.77-.46.15-.07.31-.08.48 0a.09.09 0 0 1 .05.06.08.08 0 0 1-.03.08.95.95 0 0 1-.44.23l-.24.05ZM12.55 7.58l.08.11c-.02.02-.04.02-.08 0-.1-.1-.25-.13-.35-.16a.9.9 0 0 0-.2-.04l-.23-.06a.46.46 0 0 0-.16-.03.86.86 0 0 1-.3-.15.8.8 0 0 1-.15-.1c-.04-.06-.04-.1 0-.14.5-.17 1.09.24 1.4.57Z" fill="#343228"/><path d="m10.19 7.26-.08.36-.05.05-.24.02H7.9c-.05 0-.08 0-.1-.03a.74.74 0 0 1-.08-.1.8.8 0 0 0-.05-.31.2.2 0 0 1 .1-.04c.76-.02 1.52-.02 2.28 0 .05 0 .1.02.14.05Z" fill="#FE0246"/><path d="M7.45 7.25h.22a.8.8 0 0 1 .05.32c-.08.2-.12.42-.1.63a.08.08 0 0 1-.1.08c-.07 0-.1.02-.1.1-.01.13-.04.37.09.46a.11.11 0 0 1 .05.1l.02 1.58c0 .03 0 .05-.02.06a.45.45 0 0 1-.18.13.23.23 0 0 1-.03-.1c-.02-.5-.03-1-.01-1.47 0-.11-.01-.22-.04-.33-.05-.2-.05-.4 0-.58.06-.17.04-.34.04-.52 0-.03-.02-.04-.04-.05a.74.74 0 0 0-.4.04l-.06-.35c0-.03.01-.04.04-.05l.57-.05Z" fill="#F88E05"/><path d="m10.43 7.25.3.01-.02.34c0 .02-.02.04-.04.04h-.28l-.28-.02.08-.36.24-.01Z" fill="#F76D04"/><path d="M11.3 7.25c.1.07.2.12.3.15.06.1.07.2.05.32 0 .02-.03.04-.07.04l-.19-.03-.47-.06c-.03 0-.05.01-.04.04.04.16.05.31.02.46l.01.08c.08.19.07.37-.03.55a.13.13 0 0 0-.02.07l.04 1.97a.73.73 0 0 1-.43-.2V9.08c0-.12.01-.23.04-.33.03-.12.04-.25.03-.38 0-.07-.04-.1-.09-.15a.1.1 0 0 1-.03-.07l-.03-.5h.28c.02 0 .03-.02.04-.04l.02-.34c.19.04.38.04.57 0Z" fill="#FCAF1E"/><path d="M11.6 7.4c.07 0 .12.01.17.03 0 .15 0 .3-.02.44-.03.18-.04.32-.04.43 0 .63-.02 1.25-.06 1.88 0 .08.01.27.06.57l-.18.08h-.04c0-.3-.01-.58-.03-.88 0-.12 0-.23.02-.35.03-.16.04-.28.04-.35.01-.5.03-1 .06-1.49.04 0 .06-.02.07-.04a.5.5 0 0 0-.04-.32Z" fill="#D3D743"/><path d="M6.12 7.43c-.03.1-.03.2 0 .3 0 .02.02.03.05.03.11.02.16.1.15.24-.02.2-.01.45.03.75 0 .04.02.05.05.04a.2.2 0 0 1 .1 0c.03 0 .05.02.05.05l-.06 2-.26-.07-.14-.08c0-.02 0-.04-.02-.05a.11.11 0 0 1-.03-.06c-.05-.2-.07-.4-.08-.6 0-.16.08-.22.18-.3a.01.01 0 0 0 0-.03h-.01c-.07.05-.13.06-.19.04a.07.07 0 0 1-.03-.06c-.02-.31-.05-.62-.1-.94 0-.1.02-.16.1-.22a.07.07 0 0 0 .03-.07l-.05-.48c0-.01 0-.03-.02-.05a.39.39 0 0 1-.03-.36.68.68 0 0 1 .28-.08Z" fill="#E8DA26"/><path d="m11.77 7.43.24.06c0 .4-.02.79-.06 1.18-.02.09-.01.24 0 .45.03.27 0 .8-.07 1.6l-.11.02h-.06a3.7 3.7 0 0 1-.06-.56c.04-.63.06-1.25.06-1.88 0-.1.01-.25.04-.43.02-.15.03-.3.02-.44Z" fill="#BDD467"/><path d="M12 7.49a.9.9 0 0 1 .2.04c.1.03.26.06.35.16-.04.1-.06.2-.05.31.05.65.06 1.3.02 1.94-.02.23-.02.37 0 .44l-.64.33a10.33 10.33 0 0 0 .07-2.04c.04-.39.06-.78.06-1.18Z" fill="#89BE9B"/><path d="M5.84 7.51a.39.39 0 0 0 .03.36l.02.05.05.48c0 .03 0 .06-.03.07-.08.06-.1.12-.1.22.05.32.08.63.1.94l.03.06c.06.02.12.01.19-.03a.01.01 0 0 1 .01 0 .01.01 0 0 1 0 .02c-.1.08-.18.14-.18.3 0 .2.03.4.08.6l.03.06c.02.01.03.03.02.05l-.46-.23a20.49 20.49 0 0 0-.01-.59 4.7 4.7 0 0 1-.02-.82l.02-.74c0-.25 0-.5.03-.75a.58.58 0 0 1 .2-.05Z" fill="#D3D743"/><path d="m5.65 7.56-.03.75-.02.74c-.02.28-.01.55.02.82a20.45 20.45 0 0 1 0 .6l-.14-.06c0-.14 0-.27-.04-.4a1.14 1.14 0 0 1-.03-.33 5.75 5.75 0 0 0 0-.63 91.24 91.24 0 0 0 0-1.32c0-.02-.01-.03-.04-.04h-.1a.1.1 0 0 1 .08-.03l.3-.1Z" fill="#BDD467"/><path d="m7.72 7.57.08.09c.02.02.05.03.1.03a105.15 105.15 0 0 1 2.16-.02l.03 1.24a.05.05 0 0 1-.06.06c-.03 0-.05 0-.06.03a.06.06 0 0 0-.02.05c.03.26.02.52-.05.77l-.24-.46-.01-.02-.11-.11a.04.04 0 0 1 .02-.07l.1-.03c.04-.01.05-.04.02-.07a3.9 3.9 0 0 1-.18-.3.62.62 0 0 0-1.04-.07 2.9 2.9 0 0 0-.22.38c-.02.03-.01.05.02.06l.07.04c.03.01.04.03.02.06l-.46.9c-.04.11-.1.23-.17.35-.04.09-.12.17-.22.26l-.24.24-.45-.07c.2-.02.4-.1.57-.2a.45.45 0 0 0 .18-.13.09.09 0 0 0 .02-.06l-.03-1.59a.11.11 0 0 0-.04-.09c-.13-.09-.1-.33-.1-.47 0-.07.04-.1.12-.09a.08.08 0 0 0 .09-.08c-.02-.21.02-.42.1-.63Z" fill="#F76D04"/><path d="m10.11 7.62.28.02.03.5c0 .03.01.05.03.07.05.05.09.08.1.15 0 .13 0 .26-.04.38-.03.1-.04.21-.04.33v1.58a.32.32 0 0 1-.19-.15 3.48 3.48 0 0 1-.22-.41l-.16-.27c.07-.25.08-.5.05-.77 0-.02 0-.04.02-.05a.09.09 0 0 1 .06-.03.05.05 0 0 0 .05-.04v-.02l-.02-1.24.05-.05Z" fill="#F88E05"/><path d="M7.38 10.7c-.18.12-.37.19-.57.21l-.04-.01.08-.04a.06.06 0 0 0 .04-.05v-.65c0-.03-.02-.04-.04-.05-.01 0-.02 0-.02-.02v-.02a.12.12 0 0 0 .06-.04.08.08 0 0 0 .01-.07c-.04-.11 0-.22 0-.33l.01-.82c0-.06 0-.11-.02-.17a.2.2 0 0 1-.01-.07l.02-.87a.74.74 0 0 1 .4-.04c.02 0 .04.02.04.05 0 .18.02.35-.03.52-.06.18-.06.38 0 .58.02.1.03.22.03.33-.02.48-.01.97 0 1.48l.04.09Z" fill="#FCAF1E"/><path d="M11.4 7.73c.02.21 0 .42-.08.61-.03.06-.02.18.02.36.03.11.04.23.03.35-.01.17-.02.35 0 .53v.52a4.48 4.48 0 0 0 .05.74l-.2.04-.32-.04-.04-1.97c0-.03 0-.05.02-.07.1-.18.11-.36.03-.55a.13.13 0 0 1 0-.08c.02-.15.01-.3-.03-.46 0-.03 0-.04.04-.04l.47.06Z" fill="#FFDE41"/><path d="M5.28 7.7h.1c.02 0 .03 0 .03.03l.02.35a91.24 91.24 0 0 1-.02 1.6c0 .1 0 .21.03.33.03.13.05.26.04.4l-.06-.01a.57.57 0 0 0-.27-.14c-.03-.05-.06-.08-.1-.08v-.05c.04.01.05 0 .06-.02a.58.58 0 0 0 .02-.2c-.04-.49-.03-.96.03-1.42.07-.22.08-.45.02-.7 0-.05.04-.08.1-.1Z" fill="#AAD182"/><path d="M12.55 7.69c.04.02.06.02.08 0 .05.02.09.04.11.07-.07.16-.03.43-.04.61 0 .04.01.07.03.09.02.04.05.05.08.05.07 0 .12.03.15.09v.79l.02.08a.73.73 0 0 0-.01.27.1.1 0 0 0-.03.07c.02.08.01.15 0 .23-.04.04-.06.07-.06.1a.16.16 0 0 0-.06.07c0 .03 0 .05.03.06l.04.04a.51.51 0 0 0-.25.14c-.04-.05-.08-.07-.12-.07a1.87 1.87 0 0 1 0-.44c.04-.65.03-1.3-.02-1.94 0-.1.01-.21.05-.31Z" fill="#5879AE"/><path d="m11.4 7.73.18.03c-.03.5-.05.99-.06 1.49 0 .07-.01.2-.04.35l-.02.35.03.88c-.03 0-.05.01-.07 0a4.48 4.48 0 0 1-.05-.74V9.6c-.02-.18-.01-.36 0-.53.01-.12 0-.24-.03-.35-.04-.18-.05-.3-.02-.36.07-.2.1-.4.07-.61Z" fill="#E8DA26"/><path d="M12.77 7.76c.07.01.15.04.24.08a.2.2 0 0 1 .12.16c.05.35 0 .55-.17.6-.03-.06-.08-.1-.15-.09a1.6 1.6 0 0 1-.04-.75ZM5.11 7.79v.05c.07.24.06.47-.05.68l-.11.04c-.07.01-.12 0-.15-.03a.08.08 0 0 1-.02-.07v-.41c0-.19.17-.27.33-.26Z" fill="#FE0246"/><path d="M5.11 7.79c.03.02.05.02.07 0 .06.25.05.48-.02.7a.22.22 0 0 0-.1.03c.11-.21.12-.44.04-.68v-.03l.01-.02Z" fill="#2E241C"/><path d="m9.9 9.82.16.27-.08.05c-.06.04-.1.05-.11.02a12.65 12.65 0 0 1-.24-.41c.07-.22.02-.38-.17-.5a.4.4 0 0 0-.12-.03c-.08-.02-.11-.04-.11-.08h.04c.04 0 .04-.01.02-.04-.1-.13-.21-.43-.45-.29-.1.06-.13.2-.2.28-.03.02-.02.04.01.05a.2.2 0 0 0 .1 0c0 .05-.06.08-.16.06l-.07.01c-.25.12-.31.31-.2.57 0 .02-.02.02-.03.02l-.03.01-.02.02-.18.33c-.02.03-.04.03-.06.02l-.1-.06.45-.9c.02-.02.01-.04-.02-.05l-.07-.04c-.03-.01-.04-.03-.02-.06.06-.14.13-.26.22-.38a.62.62 0 0 1 1.04.06l.18.3c.03.04.02.07-.02.08l-.1.03a.04.04 0 0 0-.04.03.04.04 0 0 0 .02.04l.1.11.02.02.24.46Z"/><path d="M5.16 8.49c-.06.46-.07.93-.03 1.43 0 .06 0 .12-.02.19 0 .02-.03.03-.06.02-.02-.03-.05-.05-.09-.04l-.03-.22c.02 0 .02-.02.02-.08.03-.1.03-.2 0-.28.03-.03.03-.06 0-.08.04-.3.04-.59 0-.87l.11-.04a.22.22 0 0 1 .1-.03Z" fill="#89BE9B"/><path d="M9.23 9.14a.8.8 0 0 0-.48 0 .2.2 0 0 1-.1 0c-.03-.01-.04-.03-.02-.05.08-.09.1-.22.2-.28.25-.14.35.16.46.29.02.03.02.04-.02.04h-.04Z" fill="#FFDE41"/><path d="M9.23 9.14c0 .04.03.06.1.08.06 0 .1.02.13.04.19.1.24.27.17.49-.07.03-.06.08-.1.13-.04.03-.07.03-.1 0a.09.09 0 0 0-.11-.01.1.1 0 0 0-.03.02.7.7 0 0 0-.1.22c-.06.19-.34.21-.42.03a1.63 1.63 0 0 0-.1-.2c-.05-.08-.11-.1-.19-.05-.02.02-.04.02-.06 0l-.1-.1c-.11-.27-.05-.46.2-.58a.12.12 0 0 1 .07 0c.1 0 .15-.02.16-.08a.8.8 0 0 1 .48.01Z" fill="#836042"/><path d="m12.97 9.47.51.11c.03.01.04.03.05.05l.01.2c0 .03 0 .04-.03.03l-.54-.12a.73.73 0 0 1 0-.27ZM4.96 9.51c.02.08.02.17 0 .28 0-.02-.01-.03-.03-.02a6.95 6.95 0 0 0-.54.15v-.24l.02-.02.55-.15Z" fill="#FCAF1E"/><path d="M9.63 9.75c-.01.01 0 .03.02.04-.14.2-.3.36-.5.46-.33.18-.7-.22-.86-.45.01 0 .02 0 .03-.02l.1.1c.02.03.04.03.06.01.08-.04.14-.03.19.05l.1.2c.08.18.36.16.42-.03a.7.7 0 0 1 .1-.22.1.1 0 0 1 .14-.01c.03.03.06.03.1 0 .04-.05.03-.1.1-.13Z" fill="#1D140E"/><path d="M8.29 9.8c.15.23.53.63.86.45.2-.1.36-.26.5-.46l.22.37c.02.03.05.02.1-.02l.2.44c.09.14.24.28.47.4a11 11 0 0 1-3.38 0l.24-.24a1 1 0 0 0 .22-.26c.07-.12.13-.24.17-.36l.11.06c.02.01.04 0 .06-.02a15.05 15.05 0 0 0 .2-.35h.03Z" fill="#F8C137"/><path d="m12.94 9.8.54.14c.04.01.07.04.06.09v.11c0 .05-.03.06-.07.05l-.54-.15a.49.49 0 0 0 0-.23ZM4.93 9.87l.03.22-.53.18c-.02.01-.04 0-.04-.03v-.18c0-.03 0-.05.04-.05l.5-.14Z" fill="#FCAF1E"/><path d="m10.06 10.09.22.41c.04.07.1.12.19.15.11.1.25.17.43.2l.31.03-.57.1a1.11 1.11 0 0 1-.46-.4 3.54 3.54 0 0 1-.2-.44l.08-.05Z" fill="#E69A22"/><path d="m12.88 10.14.58.16c.03 0 .04.02.04.05.01.13-.01.26-.07.4l-.54-.44-.04-.04c-.03-.01-.03-.03-.03-.06l.06-.07ZM5.05 10.18c.04 0 .07.03.1.08l-.64.54a1.08 1.08 0 0 1-.09-.39c0-.02.01-.04.04-.05l.59-.18Z" fill="#FCAF1E"/><path d="M5.15 10.26c.1.02.2.07.27.14a5 5 0 0 0-.58.55c-.05.06-.13.17-.22.32-.07.3-.05.58.07.86.08.17.18.27.3.3.2.04.51.05.6-.2l.05-.05c.21-.13.3-.15.38-.45l.2-.9v-.04c-.02-.01-.02-.02.01-.02l.25.08-.09.92c-.03.33-.14.62-.34.87-.05.06-.08.09-.09.08-.19 0-.37.01-.55.05-.12.03-.21.04-.27.04a.62.62 0 0 1-.28-.04c-.4-.2-.66-.54-.75-1.02-.01-.07-.05-.08-.1-.04.02-.09.02-.18.06-.26.1-.23.25-.45.44-.65l.64-.54ZM12.9 10.3l.53.46c.18.18.3.32.38.43.12.19.19.4.19.65a.74.74 0 0 0-.2.28c-.11.23-.42.57-.72.64-.12.02-.25.04-.37.04l-.3-.06a.67.67 0 0 0-.37 0l-.12-.13c-.19-.27-.3-.57-.32-.9-.07-.3-.1-.59-.07-.88l.18-.08.06-.01a3.95 3.95 0 0 0 .34 1.28c.2.2.47.26.75.31.09.02.17 0 .25-.05.03-.03.07-.09.12-.2l.14-.27c.08-.15.08-.32-.01-.53a1.3 1.3 0 0 0-.28-.41 7.57 7.57 0 0 0-.44-.42.51.51 0 0 1 .25-.14Z" fill="#0193CF"/><path d="M12.52 10.38c.04 0 .08.02.12.07.15.13.3.27.44.42.13.13.22.27.28.41l-.35.32c-.3.25-.65.18-1 .21-.13-.33-.2-.7-.24-1.07l.11-.03.64-.33ZM5.42 10.4h.06l.15.06.46.23.14.08c-.03 0-.03 0-.01.02v.04l-.2.9c-.36.07-.67.04-.9-.07a1.22 1.22 0 0 1-.25-.2 1.52 1.52 0 0 0-.25-.19l.22-.32a5 5 0 0 1 .58-.55Z" fill="#C9EBF4"/><path d="M11.49 10.83h.04c-.02.3 0 .59.07.88a.69.69 0 0 0-.24.24l-.47.33a3.3 3.3 0 0 1-3.33.32c-.19-.09-.49-.28-.9-.57l-.27-.26.1-.92v-.01l.28.06.04.01.45.07a11 11 0 0 0 3.38 0l.57-.1.21-.04.07-.01Z" fill="#1D140E"/><path d="M10.7 11.52c0-.13.01-.25.05-.35l.36-.05c.04 0 .05.01.04.04-.05.26-.13.5-.24.71-.04.1-.08.1-.1-.01a.98.98 0 0 0-.12-.34ZM7.2 11.18c.24.1.3.22.16.35-.1-.02-.17.03-.21.15a1.3 1.3 0 0 0-.05.22c-.01.07-.03.07-.06.01a2.39 2.39 0 0 1-.26-.74c0-.03.01-.04.04-.04l.38.05Z" fill="#D7C8AE"/><path d="M7.2 11.18c1.2.12 2.38.12 3.55-.01a.89.89 0 0 0-.06.35 18 18 0 0 1-3.33.01c.13-.13.08-.25-.15-.35Z" fill="#F3ECD9"/><path d="M4.62 11.27c.1.06.18.13.25.2.11.1.2.16.24.19.24.11.55.14.91.07-.09.3-.17.32-.38.45a.11.11 0 0 0-.05.06c-.09.24-.4.23-.6.19-.12-.03-.22-.13-.3-.3a1.27 1.27 0 0 1-.07-.86ZM13.36 11.28c.09.2.1.38 0 .53l-.13.28c-.05.1-.09.17-.12.2a.31.31 0 0 1-.25.04c-.28-.05-.55-.1-.75-.3a.48.48 0 0 1-.1-.22c.35-.03.7.04 1-.21l.35-.32Z" fill="#04BAEA"/><path d="M9.94 11.68h.67c.03 0 .05.01.06.03.09.1.13.2.05.32-.13.18-.3.3-.51.37a3.64 3.64 0 0 1-2.34.04c-.28-.07-.5-.2-.66-.4a.1.1 0 0 1-.03-.06c.01-.22.12-.33.33-.31.39.02.78.05 1.18.04.43 0 .85-.02 1.25-.03Z" fill="#2E241C"/><path d="M5.96 12.72c-.4.38-.82.47-1.28.26-.5-.23-.73-.66-.67-1.27.05-.04.09-.03.1.04.1.48.34.82.75 1.02.06.03.15.05.28.04.06 0 .15-.01.27-.04.18-.04.36-.05.55-.05Z" fill="#04BAEA"/><path d="M11.6 11.71c.02.33.13.63.32.9-.62.43-1.28.79-1.96 1.08-.24.1-.48.19-.73.25-.03 0-.05 0-.05-.03v-.02l.02-.02 1.25-.55a.06.06 0 0 0 .04-.04.06.06 0 0 0-.02-.06c-.05-.05-.1-.07-.17-.04h-.03l-.02-.01c-.09-.13-.21-.17-.37-.13a3.2 3.2 0 0 1-1.7.02.82.82 0 0 0-.33-.02c-.22.03-.35.17-.38.42-.48-.23-.95-.5-1.42-.82.2-.25.31-.54.34-.87l.27.26c.27.26.57.47.89.63 1 .5 2 .46 3-.09.3-.17.57-.38.8-.62a.69.69 0 0 1 .25-.24Z" fill="#E69A22"/><path d="M14 11.84c.01.41-.11.73-.38.94-.51.43-1.04.42-1.58-.04a.67.67 0 0 1 .36 0l.3.06c.13 0 .26-.02.38-.04.3-.07.6-.4.72-.64a.74.74 0 0 1 .2-.28Z" fill="#04BAEA"/><path d="M11.36 11.95c-.24.24-.5.45-.81.62-1 .55-2 .58-3 .09a3.38 3.38 0 0 1-.89-.63c.41.3.71.48.9.57 1.16.5 2.3.38 3.33-.32l.47-.33Z" fill="#FFF073"/><path d="M9.23 13.94a.62.62 0 0 1-.33.05 4.9 4.9 0 0 1-1.43-.53c.03-.25.16-.4.38-.42.1-.02.22 0 .33.02.54.15 1.11.14 1.7-.02.16-.04.28 0 .37.13a.04.04 0 0 0 .05.01c.07-.03.12-.01.17.04l.02.03v.03a.06.06 0 0 1-.04.04l-1.25.55-.02.02v.02c0 .03.02.04.05.03Z" fill="#D98D24"/><defs><linearGradient id="ayyvexhyo" x1="3.35" y1="3.12" x2="21.9" y2="24.43" gradientUnits="userSpaceOnUse"><stop stop-color="#1A1E21"/><stop offset="1" stop-color="#06060A"/></linearGradient></defs></svg>