<!-- by TradingView --><svg width="18" height="18" viewBox="0 0 18 18" xmlns="http://www.w3.org/2000/svg"><path fill="#F0F3FA" d="M0 0h18v18H0z"/><circle cx="9" cy="9" r="6" fill="#151123"/><path d="M9.13 14.19a5.26 5.26 0 0 1-3.7-1.47l.43-.33c.53.57 1.5.97 1.92 1.1l1.27-1.1 1.31 1.1c.83-.24 1.6-.83 1.9-1.1l.4.33a4.8 4.8 0 0 1-3.53 1.47Z" fill="#AD0073"/><path d="M5.03 12.22a5.15 5.15 0 1 1 8.04.01l-.14-.68a4.64 4.64 0 1 0-7.75.02l-.15.65Z" fill="url(#ab5hh1xze)"/><path d="M5.03 12.22a5.15 5.15 0 1 1 8.04.01l-.07-.31a4.88 4.88 0 1 0-7.9-.04l-.07.34Z" fill="url(#bb5hh1xze)"/><path d="m9 5.27 1.42-1.24S9.6 3.82 9 3.85v1.42Z" fill="url(#cb5hh1xze)"/><path d="M9 5.27 7.71 4.03s.7-.21 1.29-.18v1.42Z" fill="url(#db5hh1xze)"/><path d="M9 5.7v2.5l1.11 1.87 2.63-1.43.2-2.04a7.9 7.9 0 0 0-2.5-1.83L9 5.7Z" fill="url(#eb5hh1xze)"/><path d="M9 5.6 7.78 4.5l.33-.12.89.86v.36Z" fill="#004879"/><path d="m9 5.6 1.32-1.1-.31-.13L9 5.24v.36Z" fill="#00A3B7"/><path d="M5.76 11.85c-.07.18.09.12.18.15h1.21l.85-.78V9.71h-.3l-.99-.89-.19-.77-1.7-1.74-.32.2.77 2.95.96.96v.56l-.38.62-.09.25Z" fill="#0158C1"/><path d="M12.32 11.85c.07.18-.09.12-.18.15h-1.21l-.93-.78V9.71h.37l1-.89.19-.77 1.7-1.74.32.2-.77 2.95-.96.96v.56l.38.62.09.25Z" fill="#00A9FF"/><path d="M9 8.32v3.5l-.7-.74V9.8L5.11 6.46V4.43l.25-.29 3.4 3.95c.09.09.17.2.23.23Z" fill="url(#fb5hh1xze)"/><path d="M9 8.32v3.5l.7-.74V9.8l3.18-3.34V4.4l-.11-.25-3.4 3.95c-.09.09-.3.2-.37.23Z" fill="url(#gb5hh1xze)"/><defs><linearGradient id="ab5hh1xze" x1="4.37" y1="9.13" x2="13.71" y2="9.13" gradientUnits="userSpaceOnUse"><stop stop-color="#01A1D2"/><stop offset="1" stop-color="#00679C"/></linearGradient><linearGradient id="bb5hh1xze" x1="4.19" y1="9.24" x2="13.97" y2="8.83" gradientUnits="userSpaceOnUse"><stop stop-color="#013B6D"/><stop offset="1" stop-color="#0CE8F7"/></linearGradient><linearGradient id="cb5hh1xze" x1="9.06" y1="4.57" x2="10.13" y2="4.34" gradientUnits="userSpaceOnUse"><stop stop-color="#04FDFF"/><stop offset="1" stop-color="#09ABC7"/></linearGradient><linearGradient id="db5hh1xze" x1="8.99" y1="4.36" x2="8.01" y2="4.35" gradientUnits="userSpaceOnUse"><stop stop-color="#029DBB"/><stop offset="1" stop-color="#067CA1"/></linearGradient><linearGradient id="eb5hh1xze" x1="9.48" y1="5.09" x2="12.24" y2="9.22" gradientUnits="userSpaceOnUse"><stop stop-color="#151123"/><stop offset=".26" stop-color="#324A80"/><stop offset="1" stop-color="#070F26"/></linearGradient><linearGradient id="fb5hh1xze" x1="6.71" y1="5.52" x2="8.56" y2="10.62" gradientUnits="userSpaceOnUse"><stop stop-color="#006BCD"/><stop offset=".7" stop-color="#0094C9"/><stop offset="1" stop-color="#0056C5"/></linearGradient><linearGradient id="gb5hh1xze" x1="9.74" y1="8.8" x2="9.07" y2="8.53" gradientUnits="userSpaceOnUse"><stop stop-color="#00A9FF"/><stop offset="1" stop-color="#A7F1F0"/></linearGradient></defs></svg>