<!-- by TradingView --><svg width="18" height="18" viewBox="0 0 18 18" xmlns="http://www.w3.org/2000/svg"><path fill="#F0F3FA" d="M0 0h18v18H0z"/><path d="M10.91 3.33c-.07.08-.17.1-.28.05h-.05a.33.33 0 0 0-.1.18l-.19-.1a.08.08 0 0 0-.06 0 .23.23 0 0 0-.14.11c-.15.28-.31.38-.48.32h-.06l-.37.22a.1.1 0 0 1-.1 0 .38.38 0 0 0-.33-.04c-.02 0-.04 0-.05-.02a.8.8 0 0 1-.07-.2c-.02-.06-.03-.1-.05-.11-.09-.07-.23-.07-.31-.1a.09.09 0 0 1-.05-.03.58.58 0 0 0-.37-.23l-.3-.2a5.86 5.86 0 0 1 3.36.15Z" fill="#1E5924"/><path d="m7.55 3.19.3.2.17.15c.1.06.15.1.18.14.03.05.07.11.1.2.04.06.04.13.03.2-.05.18-.17.26-.35.25a2.08 2.08 0 0 1-.7-.2.4.4 0 0 1-.15-.1 6.72 6.72 0 0 1-.37-.54c0-.02 0-.03.03-.04.24-.12.5-.2.76-.26Z" fill="#BFBFBF"/><path d="m12.98 4.53-.95-.24a2.04 2.04 0 0 0-.49-.06c-.11 0-.17.07-.24.12a.07.07 0 0 1-.1-.02l-.25-.3a1.59 1.59 0 0 0-.23-.24 2.63 2.63 0 0 1-.24-.23.33.33 0 0 1 .1-.17.04.04 0 0 1 .05-.01c.11.05.2.03.28-.05.77.24 1.46.64 2.07 1.2Z" fill="#5A98E3"/><path d="M10.09 3.57c.01.16.05.26.1.32l.2.3.22.3c.22.23.49.44.8.62a12.23 12.23 0 0 0-.53.36c-.04.05-.03.06.02.02l.47-.29c.09.15.2.26.32.33l.4.23c.06.04.13.06.2.07.34.06.67.06 1 .01.08-.01.2-.05.34-.1a2 2 0 0 1 .34-.11c.3.44.54.92.71 1.44-.13.06-.42.27-.43.44 0 .02 0 .04.02.05.1.15.23.2.41.18l.18-.01.1.59a9.77 9.77 0 0 1-2.52-.35 12.38 12.38 0 0 0-.76-.25.4.4 0 0 0-.12-.12l-.11-.06c-.01-.05-.04-.07-.08-.06-.02 0-.05.01-.08.04-.1.08-.21.08-.33-.02a4.21 4.21 0 0 0-.23-.17l-.13-.15a1.6 1.6 0 0 0-.34-.6c-.22-.36-.5-.63-.84-.81 0-.02 0-.03.03-.04.23-.11.47-.2.72-.27.03 0 .07-.04.11-.09.07-.02.11-.06.12-.11.03-.17-.04-.31-.2-.42-.38-.27-.74-.25-1.08.05a.77.77 0 0 0-.28.62.01.01 0 0 1-.02 0 .96.96 0 0 0-.47-.15h-.49l-.34-.04-1.05-.97a1.95 1.95 0 0 1-.4-.56c.17-.12.35-.2.54-.23a.1.1 0 0 1 .06 0c.06.03.1.03.14.03l.32.43a.4.4 0 0 0 .14.11c.26.12.5.18.71.2.18.01.3-.07.35-.26a.29.29 0 0 0-.02-.2 1.1 1.1 0 0 0-.11-.19.77.77 0 0 0-.18-.14.76.76 0 0 1-.17-.16c.16.03.28.11.37.23 0 .02.02.03.04.04.1.02.23.01.32.09.02.01.03.05.05.1a.8.8 0 0 0 .07.2c.01.03.03.03.05.03.1-.04.22-.02.33.04a.1.1 0 0 0 .1 0l.37-.21a.07.07 0 0 1 .06 0c.17.05.33-.05.48-.33Z" fill="#5A98E3"/><path d="m10.48 3.56.24.23c.1.08.18.16.23.23a34.7 34.7 0 0 1 .3.34h.05c.07-.06.13-.13.24-.13.21 0 .37.02.49.06.4.11.72.2.95.24.38.3.7.67.99 1.1a2 2 0 0 0-.34.1c-.15.06-.26.1-.34.11a3.2 3.2 0 0 1-1 0 .63.63 0 0 1-.2-.08l-.4-.23a.91.91 0 0 1-.32-.33l1.14-.61h.04c.08.17.08.16 0 0 0-.02-.02-.03-.04-.02-.28.1-.51.2-.7.31l-.4.23c-.3-.18-.57-.4-.8-.63a1.73 1.73 0 0 1-.21-.29 2.6 2.6 0 0 0-.21-.3c-.05-.06-.09-.16-.1-.32.04-.06.08-.1.14-.12l.06.01.2.1Z" fill="#BFBFBF"/><path d="M6.07 3.79c.11.23.25.42.4.56l1.05.97-.55.09a.04.04 0 0 1-.05-.02c-.07-.14-.15-.27-.24-.39l-.53-.7a.81.81 0 0 1-.17-.47.18.18 0 0 1 .09-.04Z" fill="#8CC9D4"/><path d="M5.98 3.83c0 .16.06.32.17.46l.53.71c.1.12.17.25.24.39a.04.04 0 0 0 .05.02l.55-.1.34.05-1.08.2-.32.1c-.03.01-.04 0-.03-.03 0-.02.04-.04.08-.06a.13.13 0 0 0 .11-.09.1.1 0 0 0-.02-.09 2.07 2.07 0 0 0-.22-.22 20.85 20.85 0 0 1-.8-1c-.05-.02-.05-.05 0-.08l.4-.26Z" fill="#F3F2F0"/><path d="M6.2 5.84c-.02 0-.04.02-.06.04l.01-.08c0-.02 0-.04-.02-.05a.81.81 0 0 1-.15-.16l-.41-.57c-.14-.2-.27-.42-.37-.66l.2-.13c.02-.01.03-.01.04.01a9.53 9.53 0 0 0 .5.73l.04.04.42.58v.04l-.2.21Z" fill="#01354E"/><path d="M6.51 5.57a.4.4 0 0 0-.24-.24.1.1 0 0 1-.05-.04l-.12-.16a68.83 68.83 0 0 1-.38-.68l-.05-.18a20.89 20.89 0 0 0 .7.9c.09.07.16.15.23.22a.1.1 0 0 1 .02.1.13.13 0 0 1-.1.08Z" fill="#8CC9D4"/><path d="M5.2 4.36c.1.24.23.46.37.66.13.2.27.38.41.57l.15.16c.02 0 .03.02.03.05l-.02.08a10.01 10.01 0 0 1-.57.3.8.8 0 0 0-.3.25 4.85 4.85 0 0 1-.38.42V6.8l-.01-.02a.3.3 0 0 1-.06-.2c0-.02-.02-.03-.04-.02a.06.06 0 0 1-.06-.03l-.22-.27a.16.16 0 0 0-.18-.02 12.02 12.02 0 0 0-.3.15c-.1.21-.08.4.03.54.03.06.06.13.07.2.05.1.1.17.16.23.06.07.13.12.21.16.14.06.17.13.15.27a.1.1 0 0 0 0 .06l.19.42c-.13.08-.17.16-.13.24.03.06.04.1.04.13a.88.88 0 0 0-.2.5.89.89 0 0 0-.42-.55 5.82 5.82 0 0 1-.75-.57.6.6 0 0 0-.28-.1A6.21 6.21 0 0 1 5.2 4.36Z" fill="#001F37"/><path d="M12.31 5.02c.4-.18.7-.35.7-.36-.01-.02-.34.11-.73.3-.39.18-.7.34-.69.36.01.02.33-.12.72-.3ZM10.28 5.37a.24.24 0 0 0-.17-.03l-.48-.03a.6.6 0 0 0-.57.27.02.02 0 0 1-.01 0h-.02v-.04a.66.66 0 0 1 .6-.34 3.46 3.46 0 0 1 .61.06.13.13 0 0 0 .09-.15c-.03-.11-.09-.18-.18-.2-.31-.23-.64-.2-.97.06-.13.11-.2.23-.22.38a.8.8 0 0 0-.01.23l.01.05c.02.02.03.03.05.03.03 0 .04.01.04.03a3.4 3.4 0 0 1 0 .24l.02.02c.02 0 .04 0 .04-.02.06-.18.17-.23.31-.16.34.18.62.45.84.8l.34.61.13.15.16.34c.01.02.03.03.06.03.1 0 .2.02.28.1h.02a.02.02 0 0 0 .01-.02c0-.17.05-.25.19-.24l.11.06c.06.1.09.2.08.3a.17.17 0 0 0-.07.06c0 .02 0 .05.04.08.11.1.2.21.27.31l.16.23c.03.04.06.1.08.17l.07.18.05.22.05.24a.07.07 0 0 0 .05.05c.45.09.83.37 1.15.7a3.68 3.68 0 0 1 .8 1.69v.03a.14.14 0 0 1-.07.09 3.5 3.5 0 0 0-.72-1.66 2.2 2.2 0 0 0-.72-.6 1.71 1.71 0 0 0-.43-.15c-.03 0-.04 0-.04.03l-.03.14c.02.26-.02.54-.12.81-.02 0-.04-.01-.05-.03l.1-.71c0-.26-.05-.52-.15-.78a.04.04 0 0 0-.04-.03l-1.31-.06c.13-.3.17-.63.12-.98a1.22 1.22 0 0 0-.2-.53v.01c.15.47.17.94.05 1.42l-.3-.45c.09-.3.12-.54.1-.7a2.44 2.44 0 0 0-.89-1.73.54.54 0 0 0-.27-.12c-.02 0-.04 0-.06.02a.28.28 0 0 0-.1.16c0 .04 0 .04.03 0l.07-.08a.12.12 0 0 1 .17-.02c.12.1.2.17.26.2.09.07.16.15.21.25l.26.39c.07.1.12.22.14.33a2.47 2.47 0 0 1-.06 1.52c-.07-.2-.1-.39-.12-.59.08-.22.12-.43.11-.61 0-.13-.02-.13-.04 0l-.07.44c-.17-.37-.44-.7-.8-1a2.3 2.3 0 0 0-2.6-.4l-1.02.5c-.18.08-.39.17-.62.25-.04.01-.05 0-.04-.05.14-.33.34-.62.61-.86.31-.21.58-.38.81-.49a3.38 3.38 0 0 1 1.28-.28l.56.02a1 1 0 0 1 .58.2c-.11-.29-.7-.3-.95-.27h-.35c-.11 0-.23.02-.35.04l-.44.1a.1.1 0 0 1 0-.05l1.07-.2h.49a.96.96 0 0 1 .48.17.01.01 0 0 0 .01-.01c0-.24.09-.45.28-.62.34-.3.7-.32 1.08-.05.16.1.23.25.2.42 0 .05-.05.09-.12.11Z" fill="#543930"/><path d="M10.15 4.9c.09.03.15.1.18.21a.13.13 0 0 1-.15.16 3.46 3.46 0 0 0-.55-.07c-.25 0-.46.1-.6.34v.03l.02.01a.02.02 0 0 0 .01 0 .6.6 0 0 1 .57-.27.72.72 0 0 0-.22.04c-.1.04-.1.08 0 .1.03.01.07.02.1.01.1 0 .1.01.03.05l-.09.04a.02.02 0 0 0 0 .02.03.03 0 0 0 0 .02l.04.02h.06l.63-.23c.02 0 .02-.02 0-.02l-.07-.02c.06 0 .12 0 .17.03-.04.05-.08.08-.11.1-.25.06-.5.15-.72.26-.03.01-.03.02-.03.04-.14-.07-.25-.02-.3.16-.01.02-.03.03-.05.02-.01 0-.02 0-.03-.02V5.7c0-.03 0-.04-.03-.04a.08.08 0 0 1-.05-.03l-.01-.05a.8.8 0 0 1 0-.23c.26-.48.66-.63 1.2-.44Z" fill="#6C4335"/><path d="m9.63 5.3.48.04.06.02c.03 0 .03.01 0 .02l-.62.23h-.06c-.02 0-.04 0-.05-.02a.03.03 0 0 1 0-.02.02.02 0 0 1 .01-.02l.09-.04c.08-.04.07-.06-.02-.05h-.1c-.1-.03-.1-.07-.01-.1a.72.72 0 0 1 .22-.05Z" fill="#EF6568"/><path d="M5.65 6.28c-.06-.07-.16-.02-.3.17-.18.17-.32.36-.43.55-.04.08-.07.07-.09 0l-.08-.34c0-.02 0-.02-.01 0a.78.78 0 0 0 .07.5v.13c-.02.02-.04.01-.05 0a.95.95 0 0 1-.09-.34v-.24c0-.06-.02-.11-.04-.15a.44.44 0 0 0-.12-.11l-.07-.06c.01-.03 0-.05-.02-.08h-.05a.1.1 0 0 1-.06.01.37.37 0 0 0-.25.27 8.29 8.29 0 0 1-.01.35c-.11-.15-.12-.33-.02-.54 0-.02.02-.03.04-.04a12 12 0 0 1 .25-.11.16.16 0 0 1 .18.02l.22.27a.06.06 0 0 0 .06.03c.02 0 .03 0 .03.03 0 .07.02.13.06.2l.01.01v.02a.02.02 0 0 0 .01.02h.02c.13-.13.25-.28.36-.42a.8.8 0 0 1 .3-.25 14.45 14.45 0 0 0 .57-.3l.05-.04.6-.25.44-.1.35-.02.35-.01c.24-.02.84-.01.95.26v.01h-.01a1 1 0 0 0-.57-.2l-.56-.02c-.2 0-.38.01-.57.05-.28.07-.52.14-.7.23-.24.12-.51.28-.82.5Z" fill="#E8B3A5"/><path d="M4.5 5.7c.04.02.08 0 .1-.02 0-.03-.01-.06-.05-.08-.03-.01-.07 0-.08.03-.01.02 0 .06.04.07Z" fill="#BFBFBF"/><path d="M10.38 8.38c-.05.23-.15.43-.3.6a.24.24 0 0 1-.03.05c-.04.04-.05.03-.03-.03l.22-.4a2.6 2.6 0 0 0 .07-1.52 1.03 1.03 0 0 0-.15-.33l-.26-.4a.71.71 0 0 0-.21-.23 3.84 3.84 0 0 1-.3-.23.12.12 0 0 0-.13.04l-.07.09c-.02.03-.03.03-.02-.01a.28.28 0 0 1 .1-.16.07.07 0 0 1 .05-.02c.1.02.2.06.27.12.54.44.84 1.02.9 1.73.01.16-.02.4-.1.7Z" fill="#E8B3A5"/><path d="M10.12 7.84c-.04.14-.03.2 0 .17.01.2.05.4.12.6l-.22.4c-.02.05-.01.05.03.02l.04-.05a7.5 7.5 0 0 1 1.89 1.7l.09-.16.04-.03c0 .02.03.03.05.03l-.16.42v-.02c0-.02-.02-.02-.03 0l-.03.04v-.02c-.01-.02-.02-.02-.03 0l-.54.96a.98.98 0 0 1-.2.3l-.25.26-.34.3c-.12.07-.23.12-.32.15-.03 0-.04 0-.02-.03l.06-.11v-.03l.01-.05c-.07-.43-.36-.66-.74-.8a.36.36 0 0 0-.18-.02l-.18.03a.37.37 0 0 0-.1.08c-.08.16-.1.15-.09-.02.01-.05.04-.1.1-.17.1-.11.37-.14.52-.14.07 0 .08-.02.03-.06 0-.02-.04-.01-.09 0a.03.03 0 0 1-.03 0 .03.03 0 0 1-.01-.04c.07-.31.3-.65.48-.88.05-.06.03-.08-.04-.05a.22.22 0 0 0-.08.06c-.16.2-.3.4-.41.63a.5.5 0 0 0-.07.2c0 .05-.02.07-.06.08a.67.67 0 0 0-.34.14c-.17.13-.08.44-.01.62.01.03.02.06.01.08 0 .06-.07.12-.1.15a.91.91 0 0 1-.48.37.18.18 0 0 0-.1-.09c-.07-.03-.1-.05-.13-.11a2.4 2.4 0 0 1-.28-1.02l-.03-.41c0-.02-.01-.03-.03 0a.13.13 0 0 0-.03.06c-.02.15-.02.3 0 .44l-.03-.37v-.01a.02.02 0 0 0-.03 0h-.02a.07.07 0 0 0-.04.07l-.01.38c0 .07-.02.07-.05 0a.31.31 0 0 0-.12-.12.13.13 0 0 1-.04-.05l-.24-.42-.02-.02H7.2l-.01.02c0 .01 0 .03.02.05h-.03a.02.02 0 0 0-.01 0 .02.02 0 0 0 0 .03c.1.35.3.63.6.83l.07.3c0 .05 0 .12-.05.23v.06c0 .1 0 .16-.05.2-.15.16-.31.19-.48.08.04-.02.05-.04 0-.05a2.48 2.48 0 0 1-.75-.9l-.14-.3c-.05-.12-.1-.22-.12-.31a2.82 2.82 0 0 1-.07-1.03.14.14 0 0 0 .02-.09c.07.06.11.12.13.19 0 .06.02.18.02.37 0 .08.03.13.1.16.11.05.23.06.37.04.33-.03.67-.13 1.01-.29.11-.05.28-.02.4-.05.24-.06.5-.17.78-.33.17-.1.3-.21.38-.34.23-.13.4-.3.52-.53.07-.13.06-.13-.03-.02-.1.13-.22.26-.38.39-.16.14-.45.3-.86.5l.27-.24.27-.25c.25-.3.54-.6.67-.96a13.67 13.67 0 0 0 .16-.53l.03-.05c0-.08-.03-.09-.06-.02l-.19.38c-.29.62-.7 1.15-1.26 1.58-.3.21-.63.36-1 .44l.68-.45c.2-.15.36-.37.48-.66.13-.3.2-.6.18-.86 0-.02 0-.04-.02-.05-.02-.06 0-.1.05-.15.27-.19.42-.46.43-.8 0-.02-.01-.04-.03-.05a.21.21 0 0 0-.1-.03c-.03 0-.04.02-.04.04l.03.11-.23.48a.02.02 0 0 0 .03.03L9 8.44v.01c-.21.24-.47.4-.76.48l-.01-.02c0-.01-.01-.02-.03-.02-.2.05-.37.08-.51.07l-.9-.02c-.24-.01-.46.04-.64.16l-.85.48a.47.47 0 0 0-.3 0c-.16 0-.26-.07-.3-.2-.02-.02-.02-.02-.03 0 0 .04 0 .07.03.11a.06.06 0 0 0-.05-.01l-.02.03a.52.52 0 0 0-.08-.19c-.03-.02-.04-.08-.02-.18h.01c-.01.03 0 .05.02.06a.03.03 0 0 0 .02 0 .03.03 0 0 0 .02-.02c.02-.22.15-.44.27-.62.05-.09.04-.1-.03-.03a.53.53 0 0 0-.1.12c0-.03-.01-.07-.04-.13-.04-.08 0-.16.13-.24a2.35 2.35 0 0 1 .18.08h.01c.02-.02.02-.03.01-.04a.15.15 0 0 0-.04-.04c.1.01.18-.02.22-.08l.1-.1h.04v.02h.02l.2-.14c.21-.16.34-.18.6-.23.16-.04.32-.12.49-.23.01-.02.02-.03 0-.05v-.02h-.02a1.6 1.6 0 0 1-.61.25l.03-.03a.03.03 0 0 0-.03-.06c-.22.03-.42.12-.6.27l-.04-.01c-.03-.07-.03-.14-.08-.2-.11-.15-.24-.13-.38.04l.03-.48c.07-.27.2-.5.4-.71.05-.06.05-.08 0-.07.13-.19.23-.24.3-.17-.28.24-.48.53-.62.86-.01.05 0 .06.04.04.23-.07.44-.16.62-.25l1.02-.48a2.3 2.3 0 0 1 2.6.38c.36.3.63.64.8 1Z" fill="#7C513C"/><path d="M4.44 6.39c-.07.23-.1.46-.1.7l.01.06.03.05c.01.02 0 .03-.01.02a.06.06 0 0 1-.03-.02.62.62 0 0 0-.1-.14.11.11 0 0 1-.04-.05.93.93 0 0 1-.06-.38c.01-.1.08-.2.2-.27.02-.01.02-.02 0-.03H4.3a.1.1 0 0 0 .06-.02h.05c.03.03.03.05.02.08Z" fill="#EF6568"/><path d="M4.3 6.32a.1.1 0 0 1 .04 0c.02.02.02.03 0 .04-.12.07-.19.16-.2.27-.01.09 0 .21.06.38 0 .02.02.04.03.05.04.03.08.08.11.14l.03.01c.02.02.02.01.01-.01l-.03-.05a.12.12 0 0 1-.01-.06c0-.24.03-.47.1-.7l.07.06c-.05.2-.06.41-.04.62a.6.6 0 0 0 .26.44h.01c.07-.2.1-.3.07-.34a.78.78 0 0 1-.07-.51c0-.02 0-.02.01 0l.08.33c.02.08.05.09.09.01.1-.2.25-.38.44-.55.05 0 .05.02 0 .07-.2.2-.33.44-.4.71-.11.25-.14.5-.07.74a.4.4 0 0 0 .1.16h.03V8.1a.7.7 0 0 1-.1-.39c.15-.17.28-.19.4-.05.04.07.04.14.07.2.01.03.03.03.04.02.18-.15.38-.24.6-.27a.03.03 0 0 1 .03.06l-.03.03c-.26.06-.49.2-.68.4h-.03c.02-.08 0-.15-.05-.2.02-.04.02-.08 0-.12a.03.03 0 0 0-.03-.01.03.03 0 0 0-.02.01c0 .02-.01.04 0 .07-.05-.02-.08 0-.1.05a.6.6 0 0 0-.02.23c0 .05.04.08.11.07-.04.06-.12.1-.22.09a.68.68 0 0 1-.25-.39c-.02-.08-.01-.18-.02-.26a.05.05 0 0 0-.03-.05 1.07 1.07 0 0 1-.44-.34.1.1 0 0 0-.05-.03c-.02 0-.04-.03-.05-.05-.01-.05-.02-.06-.03-.03a.57.57 0 0 0-.07-.2 8.22 8.22 0 0 0 .01-.35.37.37 0 0 1 .25-.27ZM7.58 6.52c.32.07.52.27.59.59 0 .02 0 .03-.03.03a.67.67 0 0 0-.38.15.05.05 0 0 1-.05 0 .74.74 0 0 1-.41-.65l.01-.05c.14-.21.33-.24.56-.1v.04l-.26-.08h-.02v.01l-.02.04a.01.01 0 0 0 0 .01Z" fill="#601700"/><path d="m4.5 6.45.13.1c.02.05.04.1.04.16v.24c0 .06.03.17.1.33 0 .02.02.03.03 0 .02-.01.02-.05 0-.11.04.04.01.15-.06.33h-.01a.6.6 0 0 1-.26-.43c-.02-.21-.01-.42.04-.62Z" fill="#6C4335"/><path d="m13.85 6.56.4.18a.13.13 0 0 1 .07.17.6.6 0 0 1-.37.36h-.04l-.38-.17c-.05-.02-.08-.06-.07-.12.02-.25.15-.39.38-.42Z" fill="#1E5924"/><path d="m10.6 7.18-.34-.6c.15.16.26.36.34.6Z" fill="#8CC9D4"/><path d="M7.7 6.79a.2.2 0 0 1-.12-.04c-.06-.06-.05-.09.03-.1l.04.01c.07.05.09.09.05.13Z" fill="#E8B3A5"/><path d="M7.58 6.74a.2.2 0 0 0 .12.05c.12.05.2.13.22.25a.09.09 0 0 1-.04.1.09.09 0 0 1-.03 0c-.19.04-.32-.14-.38-.3-.01-.02 0-.04.01-.05a.17.17 0 0 1 .1-.05Z" fill="#001F37"/><path d="M12.34 7.87a7.7 7.7 0 0 1-.24-.1.07.07 0 0 1-.04-.04c-.04-.15-.1-.35.02-.48.12-.14.28-.2.46-.16.2.04.81.22.87.43.05.18-.06.34-.17.46a.07.07 0 0 1-.06.02 3.73 3.73 0 0 1-.84-.13Z" fill="#1E5924"/><path d="m14.68 7.07.18.66-.18.01a.4.4 0 0 1-.41-.18.08.08 0 0 1-.02-.05c.01-.17.3-.38.43-.44Z" fill="#BFBFBF"/><path d="M5 8.28c0 .02.02.03.03.04v.04h-.05a2.35 2.35 0 0 0-.15-.08l-.18-.42a.1.1 0 0 1-.01-.06c.02-.14 0-.21-.15-.27a.65.65 0 0 1-.21-.16 1.08 1.08 0 0 1-.16-.23c0-.03.02-.02.03.03l.05.05a.1.1 0 0 1 .05.03c.12.15.26.27.44.34.02.01.03.02.03.05 0 .08 0 .18.02.26.03.16.12.28.25.38ZM4.96 7.23l-.03.48c0 .14.03.27.1.39v.03h-.04a.4.4 0 0 1-.1-.16c-.07-.24-.04-.49.07-.74ZM10.12 8.01a9.9 9.9 0 0 1 .06-.61c.03-.13.05-.13.05 0 .01.19-.03.39-.1.61Z" fill="#E8B3A5"/><path d="M11.45 7.54c-.14 0-.2.07-.19.24a.02.02 0 0 1-.02.02.4.4 0 0 0-.3-.1c-.02 0-.04-.01-.05-.03l-.16-.34.23.17c.12.1.23.1.33.02.03-.03.06-.04.08-.04.04 0 .07.01.08.06Z" fill="#F3F2F0"/><path d="m10.7 8.91-.05.09c-.02.02-.02.02-.01-.01l.04-.16a2.44 2.44 0 0 0-.05-1.43h.01c.1.14.16.31.19.53.05.36 0 .68-.12.98ZM5.35 8.1c.2-.2.42-.34.68-.4.22-.04.42-.12.6-.25h.03v.02c.02.02.01.03 0 .05-.17.11-.33.2-.5.23-.25.05-.38.07-.58.23l-.21.14h-.02V8.1Z" fill="#E8B3A5"/><path d="m14.97 8.32.02.33c-.56.04-.96.06-1.2.05-.42-.01-1.04-.14-1.57-.16-.06 0-.1-.01-.11-.03a.22.22 0 0 1-.08-.1.15.15 0 0 0-.04-.06 1.5 1.5 0 0 1-.35-.45.46.46 0 0 0-.08-.3.4.4 0 0 1 .12.13l.05.03a12.36 12.36 0 0 1 .9.25l.2.04c.64.16 1.35.25 2.14.27Z" fill="#8CC9D4"/><path d="M5.27 7.9a.08.08 0 0 1-.06-.05l.01-.07a.03.03 0 0 1 .02-.01.03.03 0 0 1 .03 0c.02.05.02.09 0 .13Z" fill="#E8B3A5"/><path d="M8.2 10.39c.16-.22.29-.43.38-.65.04-.09.07-.18.09-.28l.06-.3c.02-.1.02-.2 0-.3a.04.04 0 0 0-.04-.04.04.04 0 0 0-.04.02l-.08.08-.13.02c-.02 0-.03.02-.02.04.02.2.01.43-.04.67.02.06.01.12-.02.16a40.47 40.47 0 0 0-.24.25l-.25.25a1.21 1.21 0 0 1-.39.24 5.9 5.9 0 0 0-.45.18c-.15.06-.26.06-.36 0-.05-.04-.1-.11-.13-.22a.96.96 0 0 0-.19-.33 5.4 5.4 0 0 0-.43-.43.54.54 0 0 0-.16-.1 1.04 1.04 0 0 1-.18-.1h-.01l-.03.03v.03c.23.12.43.29.61.5.14.15.22.3.26.46l.02.15.02.14c.03.14.1.2.23.2.3-.04.58-.1.84-.22.38-.08.72-.23 1.01-.44A2.59 2.59 0 0 0 9.8 8.82l.19-.38c.03-.07.05-.06.06.02 0 .01 0 .03-.03.05a13.66 13.66 0 0 1-.16.53c-.13.36-.42.67-.67.96l-.27.25-.27.24-.39.18c-.13.08-.13.1.02.05.35-.1.72-.29 1.12-.57-.09.13-.21.24-.38.34-.28.16-.54.27-.78.33-.12.03-.29 0-.4.05-.34.16-.68.26-1.01.3a.71.71 0 0 1-.37-.05c-.07-.03-.1-.08-.1-.16 0-.19-.01-.31-.02-.37-.02-.07-.06-.13-.13-.19l-.01-.04-.04.01a.06.06 0 0 0-.02.04c-.06.37-.04.73.05 1.07.13.46.34.87.64 1.24.1.13.25.25.44.36.17.1.33.08.48-.07.04-.05.06-.12.05-.2v-.07c.04-.1.06-.18.05-.22a2.16 2.16 0 0 1-.06-.3.74.74 0 0 0-.15-.2c-.1-.08-.15-.13-.17-.16-.13-.16-.17-.33-.25-.5-.02-.03-.03-.05-.02-.06a.04.04 0 0 1 .03-.02.04.04 0 0 1 .04.02l.24.42c0 .02.02.04.04.05.05.03.1.07.12.13.03.06.05.06.05-.01l.01-.38c0-.03.02-.05.04-.06l.02-.01a.02.02 0 0 1 .02 0 .02.02 0 0 1 .01.01l.03.37c.05.4.14.7.28.92.05.08.16.15.32.21.2-.07.37-.19.48-.37.03-.03.1-.09.1-.15l-.01-.08c-.07-.18-.16-.5 0-.62.1-.08.22-.12.35-.14.04 0 .06-.03.06-.07a.5.5 0 0 1 .07-.21c.12-.23.25-.44.41-.63a.22.22 0 0 1 .08-.06c.07-.03.09-.01.04.05a2.49 2.49 0 0 0-.48.9.03.03 0 0 0 .02.02H9.68c.04.04.03.06-.04.06-.15 0-.41.03-.52.15a.33.33 0 0 0-.1.16c-.02.17.01.18.09.02l.1-.08a.97.97 0 0 1 .4.03v.01c0 .02 0 .02-.02.02h-.26a.16.16 0 0 0-.16.13c-.01.1-.01.2 0 .28.02.08.07.16.15.24.19.2.42.3.69.33a.1.1 0 0 0 .05-.01.51.51 0 0 0 .2-.2c.01-.05.03-.05.04 0v.04l-.06.11c-.02.03-.01.04.02.03.1-.02.2-.08.32-.16s.23-.18.34-.29l.24-.25c.1-.1.16-.2.2-.31.25-.3.44-.6.58-.94l.03-.04c.01-.02.02-.02.02 0l.01.02c-.3.72-.69 1.32-1.18 1.77-.2.18-.45.29-.77.33a.76.76 0 0 1-.5-.1 1.31 1.31 0 0 1-.4-.37.04.04 0 0 0-.04 0l-.01.01c-.13.19-.28.32-.46.41a.52.52 0 0 1-.22.05.3.3 0 0 1-.2-.08l-.27-.23c-.02-.03-.03-.02-.03 0-.06.34-.24.5-.54.5-.02 0-.04 0-.06.02l-.47.24-.43.03-.17-.04c-.02 0-.03 0-.03.02.05.32.14.62.26.93-.02.03-.05.01-.1-.06-.13-.28-.2-.58-.24-.9a.05.05 0 0 0-.03-.04c-.2-.1-.39-.25-.57-.46a.62.62 0 0 1-.12-.24 6.07 6.07 0 0 0-.08-.27c-.01-.03 0-.08.03-.13.03-.15.1-.24.24-.3a2.7 2.7 0 0 0 .5-.32v-.03a4.3 4.3 0 0 1-.1-.32l-.04-.32v-.33c0-.2.03-.35.07-.5 0-.02 0-.04-.02-.06-.17-.2-.36-.36-.58-.5a.06.06 0 0 0-.06 0l-.31.1-.06.02a.1.1 0 0 1-.06 0 1.02 1.02 0 0 1-.24-.12c-.04-.03-.05-.07-.07-.12 0-.03 0-.03-.01-.01l.02-.04.05.01c.1.14.23.18.4.13l.2-.04.85-.48c.23-.04.42-.07.56-.06l.87.02c.2 0 .42-.04.66-.13A1.62 1.62 0 0 0 9 8.44c.14-.15.2-.31.19-.5l-.03-.1c0-.03 0-.05.03-.05.04 0 .08.01.11.03.02.01.03.03.03.05a.96.96 0 0 1-.43.8c-.06.04-.07.09-.05.15l.02.05c.01.26-.05.55-.18.86-.12.29-.28.5-.48.66Z" fill="#601700"/><path d="M5.21 7.85c.01.03.03.04.06.05.06.06.07.13.05.21l-.1.1c-.08 0-.12-.03-.12-.08l.01-.22c.03-.07.06-.08.1-.06Z" fill="#001F37"/><path d="M4.53 9.14c-.02.1-.01.16.02.18-.03.1-.01.16.06.22h.02l.01-.01c.02.05.03.09.07.12.08.05.16.08.24.11a.1.1 0 0 0 .06 0h.06c0 .02 0 .03-.01.02.04.02.05.05.02.08-.14.19-.24.33-.3.44-.13.23-.09.27.13.12a.8.8 0 0 0 .19-.21c.1-.16.24-.29.38-.42.08.03.14.07.18.11-.21.23-.4.47-.56.75a4.26 4.26 0 0 0-.57 1.3h-.04a14.46 14.46 0 0 1-.8-.52c-.06-.07-.14-.14-.22-.12A6.68 6.68 0 0 1 3 9.12c0-.07.01-.12.04-.18a.07.07 0 0 0 0-.06.36.36 0 0 1-.03-.2c.03-.34.05-.6.08-.76a.6.6 0 0 1 .28.1c.28.25.53.44.75.58.22.14.36.32.41.54Z" fill="#002748"/><path d="M15 8.65v.4c-.82.04-1.64 0-2.44-.12-.1-.02-.23-.01-.37 0a1.3 1.3 0 0 1-.07-.18.52.52 0 0 0-.08-.17 5.4 5.4 0 0 1-.16-.22c-.07-.1-.16-.21-.27-.32-.04-.03-.05-.06-.04-.08 0-.02.03-.04.07-.06.09.17.2.32.35.45l.04.06c.02.04.04.08.08.1.02.02.05.03.1.03.54.02 1.16.15 1.57.16.25 0 .65-.01 1.21-.05Z" fill="#F3F2F0"/><path d="m5.6 8.42-.25.05a.03.03 0 0 1-.04-.03v-.02c-.01-.03 0-.05.03-.06.1-.02.2 0 .27.03.03.02.03.03 0 .03Z" fill="#601700"/><path d="m10.38 8.38.3.45-.04.16c-.01.03 0 .03.01 0l.06-.08 1.31.06c.02 0 .04.01.04.03.1.26.14.52.14.78l-.13.74-.1.16a7.5 7.5 0 0 0-1.89-1.7c.15-.17.25-.37.3-.6Z" fill="#6C4335"/><path d="M4.54 9.15a.88.88 0 0 1 .2-.5c.03-.06.06-.1.1-.12.07-.07.08-.06.03.03a1.58 1.58 0 0 0-.28.63.03.03 0 0 1-.02.01h-.01c-.03-.01-.03-.03-.02-.05ZM9.8 8.82c-.2.69-.63 1.22-1.27 1.58.55-.43.97-.96 1.26-1.58Z" fill="#E8B3A5"/><path d="m8.2 10.39-.68.45c-.26.11-.54.18-.84.21-.12.01-.2-.05-.23-.19a1.5 1.5 0 0 1-.04-.29 1.14 1.14 0 0 0-.26-.46 2.21 2.21 0 0 0-.6-.5c-.02-.01-.02-.02-.01-.03l.03-.03h.01l.18.1c.06.02.11.05.16.1.19.17.33.32.43.43.09.1.15.21.2.33.03.11.07.18.12.22.1.06.21.06.35 0l.46-.18a1.23 1.23 0 0 0 .39-.24 2 2 0 0 1 .25-.25c.06-.04.1-.08.13-.12l.1-.13c.04-.04.05-.1.03-.16l.1-.24c0-.02.01-.03.03-.03.03 0 .04-.02.05-.05v-.21a.12.12 0 0 0-.03-.06c-.04-.05-.02-.1.04-.14l.08-.08a.04.04 0 0 1 .04-.02.04.04 0 0 1 .03.03c.03.11.03.22.01.32l-.06.3-.09.27c-.1.22-.22.43-.37.65Z" fill="#EF6568"/><path d="M15 9.05c0 .04 0 .1-.02.17-.52.02-1.01 0-1.49-.05-.1-.01-.13.02-.05.1l.15.12a.2.2 0 0 1 .06.08c.01.02 0 .04-.01.05-.03.01-.06.01-.1-.02a1 1 0 0 0-.37-.17.78.78 0 0 1-.2-.09 16.98 16.98 0 0 1-.71-.22l-.02.02v.03l.02.04a.1.1 0 0 0-.02.04l-.05-.22h.37c.8.12 1.62.16 2.44.12Z" fill="#8CC9D4"/><path d="M8.23 8.93c-.23.1-.45.14-.65.13l-.87-.02c-.14 0-.33.02-.56.06.18-.12.4-.17.64-.16l.9.02c.14 0 .31-.01.51-.07.02 0 .03 0 .03.02v.02Z" fill="#E8B3A5"/><path d="M8.57 8.92c-.06.04-.08.09-.04.14l.03.06v.21c0 .03-.02.05-.05.05a.05.05 0 0 0-.04.03l-.09.24c.05-.24.06-.46.04-.67 0-.02 0-.03.02-.04l.13-.02Z" fill="#9B2F2F"/><path d="m13.6 9.39.32.31h.02l-.23-.27c-.04-.04-.03-.06.02-.06L15 9.4a5.79 5.79 0 0 1-.4 1.78.45.45 0 0 0-.12-.21.06.06 0 0 1-.01-.05v-.03c-.21-.3-.46-.58-.75-.81a1.4 1.4 0 0 0-.38-.33c-.1-.05-.15-.13-.25-.18a1.32 1.32 0 0 1-.2-.1 1.26 1.26 0 0 0-.18-.12.42.42 0 0 1-.22-.1.09.09 0 0 0-.06-.02c-.07 0-.12-.04-.17-.11l-.02-.04v-.03l.01-.02a.04.04 0 0 1 .04 0 16.85 16.85 0 0 0 .67.22l.2.09a1 1 0 0 1 .38.17c.04.03.07.03.1.02.02-.01.02-.03.02-.05a.2.2 0 0 0-.07-.08Z" fill="#002748"/><path d="M6.64 9.8a.6.6 0 0 1 .22-.2l.05-.04.16-.17h.03l.01.02c0 .02.01.02.02 0l.07-.07a2.68 2.68 0 0 0-.25.93h.02v-.01a3 3 0 0 1 .28-.72c.1-.18.24-.32.4-.41.03-.03.06-.03.08 0 .01.02.03.03.05.03l.2-.04c.15-.04.25.01.28.17v.05a5.78 5.78 0 0 1-.55.84l.03.02c.02 0 .04 0 .05-.02l.4-.4h.02v.04c-.23.27-.45.46-.65.58-.25.13-.48.2-.71.2a.25.25 0 0 1-.2-.1.4.4 0 0 1-.08-.18.8.8 0 0 1 .07-.52Z" fill="#EF6568"/><path d="M12.26 9.1c.05.08.1.12.17.12l.06.02c.06.06.13.09.22.1l.19.12.2.1c.09.05.13.13.24.18.14.09.27.2.38.33.1.15.22.29.33.41l.07.1c.04.1.12.17.15.27.02.08.07.18.14.3a.12.12 0 0 1 .01.08l-.01.03-.03.02-.01.04c0 .02.01.04.03.05.02.02.03.04.01.08a.03.03 0 0 1-.04.01l-.01-.01-.07-.19v-.05c.02-.01.02-.02.02-.04s-.02-.03-.04-.03l-.04-.02a5.29 5.29 0 0 0-.3-.52c0-.02-.01-.02-.03-.02l-.02.01a.02.02 0 0 0-.01.01v.01c.2.33.36.67.46 1.04.03.08 0 .14-.05.18a3.68 3.68 0 0 0-.8-1.69 2.2 2.2 0 0 0-1.18-.72.07.07 0 0 1-.01-.03l-.05-.24c0-.01 0-.03.02-.04Z" fill="#F3F2F0"/><path d="m7.2 9.34-.07.08h-.02v-.03h-.04l-.16.17a.18.18 0 0 1-.05.03.6.6 0 0 0-.22.2c.1-.27.28-.47.55-.6a.5.5 0 0 0 .07-.04c.02-.02.05-.02.07-.02.07 0 .07.03.02.07-.06.04-.1.09-.15.14Z" fill="#9B2F2F"/><path d="M4.63 9.52c0-.02 0-.02.01.01l-.01.02H4.6c-.07-.07-.09-.14-.06-.23.04.05.06.11.08.2ZM5 9.58c.1-.01.14 0 .1.05-.17.04-.3 0-.4-.14a.15.15 0 0 1-.03-.1c0-.02.01-.03.02 0 .05.13.15.19.3.2ZM9.39 10.15c-.4.29-.77.48-1.12.57-.15.04-.15.03-.02-.05l.4-.18c.4-.2.69-.36.85-.5.16-.13.29-.26.38-.39.09-.11.1-.1.03.02-.12.22-.3.4-.52.53Z" fill="#E8B3A5"/><path d="m14.22 11.95-.26.43h-.02c-.02-.01-.02-.02-.01-.03v-.02c0-.02 0-.03-.03-.03a5.07 5.07 0 0 0-.43.1l-.02-.07.44-.14c.02-.01.03-.02.03-.05a.99.99 0 0 0-.06-.32 1.95 1.95 0 0 1-.15-.37 1.04 1.04 0 0 0-.1-.23 2.74 2.74 0 0 1-.1-.22.78.78 0 0 0-.11-.18.19.19 0 0 1-.04-.09l-.02-.1a.08.08 0 0 0-.02-.04.88.88 0 0 1-.21-.24.25.25 0 0 0-.1-.12c-.02 0-.06-.04-.14-.1a1.16 1.16 0 0 0-.2-.11c-.16-.08-.29-.18-.39-.31l.03-.14c0-.03.01-.03.04-.03.15.03.3.08.43.15.27.14.5.34.72.6.38.48.62 1.03.72 1.66Z" fill="#F3F2F0"/><path d="M7.47 10.12c-.06.04-.07.03-.03-.02l.37-.49h.02v.02c-.02.2-.18.38-.36.5Z" fill="#E8B3A5"/><path d="m5.37 12.33-.02-.01c.01-.33.04-.62.1-.87.06-.33.2-.64.4-.95.03-.03.03-.1 0-.2.03-.08.03-.14 0-.18a.37.37 0 0 0-.19-.22.45.45 0 0 0-.18-.1.21.21 0 0 0-.11-.06.1.1 0 0 0-.06.02.37.37 0 0 1-.25.02v-.03l.32-.1h.06c.22.14.41.3.58.5.02.02.03.04.02.07-.05.14-.07.3-.07.49v.33c0 .13.02.24.04.32a4.27 4.27 0 0 0 .1.35c0 .02 0 .03-.02.04-.14.1-.3.2-.48.27-.15.07-.21.16-.24.31Z" fill="#F3F2F0"/><path d="M12.28 9.7c.1.14.23.24.4.32l.2.12.12.09c.05.03.08.06.1.12.04.06.1.14.22.24l.03.05.01.1c0 .03.02.06.04.08.05.06.08.12.11.18l.1.22c.04.07.08.15.1.23.03.12.08.24.15.37.03.05.05.16.06.32 0 .03 0 .04-.03.05l-.44.14c-.1-.13-.21-.16-.3-.07-.09.07-.08.08.02.04.1-.05.18-.01.25.12v.01h.03l.02-.02h.06c.1-.03.22-.07.37-.1.03-.01.04 0 .04.02l-.01.02c-.01.01 0 .02.01.02l.02.01a5.35 5.35 0 0 1-1.37 1.41h-.1a.47.47 0 0 0-.28 0 2 2 0 0 0-.33.17.71.71 0 0 0-.3.47 5.87 5.87 0 0 1-2.55.56c-.05 0-.09-.03-.1-.08a.08.08 0 0 0-.05-.05c-.23-.11-.43-.1-.6.06a.08.08 0 0 1-.06.02c-.24 0-.45-.04-.64-.15a.1.1 0 0 1-.04-.04.5.5 0 0 0-.23-.24.06.06 0 0 1-.04-.04.56.56 0 0 0-.08-.18 15.13 15.13 0 0 0 1.55-.36H8.7l-1.55.27-.29-.62-.02-.02h-.02c-.02-.01-.02-.03 0-.05l.02-.02.47-.24a.11.11 0 0 1 .06-.02c.3.01.48-.15.54-.5 0-.02.01-.02.03 0l.27.23a.3.3 0 0 0 .2.08c.08 0 .16-.02.22-.05a1.16 1.16 0 0 0 .47-.42.04.04 0 0 1 .05.01c.1.14.23.26.4.35.15.1.32.13.5.1.31-.03.57-.14.76-.32.5-.45.89-1.05 1.18-1.77l.16-.42c.1-.27.14-.54.12-.81Z" fill="#B7AA97"/><path d="M5.48 9.8c-.14.12-.28.25-.38.4a.8.8 0 0 1-.19.22c-.22.15-.26.11-.13-.12l.3-.44c.02-.03.02-.06-.02-.08.1.02.18.01.25-.03a.1.1 0 0 1 .06 0c.04 0 .08.02.11.04Z" fill="#196378"/><path d="m12.2 9.78-.1.71-.03.03.13-.74Z" fill="#B7AA97"/><path d="M5.66 9.9c.1.06.16.13.18.22-.24.23-.45.5-.63.8l-.25.37h-.04a.02.02 0 0 1-.02-.03l.2-.61c.16-.27.35-.52.56-.75ZM14.6 11.17l-.18.42-.02.06c0 .1-.03.16-.1.21l-.02-.03c.06-.04.08-.1.05-.18a3.97 3.97 0 0 0-.45-1.06h.06l.3.53c0 .01.01.02.03.02.02 0 .03.01.04.03l-.01.04a.05.05 0 0 0-.01.05l.07.19a.03.03 0 0 0 .04.01l.01-.01c.02-.04.01-.06-.01-.08a.07.07 0 0 1-.03-.05l.01-.04c.01 0 .02 0 .03-.02a.1.1 0 0 0 .01-.03.1.1 0 0 0 0-.04l-.01-.04a1.16 1.16 0 0 1-.14-.3c-.03-.1-.1-.17-.15-.27a.38.38 0 0 0-.07-.1 3.48 3.48 0 0 1-.33-.41 3.86 3.86 0 0 1 .75.84l.01.05c.06.06.1.13.12.21Z" fill="#196378"/><path d="M5.84 10.12c.04.04.04.1.02.19-.15.12-.26.24-.34.36a4.9 4.9 0 0 0-.58 1.55l-.2-.1c.02-.17.06-.33.13-.46.06-.1.08-.17.1-.26l.1-.2c.05-.09.1-.18.14-.29.18-.3.39-.56.63-.8Z" fill="#002748"/><path d="M5.86 10.3c.02.1.02.17 0 .2-.21.3-.35.62-.42.95-.05.25-.08.54-.09.87-.04.07-.05.12-.04.15l.08.34a.43.43 0 0 1-.02.07c-.05.06-.08.05-.09-.03v-.17l-.03-.02-.02.01v.16c-.01.02-.02.03-.04.03l-.08-.06a.08.08 0 0 0-.05-.03c-.03 0-.06 0-.08.04a.04.04 0 0 1-.04.03l-.01-.01-.81-.5-.02.01v.02c.2.16.42.3.63.4l.2.13c.06.04.13.08.2.1a.05.05 0 0 1 .05.05l.02.15.04.04c.02.01.04 0 .04-.03v-.05c0-.03 0-.04.03-.03h.04l.05.2c.02.07.03.13.03.22s.01.19.04.3a5.5 5.5 0 0 1-1.6-1.74c-.11-.17-.23-.35-.3-.54l-.1-.25c.08-.02.16.05.22.12l.1.08a14.38 14.38 0 0 0 .74.44.05.05 0 0 0 .03-.03c.1-.45.29-.88.54-1.27l-.2.61a.02.02 0 0 0 0 .02l.01.01h.04l.26-.38-.14.3a.93.93 0 0 0-.1.18c-.03.1-.04.16-.1.27-.07.13-.11.29-.12.45L4.57 12h-.02l-.02.01v.04c.05.06.12.1.2.12l.05.02c.05.04.1.05.16.03.12-.58.32-1.1.58-1.54.08-.13.19-.25.34-.36Z" fill="#01354E"/><path d="M6.2 10.4c0 .03 0 .06-.02.09a2.82 2.82 0 0 0 .07 1.03 46.56 46.56 0 0 1 .27.61 2.48 2.48 0 0 0 .74.9c.04.01.04.03 0 .05a1.69 1.69 0 0 1-.44-.36c-.3-.37-.51-.78-.64-1.24a2.5 2.5 0 0 1-.05-1.07c0-.02 0-.03.02-.04l.04-.01v.04Z" fill="#E8B3A5"/><path d="M13.3 10.97c.05.07.08.1.08.12.07.25.1.43.08.53-.02.13-.1.2-.26.22a.7.7 0 0 1-.38-.05c-.06-.03-.11-.1-.14-.19-.06-.22-.1-.44-.1-.67-.02-.18.05-.31.2-.38h.06l.22.1c.06.04.12.1.17.2l.07.12Z" fill="#575048"/><path d="M11.94 10.96c-.14.33-.33.65-.57.94l.54-.96c.01-.02.02-.02.02 0v.02Z" fill="#B7AA97"/><path d="M8.44 12.95c-.16-.06-.27-.13-.32-.2a2.36 2.36 0 0 1-.28-1.37c0-.02.01-.05.03-.07.02-.02.03-.01.03.01l.03.41c.02.36.11.7.28 1.02.03.06.06.08.14.11.04.02.07.05.1.1ZM7.2 11.35c.09.18.13.35.26.51l.17.16c.06.06.1.12.15.2a1.48 1.48 0 0 1-.62-.85.02.02 0 0 1 .01-.02h.04Z" fill="#E8B3A5"/><path d="M5.63 12.41a.59.59 0 0 0-.13.08c-.06.05-.08.03-.07-.04.01-.14.07-.27.23-.33.13-.05.29-.13.48-.23.02-.01.04 0 .05.01l.2.39A2.13 2.13 0 0 0 7 13l.2.15v.03l-.34.2h-.02a.03.03 0 0 1-.03-.02c-.08-.18-.14-.33-.28-.47-.21-.21-.46-.37-.75-.47-.07-.02-.11-.02-.14-.01Z" fill="#7C513C"/><path d="M10.3 12.77v-.04c-.01-.05-.03-.05-.05 0a.51.51 0 0 1-.19.2.1.1 0 0 1-.05.01c-.27-.02-.5-.13-.69-.33a.51.51 0 0 1-.14-.24.83.83 0 0 1 0-.28.15.15 0 0 1 .15-.13h.26c.01 0 .02 0 .02-.02v-.01l-.02-.01a.97.97 0 0 0-.38-.02l.18-.03c.06 0 .12 0 .18.02.38.14.67.37.74.8v.05l-.01.03Z" fill="#9B2F2F"/><path d="m4.75 12.11.2.1a.18.18 0 0 1-.17-.03.15.15 0 0 0-.06-.02.36.36 0 0 1-.19-.12V12h.02v-.01h.02l.18.12Z" fill="#196378"/><path d="m13.45 12.33.02.08-.03.02a.02.02 0 0 1-.02-.01c-.07-.13-.15-.17-.25-.12-.1.04-.1.03-.02-.04.09-.09.2-.06.3.07Z" fill="#543930"/><path d="m5.4 12.81-.05.32-.04-.01c-.02 0-.03 0-.03.03v.06c0 .02-.02.03-.04.02a.1.1 0 0 1-.04-.04.68.68 0 0 1-.02-.15c0-.01 0-.02-.02-.03L5.14 13a.63.63 0 0 1-.21-.1 1.22 1.22 0 0 0-.2-.12 3.85 3.85 0 0 1-.63-.43l.01-.02.82.51a.04.04 0 0 0 .03 0h.01l.01-.02c.02-.03.05-.05.08-.04.02 0 .04.02.05.03l.08.06c.02 0 .03 0 .03-.03l.01-.15c0-.02.01-.02.02-.02l.02.02.01.17c0 .08.04.1.1.04l.01-.08Z" fill="#196378"/><path d="m5.35 12.32.02.01c-.03.05-.04.1-.03.13l.08.27c.03.1.07.18.12.24.18.2.37.36.57.46.02.01.03.02.03.04.03.32.1.62.23.9l-.05.03a.52.52 0 0 0-.24-.12c.03 0 .02-.02-.04-.06a.85.85 0 0 0-.1-.34.1.1 0 0 1-.01-.05c0-.02 0-.04.02-.05a.14.14 0 0 0 .04-.12.15.15 0 0 0-.06-.1c-.06-.06-.09-.07-.12-.16a.52.52 0 0 0-.2-.25h-.03c-.02 0-.02 0 0 .01l.04.03a.04.04 0 0 1 .02.03l.05.34c.04.07.05.14.03.21a.1.1 0 0 0 0 .06c.03.07.05.14.04.21l-.3-.2a1.6 1.6 0 0 1-.03-.3.81.81 0 0 0-.03-.21 4.64 4.64 0 0 1-.05-.2l.04-.32-.08-.34c-.01-.03 0-.08.04-.15Z" fill="#BFBFBF"/><path d="m12.48 13.25.26-.41.33-.32c.04-.05.1-.08.14-.08a.09.09 0 0 1 .07.01.09.09 0 0 1 .03.06c.01.06 0 .13-.04.2-.15.3-.34.54-.58.71a.29.29 0 0 1-.11.05c-.05.01-.09 0-.11-.03-.03-.04-.03-.1 0-.19Z" fill="#543930"/><path d="M5.54 12.88c-.07-.1-.07-.22.01-.33a.07.07 0 0 1 .05-.03c.11-.02.22-.01.3.03.17.07.32.17.47.3a1.16 1.16 0 0 1 .34.52.05.05 0 0 1-.04.04c-.08 0-.2 0-.38-.02a.7.7 0 0 1-.33-.12 1.66 1.66 0 0 1-.42-.4Z" fill="#9B2F2F"/><path d="m12.74 12.84-.26.41-.05.03-.02-.02-.02-.02v-.02l.01-.02.34-.36Z" fill="#E8B3A5"/><path d="M12.74 13.24c.07-.07.18-.2.33-.4 0-.02.02-.02.03 0h.01v.02l-.2.29a.82.82 0 0 1-.3.23l-.01-.01v-.02l.14-.1Z" fill="#7C513C"/><path d="m6.04 14.22-.28-.18c0-.07 0-.14-.03-.21a.1.1 0 0 1 0-.06.29.29 0 0 0-.04-.2v-.01l-.05-.34a.04.04 0 0 0-.02-.03l-.05-.03v-.02l.05.01c.09.07.15.15.19.25.03.09.06.1.13.15a.15.15 0 0 1 .05.11.14.14 0 0 1-.04.12.07.07 0 0 0-.02.05l.01.05c.06.1.1.22.1.34Z" fill="#196378"/><path d="M12.37 13.23c-.08.2-.05.3.17.36v.02l-.02.01a.28.28 0 0 1-.21-.08c-.12-.1-.05-.25.04-.33.03-.02.04-.02.02.02Z" fill="#543930"/><path d="m6.42 13.52.18.05c.02 0 .03.02.02.04-.03.03-.05.04-.07.03-.06-.01-.09.01-.08.08.01.2.06.37.14.53.01.02.03.03.05.02l.5-.07a76.54 76.54 0 0 0 1.57-.26c-.52.14-1.03.26-1.54.35l-.5.09c-.04 0-.04.02-.02.04l.06.1c.02.03.02.04-.02.03a.43.43 0 0 1-.23-.12c-.12-.3-.2-.61-.26-.93 0-.02.01-.03.03-.02l.17.04Z" fill="#F3F2F0"/><path d="M6.85 13.5a.07.07 0 0 0-.03.01l.01.04.02.01.02.02.3.62-.51.07c-.02 0-.04 0-.05-.02a1.32 1.32 0 0 1-.14-.53c0-.07.02-.1.08-.08.02 0 .05 0 .07-.03 0-.02 0-.04-.02-.04l-.18-.05.43-.03Z" fill="#696868"/><path d="M12.5 13.79c-.11.15-.25.27-.43.36-.12.06-.29.15-.5.28a.71.71 0 0 1 .31-.47 2 2 0 0 1 .33-.18.47.47 0 0 1 .28.01Z" fill="#575048"/><path d="m10.78 13.91-.05.03a.14.14 0 0 0-.07.18l.04.08c.03.07.11.1.18.07l.06-.03c.06-.03.1-.11.06-.18l-.04-.08a.14.14 0 0 0-.18-.07Z" fill="#696868"/></svg>