<!-- by TradingView --><svg width="18" height="18" viewBox="0 0 18 18" xmlns="http://www.w3.org/2000/svg"><path fill="url(#am0yqioh1)" d="M0 0h18v18H0z"/><path d="M9.45 10.4a.2.2 0 0 0 0-.22L7.05 6.1a.2.2 0 0 0-.17-.1H5.2a.2.2 0 0 0-.16.3l3.16 5.44a.2.2 0 0 0 .32 0l.94-1.35ZM13.8 12a.2.2 0 0 0 .16-.3l-3.24-5.6a.2.2 0 0 0-.17-.1H8.87a.2.2 0 0 0-.17.3l3.26 5.6c.04.06.1.1.17.1h1.68Zm-7.28-.35c.07.13-.02.35-.17.35H5.2c-.1 0-.2-.14-.2-.25V9.78c0-.2.27-.27.37-.1l1.16 1.97Z" fill="#fff"/><defs><linearGradient id="am0yqioh1" x1="3.35" y1="3.12" x2="21.9" y2="24.43" gradientUnits="userSpaceOnUse"><stop stop-color="#1A1E21"/><stop offset="1" stop-color="#06060A"/></linearGradient></defs></svg>