<!-- by TradingView --><svg width="18" height="18" viewBox="0 0 18 18" xmlns="http://www.w3.org/2000/svg"><path fill="#F0F3FA" d="M0 0h18v18H0z"/><path d="M8.13 3.25a1.6 1.6 0 0 1 1.74 0l3.26 2.06c.54.34.87.96.87 1.63v4.12c0 .67-.33 1.3-.87 1.63l-3.26 2.06a1.6 1.6 0 0 1-1.74 0l-3.26-2.06A1.92 1.92 0 0 1 4 11.06V6.94c0-.67.33-1.3.87-1.63l3.26-2.06Z" fill="#3D1D04"/><path d="m10.19 3.46 2.94 1.85c.23.14.41.33.55.55l-.72 1.32-2.77-2.63v-1.1Z" fill="#663C22"/><path d="m4 7.94 6.19-3.4V3.47l-.32-.2a1.6 1.6 0 0 0-1.74 0L4.87 5.3c-.54.34-.87.96-.87 1.63v1Z" fill="#644E26"/><path d="m8.43 14.9-.3-.15-3.26-2.06A1.9 1.9 0 0 1 4 11.26l4.5 2.56c.28.48.11.87-.08 1.08Z" fill="#613106"/><path d="M8.24 4.03a1.5 1.5 0 0 1 1.52 0l2.86 1.67c.47.28.75.79.75 1.34v3.35c0 .55-.28 1.05-.75 1.33l-2.86 1.67a1.5 1.5 0 0 1-1.52 0l-2.86-1.67a1.54 1.54 0 0 1-.76-1.33V7.04c0-.55.3-1.06.76-1.34l2.86-1.67Z" fill="#FFFED3"/><path d="M9.76 3.82c-.46-.3-1.02-.3-1.48 0l-2.8 1.82a1.5 1.5 0 0 0-.25.2l.16-.1 2.86-1.67a1.5 1.5 0 0 1 1.51 0l2.86 1.67c.1.05.2.12.28.2-.1-.12-.21-.22-.34-.3l-2.8-1.82Zm3.53 7.1c-.12.34-.35.62-.67.8L9.76 13.4a1.5 1.5 0 0 1-1.51 0l-2.86-1.66c-.28-.17-.5-.41-.63-.7.08.47.34.88.72 1.13l2.8 1.81c.46.3 1.02.3 1.48 0l2.8-1.81c.4-.27.67-.72.73-1.23Z" fill="url(#a1d2x4iaj)"/><path d="M9.36 13.55c-.38.1-.78.05-1.12-.16l-2.86-1.67a1.54 1.54 0 0 1-.75-1.33v.32c0 .6.29 1.15.75 1.45l2.83 1.8c.65.06 1-.18 1.15-.4Z" fill="#B94F23"/><path d="m5.7 10.47-.97-.56c.18.59.72.74.97.75l1.48 1.47.29-.3.12-.43-.57-.26-.43-1-.89.33ZM6.5 5.88c-.42-.22-1.13.38-1.43.7l.8.32c.39-.25 1.05-.8.63-1.02ZM8.61 7.87l-.26-.97 1.06-1.37 1.76-.31c.54.3 1.2.87 1.53 1.07.26.17.43.6.47.78V8.6l-.47.64-1.53.8-.37-1.62.72-1.24h-.45a1 1 0 0 1-.65 0c-.3-.1-.66.18-.8.33l-.55.55-.46-.19ZM11.52 12.03v-.5l.5.3-1.6.9c-.3.19-.74.3-.92.34l.11-.6 1.2-.53.71.09ZM8.61 11.14v-.38l.57-.43.58 1.2-1.15-.39Z" fill="#FADE67"/><path d="M5.74 10.6h-.62l.49.88 2.53 1.6.38.15-2.78-2.63ZM8.97 13.15l.54-.07v-.64c.62-.18.57-.65.47-.86l-1.46-.44.45 2.01ZM12.95 10.95l-1.4-1.12 1.59-1.64v1.82l-.19.94ZM9.6 5.5c-.42-.16-1 .06-1.24.2v1.25L9.61 5.5ZM9.6 7.5l.14-1.9.62 1.52c-.26-.15-.6.2-.75.39Z" fill="#F7B856"/><path d="m6.07 6.9-1.15-.3v3.26l.72.64 1.11-.46.11-1.8c.2-.1.6-.42.57-.9a.98.98 0 0 0-.57-.84l-.8.4ZM7.58 11.27l-.29 1.04c.59.76 1.11.91 1.3.9h.35l-.46-2.05-.9.1ZM11.95 11.84l-.84-.57.41-1.4V6.8l.83.82v1.42l-.83.81 1.41 1.06c0 .17-.66.68-.98.92ZM9.2 4.8l.13-.59c.36 0 1.61.84 2.19 1.25l-.89.12L9.2 4.8ZM9.2 10.38l-.72.45.11-.45.43-.34.18.34Z" fill="#FCC45A"/><path d="m8.1 11.44.43-.41v-.6l.28-.41.18.08V8.35l-1.2-1.2-.69.28L6.71 7c-.7.5-.16 1.26.2 1.58l-.3 1.53.43 1 1.06.34ZM9.88 11.44l-.43-.41v-.6l-.28-.41-.18.08V8.35l1.2-1.2.68.28.5-.5c.7.49.06 1.32-.3 1.64l.3 1.53-.44 1-1.05.34Z" fill="#6C3320"/><path d="M7.85 7.59 9 8.69v1.32h-.18l-.24.43V11l-.45.44-.96-.32-.32-1 .14-1.54a1.9 1.9 0 0 1-.4-.42c-.2-.36.09-.64.26-.74 0 .16.22.36.32.44l.68-.27Z" fill="url(#b1d2x4iaj)"/><path d="M10.14 7.59 9 8.69v1.32h.18l.24.43V11l.44.44.95-.32.32-1L11 8.58c.14-.09.32-.32.4-.42.2-.36-.1-.64-.26-.74 0 .16-.22.36-.32.44l-.67-.27Z" fill="url(#c1d2x4iaj)"/><path d="m8.35 10.34-.27-.79.53.26-.26.53ZM9.63 10.34l.26-.79-.52.26.26.53Z" fill="#FFFBC8"/><path fill-rule="evenodd" d="M11.75 6.47 9.5 5.12a.97.97 0 0 0-1 0L6.25 6.47c-.3.19-.5.53-.5.89v2.7c0 .36.2.7.5.9L8.5 12.3c.3.19.7.19 1 0l2.25-1.35c.3-.18.5-.53.5-.89v-2.7c0-.36-.2-.7-.5-.89ZM9.6 4.94a1.15 1.15 0 0 0-1.2 0L6.16 6.29c-.37.22-.6.63-.6 1.07v2.7c0 .44.23.85.6 1.08l2.24 1.35c.37.22.83.22 1.2 0l2.24-1.35c.37-.23.6-.64.6-1.08v-2.7c0-.44-.23-.85-.6-1.07L9.6 4.94Z" fill="#FFFDCF"/><path d="M9.6 4.94a1.15 1.15 0 0 0-1.2 0L6.16 6.29c-.37.22-.6.63-.6 1.07v2.7c0 .22.06.43.16.6V8.09c0-.46.21-.88.56-1.11l2.14-1.41c.35-.23.78-.23 1.13 0l2.14 1.4c.35.24.57.66.57 1.12v2.64c.11-.2.18-.42.18-.66v-2.7c0-.44-.23-.85-.6-1.07L9.6 4.94Z" fill="#9C5C34"/><defs><linearGradient id="a1d2x4iaj" x1="9.02" y1="3.6" x2="9.02" y2="14.2" gradientUnits="userSpaceOnUse"><stop stop-color="#FFFEDA"/><stop offset="1" stop-color="#7C4129"/></linearGradient><linearGradient id="b1d2x4iaj" x1="7.76" y1="7.42" x2="7.76" y2="11.44" gradientUnits="userSpaceOnUse"><stop stop-color="#B7813C"/><stop offset="1" stop-color="#733A23"/></linearGradient><linearGradient id="c1d2x4iaj" x1="10.23" y1="7.42" x2="10.23" y2="11.44" gradientUnits="userSpaceOnUse"><stop stop-color="#B7813C"/><stop offset="1" stop-color="#733A23"/></linearGradient></defs></svg>