<!-- by TradingView --><svg width="18" height="18" viewBox="0 0 18 18" xmlns="http://www.w3.org/2000/svg"><path fill="#F0F3FA" d="M0 0h18v18H0z"/><path d="M5.82 5c.23.06.4.18.49.36.04.1.07.27.07.52v5.7c1.05-.02 3.13 0 3.13 0 .2 0 .35.01.42.04.32.11.51.55.43.87-.07.26-.24.43-.53.51H5.57a.7.7 0 0 1-.57-.64V5.68c.02-.35.2-.58.55-.68h.27Z" fill="url(#a)"/><path d="M9.14 5c.23.06.39.18.48.36.04.1.07.26.07.5v3.47c0 .18-.02.32-.05.4-.22.56-1.08.55-1.3-.02a1.2 1.2 0 0 1-.03-.36V5.89c0-.26.02-.43.07-.53A.7.7 0 0 1 8.86 5h.28Z" fill="url(#b)"/><path d="M12.44 5c.33.08.52.29.56.62v.78a.13.13 0 0 0 0 .09V8.02a.39.39 0 0 0 0 .16v1.31a.67.67 0 0 1-.28.52.7.7 0 0 1-.84-.01.61.61 0 0 1-.25-.52V5.92c0-.27.01-.45.06-.55.08-.18.24-.3.48-.37h.27Z" fill="url(#c)"/><defs><linearGradient id="a" x1="10.86" y1="10.94" x2="7.74" y2="13.29" gradientUnits="userSpaceOnUse"><stop stop-color="#DC417F"/><stop offset="1" stop-color="#4300E1"/></linearGradient><linearGradient id="b" x1="10.36" y1="5.34" x2="9.11" y2="10.17" gradientUnits="userSpaceOnUse"><stop stop-color="#FB7A46"/><stop offset="1" stop-color="#C4378E"/></linearGradient><linearGradient id="c" x1="13.79" y1="6.27" x2="11.76" y2="10.71" gradientUnits="userSpaceOnUse"><stop stop-color="#FEC208"/><stop offset="1" stop-color="#FB7748"/></linearGradient></defs></svg>