<!-- by TradingView --><svg width="18" height="18" viewBox="0 0 18 18" xmlns="http://www.w3.org/2000/svg"><path fill="#F0F3FA" d="M0 0h18v18H0z"/><path d="m9 3-5 9h10L9 3Z" fill="#C5FC23"/><path d="M4 6v6l5-9-5 3Z" fill="#99F73F"/><path d="M14 6 9 3l5 9V6Z" fill="#0DA086"/><path d="m9 15 5-3H4l5 3Z" fill="#3FD132"/><path d="M6.07 10.48 9 3.14l-.57 7.33h1.12L9 3.15l2.95 7.38-2.18 1.44H8.23l-2.16-1.48Z" fill="#F5FF8C"/><path fill-rule="evenodd" d="M6.1 10.69a.19.19 0 0 1-.09-.23l2.8-7.33A.2.2 0 0 1 9 3a.2.2 0 0 1 .19.13l2.8 7.33c.03.08 0 .18-.08.23l-2.02 1.28a.2.2 0 0 1-.11.03H8.22a.2.2 0 0 1-.1-.03l-2.03-1.28Zm2.28-.16h1.24L9 3.19l2.8 7.34-2.02 1.28H8.22L6.2 10.53 9 3.19l-.62 7.34ZM9 5.59l-.4 4.74h.8L9 5.6Z" fill="#636363"/></svg>