<!-- by TradingView --><svg width="18" height="18" fill="none" xmlns="http://www.w3.org/2000/svg"><path fill="#F0F3FA" d="M0 0h18v18H0z"/><path fill-rule="evenodd" clip-rule="evenodd" d="M11.942 6.491c-.361 1.453-1.13 4.518-1.32 5.155a2.23 2.23 0 01-.416.812A1.641 1.641 0 019 13c-.577 0-.916-.234-1.2-.572-.226-.27-.325-.59-.368-.729a2.482 2.482 0 00-.012-.038l-.007-.02c-.284-1.119-.983-4.446-1.32-5.332C6.048 6.12 5.862 6 5.579 6 5.123 6 5 6.594 5 6.92c0 .351-.036.64-.375.64A.638.638 0 014 6.92v-.478c0-.17.19-.592.432-.875.257-.302.66-.567 1.22-.567 1.007 0 1.34.688 1.457 1.176l1.325 5.363c.198.609 1.094.613 1.262.05l1.228-5.444C11.052 5.688 11.402 5 12.396 5 13.434 5 14 5.652 14 6.59v5.77c0 .351-.161.64-.5.64-.339 0-.5-.285-.5-.636V6.442c-.031-.305-.379-.442-.476-.442-.204-.016-.423.119-.53.33l-.052.161zM4.5 10.12c.276 0 .5.292.5.652v1.576c0 .36-.224.652-.5.652s-.5-.292-.5-.652v-1.576c0-.36.224-.652.5-.652z" fill="#072D3A"/><path d="M3.676 9.425a.601.601 0 010-.85l.399-.399a.601.601 0 01.85 0l.399.399a.601.601 0 010 .85l-.399.399a.601.601 0 01-.85 0l-.399-.399z" fill="#F8B739"/></svg>