<!-- by TradingView --><svg width="18" height="18" viewBox="0 0 18 18" xmlns="http://www.w3.org/2000/svg"><path fill="#F0F3FA" d="M0 0h18v18H0z"/><path d="M5.8 5.77a1.37 1.37 0 0 1 2.47 0L12.14 13H4.47c-1.13 0-1.84-1.32-1.27-2.37l2.6-4.86Z" fill="#1977F3"/><path d="M12.2 5.77a1.37 1.37 0 0 0-2.47 0L6.98 10.9c-.5.93.13 2.1 1.13 2.1h5.42c1.13 0 1.84-1.32 1.27-2.37l-2.6-4.86Z" fill="#002F81"/><path d="M8.1 13h4.04L9 7.13 6.98 10.9c-.5.93.13 2.1 1.13 2.1Z" fill="url(#a4efuteag)"/><defs><linearGradient id="a4efuteag" x1="7.02" y1="11.8" x2="13.12" y2="11.8" gradientUnits="userSpaceOnUse"><stop offset=".12" stop-color="#1C6AD9"/><stop offset=".76" stop-color="#1C6AD9" stop-opacity="0"/></linearGradient></defs></svg>