<!-- by TradingView --><svg width="18" height="18" viewBox="0 0 18 18" xmlns="http://www.w3.org/2000/svg"><path fill="url(#a)" d="M0 0h18v18H0z"/><path d="M14 6v.02L7.4 12H4v-.02L10.61 6H14Zm-1.87 4L14 11.98v.01l-.01.01H10.6l-1.28-1.35v-.02L10 10H12.14ZM7.29 6c.09 0 .15.02.18.05l1.2 1.33c.02.02.02.04 0 .06l-.6.54a.05.05 0 0 1-.05.02h-2.2l-.02-.01L4 6.02v-.01h3.25L7.3 6Z" fill="#fff"/><defs><linearGradient id="a" x1="3.35" y1="3.12" x2="21.9" y2="24.43" gradientUnits="userSpaceOnUse"><stop stop-color="#1A1E21"/><stop offset="1" stop-color="#06060A"/></linearGradient></defs></svg>