<!-- by TradingView --><svg xmlns="http://www.w3.org/2000/svg" width="18" height="18" viewBox="0 0 18 18"><path fill="#C10606" d="M0 0h18v18H0z"/><path d="M12.25 9.94c-.22 1.07-1.15.9-1.15.9-1.01-.14-.92-1.6-.92-1.6h2.07v.7zm-4.8.9s-.94.23-1.16-.84v-.76h2.09s.09 1.46-.92 1.6zM6.26 7.5s-.45.02-.45-.43v-.5H4.7V8.2H3.36v1.04H4.7v.62H3.36V11l1.5-.01S5.25 13 7.23 13c.08 0 1.36 0 2.04-1.3.56 1.3 1.95 1.3 2.04 1.3 1.97 0 2.4-2 2.4-2h1.51V9.86h-1.36v-.62h1.36V8.2h-1.38V6.59h-1.09v.5c0 .44-.45.42-.45.42H6.25z" fill="#7F0404"/><path d="M12 9.53c-.22 1.07-1.15.9-1.15.9-1.01-.14-.86-.93-.86-1.43h2v.53zm-4.8.9s-.94.17-1.16-.9V9h2.09s.09 1.3-.92 1.43zM6 7.1s-.45.02-.45-.42v-.5h-1.1v1.61H3.07V9h1.37v.45H3.1v1.22H4.6s.42 2 2.38 2c0 0 1.42.13 2.05-1.3.62 1.43 2.04 1.3 2.04 1.3 1.97 0 2.38-2 2.38-2H15V9.45h-1.38v-.54h1.36V7.8H13.6V6.18h-1.1v.5c0 .44-.45.42-.45.42H6z" fill="#CCC"/><path d="M11.84 9.26c-.21 1.07-1.12.9-1.12.9-1-.14-.92-1.5-.92-1.5h2.04v.6zm-4.76.9s-.88.17-1.1-.9v-.6H8s.1 1.36-.92 1.5zM5.82 7s-.45.02-.45-.43V6h-.93v1.67H3v1h1.44v.66H3v1h1.5s.39 2 2.36 2c0 0 1.42.14 2.04-1.3.63 1.44 2.04 1.3 2.04 1.3 1.97 0 2.28-2 2.28-2h1.54v-1h-1.38v-.66h1.38v-1h-1.38V6h-.92v.57c0 .45-.46.43-.46.43H5.82z" fill="#F2F2F2"/></svg>