<!-- by TradingView --><svg width="18" height="18" viewBox="0 0 18 18" xmlns="http://www.w3.org/2000/svg"><path fill="#181B1E" d="M0 0h18v18H0z"/><path d="M9 5a4 4 0 1 1 0 8 4 4 0 0 1 0-8Zm.85 1A2.93 2.93 0 0 0 7 9c0 1.66 1.28 3 2.85 3a2.93 2.93 0 0 0 2.85-3c0-1.66-1.28-3-2.85-3Z" fill="#03FFA3"/><path d="M11.05 5.6c1.35-.62 2.42-.8 2.8-.35.66.76-.97 3.06-3.65 5.13-2.68 2.07-5.4 3.14-6.05 2.37-.39-.44 0-1.4.91-2.52-.6.82-.84 1.5-.56 1.82.56.64 2.93-.32 5.28-2.15 2.36-1.82 3.83-3.82 3.27-4.46-.28-.33-1.03-.24-2 .16Z" fill="#03FFA3"/></svg>