<!-- by TradingView --><svg width="18" height="18" viewBox="0 0 18 18" xmlns="http://www.w3.org/2000/svg"><path fill="#181B1E" d="M0 0h18v18H0z"/><path d="M8 8h.57c.24 0 .43.22.43.5s-.2.5-.43.5H8V8Z" fill="#FAFFFE"/><path d="M2 12V8c0-1.1.85-2 1.83-2 .98 0 1.84.9 1.84 2v2.06c0 .52.2.94.65.94.47 0 .68-.42.68-.94V8C7 6.9 8.02 6 9 6c1.31 0 2 .96 2 2.06v2c0 .52.12.94.7.94.45 0 .63-.42.63-.94V8c0-1.1.86-1.99 1.84-1.99.98 0 1.83.9 1.83 2v4h-1V7.94c0-.52-.37-.94-.83-.94-.46 0-.84.42-.84.94V10c0 1.1-.66 1.99-1.64 1.99-.98 0-1.69-.9-1.69-2V7.95C10 7.42 9.46 7 9 7c-.46 0-1 .42-1 .94V10C8 11.1 7.3 12 6.32 12s-1.65-.9-1.65-2V7.95c0-.52-.38-.94-.84-.94-.46 0-.83.42-.83.94V12H2Z" fill="#62E8B9"/></svg>