<!-- by TradingView --><svg width="18" height="18" viewBox="0 0 18 18" xmlns="http://www.w3.org/2000/svg"><path fill="#F0F3FA" d="M0 0h18v18H0z"/><path d="M9 3a133.53 133.53 0 0 1 .18 1.88c0 .04.03.06.04.09 0 .01 0 .03-.03.04h-.45l-.01-.11-.01-.1a49.8 49.8 0 0 0-.27-1.34l-.07-.43C8.58 3.01 8.8 3 9 3Z" fill="#F7CE5B"/><path d="M10.03 3.09v.16a119.15 119.15 0 0 0-.17 1.82 16 16 0 0 1-.03.08A44.52 44.52 0 0 1 9.2 5l.03-.04-.04-.09A133.53 133.53 0 0 0 9.01 3c.34 0 .68.03 1.02.09ZM8.38 3.03l.07.43A49.75 49.75 0 0 1 8.74 5l-.52.07a1.77 1.77 0 0 1-.13-.16 77.28 77.28 0 0 0-.6-1.72c.3-.08.6-.13.89-.16Z" fill="#FFA13D"/><path d="M10.03 3.09c.22.04.43.08.62.14a8.34 8.34 0 0 0-.19.94l-.2 1.1-.43-.12a15.03 15.03 0 0 0 .05-.17l.04-.5a119.15 119.15 0 0 1 .1-1.4ZM7.5 3.19l.07.27a77.28 77.28 0 0 1 .56 1.5l.1.1-.69.2a.5.5 0 0 0-.04-.18 354.82 354.82 0 0 0-.86-1.6l.14-.06c.24-.1.48-.17.72-.23Z" fill="#F7CE5B"/><path d="M10.65 3.23c.28.08.55.18.8.3-.03.08-.1.24-.18.5a61.6 61.6 0 0 1-.46 1.27.33.33 0 0 1-.1.12l-.45-.16a36.27 36.27 0 0 1 .4-2.03ZM6.64 3.48l.1.2.2.35.56 1.05a.5.5 0 0 1 .04.17l-.37.14a.06.06 0 0 1-.05 0l-.26-.17v-.06a.03.03 0 0 0-.02-.01.4.4 0 0 1-.07-.07l-.23-.29a50.3 50.3 0 0 0-.63-.89l-.06-.01c.26-.16.52-.3.8-.41Z" fill="#FFA13D"/><path d="M11.45 3.52c.24.1.47.23.7.37a2.38 2.38 0 0 0-.06.15.92.92 0 0 1-.08.13v.02l-.01.03-.52.97a.4.4 0 0 0-.03.16 2.47 2.47 0 0 0-.53.22h-.02l-.19-.15c.06-.05.1-.09.1-.12l.16-.46a61.6 61.6 0 0 0 .48-1.32ZM5.85 3.89l.06.01.02.02a8.89 8.89 0 0 0 .61.87l.23.3a.4.4 0 0 0 .07.06.03.03 0 0 1 .01.01v.06a3.1 3.1 0 0 0-1-.4 1 1 0 0 0-.16-.21c-.1-.12-.2-.2-.26-.27a.5.5 0 0 1-.07-.11l.5-.34Z" fill="#F7CE5B"/><path d="M12.15 3.89c.23.15.45.3.66.47l-.36.51a.68.68 0 0 1-.14.14l-.01.02c0 .03 0 .05.04.05l-.9.27c.01-.07.03-.13.05-.16a100.6 100.6 0 0 0 .66-1.3ZM5.36 4.23a.5.5 0 0 0 .07.1l.26.28a1 1 0 0 1 .16.21c-.09 0-.18 0-.26-.02a.46.46 0 0 0-.13 0 .2.2 0 0 0-.11.06.41.41 0 0 0-.08.13c-.04.12-.08.25-.1.39A.59.59 0 0 1 5 5.3l-.42-.36c.23-.25.5-.5.78-.71Z" fill="#FFA13D"/><path d="M12.8 4.36a4.14 4.14 0 0 1 .53.5c-.1 0-.21 0-.32.04l-.66.18c-.04 0-.06-.02-.05-.05l.01-.02.14-.14c.11-.17.23-.34.36-.5Z" fill="#F7CE5B"/><path d="M5.85 4.82a3.1 3.1 0 0 1 1.01.4l.26.16a.06.06 0 0 0 .05.01l.37-.14.68-.18.51-.07.46.01a45.01 45.01 0 0 0 .64.13l.43.12.45.16.19.14a.05.05 0 0 0 .05 0c.16-.08.32-.16.5-.21.3-.1.6-.2.9-.27L13 4.9a.94.94 0 0 1 .33-.04l.04.03.07.09c-.15-.02-.3 0-.45.04l-.38.11a16.13 16.13 0 0 0-1.5.47 1.15 1.15 0 0 0-.22.13.03.03 0 0 1-.03-.01.31.31 0 0 0-.09-.11.79.79 0 0 0-.18-.1 5.1 5.1 0 0 0-1.1-.32 2.38 2.38 0 0 0-.8-.07 7.73 7.73 0 0 0-1.57.4 4.6 4.6 0 0 0-.7-.4c-.15-.06-.31-.1-.44-.14l-.24-.05a2.06 2.06 0 0 1-.27-.02.23.23 0 0 0-.09.11c-.06.17-.1.33-.12.47a7 7 0 0 0-.04.96l.05.36a2.4 2.4 0 0 0 .1.48l-.05.16-.06.33c-.04.32-.02.61.01 1.02a7.6 7.6 0 0 0 .16.8 8.05 8.05 0 0 0 .25.68c-.04 0-.07-.01-.09-.04l-.1-.16a.01.01 0 0 0-.02 0 230.65 230.65 0 0 0-.32.64l-.1.25a11.53 11.53 0 0 1-.23.86 38.88 38.88 0 0 0-.18.8l-.03.44a1.08 1.08 0 0 1-.09-.07c-.02-.02-.03-.05-.02-.1v-.2c0-.03.02-.06.04-.07v-.02l.03-.2a7.78 7.78 0 0 0 .2-.9l.1-.33.04-.13c.04-.16.1-.31.16-.47l.35-.63a.04.04 0 0 0 0-.04l-.05-.12-.14-.47a6.41 6.41 0 0 1-.09-.72l-.02-.43c0-.2.02-.4.06-.61l.06-.26v-.08l-.07-.26-.08-.6v-.24c.01-.24.04-.48.07-.74l.11-.4a.41.41 0 0 1 .08-.12.2.2 0 0 1 .11-.07l.13.01.26.02Z"/><path d="M13.44 4.98c.03.01.05.03.05.05l.04.1c.01.13-.09.26-.16.37-.07.1-.12.23-.18.35a5.07 5.07 0 0 0-.32.63l-.15.26a7.86 7.86 0 0 0-.27.43l-.1.13c-.02.03-.03.04-.02.06l.04.03c.04.01.06.04.08.07a24.3 24.3 0 0 1 .37.68c.03.08.08.16.12.23l.05.15.05.15a1.27 1.27 0 0 1 .04.49l-.03.2c0 .12-.04.24-.07.33l-.19.36a1.8 1.8 0 0 1-.22.3l.05-.18.04-.12c.06-.11.1-.24.13-.37l.07-.4c.02-.11.02-.26 0-.41a8.2 8.2 0 0 0-.14-.52 3.1 3.1 0 0 0-.35-.76l-.17-.28a.63.63 0 0 0-.06-.09 1.21 1.21 0 0 1-.06-.08.8.8 0 0 0-.18-.2 2.33 2.33 0 0 0-.56-.3.46.46 0 0 0-.23-.03l-.27.06a.57.57 0 0 0-.18.08c-.05.05-.1.1-.12.17a1.3 1.3 0 0 0-.09.5v.38a.2.2 0 0 1-.02.12c-.03.05-.07.06-.12.02a10.88 10.88 0 0 0-.45-.75.86.86 0 0 0-.56-.37 2.89 2.89 0 0 0-.5-.05c-.22-.01-.4.04-.58.16a1.94 1.94 0 0 0-.62.64c-.12.2-.2.33-.32.45a.64.64 0 0 1-.36.15 131.33 131.33 0 0 0-.56.08.73.73 0 0 0-.3.35c-.07.14-.12.3-.16.47-.03.14-.03.28 0 .43.05.25.13.47.24.66l.16.22c.17.18.34.35.53.5l.11.14a2.42 2.42 0 0 1-.68-.4h-.04v.01H6.2c-.02.04-.01.06.01.09a2.44 2.44 0 0 0 .73.45.33.33 0 0 1-.21 0c-.22-.06-.38-.1-.48-.11-.2-.02-.4-.03-.55.06a1.3 1.3 0 0 0-.37.3.4.4 0 0 0-.08.13c-.08.27-.17.54-.28.83-.03.1-.05.2-.05.3a3.15 3.15 0 0 0 .12.66c0 .06.04.13.1.21v.06a5.62 5.62 0 0 1-.54-.54l.03-.45v.02h.01l.04-.26a38.88 38.88 0 0 1 .37-1.41 3.46 3.46 0 0 1 .2-.5 240.48 240.48 0 0 1 .24-.39l.1.16c0 .03.04.04.08.04.03-.02.04-.04.02-.06l-.12-.23a8.06 8.06 0 0 1-.25-.79 7.6 7.6 0 0 1-.06-.4c-.03-.4-.05-.7 0-1.02l.05-.33c0-.06.03-.11.05-.16v-.02a2.4 2.4 0 0 1-.1-.46l-.05-.36a7 7 0 0 1 .04-.96c.02-.14.06-.3.12-.47a.23.23 0 0 1 .1-.1l.01-.01.25.02c.07 0 .15.02.24.05.13.04.29.08.43.14a4.6 4.6 0 0 1 .73.4l.23-.09a7.73 7.73 0 0 1 1.31-.3c.27-.03.54-.01.8.06l.54.13c.18.04.37.1.57.18.06.02.12.06.18.1l.09.12a.03.03 0 0 0 .03.01h.01a4.05 4.05 0 0 1 .6-.28c.36-.12.73-.22 1.11-.32l.38-.11c.15-.04.3-.06.45-.04ZM6.47 6.1 6.53 6c.02-.04.02-.08 0-.1a2.85 2.85 0 0 0-.25-.25.78.78 0 0 0-.16-.11.83.83 0 0 0-.34-.12c-.07 0-.11.03-.11.1a5.42 5.42 0 0 0 .16 1.12c.03.1.09.27.21.16a1 1 0 0 0 .26-.34l.17-.35Zm5.55-.14a2.9 2.9 0 0 0-.26.25c-.05.04-.1.09-.09.14l.03.06.16.15c.12.1.22.23.3.37l.04.06c.06.03.11-.02.14-.07.03-.02.07-.08.14-.18l.34-.5c.12-.18.2-.34.27-.5.02-.04.04-.15-.02-.18a.22.22 0 0 0-.11-.03c-.1 0-.2 0-.3.04a2.75 2.75 0 0 0-.65.39Z" fill="#E5C588"/><path d="M4.58 4.94 5 5.3l.16.08a10.74 10.74 0 0 0-.07.98c-.05-.12-.04-.26-.05-.39a.04.04 0 0 0-.01-.03L4.2 5.4l.37-.45Z" fill="#F7CE5B"/><path d="M13.63 5.26a.43.43 0 0 1-.07.17c-.09.12-.16.25-.21.38a6.66 6.66 0 0 0-.43.84l-.4.64a.05.05 0 0 0 0 .06l.15.24.15.26.24.49.1.33c.05.2.06.4.02.59l-.04.33-.04.12-.2.4-.26.36-.32.39-.29.3v.03l.02.04a6.11 6.11 0 0 1 .52 1.89 2.29 2.29 0 0 0 .02.18v.14l.02.13v.21c-.09.1-.12.1-.12.01a5.01 5.01 0 0 0-.13-1.18 8.13 8.13 0 0 0-.44-1.36 4.69 4.69 0 0 1-.83.43l-.2.04a.05.05 0 0 1-.05-.03l-.01-.02c0-.03 0-.05.03-.06.22-.05.36-.1.44-.13l.48-.27c.1-.07.2-.15.3-.26a7.5 7.5 0 0 0 .9-1.26c.03-.09.06-.21.07-.33a49.98 49.98 0 0 1 .04-.4c0-.1-.03-.2-.05-.29a5.36 5.36 0 0 1-.1-.3c-.04-.07-.09-.15-.12-.23l-.15-.3-.22-.38a.17.17 0 0 0-.08-.07l-.04-.03.02-.06a40.32 40.32 0 0 0 .2-.27 7.86 7.86 0 0 1 .32-.55L13 6.2c.02-.05.08-.17.19-.35.06-.12.11-.24.18-.35.07-.11.18-.24.16-.38V5.1h.02c.06.04.09.09.08.16Z"/><path d="m13.84 5.46-.3.25-.2.1c.06-.13.13-.26.22-.38.03-.05.06-.1.07-.17v-.02h.03l.02.01.16.2ZM4.2 5.39l.83.55a.04.04 0 0 1 .01.03c0 .13 0 .27.06.4l.07.6a.53.53 0 0 1-.23-.06 29.68 29.68 0 0 0-1.3-.6c.15-.31.34-.62.57-.92Z" fill="#FFA13D"/><path d="m6.47 6.1-.17.36a1 1 0 0 1-.26.34c-.12.11-.18-.07-.2-.16a5.42 5.42 0 0 1-.17-1.11c0-.08.04-.11.11-.1.12 0 .22.05.34.11.07.04.12.07.16.11l.24.24c.03.03.04.07.01.1a2.8 2.8 0 0 1-.06.12Zm-.17-.27a1 1 0 0 0-.5-.28.03.03 0 0 0-.01.02 6.2 6.2 0 0 0 .2 1.13.02.02 0 0 0 .01 0 .86.86 0 0 0 .18-.26l.22-.46c.02-.02.01-.04 0-.07a1.82 1.82 0 0 1-.1-.08Z"/><path d="m14.12 5.87-.96.66-.16.13a.09.09 0 0 1-.04.01c-.04.01-.05 0-.04-.02l.18-.39c.03-.08.12-.23.25-.45l.18-.1.31-.25.28.41Z" fill="#F7CE5B"/><path d="M12.02 5.97a2.75 2.75 0 0 1 .65-.39c.1-.03.19-.04.29-.04.05 0 .09.01.11.03.06.03.04.14.02.19a2.9 2.9 0 0 1-.27.49 29.28 29.28 0 0 1-.47.68c-.04.05-.09.1-.14.07-.02 0-.03-.03-.05-.06a1.45 1.45 0 0 0-.3-.37 1.55 1.55 0 0 1-.16-.15.18.18 0 0 1-.03-.06c-.01-.05.05-.1.09-.14.08-.1.17-.18.26-.25Zm.22.87h.02a9.01 9.01 0 0 1 .2-.26 12.53 12.53 0 0 1 .39-.6 26.01 26.01 0 0 1 .14-.3.03.03 0 0 0-.01-.01h-.01c-.1-.02-.19-.01-.29.03-.2.1-.36.2-.51.3-.14.1-.26.21-.37.32v.05c.07.05.14.11.22.2.07.06.15.16.22.27Z"/><path d="m6.3 5.83.1.08c.01.03.02.05 0 .07-.06.1-.13.26-.22.46a.86.86 0 0 1-.19.26.02.02 0 0 1-.03-.01 6.2 6.2 0 0 1-.16-1.14h.02a1 1 0 0 1 .48.28ZM12.24 6.84c-.07-.11-.15-.2-.22-.28a3.02 3.02 0 0 0-.21-.19c-.02-.01-.02-.03 0-.05.1-.1.22-.21.36-.31.15-.12.32-.22.51-.3a.53.53 0 0 1 .3-.04.03.03 0 0 1 0 .01l.01.01-.02.06a24.11 24.11 0 0 0-.25.44 12.56 12.56 0 0 0-.36.52 9.01 9.01 0 0 0-.12.13Z" fill="#EEF1E9"/><path d="m14.54 6.7-.32.16c-.32.16-.64.3-.97.44a9.1 9.1 0 0 0-.22.1c-.12.06-.22.11-.34.14h-.02v.05l-.16-.24a.05.05 0 0 1 0-.06l.41-.64c-.01.02 0 .03.04.02l.04-.01c.05-.04.1-.1.15-.13l.97-.66c.16.27.3.55.42.84Z" fill="#FFA13D"/><path d="m5.17 6.96.07.26v.08l-.06.26-.02.02a.01.01 0 0 1-.01 0h-.01v-.1a.13.13 0 0 0-.05-.04 1373 1373 0 0 1-1.7-.6l.24-.53a96.41 96.41 0 0 1 1.3.6c.08.04.15.05.24.05Z" fill="#F7CE5B"/><path d="M12.57 10.34a6.8 6.8 0 0 1-.5.61c-.1.11-.2.2-.3.26l-.47.27c-.08.04-.23.08-.44.13-.03.01-.04.03-.03.06v.02l.03.02h.03l.2-.03a4.01 4.01 0 0 0 .5-.04c.15.03.22.11.3.24.1.2.18.4.23.62a7.84 7.84 0 0 1 .22 1.23l.02.24-.1.07h-.03v-.01a.14.14 0 0 0-.06-.06l-.05-.1-.05-.38-.04-.4a2.87 2.87 0 0 0-.28-.98c-.01-.03-.03-.04-.06-.02-.04.02-.04.04-.03.08.17.4.27.81.28 1.25 0 .14.01.28.05.42l.01.04v.02c.01.05.05.09.06.13l.01.07.01.02a5.93 5.93 0 0 1-4.33.73c.16-.1.17-.22.14-.4v-.01l.06-.08a.4.4 0 0 0-.03-.44l-.09-.06a.01.01 0 0 1 0-.02c.02-.04.05-.07.05-.12a.45.45 0 0 0-.03-.26.38.38 0 0 0-.36-.25 1 1 0 0 0-.3.03.03.03 0 0 1-.02-.02v-.01c0-.1 0-.2-.07-.26-.14-.12-.27-.12-.41-.02a.55.55 0 0 0-.17.2l-.05.14c0 .02-.02.03-.04.02a2.1 2.1 0 0 0-.34-.15c-.03-.01-.05 0-.06.03 0 .04.01.06.04.07.18.07.35.16.49.28h.1a.1.1 0 0 0 .01-.04v-.03l-.09-.07-.02-.02v-.04c.03-.1.09-.2.17-.27.05-.05.09-.07.12-.07.09-.01.15.02.19.09.02.06.02.14.02.23v.02l-.1.08a.08.08 0 0 0-.02.04v.03h.01c.02.04.04.04.07.02.07-.05.14-.12.24-.14.14-.03.35-.04.44.08.05.07.08.15.07.23 0 .1-.1.16-.16.2-.06.04-.14.06-.2.09L7.4 14c0 .02 0 .04.03.04.03.02.06.02.09 0l.2-.07c.05-.03.1 0 .13.05.05.09.06.17.02.26-.03.08-.14.11-.22.13a4.26 4.26 0 0 1-.2.03v.06a.02.02 0 0 0 .02.02c.04.02.08.02.1.02a1.72 1.72 0 0 0 .21-.04.03.03 0 0 1 .03.03c.02.14-.08.23-.21.27a.96.96 0 0 1-.52-.15c-.02-.01-.06-.02-.12-.01l-.12-.04a6.08 6.08 0 0 1-1.68-1v-.05a.48.48 0 0 1-.1-.2l-.03-.14a3.14 3.14 0 0 1-.09-.53c0-.1.02-.2.05-.3.11-.29.2-.56.28-.83a.4.4 0 0 1 .08-.13c.1-.12.23-.23.37-.3.16-.09.35-.08.55-.06.1.01.26.05.48.12.07.02.14.02.21 0 .11.04.22.08.33.1l.31.05c.04 0 .06 0 .06-.05 0-.04-.01-.06-.05-.07a3.13 3.13 0 0 1-.37-.07.98.98 0 0 1-.29-.12.92.92 0 0 0-.11-.14 4.72 4.72 0 0 1-.7-.72c-.1-.19-.18-.4-.23-.66-.03-.15-.03-.3 0-.43.04-.17.09-.33.15-.47a.73.73 0 0 1 .3-.35c.04-.01.1-.03.22-.04l.35-.04a.64.64 0 0 0 .36-.15c.13-.12.2-.26.32-.45l.16-.23c.13-.16.28-.3.46-.41a.95.95 0 0 1 .58-.16c.17 0 .34.02.5.05.23.05.42.18.56.38a10.84 10.84 0 0 1 .45.74c.05.04.09.03.12-.02a.2.2 0 0 0 .03-.12v-.37c-.01-.18.02-.35.08-.51a.38.38 0 0 1 .12-.17c.04-.03.1-.05.18-.08l.27-.06c.07 0 .15 0 .23.04.21.08.4.18.56.3a.8.8 0 0 1 .18.2l.06.07.06.09.17.28.12.19c.1.2.17.36.23.57l.13.52c.03.15.03.3.01.42l-.07.4c-.02.12-.07.25-.13.36a.52.52 0 0 0-.04.12l-.05.17Zm-.66-3.33a.48.48 0 0 0-.32-.1.38.38 0 0 0-.2.08c-.16.11-.3.24-.42.38a.7.7 0 0 0-.12.2l-.04.23c-.02.13.14.19.24.2.17.04.35.04.52 0 .13-.02.31-.1.4-.2.1-.11.12-.3.11-.43a.43.43 0 0 0-.17-.36Zm-2.63.51A.74.74 0 0 0 9 7.35a1.9 1.9 0 0 0-.43-.09.7.7 0 0 0-.36.05.77.77 0 0 0-.3.27c-.08.1-.1.22-.06.35.02.05.05.1.1.14.2.14.4.21.62.2.2-.02.37-.04.5-.08.08-.02.18-.07.3-.14a.27.27 0 0 0 .1-.1.17.17 0 0 0 0-.15.58.58 0 0 0-.08-.15l-.11-.13Zm2 3c.04.06.1.1.18.1.25.03.51-.05.73-.17a.35.35 0 0 0 .17-.16c.06-.13.09-.22 0-.35 0-.03-.04-.03-.07-.02-.02.01-.03.03-.03.05l.02.07.02.07c-.02.1-.06.18-.13.22-.1.06-.22.11-.37.15a.94.94 0 0 1-.27.04c-.07 0-.15-.02-.16-.1a.88.88 0 0 1 0-.18c.17-.02.4-.09.53-.2a.92.92 0 0 0 .17-.19c.1-.15.15-.31.17-.49a.58.58 0 0 0-.06-.35c-.07-.11-.18-.17-.35-.18h-.44c-.29 0-.55.07-.76.23a.4.4 0 0 0-.16.28l-.01.2c.01.2.09.34.23.45.16.12.32.24.52.25h.02v.02c0 .08-.03.15-.08.22a.34.34 0 0 1-.28.13c-.25 0-.51-.03-.78-.1a1.6 1.6 0 0 1-.43-.18.32.32 0 0 1-.1-.1.22.22 0 0 1-.04-.16c0-.04 0-.05-.04-.05a.04.04 0 0 0-.04.01l-.01.02v.02c-.03.18.06.3.2.38.16.09.32.15.48.19a5.2 5.2 0 0 0 .62.09c.2.01.4-.02.52-.2h.02ZM8.34 9.6c.03-.02.03-.04 0-.07a.06.06 0 0 0-.08 0 .14.14 0 0 0-.04.05c-.07.14-.13.4 0 .53.01.02.03.03.05.01.03 0 .04-.02.04-.04l-.01-.05a.34.34 0 0 1-.04-.2c.02-.08.04-.18.08-.23Z" fill="#EEF1E9"/><path d="m14.54 6.7.17.47-.18.05h-.03a66.08 66.08 0 0 1-1.68.62l-.15-.25v-.04l.02-.01c.12-.03.22-.08.34-.13l.22-.1.97-.45.32-.15Z" fill="#F7CE5B"/><path d="M3.4 6.84a76.16 76.16 0 0 0 .39.13 1322.09 1322.09 0 0 0 1.3.47l.04.04V7.57a.01.01 0 0 0 .02.01.01.01 0 0 0 .01 0l.02-.02c-.04.2-.06.4-.06.61h-.2a19.3 19.3 0 0 1-1.37-.26 6.04 6.04 0 0 0-.44-.08c.07-.34.17-.67.3-1Z" fill="#FFA13D"/><path d="M11.9 7.01c.13.09.18.2.19.36 0 .14-.02.32-.11.42-.1.11-.28.2-.41.22-.17.03-.35.03-.52 0-.1-.02-.26-.08-.24-.2l.04-.24a.7.7 0 0 1 .12-.2c.12-.14.26-.27.42-.38a.38.38 0 0 1 .2-.07c.12 0 .23.02.32.1Zm.02.35.02.2c0 .05 0 .05.02 0a.66.66 0 0 0 .02-.2c-.01-.1-.05-.19-.13-.25-.05-.03-.05-.03-.02.03a.7.7 0 0 1 .09.22Zm-.28-.03.06-.03.02-.03v-.02c-.02-.08-.1-.12-.17-.09-.04.02-.03.07 0 .1l.05.05v.01c-.02.03-.03.06-.01.1a.02.02 0 0 0 .01 0 .02.02 0 0 0 .02 0l.01-.07.01-.02Zm-.5.57h.01v-.02a.58.58 0 0 1-.13-.31c0-.05-.02-.05-.04-.01-.02.05-.1.25-.03.3.06.03.13.04.2.04Z"/><path d="M11.92 7.36a.7.7 0 0 0-.09-.22c-.03-.06-.03-.06.02-.03.08.06.12.15.13.26 0 .07 0 .13-.02.2-.01.04-.02.04-.02 0l-.02-.2ZM11.63 7.35l-.01.07a.02.02 0 0 1-.03 0c-.02-.04-.01-.07.01-.1v-.01a.85.85 0 0 1-.06-.05c-.02-.03-.03-.08.01-.1.08-.03.15.01.17.09a.04.04 0 0 1-.02.05l-.06.03v.02Z" fill="#EEF1E9"/><path d="M14.92 8.05c-.13 0-.26.04-.46.08l-.07.01-.08.01a75.24 75.24 0 0 1-1.15.2l-.05-.02h-.05c-.1-.16-.17-.32-.24-.48a3.47 3.47 0 0 0 .28-.13 65.54 65.54 0 0 0 1.61-.55c.1.29.17.58.21.88Z" fill="#FFA13D"/><path d="m9.39 7.65.09.15c.02.05.02.1 0 .15a.27.27 0 0 1-.1.1c-.13.07-.23.12-.3.14-.13.04-.3.06-.5.08a.87.87 0 0 1-.62-.2.3.3 0 0 1-.1-.14.38.38 0 0 1 .05-.35.77.77 0 0 1 .3-.27.7.7 0 0 1 .36-.05c.18.02.32.05.43.09.1.03.2.1.28.17l.1.13Zm-1.07.09.13-.22a.02.02 0 0 0 0-.02h-.01a.11.11 0 0 0-.1-.02.13.13 0 0 0-.07.07l-.02.02a.14.14 0 0 0-.01.1c0 .03.03.06.05.08a.02.02 0 0 0 .03-.01Zm.83-.15c0 .16 0 .35-.13.47-.02.02-.02.03.01.02l.06-.01c.1-.04.18-.09.26-.15a.08.08 0 0 0 .02-.1.97.97 0 0 0-.2-.24.01.01 0 0 0-.02 0Zm-1.13.07c0-.02 0-.02-.02-.01-.05.07-.06.15-.03.24.01.04.03.06.05.07l.02-.01c-.02-.1-.03-.2-.02-.3Zm.45.1a.05.05 0 0 0-.05-.04h-.04a.04.04 0 0 0-.04.05v.03a.05.05 0 0 0 .05.04h.04a.05.05 0 0 0 .04-.05v-.03Z"/><path d="M8.32 7.74a.02.02 0 0 1-.02 0 .12.12 0 0 1-.06-.07c-.01-.03 0-.07.01-.1l.02-.02a.14.14 0 0 1 .07-.07h.05l.05.01a.02.02 0 0 1 .01.03l-.13.22ZM11.14 7.9a.37.37 0 0 1-.19-.05c-.07-.04 0-.24.03-.3.02-.03.04-.03.04.02.01.12.06.22.13.3v.02ZM9.02 8.06c.13-.12.13-.31.13-.47a.01.01 0 0 1 .02-.01c.07.07.15.15.2.25.02.03 0 .07-.02.1a1.09 1.09 0 0 1-.32.15c-.03 0-.03 0-.01-.02ZM8.01 7.66c0 .1 0 .2.03.29l-.01.01h-.01c-.02 0-.04-.03-.05-.07-.03-.1-.02-.17.03-.24h.01ZM8.42 7.72h-.04a.05.05 0 0 0-.04.05v.03c0 .02.02.04.05.04h.04c.02 0 .04-.03.04-.05v-.03a.05.05 0 0 0-.05-.04Z" fill="#EEF1E9"/><path d="M3.11 7.83a6.03 6.03 0 0 1 .87.17 133.6 133.6 0 0 1 .94.17h.2l.02.43a.09.09 0 0 0-.03.02H5.1a.56.56 0 0 0-.22-.05h-.07l-1.06-.09a3.84 3.84 0 0 0-.5 0 .75.75 0 0 1-.22-.05l.08-.6ZM14.92 8.05l.06.47a21.53 21.53 0 0 0-1.82.15l-.1-.33h.1a75.4 75.4 0 0 0 1.3-.21c.2-.04.33-.08.46-.08Z" fill="#F7CE5B"/><path d="M5.14 8.6a6.41 6.41 0 0 0 .08.7H5.2v.04l-.01.02a.15.15 0 0 1-.1.04l-.86.06c-.16 0-.4.03-.71.06-.17.02-.33.02-.5.02a6.45 6.45 0 0 1 0-1.11c.1.03.18.04.23.04l.5.01a116.74 116.74 0 0 0 1.13.1c.08 0 .15.01.21.04h.02l.03-.02ZM14.98 8.52c.02.3.03.6 0 .9h-.48a32.53 32.53 0 0 1-1.26-.14h-.05v-.02c.03-.2.02-.4-.03-.59.03.03.06.04.1.02a21.55 21.55 0 0 1 1.72-.17Z" fill="#FFA13D"/><path d="M11.28 10.53h-.03c-.11.18-.32.21-.52.2a3.3 3.3 0 0 1-1.09-.28c-.15-.08-.24-.2-.22-.38v-.02l.02-.02.02-.01h.02c.04 0 .05.01.04.05 0 .05 0 .1.03.15.03.04.07.08.12.1.14.1.29.16.42.19.27.07.53.1.78.1a.36.36 0 0 0 .36-.35v-.02h-.01c-.2-.01-.37-.13-.53-.25a.59.59 0 0 1-.23-.44l.01-.21a.4.4 0 0 1 .16-.28c.22-.16.47-.23.76-.23h.44c.17 0 .29.07.35.18.06.09.07.2.06.35-.01.18-.07.34-.17.5a.92.92 0 0 1-.17.18 1.06 1.06 0 0 1-.53.2v.19c0 .07.1.08.16.09a1.42 1.42 0 0 0 .64-.18c.07-.05.1-.13.13-.23 0-.02 0-.04-.02-.07a.25.25 0 0 1-.02-.07c0-.02.01-.04.03-.05.03-.01.06-.01.08.02.08.13.05.22-.01.35a.35.35 0 0 1-.17.16c-.22.12-.48.2-.73.18a.28.28 0 0 1-.18-.1Z"/><path d="M13.18 9.26v.01h.04l.02.01a32.53 32.53 0 0 0 1.26.13c.16.02.32.01.48 0l-.05.5a3.65 3.65 0 0 1-.68-.09l-.98-.17h-.13v-.06l.04-.33ZM5.23 9.32l.14.47v.05h-.02a.1.1 0 0 0-.1-.05c-.05 0-.1 0-.14.02a247.22 247.22 0 0 1-2 .36 5.45 5.45 0 0 1-.09-.63c.17 0 .33 0 .5-.02l.7-.06.87-.06c.04 0 .07-.02.1-.04v-.02l.01-.03h.02l.01.01Z" fill="#F7CE5B"/><path d="M8.36 9.6c-.05.04-.07.14-.09.21 0 .08 0 .15.04.21l.01.05c0 .02-.01.03-.04.04-.02.02-.04.01-.06 0-.12-.14-.06-.4.01-.54l.04-.05a.06.06 0 0 1 .08 0c.03.03.03.05 0 .07Z"/><path d="M13.13 9.6v.05H13.27a6055.85 6055.85 0 0 0 1.66.27c-.05.3-.12.6-.21.9a33.13 33.13 0 0 0-1.68-.6.39.39 0 0 1-.09-.04l-.01-.02a.12.12 0 0 0-.04-.06 5.34 5.34 0 0 0 .23-.5ZM5.37 9.8l.05.11a.04.04 0 0 1 0 .04l-.35.63a.16.16 0 0 0-.05-.06H5a.26.26 0 0 1-.15.14 8.87 8.87 0 0 1-.64.23c-.26.1-.54.19-.81.27a5.74 5.74 0 0 1-.29-1 44.35 44.35 0 0 0 .75-.14 238.33 238.33 0 0 0 1.4-.23.1.1 0 0 1 .1.05l.01-.05Z" fill="#FFA13D"/><path d="m14.72 10.81-.18.5a376.86 376.86 0 0 1-1.6-.73c-.1-.06-.2-.1-.3-.11l.26-.37.04.06.01.02a33.07 33.07 0 0 1 1.77.63Z" fill="#F7CE5B"/><path d="M12.64 10.47c.1.02.2.05.3.1a364.44 364.44 0 0 0 1.6.73 6.3 6.3 0 0 1-.42.83 131.8 131.8 0 0 0-1.75-1.21 1.44 1.44 0 0 0-.05-.06l.32-.4Z" fill="#FFA13D"/><path d="M5.07 10.58c-.06.16-.12.31-.16.47a.34.34 0 0 1-.2.2c-.2.1-.4.2-.6.28l-.26.13a.6.6 0 0 1-.2.05l-.25-.55a18.37 18.37 0 0 0 1.45-.5.26.26 0 0 0 .15-.14h.02l.05.06Z" fill="#F7CE5B"/><path d="M6.94 11.02c.09.06.18.1.29.12l.37.07c.04 0 .06.03.05.07 0 .04-.02.06-.06.05a9.57 9.57 0 0 1-.31-.05l-.33-.1a2.44 2.44 0 0 1-.73-.45c-.02-.04-.03-.06-.01-.1l.01-.01h.06c.2.18.42.3.66.4Z"/><path d="m12.32 10.86.05.06.05.05 1.7 1.16-.33.48a.1.1 0 0 1-.02-.04l-.01-.02a1290.68 1290.68 0 0 1-1.62-1.33 3.7 3.7 0 0 1-.1-.06l.28-.3Z" fill="#F7CE5B"/><path d="M4.9 11.05c0 .05-.02.1-.03.13l-.1.34-.08.33a7.8 7.8 0 0 1-.12.56l-.02.2-.01.02a.08.08 0 0 0-.03.06 14.74 14.74 0 0 0-.02.24h-.02l-.05-.05c-.3-.36-.56-.75-.78-1.17a.6.6 0 0 0 .21-.05l.25-.13.62-.28c.1-.04.16-.1.19-.2ZM12.03 11.16a3.82 3.82 0 0 0 .22.13 1290.68 1290.68 0 0 0 1.54 1.32 5.9 5.9 0 0 1-.58.66l-.1-.14-.45-.52a1.3 1.3 0 0 1-.16-.22.28.28 0 0 0-.05-.06c0-.02-.02-.02-.04 0a6.12 6.12 0 0 0-.38-1.17Z" fill="#FFA13D"/><path d="m12.49 13.8-.02.08v.02l-.11.07-.02-.24-.01-.02-.01-.02c-.04-.4-.1-.8-.2-1.19a2.67 2.67 0 0 0-.24-.62c-.07-.13-.14-.21-.29-.24h-.12l-.39.04a4.7 4.7 0 0 0 .86-.42 8.14 8.14 0 0 1 .52 1.94l.03.6Z" fill="#E5C588"/><path d="m12.07 13.49.01.23c0 .05.02.1.04.14l.05.11.02.08c0 .02 0 .04-.02.05h-.02c-.01.02-.02.01-.03 0a.14.14 0 0 0-.02-.06 1.01 1.01 0 0 1-.03-.03.16.16 0 0 1-.02-.06l-.01-.02-.03-.03v-.02l-.03-.3v-.03c-.02-.01-.02-.02-.02-.03 0-.04 0-.07-.02-.1a3.48 3.48 0 0 0-.28-1.25c-.01-.04 0-.06.03-.08.03-.02.05-.01.07.02.14.3.24.63.27.97l.04.4Z"/><path d="M13.22 13.27c-.2.19-.4.36-.61.51v-.2l-.01-.14-.01-.14-.01-.1-.02-.08a7.2 7.2 0 0 0-.15-.8h.05l.04.07.16.22a49.77 49.77 0 0 0 .56.66Z" fill="#F7CE5B"/><path d="M7.75 14.85a.26.26 0 0 1-.15-.01c-.02-.01-.03-.02-.01-.04.13-.04.23-.13.2-.27a.03.03 0 0 0-.03-.03 1.7 1.7 0 0 1-.2.04c-.02 0-.06 0-.1-.02h-.01v-.08a.02.02 0 0 1 .01-.01l.18-.02c.08-.02.19-.05.22-.13a.28.28 0 0 0-.02-.26c-.03-.06-.08-.08-.13-.05a3.8 3.8 0 0 1-.2.08.13.13 0 0 1-.1 0L7.4 14c0-.02 0-.04.03-.05.05-.03.13-.05.19-.09.06-.04.16-.1.16-.2a.37.37 0 0 0-.07-.23c-.09-.12-.3-.11-.44-.08-.1.02-.17.09-.24.14-.03.02-.05.02-.07-.01a.05.05 0 0 1 0-.04c0-.02 0-.03.02-.04l.08-.08v-.02c0-.09.02-.17-.01-.23-.04-.07-.1-.1-.19-.1-.03.01-.07.03-.12.08a.62.62 0 0 0-.17.27v.04l.02.02.08.07.01.03a.1.1 0 0 1-.02.04h-.09c-.14-.12-.3-.2-.49-.28-.03-.01-.04-.03-.04-.06.01-.04.03-.05.06-.04.1.03.22.08.34.14.02.02.03.01.04-.01l.05-.14c.04-.08.1-.15.17-.2.14-.1.27-.1.4.02.08.06.08.16.08.26a.03.03 0 0 0 .02.03h.02a1 1 0 0 1 .28-.03c.17.01.3.1.36.25.04.09.05.18.03.26 0 .04-.03.08-.05.12a.01.01 0 0 0 0 .02l.09.06c.1.14.11.28.03.44 0 .02-.04.05-.06.08v.02c.03.17.02.3-.14.39Z"/></svg>