<!-- by TradingView --><svg width="18" height="18" viewBox="0 0 18 18" xmlns="http://www.w3.org/2000/svg"><path fill="#F0F3FA" d="M0 0h18v18H0z"/><path d="M14.07 12.19c0-.02-.02-.03-.03-.03l-1.98.02v-.03l.46-.16a2.54 2.54 0 0 0 1.41-1.46.07.07 0 0 1 .07-.05c.1 0 .21 0 .31-.02a.76.76 0 0 0 .46-.33c.14-.23.2-.49.1-.74a.77.77 0 0 0-.52-.51 1.73 1.73 0 0 0-.37-.07.06.06 0 0 1-.05-.04c-.07-.15-.13-.3-.22-.43a2.57 2.57 0 0 0-1.3-1.05 2.43 2.43 0 0 0-.95-.11c-.6.03-1.14.27-1.56.7a4.8 4.8 0 0 0-.33.38c-.04.04-.07 0-.1-.02L9.3 8c-.02-.02-.02-.05 0-.06l.46-.37c.18-.15.34-.3.47-.5.2-.29.24-.6.13-.95a.42.42 0 0 0-.24-.26.3.3 0 0 0-.22-.02c-.15.04-.3.1-.43.19h-.09v-.05l.06-.08c.05-.17.05-.33-.06-.47a3.8 3.8 0 0 1-.2-.3c-.04-.05-.02-.1-.01-.16.01-.1-.1-.05-.13-.03a.11.11 0 0 1-.11-.02l-.06-.07a.04.04 0 0 0-.05-.02c-.18.08-.35.18-.55.19h-.35l-.48.06a4.55 4.55 0 0 0-1.57.93c-.03.05-.08.07-.13.03a.24.24 0 0 1-.03-.03c-.15-.22-.31-.39-.58-.4a.52.52 0 0 0-.51.24l-.05.08c-.11.2-.22.44-.32.7a.45.45 0 0 0-.03.2c.02.33.16.64.37.9.07.09.2.18.32.2h.56c.1 0 .21-.01.32-.05.04-.01.08-.02.1.04l.01.06-.2 1.2a.02.02 0 0 0 .01.01h.01c.01-.03.03-.05.06-.04h.01c.02.02.03.03.03.05.04.09.07.17.07.26.01.39 0 .78-.06 1.17a1.1 1.1 0 0 1-.1.32c-.05.12-.17.18-.27.27l-.17.2c-.06.1-.14.18-.22.24l-.81.33-.37.16a5.98 5.98 0 0 1 .52-7.01 6 6 0 0 1 9.65 7.05Z" fill="#CFCBCB"/><path d="M9.4 6.03h-.1s0-.01 0 0a.1.1 0 0 0-.06.04.02.02 0 0 0 0 .02l.03.08v.02l-.09.3c0 .04-.05.06-.06.1l-.02.05a.07.07 0 0 0-.06-.02h-.08l-.17-.02s-.02 0-.02-.02 0-.03.02-.03a4.75 4.75 0 0 0 .15-.03c.04-.06.01-.12-.04-.17a.04.04 0 0 1 0-.04v-.02c.04-.03.06 0 .07.03a.8.8 0 0 0 .07.13c.01.07.04.1.08.08.03 0 .04-.04.05-.07l.07-.25a.1.1 0 0 0-.03-.1.03.03 0 0 1 0-.04.17.17 0 0 0 .02-.13l-.08-.34a.08.08 0 0 0-.06-.06c-.02 0-.04 0-.07.02a.4.4 0 0 1-.12.02.65.65 0 0 0-.4.2c-.04.03-.11.03-.16 0a1.62 1.62 0 0 0-.86-.16.91.91 0 0 0-.48.17c-.09.07-.17.14-.27.2a.8.8 0 0 0-.25.3l-.09.25c-.1.3-.04.76.37.77.08 0 .21.2.25.26.04.06.1.1.18.11.06.05.12.08.2.1-.09.1-.15.2-.2.3a9.02 9.02 0 0 1-.38.65c-.1.17-.16.36-.22.55a.68.68 0 0 0-.04.21c0 .14.07.27.13.39a.17.17 0 0 1-.06-.07 2.1 2.1 0 0 1-.07-.1c-.05.01-.1 0-.13-.05l-.12-.32a.72.72 0 0 0-.1-.2c-.02-.03-.03-.03-.02 0 .04.19.08.37.1.56.01.1.07.13.15.18.04.02.06 0 .09-.01h.04c.07.07.11.15.13.25 0 .03.02.04.03.06.11.11.24.21.38.3.16.09.34.15.54.17a.4.4 0 0 0-.03.22.2.2 0 0 1-.04-.05c0-.02-.01-.02-.01 0l.01.14c.07.26.22.48.43.67.07.06.11.12.14.2.06.18.03.4-.03.58-.04.11-.12.2-.12.33 0 .06-.01.11-.03.16-.05.13-.08.26-.1.39l-.24-.06a.24.24 0 0 1-.1-.11.1.1 0 0 0-.02-.04.05.05 0 0 0-.05-.02c-.05.01-.17.01-.2-.04a.76.76 0 0 0-.15-.18.14.14 0 0 0-.06-.09.01.01 0 0 0-.01 0c-.05.06-.1.07-.16.03a.48.48 0 0 1-.06-.2l-.02-.1a.28.28 0 0 0-.05-.1c-.02-.03-.04-.03-.06-.01-.02.01-.02.03-.02.05l.01.02c.1.04.13.11.1.22-.02.04-.06.05-.1.03a.21.21 0 0 1-.09-.15c0-.02-.02-.03-.04-.04a.22.22 0 0 1-.16-.06 6.72 6.72 0 0 0-.34-.33l-.28-.27a.07.07 0 0 1-.02-.06c0-.04 0-.13-.04-.14a3.32 3.32 0 0 0-.17-.06c-.02-.01-.04-.03-.03-.05 0-.01 0-.03.02-.04a.3.3 0 0 0 .07-.2c.16-.2.26-.44.3-.69.04-.28.07-.6.07-.96 0-.07.07-.04.11-.03a.03.03 0 0 0 .03-.01.03.03 0 0 0 0-.03 3.4 3.4 0 0 0-.11-.3c-.04-.09-.1-.18-.12-.26a.91.91 0 0 1-.02-.42c.05-.2.07-.4.08-.57 0-.04 0-.05-.02-.04a.2.2 0 0 1-.02-.06c.03 0 .04-.01.04-.03a.47.47 0 0 0 .05-.19.2.2 0 0 0-.08-.18v-.17c0-.05-.06-.07-.04-.13v.01l.01.01h.02a.82.82 0 0 0 .03-.37 7.33 7.33 0 0 1-.07-.63.45.45 0 0 1 .03-.22 4.55 4.55 0 0 1 1.57-.93c.17-.04.33-.06.48-.06l.35-.01c.2-.01.37-.1.55-.19a.04.04 0 0 1 .05.02l.06.07c.03.02.07.03.1.02.05-.02.15-.07.14.03-.01.06-.03.1 0 .17l.21.29c.1.14.1.3.06.47 0 .03-.04.05-.06.08v.05Z" fill="#A58443"/><path d="M9.04 6.45a.85.85 0 0 0-.08-.22c-.02-.03-.01-.06.02-.08l.1-.05v-.01l-.02-.01a.38.38 0 0 0-.26-.03l-.15.06a.55.55 0 0 1-.2.08.04.04 0 0 0-.03.03 806.64 806.64 0 0 1-.1.47.5.5 0 0 1-.13.07.15.15 0 0 1-.12-.01v-.06a.4.4 0 0 0-.02-.22l-.03-.38c.03-.03.02-.06-.05-.08a.57.57 0 0 0-.35-.02 1.18 1.18 0 0 0-.82.7.03.03 0 0 0 0 .02l.01.01.25.1c.03.03.06.03.1.03.07.04.15.07.24.08.08.01.15.02.23.05.11.04.2.08.32.06l.39.01c.07 0 .1.04.11.1a.1.1 0 0 1-.01.06.36.36 0 0 0-.05.23c0 .05-.01.09-.03.13a.53.53 0 0 0-.03.1l.01.13c.03.09.05.16.06.25.03.2.13.43.3.55.04.03.08.05.13.06l.4.14c.05.02.15.08.14.15 0 .02-.02.03-.04.04a6.6 6.6 0 0 0-.24.15c-.12.06-.23.1-.35.14a.5.5 0 0 0-.15.08c-.18.13-.39.15-.61.16a.21.21 0 0 0-.07.02c.1.09.3.08.41.08.06 0 .13 0 .2.02l.29.06c.13.02.24.1.38.1l.08.01c.17.08.35.15.53.2.18.07.27-.06.3-.22.08.06.07.14.01.22a.43.43 0 0 1-.3.16l-.41-.1a7.52 7.52 0 0 0-1.27-.32c-.1-.01-.24-.02-.43-.01l-.01.02v.02a.03.03 0 0 0 .02.02c.34.03.67.1 1 .2l.04.04c.05.05 0 .12-.04.14a.18.18 0 0 1-.09.01h-.36a2.84 2.84 0 0 1-1.3-.15L6.78 10a.8.8 0 0 1-.24-.5c0-.05.01-.12.04-.21.06-.19.11-.38.22-.55a25.47 25.47 0 0 0 .57-.95l.28-.12a.13.13 0 0 0 .03-.04c0-.01 0-.02-.02-.03h-.31a1.26 1.26 0 0 1-.33-.08L7 7.47c0-.03-.03-.15 0-.19l.14-.12c.09 0 .12.03.11.11v.12c0 .03.03.09.07.08l.01.01a1.82 1.82 0 0 0 .63.02c.07.03.1.11.14.19 0 .02.02.03.04.02l.01-.02a.54.54 0 0 0-.1-.23l-.02-.02a.37.37 0 0 0-.22-.13c-.2-.14-.42-.22-.66-.22l-.2.01a.43.43 0 0 1-.25-.05.47.47 0 0 1-.22-.47 1 1 0 0 1 .26-.5c.23-.23.5-.42.84-.42.24 0 .46.05.66.14.09.03.18.1.28.05l.4-.27a.4.4 0 0 0 .1-.02.15.15 0 0 1 .08-.02c.03 0 .05.03.06.06l.08.34c0 .04 0 .09-.03.13a.03.03 0 0 0 .01.04.1.1 0 0 1 .03.1l-.07.25c-.01.03-.02.06-.05.07-.04.01-.07-.01-.08-.08Z" fill="#DECDAF"/><path d="m8.9 5.58-.4.27c-.09.06-.18-.02-.27-.05a1.8 1.8 0 0 0-.66-.14c-.34 0-.61.19-.84.43a1 1 0 0 0-.26.49c-.03.18.06.39.22.47.08.05.17.06.26.05h.19v.06L7 7.28c-.04.04-.02.16 0 .2l.03.03c.1.04.22.07.33.08a.7.7 0 0 1-.17 0c-.03 0-.04 0-.05.03v.01l.05.05A.24.24 0 0 1 7 7.57c-.04-.07-.17-.26-.25-.26-.41-.01-.46-.47-.37-.77l.1-.24a.8.8 0 0 1 .24-.3L7 5.8c.14-.1.3-.16.48-.18.31-.02.6.04.86.17.05.02.12.02.16-.01a.65.65 0 0 1 .4-.2ZM5.14 5.6v.08c.03.1.12.12.19.16.22.13.35.32.39.57a.28.28 0 0 0-.2.06c-.17.12-.3.3-.33.51l.01.07a9.47 9.47 0 0 1 .07.22c-.02.01-.03 0-.04-.01-.19-.28-.07-.5.12-.72l.17-.2c.01-.02.02-.05 0-.06a.13.13 0 0 1-.07-.09c-.02-.08-.16-.16-.23-.2-.13-.06-.28.01-.38.11-.1.1-.15.2-.17.34l-.03.32c-.01.2.01.37.08.54.03.07.06.12.1.15.17.19.46.35.73.3.08-.03.13-.03.2 0 .03 0 .04 0 .04-.03a.44.44 0 0 1 .11-.2.2.2 0 0 1 .08.18c0 .08-.02.14-.05.2l-.04.02c0-.06-.05-.05-.1-.04-.1.04-.2.06-.3.05a23.3 23.3 0 0 0-.57 0 .6.6 0 0 1-.32-.2 1.6 1.6 0 0 1-.37-.9c0-.07 0-.13.03-.2a5.12 5.12 0 0 1 .37-.78c.1-.18.3-.26.5-.24Z" fill="#806936"/><path d="M5.14 5.6c.27.02.43.2.58.4l.03.04c.05.04.1.02.13-.03v.01a.45.45 0 0 0-.03.22l.07.63c.02.1.01.23-.03.36v.01h-.02v-.07a.97.97 0 0 0-.15-.76.78.78 0 0 0-.4-.57c-.06-.04-.15-.06-.17-.16a.64.64 0 0 1-.01-.07Z" fill="#403813"/><path d="M9.47 8.24c-.02 0-.04 0-.05.02A1.9 1.9 0 0 1 9.15 8c-.06-.07-.1-.14-.14-.21-.05-.1-.13-.18-.24-.2-.04 0-.07-.03-.08-.07V7.5a.09.09 0 0 1 .11-.04c.19.06.37.08.48-.12v-.04c-.05-.08-.15-.24-.24-.25a.36.36 0 0 1-.12-.03.56.56 0 0 0-.04-.02.1.1 0 0 0 0-.04 8 8 0 0 0 .14-.07 47.24 47.24 0 0 0 .09-.21V6.6c.02-.05.06-.07.07-.12a3.36 3.36 0 0 1 .1-.3l-.04-.1a.02.02 0 0 1 0-.01.1.1 0 0 1 .05-.05h.02c.03.02.06.02.08.01h.09c.13-.08.28-.15.43-.2a.3.3 0 0 1 .22.03c.12.05.2.13.24.26.11.34.07.66-.13.95-.13.2-.3.35-.47.5l-.46.37c-.02.01-.02.04 0 .06l.16.24Z" fill="#766846"/><path d="M5.72 6.41c.15.24.2.49.15.76v.05c-.03.06.02.08.02.13l.01.17a.44.44 0 0 0-.1.2c-.01.02-.02.03-.04.02-.08-.02-.13-.02-.21 0-.26.06-.56-.1-.73-.29a.53.53 0 0 1-.1-.15c-.07-.17-.1-.35-.08-.54 0-.12.02-.23.03-.32a.57.57 0 0 1 .17-.34c.1-.1.25-.17.38-.1.07.03.2.1.23.19 0 .04.03.07.06.09.03.01.02.04 0 .06l-.16.2c-.19.22-.3.44-.12.72 0 .02.02.02.04.01a.02.02 0 0 0 0-.03 9.47 9.47 0 0 0-.08-.26c.03-.2.16-.4.32-.51a.28.28 0 0 1 .21-.06Z" fill="#DECDAF"/><path d="M8.02 6.1c-.38-.21-.79.01-1.03.31a.29.29 0 0 0-.07.14c0 .06.01.12.07.16.05.03.07.07.07.12l-.25-.1a.03.03 0 0 1-.01-.03v-.01c.16-.36.44-.62.82-.7a.57.57 0 0 1 .35.02c.07.02.08.05.05.08Z" fill="#202124"/><path d="m8.02 6.1.03.37c-.06-.02-.09.04-.1.08l-.02.01-.06.03a4 4 0 0 1-.49.04c-.04 0-.05.03-.04.07a4.5 4.5 0 0 1-.22.04c-.02.02-.02.03 0 .05 0 .02.03.02.04.04v.02c-.04 0-.07 0-.1-.02 0-.05-.02-.09-.07-.12a.16.16 0 0 1-.07-.16c0-.04.03-.09.07-.14.24-.3.65-.52 1.03-.32Z" fill="#A89773"/><path d="M8.98 6.15c-.06 0-.12 0-.18-.02-.03-.01-.03-.04 0-.08a.38.38 0 0 1 .28.04.01.01 0 0 1 0 .01l-.1.05Z" fill="#806936"/><path d="M8.8 6.05c-.03.04-.03.07 0 .08.06.02.12.02.18.02-.03.02-.04.05-.02.08.04.08.06.15.08.22a.8.8 0 0 1-.07-.13c-.01-.03-.03-.06-.07-.03a.04.04 0 0 0 0 .05c.05.06.08.12.04.18a4.75 4.75 0 0 1-.16.05v.01l.01.02.17.02a.3.3 0 0 1-.1.02c-.02 0-.03 0-.04.02l.03.06a1.1 1.1 0 0 1-.38-.12c-.02 0-.03-.03-.02-.06a14.37 14.37 0 0 1 .1-.28 30.97 30.97 0 0 0 .16-.13H8.7l-.05-.02.15-.06Z" fill="#A89773"/><path d="m8.65 6.11.05.01.01.01v.03a30.27 30.27 0 0 1-.2.14l-.06.24c-.01.03 0 .05.02.06a1.1 1.1 0 0 0 .46.12c.03 0 .05.02.05.05v.02l-.02.01a.49.49 0 0 1-.33-.04.59.59 0 0 0-.17-.05c-.02 0-.03 0-.04.02v.06c0 .02.01.04.04.04l.06.02c.1.1.22.14.36.12a.1.1 0 0 1 0 .04h-.33c-.02 0-.03.01-.02.03.01.06 0 .13-.02.18-.03.05-.06.1-.02.15.03.03.06.02.08 0a1 1 0 0 1 .13-.1c.1-.08.22-.08.34 0 .04.02.06.08.01.1a.39.39 0 0 1-.28.04.1.1 0 0 0-.06 0 .58.58 0 0 0-.2.13.2.2 0 0 0-.05 0 .02.02 0 0 1-.03-.01v-.01c0-.04-.01-.07-.04-.08a.36.36 0 0 1 .05-.23.1.1 0 0 0 .01-.05c0-.07-.04-.1-.11-.1l-.39-.02C7.97 7.03 8 7 8 6.99c0-.03-.03-.05-.05-.07l.13-.17c.03.02.07.02.12 0a.5.5 0 0 0 .13-.06l.02-.02a824.6 824.6 0 0 0 .12-.48.55.55 0 0 0 .19-.08Z" fill="#655B42"/><path d="M9.61 6.35c0-.04.01-.07.04-.1.12-.1.25-.11.4-.06.03.02.1.04.1.1v.19c0 .1-.02.2-.06.3a2.53 2.53 0 0 1-.7.85c-.06.03-.11 0-.12-.06 0-.08.01-.15.06-.22v-.04a678.13 678.13 0 0 1-.2-.34c.02-.12.07-.24.13-.34.05-.1.13-.18.24-.21l.1-.04a.03.03 0 0 0 .01-.03Z" fill="#DECDAF"/><path d="M9.92 6.37c-.04.01-.07.05-.07.09.06.23 0 .44-.15.63-.02.02-.03.02-.05 0v-.01a.06.06 0 0 1 0-.08c.1-.14.2-.33.1-.5 0-.03-.02-.04-.04-.06a.03.03 0 0 1 .01-.05l.09-.05.05-.06a.02.02 0 0 1 .03-.01c.04.02.05.05.04.09l-.01.01Z" fill="#A58443"/><path d="M8.05 6.47a.4.4 0 0 1 .03.22l-.01.06-.13.17a.42.42 0 0 1-.21-.01c.02-.01.05-.02.08-.01.01 0 .03 0 .04-.02l.01-.02c0-.06.04-.1.09-.14.03-.02.06-.08.01-.1-.02-.02-.06-.01-.09 0v-.03l.06-.03h.01c.02-.05.05-.11.11-.09Z" fill="#202124"/><path d="M7.87 6.59v.03c-.05.04-.07.07-.15.1a.5.5 0 0 1-.22 0l-.17-.02c0-.04.01-.06.05-.07a4 4 0 0 0 .5-.04Z" fill="#19110A"/><path d="M7.73 6.9h-.11l-.46-.07-.05-.04v-.05a4.5 4.5 0 0 0 .22-.04l.17.01a.5.5 0 0 0 .23 0c.07-.02.1-.05.14-.1h.1c.04.03.01.1-.02.11a.2.2 0 0 0-.09.14v.02a.06.06 0 0 1-.05.02h-.08ZM9.1 6.64l.01.05v.01a45.98 45.98 0 0 1-.13.24l-.1.03a.4.4 0 0 1-.36-.12l-.06-.02c-.03 0-.04-.02-.04-.04v-.06c0-.02.02-.03.04-.02.06 0 .12.03.17.05.1.05.2.07.33.04h.02v-.03c0-.03-.02-.05-.05-.05h-.08c-.01-.02-.04-.04-.03-.06 0-.02.02-.02.04-.02a.3.3 0 0 0 .1-.02h.08c.02 0 .04 0 .06.02Z" fill="#DECDAF"/><path d="M7.16 6.83a23.5 23.5 0 0 0 .78.1c.02 0 .05.03.05.06 0 .02-.02.04-.04.05-.13.02-.21-.02-.32-.06-.08-.03-.15-.04-.23-.05a.73.73 0 0 1-.25-.08l.01-.02Z" fill="#19110A"/><path d="M8.37 6.84a.01.01 0 0 1 .02 0v.02a.08.08 0 0 1-.04.09h-.11a.08.08 0 0 1-.03-.06v-.01a.01.01 0 0 1 0-.02l.16-.02ZM8.88 7.01l.04.02.12.03c.09.01.2.17.24.25v.04c-.11.2-.3.18-.48.12a.09.09 0 0 0-.1.04v.01c0 .04.03.07.07.07.1.02.19.1.24.2.04.07.08.14.14.21.08.1.17.18.27.26l.14.14c.13.11.25.23.34.36.02.05.05.1.05.15-.02.1-.15.04-.2.02-.04-.02-.08-.06-.12-.07a.68.68 0 0 0-.14-.02.21.21 0 0 1-.17-.08.05.05 0 0 0-.05-.02c-.05 0-.1 0-.16-.02a1 1 0 0 1-.56-.52 1.4 1.4 0 0 1-.05-.17 1.07 1.07 0 0 0-.07-.18c-.03-.08-.04-.14 0-.2a.3.3 0 0 1 .09-.11c.05-.05.12-.1.19-.12a.1.1 0 0 1 .06 0c.1.01.2 0 .28-.05.05-.02.03-.08 0-.1-.13-.08-.24-.08-.35 0a1 1 0 0 0-.13.1c-.02.02-.05.03-.08 0-.04-.05 0-.1.02-.15a.28.28 0 0 0 .02-.18c0-.02 0-.03.02-.03h.33Z" fill="#DECDAF"/><path d="M7.14 7.1c.24 0 .46.07.66.21a.5.5 0 0 1-.21-.01.1.1 0 0 0-.08 0 .76.76 0 0 1-.14.05c-.06.02-.1.07-.06.12-.04 0-.06-.05-.07-.08v-.12c.01-.08-.02-.12-.1-.1v-.08Z" fill="#7C7B79"/><path d="M12.05 12.15v.03l1.99-.02c.01 0 .02 0 .03.03v.01A6.08 6.08 0 0 1 9.2 15a68.07 68.07 0 0 1-.03-1.78 4.26 4.26 0 0 0-.22-.36c-.1-.08-.1-.23-.1-.35v-.03c.07-.14.1-.28.1-.45.1.1.2.14.31.13a30.28 30.28 0 0 1 1.93.01l-.38-.14a2.55 2.55 0 0 1-1.54-1.52c-.01-.02-.02-.02-.03-.02l-.45-.06c-.03-.02-.04-.04-.03-.07 0-.02.02-.03.04-.04.15-.07.3-.11.46-.13a.2.2 0 0 0 .07-.02.01.01 0 0 0 0-.02 4.71 4.71 0 0 0-1.65-.37v-.02l.01-.02.43.01c.41.06.84.17 1.27.31.13.05.28.08.42.11 0 .08-.02.15-.05.22v.05l.11.22c.21.36.8.86 1.23.92.25.05.51.06.77.04.64-.05 1.21-.54 1.5-1.07.15-.28.22-.58.2-.9a1.98 1.98 0 0 0-1-1.74 1.9 1.9 0 0 0-.93-.22c-.51-.02-.97.14-1.38.47-.12.1-.21.22-.28.37a.3.3 0 0 0-.03.17.04.04 0 0 1-.02.05l-.04.01c-.1-.13-.2-.25-.34-.36a2.19 2.19 0 0 1-.14-.14.08.08 0 0 1 .05-.02c.03.03.06.06.1.02.1-.14.21-.26.33-.37.42-.44.95-.68 1.56-.71.33-.02.64 0 .95.11.54.2.98.56 1.3 1.04.09.14.15.3.22.44.01.03.03.04.05.04.14.01.26.03.37.07.26.08.43.25.52.51.1.25.04.51-.1.74a.76.76 0 0 1-.46.33c-.1.02-.2.02-.31.02a.07.07 0 0 0-.07.05 2.54 2.54 0 0 1-1.42 1.46c-.14.06-.29.1-.46.16Z" fill="#655B42"/><path d="M7.8 7.31c.09.02.16.06.22.13l.01.02c-.01.03-.04.05-.08.04l-.19.02a1.82 1.82 0 0 1-.45-.05c-.03-.05 0-.1.06-.12l.14-.05a.1.1 0 0 1 .08 0 .5.5 0 0 0 .21.01Z" fill="#19110A"/><path d="M8.4 7.44c.02.01.03.04.03.08a.02.02 0 0 0 .02.02.2.2 0 0 1 .07 0 .3.3 0 0 0-.1.1c-.03.07-.02.13.01.2l.07.19.05.17a1 1 0 0 0 .56.52c.05.02.1.03.16.02.02 0 .04 0 .05.02.05.05.1.08.17.08l.14.02c.04.01.08.05.12.07.05.02.18.07.2-.02 0-.06-.03-.1-.05-.15l.04-.01a.04.04 0 0 0 .02-.05.3.3 0 0 1 .03-.17c.07-.15.16-.27.29-.37.4-.33.86-.49 1.37-.47.32 0 .64.05.93.22a1.98 1.98 0 0 1 1 1.74c.02.32-.05.62-.2.9-.29.53-.86 1.02-1.5 1.07-.26.02-.51 0-.77-.04-.42-.06-1.02-.56-1.23-.92a2.18 2.18 0 0 1-.1-.22c-.02-.02-.02-.03-.01-.05a.67.67 0 0 0 .05-.22.43.43 0 0 0 .3-.16c.05-.08.06-.16-.01-.23a.01.01 0 0 0-.02 0v.01c-.02.16-.1.29-.29.22a48.82 48.82 0 0 0 .18-.35.2.2 0 0 0-.11-.04c-.08 0-.1-.07-.08-.13.03-.1.03-.2-.06-.25v-.05h.25c.04 0 .06-.02.05-.06v-.01a.1.1 0 0 0-.1-.07 61.74 61.74 0 0 1-.49-.02.66.66 0 0 1-.31.15H9.1v-.05a6.62 6.62 0 0 1 .26-.18c0-.07-.1-.13-.14-.15l-.4-.14a.45.45 0 0 1-.13-.06.84.84 0 0 1-.3-.55 1.97 1.97 0 0 0-.06-.25.33.33 0 0 1 0-.13l.02-.1a.53.53 0 0 0 .04-.13Z" fill="#7C7B79"/><path d="m8.03 7.46.02.01c.04.07.08.14.1.22 0 .02-.01.02-.02.02-.02 0-.04 0-.04-.02-.03-.08-.07-.16-.14-.19.04 0 .07 0 .08-.04Z" fill="#A89773"/><path d="M7.36 7.6h.27c.02 0 .03.03.03.06l-.28.12a.54.54 0 0 1-.2-.1l-.04-.05v-.01c0-.02.02-.04.05-.03a.7.7 0 0 0 .17 0Z" fill="#19110A"/><path d="M5.6 11.3a3.31 3.31 0 0 1-.25.25c-.04.07-.03.16-.02.24v.1c-.02.12-.02.23-.02.34 0 .06.05.08.1.06.17-.07.3.07.31.23 0 .04-.02.07-.05.1-.04.03-.09.07-.12.12-.06.06-.17-.03-.21-.09h-.01a2.28 2.28 0 0 0-.23-.09.34.34 0 0 1-.1-.05c-.09-.07-.12-.22-.1-.32.02-.06.07-.09.12-.09.06 0 .16-.02.18-.08a.32.32 0 0 0 0-.23c-.01-.03-.03-.04-.06-.05-.04 0-.07.04-.11.03-.05 0-.05-.02-.01-.05a.43.43 0 0 0 .06-.06c.08-.06.16-.14.22-.23l.17-.21c.1-.09.22-.15.27-.27.05-.1.08-.2.1-.32.05-.4.07-.78.06-1.17a.66.66 0 0 0-.07-.26.21.21 0 0 0-.03-.05c-.04 0-.06 0-.07.04h-.01a.02.02 0 0 1 0-.01l.2-1.2a4.04 4.04 0 0 1-.06.61.91.91 0 0 0 .01.42c.02.08.08.17.12.26a3.4 3.4 0 0 1 .1.33.03.03 0 0 1-.02 0c-.04 0-.1-.03-.11.04 0 .36-.03.68-.07.96a1.5 1.5 0 0 1-.3.7Z" fill="#301813"/><path d="M11.37 9.08a.58.58 0 1 1-1.16 0 .58.58 0 1 1 1.16 0ZM13.04 9.2a.53.53 0 0 1-.32.48.52.52 0 0 1-.68-.28.53.53 0 0 1 .11-.57.52.52 0 0 1 .9.37Z" fill="#F9FBFD"/><path d="M11.14 9.16c0 .1-.04.18-.1.24a.33.33 0 0 1-.56-.24c0-.08.04-.17.1-.23a.33.33 0 0 1 .56.23Z" fill="#BEC4D9"/><path d="M12.33 9.23c.04.07.13.1.19.05.06-.04.07-.13.02-.2-.04-.07-.13-.1-.19-.05-.06.04-.07.13-.02.2Z" fill="#202124"/><path d="M9.73 9.19h-.16c-.2.07-.37.15-.52.27-.02.01-.02.05 0 .07a13.32 13.32 0 0 0 .22.11 15.07 15.07 0 0 1 .2 0l.13-.1c.05-.06.07-.14 0-.18a.03.03 0 0 1-.02-.03.03.03 0 0 1 .02-.03l.13-.06c.09.05.09.16.06.25-.02.06 0 .13.08.13a.2.2 0 0 1 .11.04.02.02 0 0 1 .01.01l-.01.05-.18.29a3.83 3.83 0 0 1-.53-.2.18.18 0 0 0-.08-.01c-.14 0-.25-.08-.38-.1a10.52 10.52 0 0 1-.49-.08c-.12 0-.31 0-.41-.07v-.01l.07-.02c.22-.01.43-.03.6-.16a.5.5 0 0 1 .16-.08 2.02 2.02 0 0 0 .38-.15c-.02.03-.02.04-.01.05h.02a.66.66 0 0 0 .31-.15 61.78 61.78 0 0 0 .5.02.1.1 0 0 1 .09.08c.01.04 0 .06-.05.06h-.25Z" fill="#A89773"/><path d="M10.83 9.03h-.06a.1.1 0 0 0-.1.1v.05c0 .05.05.1.1.1h.06a.1.1 0 0 0 .1-.1v-.05a.1.1 0 0 0-.1-.1Z" fill="#202124"/><path d="M6.69 9.88c.02.04.06.08.1.11 0 .1.05.18.13.24.2.16.43.24.7.26.34.01.67 0 1-.06-.08.05-.17.1-.26.13l-.27.05-.45.04c-.2-.02-.38-.08-.54-.18a1.8 1.8 0 0 1-.38-.3c-.01 0-.03-.02-.03-.05a.42.42 0 0 0-.13-.25h-.04c-.03.02-.05.03-.09.01-.08-.05-.14-.09-.15-.18a6.13 6.13 0 0 0-.08-.57c.05.07.08.14.1.21.04.11.1.21.13.32.01.05.07.06.12.06h.01l.06.1.07.06ZM9.73 9.19v.05l-.13.06a.03.03 0 0 0-.02.03.03.03 0 0 0 .01.03c.08.04.06.12 0 .17l-.11.1-.03.01a14.87 14.87 0 0 0-.24-.01l-.16-.1c-.02-.02-.02-.06 0-.07.15-.12.32-.2.52-.27h.16Z" fill="#19110A"/><path d="M14.06 9.4a.06.06 0 0 1 .07-.07h.01c.08 0 .15.05.2.1.04.07.07.15.06.24v.04c0 .08-.04.16-.1.22a.27.27 0 0 1-.2.08h-.01c-.02 0-.04-.01-.05-.03a.06.06 0 0 1-.01-.04l.03-.55Z" fill="#7C7B79"/><path d="m6.79 10 .16.05a2.84 2.84 0 0 0 1.3.15c.12-.01.24-.02.37 0 .04 0 .07 0 .09-.02.04-.02.1-.1.04-.14A.73.73 0 0 1 8.7 10a5.74 5.74 0 0 1 .64.16v.01a.2.2 0 0 1-.07.02 1.5 1.5 0 0 0-.46.13.07.07 0 0 0-.04.04c0 .03 0 .05.03.07-.07.03-.13.03-.18 0-.33.05-.66.07-1 .06-.27-.02-.5-.1-.7-.26a.34.34 0 0 1-.13-.24Z" fill="#A89773"/><path d="M13 10.74c0 .16-.14.3-.4.41a3.18 3.18 0 0 1-1.96 0 .93.93 0 0 1-.3-.18.31.31 0 0 1-.11-.22c0-.15.14-.3.4-.4.26-.11.62-.18.98-.18a3.16 3.16 0 0 1 .99.17c.13.05.23.11.3.18.07.07.1.15.1.22Z" fill="#DD999E"/><path d="M11.37 10.33h-.08a.07.07 0 0 0-.07.07v.02c0 .04.03.07.07.07h.07c.04 0 .07-.02.07-.06v-.02a.07.07 0 0 0-.06-.08Z" fill="#655B42"/><path d="M11.92 10.5c.06-.02.1-.07.1-.11-.02-.05-.08-.07-.14-.05-.07.02-.1.07-.1.11.02.05.08.07.14.05Z" fill="#A15045"/><path d="M8.8 10.43a164.77 164.77 0 0 0 .48.08l.01.02c.28.7.82 1.24 1.53 1.5l.38.14h-.4c-.4-.02-.91-.02-1.53 0a.4.4 0 0 1-.3-.14 5.8 5.8 0 0 0-.56-.31.4.4 0 0 1-.1-.08 4.02 4.02 0 0 0-.55-.47.44.44 0 0 1-.12-.12.3.3 0 0 1-.03-.18c0-.1 0-.17.03-.22a145.8 145.8 0 0 0 .72-.1c.1-.02.18-.07.26-.12.05.03.1.03.18 0Z" fill="#CFCBCB"/><path d="M7.6 10.87c0 .07.02.12.04.18l.12.12c.21.15.38.29.55.47a.4.4 0 0 0 .1.08c.2.1.39.2.56.31 0 .17-.04.31-.1.45l-.02.03c0 .12.02.27.1.35.03.01.04.03.06.05a4.26 4.26 0 0 1 .18.35v.4c0 .45 0 .9.02 1.34h-.24a234.47 234.47 0 0 0-.02-1.15l.01-.05a.07.07 0 0 0 .02-.06 1.55 1.55 0 0 1-.02-.32c0-.07-.04-.13-.12-.13-.05 0-.1.04-.16.03-.06 0-.08-.06-.08-.11 0-.14.03-.25.07-.36a.08.08 0 0 0-.07-.12l-.27-.03c-.09 0-.18.03-.18.13 0 .02 0 .05.02.06.07.07.1.15.1.24 0 .1-.03.18-.12.23l-.13.09c-.08.06-.19 0-.17-.1l.01-.06c.02-.13.06-.26.1-.39.02-.05.03-.1.03-.16 0-.12.08-.22.12-.33.06-.19.09-.4.03-.58a.45.45 0 0 0-.14-.2 1.36 1.36 0 0 1-.43-.67.36.36 0 0 1-.01-.13c0-.03 0-.03.01 0l.04.04Z" fill="#202124"/><path d="M12.52 10.96h-1.84v.08l.02.02 1.82.01.01-.02v-.07l-.01-.02ZM5.6 11.3a.3.3 0 0 1-.08.19l-.02.04c0 .02 0 .04.03.05l.17.06c.04.01.05.1.04.14a26.17 26.17 0 0 1 .3.34H5.98c0 .06 0 .11.04.16.06.07.11.14.17.19.04.04.02.1-.03.13-.1.06-.21.1-.31.12v.05h.02c.13 0 .26 0 .4-.02.03 0 .06-.03.07-.07v-.01a.09.09 0 0 1 .12 0c.06.03.12.06.18.06.03 0 .06.02.08.04.06.04.1.04.15 0 .06.05.11.04.16-.02h.01c.04.02.06.05.06.09-.04-.02-.07-.05-.1 0a.17.17 0 0 0-.05.14l.04.27c0 .02 0 .04.02.06.11.1.23.09.36.04.1-.04.18-.07.25-.12l.24.06-.01.06c-.02.1.1.16.17.1l.13-.09c.09-.05.11-.13.12-.23a.3.3 0 0 0-.1-.24.08.08 0 0 1-.02-.06c0-.1.1-.14.18-.13l.27.03c.06 0 .1.07.07.12-.04.1-.06.22-.07.36 0 .05.02.1.08.11.05.01.1-.02.16-.03.08 0 .13.06.12.13 0 .1 0 .2.02.32 0 .02 0 .04-.02.06a232.2 232.2 0 0 1 0 1.2 6.07 6.07 0 0 1-4.87-2.55c.03-.01.03-.02.03-.04 0-.04 0-.07.04-.09h.03l.01.02.02.07c.02.1.15.14.25.15.02 0 .03 0 .04-.02a.24.24 0 0 0 .03-.2.96.96 0 0 0-.09-.2.4.4 0 0 0-.18-.15l.8-.33a.44.44 0 0 1-.05.06c-.04.03-.04.05 0 .05.05 0 .08-.03.12-.03.03 0 .05.02.06.05.03.06.03.14 0 .23-.02.06-.12.08-.18.08-.05 0-.1.03-.11.09-.03.1 0 .25.1.32.02.02.05.04.1.05a2.28 2.28 0 0 1 .23.1c.04.05.15.14.2.08l.13-.13c.03-.02.05-.05.05-.09 0-.16-.14-.3-.3-.23-.06.02-.1 0-.11-.06a2.92 2.92 0 0 1 .02-.44c0-.08-.02-.17.02-.24a3.27 3.27 0 0 0 .25-.26ZM8.3 12.33v-.02c-.04-.15-.06-.31-.06-.48 0-.06.06-.08.1-.04.24.18.39.42.42.72.01.15-.19.1-.25.06a.71.71 0 0 1-.2-.24Z" fill="#A15045"/><path d="M4.27 11.99c.09.04.15.1.18.15.04.06.07.13.09.2.02.08.01.14-.03.2 0 .02-.02.03-.04.02-.1-.01-.23-.06-.25-.15a1.17 1.17 0 0 1-.03-.08v-.01h-.03c-.04.02-.05.05-.04.1 0 0 0 .02-.02.03l-.2-.3.37-.16Z" fill="#301813"/><path d="m6.04 12.12.02.02.32.3c.04.04.1.06.16.06.02 0 .04.02.04.04.01.06.04.11.1.15.03.02.07 0 .08-.03.04-.1 0-.18-.09-.22l-.01-.02c0-.02 0-.04.02-.05.02-.02.04-.02.06 0 .03.04.05.07.05.1l.02.12c0 .06.03.13.06.19-.04.03-.1.03-.15 0-.02-.03-.05-.05-.08-.05a.32.32 0 0 1-.18-.07.09.09 0 0 0-.11 0l-.01.02c-.01.04-.04.07-.08.07a50.5 50.5 0 0 0-.4.02l-.02-.04h.01c.1-.03.2-.07.31-.13.05-.03.07-.1.03-.13-.06-.05-.11-.12-.17-.2-.04-.04-.04-.1-.04-.15H6.05ZM7.1 12.84c.06.05.11.11.16.18.02.05.14.05.19.04.02 0 .04 0 .05.02l.02.04c.02.05.05.09.1.11-.07.05-.15.08-.25.12-.13.05-.25.06-.36-.04a.08.08 0 0 1-.02-.06l-.04-.27c0-.05 0-.1.05-.15.03-.04.06-.01.1 0Z" fill="#19110A"/><path d="m5.2 13.4-.08-.27a.08.08 0 0 1 .06-.1l.3-.06.05.01c.01.01.03.03.03.05l.1.37a.08.08 0 0 1-.05.09h-.04l-.3-.05-.05-.01a.08.08 0 0 1-.02-.04Z" fill="#301813"/><path d="m6.46 13.44-.25.03a.11.11 0 0 1-.12-.09l-.05-.24a.11.11 0 0 1 .06-.12l.04-.01.24-.01a.11.11 0 0 1 .11.08l.06.22a.11.11 0 0 1-.05.12.11.11 0 0 1-.04.02Z" fill="#19110A"/></svg>