<!-- by TradingView --><svg width="18" height="18" viewBox="0 0 18 18" xmlns="http://www.w3.org/2000/svg"><path fill="#F0F3FA" d="M0 0h18v18H0z"/><path d="M14.98 5.22a.12.12 0 0 0-.08-.05l-.29-.07a.1.1 0 0 0-.1.1l-.76 3.95c-.02.05-.1.05-.1-.01l.24-4.03a.1.1 0 0 0-.1-.1L13.71 5a.1.1 0 0 0-.1.1l-.4 4.65c0 .06-.09.05-.1 0l-.25-4.6c0-.04-.04-.08-.1-.08l-.07.01a.1.1 0 0 0-.08.1l.08 4.9c0 .06-.08.07-.09.01l-.82-4.63a.1.1 0 0 0-.1-.1l-.05.02c-.05.02-.08.07-.07.11l.62 4.83c0 .06-.07.07-.08.02l-1.4-4.32a.1.1 0 0 0-.1-.06.1.1 0 0 0-.06.02c-.03.02-.04.05-.04.1l1.14 4.33c.02.05-.05.08-.08.03l-1.8-3.6a.08.08 0 0 0-.14-.02.08.08 0 0 0-.02.06v.03l1.51 3.46c.03.05-.04.09-.07.04h-.01L9.11 7.72a.08.08 0 0 0-.06-.03L9 7.72a.06.06 0 0 0-.03.05l.01.04 1.46 2.22c.03.04-.04.1-.08.05L5.81 5.5a.85.85 0 0 0-.58-.24.81.81 0 0 0-.8.65L3 12.69c0 .03 0 .07.02.1.02.02.04.04.07.04l.3.07a.1.1 0 0 0 .1-.1l.76-3.95c.01-.06.1-.05.1.01L4.1 12.9c0 .06.04.1.1.1l.06.01h.02a.1.1 0 0 0 .1-.1l.4-4.65c.01-.06.1-.05.1 0l.25 4.6c0 .04.04.08.1.08h.07a.1.1 0 0 0 .08-.1L5.3 7.92c0-.06.08-.07.1-.01l.8 4.63c.01.05.06.1.1.1l.06-.02c.05-.02.08-.07.07-.11l-.62-4.83c-.01-.06.07-.07.09-.02l1.4 4.31a.1.1 0 0 0 .1.07.1.1 0 0 0 .05-.02c.03-.02.04-.05.04-.1L6.36 7.58c-.02-.05.06-.08.08-.03l1.8 3.6a.08.08 0 0 0 .14.02.08.08 0 0 0 .02-.06v-.03L6.89 7.63c-.03-.05.04-.09.07-.04l1.93 2.67.06.03.04-.01a.06.06 0 0 0 .03-.06l-.01-.04-1.46-2.21c-.03-.05.04-.1.08-.06 4.36 4.35 4.55 4.59 4.56 4.59.16.15.37.23.58.23.39 0 .72-.26.8-.64L15 5.31c0-.04 0-.07-.02-.1Z" fill="#0A0D11"/></svg>