<!-- by TradingView --><svg width="18" height="18" viewBox="0 0 18 18" xmlns="http://www.w3.org/2000/svg"><path fill="#732CEC" d="M0 0h18v18H0z"/><path d="M4.1 5.49c.2.25.38.53.54.8-.23.17-.4.37-.52.6a5.44 5.44 0 0 0 .6 5.38c.71.96 1.63 1.59 2.75 1.9.42.13.87.21 1.34.26.06-.1.1-.22.12-.35.01-.13.03-.21.04-.25a1.78 1.78 0 0 1 .1-.24 2.17 2.17 0 0 0 .92 1.16.07.07 0 0 0 .06-.02l.01-.03.12-.39a1.57 1.57 0 0 1 .2-.37h.03a.06.06 0 0 1 .04.01c.18.2.24.41.27.67a.05.05 0 0 0 .07.04.26.26 0 0 0 .12-.1c.16-.23.3-.48.4-.74.01-.03.02-.02.03 0l.1.2.01.02h.05l.03-.01a8.04 8.04 0 0 0 .61-.9c.22-.17.44-.37.67-.6a4.74 4.74 0 0 0 1.22-2.22 5.26 5.26 0 0 0-2.18-5.62.81.81 0 0 0-.43-.16.64.64 0 0 1-.15-.17 5.5 5.5 0 0 0-.37-.65c-.02-.03-.04-.05-.08-.04a.05.05 0 0 0-.04.05v.22c0 .03-.01.03-.04.02l-.18-.1a.07.07 0 0 1-.04-.06v-.34a.07.07 0 0 0-.03-.05.07.07 0 0 0-.07 0c-.1.06-.13.16-.18.26a.05.05 0 0 1-.05.02 3.54 3.54 0 0 0-1.65-.2v.01c0 .1.03.2.08.3-.56.07-1.1.23-1.62.45a3.6 3.6 0 0 0-1.12-.44 1 1 0 0 0 .11-.07.7.7 0 0 1 .12-.07c.2-.08.33-.17.51-.25.48-.2.92-.32 1.3-.39.14-.02.35-.03.62-.03l.61.01A6.09 6.09 0 0 1 14 5.68c.57.88.9 1.84.97 2.9.04.45.05.78.04.99a4.45 4.45 0 0 1-.3 1.46 6.13 6.13 0 0 1-3.74 3.66 5.93 5.93 0 0 1-5.77-1.08c-.15-.12-.3-.28-.46-.41l-.15-.18a5.55 5.55 0 0 1-1.26-2.12 6.3 6.3 0 0 1-.03-3.8A6.3 6.3 0 0 1 4.1 5.5Z" fill="#6F28E7"/><path d="m11.42 4.53.3.4.03.01h.06a.05.05 0 0 1 .05.03l.08.4c0 .06.01.12.03.17l.03.18a5.8 5.8 0 0 1-.1 1.36l-.08.41c0 .02 0 .03.02.04.11.07.24.13.37.16a3.08 3.08 0 0 0 .51.09l.02.01v.08c-.02.05-.07.07-.1.1-.04.03-.04.04.01.04.09 0 .16 0 .22.02.08.01.1.07.07.17-.01.03 0 .05.03.06.1.02.2.06.3.12.2.12.29.3.25.52-.01.1-.04.2-.07.28a.3.3 0 0 0-.02.12c.07.5-.09.9-.4 1.28a.09.09 0 0 0-.02.08c.06.22.08.45.06.7-.02.16-.06.33-.11.5a.72.72 0 0 1-.1.2c-.04.06-.08.06-.12 0a.65.65 0 0 0-.14-.18l-.02.01a4.12 4.12 0 0 1-.72 1.7 3.38 3.38 0 0 1-.36.45h-.05l-.01-.02-.1-.2c0-.02-.02-.03-.03 0-.1.26-.24.51-.4.74a.26.26 0 0 1-.12.1h-.04l-.02-.02v-.02c-.04-.26-.1-.47-.28-.67a.06.06 0 0 0-.04-.02h-.03l-.02.03c-.07.1-.13.22-.18.35a7.25 7.25 0 0 0-.13.42.07.07 0 0 1-.09.01 2.17 2.17 0 0 1-.9-1.15 1.78 1.78 0 0 0-.14.49.99.99 0 0 1-.1.35c-.34-.2-.57-.51-.7-.93L8 13.09c0-.02 0-.02-.02 0l-.16.37-.16.5a.09.09 0 0 1-.08.05h-.03a2.48 2.48 0 0 1-.69-.63 5.78 5.78 0 0 1-.7-1.42c-.02-.05-.04-.05-.05 0l-.17.5a.2.2 0 0 1-.04.07.03.03 0 0 1-.04 0 .29.29 0 0 1-.1-.09 3.22 3.22 0 0 1-.55-1.27 10.19 10.19 0 0 1-.15-.95h-.01l-.28.28a.07.07 0 0 1-.07.01.07.07 0 0 1-.04-.06c-.02-.25 0-.5.08-.75a5.4 5.4 0 0 1 .6-1.38l-.27-.06c-.08-.02-.1-.07-.05-.14.07-.12.17-.25.28-.4.03-.04.04-.07.02-.11a6.48 6.48 0 0 0-.4-.84l-.27-.47a7.67 7.67 0 0 0-.54-.81l-.58-.53-.18-.27c-.08-.18-.07-.35.04-.5.13-.17.3-.3.51-.38l.23-.08c.26-.05.53-.07.8-.06.32.02.64.07.96.14.4.08.77.23 1.12.44a6.22 6.22 0 0 1 1.02.71 2.98 2.98 0 0 1 .88-.26v-.02a1.81 1.81 0 0 0-.28-.89.76.76 0 0 1-.08-.29.03.03 0 0 1 .02-.02 3.54 3.54 0 0 1 1.66.2l.02-.01c.05-.1.09-.2.18-.26a.07.07 0 0 1 .1.05v.34a.07.07 0 0 0 .04.06l.18.1c.03.01.04 0 .04-.02v-.22a.05.05 0 0 1 .04-.05c.04 0 .06 0 .08.04.14.2.26.42.37.65.01.04.06.1.15.17Zm-1.47.24.28.12c.31.14.57.34.77.61 0 .05 0 .07-.04.07l-.1-.01c-.05 0-.06.01-.01.05.27.23.49.51.65.85.09.17.14.38.21.56.02.05.04.05.05 0 .05-.16.07-.3.08-.43l.03-.28c0-.24-.01-.39-.02-.45 0-.19-.02-.36-.06-.5 0-.05-.02-.05-.04 0l-.13.22c-.02.04-.05.07-.09.08a.06.06 0 0 1-.06-.03V5.6c-.03-.33-.1-.65-.23-.95a6.25 6.25 0 0 0-.29-.62c-.02-.03-.03-.03-.04.01a21 21 0 0 0-.13.8.08.08 0 0 1-.06 0 .08.08 0 0 1-.04-.02 1.75 1.75 0 0 1-.28-1c0-.08-.02-.09-.06-.03a25.89 25.89 0 0 0-.22.7.07.07 0 0 1-.05.01c-.04 0-.06-.03-.05-.08a2.14 2.14 0 0 1 .13-.6h-.01c-.29-.13-.6-.2-.9-.22a1.46 1.46 0 0 0-.34-.01c-.05 0-.06.02-.02.05.18.14.34.31.5.5.09.12.16.26.21.4a5.87 5.87 0 0 0 .08.17c.09.03.18.05.28.05Zm-1.13-.99c-.01-.01-.03-.01-.03.01v.03a1.88 1.88 0 0 1 .27.87h.4a.02.02 0 0 0 .03-.03 1.24 1.24 0 0 0-.14-.28 2.6 2.6 0 0 0-.53-.6Zm-4.94.19c-.28.13-.58.41-.39.72.07.1.17.21.3.32l.39.36a11.14 11.14 0 0 1 1.26 2.11l.27-.5v-.04c-.15-.27-.35-.6-.58-.96a6.85 6.85 0 0 0-.75-1.01.02.02 0 0 1 .02 0c.15.14.29.3.41.47a14.12 14.12 0 0 1 .96 1.4.03.03 0 0 0 .03-.02c.04-.09.05-.19.14-.18a.05.05 0 0 1 .05.05c0 .07-.03.12-.06.18l-.1.17c-.17.4-.39.74-.64 1.06-.02.02-.02.04.01.04l.22.04a.02.02 0 0 0 .02 0l.33-.34a.05.05 0 0 1 .06 0l.04.01c.01 0 .02.02.01.03 0 .05-.02.09-.06.11-.17.17-.3.34-.42.52a4.67 4.67 0 0 0-.62 1.7c0 .05.02.06.06.02.09-.1.17-.17.24-.22.04-.02.07-.03.1-.02a.05.05 0 0 1 .03.05c.01.37.06.74.13 1.1a3.42 3.42 0 0 0 .48 1.15.02.02 0 0 0 .01 0v-.02a3.39 3.39 0 0 1 .26-.6c.04-.04.07-.04.1-.01l.02.03c.09.33.2.65.36.95.18.36.37.65.6.9a2.4 2.4 0 0 0 .36.29.02.02 0 0 0 .02-.02c.04-.17.1-.37.2-.6.07-.16.14-.29.23-.37.03-.04.07-.04.1-.01.02 0 .03.03.03.07.05.35.17.68.35.98a1.67 1.67 0 0 0 .27.33.02.02 0 0 0 .02 0v-.01c.03-.2.08-.42.16-.64.03-.1.07-.17.11-.21.03-.04.07-.05.1-.03l.04.07c.1.34.26.64.48.9a1.51 1.51 0 0 0 .3.26.03.03 0 0 0 .03-.02c.04-.23.14-.45.27-.65a.42.42 0 0 1 .14-.12l.02-.01.03.01c.2.15.34.34.38.58.01.05.03.06.07 0a3.3 3.3 0 0 0 .37-.8h.02c.04-.02.08 0 .1.05a1.5 1.5 0 0 1 .13.22h.01a.02.02 0 0 0 .02 0c.33-.43.58-.88.77-1.37.05-.15.09-.32.12-.53l.02-.25c.05-.04.1-.03.16.02a5.85 5.85 0 0 0 .2.17c.08-.23.12-.4.13-.52.01-.18 0-.36-.04-.55l-.03-.04-.07.01a.99.99 0 0 1-.53.05.08.08 0 0 0-.06.01 1.5 1.5 0 0 0-.55.75v.03c0 .05.03.11.07.21.11.32.12.86-.2 1.09-.4.3-.85.33-1.34.1-.21-.1-.47-.27-.77-.52-.3-.25-.7-.52-1.2-.79a.32.32 0 0 0-.13-.03h-.2c-.34.01-.65-.17-.74-.5a.14.14 0 0 0-.06-.07 10.32 10.32 0 0 0-1-.5.07.07 0 0 1 .04-.1l.13-.06a.01.01 0 0 0 0-.02 11482.6 11482.6 0 0 1-.45-.22c-.03-.1.05-.27.11-.36.02-.02.01-.02 0 0l-.09.04H5.8c-.02 0-.05 0-.07-.02h-.03l-.03.03c-.02.01-.03.01-.02-.01a.3.3 0 0 1 .05-.11l.32-.19a.45.45 0 0 1 .21-.07.06.06 0 0 1 .06.1.76.76 0 0 1-.11.14l-.12.15a1.54 1.54 0 0 0-.1.18.06.06 0 0 0 .04.06l.52.24a.06.06 0 0 1 .03.05.06.06 0 0 1 0 .05c-.03.03-.08.05-.15.06 0 0-.02 0-.01.02 0 .02 0 .03.03.04a5.86 5.86 0 0 1 .71.33v-.01a.98.98 0 0 1 .4-.76.76.76 0 0 1 .35-.16c.2-.03.4-.02.6.03l.63.19c.04 0 .05 0 .02-.03l-.26-.29a1.05 1.05 0 0 0-.51-.28.06.06 0 0 1-.04-.06.07.07 0 0 1 .02-.06.07.07 0 0 1 .06-.01c.25.05.47.18.65.39l.38.43c.08.1.18.19.3.28.12.1.25.17.4.23.31.12.66.16 1.05.12.4-.04.7-.21.9-.52.03-.04.05-.11.07-.17a.05.05 0 0 0-.03-.06c-.1-.04-.19-.07-.28-.15a1.46 1.46 0 0 1-.54-.87.52.52 0 0 1 .02-.32v-.02a.04.04 0 0 0-.02-.03h-.02a2.07 2.07 0 0 0-1.24.27.06.06 0 0 1-.04 0 .05.05 0 0 1-.04-.02v-.01c-.03-.04-.02-.07.01-.1.17-.1.35-.17.52-.2l.03-.02v-.04a5.3 5.3 0 0 1 .03-1c.01-.13.04-.25.09-.38.05-.12.11-.2.19-.24a.34.34 0 0 1 .35.04c.16.11.29.26.37.46a58.09 58.09 0 0 1 .08.17.26.26 0 0 0 .02-.13c-.02-.3-.09-.61-.2-.92-.01-.03-.03-.04-.06-.04a7.3 7.3 0 0 0-.32.08c-.15.05-.55.17-.54-.1 0-.05.02-.1.06-.14a1.02 1.02 0 0 1 .55-.28.03.03 0 0 0 .01-.02v-.02a2.42 2.42 0 0 0-.47-.48.43.43 0 0 0-.22-.1 6.72 6.72 0 0 0-.26 0v.01l.24.27c.06.08.24.4.1.47h-.03l-.17-.1c-.03 0-.04 0-.03.03.02.08.08.27.05.36a.08.08 0 0 1-.06.04.07.07 0 0 1-.07-.02c-.01-.02-.02-.05-.01-.09 0-.07 0-.13-.04-.18a.58.58 0 0 0-.05-.16 1.77 1.77 0 0 0-.33-.43c-.03-.03-.03-.06.01-.08.05-.03.1-.02.13.02l.27.3.02.01.12.04c.04.01.04 0 .03-.03a1.97 1.97 0 0 0-.48-.52v-.03c0-.05.02-.07.07-.08H10.2c.08.02.14.02.18.02a3 3 0 0 1 .3.02c.06 0 .06-.01.02-.05a1.69 1.69 0 0 0-.57-.37 2.36 2.36 0 0 0-1.74-.02 2.1 2.1 0 0 0-.53.22 3.54 3.54 0 0 0-1.13 1.02c-.02.04-.04.06-.07.07a.06.06 0 0 1-.07-.08l.11-.26a.98.98 0 0 0-.02-.72 2.82 2.82 0 0 0-.4-.67s-.02.01-.02.03l-.15.52c-.01.05-.04.09-.09.08a.07.07 0 0 1-.05-.03c-.05-.08-.09-.17-.12-.26-.06-.18-.1-.37-.15-.56-.01-.06-.03-.06-.05 0-.05.12-.08.25-.1.4a10.47 10.47 0 0 0-.06.5.06.06 0 0 1-.09.03.12.12 0 0 1-.05-.07 1.64 1.64 0 0 0-.81-.97.03.03 0 0 0-.03.02v.01l.05.4a.05.05 0 0 1-.03.05h-.04a.1.1 0 0 1-.05-.02.1.1 0 0 1-.03-.06l-.06-.52a.05.05 0 0 1 .02-.04.05.05 0 0 1 .04-.02c.09 0 .17.03.24.08.3.18.54.43.7.75.01.02.02.02.03 0 .01-.14.04-.28.08-.43.03-.1.13-.38.24-.4a.07.07 0 0 1 .09.05A6 6 0 0 0 6 4.9l.17-.48a.09.09 0 0 1 .14-.03l.03.02c.25.3.43.62.53.97.02.07.04.2.03.3v.1c0 .01 0 .02.02 0a4.08 4.08 0 0 1 .92-.75 6.3 6.3 0 0 0-.82-.6c-.4-.25-.81-.41-1.27-.5a5.75 5.75 0 0 0-1.28-.1c-.2 0-.39.06-.59.14Zm6.68.08c.03.22.07.38.11.49.02.04.03.04.04 0l.05-.34c0-.05-.01-.08-.05-.1l-.13-.06-.02.01Zm.99 1.08a1.65 1.65 0 0 0 .04.19.02.02 0 0 0 .02 0h.01a.34.34 0 0 0 .04-.13c0-.04-.01-.08-.04-.12a1.77 1.77 0 0 0-.11-.18c-.03-.04-.04-.04-.03.01l.04.12.03.11Zm-.72 1.46a8.56 8.56 0 0 0 .44-.11c.04 0 .05-.03.03-.07v-.02a.1.1 0 0 0-.12-.05 1.14 1.14 0 0 0-.48.21.04.04 0 0 0 0 .04l.02.01h.06l.05-.01Zm.07 1.2c0 .2.1.3.3.28a.03.03 0 0 1 .03.01.6.6 0 0 1 .08.47c-.02.05 0 .07.06.07l.1-.02c.07 0 .1-.04.12-.1.04-.2.04-.39-.03-.58a2.2 2.2 0 0 0-.24-.5c-.09-.14-.28-.34-.45-.25-.04.03-.08.08-.11.17a1.25 1.25 0 0 0-.09.46.01.01 0 0 0 .02 0 .57.57 0 0 1 .18-.03c.02 0 .03.01.03.03Zm1.41.19a.76.76 0 0 1 .15-.07v-.03h-.02a1.63 1.63 0 0 1-.63-.19v.01a4.43 4.43 0 0 1 0 .73 2.3 2.3 0 0 1 .93-.16c.03 0 .04-.02.04-.04v-.04l-.01-.03-.42-.05a.07.07 0 0 1-.06-.1l.02-.03Zm.95.69c.04-.03.04-.05-.01-.05h-.31a11.25 11.25 0 0 0-1.22.18c-.04.01-.06.03-.06.06l.01.03c.2.07.41.1.61.12.18 0 .35-.03.51-.09.19-.07.34-.15.47-.25Zm-.97 1.57-.16.34.01.03c.4.15.72.03.93-.34.16-.25.24-.5.25-.76l-.01-.01h-.03c-.11.2-.25.38-.43.51a.92.92 0 0 1-.53.2l-.02.01-.01.02Zm-4.98.43a.8.8 0 0 0-.04.36.5.5 0 0 0 .15.3.6.6 0 0 0 .3.17h.3c.16 0 .3.02.45.07l.58.2c.2.07.4.11.6.1a.6.6 0 0 0 .27-.04c.09-.05.2-.11.32-.2a1.16 1.16 0 0 0 .4-.53.04.04 0 0 0-.01-.03h-.02a1.6 1.6 0 0 1-.42-.09 6.28 6.28 0 0 1-.34-.12c-.32.08-.65.05-1.01-.08a1.4 1.4 0 0 0-.73-.05.56.56 0 0 1-.16.03c-.04 0-.06-.02-.06-.07 0-.03.01-.05.04-.06a1.54 1.54 0 0 1 1 .03l.35.1.37-.01v-.02l-.35-.35a.1.1 0 0 0-.07-.03l-.19-.02-.54-.16a1.33 1.33 0 0 0-.41-.06.84.84 0 0 0-.4.08.78.78 0 0 0-.38.48Zm4.71.07h-.05c-.12.1-.26.19-.42.24-.03 0-.05.03-.05.07a.64.64 0 0 0 .07.27.02.02 0 0 0 .02 0 1.4 1.4 0 0 1 .44-.56v-.02Zm-2.08 1.32c-.02-.04-.05-.06-.1-.05-.13.01-.22.02-.28.01-.25-.02-.5-.08-.71-.18h-.03v.02l.08.07.43.3c.19.14.44.36.67.5.11.08.25.14.4.2.35.12.67.08.98-.11.15-.1.23-.23.25-.4a1.5 1.5 0 0 0 0-.38c0-.06-.05-.18-.11-.36a3.27 3.27 0 0 1-.19-.66l-.01.01a12.77 12.77 0 0 1 .1.72V12c-.05.37-.4.55-.74.46a1.71 1.71 0 0 1-.74-.4Zm.79-.78c-.07.13-.12.21-.18.27a2.5 2.5 0 0 1-.51.4.03.03 0 0 0 0 .02c.22.19.46.3.73.36.15.02.27 0 .38-.1a.26.26 0 0 0 .1-.13c.02-.1.03-.21.01-.33a5.24 5.24 0 0 0-.13-.7 3.7 3.7 0 0 1-.25 0l-.06.03c-.04.04-.07.13-.1.18Z" fill="#020102"/><path d="m9.23 3.61-.06.01c-.02 0-.02 0-.01.02l.25.27c.24.25.42.54.54.86a.86.86 0 0 1-.28-.05 5.84 5.84 0 0 1-.08-.16 1.42 1.42 0 0 0-.22-.4 3.2 3.2 0 0 0-.49-.5c-.04-.04-.03-.06.02-.06.1-.01.21 0 .33.01Z" fill="#2F1A18"/><path d="M9.23 3.61a2.65 2.65 0 0 1 .92.23v.01c-.07.17-.11.36-.13.58 0 .05.01.07.05.08l.05-.01.03-.04a25.89 25.89 0 0 1 .19-.66c.04-.06.06-.05.05.02a1.75 1.75 0 0 0 .29 1l.04.04h.06a21.22 21.22 0 0 1 .14-.8c0-.05.01-.05.03-.02l.3.62a3.16 3.16 0 0 1 .22.97.06.06 0 0 0 .04.03h.03c.03-.01.06-.04.08-.08l.13-.23c.02-.04.03-.04.04 0 .04.15.06.32.07.51l.01.45c0 .08 0 .17-.03.28-.2-.3-.44-.6-.73-.92a1.9 1.9 0 0 0-.88-.78l-.28-.12c-.12-.32-.3-.6-.54-.86a43.14 43.14 0 0 1-.24-.29h.06Z" fill="#2F2F2F"/><path d="M8.82 3.78c.21.18.39.37.53.6a1.24 1.24 0 0 1 .14.3.02.02 0 0 1-.02.01h-.4a.01.01 0 0 1-.02-.01 1.89 1.89 0 0 0-.26-.89c0-.02.02-.02.03 0Z" fill="#8F5C48"/><path d="M8.62 3.8a1.81 1.81 0 0 1 .28.9l-.02.01a2.98 2.98 0 0 0-.88.26l-.02-.01c-.3-.27-.63-.5-.98-.7a6.39 6.39 0 0 1 1.62-.47Z" fill="#7831F1"/><path d="M6.83 6.12c.5-.37 1.03-.58 1.59-.63.52 0 .97.18 1.36.52a4.11 4.11 0 0 1 .39.36v-.02c.03.05.05.11.04.18l.01.09a.07.07 0 0 0 .07.02.08.08 0 0 0 .06-.04c.03-.09-.03-.28-.05-.36 0-.03 0-.04.03-.02l.17.1.04-.01c.13-.08-.05-.39-.11-.47a6.2 6.2 0 0 0-.24-.3h.01l.25.03c.07 0 .14.04.22.1a2.42 2.42 0 0 1 .47.49v.02l-.02.01c-.22.04-.4.13-.54.27a.19.19 0 0 0-.06.13c0 .28.4.16.54.1a7.45 7.45 0 0 1 .32-.07c.03 0 .05.01.06.04.11.3.18.61.2.92 0 .05 0 .1-.02.13l-.08-.17c-.08-.2-.2-.35-.37-.46a.34.34 0 0 0-.35-.04c-.08.04-.14.12-.19.24a1.5 1.5 0 0 0-.1.38 5.3 5.3 0 0 0-.02 1.04l-.03.01c-.17.04-.35.12-.52.22-.03.02-.04.05-.02.09h.01c.01.02.02.03.04.03h.04c.23-.13.46-.21.68-.25a3.21 3.21 0 0 1 .58-.02l.01.01a.04.04 0 0 1 0 .04c-.03.1-.04.2-.01.32.07.35.25.65.54.87.1.08.18.1.28.15a.05.05 0 0 1 .03.06c-.02.06-.04.13-.07.17-.2.3-.5.48-.9.52-.39.04-.74 0-1.05-.12a1.5 1.5 0 0 1-.4-.23c-.12-.1-.22-.19-.3-.28l-.38-.43c-.18-.21-.4-.34-.65-.4a.07.07 0 0 0-.06.02.07.07 0 0 0-.02.05v.01a.06.06 0 0 0 .04.06c.2.05.37.14.51.28l.26.29c.03.03.02.04-.02.03l-.62-.18a1.54 1.54 0 0 0-.61-.04.76.76 0 0 0-.36.16.99.99 0 0 0-.39.77l-.02.01h-.01a5.88 5.88 0 0 0-.68-.34c-.02 0-.03-.02-.03-.04l.01-.02c.07-.01.12-.03.14-.06a.06.06 0 0 0-.02-.1l-.52-.24a.06.06 0 0 1-.03-.08l.1-.16c0-.02.05-.07.11-.15.05-.05.09-.1.11-.15a.06.06 0 0 0-.06-.09.45.45 0 0 0-.2.07l-.33.19c.01-.03 0-.05 0-.07h.05l.02-.04c.06-.11.09-.22.15-.35.1-.2.24-.4.4-.6.05-.05.04-.1-.04-.12h-.03a.69.69 0 0 0-.28.15.34.34 0 0 1-.07.05c-.05.03-.06.01-.04-.03.07-.16.15-.3.26-.43.1-.1.2-.2.32-.25.02 0 .02 0 .03-.02.01-.07-.01-.1-.08-.13a1.98 1.98 0 0 1 .44-.4V7.5l-.03-.02a2.57 2.57 0 0 0-.78.16.02.02 0 0 1 0-.02c.04-.1.06-.2.07-.32 0-.01 0-.02-.02-.03a.63.63 0 0 1-.22-.23c.02-.06.06-.11.1-.17a.42.42 0 0 0 .05-.18.05.05 0 0 0-.05-.05c-.09 0-.1.1-.14.18a.03.03 0 0 1-.05.01c-.29-.48-.6-.94-.94-1.4a3.92 3.92 0 0 0-.43-.46c-.02 0-.02 0-.01.02l-.48-.45c-.1-.08-.13-.2-.1-.33.02-.05.04-.13.1-.24.2-.08.39-.13.58-.15a5 5 0 0 1 1.28.1c.46.1.88.26 1.27.5a6.29 6.29 0 0 1 .81.63c-.35.2-.65.45-.9.73-.02.02-.03.01-.04 0v-.1c.02-.1 0-.23-.02-.3a2.64 2.64 0 0 0-.56-1 .09.09 0 0 0-.14.04L6 4.9a6 6 0 0 1-.24-.84.07.07 0 0 0-.06 0c-.1.02-.21.3-.24.4-.04.15-.07.29-.08.42 0 .03-.02.03-.03 0-.16-.31-.4-.56-.7-.74a.57.57 0 0 0-.24-.08.05.05 0 0 0-.04.02.05.05 0 0 0-.02.04l.06.52.03.06a.1.1 0 0 0 .05.03h.02a.05.05 0 0 0 .05-.04v-.02l-.05-.4a.03.03 0 0 1 .01-.02.03.03 0 0 1 .03 0c.4.18.65.55.8.96.01.03.03.06.05.07a.06.06 0 0 0 .09-.02v-.03l.06-.48c.02-.15.05-.28.1-.4.02-.06.04-.06.05 0 .04.2.1.38.15.56.03.1.07.18.12.26a.07.07 0 0 0 .05.03c.05 0 .08-.03.09-.08a5.72 5.72 0 0 1 .17-.55.02.02 0 0 1 .02.01c.16.21.29.43.38.66.1.25.1.48.02.72a3.8 3.8 0 0 1-.12.3.06.06 0 0 0 .08.04c.03 0 .05-.03.07-.07.04-.07.08-.1.1-.11Zm2.43.54c.13-.2-.1-.35-.26-.37a1.92 1.92 0 0 0-.37-.02 1.1 1.1 0 0 0-.62.22.4.4 0 0 0-.12.14c-.02.08-.01.14.04.18.11.11.45 0 .58-.05a.86.86 0 0 1 .21-.04h.37c.09 0 .14-.02.17-.06Zm-.13.88c-.2-.31-.53-.58-.92-.48a.73.73 0 0 0-.42.32c-.1.15-.17.32-.2.51a5.16 5.16 0 0 0-.07.58l.06.07c.18.14.36.25.54.32.24.09.51.14.81.14.2 0 .46-.05.62-.08.06-.01.1-.06.08-.14a3.26 3.26 0 0 0-.5-1.24Z" fill="#2F2F2F"/><path d="m3.88 3.97-.09.24c-.03.14 0 .25.1.33l.48.45c.27.29.52.62.76.99a19.82 19.82 0 0 1 .58 1l-.27.5a.01.01 0 0 1 0 .01h-.01a11.14 11.14 0 0 0-1.25-2.12l-.4-.36c-.12-.1-.22-.21-.29-.32-.2-.3.11-.6.4-.72Z" fill="#8F5C48"/><path d="M10.56 4.05c0-.01.01-.02.03-.01l.12.06c.04.02.05.05.05.1l-.05.33c0 .05-.02.05-.04 0-.04-.1-.08-.26-.1-.48Z" fill="#2F2F2F"/><path d="M12.14 13.14a4.12 4.12 0 0 0 .46-1.26h.01c.05.06.1.11.13.17.04.07.08.07.12.01a.73.73 0 0 0 .1-.2c.05-.17.09-.34.11-.5.12-.24.22-.49.32-.73.08-.2.15-.43.2-.66.03-.1.03-.2.03-.32-.02-.25 0-.5-.03-.75l-.02-.28a4.53 4.53 0 0 0-1.24-2.8 1.02 1.02 0 0 0-.3-.19.05.05 0 0 1-.02-.03l-.07-.23-.08-.4a.05.05 0 0 0-.05-.03h-.06l-.03-.01-.3-.4c.14 0 .28.06.43.16l.42.32a5.27 5.27 0 0 1 1.76 5.3c-.2.84-.61 1.57-1.22 2.21-.23.24-.45.44-.67.62Z" fill="#7831F1"/><path d="M10.17 6.35v.02c0 .02 0 .02-.02 0-.1-.11-.23-.24-.37-.36a2.02 2.02 0 0 0-1.36-.52l.3-.1a.03.03 0 0 0 .02-.06L8.39 5c.59-.22 1.17-.21 1.74.02.23.09.42.21.58.37.04.04.03.05-.03.05l-.3-.02-.19-.01H9.96c-.05 0-.07.02-.08.07a.06.06 0 0 0 .03.06c.18.14.34.3.46.5.02.02 0 .03-.03.02l-.12-.04-.02-.02-.27-.3c-.03-.03-.08-.04-.13-.02-.04.03-.04.06-.01.1.15.14.26.28.33.42l.05.16Z" fill="#794E3C"/><path d="M11.52 5.02a.68.68 0 0 1-.04-.12c-.01-.05 0-.05.03 0 .05.05.08.11.11.17.03.04.04.08.04.12 0 .05-.02.09-.04.12v.01a.02.02 0 0 1-.04-.01l-.03-.18a.48.48 0 0 0-.03-.11Z" fill="#2F2F2F"/><path d="m8.39 4.99.35.34a.03.03 0 0 1-.02.05l-.3.11c-.56.05-1.09.26-1.59.63.29-.38.63-.68 1.03-.91.18-.1.35-.18.53-.22Z" fill="#8F5C48"/><path d="M13.07 11.36a2.15 2.15 0 0 0-.06-.75s0-.02.02-.03c.31-.37.47-.79.4-1.28 0-.03 0-.09.02-.12.03-.09.06-.18.07-.28a.47.47 0 0 0-.25-.52c-.1-.06-.2-.1-.3-.12-.03-.01-.04-.03-.03-.06.04-.1.01-.16-.07-.17L12.65 8c-.05 0-.05-.01-.02-.05.04-.02.09-.04.1-.09.02-.03.02-.06 0-.08a.04.04 0 0 0-.03-.02 3.08 3.08 0 0 1-.49-.08 1.16 1.16 0 0 1-.37-.16.03.03 0 0 1-.02-.04l.08-.41.04-.17.03-.16a5.8 5.8 0 0 0-.03-1.38l.07.23.03.03c.13.07.23.13.29.2a4.53 4.53 0 0 1 1.26 3.07c.03.25 0 .5.03.75 0 .11 0 .22-.03.32-.05.23-.12.45-.2.66-.1.24-.2.49-.32.73Z" fill="#6F28E7"/><path d="M11.84 6.6c0 .12-.03.26-.07.42-.02.05-.04.05-.06 0-.07-.18-.12-.39-.2-.56a2.51 2.51 0 0 0-.66-.85c-.05-.04-.04-.05.02-.05h.09c.03.01.05-.01.04-.06.05.1.1.15.11.17.3.32.53.62.73.92Z" fill="#2F1A18"/><path d="m4.64 6.3.28.47a4.05 4.05 0 0 0-.52 1.66 4.83 4.83 0 0 0 .22 2.02l.03.07c0 .05.03.12.06.2.14.32.29.6.44.85.07.11.16.2.26.3.09.2.2.39.33.57.03.04.07.08.11.1h.04a.2.2 0 0 0 .04-.08c.2.17.4.31.6.43l.32.49a2.48 2.48 0 0 0 .69.63.09.09 0 0 0 .11-.06l.16-.5.17.06c.05.01.1 0 .14-.01.13.42.36.73.7.93a7.44 7.44 0 0 1-1.35-.25 5.06 5.06 0 0 1-2.74-1.9 5.44 5.44 0 0 1-.6-5.38c.11-.24.28-.44.51-.6Z" fill="#7831F1"/><path d="M9.26 6.66c-.03.04-.09.06-.17.06h-.37a.86.86 0 0 0-.21.04c-.13.05-.47.16-.58.05-.05-.04-.06-.1-.04-.18a.4.4 0 0 1 .12-.14c.18-.13.39-.21.62-.22.1-.01.22 0 .37.02.17.02.39.18.26.37Zm-.7-.24c-.16.02-.42.1-.52.25a.03.03 0 0 0 0 .03.03.03 0 0 0 .03.02l.12-.01a3 3 0 0 1 .4-.1c.09-.02.23-.03.42-.03a.89.89 0 0 0 .13-.02.03.03 0 0 0 0-.04v-.01c-.14-.12-.4-.12-.58-.1Z" fill="#020102"/><path d="M10.78 6.6h-.06a.04.04 0 0 1-.02-.03.04.04 0 0 1 .01-.03c.15-.1.3-.17.47-.2a.1.1 0 0 1 .11.05l.01.02c.02.04.01.06-.03.07l-.2.04a8.56 8.56 0 0 1-.3.09Z" fill="#8F5C48"/><path d="M8.6 6.6a3 3 0 0 0-.41.1.93.93 0 0 1-.13.02.03.03 0 0 1-.02-.03v-.02c.1-.16.36-.23.52-.25.17-.03.43-.03.58.09a.03.03 0 0 1 0 .03.03.03 0 0 1-.02.02.89.89 0 0 1-.1.02c-.2 0-.34 0-.43.02Z" fill="#794E3C"/><path d="M5.41 11.86a1.2 1.2 0 0 1-.25-.29 6.38 6.38 0 0 1-.63-1.38l-.12-.6a4.83 4.83 0 0 1 .5-2.82c.16.27.3.55.4.84.02.04.01.07-.01.1l-.3.4c-.04.08-.02.13.06.15l.26.06h.01v.02a5.4 5.4 0 0 0-.6 1.36 2.18 2.18 0 0 0-.07.79.07.07 0 0 0 .1 0l.28-.26v-.01h.02a.02.02 0 0 1 .02.02 4.9 4.9 0 0 0 .34 1.62Z" fill="#6F28E7"/><path d="M8.21 7.06c.4-.1.71.17.92.48.25.38.42.79.5 1.24.01.08-.02.13-.08.14a2.35 2.35 0 0 1-1.43-.06 1.93 1.93 0 0 1-.54-.32.23.23 0 0 1-.06-.07 5.17 5.17 0 0 1 .06-.58c.04-.19.1-.36.21-.51a.73.73 0 0 1 .42-.32Zm.11.66a.3.3 0 0 0-.1.23c0 .08.05.15.12.18.08.04.16.04.25 0a.02.02 0 0 1 .03.01.93.93 0 0 1-.1.66.03.03 0 0 0 .02.03 2.23 2.23 0 0 0 .93-.05v-.02c-.08-.49-.28-.92-.57-1.3a.94.94 0 0 0-.27-.21c-.35-.2-.69.05-.81.37a.02.02 0 0 0 .01.02h.01a.46.46 0 0 1 .48.06.02.02 0 0 1 0 .02Z" fill="#020102"/><path d="M5.84 7.04c.06.1.13.18.22.23.02.01.02.02.02.03a1.02 1.02 0 0 1-.07.33v.01a.02.02 0 0 0 .02 0c.25-.09.5-.14.76-.16 0 0 .02 0 .02.02v.02c-.16.11-.3.24-.43.4-.22.12-.38.27-.5.46-.13.21-.24.44-.32.7a.09.09 0 0 0 .04.1c.02 0 .04 0 .07-.03l.24-.22c.07-.04.07-.04.03.03-.12.17-.21.36-.29.59-.01.04 0 .09.04.13.01.02.01.04 0 .07a.3.3 0 0 0-.05.1c0 .03 0 .03.02.02l.03-.03h.03c.02.02.05.03.07.03l.03-.01.08-.05c.02-.01.03 0 .01.01-.06.1-.14.26-.1.36 0 .02.02.03.05.05a456.65 456.65 0 0 0 .4.19l-.14.05a.07.07 0 0 0-.05.07.07.07 0 0 0 .04.06c.34.14.66.3.97.48.03.01.05.04.06.07.1.33.4.51.74.5h.2l.14.03c.49.27.88.54 1.19.79.3.25.56.43.77.53.49.22.94.19 1.35-.11.31-.23.3-.77.19-1.1a5.58 5.58 0 0 1-.07-.23 1.5 1.5 0 0 1 .58-.76h.03c.18.03.36.02.53-.05a1.63 1.63 0 0 1-.04.8l-.26-.22-.03-.01h-.04v.02l.02.32-.02.25a.57.57 0 0 0-.14.2c-.12.39-.27.73-.46 1.04a63.6 63.6 0 0 1-.3.43.04.04 0 0 1-.03-.02l-.16-.27a.03.03 0 0 0-.03-.02.03.03 0 0 0-.02.03 4.32 4.32 0 0 1-.37.8.03.03 0 0 1-.02-.02 2.54 2.54 0 0 0-.43-.64.04.04 0 0 0-.03 0h-.02c-.22.23-.35.47-.52.79a.04.04 0 0 1-.03.02h-.02l-.02-.01a7.9 7.9 0 0 1-.7-1.15l-.02.01a3.47 3.47 0 0 0-.45.69.03.03 0 0 1-.06 0 3.1 3.1 0 0 1-.2-.43 13.91 13.91 0 0 1-.29-.78.03.03 0 0 0-.03.01 3.39 3.39 0 0 0-.59.93c-.38-.33-.69-.82-.89-1.27a42.94 42.94 0 0 1-.4-.93.03.03 0 0 0-.03.01 2.56 2.56 0 0 0-.33.55.03.03 0 0 1-.03 0 4.04 4.04 0 0 1-.45-2.18c0-.06-.02-.07-.06-.03l-.18.16c-.04.04-.06.03-.05-.02.06-.4.19-.77.39-1.13l.3-.52A.97.97 0 0 0 5.83 8a.16.16 0 0 0 .06-.1l-.01-.04-.04-.02a.05.05 0 0 0-.06.01l-.33.34a.02.02 0 0 1-.02 0l-.22-.04c-.02 0-.03-.02-.01-.04.25-.32.47-.67.65-1.06Z" fill="#8F5C48"/><path d="M10.88 7.77a.57.57 0 0 0-.2.03v-.01h-.01c0-.16.03-.31.09-.45.03-.09.07-.14.11-.17.17-.1.37.11.45.25.1.14.18.3.24.5.07.2.08.39.03.59a.12.12 0 0 1-.11.1h-.11c-.06.01-.08-.01-.06-.06a.6.6 0 0 0-.08-.47.03.03 0 0 0-.03-.01c-.2.02-.3-.07-.3-.27 0-.02 0-.03-.02-.03ZM8.32 7.72a.02.02 0 0 0 0-.03.46.46 0 0 0-.48-.05.02.02 0 0 1-.02-.01c.12-.33.46-.58.81-.38.12.07.22.14.27.22a2.98 2.98 0 0 1 .58 1.3l-.02.02a2.23 2.23 0 0 1-.93.03.03.03 0 0 1 0-.04.93.93 0 0 0 .1-.65.02.02 0 0 0-.04 0c-.09.04-.17.04-.25 0a.2.2 0 0 1-.12-.18.3.3 0 0 1 .1-.23Z" fill="#fff"/><path d="M12.31 7.98a.07.07 0 0 0 .04.13l.42.05.02.03v.04c-.01.02-.02.03-.05.04l-.34.01a2.3 2.3 0 0 0-.6.14V8.4a4.45 4.45 0 0 0 .03-.72 1.63 1.63 0 0 0 .62.2v.02a.76.76 0 0 0-.14.07Z" fill="#8F5C48"/><path d="M6.38 7.91c.07.02.1.06.08.13 0 .01-.01.02-.03.02a.85.85 0 0 0-.32.25c-.1.13-.2.27-.26.43-.02.04 0 .06.04.03l.07-.05a.69.69 0 0 1 .28-.15h.03c.08.02.09.07.04.12-.16.2-.3.4-.4.6l-.15.35-.02.04h-.05c-.04-.04-.05-.09-.04-.13.08-.23.17-.42.29-.6.04-.06.03-.06-.03-.02l-.24.22c-.03.02-.05.03-.07.02a.09.09 0 0 1-.04-.1c.08-.25.19-.48.32-.69.11-.19.28-.34.5-.47Z" fill="#020102"/><path d="M5.82 8a.97.97 0 0 1-.06.16l-.31.52c-.2.36-.33.74-.39 1.13 0 .05 0 .06.05.02l.18-.16c.04-.04.06-.03.06.03a4.04 4.04 0 0 0 .47 2.19h.01l.01-.02a2.56 2.56 0 0 1 .33-.55.03.03 0 0 1 .03 0l.02.02.37.9a3.73 3.73 0 0 0 .91 1.28 3.39 3.39 0 0 1 .6-.94h.02v.02l.27.76a3.08 3.08 0 0 0 .23.44.03.03 0 0 0 .03-.01l.08-.13a3.47 3.47 0 0 1 .4-.57.03.03 0 0 1 .02.02c.15.3.28.56.42.78a2.73 2.73 0 0 0 .27.36.04.04 0 0 0 .03 0l.02-.02c.17-.32.3-.56.52-.78a.04.04 0 0 1 .03-.02.04.04 0 0 1 .04.02 2.54 2.54 0 0 1 .42.64.03.03 0 0 0 .03 0 4.32 4.32 0 0 0 .37-.82.03.03 0 0 1 .03.02l.16.27.01.02a.04.04 0 0 0 .06-.02l.26-.41c.19-.31.34-.65.46-1.03a.57.57 0 0 1 .14-.21c-.03.2-.07.38-.12.53a5.33 5.33 0 0 1-.8 1.37v-.01a1.49 1.49 0 0 0-.12-.21c-.03-.06-.07-.07-.1-.06a.05.05 0 0 0-.04.03c-.08.27-.2.53-.36.79-.03.05-.06.04-.07-.01a.92.92 0 0 0-.38-.58.05.05 0 0 0-.05 0 .42.42 0 0 0-.14.12 1.82 1.82 0 0 0-.28.66l-.01.01h-.03c-.1-.08-.2-.16-.28-.26a2.55 2.55 0 0 1-.48-.9l-.04-.07c-.03-.02-.07 0-.1.03a.67.67 0 0 0-.11.21 2.82 2.82 0 0 0-.17.65.02.02 0 0 1-.01 0c-.12-.11-.2-.22-.27-.33-.18-.3-.3-.63-.35-.98 0-.04-.01-.06-.03-.07-.03-.03-.07-.03-.1 0-.08.1-.16.22-.23.38a3.97 3.97 0 0 0-.22.62.02.02 0 0 1-.02 0 2.4 2.4 0 0 1-.34-.3 3.6 3.6 0 0 1-.6-.89 5.1 5.1 0 0 1-.38-.98c-.03-.03-.06-.03-.1 0a3.39 3.39 0 0 0-.28.62 3.42 3.42 0 0 1-.47-1.13A6.24 6.24 0 0 1 5.2 10l-.02-.02c-.03-.01-.06 0-.1.02-.07.05-.15.13-.24.22-.04.04-.06.03-.05-.02 0-.08 0-.17.03-.27.12-.52.32-1 .59-1.43.1-.18.24-.35.41-.52Z" fill="#794E3C"/><path d="M13.26 8.67c-.13.1-.28.18-.47.25a1.3 1.3 0 0 1-.51.09c-.2-.01-.4-.05-.6-.12-.02 0-.03-.01-.02-.03 0-.03.03-.05.06-.06l.23-.05c.32-.06.65-.1.99-.13h.3c.06 0 .06.02.02.05ZM12.13 10.58l.16-.34a.04.04 0 0 1 .03-.02c.2-.01.38-.08.53-.2.18-.14.32-.32.43-.52h.02l.02.01c-.01.25-.1.5-.25.76-.21.37-.52.49-.93.34-.01 0-.02-.01-.01-.03Z" fill="#2F2F2F"/><path d="M9.04 10.33a.7.7 0 0 1 .14.14c.08.09.15.16.22.21.07.05.06.07-.02.06l-.1.01a6.33 6.33 0 0 1-.7-.17 1.54 1.54 0 0 0-.65.05c-.03 0-.04.03-.04.06 0 .05.02.07.06.07.03 0 .09 0 .17-.03l.12.01v.01c.06.03.13.05.23.07l.22.06.5.12a1.78 1.78 0 0 0 .67.01c.04 0 .1 0 .15.03.06.03.14.04.24.06a.05.05 0 0 1 .04.03.05.05 0 0 1 0 .05.69.69 0 0 1-.25.21.6.6 0 0 1-.3.07c-.29 0-.46-.06-.78-.16a1.95 1.95 0 0 0-.77-.07h-.27c-.36-.04-.56-.22-.6-.56.06-.22.19-.38.37-.48.11-.06.24-.08.4-.08.15 0 .28.02.4.06l.55.16Z" fill="#DC8480"/><path d="M9.28 10.75a.32.32 0 0 1 .1-.01c.08.01.08 0 .02-.06a1.57 1.57 0 0 1-.22-.21.7.7 0 0 0-.14-.14l.19.02a.1.1 0 0 1 .07.03l.35.35v.02h-.37ZM7.3 10.67c.06.34.26.52.62.56h.26l.27-.01c.17 0 .34.03.5.08.33.1.5.16.8.16a.6.6 0 0 0 .3-.07.7.7 0 0 0 .23-.21.05.05 0 0 0-.04-.08.85.85 0 0 1-.23-.06.3.3 0 0 0-.15-.03l-.16.02c-.17.01-.34 0-.52-.03a8.2 8.2 0 0 1-.94-.26h-.13c.27-.05.52-.04.73.04.36.13.7.16 1 .08h.05l.3.12a1.6 1.6 0 0 0 .44.09.04.04 0 0 1 .02.03v.01c-.09.2-.22.38-.41.52l-.32.2a.6.6 0 0 1-.26.05c-.2 0-.4-.04-.61-.11l-.59-.2a1.3 1.3 0 0 0-.44-.07h-.3a.6.6 0 0 1-.3-.16.5.5 0 0 1-.15-.31.8.8 0 0 1 .04-.36Z" fill="#B67069"/><path d="M12.03 10.76a1.4 1.4 0 0 0-.44.56h-.01a.02.02 0 0 1-.02 0 .64.64 0 0 1-.06-.27c0-.04.02-.06.05-.07.16-.05.3-.13.42-.24a.04.04 0 0 1 .04 0h.02a.01.01 0 0 1 0 .02Z" fill="#2F2F2F"/><path d="m12.44 11.66-.02-.32v-.01l.02-.01h.02l.03.01.25.22h.02v-.01c.08-.26.09-.52.03-.79.03-.01.05-.02.07-.01l.03.04a1.72 1.72 0 0 1-.08 1.07h-.02l-.2-.17c-.04-.05-.1-.06-.15-.02Z" fill="#794E3C"/><path d="m9.94 12.06.1.08c.18.15.4.26.64.32.35.1.7-.09.73-.46v-.25a12.99 12.99 0 0 0-.1-.72h.02v-.01h.01c.04.22.1.44.18.66.06.18.1.3.1.36.02.1.02.23 0 .37-.01.18-.1.31-.24.4-.3.2-.63.24-.98.12a1.84 1.84 0 0 1-.4-.2c-.23-.14-.48-.36-.67-.5a44.46 44.46 0 0 0-.5-.39h.02c.22.1.46.16.71.18l.29-.01c.04-.01.07 0 .1.05Z" fill="#2F2F2F"/><path d="M10.77 12.33a.64.64 0 0 1 .1-.1c.06-.04.1-.12.1-.22a1.2 1.2 0 0 0-.2-.74h-.02l-.02.01c.02-.05.05-.14.09-.18l.07-.02a3.7 3.7 0 0 0 .24 0l.02.03c.06.23.1.45.11.66.02.12.01.23-.02.33a.26.26 0 0 1-.09.14.46.46 0 0 1-.38.09Z" fill="#2F1A18"/><path d="M10.77 12.33a1.48 1.48 0 0 1-.73-.37v-.01a.03.03 0 0 1 .01-.02c.19-.1.35-.23.5-.38.06-.06.12-.14.18-.27l.02-.01h.02l.01.01c.14.22.2.46.2.73-.01.1-.05.18-.1.22a.64.64 0 0 0-.1.1Z" fill="#522C2B"/><path d="M6.54 12.9a3.57 3.57 0 0 1-.6-.44l.16-.5c.02-.05.03-.05.04 0 .1.3.23.61.4.93ZM8.12 13.5a.2.2 0 0 1-.14 0l-.17-.04.16-.38H8l.13.42Z" fill="#6926D9"/></svg>