<!-- by TradingView --><svg width="18" height="18" viewBox="0 0 18 18" xmlns="http://www.w3.org/2000/svg"><path fill="#181B1E" d="M0 0h18v18H0z"/><path d="M4 6.43C4 5.43 4.7 5 5.3 5c.9 0 1.94.6 2.58 1.17.45.39.92.48 1.12.5.2-.02.67-.11 1.12-.5A4.43 4.43 0 0 1 12.7 5c.6 0 1.3.43 1.3 1.43s-.93 2.48-2.21 3.24c.2.2 1.03 1.21 1.03 2.05 0 .85-.6 1.28-1.1 1.28-.82 0-1.22-.43-1.59-.83-.31-.34-.6-.65-1.13-.65-.53 0-.82.31-1.13.65-.37.4-.77.83-1.6.83-.5 0-1.1-.43-1.1-1.28 0-.84.85-1.86 1.04-2.05C4.93 8.91 4 7.42 4 6.43Zm1.48.62c.11.27.6.99 1.62 1.71.22-.17.67-.62.67-1.01 0-.4-.86-1.2-1.67-1.2-.45 0-.62.29-.62.5Zm5.44 1.71a5.02 5.02 0 0 0 1.63-1.7c0-.22-.18-.5-.63-.5-.8 0-1.67.8-1.67 1.19 0 .39.45.84.67 1.01ZM9 8.26l-.92.89a3.25 3.25 0 0 0 1.86 0L9 8.25ZM7.63 11c-.17-.34-.54-.7-.7-.83-.46.4-.6.82-.6 1.08 0 .26.19.45.38.45.42 0 .75-.45.88-.64l.04-.06Zm3.46-.83c-.16.13-.53.49-.7.83l.04.06c.13.19.46.64.88.64.2 0 .4-.2.4-.45 0-.26-.16-.67-.62-1.08Z" fill="#fff"/><path d="M7.07 12.83c-.22.1-.47.17-.8.17-.5 0-1.1-.43-1.1-1.28 0-.84.84-1.85 1.04-2.05.25.15.5.31.72.5-.46.41-.58.82-.58 1.08 0 .26.17.45.36.45.42 0 .76-.46.9-.65 0-.02.02-.04.03-.05.08.18.13.36.13.55 0 .53-.34.97-.7 1.28ZM11.8 9.68c.2.22 1.02 1.21 1.02 2.04 0 .85-.6 1.28-1.1 1.28-.3 0-.53-.05-.74-.14-.37-.31-.8-.77-.8-1.3 0-.2.12-.38.2-.56.1.14.47.7.93.7.2 0 .39-.2.39-.45 0-.26-.15-.67-.6-1.08.22-.18.46-.35.7-.49ZM6.79 5.42c.41.22.8.48 1.1.75.44.39.91.48 1.11.5.2-.02.67-.11 1.12-.5.3-.27.7-.54 1.12-.76.25-.07.53-.11.8-.11.5 0 .78.3.78.8 0 .52-.19.95-.55 1.4.14-.2.24-.35.28-.45 0-.21-.18-.5-.63-.5-.8 0-1.67.8-1.67 1.2 0 .38.44.83.66 1-.29.19-.6.32-.97.4-.11-.12-.67-.65-.94-.9l-.92.9.14.03c-.43-.07-.77-.2-1.11-.42.22-.18.66-.63.66-1.01 0-.4-.86-1.2-1.67-1.2-.45 0-.62.29-.62.5 0 .04.03.07.05.12a2.08 2.08 0 0 1-.35-1.07c0-.5.25-.8.75-.8.3 0 .6.05.86.12Z" fill="#E1DFEC"/></svg>