<!-- by TradingView --><svg width="18" height="18" viewBox="0 0 18 18" xmlns="http://www.w3.org/2000/svg"><path fill="#07175B" d="M0 0h18v18H0z"/><path fill-rule="evenodd" d="M9 14A5 5 0 1 0 9 4a5 5 0 0 0 0 10Zm0-.63c.7 0 1.37-.16 1.95-.45l-.46-.35H7.38l-.41.3c.6.32 1.3.5 2.03.5ZM10.9 12l.65.55c.38-.27.7-.6.98-.96l-.53-.62V7.03l.53-.62a4.4 4.4 0 0 0-.99-.97L10.9 6H6.97l-.58-.5a4.4 4.4 0 0 0-.9.89l.51.64v3.94l-.51.64c.25.34.55.64.88.89l.6-.5h3.93Zm-.4-6.54.46-.37a4.36 4.36 0 0 0-4 .04l.42.33h3.11ZM4.61 9c0-.72.18-1.4.5-2l.4.44v3.12l-.4.45A4.36 4.36 0 0 1 4.61 9Zm8.28 2a4.36 4.36 0 0 0 0-4l-.33.44v3.12l.33.43ZM7 11V7h.8L10 9.5V7h1v4h-.82L8 8.5V11H7Z" fill="#fff"/></svg>