<!-- by TradingView --><svg width="18" height="18" viewBox="0 0 18 18" xmlns="http://www.w3.org/2000/svg"><path fill="#266524" d="M0 0h18v18H0z"/><path d="M7.4 4 9 5.6 10.6 4H14v3.38L12.38 9 14 10.62V14h-3.4L9 12.4 7.4 14H4v-3.38L5.61 9 4 7.38V4h3.4Z" fill="#4CCA47"/><path d="M6.61 8.72s.8-.8 1.89-.88V7.5C7.3 7.6 6 8.67 6 8.67s.85 1.7 2.5 1.86v-.31c-1.21-.15-1.89-1.5-1.89-1.5Zm1.89.88v.29c-.92-.17-1.43-1.13-1.43-1.13s.7-.51 1.43-.6v.35c-.38-.05-.95.31-.95.31s.43.6.95.78Zm0-2.6v.5h.1c1.36-.05 2 1.16 2 1.16S9.56 9.91 8.5 9.91c-.1 0 .09 0 0-.02v.33l.22.02c.99 0 1.45-.51 2.15-1.12.11.1.58.32.68.42a5.12 5.12 0 0 1-3.05 1V11H12V7H8.5Zm0 1.17v-.33h.1c.98-.04 1.4.83 1.4.83s-.72 1-1.46 1c-.11 0 .05-.04-.04-.07V8.5c.38.05.43.22.66.6l.34-.43s-.22-.5-.85-.5H8.5Z" fill="#F7F7FA"/></svg>