<!-- by TradingView --><svg width="18" height="18" viewBox="0 0 18 18" xmlns="http://www.w3.org/2000/svg"><path fill="#192845" d="M0 0h18v18H0z"/><ellipse cx="9" cy="9" rx="4" ry=".33" fill="url(#a50du3dtt)"/><ellipse cx="9" cy="9" rx="6" ry=".29" transform="rotate(-90 9 9)" fill="url(#b50du3dtt)"/><path d="M8.02 7c.12-.08.66.75 1.2 1.85.54 1.1.88 2.06.76 2.14-.12.09-.66-.74-1.2-1.84-.54-1.1-.88-2.06-.76-2.14Z" fill="url(#c50du3dtt)"/><path d="M9.98 7c-.12-.08-.66.75-1.2 1.85-.54 1.1-.88 2.06-.76 2.14.12.09.66-.74 1.2-1.84.54-1.1.88-2.06.76-2.14Z" fill="url(#d50du3dtt)"/><ellipse cx="12.86" cy="7.83" rx=".14" ry=".17" fill="#8A9AB9"/><ellipse cx="11.14" cy="6.83" rx=".14" ry=".17" fill="#97A5CA"/><ellipse cx="11.14" cy="7.83" rx=".14" ry=".17" fill="#7585A9"/><ellipse cx="10.29" cy="13.83" rx=".14" ry=".17" fill="#70819F"/><ellipse cx="6.57" cy="6.5" rx=".14" ry=".17" fill="#7887A6"/><ellipse cx="10.29" cy="5.5" rx=".14" ry=".17" fill="#5F6D91"/><ellipse cx="7.14" cy="7.5" rx=".14" ry=".17" fill="#4D5C7D"/><ellipse cx="7.43" cy="10.5" rx=".14" ry=".17" fill="#939EC9"/><ellipse cx="5.43" cy="3.83" rx=".14" ry=".17" fill="#3D4C69"/><defs><linearGradient id="a50du3dtt" x1="5" y1="9" x2="13" y2="9" gradientUnits="userSpaceOnUse"><stop stop-color="#404E73"/><stop offset=".47" stop-color="#D2FFFA"/><stop offset="1" stop-color="#526085"/></linearGradient><linearGradient id="b50du3dtt" x1="3" y1="9" x2="15" y2="9" gradientUnits="userSpaceOnUse"><stop stop-color="#404E73"/><stop offset=".47" stop-color="#D2FFFA"/><stop offset="1" stop-color="#526085"/></linearGradient><linearGradient id="c50du3dtt" x1="10" y1="11.17" x2="7.1" y2="7.77" gradientUnits="userSpaceOnUse"><stop stop-color="#404E73"/><stop offset=".47" stop-color="#D2FFFA"/><stop offset="1" stop-color="#526085"/></linearGradient><linearGradient id="d50du3dtt" x1="8" y1="11" x2="10.84" y2="7.94" gradientUnits="userSpaceOnUse"><stop stop-color="#404E73"/><stop offset=".47" stop-color="#D2FFFA"/><stop offset="1" stop-color="#526085"/></linearGradient></defs></svg>