<!-- by TradingView --><svg width="18" height="18" viewBox="0 0 18 18" xmlns="http://www.w3.org/2000/svg"><path fill="#529C92" d="M0 0h18v18H0z"/><path d="M9 10a3 3 0 1 0 0-6 3 3 0 0 0 0 6Zm3.5-3c1.2.65 1.96 1.65 1.96 2.76 0 1.34-1.11 2.5-2.76 3.12-.02.27-.1.52-.23.74 2.08-.66 3.53-2.14 3.53-3.86 0-1.45-1.02-2.73-2.58-3.5.05.24.08.49.08.73Zm1 2.98c0 1.01-.72 1.9-1.83 2.46-.04-.2-.12-.4-.23-.58.68-.4 1.1-.98 1.1-1.62 0-.47-.23-.91-.63-1.27.2-.3.36-.65.46-1 .7.53 1.12 1.24 1.12 2.01Zm-2.15 2.61c-.03-.2-.1-.4-.2-.57-.6.29-1.34.46-2.15.46-.81 0-1.56-.17-2.15-.46-.1.18-.17.37-.2.57.69.29 1.49.45 2.35.45.86 0 1.66-.16 2.35-.45Zm.4-2.21c0 .43-.2.83-.55 1.16-.2-.21-.43-.4-.7-.53a.78.78 0 0 0 .04-.25.83.83 0 0 0-.18-.51 3.5 3.5 0 0 0 1.1-.74c.19.26.3.56.3.87Zm-.8 1.35a2.17 2.17 0 0 0-.59-.47c-.25.34-.77.58-1.36.58-.6 0-1.1-.24-1.36-.58-.23.13-.43.29-.6.47.5.35 1.2.57 1.96.57s1.45-.22 1.95-.57Zm-3.5-.97c0 .08.02.17.05.25-.27.14-.5.32-.7.53a1.58 1.58 0 0 1-.55-1.16c0-.31.1-.6.3-.87.3.31.68.56 1.1.74a.83.83 0 0 0-.2.5Zm-1.99-.52c0 .64.42 1.21 1.1 1.62-.11.18-.2.38-.23.58C5.23 11.9 4.5 11 4.5 9.98c0-.77.43-1.48 1.13-2.02.1.36.26.7.46 1-.4.37-.63.8-.63 1.28Zm-1.92-.48c0 1.34 1.11 2.5 2.76 3.12.02.27.1.52.23.74C4.45 12.96 3 11.48 3 9.76c0-1.45 1.02-2.73 2.58-3.5-.05.24-.08.49-.08.73-1.2.66-1.96 1.66-1.96 2.77ZM9 13.36c-.84 0-1.63-.13-2.34-.35.05.27.17.53.35.75a8.26 8.26 0 0 0 3.98 0c.18-.22.3-.48.35-.75-.71.22-1.5.34-2.34.34Z" fill="#fff"/></svg>