<!-- by TradingView --><svg width="18" height="18" viewBox="0 0 18 18" xmlns="http://www.w3.org/2000/svg"><path fill="#F4F4EC" d="M0 0h18v18H0z"/><path d="M6.5 9.66v-.02a64.17 64.17 0 0 1-.68-.54c-.03-.02-.05-.02-.09-.02a5.81 5.81 0 0 0-.83-.55 2.43 2.43 0 0 0-.83-.25.94.94 0 0 0-.65.17c-.26.18-.4.38-.45.62-.03.2.02.4.16.6.14.18.32.3.56.38.25.08.5.08.74 0l.32.87a2.16 2.16 0 0 1-2.51-.88 1.63 1.63 0 0 1 .13-1.87c.21-.3.5-.51.84-.66.4-.18.85-.21 1.35-.1.41.1.83.28 1.24.56l.65.45v.01l.03.03.75.56c.53.42 1.06.82 1.6 1.22.45.32.93.56 1.45.71.52.16 1.04.16 1.55.02a3.06 3.06 0 0 0 2.2-2.8c.01-.44-.05-.81-.17-1.13a1.6 1.6 0 0 0-.73-.84 2.05 2.05 0 0 0-.84-.27 3.04 3.04 0 0 0-1.9.49c-.5.32-1.17.84-2 1.57l-.69-.66c.62-.55 1.27-1.07 1.94-1.55A4.11 4.11 0 0 1 11.9 5c.56-.02 1.08.08 1.55.3A2.7 2.7 0 0 1 15 7.95c0 .49-.09.97-.25 1.43-.17.5-.41.93-.72 1.26-.51.55-1.1.94-1.76 1.16-.7.24-1.4.26-2.13.08-.38-.1-.76-.25-1.15-.45-.32-.17-.66-.4-1.02-.67a58.37 58.37 0 0 1-1.47-1.1Z" fill="#107C76"/><path d="M8.39 7.99 7.23 9.02l-.75-.56-.02-.03v-.01L7.7 7.33 8.4 8Z" fill="url(#a)"/><path d="M6.5 9.66c-.33.32-.6.55-.82.72-.32.25-.64.43-.93.54l-.32-.88c.37-.16.8-.48 1.3-.96l.08.01a64.07 64.07 0 0 0 .68.55l.01.02Z" fill="url(#b)"/><defs><linearGradient id="a" x1="6.88" y1="8.66" x2="7.85" y2="7.65" gradientUnits="userSpaceOnUse"><stop stop-color="#15514F"/><stop offset="1" stop-color="#107C76"/></linearGradient><linearGradient id="b" x1="5.97" y1="9.91" x2="4.77" y2="10.46" gradientUnits="userSpaceOnUse"><stop stop-color="#15514F"/><stop offset="1" stop-color="#107C76"/></linearGradient></defs></svg>