<!-- by TradingView --><svg width="18" height="18" viewBox="0 0 18 18" xmlns="http://www.w3.org/2000/svg"><path fill="url(#a)" d="M0 0h18v18H0z"/><path fill-rule="evenodd" d="M3.5 8.33c-.1 0-.17.08-.17.17v1c0 .1.08.17.17.17h1c.1 0 .17-.08.17-.17v-1c0-.1-.08-.17-.17-.17h-1ZM2.17 7c-.1 0-.17.07-.17.17v3.66c0 .1.07.17.17.17h3.66c.1 0 .17-.07.17-.17V7.17c0-.1-.07-.17-.17-.17H2.17Z" fill="#F0F3FA"/><path d="M7 7.17c0-.1.07-.17.17-.17h1c.09 0 .16.07.16.17v1.16H9.5c.1 0 .17.08.17.17v1c0 .1-.08.17-.17.17H8.33v1.16c0 .1-.07.17-.16.17h-1a.17.17 0 0 1-.17-.17V7.17Zm2.67 0c0-.1.07-.17.16-.17h1c.1 0 .17.07.17.17v1c0 .09-.07.16-.17.16h-1a.17.17 0 0 1-.16-.16v-1Zm0 2.66c0-.09.07-.16.16-.16h1c.1 0 .17.07.17.16v1c0 .1-.07.17-.17.17h-1a.17.17 0 0 1-.16-.17v-1ZM12.17 7c-.1 0-.17.07-.17.17v1c0 .09.07.16.17.16h1c.09 0 .16-.07.16-.16v-1c0-.1-.07-.17-.16-.17h-1ZM12 9.83c0-.09.07-.16.17-.16h1c.09 0 .16.07.16.16v1c0 .1-.07.17-.16.17h-1a.17.17 0 0 1-.17-.17v-1ZM14.83 7c-.09 0-.16.07-.16.17v1c0 .09.07.16.16.16h1c.1 0 .17-.07.17-.16v-1c0-.1-.07-.17-.17-.17h-1Zm-1.5 1.5c0-.1.08-.17.17-.17h1c.1 0 .17.08.17.17v1c0 .1-.08.17-.17.17h-1a.17.17 0 0 1-.17-.17v-1Zm1.5 1.17c-.09 0-.16.07-.16.16v1c0 .1.07.17.16.17h1c.1 0 .17-.07.17-.17v-1c0-.09-.07-.16-.17-.16h-1Z" fill="#F0F3FA"/><defs><linearGradient id="a" x1="3.35" y1="3.12" x2="21.9" y2="24.43" gradientUnits="userSpaceOnUse"><stop stop-color="#1A1E21"/><stop offset="1" stop-color="#06060A"/></linearGradient></defs></svg>