<!-- by TradingView --><svg width="18" height="18" viewBox="0 0 18 18" xmlns="http://www.w3.org/2000/svg"><path fill="#181B1E" d="M0 0h18v18H0z"/><path d="M8 7.5 5.81 8.83l3.03 1.5L11 9 8 7.5Z" fill="#fff"/><path d="m5 9 4 2v3l-4-2V9Z" fill="#4F4F4F"/><path d="M9.36 3.23c-.41-.22-.54-.23-.7-.23-.33 0-.46.28-.66.5L12 9l1-.5V5.08c.3 0 .28-.1.38-.08-1.07-.6-3.7-1.6-4.02-1.77Z" fill="#4C4C4C"/><path d="M13.5 5.02c-.08-.04-.36 0-.5 0V8.5a3 3 0 0 0 1-2.27c0-.88-.4-1.15-.5-1.2ZM12 9l-3 2v3l3-1.9V9Z" fill="#444"/><path d="m8 3.5 4 1.93V9L8 7.07V3.5Z" fill="url(#a)"/><defs><linearGradient id="a" x1="10.86" y1="4.69" x2="9.69" y2="7.58" gradientUnits="userSpaceOnUse"><stop stop-color="#0A0A0A"/><stop offset="1" stop-color="#ABABAB"/></linearGradient></defs></svg>