<!-- by TradingView --><svg xmlns="http://www.w3.org/2000/svg" width="18" height="18"><path fill="#353535" d="M0 0h18v18H0z"/><path fill-rule="evenodd" d="M9 4.5a.5.5 0 00-.06-.25c.33.05.66.14.97.26a4.29 4.29 0 00-.91 0zm-.95.22c-.53.18-1.02.47-1.43.83A4.52 4.52 0 004.39 9.1a.75.75 0 00-.24.2 4.35 4.35 0 013.93-5.07.5.5 0 00-.03.5zm.13-.6a4.45 4.45 0 00-4.1 5.3.75.75 0 00.27.97c.06.15.14.3.21.44A4.39 4.39 0 008.74 14c.72 0 1.4-.18 2-.5h.01c.31 0 .58-.2.7-.47l.13-.11c.45-.26.84-.6 1.18-1 .05.03.11.04.18.04.25 0 .45-.2.45-.47a.48.48 0 00-.12-.32 4.6 4.6 0 00.54-2.28.5.5 0 00-.1-.84 4.44 4.44 0 00-3.43-3.48 4.24 4.24 0 00-1.43-.43.5.5 0 00-.67-.02zm5.43 3.9a4.36 4.36 0 00-3-3.27 4.5 4.5 0 011.93 2.52c.2.38.36.78.46 1.22a.5.5 0 01.6-.48zm-.57.68a4.67 4.67 0 01-.2 2.33.44.44 0 01.35.07c.33-.63.52-1.35.52-2.11v-.04a.5.5 0 01-.67-.25zm-.32 2.38a.47.47 0 00-.23.51c-.24.48-.58.9-.97 1.24l-.03.02.01-.1a.75.75 0 00-.36-.64 4.55 4.55 0 001.52-4.37 4.5 4.5 0 01.06 3.34zm-.18.64c.03.06.08.11.13.15-.22.26-.46.49-.73.69.23-.26.43-.54.6-.84zm-1.98 1.76a.75.75 0 01-.2-.09 4.26 4.26 0 01-2.83-.35 4.36 4.36 0 01-2.71-1.8 4.27 4.27 0 003.92 2.66c.65 0 1.27-.15 1.82-.42zm-.3-.17a.75.75 0 01-.26-.51 4.24 4.24 0 01-2.09.3 4.15 4.15 0 002.34.21zm.49-1.31c.1 0 .2.02.29.06a4.45 4.45 0 001.41-4.75 4.38 4.38 0 00-1.3-1.45c-.08.09-.2.15-.33.15a.46.46 0 01-.46-.47c0-.04 0-.08.02-.12a4.15 4.15 0 00-3.7.22 4.45 4.45 0 00-1.5 3.5.75.75 0 01.16 1.07c.17.6.45 1.14.82 1.6a.3.3 0 01.26-.16c.17 0 .3.14.3.31 0 .12-.06.23-.15.28.3.28.63.52 1 .7A4.16 4.16 0 0010 12.7a.75.75 0 01.75-.69zm-4.3.28c.23.21.48.4.75.57a4.3 4.3 0 01-2.54-2.06l-.08-.31a.75.75 0 00.68-.18c.18.6.48 1.15.86 1.62v.04a.3.3 0 00.34.32zm5.84-5.42c-.3-.42-.66-.79-1.08-1.08a.48.48 0 00.03-.43c.44.42.8.94 1.05 1.51zm-2.04-2.2c.23.12.45.26.66.42a.45.45 0 00-.5.25 4.24 4.24 0 00-1.8-.34.5.5 0 00.38-.38 4.19 4.19 0 011.26.05zm-2.15.15c.09.1.2.17.35.19-.49.03-.95.14-1.38.33.32-.22.66-.4 1.03-.52zM5.07 8.99v.08a.75.75 0 00-.58-.02c.13-1.3.8-2.42 1.76-3.14A4.57 4.57 0 005.07 9zM7.03 6a.3.3 0 01-.3.31.3.3 0 01-.3-.31.3.3 0 01.3-.32c.16 0 .3.15.3.32z" fill="#fff"/></svg>