<!-- by TradingView --><svg width="18" height="18" viewBox="0 0 18 18" xmlns="http://www.w3.org/2000/svg"><path fill="#F0F3FA" d="M0 0h18v18H0z"/><path d="M11.46 3a5.32 5.32 0 0 0-1.54 1.37c.03-.02.2-.08.66-.13.45-.06.8-.53.92-.77-.03.3-.38.87-.55 1.13.05-.08.27-.23.72-.23.45 0 .75.3.84.45-.5-.23-.85-.02-.97.11.8 0 1.19.36 1.28.54a1.2 1.2 0 0 0-.77.03c.94.03 1.33.58 1.4.85a.92.92 0 0 0-.75-.15c.87.23 1.13.83 1.15 1.1-.25-.2-.58-.27-.71-.27.75.5.85 1.06.8 1.28a.72.72 0 0 0-.47-.31c.54.48.57 1.23.5 1.55v-.02A5 5 0 1 1 8.7 4c-.97.33-1.39.98-1.51 1.38a4.03 4.03 0 0 0 1.78 7.65 4.02 4.02 0 0 0 3.77-2.66.85.85 0 0 0-.12.17c-.37.7-1.4 1.46-2.33 1.46-.74 0-1.26-.15-1.43-.22 2.9-.07 3.18-2.39 3.18-3.18a3.2 3.2 0 0 0-.32-1.37c.3.92.17 1.7.06 1.98.06-2.27-1.53-2.57-1.78-2.57a.9.9 0 0 0-.38.07c-.06-.2.04-.36.04-.56 0-.2-.23-.45-.23-.58 0-.11.04-.24.06-.3a.37.37 0 0 0-.12.3c0 .2.17.45.17.56 0 .11-.05.16-.05.45 0 .3.09.5.13.56l-.88-.02.1.29c-.98.07-1.93.43-1.93.67 0 .2.16.33.23.37a.69.69 0 0 1-.69-.07l.1-.16.15.09.02-.09-.12-.16.31-.38-.04-.05c-.18.11-.43.5-.53.68-.05-.03-.16-.11-.16-.2 0-.1.1-.17.14-.2l-.1-.12-.13.34c-.23-.34 0-.76 0-.79 0 .15.1.18.15.18l.52-.54c.1-.05.33-.2.53-.34s.22-.3.21-.35l-.21.06v.14l-.46.38.1-.52c.24-.25.75-.8.89-.99.13-.18.2-.5.23-.65.01.27.13.26.19.22 1.02-1.38 2.16-1.85 2.6-1.9a3.9 3.9 0 0 0-1.11.9A5.46 5.46 0 0 1 11.46 3Zm2.4 6.46h.05l-.06-.07v.07Z" fill="#FF4508"/></svg>