<!-- by TradingView --><svg width="18" height="18" viewBox="0 0 18 18" xmlns="http://www.w3.org/2000/svg"><path fill="#181B1E" d="M0 0h18v18H0z"/><path fill-rule="evenodd" d="M10 4c1.33 1.3 4 4.34 4 6.19A1.7 1.7 0 0 1 12.38 12c-.56 0-1.65-.5-1.65-1.81 0-.6.06-.97.13-1.38.09-.5.18-1.06.18-2.13 0-.74-.7-2.1-1.04-2.68Zm1.54 2.67c.57.68 1.73 2.33 1.73 3.43 0 .83-.34 1.3-.89 1.3s-.93-.66-.93-1.22c0-.33.16-.58.31-.84.17-.28.35-.57.35-.97 0-.46-.25-.94-.43-1.28-.11-.22-.2-.38-.14-.42Z" fill="url(#a)"/><path fill-rule="evenodd" d="M4 10c.58-1.56 2.14-4.9 3.72-5.74 1.16-.6 1.96-.02 2.17.39.22.41.2 1.4-.92 2-.5.26-.85.39-1.22.53-.46.18-.96.37-1.87.85A7.8 7.8 0 0 0 4 10Zm1.71-2.29c.35-.75 1.27-2.4 2.2-2.89.7-.37 1.24-.32 1.46.1.22.43-.19 1.02-.67 1.28a1.6 1.6 0 0 1-.83.13c-.3 0-.61 0-.95.17-.39.21-.7.62-.9.9-.15.2-.25.33-.3.31Z" fill="url(#b)"/><path fill-rule="evenodd" d="M12 12.7c-1.7.28-5.47.6-7.04-.27-1.15-.63-1.05-1.55-.8-1.92.25-.37 1.14-.82 2.25-.2.5.27.8.49 1.12.72.4.28.83.6 1.73 1.1.63.35 2.09.53 2.74.57Zm-2.77-.29c-.87.08-2.85.1-3.81-.4-.72-.38-.96-.83-.7-1.2s1.02-.32 1.51-.06c.28.15.43.37.58.6.16.23.32.48.67.67.4.2.94.26 1.31.3.25.02.43.04.44.1Z" fill="url(#c)"/><path d="M10.2 8.14a.15.15 0 0 0 .02-.2 1.9 1.9 0 0 0-1.37-.64 1.8 1.8 0 0 0-1.38.62.15.15 0 0 0 .02.2c.06.06.15.05.2-.01a1.6 1.6 0 0 1 1.16-.51 1.53 1.53 0 0 1 1.14.52c.06.06.15.07.2.02Z" fill="#F6C006"/><path d="M9.82 8.45c.06-.05.08-.14.02-.2a1.4 1.4 0 0 0-1-.45 1.34 1.34 0 0 0-1 .44c-.05.06-.04.15.02.2.06.06.15.05.2-.01a1.12 1.12 0 0 1 .78-.33 1.07 1.07 0 0 1 .78.34c.05.05.14.06.2.01Z" fill="#F6C006"/><path d="M9.45 8.77c.06-.05.07-.15.01-.2a.92.92 0 0 0-.62-.26.89.89 0 0 0-.62.25c-.06.05-.05.15.01.2.06.05.15.04.21 0a.64.64 0 0 1 .4-.15.61.61 0 0 1 .4.14c.06.06.15.07.21.02Z" fill="#F6C006"/><path fill="#F6C006" fill-opacity=".7" d="M6 9h5v1H6z"/><defs><linearGradient id="a" x1="13.29" y1="8.29" x2="10.91" y2="8.42" gradientUnits="userSpaceOnUse"><stop stop-color="#FAC518"/><stop offset="1" stop-color="#FE7C43"/></linearGradient><linearGradient id="b" x1="6.03" y1="5.83" x2="6.97" y2="7.52" gradientUnits="userSpaceOnUse"><stop stop-color="#FAC518"/><stop offset="1" stop-color="#FE7C43"/></linearGradient><linearGradient id="c" x1="6.24" y1="12.77" x2="7.54" y2="10.86" gradientUnits="userSpaceOnUse"><stop stop-color="#FAC518"/><stop offset="1" stop-color="#FE7C43"/></linearGradient></defs></svg>