<!-- by TradingView --><svg width="18" height="18" viewBox="0 0 18 18" xmlns="http://www.w3.org/2000/svg"><path fill="#F0F3FA" d="M0 0h18v18H0z"/><path d="M6.87 10.4a.11.11 0 0 1-.08.1.11.11 0 0 1-.12-.04L5.05 8.94a.12.12 0 0 1-.02-.2.12.12 0 0 1 .06-.03l2.27-.9c.1-.05.17 0 .14.12l-.63 2.47Z" fill="#404A72"/><path d="M5.53 11.84c-.08.07-.17.04-.19-.07L4.9 9.3c-.02-.11.03-.14.11-.06l1.54 1.45a.18.18 0 0 1 0 .27l-1.02.88ZM7.4 7.31a.14.14 0 0 1-.07.24l-2.25.9c-.1.05-.16 0-.12-.11l.92-2.51a.11.11 0 0 1 .1-.1.11.11 0 0 1 .11.06l1.3 1.52ZM5.03 11.42c.02.11-.02.13-.08.03l-.88-1.36a.32.32 0 0 1 .02-.34l.39-.53c.07-.1.14-.07.16.04l.39 2.16ZM4.75 8.18c-.04.11-.1.11-.14 0l-.3-.9a.35.35 0 0 1 .1-.34l1.06-.97c.08-.08.12-.05.08.05l-.8 2.16ZM4.47 8.53a.45.45 0 0 1-.06.36l-.3.42c-.07.1-.12.07-.1-.04l.14-1.43c0-.12.05-.12.08-.01l.24.7ZM8.7 12.93a.12.12 0 0 1-.1.08.12.12 0 0 1-.12-.07L7.23 11.1a.11.11 0 0 1 .08-.19l2.52-.26c.12-.01.16.06.1.16L8.7 12.93ZM8.17 12.93c.07.1.03.15-.07.1l-2.36-.8c-.11-.04-.13-.13-.04-.2l1-.88a.18.18 0 0 1 .23-.02c.02.02.04.03.05.06l1.2 1.74Z" fill="#556195"/><path d="M9.88 10.22c.08.09.05.17-.07.18l-2.56.27a.13.13 0 0 1-.15-.18l.64-2.5c.03-.12.11-.14.19-.05l1.95 2.28Z" fill="#6ECCE0"/><path d="M11.72 12.37a.11.11 0 0 1-.07.2l-2.6.55c-.1.02-.15-.04-.1-.14l1.23-2.1a.14.14 0 0 1 .12-.09.14.14 0 0 1 .12.06l1.3 1.52ZM7.54 13.78a.32.32 0 0 1-.34-.04l-1.21-1.07c-.08-.08-.07-.11.04-.08l2.07.7c.1.05.1.12 0 .17l-.56.32ZM10.34 13.88a.34.34 0 0 1-.34.04l-.84-.43c-.1-.06-.1-.12.02-.14l2.24-.48c.11-.02.13.02.04.1l-1.12.91ZM8 13.94c-.12 0-.13-.06-.03-.11l.45-.25a.44.44 0 0 1 .37 0l.66.33c.1.06.1.1-.02.09L8 13.94Z" fill="#556195"/><path d="M10.64 10.2c-.1.04-.17-.02-.14-.13l.63-2.47a.11.11 0 0 1 .15-.1l.05.04 1.62 1.52a.12.12 0 0 1-.04.23l-2.27.9Z" fill="#404A72"/><path d="M13.1 8.7c.02.11-.03.14-.11.06l-1.54-1.44a.18.18 0 0 1 0-.28l1.02-.88c.08-.07.17-.04.19.07l.44 2.47ZM12.12 12.17a.11.11 0 0 1-.1.1.11.11 0 0 1-.11-.06l-1.3-1.52a.14.14 0 0 1-.04-.14.14.14 0 0 1 .1-.1l2.25-.9c.1-.05.16 0 .12.11l-.92 2.51ZM13.93 7.91a.32.32 0 0 1-.02.34l-.39.53c-.07.1-.14.07-.16-.04l-.39-2.16c-.02-.11.02-.13.08-.03l.88 1.36ZM13.69 10.72a.35.35 0 0 1-.1.34l-1.06.97c-.08.08-.12.05-.08-.05l.8-2.16c.04-.11.1-.1.14 0l.3.9ZM13.85 10.17c-.01.1-.05.11-.09 0l-.23-.7a.45.45 0 0 1 .06-.37l.3-.4c.07-.1.12-.08.1.03l-.14 1.44Z" fill="#556195"/><path d="M10.78 6.9a.11.11 0 0 1-.1.19l-2.51.26c-.12.01-.16-.06-.1-.16L9.3 5.07a.12.12 0 0 1 .1-.08.12.12 0 0 1 .12.07l1.26 1.84Z" fill="#404A72"/><path d="M11.3 6.85a.18.18 0 0 1-.28-.04l-1.2-1.74c-.06-.1-.03-.15.08-.1l2.36.8c.1.04.13.13.04.2l-1 .88ZM10.26 10.02c-.03.1-.11.13-.19.04L8.12 7.78c-.08-.09-.05-.17.07-.18l2.56-.27a.13.13 0 0 1 .16.11v.07l-.65 2.5ZM7.82 7.13a.14.14 0 0 1-.12.08.14.14 0 0 1-.12-.06l-1.3-1.52a.11.11 0 0 1 .07-.2l2.6-.55c.1-.02.15.04.1.14l-1.23 2.1ZM9.9 4.7c-.1-.04-.11-.11-.01-.17l.57-.3a.32.32 0 0 1 .34.03L12 5.34c.1.07.08.1-.03.07L9.9 4.7ZM6.59 5.13c-.12.02-.14-.02-.05-.1l1.12-.91A.35.35 0 0 1 8 4.08l.84.43c.1.06.1.12-.01.14l-2.24.48ZM9.58 4.42a.44.44 0 0 1-.37 0l-.66-.33c-.1-.06-.09-.1.02-.09l1.43.07c.12 0 .13.05.03.1l-.45.25Z" fill="#556195"/></svg>