<!-- by TradingView --><svg width="18" height="18" viewBox="0 0 18 18" xmlns="http://www.w3.org/2000/svg"><path fill="url(#a)" d="M0 0h18v18H0z"/><path d="M13.63 10.5a.1.1 0 0 1 .1.13 5 5 0 0 1-9.46 0 .1.1 0 0 1 .1-.13h2.58a.1.1 0 0 1 .08.04 2.5 2.5 0 0 0 3.94 0 .1.1 0 0 1 .08-.04h2.58Zm.29-.58a.1.1 0 0 1-.1.08h-2.38c-.07 0-.12-.07-.1-.14a2.5 2.5 0 0 0 0-1.72c-.02-.07.03-.14.1-.14h2.38a.1.1 0 0 1 .1.08 5.03 5.03 0 0 1 0 1.84Zm-.2-2.55a.1.1 0 0 1-.09.13h-2.58a.1.1 0 0 1-.08-.04 2.5 2.5 0 0 0-3.94 0 .1.1 0 0 1-.08.04H4.37a.1.1 0 0 1-.1-.13c.17-.48.4-.93.7-1.33A.1.1 0 0 1 5.05 6h7.9a.1.1 0 0 1 .08.04c.3.4.53.85.7 1.33ZM12.4 5.33c.06.06.02.17-.07.17H5.67c-.1 0-.14-.1-.07-.17a4.98 4.98 0 0 1 6.8 0ZM4.18 8a.1.1 0 0 0-.1.08 5.03 5.03 0 0 0 0 1.84c.01.05.05.08.1.08h2.38c.07 0 .12-.07.1-.14a2.5 2.5 0 0 1 0-1.72c.02-.07-.03-.14-.1-.14H4.18Z" fill="#fff"/><defs><linearGradient id="a" x1="9" y1="0" x2="9" y2="18" gradientUnits="userSpaceOnUse"><stop stop-color="#8997F0"/><stop offset=".5" stop-color="#471456"/><stop offset="1" stop-color="#0A0116"/></linearGradient></defs></svg>