<!-- by TradingView --><svg width="18" height="18" viewBox="0 0 18 18" xmlns="http://www.w3.org/2000/svg"><path fill="#F0F3FA" d="M0 0h18v18H0z"/><path d="M6.03 13.12a1.16 1.16 0 0 1-.82-.37c-.17-.17-.27-.4-.29-.62v-.02l-.02-.01a1.06 1.06 0 0 1-.58-.45c-.2-.3-.22-.63-.1-.98v-.03a1.07 1.07 0 0 1-.11-1.12c.02-.05.06-.1.1-.15v-.03c-.11-.33-.06-.64.12-.93v-.02a1.07 1.07 0 0 1 .4-1.43v-.01c-.05-.4.1-.74.45-.96a.05.05 0 0 0 .02-.03.98.98 0 0 1 .61-.78l.02-.02.01-.01a1 1 0 0 1 1.01-.8.06.06 0 0 0 .05-.01c.17-.2.38-.3.63-.33.51-.06.9.17 1.12.6.02.05.04.1.04.16v8.47c0 .03 0 .07-.02.1-.12.31-.42.6-.79.65-.28.03-.54 0-.78-.16-.09-.05-.18-.03-.27-.06a1.19 1.19 0 0 1-.65-.43l-.12-.2a.04.04 0 0 0-.03-.02Z" fill="#061D41"/><path d="M7 12.2c.03-.28-.34-.28-.36-.02a.66.66 0 0 1-.72.6.72.72 0 0 1-.6-.43.7.7 0 0 1-.03-.33c.01-.1-.06-.17-.16-.2-.17-.05-.32-.08-.44-.2-.25-.26-.29-.55-.1-.88.02-.03.03-.07.01-.12a.22.22 0 0 0-.06-.11.89.89 0 0 1-.14-.18.6.6 0 0 1-.01-.6c.04-.09.1-.15.15-.23.08-.1-.02-.23-.05-.34a.62.62 0 0 1 .06-.45c.05-.1.14-.18.19-.29a.08.08 0 0 0 0-.08c-.13-.19-.26-.39-.2-.62a.72.72 0 0 1 .47-.5.64.64 0 0 1 .31-.05c.31.06.47.24.57.5.03.08.13.15.23.12.09-.03.18-.1.15-.2a1.1 1.1 0 0 0-.94-.8H5.1l-.01-.01v-.01a.32.32 0 0 1 0-.16c.05-.2.18-.32.38-.4.12-.06.11-.19.12-.3 0-.12.08-.25.18-.34.08-.08.2-.12.32-.16.1-.02.14-.1.15-.2.01-.28.2-.5.52-.55.31-.05.5.19.57.46.01.08.01.15.11.18.17.06.33-.01.3-.2-.01-.11-.04-.2-.07-.27a1.1 1.1 0 0 0-.3-.4.03.03 0 0 1 0-.02V4.4c.15-.1.32-.12.5-.1a.63.63 0 0 1 .51.63v8.12c0 .36-.23.62-.62.65-.06 0-.14 0-.22-.02-.13-.03-.22-.14-.35-.18a.18.18 0 0 0-.06-.01.72.72 0 0 1-.67-.39.06.06 0 0 1 0-.04l.02-.04c.31-.2.5-.45.53-.81Z" fill="#613CC0"/><path fill-rule="evenodd" d="M13.11 12.1c.61-.23.88-.85.66-1.43v-.03c.3-.41.3-.84.03-1.27v-.03l.01-.07.02-.06c.05-.28 0-.55-.16-.8v-.03c.25-.52.11-1.07-.39-1.41v-.02a.95.95 0 0 0-.46-.96.06.06 0 0 1-.03-.04.98.98 0 0 0-.6-.77.06.06 0 0 1-.04-.04.98.98 0 0 0-.63-.72.94.94 0 0 0-.34-.06c-.04 0-.06 0-.08-.03a1 1 0 0 0-.63-.32c-.34-.04-.63.04-.86.25-.14.12-.3.33-.3.5v8.47c0 .05.01.1.03.14.13.32.45.59.81.62h.3c.18 0 .33-.08.48-.17a.29.29 0 0 1 .13-.03c.03 0 .06 0 .08-.02a1.17 1.17 0 0 0 .77-.58l.03-.06.02-.01c.48-.03.84-.25 1.04-.68.04-.1.07-.2.08-.3v-.03l.03-.02Zm-2.43-6.97c0 .1-.06.18-.17.2-.14.01-.3-.04-.28-.2a1 1 0 0 1 .4-.71.02.02 0 0 0 0-.02h-.01c-.38-.23-.85-.06-.97.34-.02.08-.02.17-.02.26v7.91c0 .2 0 .34.04.4.14.33.5.48.85.34a.59.59 0 0 0 .12-.07c.06-.04.11-.08.18-.09h.04c.06 0 .12 0 .18-.02a.72.72 0 0 0 .5-.4v-.01l-.01-.01a1 1 0 0 1-.56-.84c0-.06 0-.11.03-.15.09-.12.27-.1.34.01.03.05.04.1.04.15v.03c.03.22.2.41.41.5a.7.7 0 0 0 .67-.12.65.65 0 0 0 .26-.53v-.04c0-.06-.01-.11.02-.16.05-.08.13-.1.2-.11l.08-.02c.45-.12.65-.61.4-.99-.09-.14 0-.22.09-.32l.01-.02c.2-.2.21-.48.1-.71a.89.89 0 0 0-.12-.17l-.03-.04c-.08-.09-.04-.17 0-.26v-.01c.1-.2.07-.43-.05-.6a1.03 1.03 0 0 0-.06-.08c-.07-.09-.14-.17-.05-.3.05-.08.1-.15.12-.22a.6.6 0 0 0-.06-.53.72.72 0 0 0-.5-.34c-.35-.06-.64.2-.74.48a.21.21 0 0 1-.29.12c-.11-.04-.15-.14-.1-.27.17-.48.64-.77 1.17-.74l.02-.01c0-.26-.13-.44-.37-.54-.14-.05-.14-.14-.15-.24v-.12a.55.55 0 0 0-.43-.42c-.08-.01-.16-.04-.2-.11a.39.39 0 0 1-.04-.17c0-.04 0-.1-.02-.14-.1-.22-.28-.34-.54-.36-.27-.02-.47.24-.5.47Z" fill="#061D41"/><path d="M10.88 6.06c.17 0 .3-.13.3-.3 0-.16-.13-.29-.3-.29-.18 0-.32.13-.32.3 0 .16.14.29.31.29ZM11.81 6.94c.18 0 .31-.13.31-.3 0-.16-.13-.29-.3-.29-.18 0-.32.13-.32.3 0 .16.14.3.31.3ZM10.25 6.94c.17 0 .31-.13.31-.3 0-.16-.14-.29-.31-.29-.17 0-.31.13-.31.3 0 .16.14.3.31.3ZM10.56 8.7c.35 0 .63-.26.63-.58 0-.33-.28-.6-.63-.6-.34 0-.62.27-.62.6 0 .32.28.59.62.59ZM12.13 8.7c.17 0 .3-.13.3-.29 0-.16-.13-.3-.3-.3-.18 0-.32.14-.32.3 0 .16.14.3.31.3ZM10.56 9.59c.18 0 .31-.13.31-.3 0-.16-.13-.29-.3-.29-.18 0-.32.13-.32.3 0 .16.14.29.31.29ZM11.66 10.47c.26 0 .46-.2.46-.44s-.2-.44-.46-.44-.47.2-.47.44.2.44.47.44ZM12.75 10.47c.17 0 .31-.13.31-.3 0-.16-.14-.29-.31-.29-.17 0-.31.13-.31.3 0 .16.14.3.31.3ZM10.4 11.35c.27 0 .47-.2.47-.44s-.2-.44-.46-.44-.47.2-.47.44c0 .25.2.44.47.44ZM11.81 11.65c.18 0 .31-.13.31-.3 0-.16-.13-.3-.3-.3-.18 0-.32.14-.32.3 0 .17.14.3.31.3ZM10.25 12.53c.17 0 .31-.13.31-.3 0-.16-.14-.29-.31-.29-.17 0-.31.13-.31.3 0 .16.14.29.31.29Z" fill="#613CC0"/></svg>