<!-- by TradingView --><svg width="18" height="18" viewBox="0 0 18 18" xmlns="http://www.w3.org/2000/svg"><path fill="#F0F3FA" d="M0 0h18v18H0z"/><path d="M10.21 11.35c.26.3.93.65 1.94.65C13.81 12 15 10.63 15 8.95A2.87 2.87 0 0 0 12.15 6c-1.2 0-2.26.69-3 1.8-.37.55-.62.97-.77 1.21-.12.2-.24.4-.37.58-.6.9-1.38 1.35-2.16 1.35a1.82 1.82 0 0 1-1.82-1.89c0-1.1.72-2.06 1.82-2.06.25 0 .49.05.68.1.1.04.15.18.09.28l-1.2 1.94a.19.19 0 0 0-.02.1c0 .1.07.18.18.18h.78c.08 0 .16-.04.2-.11L7.84 7.3c.12-.2.1-.47-.05-.65-.26-.3-.93-.65-1.94-.65C4.19 6 3 7.37 3 9.05A2.87 2.87 0 0 0 5.85 12c1.2 0 2.26-.69 3-1.8.37-.55.62-.97.77-1.21.12-.2.24-.4.37-.58.6-.9 1.38-1.35 2.16-1.35 1.04 0 1.82.82 1.82 1.89 0 1.1-.72 2.06-1.82 2.06-.25 0-.49-.05-.68-.1-.1-.04-.15-.18-.09-.28l1.2-1.94a.19.19 0 0 0 .02-.1c0-.1-.07-.18-.18-.18h-.78a.25.25 0 0 0-.2.11l-1.28 2.18c-.12.2-.1.47.05.65Z" fill="#646AF2"/></svg>