<!-- by TradingView --><svg width="18" height="18" viewBox="0 0 18 18" xmlns="http://www.w3.org/2000/svg"><path fill="#FFA3FE" d="M0 0h18v18H0z"/><path d="M13.53 14H10.4c0-.01 0-.02-.03-.02l-.04-.02v-.06a.07.07 0 0 1 .05-.03c.05-.01.08-.05.13-.06a2 2 0 0 0 1.16-.82l.18-.28c.13-.2.17-.38.14-.56.13-.22.2-.45.2-.7 0-.3-.05-.6-.15-.92-.2-.6-.55-.96-1.12-1.09a.08.08 0 0 1-.07-.05.03.03 0 0 1 0-.02.02.02 0 0 1 .02-.01c.95-.26 1.51-1.18 1.38-2.23-.06-.5-.23-.92-.5-1.24-.42-.5-.95-.7-1.54-.43-.64.31-.7 1.06-.65 1.73 0 .02.02.04.04.05.13.04.44.24.31.43-.11.17-.29.31-.53.43-.47.22-1.04.02-1.37-.36-.22-.26.07-.4.23-.53a.16.16 0 0 0 .05-.07 27.48 27.48 0 0 1-.06-.7c-.08-.7-.56-1.24-1.26-1.07-.83.21-1.2 1.11-1.26 1.95-.05.65.14 1.18.56 1.6a2 2 0 0 0 .7.46c.09.03.09.06 0 .08-.79.2-1.17 1.09-1.2 1.9-.02.38.1.7.34 1 0 .03-.02.05-.05.06-.02 0-.03.01-.03.04 0 .08.01.14.04.19.31.6.73.98 1.26 1.16.17.06.29.12.35.19H4.46l-.08-.91-.01-.03-.02-.02h-.06c-.1.09-.19.09-.26 0a.1.1 0 0 1-.02-.06v-.31c.16-1.27.9-2.57 1.67-3.55a.08.08 0 0 0 .01-.1 5.28 5.28 0 0 1-.26-2.6c.27-1.86 1.59-2.56 3.14-2.8h.03l.02-.03a.07.07 0 0 0 0-.06c-.05-.15-.07-.3-.06-.46 0-.01 0-.03.02-.04L8.6 3h.04l.04.03c.12.14.24.3.34.46.07.1.12.1.16-.02.02-.07.07-.1.14-.13.04 0 .07 0 .1.02.02.04.03.08.01.14-.02.08 0 .12.08.13 1.36.2 2.67.9 3 2.49a5.23 5.23 0 0 1-.22 2.98c0 .03.01.06.03.08.46.59.86 1.23 1.18 1.93.24.52.4 1.06.48 1.63V13c0 .02 0 .04-.02.06a.14.14 0 0 1-.04.04.13.13 0 0 1-.12.02l-.13-.05c-.08-.03-.12 0-.12.09l-.03.85Z" fill="#181B2C"/><path d="M12 12.15c-.42.5-1 .78-1.58.91-.6.14-1.2.19-1.83.16a3.68 3.68 0 0 1-2.47-.87 1.36 1.36 0 0 1-.34-1c.03-.8.41-1.69 1.2-1.9.09-.01.09-.04 0-.07a2 2 0 0 1-1.26-2.06c.05-.84.43-1.74 1.26-1.95.7-.17 1.18.37 1.26 1.08a27.48 27.48 0 0 0 .06.7.16.16 0 0 1-.05.06c-.16.12-.45.27-.23.53.33.38.9.59 1.37.36.24-.12.42-.26.53-.43.13-.19-.18-.39-.3-.43-.03 0-.04-.03-.05-.05-.04-.67.01-1.42.65-1.73.59-.28 1.12-.08 1.54.43.27.32.44.74.5 1.24.13 1.05-.43 1.97-1.38 2.23h-.01v.03c0 .03.03.05.06.05.57.13.93.5 1.12 1.1.1.3.15.6.15.9 0 .26-.07.5-.2.71Z" fill="#FFFDF4"/><path d="M8.39 7.3c.43-.15.86-.12 1.3.1.06.02.1.06.13.12a.06.06 0 0 1 0 .04v.02l-.03.02a.38.38 0 0 1-.2.01c-.45-.1-.9-.09-1.36 0a.2.2 0 0 1-.14-.01.07.07 0 0 1-.03-.02.07.07 0 0 1 0-.07l.02-.03c.08-.07.19-.13.31-.17Z" fill="#FBB047"/><path d="M6.92 7.53c.21-.02.38-.11.37-.2-.01-.08-.19-.13-.4-.11-.2.02-.37.11-.36.2 0 .08.18.13.4.1ZM11.16 7.25l-.44-.05c-.06-.01-.12.04-.13.11v.03c0 .07.04.13.1.14l.45.05c.06.01.12-.04.13-.11v-.03c0-.07-.04-.13-.1-.14Z" fill="#181B2C"/><path d="M9.61 7.8c-.4.31-.89.28-1.33 0l-.01-.02a.05.05 0 0 1 0-.05l.03-.01.23-.04a16.81 16.81 0 0 1 1.08.03c.04.03.04.06 0 .1Z" fill="#FBB047"/><path d="M12 12.15c.04.18 0 .37-.14.56l-.18.28a2 2 0 0 1-1.16.82c-.05.01-.08.05-.13.06a.07.07 0 0 0-.05.03v.06l.04.02c.02 0 .03 0 .03.02H7.69a.86.86 0 0 0-.35-.19 2.28 2.28 0 0 1-1.26-1.16.4.4 0 0 1-.04-.2c0-.02 0-.03.03-.03.03-.01.05-.03.05-.07.74.64 1.5.82 2.47.87.63.03 1.24-.02 1.83-.16a2.86 2.86 0 0 0 1.58-.9Z" fill="#29304C"/></svg>