<!-- by TradingView --><svg width="18" height="18" viewBox="0 0 18 18" xmlns="http://www.w3.org/2000/svg"><path fill="url(#a)" d="M0 0h18v18H0z"/><path d="M8.76 12.81 6.8 10.05a.35.35 0 0 1-.03-.34l1.96-4.53c.02-.05.06-.1.1-.13a.28.28 0 0 1 .32 0c.05.03.08.08.1.13l1.96 4.53a.35.35 0 0 1-.03.34l-1.96 2.76a.3.3 0 0 1-.1.1.27.27 0 0 1-.26 0 .3.3 0 0 1-.1-.1ZM5.59 9.4a729.27 729.27 0 0 1-.34-3.28c.04-.16.2-.26.35-.22a3066.02 3066.02 0 0 1 1.7 1.2L6.2 9.65a.75.75 0 0 0-.06.22c0 .08.01.16.06.23a10951.14 10951.14 0 0 0 1.77 2.52l-1.1.38a.22.22 0 0 1-.19-.02.52.52 0 0 1-.13-.12L4.06 9.74a.3.3 0 0 1 .03-.4c.05-.05.11-.07.18-.07a93.12 93.12 0 0 1 1.32.13Zm6.81.01a729.12 729.12 0 0 1 .34-3.28c-.03-.14-.16-.25-.3-.24-.05 0-.1.02-.13.04A860.45 860.45 0 0 0 10.7 7.1l1.13 2.62c.03.08.04.17.02.25a.71.71 0 0 1-.11.2L10 12.6l1.06.37.12.03c.04 0 .08 0 .12-.03a.5.5 0 0 0 .14-.13L13.9 9.8a.65.65 0 0 0 .08-.12c.02-.04.02-.1.02-.14-.02-.13-.08-.21-.18-.24a232.11 232.11 0 0 1-1.42.12V9.4Z" fill="#E10185"/><defs><linearGradient id="a" x1="3.35" y1="3.12" x2="21.9" y2="24.43" gradientUnits="userSpaceOnUse"><stop stop-color="#1A1E21"/><stop offset="1" stop-color="#06060A"/></linearGradient></defs></svg>