<!-- by TradingView --><svg width="18" height="18" viewBox="0 0 18 18" xmlns="http://www.w3.org/2000/svg"><path fill="#F0F3FA" d="M0 0h18v18H0z"/><path d="M7.97 4c.36-.05.65.57.8.83h.01l.02.01 1.32.02a.34.34 0 0 0 .25-.1 3 3 0 0 1 1-.73c.16-.05.33 0 .5.15A6.78 6.78 0 0 1 14 9.31a4.49 4.49 0 0 1-2.97 4.16c-.68.26-1.6.36-2.4.39-.35 0-.58.06-.89.1A3.26 3.26 0 0 1 4.7 12.7a3.43 3.43 0 0 1-.5-3.23.1.1 0 0 1 .14-.02l.2.14a.23.23 0 0 1 .1.24c-.1.41-.13.76-.1 1.06a2.84 2.84 0 0 0 2.28 2.52 2.8 2.8 0 0 0 3.25-2.3.2.2 0 0 0-.1-.21A3.87 3.87 0 0 1 8.7 9.56c-.33-.55.17-.74.56-.87a.04.04 0 0 0 .03-.03.05.05 0 0 0 0-.04 2.7 2.7 0 0 0-3.43-.4c-.27.17-.54-.05-.76-.24-.16-.14-.1-.24-.05-.45a5.67 5.67 0 0 1 2.5-3.39c.13-.07.27-.11.43-.14ZM4.75 8.47c.07-.01.14 0 .2.04l2.47 1.68c.03.02.05.06.06.1 0 .03 0 .06-.02.1l-.8 1.22c-.04.05-.1.1-.16.11a.26.26 0 0 1-.2-.03l-.02-.01a.25.25 0 0 1-.08-.35l.56-.85v-.08l-.02-.02-2.11-1.42a.25.25 0 0 1-.06-.36l.02-.02c.03-.06.1-.1.16-.1Zm5.46-2.34c-.05 0-.1.02-.15.04a.4.4 0 0 0-.13.11.52.52 0 0 0-.09.16.6.6 0 0 0 0 .38c.02.06.05.11.09.16a.4.4 0 0 0 .13.1.34.34 0 0 0 .3 0 .4.4 0 0 0 .13-.1c.04-.05.07-.1.09-.16a.6.6 0 0 0 0-.38.51.51 0 0 0-.09-.16.4.4 0 0 0-.13-.1.34.34 0 0 0-.15-.05Zm-2.24 0c-.05.01-.1.02-.15.05a.4.4 0 0 0-.13.1.51.51 0 0 0-.09.17.6.6 0 0 0-.02.19c0 .13.05.25.12.34.08.1.19.14.3.14.04 0 .1-.02.15-.04.04-.03.09-.06.12-.11.04-.05.07-.1.09-.16a.59.59 0 0 0-.1-.53.37.37 0 0 0-.3-.14Z"/></svg>