<!-- by TradingView --><svg width="18" height="18" viewBox="0 0 18 18" xmlns="http://www.w3.org/2000/svg"><path fill="#EFF8FF" d="M0 0h18v18H0z"/><path d="m11.86 3.57-.15.04a.02.02 0 0 1-.01 0l-.01-.01v-.03c0-.02 0-.03.03-.03l.15-.04c.01 0 .02 0 .03-.02l.01-.02.1-.36c0-.02 0-.03-.02-.03h-.57a.04.04 0 0 0-.03.01.03.03 0 0 0 0 .03l.29 1.09c.01.04.02.04.04 0l.15-.54c.04.01.06.03.06.06l-.15.56c0 .02 0 .03.02.02l.25-.05c.39-.05.67.2.83.52.28.54.04 1.1-.42 1.48l-.44.15c-.02 0-.03.01-.02.03.51.8.2 1.73-.2 2.52-.01.01-.02.03-.01.05l.06.3c.16.76.14 1.53-.04 2.3 0 .02 0 .03.03.03.08.02.15.04.2.08a.06.06 0 0 1 .03.05.06.06 0 0 1-.02.04c-.16.15-.47.12-.67.04a.08.08 0 0 1-.05-.05.07.07 0 0 1 .02-.07c.06-.07.19-.07.29-.1l.03-.03a.9.9 0 0 0 .03-.14 89.63 89.63 0 0 0-.03-2.13c-.06.11-.1.25-.16.4a3.47 3.47 0 0 1-2.32 1.88 6.2 6.2 0 0 1-1.8.24c-.02 0-.03 0-.03.02v1.83c0 .02 0 .03.03.03.1.02.26.04.26.15l-.01.04-.03.02c-.22.1-.44.1-.65 0a.08.08 0 0 1-.02-.02.07.07 0 0 1-.02-.07l.02-.03c.04-.04.11-.06.23-.08.03 0 .04-.02.04-.05V11.8l-.02-.01-1.36-.65c-.01-.1-.05-.14-.12-.11a3.3 3.3 0 0 1-.3-3.66 3.8 3.8 0 0 1 2.57-2.06 5.12 5.12 0 0 1 2.22.07c.02 0 .03 0 .04-.02.26-.23.52-.47.83-.66.02.06.02.11 0 .17a6.18 6.18 0 0 0-.76.66c.1.3.48.46.74.61l.05.16c-.34-.13-.83-.39-.94-.75a5.39 5.39 0 0 0-1.69-.17c-1.34.1-2.32.92-2.92 2.04a3.1 3.1 0 0 0-.23 2.56 3.69 3.69 0 0 0 .58 1.04 73.8 73.8 0 0 0 1.46.66c1.22 0 2.6-.28 3.44-1.2.37-.39.63-.86.78-1.36.03-.13.08-.25.14-.37.36-.7.62-1.6.14-2.29a.12.12 0 0 0-.11-.06.15.15 0 0 1-.11-.05c-.03-.03-.03-.06 0-.08.28 0 .67-.05.86-.26.34-.39.48-.78.22-1.24a.82.82 0 0 0-.32-.34c-.2-.11-.44-.04-.65.04l-.1-.1-.36-1.35v-.02a.03.03 0 0 1 .02-.01h.77a.03.03 0 0 1 .02.01l.01.01v.01l-.1.39v.04c0 .02 0 .03.02.04a.1.1 0 0 0 .1.02c.16-.04.33-.11.36.13v.06l-.05.04c-.02-.01-.03-.02-.03-.04v-.09a.07.07 0 0 0-.03-.06.08.08 0 0 0-.07-.01l-.16.04-.02.01-.01.03v.07c0 .03-.01.04-.04.04h-.01c-.02 0-.03-.02-.03-.03v-.1a.04.04 0 0 0-.02-.04c-.04-.03-.1-.03-.16 0Z" fill="#010101"/><path d="m11.86 3.57.01.09-.15.54c-.02.04-.03.04-.04 0l-.3-1.09V3.1a.03.03 0 0 1 .02-.03H12c.02 0 .03.01.02.03l-.1.36-.01.02-.03.02-.15.04c-.02 0-.03.01-.03.03v.04a.02.02 0 0 0 .02 0l.15-.04Z" fill="#FED60E"/><path d="m11.65 4.38.1.1c-.1.1-.16.17-.17.24-.03.17.09.26.2.38a.04.04 0 0 1 0 .06c-.28.23-.23.41 0 .65v.03c-.04.05-.09.1-.13.17-.08.11-.08.2-.01.27-.03.02-.03.05 0 .08s.06.05.1.05l-.03.1-.02.03h-.06l-.02-.01-.1-.12a.2.2 0 0 0-.12-.15c.04-.16.1-.3.17-.4V5.8l-.08-.14c-.08-.19-.05-.36.1-.52V5.1a.63.63 0 0 1-.14-.46l.19-.26.02-.01Z" fill="#EA71B1"/><path d="M11.64 6.28c-.07-.06-.07-.16.01-.27l.14-.17V5.8c-.24-.24-.29-.42-.01-.65l.01-.03V5.1c-.12-.12-.24-.21-.2-.38 0-.07.06-.14.16-.24.21-.08.45-.15.65-.04.13.08.24.19.32.34.26.46.12.85-.22 1.24-.2.2-.58.27-.86.26Z" fill="#fff"/><path d="m11.63 4.4-.19.25-.2.12c-.03-.01-.04-.02-.03-.03a.45.45 0 0 1 .13-.2l.29-.15Z" fill="#010101"/><path d="M11.34 4.54a.45.45 0 0 0-.13.2c0 .01 0 .02.02.03-.03.01-.04.03-.02.06a.93.93 0 0 0 .21.28.04.04 0 0 1 0 .05c-.25.21-.25.4-.01.64a.04.04 0 0 1 0 .06c-.16.12-.2.24-.15.36-.07.04-.04.09.08.16-.02 0-.03.01-.04.03 0 .01 0 .03.02.04.02.01.03.03.02.06v.02l-.03.02a.06.06 0 0 1-.06-.02.7.7 0 0 1-.15-.22l-.05-.16.15-.3a.05.05 0 0 0 0-.06c-.16-.2-.17-.38-.05-.56l.05-.08v-.04l-.14-.23a.26.26 0 0 0 .01-.17 1 1 0 0 1 .18-.29l.02-.01h.03c.02.01.04.05.04.13Z" fill="#EA71B1"/><path d="M11.87 4.57h-.04c-.1 0-.19.09-.18.19v.05c0 .1.09.18.19.18h.04c.1 0 .18-.09.18-.19v-.05c0-.1-.09-.18-.19-.18Z" fill="#010101"/><path d="M11.44 4.65c-.01.18.04.34.14.46v.04c-.15.16-.18.33-.1.52l.09.14v.04c-.09.12-.14.25-.18.4l-.13-.03c-.06-.12-.01-.24.15-.36v-.01l.01-.02a.04.04 0 0 0-.01-.03c-.24-.24-.24-.43 0-.64l.01-.02a.04.04 0 0 0 0-.03.93.93 0 0 1-.21-.28c-.02-.03 0-.05.02-.06l.21-.12Z" fill="#fff"/><path d="m11.06 4.88.14.23v.04l-.05.08c-.12.18-.1.37.05.56v.06l-.15.3c-.26-.15-.64-.3-.74-.61V5.5c.24-.22.48-.43.75-.62Z" fill="#fff"/><path d="M11.1 6.31a.7.7 0 0 0 .15.22l.03.02h.03l.02-.02.01-.02c0-.03 0-.05-.02-.06a.04.04 0 0 1-.02-.04c0-.02.02-.03.04-.03l.17.03.1.12.02.01a.06.06 0 0 0 .06 0l.02-.03.04-.1c.04 0 .08.02.1.06.49.7.23 1.6-.13 2.29-.06.12-.1.24-.14.37-.15.5-.41.97-.78 1.37-.83.91-2.22 1.2-3.44 1.2l-.1-.03c-.64-.3-1.1-.5-1.36-.64A3.69 3.69 0 0 1 5.32 10a3.1 3.1 0 0 1 .23-2.56 3.58 3.58 0 0 1 2.92-2.04 5.4 5.4 0 0 1 1.7.17c.1.36.59.62.93.75Z" fill="#fff"/><path d="m11.26 6.22.13.04c.07.03.1.08.12.15l-.17-.03c-.12-.07-.15-.12-.08-.16ZM6.92 8.59c.18 0 .34.22.4.36a.02.02 0 0 1 0 .02h-.07l-.02-.02c-.05-.1-.18-.3-.31-.3s-.26.2-.31.3l-.02.02H6.53a.02.02 0 0 1-.01-.02c.06-.14.22-.36.4-.36Z" fill="#010101"/><path d="M5.71 11.04c.07-.03.11.01.12.11a.8.8 0 0 0-.36.22c-.11.1-.1.2 0 .31.16.19.3.34.2.6l.01.04.13.07c.03.02.03.04.02.06l-.01.02-.02.02-.03.01a.07.07 0 0 1-.05 0l-.12-.07-.04.01-.02.04-.04.02c-.05 0-.07-.02-.08-.05v-.13c-.15-.16-.25-.33-.1-.52v-.07c-.1-.13-.1-.26 0-.4.1-.13.23-.23.4-.3Z" fill="#EA71B1"/><path d="M8.76 14c-.12 0-.26-.02-.35-.1a.06.06 0 0 1-.03-.04l.01-.03.02-.02a.57.57 0 0 1 .25-.09c.01 0 .02 0 .02-.03v-1.88c0-.02 0-.03.02-.04a.1.1 0 0 1 .05-.01.1.1 0 0 1 .05.01c.02 0 .03.02.03.04v1.88c0 .02 0 .03.03.03.1.02.18.04.24.09a.06.06 0 0 1 .03.04v.03l-.02.02c-.1.08-.23.1-.35.1ZM10.23 11.77a.1.1 0 0 1 .05 0l.03.04v1.88c0 .02 0 .03.02.03.1.02.19.05.24.09a.06.06 0 0 1 .03.04.06.06 0 0 1-.02.06c-.1.07-.23.09-.35.09-.12 0-.26-.02-.35-.1l-.01-.02a.06.06 0 0 1 0-.05l.02-.02a.56.56 0 0 1 .24-.09c.02 0 .03 0 .03-.03v-1.88c0-.01 0-.03.02-.03l.05-.01Z" fill="#010101"/><path d="M5.41 12.06c.03.08.07.14.1.13.04-.01.05-.08.02-.16-.02-.08-.07-.14-.1-.13-.04 0-.04.08-.02.16Z" fill="#F4F2F8"/></svg>