<!-- by TradingView --><svg width="18" height="18" viewBox="0 0 18 18" xmlns="http://www.w3.org/2000/svg"><path fill="#181B1E" d="M0 0h18v18H0z"/><path d="M5.04 8.04c1.03.97 2.12 1.9 3.29 2.64.87.55 1.7 1.06 2.5 1.53.04.02.1 0 .12-.04a.5.5 0 0 0 .05-.29c-.01-.08-.04-.09-.08-.03-.05.06-.1.07-.14.04-.07-.05-.08-.16-.02-.22.09-.1.23-.1.32-.02.18.13.24.36.2.66l-.13.7c-.19.92 1.11 1.06 1.18.15 0-.03.02-.04.04-.03.15.08.2.2.13.37-.09.22-.2.12-.34.24-.4.34-1.13.4-1.41-.16-.07-.13-.11-.3-.12-.51 0-.07.1-.05.1 0l.07.48c.02 0 .05 0 .04-.02a3.3 3.3 0 0 1 .12-1.09c0-.02 0-.04-.03-.05-.08-.01-.17 0-.25-.05a34.11 34.11 0 0 1-3.74-2.15c-.02-.01-.03.02-.01.03 1.17.95 2.32 1.63 3.7 2.37.08.04.14.35.02.3a20.35 20.35 0 0 1-5.27-3.4 4.66 4.66 0 0 1-1.37-2.43c-.02-.07 0-.08.04-.03.35.36.63.67 1 1.01Z" fill="#fff"/><path d="m11.5 12.66.63.4c.05.04.07.11.05.17l-.06.15c-.02.06-.08.1-.13.06l-.63-.3c-.05-.02-.08-.09-.07-.15l.05-.24c.02-.08.1-.13.16-.09ZM13.68 7.97l-.2.43c-.25.43-.58.84-1.02 1.22a18.26 18.26 0 0 1-2.5 1.81l-.32-.2v-.02a22.86 22.86 0 0 0 1.25-.92h-.02l-1.35.83a.07.07 0 0 1-.08 0l-.19-.14c-.02-.02-.02-.04 0-.05a24.95 24.95 0 0 0 4.69-3.9c.06-.05.07-.04.05.05-.08.31-.18.6-.31.9ZM7.26 12.61l1.27-.7h.02l.29.17c.02.01.02.04 0 .05l-1.57.8c-.02.01-.03 0-.03-.02v-.27l.02-.03ZM6.64 13.13l-.63.3c-.06.02-.12-.02-.14-.09-.02-.06-.06-.14-.04-.21 0-.03.03-.06.05-.07l.62-.4c.06-.03.14 0 .16.09l.04.22c.02.07-.01.13-.06.16Z" fill="#fff"/><path d="M7.38 13.07c0-.1-.15-.02-.15.07 0 .1-.02.19-.05.27-.04.1-.05.09-.04-.01.01-.33-.03-.66-.14-.98-.01-.05 0-.07.04-.06.07.02.15.01.21-.02.35-.15.7-.33 1.04-.52.04-.02.04-.05 0-.07l-.1-.06a.12.12 0 0 0-.14 0 8.66 8.66 0 0 1-.9.5c-.02-.02-.02-.04 0-.05.05-.04.06-.09.02-.14-.12-.17-.42-.45-.58-.19-.06.12.02.28.05.39.14.43.34 1.09.09 1.36-.35.36-.98.26-1.05-.36-.03-.18-.22.03-.2.14 0 .13.04.23.1.3.03.02.05.02.07.02.06 0 .1 0 .13.03.58.54 1.52.4 1.6-.62Z" fill="#fff"/><path fill-rule="evenodd" d="M7.9 4.85c.07.12.1.19.1.37v1.71c0 .03.02.04.06.04a.79.79 0 0 1 .21-.02c.09 0 .09.01 0 .03-.39.11-.85.3-1.2.57-.1.08-.1.1.04.05.2-.08.54-.13.83-.17.05 0 .06.02.06.05v.34c0 .2-.21.5-.46.66l.01.04c.4.08.74.24.93.46.02.02.05.02.08 0l.98-.58c.03-.01.04-.03.04-.05 0-.04-.07-.12-.14-.1-.13.06-.23.13-.34 0-.14-.16-.1-.36-.1-.63v-.1c0-.04.02-.05.06-.05.29.06.47.16.73.28.03.02.06.02.08 0l1.08-.73c.03-.01.04-.04.04-.06l.01-1.5a.82.82 0 0 0-.11-.41 1.67 1.67 0 0 0-1.17-.9h-.04l-.61.48c-.03.01-.06 0-.07-.02a1.08 1.08 0 0 0-.66-.6.08.08 0 0 0-.08 0l-.98.65c-.09.06.07.17.16.12.16-.09.36-.06.45.07Zm1.2-.04c-.04.03-.1.05-.1.1v1.96c0 .02.01.03.04.03.35 0 .56.07.9.15h.01c.03 0 .05-.01.05-.04v-1.3c0-.42-.13-.76-.48-1.02-.15-.1-.28.03-.42.12Z" fill="#fff"/></svg>