<!-- by TradingView --><svg width="18" height="18" viewBox="0 0 18 18" xmlns="http://www.w3.org/2000/svg"><path fill="#F0F3FA" d="M0 0h18v18H0z"/><path d="M14.67 10.94a1.95 1.95 0 0 0-.84-.57c-.1-.03-.13-.12-.23-.15a.23.23 0 0 0-.22.05.02.02 0 0 1-.02 0l-.04-.17a.04.04 0 0 1 .01-.03c.13-.18.18-.24.04-.44a.06.06 0 0 1 0-.05c0-.05 0-.15-.05-.2l-.02-.02v-.05c.11-.12.23-.23.17-.4 0-.03 0-.04.02-.06l.05-.05c.15-.14.15-.4-.08-.46a.08.08 0 0 1-.05-.03l-.14-.15a.09.09 0 0 1-.02-.04.8.8 0 0 0-.68-.65v-.03c.28-.3.47-.65.42-1.08-.02-.2-.25-.34-.41-.17a3.13 3.13 0 0 1-.78.58 2.2 2.2 0 0 0-1.84.17.07.07 0 0 1-.08 0 2.01 2.01 0 0 0-1.7-.24.1.1 0 0 1-.1-.02 9.24 9.24 0 0 1-.45-.34c-.18-.14-.3-.33-.4-.52-.11-.2-.36 0-.43.12a.04.04 0 0 1-.05.02h-.02a2.62 2.62 0 0 0-2.65-.36 5.93 5.93 0 0 1 2.77-2.2 6 6 0 0 1 7.82 7.54Z" fill="#226E50"/><path d="M14.67 10.94c-.02.08-.04.12-.07.1a1.87 1.87 0 0 0-.4-.35l-.4-.2a.37.37 0 0 1-.22.24.07.07 0 0 0-.04.03.15.15 0 0 1-.12.08l-.05-.01a.25.25 0 0 0-.14-.04l-.13-.1a.47.47 0 0 1-.09-.17c0-.02-.01-.02-.03-.02h-.26a.12.12 0 0 0-.1 0v.09a.1.1 0 0 1 0 .04v.32c.05.36.2.65.43.89l.09.08.28.22c.03.02.05.04.06.07.02.08.04.08.05 0a.25.25 0 0 1 .16-.22c.11-.04.2.05.26.12h.02a.02.02 0 0 0 .01 0c.04-.12.12-.17.24-.18l-.24.4c-.13-.03-.13-.1-.2-.19a.05.05 0 0 0-.07.01c-.05.1 0 .29-.18.28-.08 0-.15-.08-.22-.13-.05-.03-.07-.02-.03.04.02.04.06.07.08.13.03.17-.14.17-.25.17a.02.02 0 0 0-.02.01v.02c0 .03.02.04.05.05a.9.9 0 0 1 .36.23.22.22 0 0 1-.09.1c-.05-.04-.1-.06-.16-.05-.27.06-.55.06-.8.21l-.72.5c-.25.15-.52.25-.8.3a1.98 1.98 0 0 1-1.27-.35.71.71 0 0 1-.32-.07.08.08 0 0 0-.08.01c-.5.37-1.05.5-1.64.4l-.03.03c0 .13 0 .26.03.38l.13.45-.18-.03-.12-.56-.02-.28a.04.04 0 0 0-.03-.04 2.25 2.25 0 0 1-1.34-1.31c-.1-.25-.13-.5-.08-.74a.1.1 0 0 1 .02-.05.09.09 0 0 1 .04-.02l.06.02c-.02.27-.01.44.01.51.15.5.42.88.82 1.16.26.2.55.31.84.35.5.06.95-.1 1.37-.37a.1.1 0 0 0 .04-.05c0-.02.02-.04.03-.05a.05.05 0 0 1 .06 0c.04.01.07.05.11.08.2.1.4.04.6-.07a.58.58 0 0 1 .22-.06c.08 0 .15-.02.23-.04-.04-.07-.08-.11-.12-.12a1.8 1.8 0 0 1-.15-.06.04.04 0 0 1-.01-.02v-.02a.07.07 0 0 1 .07-.03c.1 0 .2-.03.28-.09a.04.04 0 0 0 0-.05v-.01l-.28-.09a.1.1 0 0 1-.07-.1c0-.03.03-.06.06-.08a82.27 82.27 0 0 1 .25-.18v-.02l-.02-.01c-.07-.05-.24-.03-.33-.02a.08.08 0 0 1-.07-.03c-.07-.1.07-.22.13-.29.06-.07.04-.1-.05-.09a.55.55 0 0 0-.2.08l-.33.2c-.06-.02-.08-.1-.07-.22 0-.05 0-.09-.02-.11a.5.5 0 0 0-.1-.09l-.2.36a.1.1 0 0 1-.02.04c-.13.08-.18.1-.22.25a.04.04 0 0 1-.03.03c-.02.01-.04 0-.07-.02H8.7a.98.98 0 0 1-.74-.22 1.4 1.4 0 0 1-.5-.9l.02-.04a.05.05 0 0 1 .06-.04.06.06 0 0 1 .05.05c.03.12.06.24.1.34.03.04.05.04.06 0a.88.88 0 0 1 .12-.26l.16-.22a.03.03 0 0 0 0-.02.03.03 0 0 0-.01-.02c-.44-.18-.8-.38-1.1-.79-.02-.03-.05-.03-.07 0l-.13.15c-.32.3-.56.64-.73 1-.22.47-.4 1-.55 1.59l-.1.6-.16-.12.01-.03.05-.3.17-.62c.1-.4.24-.78.41-1.15a4.23 4.23 0 0 1 .96-1.3v-.02c-.12-.24-.2-.48-.25-.75-.05-.53.04-1.03.27-1.5V7.9c-.36-.62-.42-1.1-.1-1.77v-.01l-.02-.01a2.53 2.53 0 0 0-2.8-.2.86.86 0 0 1 .2-.3 73.97 73.97 0 0 0 .51-.16 2.62 2.62 0 0 1 2.17.5.04.04 0 0 0 .03 0l.02-.01c.07-.12.32-.32.42-.12.1.2.23.38.4.52.15.12.3.23.47.34a.1.1 0 0 0 .09.02c.6-.18 1.17-.1 1.7.24h.08a2.2 2.2 0 0 1 1.84-.17 3.13 3.13 0 0 0 .78-.58c.16-.17.39-.02.41.17.05.43-.14.78-.42 1.08v.02a.02.02 0 0 0 .01.01.8.8 0 0 1 .67.65c0 .01 0 .03.02.04l.14.15c.01.02.03.02.05.03.23.05.23.32.08.46l-.05.05a.05.05 0 0 0-.02.05c.06.18-.06.3-.16.41a.04.04 0 0 0 0 .05l.01.03c.05.04.05.14.04.2l.01.04c.14.2.1.26-.04.44a.04.04 0 0 0 0 .03l.02.16a.02.02 0 0 0 .01.02h.02a.23.23 0 0 1 .22-.06c.1.03.13.12.23.15.33.11.6.3.84.57Z" fill="#080303"/><path d="M6.52 9.45c-.05.35-.17.67-.38.96.12-.3.15-.61.08-.93a2 2 0 0 1 .01-.94c.09-.33.26-.6.15-.96a3.4 3.4 0 0 1-.09-.46 1.83 1.83 0 0 0-.63-1.06 1.4 1.4 0 0 0-.64-.33 1.73 1.73 0 0 0-.77 0 2.53 2.53 0 0 1 2.43.39v.01c-.3.66-.25 1.15.11 1.77v.05c-.23.47-.32.97-.27 1.5Z" fill="#AF6F38"/><path d="m6.14 10.4-.3.51a6.06 6.06 0 0 0-.64 1.14c-.12.22-.2.38-.22.47l-.06-.14c-.1-.57-.08-1.14.05-1.68l.26-.94c.08-.26.13-.63.17-1.13.04-.59-.04-1.36-.67-1.63-.46-.2-1.02-.14-1.29.32-.2.35-.32.75-.33 1.2v.33L3 8.69c.04-.77.21-1.5.53-2.17l.23-.14c.09-.05.16-.1.23-.12.29-.1.58-.1.87-.03.06.01.12 0 .18-.02a.05.05 0 0 0 .03-.05c.02-.07-.01-.12-.08-.15a1.43 1.43 0 0 0-.56-.06 2.2 2.2 0 0 0-.7.18.83.83 0 0 1 .13-.23c.12-.08.24-.13.38-.17.26-.06.52-.06.77 0s.47.17.64.33c.31.28.58.65.63 1.06.02.16.05.31.1.46.1.37-.07.63-.16.96a2 2 0 0 0-.01.94c.07.32.04.63-.08.93Z" fill="#CC8647"/><path d="M8.18 6.97c.02 0 .03.02.02.04l-.01.01h-.02a2 2 0 0 1-.82-.54c-.02-.03-.07-.04-.13-.05l-.04-.06a.93.93 0 0 0-.16-.28H7l-.16.1a.75.75 0 0 1 .2-.29.05.05 0 0 1 .08.02c.2.42.52.62.89.88.06.05.1.12.18.17Zm-4.64-.45c.05-.16.12-.28.2-.39.23-.1.46-.16.7-.18.2-.01.39 0 .56.06.07.03.1.08.08.15 0 .02-.01.04-.03.05a.27.27 0 0 1-.18.02 1.5 1.5 0 0 0-.87.03 1.2 1.2 0 0 0-.23.12l-.23.14Z" fill="#E1AB79"/><path d="M7.18 6.37c-.05-.08-.1-.1-.18-.03a.7.7 0 0 0-.13.3c-.11-.08-.1-.26-.08-.38l.04-.08.16-.1.03.01c.07.08.12.18.16.28Z" fill="#CC8647"/><path d="M5.4 6.42c.12.07.24.09.27.04.04-.06-.03-.16-.14-.23-.11-.07-.23-.1-.26-.04-.04.05.03.15.14.23Z" fill="#E1AB79"/><path d="M6.8 6.26c-.02.12-.04.3.07.38-.04.2-.06.52.01.73 0 .02.02.03.03.03h.06l.01.07a.2.2 0 0 1 .04.07c-.08.04-.09.11-.02.2.04.05.09.08.14.08.09 0 .15-.03.2-.1 0 .17.06.35 0 .5-.2.46-.22.95-.09 1.5.11.4.48.87.9 1.04.28.11.6.2.9.22.33 0 .64.04.92.1l-.46.2h-.05A3.53 3.53 0 0 1 7.95 11a1.93 1.93 0 0 1-1.28-1.86A2.35 2.35 0 0 1 7 7.92l-.01-.04a1.49 1.49 0 0 1-.19-1.62Z" fill="#AF6F38"/><path d="M12.77 6.9c0-.04-.02-.05-.04-.04.09-.11.1-.23.03-.35a.07.07 0 0 0-.08-.04 2 2 0 0 1-.64.42.04.04 0 0 1-.03-.04 3.3 3.3 0 0 0 .66-.53.11.11 0 0 1 .07-.05.09.09 0 0 1 .1.07c.03.2 0 .38-.07.55Z" fill="#C49C68"/><path d="m7.18 6.37.04.06c.14.25.34.47.53.68.08.1.21.33-.01.37l-.15.01c-.02 0-.03.01-.03.03v.03c-.01.02-.02.03-.04.03-.12.03-.18.08-.18.14a.23.23 0 0 1-.2.1.18.18 0 0 1-.14-.08c-.07-.09-.06-.16.02-.2l.07.12.03.03a.1.1 0 0 0 .05 0c.03 0 .04-.01.02-.05-.03-.06-.02-.1.05-.1l.1-.02c.03 0 .04-.02.04-.04v-.06a.04.04 0 0 1 .03-.04l.3-.01c.03 0 .04-.02.03-.06a.4.4 0 0 0-.08-.12 6.12 6.12 0 0 1-.6-.7L7 6.61c-.05.25-.05.5-.01.72 0 .02 0 .04-.02.06h-.06a.05.05 0 0 1-.03-.03 1.62 1.62 0 0 1-.01-.73.7.7 0 0 1 .13-.3c.07-.06.13-.05.18.03Z" fill="#080303"/><path d="m8.18 6.97.07-.02.2-.03c.57-.1 1.2.14 1.57.6.11.12.24.24.32.37l-.06-.01a.6.6 0 0 0-.22-.22c-.5-.25-1.55-.44-1.97.08l-.02.04c0 .02 0 .03.02.03 0 .04 0 .06.04.06.06 0 .12 0 .17-.03l-.02.03a.02.02 0 0 0 0 .03h.02c.35-.04.7-.08 1.05 0 .17.04.33.03.5.1l.38.13c.28.1.25.34.35.57h-.05c-.15-.1-.29-.16-.42-.19-.45-.11-.97-.22-1.58-.33a1.38 1.38 0 0 0-.78.02.06.06 0 0 0-.03.04c-.04.1-.01.17.07.21.26.15.65.3.97.34.58.15 1.19.27 1.81.35-.44.15-.73.24-.86.27-.25.06-.51.08-.78.04-.18-.02-.37-.11-.55-.17h-.03v.03l-.05-.02a.05.05 0 0 0-.04.04.06.06 0 0 0 0 .06l.1.08.14.09c.02 0 .02 0 0 0-.17.01-.28.1-.3.28-.02.04 0 .08.01.12.01.02.03.03.05.03.03 0 .04 0 .05-.02.01-.01.02-.02.01-.04-.02-.13.04-.2.18-.23a.3.3 0 0 1 .04.1c-.1.06-.13.15-.11.27.07.45.57.7.98.75a3.53 3.53 0 0 0 1.34-.16.05.05 0 0 1 .07.02c.18.25.49.15.68.4-.16.05-.33.07-.5.04-.36-.05-.7-.06-1.03-.04-.28-.06-.59-.1-.91-.1-.3-.01-.63-.1-.9-.22-.43-.17-.8-.63-.9-1.05a2.26 2.26 0 0 1 .08-1.48c.06-.16 0-.34 0-.5 0-.07.06-.12.18-.15.02 0 .03-.01.03-.03l.01-.03c0-.02.01-.03.03-.03l.15-.01c.22-.04.1-.28 0-.37-.18-.2-.38-.43-.52-.68.06 0 .1.02.13.05a2 2 0 0 0 .84.54v-.01c.02-.02.01-.04 0-.04Z" fill="#CC8647"/><path d="M7.02 7.54a.2.2 0 0 0-.04-.07l.28-.04c.02 0 .03-.02.03-.04.02-.07.07-.1.16-.1a.03.03 0 0 0 .02-.05L7 6.62l.07-.14a6.12 6.12 0 0 0 .6.71.4.4 0 0 1 .07.12c0 .04 0 .06-.04.06l-.29.01a.04.04 0 0 0-.04.04v.06c.01.03 0 .04-.02.04l-.1.01c-.08.02-.1.05-.06.11.02.04.01.05-.02.06a.1.1 0 0 1-.05 0 .05.05 0 0 1-.03-.04.33.33 0 0 0-.07-.12Z" fill="#C37D64"/><path d="M6.98 7.47V7.4l.01-.06c-.04-.23-.04-.47.01-.72l.47.62a.03.03 0 0 1-.02.04c-.1 0-.14.04-.16.11 0 .02-.01.03-.03.04l-.28.04Z" fill="#E5AA9D"/><path d="M12.67 6.84a.67.67 0 0 0-.23.15c-.04.04-.04.07 0 .1.03.04.05.1.05.16 0 .02.01.03.03.02a.1.1 0 0 0 .04-.02l-.05.06h-.02a1.4 1.4 0 0 0-.3-.33v-.01c.17-.1.31-.2.44-.3.05-.05.06-.04.04.02a.26.26 0 0 0 0 .15Z" fill="#C37D64"/><path d="M10.34 7.9c-.08-.14-.2-.26-.32-.39-.38-.45-1-.69-1.58-.59l-.2.03c-.01-.1.03-.15.12-.15l.08-.01a1.77 1.77 0 0 1 1.82.74c.07.13.17.26.2.4.01.02 0 .03-.01.02a.29.29 0 0 1-.11-.06Zm1.9-.41c-.08-.16-.44-.34-.6-.4-.19-.09-.4-.14-.62-.15a3 3 0 0 0-.84.09s-.02 0-.02-.02V7a.8.8 0 0 1 .2-.09c.43-.13.88-.13 1.32 0 .31.08.53.28.7.53.02.02.01.03 0 .03a.33.33 0 0 1-.14.02Z" fill="#E1AB79"/><path d="m12.67 6.84.06.02c.02 0 .03 0 .04.03l-.21.36a.1.1 0 0 1-.04.02c-.02 0-.03 0-.03-.02 0-.07-.02-.12-.05-.15-.04-.04-.04-.07 0-.1a.67.67 0 0 1 .23-.16Z" fill="#E5AA9D"/><path d="M4.92 12.38c-.04.2-.15.4-.35.61-.07-.09-.12-.17-.12-.24a4.07 4.07 0 0 1 .13-2.08l.15-.45c.05-.14.11-.27.15-.43.09-.38.1-.79.03-1.21 0-.07-.04-.1-.1-.1l-.14-.36c.02-.22-.15-.4-.35-.47a.18.18 0 0 0-.14.01.07.07 0 0 0-.04.05.27.27 0 0 0 .02.2c.1.18.22.33.25.52a2.82 2.82 0 0 1-.18 1.35c-.03-.1-.07-.2-.12-.28-.05-.07-.12-.09-.23-.06-.04 0-.07-.01-.07-.05a.72.72 0 0 0-.14-.33c-.12-.16-.18-.35-.25-.53-.04-.1-.09-.1-.14-.01l-.03.04a.35.35 0 0 0-.04.26l.08.32a.85.85 0 0 1-.19-.29l.01-.33c.01-.45.12-.85.33-1.2.27-.46.83-.52 1.3-.32.62.27.7 1.04.66 1.63-.04.5-.1.87-.17 1.13l-.26.94a4.3 4.3 0 0 0-.05 1.68Z" fill="#E6BF8B"/><path d="M12.24 7.49a.13.13 0 0 1-.05 0c-.51-.32-1.22.48-1.6-.06-.1-.14-.2-.27-.36-.36a.05.05 0 0 0-.04 0c-.06.01-.1 0-.1-.02a.21.21 0 0 1 .07-.05c0 .02.01.02.02.02a3 3 0 0 1 .84-.09c.23.01.43.06.62.14.16.07.52.25.6.4Z" fill="#CC8647"/><path d="M10.09 7.05c0 .03.04.03.1.02h.04c.16.1.26.22.36.36.38.54 1.09-.26 1.6.07-.53.1-1.02.3-1.52.48a.03.03 0 0 1-.03 0l-.01-.01v-.02a.5.5 0 0 0-.06-.17c-.13-.24-.27-.5-.48-.67l-.02-.03c0-.01 0-.03.02-.03Zm.19.83A2.93 2.93 0 0 0 8.3 7.7a.52.52 0 0 0-.2.1c-.02.01-.03 0-.03-.02 0-.01 0-.03.02-.04.42-.52 1.47-.33 1.97-.08a.6.6 0 0 1 .22.22Z" fill="#AF6F38"/><path d="M13 8.17c-.13-.14-.16-.26-.39-.33a1.44 1.44 0 0 0-.81.02 15.66 15.66 0 0 1-.86.2v-.02c.48-.19 1-.39 1.53-.41.36-.02.52.2.63.5l-.01.03a.2.2 0 0 1-.1.01Z" fill="#E1AB79"/><path d="M4.67 8.12a2.29 2.29 0 0 0-.14-.17c-.04-.04-.06-.07-.08-.07-.11-.03-.13 0-.06.1.44.6.35 1.38.08 2.06-.01.01-.02.02-.04.01a.75.75 0 0 1-.3-.15c.03-.05.06-.1.1-.12a2.82 2.82 0 0 0 .18-1.34c-.03-.2-.16-.35-.25-.53a.27.27 0 0 1-.02-.2.07.07 0 0 1 .04-.05.17.17 0 0 1 .14 0c.2.06.37.24.35.46Z" fill="#C49C68"/><path d="M10.58 8.7c-.1-.23-.07-.46-.35-.57l-.38-.14c-.17-.06-.33-.05-.5-.09a3.1 3.1 0 0 0-1.07 0 .02.02 0 0 1 0-.03l.02-.03a2.7 2.7 0 0 1 2.1.26c.11.06.2.19.23.32s.09.21.15.32c.02.03.01.04-.02.02l-.18-.06Z" fill="#E1AB79"/><path d="m13 8.17-.87.38a.97.97 0 0 0-.24-.03 10.43 10.43 0 0 1-.73.05.08.08 0 0 1-.03-.05c-.06-.15-.15-.3-.25-.45l.05-.03.01.02.02.02c.26-.06.54-.13.84-.22.26-.07.56-.1.81-.02.23.07.26.19.38.33Z" fill="#CC8647"/><path d="m4.67 8.12.15.36c.2.85-.2 1.61-.47 2.39a2.9 2.9 0 0 0-.13 1.19c.02.23.1.47.23.7 0 .06.05.14.12.23l.14.2a4.64 4.64 0 0 1-.58-.68l-.06-.3c-.13-.66.08-1.29.3-1.92a.06.06 0 0 0-.03-.07A3.46 3.46 0 0 1 3 9.05l.02-.36.08.16a3.09 3.09 0 0 0 1.33 1.2l.04-.01c.27-.68.36-1.46-.08-2.07-.07-.1-.05-.12.06-.1l.08.08.14.17Z" fill="#080303"/><path d="M10.88 8.07c.1.15.19.3.25.45a.09.09 0 0 0 .08.06l.68-.06c.05 0 .13 0 .24.03a6.09 6.09 0 0 1-1.2.2l-.25-.58c0-.02 0-.03.02-.04l.18-.06Zm-.35.63a23.88 23.88 0 0 0-2.65-.43.04.04 0 0 0-.03.03v.01c0 .04.03.08.08.1.27.14.55.27.83.38a3.2 3.2 0 0 1-.97-.34c-.08-.04-.1-.11-.07-.21 0-.02.02-.03.03-.04.24-.1.53-.07.78-.02.6.1 1.13.22 1.58.33.13.03.27.1.42.19Z" fill="#AF6F38"/><path d="M12.17 8.68c.11-.04.23-.07.34-.12l.49-.23a.33.33 0 0 1 .2-.02c.07.02.07.03 0 .05-.33.12-.68.25-1.03.33h-.01v-.01Z" fill="#C49C68"/><path d="m8.75 8.49-.02.14h-.01l-.41-.16c-.1-.04-.09-.05 0-.04.16.01.3.03.44.06Z" fill="#FBFBFB"/><path d="M4.23 9.78a.48.48 0 0 0-.1.12 3.2 3.2 0 0 1-.84-.76l-.08-.32a.35.35 0 0 1 .04-.26l.03-.04c.05-.1.1-.1.14 0 .07.2.13.38.25.54.07.1.12.21.14.33 0 .04.03.06.07.05.1-.03.18 0 .23.06.05.08.09.17.12.28Z" fill="#F5D8B2"/><path d="M12.39 8.8c.31-.1.62-.2.91-.32.09-.03.16-.01.2.06.01.01.02.03.01.04-.05.3-.85.42-1.1.45-.03 0-.04-.01-.03-.04a.17.17 0 0 0-.01-.16c-.01-.02 0-.03.02-.04Z" fill="#FBFBFB"/><path d="M4.45 12.75a1.61 1.61 0 0 1-.23-.7 2.9 2.9 0 0 1 .13-1.18c.27-.78.67-1.54.47-2.4.05.01.08.04.1.1.06.43.05.84-.04 1.22-.04.16-.1.29-.15.43l-.15.45c-.05.13-.1.27-.11.41l-.08.56c-.03.36-.01.73.06 1.11Z" fill="#F5D8B2"/><path d="M9.12 8.75c.07.01.14-.03.15-.08 0-.05-.05-.1-.13-.11-.08 0-.14.03-.15.08 0 .05.05.1.13.11Zm.34.07a.08.08 0 1 0 0-.16.08.08 0 0 0 0 .16Zm.41-.12a.01.01 0 0 1 .01-.01l.3.05c.16.03.32.07.43.11.12.04.18.08.17.1v.02c0 .02-.02.03-.05.03h-.15a2.39 2.39 0 0 1-.45-.05l-.29-.06.03-.2Zm2.21.35c.07 0 .12-.06.12-.11-.01-.05-.07-.09-.14-.08-.07 0-.12.06-.11.11 0 .06.06.1.13.08Zm-.74.01a.01.01 0 0 1-.01.01h-.01c-.1 0-.21 0-.3-.02-.07-.01-.11-.03-.11-.05v-.02l.03-.03.1-.01a1.66 1.66 0 0 1 .28-.01.01.01 0 0 1 .02 0v.13Zm.39-.02c.04 0 .07-.02.07-.05 0-.03-.03-.06-.07-.06-.03 0-.06.03-.06.06s.03.05.06.05Z" fill="#FBFBFB"/><path d="m12.14 9.56.47-.13a1 1 0 0 0 .61-.43l.07-.04a.04.04 0 0 1 .04.02.04.04 0 0 1 0 .03.9.9 0 0 1-.52.43 3.3 3.3 0 0 1-.56.17.15.15 0 0 1-.11-.05Z" fill="#E1AB79"/><path d="M13.22 9c-.13.2-.33.35-.61.43l-.47.13c-.13-.05-.19-.05-.2.02h-.14c-.13 0-.14.04-.04.12l.28.17a12.4 12.4 0 0 0-1.43.03c-.26.03-.5.03-.76.03-.02 0-.03-.02-.04-.04v-.02h.02c.25-.05.45-.11.6-.19.22-.11.4-.32.68-.33h.69c.23 0 .46-.03.64-.18l.78-.17Z" fill="#CC8647"/><path d="M4.13 12.51A5.89 5.89 0 0 1 3 9.05a3.46 3.46 0 0 0 1.37 1.2v.04a3.58 3.58 0 0 0-.24 2.22Z" fill="#226E50"/><path d="M10.57 9.14c.01-.02.04-.02.08 0v.02a1.9 1.9 0 0 1-.38.2c-.65.27-1.32.37-1.93-.05l.01-.02.03-.01c.18.06.37.15.55.17.27.04.53.02.78-.04.13-.03.42-.12.86-.27Z" fill="#E1AB79"/><path d="M12.44 9.17c-.18.15-.41.18-.64.18h-.7c-.28 0-.45.22-.67.33a2.21 2.21 0 0 1-.61.19v.02c0 .02 0 .04.03.04.25 0 .5 0 .76-.02l.52-.04c-.36.07-.68.12-.98.14-.3.03-.62.01-.91-.1-.22-.08-.47-.2-.7-.11a.3.3 0 0 0-.04-.1c.04 0 .07-.03.06-.07 0-.01 0-.02-.02-.03l.01-.02c.64.31 1.3.14 1.91-.14.16-.07.28-.16.38-.26a6.72 6.72 0 0 0 1.6-.01Z" fill="#AF6F38"/><path d="M5.23 13.3c0-.1.05-.22.01-.32a.27.27 0 0 0-.05-.09 1.1 1.1 0 0 1-.21-.37 50.87 50.87 0 0 1 .55-1.11c.06-.12.17-.29.3-.5.12-.16.22-.33.3-.5.22-.3.34-.61.39-.96a2.89 2.89 0 0 0 .25.78l-.01.02c-.4.38-.7.77-.95 1.27-.17.37-.3.75-.41 1.15l-.17.63Z" fill="#9D5F2D"/><path d="M12.22 9.9v-.02c.08.01.08-.06.1-.12 0-.01 0-.02.02-.03.3-.05.55-.12.8-.27.05-.03.07-.01.08.03v.02c.02.05 0 .09-.04.11-.3.18-.6.3-.96.28Z" fill="#CC8647"/><path d="m11.94 9.58.13.1c.07.05.1.12.15.2v.02l-.18-.03a4.8 4.8 0 0 1-.28-.17c-.1-.08-.1-.12.04-.12h.14Z" fill="#E1AB79"/><path d="M11.86 10.07a.09.09 0 0 1 0-.07c.28.06.68.07.95-.03.15-.06.28-.13.42-.22.05-.02.07-.01.08.04v.01a.13.13 0 0 1-.05.13.79.79 0 0 1-.49.2c-.21 0-.52-.01-.91-.06Z" fill="#F5D8B2"/><path d="m9.07 10-.19.02c-.01 0-.02 0-.03.02v.07l-.08-.03a.04.04 0 0 0-.04.01.04.04 0 0 0 0 .04c0 .04.03.07.07.1.24.13.5.2.78.19.19 0 .38-.02.57-.05l.79-.12c.02 0 .04.01.03.04v.04a.05.05 0 0 1-.04.04l-.7.23c.01-.03.02-.06 0-.07 0-.02-.02-.02-.05-.03a4.95 4.95 0 0 0-.43-.02c-.17.02-.34 0-.51-.04-.1-.03-.16-.02-.2.02a.9.9 0 0 1-.47-.38.12.12 0 0 1 .03-.16c.09-.07.37.03.47.08Z" fill="#C37D64"/><path d="M11.86 10a.09.09 0 0 0 0 .07 3.3 3.3 0 0 0-.59 0l-1.15.16c-.31.05-.56.07-.75.05a1.57 1.57 0 0 1-.52-.17v-.07l.03-.02.2-.02c.54.23 1.1.17 1.67.08.4-.07.71-.1 1.11-.08Z" fill="#E5AA9D"/><path d="M11.5 11.07c-.2-.24-.5-.14-.68-.39a.05.05 0 0 0-.07-.02 3.52 3.52 0 0 1-1.35.16c-.4-.05-.9-.3-.97-.75.25.55 1.02.73 1.56.7.32-.03.64-.19.96-.27h.02v.02c-.02.32.2.33.44.3h.04c.06.09.15.12.25.1.03 0 .03 0 .01.02a.75.75 0 0 1-.21.13Z" fill="#AF6F38"/><path d="m12.04 10.22.52.05c.18.01.38-.02.61-.1.02 0 .03 0 .03.03l-.01.05a.07.07 0 0 1-.06.03c-.11 0-.22.01-.33.04a.44.44 0 0 1-.2.02 11.45 11.45 0 0 0-.57-.09v-.03Z" fill="#C37D64"/><path d="M11.42 10.66a.01.01 0 0 1 0 .01l-.2.01a.1.1 0 0 1-.06-.03.1.1 0 0 1-.04-.06v-.28c-.01-.02 0-.05.02-.07a.1.1 0 0 1 .06-.03h.2l.02.45Zm.46-.43-.03.52v.01h-.01l-.24.02-.01-.02-.03-.55.01-.01.3.02h.01v.01Z" fill="#FBFBFB"/><path d="M7.86 11.45c-.32-.29-.78-.43-1.14-.16a.99.99 0 0 0-.4.68c-.05.36.16.82.43 1.08.44.42.86.58 1.47.5.28-.04.47-.08.58-.13.13-.06.3-.17.45-.18h.04c.17.1.34.13.5.08a1 1 0 0 1 .64-.01l-.23.04a.58.58 0 0 0-.23.06c-.18.11-.4.17-.59.07l-.11-.09a.05.05 0 0 0-.06.01.12.12 0 0 0-.03.05.1.1 0 0 1-.04.05 2.1 2.1 0 0 1-1.37.37 2.13 2.13 0 0 1-1.66-1.5 2.04 2.04 0 0 1-.01-.52c.02-.14.05-.25.09-.34a8.06 8.06 0 0 1 .52-.96l.13-.15c.02-.03.05-.03.07 0a2.32 2.32 0 0 0 1.11.81.03.03 0 0 1 0 .02l-.16.22Z" fill="#AF6F38"/><path d="M12.26 10.53a.12.12 0 0 0-.1.05.38.38 0 0 1-.13.12c-.02.01-.03 0-.03-.02l.02-.26c0-.03.01-.04.03-.03l.31.05c.03 0 .03.01.02.03a.14.14 0 0 1-.12.06Z" fill="#CC8647"/><path d="m9.75 10.48-.1.05a.04.04 0 0 0-.02.03l.03.06a1.3 1.3 0 0 1-.62-.16c.04-.04.1-.05.2-.02.17.05.34.06.5.04Z" fill="#E5AA9D"/><path d="M10.23 10.6c-.2.04-.39.05-.57.02a.08.08 0 0 1-.03-.06l.03-.03.09-.05a4.95 4.95 0 0 1 .48.05c.02.01.01.04 0 .07Z" fill="#F5D8B2"/><path d="M12.72 10.5c.02.05 0 .07-.04.08-.01 0-.02 0-.01.01v.02l.25-.08c.04-.01.06 0 .07.04.03.09.04.18.05.26a.11.11 0 0 1-.1.12.85.85 0 0 0-.23.08c-.01 0-.02.01-.01.02v.01h.02c.14-.03.3-.08.31.13-.05.1-.1.2-.12.3-.01.03.01.06.07.1l.03.01c.01 0 .02-.01.02-.03 0-.11.05-.22.13-.32.07.2.17.33.3.4.05.03.05.05 0 .07l-.2.07c-.03 0-.04 0-.04-.03a3.12 3.12 0 0 0 0-.16h-.03l-.01.02a.39.39 0 0 0-.02.15c0 .02 0 .03-.02.04-.02.02-.05.03-.09.03a1.49 1.49 0 0 1-.43-1.25v-.08a.12.12 0 0 1 .1-.01Z" fill="#D4AF80"/><path d="M13.1 10.69c-.03.05-.02.1.04.15a.08.08 0 0 0 .07.02.08.08 0 0 0 .06-.04l-.04-.03c.05 0 .1.01.14.04l.05.01c.05 0 .1-.03.12-.08l.04-.03c.1-.04.17-.12.21-.23l.01.13c0 .02 0 .03.02.04l.19.1a.03.03 0 0 1 .01.02l-.01.02c-.04.02-.1 0-.17.03-.1-.02-.16.04-.26 0a.05.05 0 0 0-.05 0 .46.46 0 0 1-.18.08.08.08 0 0 0-.05.04.22.22 0 0 1-.11.1c0-.04.02-.08.04-.12 0-.02 0-.02-.02-.02l-.15.04a.04.04 0 0 0-.03.02.06.06 0 0 0 0 .06l.02.01v.01c0 .02 0 .03.03.03l.08-.02-.13.12c-.01-.21-.17-.16-.31-.13h-.02v-.03a.85.85 0 0 1 .25-.08.11.11 0 0 0 .09-.12.85.85 0 0 0-.05-.26c-.01-.04-.03-.05-.07-.04l-.24.08-.01-.02c.05-.02.07-.04.05-.1h.26c.02 0 .03.01.03.03.02.07.05.12.1.17Z" fill="#AF6F38"/><path d="M13.45 10.58c.03 0 .05-.03.05-.05 0-.03-.04-.03-.08-.02-.03 0-.05.03-.05.05 0 .03.04.03.08.02Z" fill="#F5D8B2"/><path d="M14.2 10.7h-.13a.02.02 0 0 0-.02.02.02.02 0 0 0 0 .03l.2.2c.11.1.2.24.27.37 0 .06-.03.11-.08.16l-.14.04a.1.1 0 0 1-.1-.04.1.1 0 0 1-.02-.03l-.03-.14.01-.11h.21c.03-.02.03-.03 0-.04a.25.25 0 0 0-.17-.01c-.02 0-.03 0-.05-.02a.49.49 0 0 0-.3-.3c.05-.02.12 0 .16-.02l.01-.02a.03.03 0 0 0-.01-.03l-.19-.09a.04.04 0 0 1-.02-.04v-.13l.4.2Z" fill="#D4AF80"/><path d="M6.7 10.55a8.9 8.9 0 0 0-.51.96 2 2 0 0 0-.1.34c-.02-.02-.04-.03-.05-.02a.09.09 0 0 0-.04.02.1.1 0 0 0-.02.05c-.05.24-.02.49.08.74.25.64.7 1.06 1.34 1.31.02 0 .03.02.03.04l.02.28c-.33-.1-.64-.25-.92-.46-.09-.06-.2-.09-.28-.04a.98.98 0 0 0-.39.35l-.53-.38.1-.6a9.1 9.1 0 0 1 .55-1.6c.17-.35.4-.68.73-1Z" fill="#9D5F2D"/><path d="M12.51 10.85c0 .22.07.46.17.66 0 .02 0 .02-.01.01a.19.19 0 0 1-.05-.05 1.55 1.55 0 0 1-.2-.86c0-.03.02-.04.05-.05h.02a.02.02 0 0 1 .02.01v.28Z" fill="#E5AA9D"/><path d="M12.55 11.56v.02c-.14-.17-.4-.6-.35-.85 0-.03.02-.05.04-.07l.04-.03c.02-.02.03-.02.03.02-.01.33.07.63.24.9ZM14.2 10.7c.15.08.28.2.4.34a.5.5 0 0 1-.08.28 1.67 1.67 0 0 0-.27-.37 4.86 4.86 0 0 1-.2-.24h.02l.14-.02Z" fill="#F5D8B2"/><path d="M13.84 10.84c.15.05.26.15.31.3l.01.06-.01.1-.06.13c-.15.15-.31.16-.48.03l-.08-.08c-.07-.05-.12-.25-.13-.32 0-.02-.01-.02-.03 0-.11.11.05.35.15.43.03.03.1.06.2.1 0 .04 0 .07-.04.09a.06.06 0 0 1-.04 0c-.24-.1-.38-.25-.41-.46 0-.02-.01-.03-.03-.02a.06.06 0 0 0-.04.05c-.08.1-.12.2-.13.32 0 .02 0 .03-.02.03h-.03c-.06-.05-.08-.08-.07-.11l.12-.3.13-.12h.03a.22.22 0 0 0 .11-.11.08.08 0 0 1 .05-.04.47.47 0 0 0 .18-.08l.03-.01h.02c.1.05.17 0 .26 0Z" fill="#080303"/><path d="M13.19 11.06h-.03a.72.72 0 0 1-.08.03c-.02 0-.03 0-.03-.03v-.01l-.02-.01a.06.06 0 0 1 0-.06l.03-.02.15-.04c.02 0 .03 0 .02.02a.36.36 0 0 0-.04.12Z" fill="#D4AF80"/><path d="M13.95 11.03c-.05.04-.03.1.05.16v.04a.24.24 0 0 0-.04.12l.01.02-.01.02c-.02 0-.03 0-.03-.02a1.21 1.21 0 0 0-.1-.38c-.02-.02-.01-.03 0-.03.06 0 .1.03.12.07Z" fill="#9D5F2D"/><path d="M14.09 11.43c.02.02.03.05.03.1l-.03.03a.6.6 0 0 1-.38.03.93.93 0 0 1-.2-.1c-.1-.08-.25-.32-.14-.44.02-.01.03-.01.03.01.01.07.06.27.13.32l.08.08c.17.13.33.12.48-.03Z" fill="#D4AF80"/><path d="M13.95 11.03c.08.07.1.15.08.26a.11.11 0 0 1-.06.08l-.01-.02c0-.05.02-.09.04-.12v-.04c-.08-.06-.1-.12-.05-.16Zm-1.55.54a.24.24 0 0 1-.16.09c-.02 0-.03 0-.04-.02l-.16-.24-.01-.01H12v.02l.15.25a.02.02 0 0 1 0 .02h-.01a6.3 6.3 0 0 1-.83.15c-.03 0-.04 0-.05-.03l-.01-.05c0-.02-.01-.03-.02-.03h-.03a.03.03 0 0 0 0 .03.74.74 0 0 0 0 .07v.01l-.02.01-.32.02c-.08 0-.52-.38-.23-.04.02.02.01.04-.02.04l-.34.04c-.2-.07-.4.05-.57.14h-.02v-.01a.28.28 0 0 0-.2-.26v-.28c.78-.63 2.1.4 2.67-.38l.25.46Z" fill="#D4AF80"/><path d="M7.86 11.45a.88.88 0 0 0-.12.25c-.01.05-.03.05-.05 0-.05-.1-.08-.2-.1-.33a.06.06 0 0 0-.06-.05.06.06 0 0 0-.06.04l-.01.04a.36.36 0 0 0-.04.35 1.2 1.2 0 0 0 1.4.83l.03-.03.01-.03c.03.02.05.03.07.02a.04.04 0 0 0 .03-.03c.04-.15.1-.17.22-.25a.1.1 0 0 0 .03-.04l.2-.36.04.45a.03.03 0 0 0 .05.02l.1-.05c.1-.08.22-.14.32-.2a.55.55 0 0 1 .2-.08c.1 0 .1.02.05.1-.06.06-.2.18-.13.28a.08.08 0 0 0 .07.03c.09 0 .26-.03.33.02a.04.04 0 0 1 .01.05c0 .01 0 .02-.02.02l-.22.14a.11.11 0 0 0-.06.09.1.1 0 0 0 .07.1l.27.08a.04.04 0 0 1 .03.03v.02l-.02.01a.45.45 0 0 1-.28.09.07.07 0 0 0-.07.03.04.04 0 0 0 .02.05l.14.05c.04 0 .08.05.12.12a1.02 1.02 0 0 0-.64 0 .6.6 0 0 1-.5-.06.07.07 0 0 0-.04-.01c-.15 0-.32.12-.45.18-.1.05-.3.1-.58.13-.6.08-1.03-.08-1.47-.5-.27-.26-.48-.72-.43-1.08a1 1 0 0 1 .4-.68c.36-.27.82-.13 1.14.16Z" fill="#CC8647"/><path d="M13.66 11.2a.08.08 0 0 1 .09-.02.04.04 0 0 1 .02.02.04.04 0 0 1 0 .03c-.01.05-.04.06-.08.04a.46.46 0 0 1-.07-.06v-.03c0-.02.02-.02.02 0v.02c0 .02.02.02.02 0Z" fill="#FBFBFB"/><path d="M13.71 11.6a.6.6 0 0 0 .38-.04l.03-.04c0-.04 0-.07-.03-.1l.06-.11.03.14a.1.1 0 0 0 .08.07.1.1 0 0 0 .04 0l.14-.04-.03.08a.3.3 0 0 0-.13.03.04.04 0 0 0-.02.04l.02.18-.06.12c-.12 0-.2.06-.24.17v.01h-.02c-.07-.07-.16-.16-.27-.12a.25.25 0 0 0-.16.21c0 .1-.03.1-.05.01a.14.14 0 0 0-.06-.07.73.73 0 0 1 .25-.16.04.04 0 0 0 .03-.03.04.04 0 0 0-.01-.04l-.1-.13a.06.06 0 0 0-.07-.01l-.38.15-.09-.08c.04 0 .07 0 .1-.03a.05.05 0 0 0 .01-.04c0-.05 0-.1.02-.15l.01-.02h.02v.16c0 .02.02.03.04.03l.2-.07c.06-.02.06-.04.02-.06a.66.66 0 0 1-.3-.4c0-.03 0-.05.03-.06.02 0 .03 0 .03.02a.6.6 0 0 0 .4.46h.05c.03-.02.04-.05.03-.09Z" fill="#AF6F38"/><path d="M9.01 11.43a1.9 1.9 0 0 0-.3.4c-.08.17-.1.34-.14.5 0 .02 0 .03-.02.04H8.5a.95.95 0 0 1-.67-.41.06.06 0 0 1 0-.05c.05-.2.18-.51.35-.63a.05.05 0 0 1 .04-.01c.27.05.48.14.8.16Z" fill="#E6BF8B"/><path d="M12.4 11.57c.11.15.25.3.39.42l.24.15c.04.17 0 .26-.13.27 0-.03 0-.06.02-.1v-.04a.54.54 0 0 0-.12-.2.05.05 0 0 0-.04-.02c-.05 0-.1.03-.15.06a.04.04 0 0 0-.01.05l.17.31-.05.04c0 .02 0 .03.02.02l.12-.01c.03 0 .04 0 .04.04v.12c0 .03 0 .04-.03.05l-.4.11a.04.04 0 0 1-.06-.04l-.08.05c0 .02-.02.03-.03.03a4.38 4.38 0 0 0-.97.35h-.04c-.01 0-.02-.02-.01-.03 0-.02 0-.03-.03-.04h-.03a.04.04 0 0 0-.02.05c.02.05 0 .1-.05.11a11.12 11.12 0 0 1-.48.17v-.01a.45.45 0 0 0 .03-.24s0-.02-.02-.02a.03.03 0 0 0-.02 0v.02c-.02.09-.03.26-.12.3-.15.06-.35.13-.5.05-.05-.02-.07-.01-.05.04 0 .02 0 .04-.03.04a.13.13 0 0 1-.08-.04l.01-.04c.08-.04.16-.08.24-.1a.43.43 0 0 1 .24-.02h.05c.1-.06.13-.15.09-.25a.2.2 0 0 0 .1 0c.02 0 .03 0 .04-.02.03-.06.02-.12-.03-.16a.2.2 0 0 0 .03-.14c.1.05.23.05.41 0 .02 0 .03-.02.01-.04a1.8 1.8 0 0 1-.22-.35.04.04 0 0 0-.03-.02.37.37 0 0 0-.25.05.31.31 0 0 0 .01-.14c.18.02.37.01.55-.03a.1.1 0 0 0 .07-.1l-.06-.33c0-.02-.02-.03-.04-.03l-.55.02c-.02 0-.03 0-.04.02a.48.48 0 0 0-.04.35l-.1-.03.09-.3v-.01a.02.02 0 0 0-.01-.02h-.01c-.06-.01-.1 0-.11.04a.16.16 0 0 0-.06-.08l.34-.04c.03 0 .04-.02.02-.04l-.1-.12v-.02l.02-.01a.02.02 0 0 1 .02 0c.1.11.15.2.3.2a17.37 17.37 0 0 0 .33-.05v-.11h.03l.02.04.01.05c0 .03.02.04.05.03a6.29 6.29 0 0 0 .84-.16v-.01L12 11.4v-.01h.02l.02-.01h.01l.16.25.04.02a.29.29 0 0 0 .16-.09Z" fill="#AF6F38"/><path d="M7.46 11.4c.02.34.24.7.5.9a1 1 0 0 0 .73.23l.17-.01-.01.03-.04.03a1.2 1.2 0 0 1-1.19-.45 1.5 1.5 0 0 1-.2-.38.36.36 0 0 1 .04-.35Z" fill="#E1AB79"/><path d="m8.5 12.38.05-.01.02-.03c.04-.17.06-.34.14-.5.08-.15.18-.29.3-.41h.28a.01.01 0 0 1 .01.02c-.18.21-.3.45-.34.72-.03.21-.26.24-.46.2Z" fill="#C49C68"/><path d="M9.48 11.49v.28c-.14-.02-.24.04-.29.18a1.9 1.9 0 0 1-.06.13c-.02 0-.02-.01-.02-.02.09-.22.18-.44.37-.57Z" fill="#C37D64"/><path d="M14.41 11.56a.64.64 0 0 1-.13.25l-.02-.18c0-.02 0-.03.02-.04a.3.3 0 0 1 .13-.03Zm-.25.29a.67.67 0 0 0-.19.12h-.04a.26.26 0 0 0-.11-.04.08.08 0 0 1-.06-.03l-.09-.12a.03.03 0 0 1 0-.03.03.03 0 0 1 .02-.02 2.36 2.36 0 0 1 .5-.1.03.03 0 0 1 0 .02l.02.12a.08.08 0 0 1-.05.08Zm-1.91-.13.15-.04a.03.03 0 0 1 .03 0l.25.28a.03.03 0 0 1-.01.05l-.4.15h-.02a.03.03 0 0 1-.02-.02v-.41h.02Zm-.53.13.43-.1a.02.02 0 0 1 .02 0v.03l-.02.4v.02l-.02.01-.55.11h-.02v-.03l.14-.43a.02.02 0 0 1 .02-.01Zm1.7.29-.28-.22.38-.15a.06.06 0 0 1 .07.01l.1.13a.05.05 0 0 1 0 .04.04.04 0 0 1-.02.03.73.73 0 0 0-.25.16Zm-1.79-.24-.13.4a.05.05 0 0 1-.04.04l-.1.02a.08.08 0 0 1-.1-.07l-.07-.35c0-.02 0-.04.03-.04l.39-.04h.01a.02.02 0 0 1 .01.02v.02Z" fill="#D4AF80"/><path d="m9.6 12.28-.1.05h-.04v-.02l-.05-.45a.5.5 0 0 1 .1.09c.01.02.02.06.01.11-.01.13 0 .2.07.22Z" fill="#E1AB79"/><path d="M10.58 12.4c0-.05-.04-.09-.1-.1a.48.48 0 0 1 .03-.35l.04-.02.55-.02c.02 0 .03.01.04.03l.06.32a.1.1 0 0 1-.07.11 1.7 1.7 0 0 1-.55.03Zm-.21-.13h-.15c-.02 0-.03 0-.01-.02.09-.11.13-.2.12-.27.02-.04.05-.05.1-.04a.02.02 0 0 1 .03.02l-.09.31Zm2.53.13-.13.07-.17-.3a.04.04 0 0 1 .01-.06l.15-.06a.05.05 0 0 1 .04.02c.06.06.1.13.13.2v.05a.14.14 0 0 0-.03.09Z" fill="#D4AF80"/><path d="m13.98 12.33-.48.62a.95.95 0 0 0-.36-.23.08.08 0 0 1-.05-.05v-.02a.02.02 0 0 1 .02 0c.11-.01.28 0 .25-.18-.02-.06-.06-.09-.08-.13-.04-.06-.02-.07.03-.04.07.05.14.12.22.13.17 0 .13-.18.18-.28l.01-.02h.04l.02.01c.07.1.07.16.2.19Z" fill="#CC8647"/><path d="m12.01 12.58-.06-.23c0-.02 0-.03.02-.04a3.9 3.9 0 0 0 .56-.16l.16.33v.01h-.01l-.54.16a.1.1 0 0 1-.08 0 .1.1 0 0 1-.05-.07Z" fill="#D4AF80"/><path d="m12.98 12.8-.9.21a.05.05 0 0 0-.04.03.05.05 0 0 0 0 .04l.05.19-.05.03a.55.55 0 0 1-.06-.21.03.03 0 0 0-.02-.03h-.03l-.4.15-.01.02v.42l-.06.03v-.35c-.01-.06-.04-.07-.09-.04l-.3.14a.13.13 0 0 0-.08.13v.27l-.11.01.04-.25a.06.06 0 0 0-.05-.06h-.03l-.48.14a.04.04 0 0 0-.03.03c0 .03 0 .07.02.12a.98.98 0 0 1-.39-.15c.03 0 .04-.02.03-.04-.02-.05 0-.06.04-.04.16.08.36.01.5-.05.1-.04.11-.21.12-.3a.03.03 0 0 1 .02-.02h.01l.02.02a.5.5 0 0 1-.03.24v.02h.02c.16-.05.3-.11.46-.18.05-.02.07-.06.05-.1a.04.04 0 0 1 .02-.05h.03c.02 0 .03 0 .03.03v.03h.05l.36-.15c.05-.02.08-.07.13-.07l.07-.01a6.31 6.31 0 0 1 .44-.15l-.01-.1.02-.03c.05 0 .07.03.07.08v.02a.04.04 0 0 0 .05.02l.41-.11c.03 0 .04-.02.04-.05v-.12c-.01-.03-.02-.04-.05-.04l-.12.01c-.02 0-.03 0-.02-.02a.1.1 0 0 1 .05-.04l.13-.06c.13-.01.17-.1.13-.27l.07.04.01.02v.02c-.02.1.01.18.08.25a.01.01 0 0 1 0 .01v.01c-.21-.01-.34.1-.21.3Z" fill="#9D5F2D"/><path d="m7.06 12.8.08.1a.09.09 0 0 1-.12.12.89.89 0 0 1-.39-.64c0-.04 0-.08.02-.11.03-.1.06-.1.1 0 .07.23.18.4.3.52Z" fill="#E1AB79"/><path d="m11.9 12.36.08.3a.04.04 0 0 1-.03.04l-.26.08a.04.04 0 0 1-.04-.02v-.36a.04.04 0 0 1 .03-.04l.18-.03a.04.04 0 0 1 .04.03Z" fill="#D4AF80"/><path d="M4.98 12.52c.05.14.12.26.2.37.04.03.05.06.06.09.04.1-.02.21-.01.32l-.05.29-.06-.04-.41-.36-.14-.2c.2-.21.31-.42.35-.6l.06.13Z" fill="#C49C68"/><path d="m10.91 12.47.67-.08a.02.02 0 0 1 .02.01v.01l-.01.38a.02.02 0 0 1-.02.02l-.4.08h-.02v-.01l-.25-.37v-.01a.02.02 0 0 1 0-.02h.01Zm-.26.43a.19.19 0 0 0-.12-.11 4.6 4.6 0 0 1-.18-.08c.1-.04.16-.1.22-.17a.37.37 0 0 1 .25-.05c.01 0 .02 0 .03.02.06.13.14.25.22.35.02.02.01.04-.01.04-.18.05-.31.05-.4 0Z" fill="#D4AF80"/><path d="m12.98 12.8.1.05c.03.02.03.03 0 .03-.19.04-.36.04-.54.13-.16.07-.3.16-.45.26l-.05-.2a.05.05 0 0 1 .02-.05h.02l.9-.23Zm.43.24-.05.05-.48.16c-.11.03-.29.1-.53.22-.09.05-.3.13-.62.23l.73-.49c.24-.15.52-.15.8-.2.06-.02.1 0 .15.03Z" fill="#AF6F38"/><path d="M7.27 13.24c.08.03.17.01.2-.04.01-.06-.04-.13-.12-.16-.08-.03-.17-.02-.19.04-.02.05.03.13.11.16Z" fill="#E1AB79"/><path d="m12.04 13.3-.52.34v-.39a.04.04 0 0 1 .02-.04l.4-.15h.02a.03.03 0 0 1 .02.03c0 .07.02.14.06.21Z" fill="#AF6F38"/><path d="M13.36 13.1a5.94 5.94 0 0 1-3.75 1.88c.05-.12.02-.22-.1-.23-.14 0-.27-.02-.38-.05a.28.28 0 0 0-.18 0 .06.06 0 0 0-.03.05.06.06 0 0 0 .01.05l.22.2a4.9 4.9 0 0 1-1.4-.14l-.13-.45.01-.05.04-.02a2.9 2.9 0 0 0 1.68-.38 5.95 5.95 0 0 1 .55.14c.36.12.75.13 1.11.09.16-.02.3-.08.45-.12.22-.05.4-.2.59-.33l.3-.19.53-.3.48-.16Z" fill="#E6BF8B"/><path d="m12.88 13.25-.53.3-.3.19c-.19.13-.37.28-.59.33-.15.04-.29.1-.45.12-.36.04-.75.03-1.1-.09a5.9 5.9 0 0 0-.56-.14l-.04.01a2.9 2.9 0 0 1-1.64.37c-.01 0-.03 0-.04.02v.05a1.1 1.1 0 0 1-.04-.38c0-.02.02-.03.03-.02a2.1 2.1 0 0 0 1.64-.41.08.08 0 0 1 .08 0c.1.04.2.06.32.06l.04.07.02.05c0 .11.1.19.2.22.04.02.1.03.18.03.27 0 .55 0 .82-.03.3-.04.56-.14.81-.3.33-.1.53-.18.62-.23.24-.12.42-.2.53-.22Z" fill="#C49C68"/><path d="m11.46 13.68-.47.15v-.27c0-.06.03-.1.09-.13l.3-.14c.04-.03.07-.02.07.04l.01.35Zm-.58.16a1.5 1.5 0 0 1-.53-.02.2.2 0 0 1-.02-.12l.03-.03.48-.14a.06.06 0 0 1 .06.01.06.06 0 0 1 .02.05l-.04.25Z" fill="#AF6F38"/><path d="m5.12 13.55.06.04v.03c-.08-.03-.1-.06-.06-.07Z" fill="#226E50"/><path d="M10.92 14c-.27.02-.55.03-.82.03a.51.51 0 0 1-.2-.03c-.09-.03-.2-.1-.19-.22 0-.02 0-.04-.02-.05a.19.19 0 0 1-.04-.07l.34.2c.29.12.6.17.92.14Z" fill="#AF6F38"/><path d="m7.45 14.27.12.56a5.76 5.76 0 0 1-1.7-.7.98.98 0 0 1 .38-.36c.09-.05.2-.02.28.04.28.2.59.36.92.46Z" fill="#CC8647"/><path d="m9.61 14.97-.46.02-.22-.2a.06.06 0 0 1 .02-.09.28.28 0 0 1 .18 0c.11.03.24.05.38.05.12 0 .15.11.1.22Z" fill="#F5D8B2"/></svg>