<!-- by TradingView --><svg width="18" height="18" viewBox="0 0 18 18" xmlns="http://www.w3.org/2000/svg"><path fill="#FFAD01" d="M0 0h18v18H0z"/><path d="M9.02 11.2v3.38a.42.42 0 0 1-.14.31.4.4 0 0 1-.32.1l-1.6-.16a.16.16 0 0 1-.14-.13L5.01 5.45A.44.44 0 0 1 5.2 5c2-1.28 7.64-1.75 8.66 1.2.28.83.12 1.6-.5 2.33a7.43 7.43 0 0 1-4.33 2.61.09.09 0 0 0-.02.06ZM8.79 8.5c.54-.04.9-.1 1.08-.18.8-.36.72-1.15.03-1.56a3.2 3.2 0 0 0-1.53-.44.33.33 0 0 0-.34.25.34.34 0 0 0 0 .15l.27 1.41c.03.11.09.21.18.28.09.07.2.1.31.1Z" fill="#010101"/></svg>