<!-- by TradingView --><svg width="18" height="18" viewBox="0 0 18 18" xmlns="http://www.w3.org/2000/svg"><path fill="#EEDFDC" d="M0 0h18v18H0z"/><path d="M4.7 4.01v.01h.01l.14.01h.07a.1.1 0 0 0 .1.04c0-.01 0-.01 0 0l.24.13c.2.14.37.28.52.42a411.42 411.42 0 0 1 .68.64 2.72 2.72 0 0 0 .74.43l.22.06h.19l.02.02h.18l.16-.02c.11 0 .22-.02.32-.03.1 0 .21-.02.32-.04h.04l.01-.01h.22a.48.48 0 0 1 .17 0h.23l.24.01a6.2 6.2 0 0 0 .68.05 8 8 0 0 0 .43.03c.05.01.08.02.12 0 .25-.06.46-.15.62-.25l.47-.3c.2-.12.4-.2.6-.24a.64.64 0 0 1 .4.03.6.6 0 0 1 .3.38l.01.12c.02.1 0 .18.01.28v.13a.91.91 0 0 0-.02.19c0 .1-.03.19-.02.29a16.58 16.58 0 0 1 .05.5l.05.3.03.07.01.06a7.73 7.73 0 0 0 .17.42 4.42 4.42 0 0 1 .4.99l.05.14c0 .06.03.12.03.17 0 .08.03.15.04.22l.02.35c0 .02.01.03.03.05v.17a1.77 1.77 0 0 0-.04.37v.07a.5.5 0 0 0-.05.2l-.01.08-.02.09a3.75 3.75 0 0 1-1.05 2.06c-.1.1-.19.19-.3.27a4.64 4.64 0 0 1-1.79.91 26.16 26.16 0 0 1-.5.08l-.1.02h-.88l-.1-.02c-.1-.02-.2-.04-.29-.04H8.8a.52.52 0 0 0-.08-.02 1 1 0 0 1-.1-.02 3.64 3.64 0 0 1-1.42-.5c-.4-.22-.74-.49-1.03-.81-.33-.37-.6-.81-.8-1.27a9.16 9.16 0 0 1-.7-2.3 13.41 13.41 0 0 0-.41-1.73A8.85 8.85 0 0 1 4 5.97c-.04-.56.05-1.1.26-1.6.07-.18.23-.33.42-.34v-.01Z" fill="#42281F"/><path d="M5.03 4.07c.07.03.13.05.18.09.18.11.36.25.53.41l.09.08c.16.16.36.36.49.47.18.17.38.31.6.43a1.8 1.8 0 0 0 .4.16c.2.04.41.05.62.04a9.2 9.2 0 0 0 .7-.08l-.03.01a3.5 3.5 0 0 1-.32.04c-.1 0-.2.04-.32.03-.05 0-.1 0-.16.02a.57.57 0 0 1-.18 0l-.02-.01-.03-.01h-.16a1.65 1.65 0 0 1-.44-.15c-.18-.1-.36-.2-.52-.34a5.73 5.73 0 0 1-.68-.64 4.88 4.88 0 0 0-.52-.42l-.23-.13Z" fill="#826158"/><path d="M6.56 5.57c.16.43.22.85.17 1.26 0 .05.01.06.05.03.37-.3.76-.58 1.19-.77l.33-.18a3.85 3.85 0 0 1 .85-.07c.02.13-.06.2-.18.23a3.06 3.06 0 0 0-1.62.83c-.06.05-.06.1-.01.16.02.03.04.04.08.03l.2-.03c.02 0 .03 0 .03.04l-.01-.02a.02.02 0 0 0-.02 0H7.6l-.04.1v-.02h-.02c-.13.04-.55.27-.46.43.05.08.1.14.19.19a.02.02 0 0 1 0 .02.02.02 0 0 1 0 .01c-.1.06-.18.14-.26.23l-.23.26c-.15.2-.27.37-.36.53-.1.16-.13.35.03.49.07.06.14.07.21.04h.01v.02h-.01c-.26.15-.47.34-.64.58-.1.14-.23.38-.01.49.03.01.06 0 .09-.01.04-.03.05-.02.02.02a11.55 11.55 0 0 1-.26.55l-.1.13a.56.56 0 0 1-.19.14l-.15-.35c.09-.16.15-.26.18-.42 0-.01 0-.02-.02-.03-.05-.01-.1-.03-.1-.1.01-.32.1-.61.27-.88l.1-.18c.02-.01.02-.04.01-.09v-.02c.08-.14.13-.27.18-.39a3.77 3.77 0 0 0 .2-.95l-.28.46c-.09.15-.2.26-.38.26a.7.7 0 0 1-.4-.16l-.03-.01v.01c.09.14.05.3-.11.36a.28.28 0 0 1-.2 0l-.11-.5c.03.02.05.02.05 0a.92.92 0 0 0 0-.3.03.03 0 0 1 .03-.02h.01c.1 0 .2.02.29.05.16.07.39.1.54 0 .2-.13.15-.36.06-.56a.03.03 0 0 1 .01-.04h.01l.17-.01c.1 0 .14-.1.1-.17-.05-.08-.12-.15-.18-.22a.02.02 0 0 1 0-.01.02.02 0 0 1 0-.02.76.76 0 0 0 .37-.48.62.62 0 0 0-.1-.51v-.03a.42.42 0 0 0-.05-.18 7.9 7.9 0 0 0-.34-.56c-.21-.32-.45-.6-.7-.84a.84.84 0 0 0-.36-.17.51.51 0 0 1 .28.01c.14.06.27.14.4.23.28.23.56.53.81.76a6 6 0 0 0 .42.35Z" fill="#774C46"/><path d="M4.65 4.22c.16.05.28.1.35.17a4.48 4.48 0 0 1 .74.9v.02h-.01c-.06-.05-.12-.1-.16-.16l-.23-.3c-.1-.15-.29-.36-.5-.28-.16.06-.23.22-.27.38a6.67 6.67 0 0 0-.18 1.84l-.03-.02a4.37 4.37 0 0 1-.16-1.06c0-.35.07-.72.2-1.1.05-.2.14-.33.25-.39Z" fill="#E6D1CC"/><path d="m5.71 5.23.34.56c.03.05.04.11.05.18l-.02.01-.02-.01c-.13-.2-.3-.36-.5-.46-.07-.04-.13-.03-.17 0a.27.27 0 0 0-.07.13c-.13.36-.22.68-.3.94-.08.3-.15.62-.2.97-.08-.1-.14-.18-.18-.26a38 38 0 0 0-.26-.45l-.01-.07.02.02a.04.04 0 0 0 .02-.04 6.67 6.67 0 0 1 .16-1.8c.04-.16.11-.32.28-.38.2-.08.38.13.5.27l.22.3c.04.07.1.12.15.17h.01l.01-.01v-.02a.08.08 0 0 1-.03-.05Z" fill="#C98C89"/><path d="M12.85 5c.09.05.15.1.2.18.07.11.12.24.13.37v.33l-.03.35a3.2 3.2 0 0 0 .34 1.59 3.96 3.96 0 0 1 .46 1.44c0-.07-.04-.14-.04-.22l-.03-.17c-.01-.05-.04-.1-.04-.14l-.02-.07a6.95 6.95 0 0 0-.3-.76l-.08-.16a7.37 7.37 0 0 1-.19-.48c0-.03-.02-.05-.03-.08a9 9 0 0 0-.08-.53l-.02-.26.02-.3.01-.18c.01-.05.02-.09.01-.13 0-.1.01-.18 0-.28l-.03-.12a.6.6 0 0 0-.28-.38Z" fill="#826158"/><path d="M13.02 7.09v.01a.02.02 0 0 1-.03 0 2.49 2.49 0 0 1-.2-.83c0-.18.03-.36.05-.54 0-.07 0-.13-.02-.2-.07-.23-.3-.24-.51-.17-.15.04-.3.1-.47.17l.05-.1c.16-.12.35-.21.58-.27.1-.03.18-.03.25 0 .16.04.24.21.26.36.01.12 0 .3-.01.46-.04.37-.02.74.05 1.11Z" fill="#E6D1CC"/><path d="M13.02 7.09v.03l-.1.2a254.7 254.7 0 0 0-.49-1.23.77.77 0 0 0-.11-.23c-.1-.13-.25-.2-.42-.13a.47.47 0 0 0-.2.15l-.02-.03a.6.6 0 0 1 .08-.2l.08-.12c.16-.07.32-.13.47-.17.2-.07.44-.06.51.18.02.06.03.12.02.19-.02.18-.06.36-.05.54a2.5 2.5 0 0 0 .21.84.02.02 0 0 0 .01 0l.01-.02Z" fill="#C98C89"/><path d="m11.89 5.43-.05.1a.74.74 0 0 0-.08.12.6.6 0 0 0-.08.2l-.06.1c-.03.05-.05.16-.08.34-.02.07 0 .14.04.2v.03h-.03c-.27-.2-.55-.37-.85-.53a.25.25 0 0 1 .1-.04 1.57 1.57 0 0 1 .48.27.03.03 0 0 0 .02 0 .03.03 0 0 0 .01-.02l.2-.54.38-.23Z" fill="#774C46"/><path d="M6.1 5.97V6c0 .14-.01.3-.05.43a3 3 0 0 1-.07.19.03.03 0 0 1-.04 0 .58.58 0 0 1-.15-.22c-.01-.04-.03-.04-.04 0a1.58 1.58 0 0 0-.05.79.03.03 0 0 1-.02.02h-.01l-.28-.06a.01.01 0 0 0-.02.01v.04a.54.54 0 0 1 .07.34.02.02 0 0 1-.02 0 5.94 5.94 0 0 1-.3-.14.03.03 0 0 0-.02.03c0 .14.01.27.04.39 0 .04-.01.05-.04.02-.12-.1-.22-.2-.28-.3.05-.34.12-.67.2-.96.08-.26.17-.58.3-.94.02-.06.04-.1.07-.12.04-.04.1-.05.17-.01a1.24 1.24 0 0 1 .52.47l.02-.01Z" fill="#BC7573"/><path d="m6.56 5.57.34.19a1.83 1.83 0 0 0 1.02.17l.38-.02c-.1.07-.22.13-.33.18-.43.19-.82.46-1.19.77-.04.03-.05.02-.05-.03a2.7 2.7 0 0 0-.17-1.26ZM11.52 5.66l-.2.54-.01.01h-.01a.03.03 0 0 1-.02 0h-.02c-.14-.11-.29-.2-.45-.26.24-.06.47-.16.7-.29Z" fill="#683B36"/><path d="M12.92 7.31a.23.23 0 0 1-.05.1c-.02.02-.04.02-.05-.01l-.17-.36a.04.04 0 0 0-.03-.02.04.04 0 0 0-.03.01.31.31 0 0 1-.06.04c-.03.01-.04 0-.03-.03l.08-.24a.01.01 0 0 0 0-.01h-.02c-.14.04-.27.02-.4 0a.1.1 0 0 1-.06-.03 19.5 19.5 0 0 0-.1-.35.02.02 0 0 0-.01.02l-.06.11a.03.03 0 0 1-.02.02h-.02v-.02a1.9 1.9 0 0 1-.18-.66.47.47 0 0 1 .19-.15c.17-.06.31 0 .42.13.04.06.08.13.11.22l.38 1.02.11.21Z" fill="#BC7573"/><path d="m9.15 5.84 1.43.11.12.04a6.08 6.08 0 0 1 .98.64c.03.03.03.04-.02.04h-.03l-.12.02-.02.01a.19.19 0 0 0-.02.23v.01h-.02c-.08-.06-.13-.18-.03-.25.03-.02.03-.02 0-.01a.41.41 0 0 0-.18.06c-.03.02-.03.04 0 .06l.2.16c.22.13.38.22.48.26.1.04.22.07.33.07l.04-.01c.02-.04.05-.07.05-.12a.4.4 0 0 0-.03-.16h.02a.3.3 0 0 1 .08.1c.02.05.03.15-.01.17a.12.12 0 0 1-.08.02v.02l.02.01.2.04.28.26.3.3.01.01v.02l-.07.07-.01.02v.02a2.78 2.78 0 0 1 .45.62.01.01 0 0 1-.01.01h-.02l-.02-.01-.04-.11a.03.03 0 0 0-.03-.02.47.47 0 0 1-.34-.13l-.35-.3a.62.62 0 0 0-.27-.13 7.87 7.87 0 0 1-.73-.56c.07-.1.05-.25-.1-.25-.07-.07-.19-.09-.29-.1-.21-.1-.45-.13-.69-.15-.15-.02-.3 0-.43.04a.05.05 0 0 0-.03.06c0 .04.02.1.04.14.03.08-.06.13-.12.15-.3.12-.63.14-.95.18-.26.04-.5.1-.75.22-.28.13-.57.26-.87.32A.65.65 0 0 1 7.16 8c-.04-.01-.07 0-.1.04l-.02.01c-.01.01-.02 0-.02-.01a1.11 1.11 0 0 1 .27-.23.02.02 0 0 0 0-.03h-.01a.46.46 0 0 1-.19-.2c-.09-.15.33-.38.46-.43h.02v.02c-.02.03-.03.06-.01.08a.04.04 0 0 0 .03.02c.13.02.26 0 .38 0l.23-.03c.27-.05.52-.12.76-.19.1-.03.15-.14.06-.2a1 1 0 0 0-.12-.09c-.02 0-.03 0-.02.02.04.1.01.15-.06.22a.2.2 0 0 1-.06.04c-.02 0-.03 0-.01-.02.06-.08.08-.15.07-.2a.16.16 0 0 0-.12-.12.92.92 0 0 0-.83.13.38.38 0 0 0-.16.16.26.26 0 0 0-.09.07l-.2.03c-.04 0-.06 0-.08-.03-.05-.06-.05-.11 0-.16.25-.2.46-.37.65-.48.29-.18.62-.28.98-.35.12-.03.2-.1.18-.23Z" fill="#FFF5F6"/><path d="m11.68 5.85.03.03a1.9 1.9 0 0 0 .18.67.03.03 0 0 0 .04 0l.06-.12v-.01a.02.02 0 0 1 .03 0l.01.02a18.02 18.02 0 0 1 .07.32.1.1 0 0 0 .05.03c.14.02.27.04.4 0h.02v.01l-.07.24c0 .03 0 .04.03.03a.3.3 0 0 0 .05-.04.04.04 0 0 1 .04 0 .04.04 0 0 1 .03.01l.17.36c.01.03.03.03.05 0a.23.23 0 0 0 .05-.09l.1-.19.08.27a.76.76 0 0 1-.2.22.04.04 0 0 1-.05 0h-.03l-.29-.25c.01-.02 0-.05-.02-.08l-.02-.02a.6.6 0 0 0-.04-.15l-.02-.02-.02.01a.3.3 0 0 0-.09-.1c0-.01 0-.01 0 0h-.02l-.01.01v.04c0-.04-.01-.07-.03-.1a2.75 2.75 0 0 1-.12-.12.48.48 0 0 0-.19-.1.56.56 0 0 0-.23-.03.26.26 0 0 0-.09-.03.3.3 0 0 1 .03 0c.05 0 .05-.01.02-.04a.82.82 0 0 1-.13-.1h.02v-.04a.28.28 0 0 1-.04-.2c.04-.18.06-.3.09-.34l.06-.1ZM6.1 6c.12.15.15.32.1.51a.76.76 0 0 1-.37.49.02.02 0 0 0 0 .02c.06.07.13.14.17.22.05.08 0 .16-.1.17a7.9 7.9 0 0 0-.18.02.03.03 0 0 0 0 .03c.09.2.13.43-.06.56-.15.1-.38.07-.54 0a1.08 1.08 0 0 0-.3-.05.03.03 0 0 0-.02.02V8l-.01.3h-.05a42.12 42.12 0 0 1-.18-.73 15.08 15.08 0 0 1-.18-.73c.1.15.17.3.26.46.04.07.1.16.18.25.06.1.16.2.27.29.04.03.05.02.05-.02a2.09 2.09 0 0 1-.03-.4.03.03 0 0 1 .02-.02h.02a5.93 5.93 0 0 0 .3.14.54.54 0 0 0-.07-.34v-.04a.01.01 0 0 1 .01 0l.28.05a.03.03 0 0 0 .02 0 .03.03 0 0 0 .01-.03c-.06-.25-.02-.53.05-.78.01-.04.03-.04.04 0 .04.09.09.16.15.22a.03.03 0 0 0 .03 0 .03.03 0 0 0 .02-.02l.06-.17c.04-.14.04-.29.06-.43Z" fill="#826158"/><path d="m11.63 6.67.1.03c-.18.07-.18.21-.05.32l.11.09.2.04c.09.02.17 0 .25-.06.02 0 .03 0 .04-.04V7h.03l.03.15c0 .05-.03.08-.05.12 0 .01-.02.02-.04.01-.11 0-.23-.03-.33-.07a4.4 4.4 0 0 1-.48-.26v-.02h.03v-.01a.19.19 0 0 1 .02-.23l.02-.01.12-.02Z" fill="#42281F"/><path d="M11.72 6.7a.48.48 0 0 1 .41.14h-.04a.05.05 0 0 0-.04.04.05.05 0 0 0 .01.04c.05.07.1.12.18.17a.3.3 0 0 1-.26.06 1.43 1.43 0 0 1-.19-.04.52.52 0 0 1-.1-.09c-.14-.11-.14-.25.03-.32Z" fill="#010101"/><path d="M8.69 6.8c.02.05 0 .08-.03.1l-.07-.01-.25-.04a.15.15 0 0 1-.09-.05.04.04 0 0 1 0-.05c.03-.04.07-.05.11-.05l.2.03c.05 0 .1.03.13.07ZM12 6.79l.01.01v.01a.07.07 0 0 1-.04.04.07.07 0 0 1-.05 0 .07.07 0 0 1-.05-.03.07.07 0 0 1 0-.06.02.02 0 0 1 .02-.01l.1.04ZM8.12 6.76a.02.02 0 0 1 .03 0v.02a.08.08 0 0 1 .02.06.08.08 0 0 1-.04.05.08.08 0 0 1-.06.01.08.08 0 0 1-.06-.03v-.01a.02.02 0 0 1 0-.04l.1-.06ZM12.14 6.83l.12.13c.02.02.03.05.02.09 0 .03-.02.05-.04.04a.62.62 0 0 1-.18-.17V6.9a.05.05 0 0 1 0-.04c.02 0 .02-.01.03-.02h.05Z" fill="#FFF5F6"/><path d="M11.3 7.08c-.11.02-.2 0-.32 0-.14-.01-.29-.04-.43-.07a.37.37 0 0 0-.2.02c-.06.03-.08.06-.06.11.03.1.14.11.23.16a.4.4 0 0 1-.11.04l-.11.03-.86.29c-.35.1-.69.2-1.02.34-.8.36-1.25.96-1.35 1.8a2.51 2.51 0 0 0 .99 2.32c.28.22.6.4.95.53a3.9 3.9 0 0 0 1.94.18 2.9 2.9 0 0 0 2.31-1.9c.16-.4.22-.82.2-1.24a1.8 1.8 0 0 0-.36-.98 3.2 3.2 0 0 0-.41-.47A7.45 7.45 0 0 1 12.4 8c.1.02.18.06.27.13l.35.3c.1.09.22.13.35.13a.03.03 0 0 1 .03.02l.04.11.02.02h.02a.01.01 0 0 0 0-.02.12.12 0 0 1-.01-.06l.23.46a.8.8 0 0 1 .06.23c.02.11.03.26.03.43l-.02.24a.61.61 0 0 1-.05.11.44.44 0 0 0-.04.12c-.08.34-.2.65-.36.94-.3.52-.7 1-1.2 1.43a2.92 2.92 0 0 1-2.18.74c-.43 0-.83-.1-1.2-.27-.26-.11-.5-.25-.78-.3l-.56-.1a1.84 1.84 0 0 1-.47-.14c-.3-.13-.53-.39-.69-.67a5 5 0 0 1-.3-.67.6.6 0 0 0-.08-.16 11.46 11.46 0 0 0 .26-.55c.03-.04.02-.05-.02-.02-.03.01-.06.02-.1 0-.21-.1-.08-.34.02-.48a1.79 1.79 0 0 1 .65-.6c-.08.03-.15.02-.22-.04-.16-.14-.13-.33-.03-.49a5.85 5.85 0 0 1 .59-.79c0 .02 0 .02.02.01l.02-.01c.03-.04.06-.05.1-.04.11.04.22.06.34.04.3-.06.59-.2.87-.32.25-.12.48-.18.75-.22.32-.04.65-.06.95-.18.06-.02.15-.07.12-.15l-.05-.14v-.04l.04-.02c.13-.04.28-.06.43-.04.24.02.48.06.69.15Z" fill="#E6D1CC"/><path d="M7.7 6.99v.1-.02l-.02-.01h-.02v.04h-.01c0-.03 0-.05-.03-.04a.26.26 0 0 1 .09-.07Z" fill="#AE918B"/><path d="M11.3 7.08c.1.01.22.03.3.1v.03l-.04-.02v.01c-.03.11-.15.1-.23.07-.08-.03-.23-.04-.24.07-.04 0-.07 0-.1-.02.01-.08-.15-.13-.21-.13-.11 0-.2 0-.29-.02-.06-.01-.11-.06-.14-.14a.37.37 0 0 1 .2-.02c.14.03.29.06.44.07.1 0 .2.02.31 0Z" fill="#C98C89"/><path d="M10.35 7.03c.03.08.08.13.14.14l.29.02c.06 0 .22.05.21.13-.02 0-.04 0-.05.04 0-.04-.02-.06-.03-.07-.05-.01-.06 0-.04.05.02.04.02.09.02.13a.02.02 0 0 1-.02.02.02.02 0 0 1-.01 0 .44.44 0 0 0-.21-.15l-.13-.04c-.09-.05-.2-.05-.23-.16-.01-.05 0-.08.06-.11Z" fill="#BC7573"/><path d="M12.53 7.36a1.42 1.42 0 0 0-.19-.04l-.03-.01.01-.02c.03 0 .05 0 .08-.02.04-.02.03-.12.01-.17h.04c.02.05.04.1.04.16l.02.02c.02.03.03.06.02.08Z" fill="#250E08"/><path d="m11.33 7.15-.3-.03a.03.03 0 0 0-.03.03c0 .02 0 .03.02.03l.3.03c.02 0 .04-.01.04-.03a.03.03 0 0 0-.03-.03ZM11.6 7.18c.14 0 .16.15.09.25a.29.29 0 0 1-.12-.1.15.15 0 0 0 .03-.13v-.02Z" fill="#E6D1CC"/><path d="M11.6 7.2c0 .05 0 .1-.03.14a.22.22 0 0 1-.12.07c-.1.02-.2.06-.28.13-.03.02-.04.02-.03-.02a.4.4 0 0 1 .1-.18.01.01 0 0 0-.01-.01l-.04-.01a.07.07 0 0 0-.05.03.09.09 0 0 1-.03.03c0-.02 0-.03-.02-.04.01-.1.16-.1.24-.07.08.03.2.04.22-.07h.05Z" fill="#BC7573"/><path d="m10.94 7.36-.03.27c0 .03-.02.05-.05.04a3.93 3.93 0 0 0-2.08.37c-.42.2-.76.5-1.02.88-.31.46-.46.94-.43 1.46a2.48 2.48 0 0 0 .71 1.44l.24.2a3.34 3.34 0 0 0 2.45.73 3.1 3.1 0 0 0 1.34-.5l.26-.21a2.84 2.84 0 0 0 .58-.72c.48-.83.44-1.8-.14-2.57a2.58 2.58 0 0 0-1.7-1.07.03.03 0 0 1 0-.02l.05-.28.02-.03a.07.07 0 0 1 .05-.03h.04a.01.01 0 0 1 0 .02.4.4 0 0 0-.1.18c0 .04 0 .04.04.02.08-.07.17-.1.28-.13.04 0 .08-.03.12-.07.02.03.06.06.12.09.11.1.22.2.33.28l.4.28.27.25c.13.12.26.27.41.47.21.28.33.61.36.98.03.42-.04.83-.2 1.25a2.96 2.96 0 0 1-2.31 1.89 3.9 3.9 0 0 1-2.9-.71 2.51 2.51 0 0 1-.99-2.32c.11-.84.56-1.45 1.36-1.8.33-.14.67-.24 1.02-.34.29-.09.57-.2.86-.3l.11-.02a.4.4 0 0 0 .11-.04c.04 0 .08.02.13.04.09.03.15.08.2.14a.02.02 0 0 0 .02 0h.01c.01-.05 0-.1-.01-.14-.02-.05 0-.06.04-.05l.03.07Z" fill="#AE918B"/><path d="M11 7.32c.02.02.05.02.09.02l.03.04-.05.28a.03.03 0 0 0 0 .02.03.03 0 0 0 .02.01c.68.1 1.28.52 1.68 1.06a.07.07 0 0 1-.05.03h-.02v.1c.05.16-.04.33-.18.42a.68.68 0 0 1-.28.1c-.22.02-.43 0-.64-.06a4.71 4.71 0 0 0-.74-.15c-.32.04-.62.14-.9.3a12.27 12.27 0 0 1-.84.41c-.13.05-.26.08-.39.11a.06.06 0 0 1-.05 0c-.22-.12-.45-.2-.7-.25a.05.05 0 0 1-.04-.03 1.38 1.38 0 0 1-.14-.36c-.01-.1-.02-.21 0-.34 0-.03-.01-.05-.03-.06l-.01-.02v-.03c.26-.38.6-.67 1.02-.88a3.93 3.93 0 0 1 2.08-.37c.03 0 .05 0 .05-.04l.03-.27c0-.03.03-.04.05-.04Z" fill="#250E08"/><path d="M13.1 7.4a5.78 5.78 0 0 0 .2.45c.14.26.26.56.36.88.04.13.05.25.05.35l-.23-.46a2.78 2.78 0 0 0-.43-.58v-.02l.08-.07v-.04l-.3-.3h.02a.04.04 0 0 0 .06 0 .76.76 0 0 0 .19-.22Z" fill="#774C46"/><path d="M5.43 10.93a7.67 7.67 0 0 1-.59-2.15c.08.03.14.03.2.01.17-.06.21-.22.11-.36v-.01h.03a.7.7 0 0 0 .41.17c.18 0 .29-.12.38-.26a14 14 0 0 1 .3-.45 3.77 3.77 0 0 1-.4 1.35v.09l-.1.18a1.8 1.8 0 0 0-.28.88c0 .07.05.09.1.1.02 0 .03.02.02.03-.03.16-.09.26-.18.42Z" fill="#683B36"/><path d="M12.77 8.75c.58.77.62 1.74.14 2.57-.03-.01-.03-.05-.02-.12.06-.2.02-.37-.06-.56-.02-.07-.08-.1-.15-.06a.52.52 0 0 0-.1.06c-.36.24-.7.48-1.07.7-.27.15-.61.28-.93.3-.29.03-.56 0-.83-.07a3.68 3.68 0 0 1-1.21-.65 44.9 44.9 0 0 1-.5-.4.53.53 0 0 0-.17-.09c-.03 0-.04 0-.06.02a.7.7 0 0 0-.06.19 1.7 1.7 0 0 0-.02.52 6.12 6.12 0 0 1 0 .3 2 2 0 0 1-.4-1.08c-.03-.52.12-1 .43-1.46v.05c.03.01.04.03.04.06-.02.13-.01.24 0 .34a1.38 1.38 0 0 0 .14.36c.01.02.02.03.04.03a2.46 2.46 0 0 1 .73.26h.02l.4-.12a4.6 4.6 0 0 0 .83-.42c.28-.15.58-.25.9-.3l.11.01a4.72 4.72 0 0 1 .63.15c.2.07.42.08.64.06.1-.02.19-.05.28-.1.14-.1.23-.26.18-.43V8.8l.02-.01c.02 0 .03-.01.05-.03Z" fill="#3C1A18"/><path d="M13.78 9.98c0 .18-.03.36-.06.55a3.5 3.5 0 0 1-.9 1.92c-.4.44-.9.8-1.47 1.05a5.53 5.53 0 0 1-3.46 0 4.13 4.13 0 0 1-2.3-2.22.56.56 0 0 0 .18-.14l.1-.13.08.16a5 5 0 0 0 .3.67c.16.28.4.54.7.67.13.07.29.11.46.14l.56.1c.28.05.52.19.77.3a3.6 3.6 0 0 0 2.3.14c.4-.12.76-.32 1.1-.6.49-.44.89-.92 1.19-1.44.16-.3.28-.6.36-.94l.04-.12a.6.6 0 0 0 .05-.11Z" fill="#CBB2AD"/><path d="M13.95 10.27a6.16 6.16 0 0 0-.08.57 3.67 3.67 0 0 1-.92 1.77 4.5 4.5 0 0 1-1.6 1.1 2.88 2.88 0 0 1-1 .23l.4-.06a4.52 4.52 0 0 0 1.8-.91c.1-.08.19-.18.28-.27l.11-.11a3.75 3.75 0 0 0 .97-2.12.5.5 0 0 1 .04-.2Z" fill="#826158"/><path d="M12.91 11.32a2.84 2.84 0 0 1-.58.72c-.01 0-.02-.01-.02-.03l.01-.03c.06-.08.1-.19.11-.3 0-.1-.05-.16-.11-.21a.17.17 0 0 0-.2-.01c-.43.27-.9.44-1.4.52-.11.02-.23.03-.35.03a3.05 3.05 0 0 1-1.39-.27 7.13 7.13 0 0 1-.8-.43c-.12-.07-.28-.06-.27.11.01.08.03.15.06.2a5.5 5.5 0 0 0 .12.21h-.04a2.48 2.48 0 0 1-.31-.37c.02 0 .03 0 .03-.02s0-.04-.02-.06v-.02l-.02-.2c-.02-.18-.01-.33.02-.52a.7.7 0 0 1 .06-.19c.02-.02.03-.03.06-.02.06.02.11.05.16.09l.5.4c.37.28.78.52 1.22.65.26.07.54.1.83.08.32-.03.66-.16.93-.31.38-.22.71-.46 1.06-.7a.52.52 0 0 1 .1-.06c.08-.03.14-.01.16.06.08.2.12.35.06.56-.01.07 0 .1.02.12Z" fill="#4E1E1E"/><path d="m12.33 12.04-.26.2a.27.27 0 0 0-.1-.06.46.46 0 0 0-.23 0c-.17.05-.34.08-.51.1l-.85.1c-.24.02-.52.02-.83 0a2.88 2.88 0 0 1-1.12-.3l-.1-.04-.02-.01c0-.01-.02-.02-.03 0l-.23-.2h.04v-.02a5.43 5.43 0 0 1-.12-.2.46.46 0 0 1-.06-.19c-.01-.17.15-.18.26-.11.29.18.56.32.81.43a3.05 3.05 0 0 0 1.4.27c.1 0 .23 0 .34-.03.5-.08.97-.25 1.4-.52a.17.17 0 0 1 .2 0c.06.06.12.13.11.21a.58.58 0 0 1-.11.31l-.01.03c0 .02 0 .03.02.03Z" fill="#683B36"/><path d="M8.28 12.02h.03l.02.02.1.03c.36.19.73.29 1.12.31.31.02.59.02.83 0a29.44 29.44 0 0 0 1.36-.2.47.47 0 0 1 .23 0c.02 0 .06.03.1.07a2.88 2.88 0 0 1-1.34.5 3.96 3.96 0 0 1-.96-.03 3.34 3.34 0 0 1-1.5-.7Z" fill="#7E4140"/></svg>