<!-- by TradingView --><svg width="18" height="18" viewBox="0 0 18 18" xmlns="http://www.w3.org/2000/svg"><path fill="url(#a)" d="M0 0h18v18H0z"/><path d="m9.4 9.74-.02-.02a.04.04 0 0 0-.04-.01h-.02l-.06.09a.89.89 0 0 1-.38.3c-.26.1-.5.09-.71-.04a.9.9 0 0 1-.4-.58 1 1 0 0 1 .04-.64c.08-.2.22-.37.42-.5.44-.29.91-.32 1.44-.1.42.17.71.48.89.9.17.42.18.85.03 1.28-.14.41-.38.75-.72 1.01a2.58 2.58 0 0 1-2.52.3A2.7 2.7 0 0 1 5.7 9.7c-.08-.43-.05-.87.08-1.31a3.16 3.16 0 0 1 1.78-2 3.9 3.9 0 0 1 3.05.01 3.5 3.5 0 0 1 2.02 2.23c.13.42.2.82.19 1.18a4.13 4.13 0 0 1-2.8 3.89 4.82 4.82 0 0 1-6.51-4.78c.07-1.1.44-2.06 1.1-2.87a5.4 5.4 0 0 1 3.47-1.97c.8-.11 1.57-.1 2.33.06 1.27.26 2.33.9 3.18 1.91A6.04 6.04 0 0 1 15 9.47l-.03.03a.86.86 0 0 1-.72.07.98.98 0 0 1-.54-.48 4.4 4.4 0 0 0-2.1-3.16 4.71 4.71 0 0 0-3.33-.69c-1.23.2-2.17.79-2.83 1.77a3.92 3.92 0 0 0-.69 1.98 3.54 3.54 0 0 0 2.2 3.52c.74.31 1.52.36 2.32.16a2.95 2.95 0 0 0 2.14-3.79 2.38 2.38 0 0 0-1.58-1.46c-.67-.23-1.3-.2-1.88.1-.6.32-.95.82-1.03 1.5a1.52 1.52 0 0 0 1.27 1.7c.32.04.62-.03.88-.2.28-.2.4-.46.33-.78Z" fill="#fff"/><defs><linearGradient id="a" x1="3.35" y1="3.12" x2="21.9" y2="24.43" gradientUnits="userSpaceOnUse"><stop stop-color="#1A1E21"/><stop offset="1" stop-color="#06060A"/></linearGradient></defs></svg>