<!-- by TradingView --><svg width="18" height="18" viewBox="0 0 18 18" xmlns="http://www.w3.org/2000/svg"><path fill="#F0F3FA" d="M0 0h18v18H0z"/><path d="M9 4v3.73L6.04 9.1 9 4ZM6.38 8.8l2.48-1.17V4.51L6.38 8.79ZM3 5.62l1.94 3.02-1.65 2.75L3 5.63Zm.16.5.24 4.81 1.37-2.28-1.6-2.52ZM9 7.82v3.15L6.06 9.13 9 7.81ZM6.36 9.15l2.5 1.56V8.02l-2.5 1.13ZM5 8.72l1.7 2.65-3.42.13 1.72-2.78Zm0 .26-1.46 2.37 2.92-.12L5 8.98Zm1.14.75.1-.1L9 11.39V14L6.15 9.73Zm.3.2 2.41 3.62v-2.08L6.45 9.93Zm.52 1.74 1.4 2.25-4.65-1.9.02-.14 3.23-.21ZM4.06 12l3.97 1.62-1.13-1.81-2.84.19Z" fill="#3D3D31"/><path d="M9.15 7.69V4.02l2.72 4.94-2.72-1.27Z" fill="url(#atpysccur)"/><path d="M9.15 10.96V7.92l2.72 1.23-2.72 1.8Z" fill="url(#btpysccur)"/><path d="M9.15 13.99v-2.56l2.72-1.73-2.72 4.29Z" fill="url(#ctpysccur)"/><path d="m14.33 11.96-4.45 1.82 1.27-2.03 3.18.21Z" fill="url(#dtpysccur)"/><path d="m14.62 11.43-3.13-.12 1.57-2.35 1.56 2.47Z" fill="url(#etpysccur)"/><path d="m15 5.9-1.78 2.76 1.52 2.52.26-5.29Z" fill="url(#ftpysccur)"/><defs><linearGradient id="atpysccur" x1="12.07" y1="4.26" x2="12.07" y2="13.78" gradientUnits="userSpaceOnUse"><stop stop-color="#272823"/><stop offset=".53" stop-color="#69695C"/></linearGradient><linearGradient id="btpysccur" x1="12.07" y1="4.26" x2="12.07" y2="13.78" gradientUnits="userSpaceOnUse"><stop stop-color="#272823"/><stop offset=".53" stop-color="#69695C"/><stop offset="1" stop-color="#535249"/></linearGradient><linearGradient id="ctpysccur" x1="12.07" y1="4.26" x2="12.07" y2="13.78" gradientUnits="userSpaceOnUse"><stop offset=".53" stop-color="#69695C"/><stop offset="1" stop-color="#535249"/></linearGradient><linearGradient id="dtpysccur" x1="12.07" y1="4.26" x2="12.07" y2="13.78" gradientUnits="userSpaceOnUse"><stop offset=".53" stop-color="#69695C"/><stop offset="1" stop-color="#535249"/></linearGradient><linearGradient id="etpysccur" x1="12.07" y1="4.26" x2="12.07" y2="13.78" gradientUnits="userSpaceOnUse"><stop offset=".53" stop-color="#69695C"/><stop offset="1" stop-color="#535249"/></linearGradient><linearGradient id="ftpysccur" x1="12.07" y1="4.26" x2="12.07" y2="13.78" gradientUnits="userSpaceOnUse"><stop stop-color="#272823"/><stop offset=".53" stop-color="#69695C"/><stop offset="1" stop-color="#535249"/></linearGradient></defs></svg>