<!-- by TradingView --><svg width="18" height="18" viewBox="0 0 18 18" xmlns="http://www.w3.org/2000/svg"><path fill="url(#ayxy2sylv)" d="M0 0h18v18H0z"/><path d="m10 5-2 .01V10l1 .5 1-.5V5ZM6 7H4l.53 2.93c.02.08.07.15.14.2l1.02.62c.2.1.31.3.31.5V13l2 1v-2.4l-1.28-.72a.56.56 0 0 1-.3-.39L6 7ZM10 14v-2.4l1.28-.72a.56.56 0 0 0 .3-.39L12 7h2l-.53 2.93a.28.28 0 0 1-.14.2l-1.02.62c-.2.1-.31.3-.31.5V13l-2 1Z" fill="#ED1651"/><defs><linearGradient id="ayxy2sylv" x1="3.35" y1="3.12" x2="21.9" y2="24.43" gradientUnits="userSpaceOnUse"><stop stop-color="#1A1E21"/><stop offset="1" stop-color="#06060A"/></linearGradient></defs></svg>