<!-- by TradingView --><svg width="18" height="18" viewBox="0 0 18 18" xmlns="http://www.w3.org/2000/svg"><path fill="#F0F3FA" d="M0 0h18v18H0z"/><path d="M9 15H6.52v-.41h-.9v-.46h-.42v-.5h-.45v-.47h-.48v-.43h-.45v-.49h-.47v-.87H3V6.75h.36v-.94h.47v-.46h.45v-.49h.48V4.4h.45v-.46h.43v-.43h.89V3H11.47v.5h.9v.44h.42v.46h.45v.46h.48v.49h.45v.46h.47v.94H15v4.62h-.36v.87h-.47v.49h-.45v.43h-.48v.46h-.45v.5h-.43v.47h-.89V15H9Z" fill="url(#auwovzrsb)"/><path d="M6.71 3.35h4.77v.45h.9v.47h.44v.46h.44v.5h.47v.49h.47v.96h.45v4.66h-.45v.96h-.47v.5h-.47v.47h-.44v.46h-.45v.47h-.89v.45H6.71v-.45h-.94v-.47h-.48v-.46h-.47v-.47h-.5v-.5h-.5v-.96h-.47V6.68h.48v-.96h.5v-.5h.5v-.49h.46v-.46h.48V3.8h.94v-.45Z" fill="#F6D447"/><path d="M11.13 5.04H6.68L4.9 6.76l-.14 3.68 1.92 2.7 4.31.09 2.37-2.6V7.58l-2.23-2.53Z" fill="#AD7036"/><path d="M11.54 4.41h-1v.65l.51.1v.66h.49v.42H12v.45h.43v.49h.45v2.88l-.45 1.21H12v.5h-.46v.47h-.49v.39H6.72l.22.96h4.6v-.51H12v-.45h.43v-.4h.5v-.47h.4v-.49h.61V6.7h-.62v-.45h-.38v-.42h-.5v-.49H12v-.49h-.46v-.43Z" fill="#FAF050"/><path d="M6.55 4.88v-.47h4.04v.47h.46v.4H6.88v.54h-.35v.36h-.47v.53h-.45v.43h-.44v.79l.44 3.38h.45v.4h.47v.48h.35v.99h.7v.4H6.56v-.4h-.49v-.5h-.45v-.49h-.5v-.49h-.35v-.4h-.7V6.72h.66v-.47h.45v-.5h.44v-.46h.45v-.4h.49Z" fill="#F3B53F"/><path fill-rule="evenodd" d="M4.41 7.41V11h1.06V9.55h1.41v-.37h.36V7.74h-.36v-.33H4.41Zm2.02.65h-.87v.8h.87v-.8Z" fill="#A24E28"/><path d="M7.59 11V7.36h2.47v.36h.35v1.1h-.35v.73h.35V11H9.35V9.55h-.7V11H7.59Zm1.75-2.94H8.6v.82h.74v-.82ZM11.82 7.36h-1.06V11h2.83v-.7h-1.77V7.35Z" fill="#A24E28"/><path fill-rule="evenodd" d="M4.41 7v3.64h1.06V9.18h1.41v-.36h.36V7.36h-.36V7H4.41Zm1.77.73h-.7v.72h.7v-.72ZM7.58 7h2.48v.36h.35v1.1h-.35v.72h.35v1.46H9.35V9.18h-.7v1.46H7.59V7Zm1.77.73h-.7v.72h.7v-.72ZM10.77 7h1.05v3h1.77v.64H10.77V7Z" fill="url(#buwovzrsb)"/><defs><linearGradient id="auwovzrsb" x1="9" y1="3" x2="9" y2="15" gradientUnits="userSpaceOnUse"><stop stop-color="#CA9348"/><stop offset="1" stop-color="#865227"/></linearGradient><linearGradient id="buwovzrsb" x1="9.11" y1="7" x2="9.11" y2="10.62" gradientUnits="userSpaceOnUse"><stop stop-color="#FFFAB5"/><stop offset="1" stop-color="#F9D15A"/></linearGradient></defs></svg>