<!-- by TradingView --><svg width="18" height="18" viewBox="0 0 18 18" xmlns="http://www.w3.org/2000/svg"><path fill="#F0F3FA" d="M0 0h18v18H0z"/><path d="M12.35 13.98a5.97 5.97 0 0 1-6.75-.04l1-.94h4.7l1.05.98ZM13.7 10l.94 1.05c-.34.94-.91 1.77-1.64 2.42h-.61L10.2 11H7.73l-2.2 2.47H5a6.01 6.01 0 0 1-1.64-2.43L4.29 10h9.4ZM6 6h6l-1.51-2H7.5L6 6Zm4.89 1h-3.8l-3.1 3h-.9a6 6 0 1 1 11.83 0h-.93l-3.1-3Z" fill="url(#a)"/><defs><linearGradient id="a" x1="13.33" y1="5.23" x2="4.16" y2="12.05" gradientUnits="userSpaceOnUse"><stop stop-color="#FFE671"/><stop offset="1" stop-color="#FFB96C"/></linearGradient></defs></svg>