<!-- by TradingView --><svg width="18" height="18" viewBox="0 0 18 18" xmlns="http://www.w3.org/2000/svg"><path fill="url(#a)" d="M0 0h18v18H0z"/><path d="M10.81 7c.16 0 .24.08.25.22v.3c0 .18.06.23.22.23h.48c.16 0 .24.14.24.33v1.18c0 .17-.12.24-.38.24h-.34c-.14.01-.22.1-.22.26v.21c0 .19-.09.28-.27.28H8.26c-.2 0-.32.06-.32.18v.36c-.01.14-.1.2-.31.2h-.15c-.16.01-.28 0-.34-.02-.1-.04-.14-.12-.14-.26V7.56c0-.19.02-.32.06-.38.08-.12.21-.17.42-.17h3.33Zm-2.55.75c-.18 0-.32.12-.32.28v1.2c0 .15.14.27.32.27h2.48c.18 0 .32-.12.32-.27v-1.2c0-.16-.14-.28-.32-.28H8.26Z" fill="#F4F4F4"/><path d="M8.67 4.16c.37-.12.65-.17.85-.16.33.03.64.13.93.3l.31.2.1.02c.6-.09 1.1.01 1.47.3.3.22.47.52.51.89a.14.14 0 0 0 .07.1c.29.17.48.39.57.67.07.2.1.5.09.89 0 .03.02.1.07.2.15.3.19.62.13.93-.02.06-.01.13 0 .18l.17.57c.12.42.05.82-.2 1.21l-.37.44c-.13.16-.24.39-.33.68-.09.3-.2.53-.32.69-.15.18-.36.3-.64.39-.12.04-.24.1-.35.17-.3.21-.71.3-1.25.24a.16.16 0 0 0-.13.04l-.47.43c-.53.47-1.06.58-1.6.33-.11-.05-.23-.11-.36-.2a.44.44 0 0 0-.12-.06l-.08-.02c-.12-.03-.2-.06-.26-.09a2.49 2.49 0 0 1-.65-.5.14.14 0 0 0-.12-.03c-.17.02-.3.02-.39 0-.9-.2-1.34-.62-1.3-1.25l.01-.23a.26.26 0 0 0-.03-.12c-.18-.3-.23-.57-.17-.83a.1.1 0 0 0-.03-.1c-.22-.17-.41-.46-.6-.86a2.1 2.1 0 0 1 .14-1.96 49.84 49.84 0 0 1 .58-1.06.1.1 0 0 0 0-.04 1.02 1.02 0 0 1-.05-.6c.12-.41.44-.68.94-.78a.21.21 0 0 0 .12-.07c.63-.75 1.36-1.07 2.18-.96l.43.06.15-.01Zm1.05 8.86c-.31-.04-.73.1-1.25.41a.03.03 0 0 0-.02.03.03.03 0 0 0 .02.02c.43.16.85.02 1.26-.41a.03.03 0 0 0 .01-.03v-.01l-.02-.01ZM8.44 4.61c-.06 0-.11 0-.16.02a6.7 6.7 0 0 0-.99.56c-.23.16-.56.23-.99.2a.1.1 0 0 0-.04 0 .26.26 0 0 0-.11.1 23.98 23.98 0 0 0-.82 1.28v.06c.15.42.09.83-.17 1.21-.06.1-.2.29-.43.55-.12.14-.13.29-.03.43.05.07.16.16.31.27.14.1.24.18.28.24.09.1.12.23.1.36-.01.05-.04.13-.1.24a2.18 2.18 0 0 0-.03.08.04.04 0 0 0 .03.03c.13.05.22.14.28.28.05.12.06.25.04.4l-.12.49a.13.13 0 0 0 .05.13l.03.03a8.34 8.34 0 0 1 1.14.92c.02.01.05.02.07.01.43-.03.85.2 1.29.7a.12.12 0 0 0 .13.03l.6-.3c.3-.16.7-.22 1.2-.18.04 0 .07 0 .1-.02l.25-.2c.18-.13.4-.22.64-.26.15-.02.38-.02.7-.01h.08a.1.1 0 0 0 .1-.08c.1-.37.22-.64.4-.8l.39-.28a.47.47 0 0 0 .11-.1c.2-.26.33-.49.4-.69.06-.17.03-.42-.08-.73a5.4 5.4 0 0 1-.02-.08.76.76 0 0 1-.02-.43 2.83 2.83 0 0 1 .22-.53c.07-.15.1-.28.08-.4a1.36 1.36 0 0 0-.3-.67 2.62 2.62 0 0 1-.65-1.57l-.03-.01a5.8 5.8 0 0 1-1-.46 7.73 7.73 0 0 1-.5-.45h-.08c-.45.1-.8.1-1.02-.03-.24-.13-.6-.23-1.1-.3l-.23-.04Zm2.79 8.08-.34.06a.02.02 0 0 0-.02.02c0 .02.02.03.03.02l.34-.06.02-.02a.02.02 0 0 0-.03-.02Zm-5.75-.81h-.02a.02.02 0 0 0 0 .03c.07.28.33.47.78.59l.01-.01v-.02a6.02 6.02 0 0 0-.77-.6Zm7.08-.35c-.04-.02-.14.1-.24.25-.1.17-.15.32-.12.34.04.02.15-.1.24-.26.1-.16.15-.31.12-.33Zm-7.44-.88c-.03 0-.04.08-.04.17 0 .1.02.17.04.17s.04-.08.04-.17c0-.1-.02-.17-.04-.17ZM4.6 9.36H4.6a.01.01 0 0 0 0 .02 3.16 3.16 0 0 0 .38.63.06.06 0 0 0 .06 0l.02-.04.03-.12a.17.17 0 0 0-.06-.18l-.42-.3Zm8.94-.33a.03.03 0 0 0-.03.02c-.04.15-.03.3.02.43a1.67 1.67 0 0 1 .11.43.01.01 0 0 0 .01 0c.07-.17.04-.44-.06-.8l-.02-.06a.03.03 0 0 0-.03-.02ZM5.1 7.18l-.02.01a5.35 5.35 0 0 0-.56 1.18h.01l.1-.12c.17-.2.3-.36.35-.47a1.07 1.07 0 0 0 .13-.6Zm8.08-.64c-.1-.2-.2-.36-.25-.34-.04.02 0 .2.1.4.09.21.2.37.24.35.04-.02 0-.2-.1-.41Zm-7.63-1H5.5a.29.29 0 0 0-.08.05 1.23 1.23 0 0 0-.17.2l-.01.02a1.23 1.23 0 0 0-.12.23.28.28 0 0 0-.02.09c0 .02 0 .04.02.04h.02l.42-.61v-.01h-.01Zm5.76-.61h-.01a.02.02 0 0 0 0 .02v.01c.16.16.31.29.47.37a2.24 2.24 0 0 0 .57.21v-.02a1.13 1.13 0 0 0-1.03-.6Zm-3.58-.39a1.93 1.93 0 0 0-1.2.54.03.03 0 0 0 .02.04c.21.01.47-.09.79-.3l.01-.01c.04-.03.1-.07.19-.11a1.36 1.36 0 0 0 .21-.14.02.02 0 0 0-.02-.02Zm1.97-.22c-.17-.05-.27-.07-.27-.05l.06.05.18.09a8.52 8.52 0 0 0 .62.25h.01l.05-.1v-.01h-.01c-.24-.1-.47-.17-.64-.23Z" fill="url(#b)"/><defs><linearGradient id="a" x1="3.35" y1="3.12" x2="21.9" y2="24.43" gradientUnits="userSpaceOnUse"><stop stop-color="#1A1E21"/><stop offset="1" stop-color="#06060A"/></linearGradient><linearGradient id="b" x1="12.83" y1="6.18" x2="7.69" y2="13.3" gradientUnits="userSpaceOnUse"><stop stop-color="#E50AF5"/><stop offset="1" stop-color="#482BA8"/></linearGradient></defs></svg>