<!-- by TradingView --><svg width="18" height="18" viewBox="0 0 18 18" xmlns="http://www.w3.org/2000/svg"><path fill="#515BE7" d="M0 0h18v18H0z"/><path fill-rule="evenodd" d="m13.38 8.08.1.84.03.03.38.07c.03 0 .06.03.08.05.02.02.03.06.03.09 0 .17-.19.17-.36.17h-.12c-.03 0-.04.02-.05.05l-.2.92c0 .03 0 .05.04.06l.28.13c.08.04.12.1.1.19-.02.1-.08.14-.18.11l-.33-.07c-.02 0-.04 0-.05.02l-.5.82.01.06.28.26.04.08c0 .03 0 .05-.03.08l-.01.02a.17.17 0 0 1-.22.04l-.3-.18c-.03-.02-.06-.01-.08.02-.16.2-.38.4-.68.62-.02.01-.03.04-.02.06l.16.32c.04.08.03.14-.04.2-.07.04-.13.04-.19-.02l-.25-.25a.08.08 0 0 0-.1-.01l-.85.38c-.02.01-.03.03-.02.06l.05.3c.02.1-.02.17-.11.2-.1.02-.16-.02-.2-.1l-.14-.32c-.01-.03-.03-.04-.07-.03a3.54 3.54 0 0 1-.97.13.05.05 0 0 0-.02.03v.1c-.02.13-.04.33-.15.38a.1.1 0 0 1-.08 0c-.13-.04-.14-.24-.15-.39v-.1l-.04-.02-.96-.2h-.03l-.01.02-.2.33a.14.14 0 0 1-.1.07.15.15 0 0 1-.1-.02c-.07-.04-.1-.1-.07-.2a3.63 3.63 0 0 0 .07-.33l-.84-.47a.1.1 0 0 0-.11.01l-.22.22c-.1.08-.21.07-.27-.04a.12.12 0 0 1 0-.11l.2-.32c.02-.03.01-.06-.01-.08l-.68-.66a.07.07 0 0 0-.08 0H5c-.13.1-.43.27-.48.03a.1.1 0 0 1 0-.05.1.1 0 0 1 .03-.05l.27-.26c.03-.03.04-.06.02-.1l-.21-.43c-.03-.06-.07-.06-.11 0l-.61.77a.11.11 0 0 1-.07.04.23.23 0 0 1-.25-.1 3.08 3.08 0 0 1-.58-2.23.17.17 0 0 1 .1-.14.19.19 0 0 1 .16 0l.92.36c.04.02.06 0 .06-.04l-.06-.43-.01-.03a.06.06 0 0 0-.04-.02h-.06c-.18-.02-.45-.04-.41-.24a.1.1 0 0 1 .04-.06c.06-.05.18-.07.35-.06.09 0 .14-.03.15-.11l.2-.86c0-.03-.01-.05-.04-.06a2.66 2.66 0 0 0-.27-.14c-.12-.05-.16-.12-.13-.2a.14.14 0 0 1 .08-.09.22.22 0 0 1 .13 0l.33.06h.02l.02-.02.49-.8-.01-.06a2.74 2.74 0 0 0-.1-.1c-.14-.14-.3-.27-.14-.4a.13.13 0 0 1 .15-.01l.32.18a.09.09 0 0 0 .1-.01l.68-.65a.04.04 0 0 0 0-.06l-.03-.05c-.09-.15-.23-.38-.03-.45.05-.02.1 0 .14.03l.3.29h.02l.88-.4.02-.02v-.02l-.04-.38c0-.03 0-.06.02-.09a.14.14 0 0 1 .08-.05c.1-.03.15 0 .2.1l.14.3c0 .02.02.03.05.03l.96-.11c.03 0 .04-.02.04-.04l.05-.33c.02-.1.07-.15.17-.14h.01c.1 0 .14.06.15.17l.02.3c0 .03.01.04.04.05l.94.19h.03l.02-.02.2-.34c.04-.06.1-.08.16-.06l.04.02c.07.02.1.07.08.14l-.08.36v.02l.02.02.85.48a.04.04 0 0 0 .05-.01l.28-.28a.13.13 0 0 1 .1-.04.14.14 0 0 1 .1.05c.11.14-.04.34-.13.46l-.03.03-.01.04a4.1 4.1 0 0 1 .7.77c.03.03.04.02.06 0a.26.26 0 0 0 .01-.1.1.1 0 0 1 .03-.07c.15-.17.32-.2.52-.07.2.12.18.64.12.86 0 .03 0 .05.03.06.24.16.64.57.44.86-.09.13-.2.18-.35.15-.03-.01-.05 0-.04.04ZM7.84 9.7c0 .03.02.04.04.04a3.43 3.43 0 0 0 1.64-.78l.18-.19.12-.13a.12.12 0 0 1 .08-.04 7.65 7.65 0 0 0 1.99-.51 2.53 2.53 0 0 0 .68-.4.03.03 0 0 1 .03 0v.01c.31.9.3 1.78-.02 2.62a4.04 4.04 0 0 1-6.1 1.76A3.8 3.8 0 0 1 4.9 9.65a.1.1 0 0 1 .01-.07 7.42 7.42 0 0 1 2.96-.95.05.05 0 0 1 .02.04l-.06 1.04Zm2.76-2.28c.14.09.3.12.46.1a.6.6 0 0 0 .4-.25.57.57 0 0 0 .08-.44.6.6 0 0 0-.26-.38.64.64 0 0 0-.45-.1.6.6 0 0 0-.4.25.57.57 0 0 0-.09.44.6.6 0 0 0 .26.38Z" fill="#fff"/><path d="M10.65 7c.03.16.2.26.36.24a.28.28 0 0 0 .23-.34.33.33 0 0 0-.36-.24.28.28 0 0 0-.23.33ZM6.06 10.48a.3.3 0 0 0 .3-.3.3.3 0 0 0-.3-.29.3.3 0 0 0-.31.3c0 .16.14.3.3.3ZM11.25 10.48a.3.3 0 0 0 .3-.3.3.3 0 0 0-.3-.29.3.3 0 0 0-.3.3c0 .16.13.3.3.3ZM9.72 10.48a.3.3 0 0 0 .3-.3.3.3 0 0 0-.3-.29.3.3 0 0 0-.3.3c0 .16.13.3.3.3ZM8.65 11.07c.09 0 .16-.06.16-.15a.15.15 0 0 0-.16-.14.15.15 0 0 0-.15.14c0 .09.07.15.15.15ZM6.97 11.37a.3.3 0 0 0 .3-.3.3.3 0 0 0-.3-.3.3.3 0 0 0-.3.3c0 .16.13.3.3.3ZM10.49 11.66c.08 0 .15-.07.15-.15a.15.15 0 0 0-.15-.14.15.15 0 0 0-.16.14c0 .08.07.15.16.15ZM9.11 12.25a.3.3 0 0 0 .3-.3.3.3 0 0 0-.3-.29.3.3 0 0 0-.3.3c0 .16.13.29.3.29ZM7.89 12.25a.3.3 0 0 0 .3-.3.3.3 0 0 0-.3-.29.3.3 0 0 0-.3.3c0 .16.13.29.3.29Z" fill="#fff"/></svg>