<!-- by TradingView --><svg width="18" height="18" viewBox="0 0 18 18" xmlns="http://www.w3.org/2000/svg"><path fill="#F0F3FA" d="M0 0h18v18H0z"/><path d="M4 4h10v10H4V4Z" fill="url(#ackd4zdtx)"/><path d="m8.83 4.67.3.1-.02.01c-.01 0-.02 0-.01.02v.02c0 .02.01.03.03.03.04.01.07.02.1.05l.11.04c.1.01.2.04.27.07.05.02.06.06.04.11a.04.04 0 0 1-.04.03H9.6c-.03 0-.03.01 0 .02l.15.01.04.02a.67.67 0 0 1 .2.22.01.01 0 0 0 .02 0L10 5.4h.04l.04.07.09.15c.12.12.18.27.18.44 0 .02.01.03.03.03l.1.05.01.02.02.02c.03 0 .05.02.06.05l-.04.03a212.92 212.92 0 0 0-.59-.02.41.41 0 0 0-.11-.02.63.63 0 0 1-.16-.04 2.3 2.3 0 0 0-.23-.06 4.06 4.06 0 0 0-2.08-.55 1.53 1.53 0 0 0-.22-.02l-.23-.02.24-.25.34-.22.5-.29h.1l.04-.02c.06-.05.1-.01.17-.04.01 0 .02 0 .02-.02l.05-.02h.45Z" fill="#F3AE03"/><path d="M9.13 4.76c.13.06.32.09.57.1.21.02.4.11.55.28.13.17.24.35.3.53l.12.55c0 .02 0 .03-.03.03-.02 0-.04 0-.06-.02-.01-.03-.03-.04-.06-.05 0 0-.02 0-.02-.02l-.01-.02a1.9 1.9 0 0 0-.1-.05.04.04 0 0 1-.03-.03.63.63 0 0 0-.18-.44.41.41 0 0 1-.1-.15.21.21 0 0 0-.03-.06c0-.02-.02-.02-.04-.01L10 5.4a.01.01 0 0 1-.02 0 .67.67 0 0 0-.2-.21.09.09 0 0 0-.04-.02l-.15-.01c-.03 0-.03-.01 0-.02h.02a.04.04 0 0 0 .04-.03c.02-.05.01-.09-.04-.11a1.07 1.07 0 0 0-.27-.07.24.24 0 0 1-.11-.04.24.24 0 0 0-.1-.05.04.04 0 0 1-.03-.03V4.8l.01-.02c.01 0 .02 0 .02-.02Z" fill="#F6CD15"/><path d="M7.47 5.64c.1.06.2.1.33.13a5.85 5.85 0 0 1 .7.2l.3.08a8.76 8.76 0 0 0 1.18.35h.1c.18.01.35.03.53.07.04 0 .07.02.1.04l.08.09a.06.06 0 0 1 0 .05.06.06 0 0 1-.03.04 2.3 2.3 0 0 1-.4.12l-.03.02a.93.93 0 0 1-.34 0 47.45 47.45 0 0 0-.54-.1v.06l-.78-.26a.1.1 0 0 1-.04-.02 2.8 2.8 0 0 0-.68-.19l-.13-.02h-.04a.03.03 0 0 0-.03.02c0 .01 0 .02-.02.03l-.03-.01c0-.04-.03-.05-.05-.04a.53.53 0 0 0-.3-.04c0-.02-.01-.03-.06 0-.07-.03-.12-.03-.14 0 0-.02-.02-.03-.05-.04a.47.47 0 0 0-.28 0c0-.01-.02-.01-.06.01a.24.24 0 0 0-.17 0l-.05.02a.24.24 0 0 1 0-.13l.06-.16.06-.2.17-.14h.01c.26-.06.47-.05.63.02Z" fill="#F3AE03"/><path d="M7.47 5.64c.34.03.67.1.98.2a332.19 332.19 0 0 0 1.22.4 6.88 6.88 0 0 0 .48.06h.42c.23-.01.38.2.36.4 0 .02-.01.03-.02.03l-.01.02a.16.16 0 0 1-.07.06 2.03 2.03 0 0 1-1 .1.55.55 0 0 0-.08-.02.47.47 0 0 1-.13-.04 1.25 1.25 0 0 0-.17-.06v-.04a.03.03 0 0 1 .02-.03l.52.11c.1.02.22.02.34 0l.03-.02.03-.02a2.3 2.3 0 0 0 .39-.12.06.06 0 0 0 .02-.04l-.01-.03a.28.28 0 0 0-.08-.09.24.24 0 0 0-.1-.04 6.02 6.02 0 0 0-.72-.08 81.44 81.44 0 0 0-.82-.23l-.28-.1a5.85 5.85 0 0 0-1-.28 1.02 1.02 0 0 1-.32-.14Z" fill="#F6CD15"/><path d="m7.1 6.22-.28.47c0 .03-.02.07-.05.1-.04 0-.05-.04-.05-.09.04-.14.06-.29.07-.43 0-.02 0-.03.03-.04.1-.03.2-.04.28-.01Z" fill="#EEE8E5"/><path d="M6.82 6.23c-.02.01-.03.02-.03.04-.01.14-.03.29-.07.43a.27.27 0 0 0-.06.15v-.08c.06-.15.08-.33.07-.52.03 0 .04-.01.03-.02.04-.02.06-.02.06 0Z" fill="#201317"/><path d="m7.29 6.25-.18.26h-.03c-.03-.09-.01-.17.07-.26.02-.02.07-.02.14 0ZM6.73 6.25c.02.2 0 .37-.08.52-.03.03-.04.07-.02.12l-.01.02h-.03c-.02-.15-.02-.3.01-.44v-.01h-.02a.46.46 0 0 1-.06.09c-.03.03-.03.02-.03-.01.03-.1.06-.2.1-.28l.14-.01ZM7.65 6.3c0 .06-.01.11-.07.16a.05.05 0 0 1-.05 0 .84.84 0 0 0-.22-.07c-.03 0-.03-.01-.03-.04a.18.18 0 0 1 .07-.09c.12-.01.21 0 .3.04ZM7.82 6.3l.13.02.68.23-.32.27c-.03.02-.05.01-.05-.02v-.05c0-.03 0-.07.03-.09l.11-.12v-.03h-.02c-.12.1-.33.28-.4.43 0 .02-.01.02-.02 0v-.03a.43.43 0 0 1 .15-.39V6.5a.01.01 0 0 0-.03 0c-.12.1-.2.22-.3.35-.05.08-.08.07-.08-.02 0-.09.02-.18.07-.27v-.02c-.02 0-.02 0-.03.02-.03-.01-.04-.03-.03-.05a1 1 0 0 1 .11-.22Z" fill="#EEE8E5"/><path d="m9.45 6.79.17.06.13.04.09.02.1.02c.31.03.61-.02.89-.12a.16.16 0 0 0 .07-.06c0 .02 0 .03-.03.04l-.19.11c-.08 0-.15.02-.23.04l-.24.04c-.19 0-.36-.01-.54-.06v.1c-.01.02 0 .03.01.04l.15.02.06.02c.1.08.16.19.16.33a.04.04 0 0 1-.03.04l-.09.02a.1.1 0 0 0-.08.08l-.02.21c.03.16.02.32-.1.4a4.4 4.4 0 0 1-.38.16V8.3c.02 0 .02-.02.02-.03.04-.26.03-.51-.04-.77-.04-.12-.11-.2-.24-.22l-.83-.06-.5-.04a4.35 4.35 0 0 0-.52-.02 1.74 1.74 0 0 0-.42-.07l-.06-.01c-.05-.02-.05-.04 0-.06.09-.04.19-.06.3-.05.28.04.56.1.84.1.19 0 .36.05.55.03.28-.04.6-.04.95-.02.19 0 .34.13.4.32h.03c-.05-.2-.11-.23-.25-.33-.08-.07-.1-.18-.26-.15-.02-.05-.04-.08-.07-.1-.18-.1-.36-.17-.55-.23.01-.03 0-.04-.07-.04l-.68-.23a2.8 2.8 0 0 1 .68.19.1.1 0 0 0 .04.02l.78.26Z" fill="#FDF61C"/><path d="M10.45 7.06c.05.07.3.4.2.86l-1.14-.24.7-.86c.06.05.15.13.24.24Zm-.94.62-.82-.17a.96.96 0 0 0 .17.76.71.71 0 0 0 .09.1l.56-.69Z" fill="#167418"/><path d="M7.64 6.92c-.2-.05-.32-.07-.4-.05-.13.04-.27.06-.41.05-.02 0-.02-.01-.02-.03l.04-.18.15-.25c.02-.03.03-.02.03.01l.01.31v.01h.04c0-.15.05-.27.15-.36a.03.03 0 0 1 .04 0c.1.04.23.05.29.16.04.1.07.2.08.33ZM8.7 6.59c.19.06.37.14.55.23.03.02.05.05.07.1h-.46c-.2 0-.37.06-.57.06a.02.02 0 0 1-.02-.03v-.01c.12-.14.26-.25.43-.35Z" fill="#EEAD77"/><path d="M10.68 6.9c.04 0 .05 0 .05.02l-.52.3a.14.14 0 0 1-.11.02.16.16 0 0 1-.09-.07.37.37 0 0 0-.07-.08.09.09 0 0 0-.04-.02.4.4 0 0 1-.23-.15c.17.05.35.07.54.06l.24-.04.23-.04Z" fill="#EEE8E5"/><path d="M9.67 6.92a.4.4 0 0 0 .23.15l.04.02c.04.03.06.06.07.08.02.04.05.06.1.07.03.01.07 0 .1-.01l.52-.3c.12-.04.13.08.15.16 0 .02.02.03.04.02.1-.02.14-.05.24 0h-.02v.03h-.08l-.42.12c-.1.04-.2.11-.3.22a.08.08 0 0 0-.02.06c.01.12 0 .21-.04.28-.11.25-.25.39-.41.42a.66.66 0 0 0 .25-.2.22.22 0 0 0 .03-.18c-.03-.16-.2-.17-.31-.08h-.01l.02-.2a.1.1 0 0 1 .08-.1l.1-.01a.04.04 0 0 0 .02-.04.4.4 0 0 0-.16-.33.09.09 0 0 0-.06-.02c-.05 0-.1 0-.15-.02l-.02-.04.01-.1Z" fill="#202B35"/><path d="m6.48 7.1.76.06c.17 0 .34 0 .51.02l.5.04.84.06c.13.02.2.1.24.22.07.26.08.51.04.77l-.01.03-.01.03a.02.02 0 0 0 .01.01.02.02 0 0 0 .02 0c.12-.05.24-.1.34-.17.13-.07.14-.23.1-.39h.02c.06.09.08.18.04.28-.02.06-.08.1-.12.15-.02.01-.01.02 0 .03l.02.02v.01l-.02.02-.14.01c-.02 0-.03.02-.03.04 0 .13-.2.28-.29.33a.04.04 0 0 0-.01.06c.17.22.25.46.25.72a.8.8 0 0 1-.06.26.29.29 0 0 0-.03.08c0 .02 0 .03.02.02a.25.25 0 0 0 .06-.07c.04-.08.1-.15.17-.2.03-.03.04-.02.01.01a.52.52 0 0 1-.04.06.1.1 0 0 0-.02.04l-.07.29v.02c-.02.02-.03.02-.03-.01s0-.07.02-.13c.02-.05.01-.06-.03-.02-.42.44-1.09.7-1.7.75-.08 0-.11.05-.08.13.03.1.04.2.04.3 0 .03 0 .05-.03.06-.03.02-.03.03 0 .05l.16.07c.07.02.14.04.2.04l.16.03c.07.02.13.04.16.07a5.76 5.76 0 0 1 .25.3h-.01a3.46 3.46 0 0 0-.33-.3 1.6 1.6 0 0 0-.37-.06c-.08 0-.18-.06-.3-.16a.43.43 0 0 0-.01-.35c-.07-.15-.2-.2-.36-.19l-.3-.25h-.04c-.08.15-.13.29-.17.43a.1.1 0 0 0 0 .07c.05.11.07.23.07.36a.07.07 0 0 1-.03.06l-.54.4-.02.05c-.08-.02-.12 0-.13.05a1.3 1.3 0 0 0-.32.25l-.15.14a.45.45 0 0 0-.16.17l-.11.23c-.06.1-.1.27-.1.39 0 .15 0 .29-.03.42l.01.05.03.06a7.47 7.47 0 0 1 .1.44 1.22 1.22 0 0 1-.14-.42c-.02-.1-.04-.11-.07 0l-.15.52-.05-.02C5 13.93 5 13.92 5 13.9a.76.76 0 0 0 .09-.25.86.86 0 0 1 .14-.35l.02-.05.01-.36c0-.07.02-.16.06-.27l.13-.33c.06-.1.15-.2.27-.3l.36-.32c.16-.1.33-.18.47-.3a9.2 9.2 0 0 1 .27-.22c.05-.19-.1-.32-.05-.49.03-.13.09-.26.16-.38a.07.07 0 0 0 0-.09c-.24-.22-.41-.47-.52-.76-.12-.33.06-.73.26-1l.08-.1a.04.04 0 0 0 0-.04.23.23 0 0 0-.09-.1c-.02-.02-.03-.02-.02 0 .03.06.04.12.04.18 0 .01-.01.02-.04.02l-.2-.7c-.07-.24-.06-.44.04-.59Z" fill="#255A1B"/><path d="m11.16 7.1.07.05c.06.1.14.18.24.23.16.07.11.24.03.36a.09.09 0 0 0-.01.07.09.09 0 0 0 .05.06c.16.08.2.17.11.28-.25.37-.55.6-.88.73a.12.12 0 0 0-.07.07c-.02-.01-.04-.03-.03-.06.01-.04.03-.06.06-.07.26-.07.49-.22.67-.44.05-.05.04-.08-.04-.09-.13 0-.23-.08-.3-.23l-.1-.15a.26.26 0 0 1-.06-.1c-.01-.03 0-.03.02-.01a1.32 1.32 0 0 1 .16.2.03.03 0 0 0 .05-.04V7.9a.08.08 0 0 0-.04-.05.28.28 0 0 1-.12-.14.12.12 0 0 0-.15-.08c-.15.04-.34.2-.21.37l.13.15c.02.01.02.02 0 .04-.05.05-.12.07-.14.16v.13c.01.02.02.03.04.03.05-.01.1-.04.13-.08l.22-.13h.02v.02a2.1 2.1 0 0 1-.37.23c-.01 0-.02.02-.01.03l.04.22v.05a.34.34 0 0 1-.06-.1c-.04-.17-.08-.4-.15-.58a9.32 9.32 0 0 0-.09-.24.89.89 0 0 1 .2.36.02.02 0 0 0 .03 0l.09-.1a.03.03 0 0 0 0-.05 3.26 3.26 0 0 1-.22-.26v-.05c.14-.18.38-.38.6-.18.04.04.12.04.17 0a.3.3 0 0 0 .11-.06.65.65 0 0 0-.21-.45v-.03h.02Z" fill="#0D090B"/><path d="M11.14 7.14c.13.13.2.28.21.45a.7.7 0 0 1-.07-.13.37.37 0 0 0-.07-.12.35.35 0 0 0-.33-.08.03.03 0 0 0-.02.02.28.28 0 0 0-.03.1.01.01 0 0 0 .02.02c.05-.02.1-.02.16-.02a.1.1 0 0 1 .09.08.1.1 0 0 1 0 .04c-.02.1.03.15.14.16a.14.14 0 0 1-.17-.01c-.22-.2-.46 0-.6.18v.05a3.24 3.24 0 0 0 .23.28l-.01.03-.09.1a.02.02 0 0 1-.03 0v-.01a.89.89 0 0 0-.2-.35.34.34 0 0 0-.1-.11.45.45 0 0 0 .05-.28c0-.02 0-.04.02-.06.1-.11.2-.18.3-.22a3.46 3.46 0 0 1 .5-.12Z" fill="#EEAD77"/><path d="M11.35 7.59a.3.3 0 0 1-.11.07c-.11 0-.16-.06-.14-.16a.1.1 0 0 0-.02-.08.1.1 0 0 0-.07-.04.46.46 0 0 0-.17.02v-.01c0-.04 0-.08.02-.11 0-.01 0-.02.02-.02.13-.03.24 0 .33.08l.07.12a.7.7 0 0 0 .07.13Z" fill="#F4C278"/><path d="M11.53 7.52c.02.09-.07.22-.16.24a.95.95 0 0 0-.18.08.07.07 0 0 1-.06 0 .2.2 0 0 1-.1-.1c-.01-.01 0-.02.02-.01.13.03.25 0 .35-.1.04-.04.05-.07.06-.12.01-.04.03-.04.06-.02v.03Z" fill="#EAC1B1"/><path d="M9.67 7.72c0-.03-.02-.07-.1-.12.06-.03.1-.03.13 0 .01.02.03.02.05.02.05 0 .04.04-.02.12-.01.02-.03.02-.04 0l-.02-.02Z" fill="#1C2521"/><path d="M9.58 7.6c.07.05.1.09.09.12-.06.1-.12.14-.18.1a.1.1 0 0 1 0-.18l.09-.04Z" fill="#0FC20F"/><path d="M10.97 7.9c-.06.07-.11.1-.18.09h-.18c-.13-.16.07-.32.2-.36a.12.12 0 0 1 .16.08c.02.05.06.1.12.14.01.01.03.03.03.05v.06a.03.03 0 0 1-.06.02l-.14-.18c-.03-.02-.03-.02-.02.01.01.04.03.07.07.1Z" fill="#C29E5F"/><path d="m9.87 8.24-.09.02-.02-.02c-.01 0-.02-.02 0-.03.04-.05.1-.09.12-.15a.3.3 0 0 0-.04-.28c.1-.09.28-.08.31.08.02.06.01.12-.03.18a.66.66 0 0 1-.25.2Z" fill="#FDF61C"/><path d="M11.5 8a.06.06 0 0 1-.06.08h-.05l-.07.01a.2.2 0 0 1-.06-.02.14.14 0 0 1-.05-.03.1.1 0 0 1-.02-.05v-.02c0-.03 0-.07.03-.1a.22.22 0 0 1 .13-.06h.05a.06.06 0 0 1 .07.04l.03.16Z" fill="#F4C278"/><path d="M10.28 7.82c.05.04.08.08.09.11l.1.24c.06.19.1.4.14.58l.05.1v.04c0 .03.02.05.04.06.03.02.04.04.03.05l-.02.04c0 .01-.02.02-.03 0a.35.35 0 0 0-.13-.03c.03 0 .02 0-.03-.03 0-.1-.03-.21-.06-.31-.02-.03-.02-.03-.03 0 0 .1 0 .19.02.28.01.05.01.1 0 .14v.02h-.03v-.03l-.03-.1c0-.01-.01-.02-.03 0-.01 0-.01.03 0 .07-.02-.01-.05-.02-.07-.01l-.02.03c.01.05 0 .07-.04.07.02-.02.02-.03.02-.05h-.03c-.04.09-.07.17-.09.27-.02.1-.08.2-.13.3-.03.07-.05.07-.06 0v-.13c.05-.03.08-.06.08-.08 0-.02 0-.03-.01-.01a.14.14 0 0 0-.07.09l-.08.1c0-.05-.01-.07-.03-.08a.04.04 0 0 1-.03-.02.04.04 0 0 1 0-.04.21.21 0 0 0 .02-.2.01.01 0 0 0-.01-.01.01.01 0 0 0-.01 0c-.05.1-.14.16-.26.17a1.05 1.05 0 0 0-.26-.73.04.04 0 0 1 .02-.05c.1-.05.3-.2.29-.33 0-.02 0-.04.03-.04l.14-.01.02-.02v-.01l.08-.02c.17-.03.3-.17.42-.42Z" fill="#D8CFCC"/><path d="m10.97 7.9.1.16c-.02-.01-.03 0-.05.04v-.02a.54.54 0 0 0-.15.15.24.24 0 0 1-.07.03c-.02 0-.03 0-.03.03v.14a.19.19 0 0 1-.13.08c-.02 0-.03 0-.03-.03a.28.28 0 0 1 0-.13c.01-.09.08-.1.13-.16.02-.02.02-.03 0-.04L10.61 8l.13-.02h.05c.07.02.12 0 .18-.07Z" fill="#B17345"/><path d="m11.2 8.08.13.07h.06l.22-.09c.01 0 .02 0 .02.02v.02c0 .02 0 .03-.02.04l-.18.09a.08.08 0 0 1-.05 0 .43.43 0 0 1-.25-.13.04.04 0 0 1 0-.06l.03.01.03.03Z" fill="#EAC1B1"/><path d="M11.07 8.06c.06.15.16.22.3.23.07 0 .08.04.03.09a1.4 1.4 0 0 1-.67.44c-.03.01-.05.03-.06.07V8.8l-.04-.22.01-.03a2.1 2.1 0 0 0 .37-.25h-.02c-.07.05-.14.1-.22.13v-.14c0-.02 0-.03.03-.03s.05-.02.07-.03a.34.34 0 0 0 .15-.13c.02-.04.03-.05.05-.04ZM9.17 8.44c-.04.01-.06.03-.07.05l-.04.02-.07.02c-.02 0-.03.02-.03.04v.25c0 .02.02.03.04.03l.05-.02c.03 0 .04 0 .04.04-.02.08 0 .15.08.22.04.05.06.04.06-.02l.01-.29c.28.31.32.67.13 1.08-.02.05-.1.12-.2.2a2.77 2.77 0 0 1-1.1.42 2.5 2.5 0 0 0-.27.06l-.02-.04h-.04a.15.15 0 0 1-.08 0h-.13A1.77 1.77 0 0 1 6.5 9.49a.7.7 0 0 1-.03-.5c.08-.26.19-.47.34-.64a.06.06 0 0 0 .01-.04v-.02c0-.02.01-.04.04-.04h.26c.08.02.12-.03.18-.08a.32.32 0 0 1 .26-.06h.16a.7.7 0 0 1 .63.25.06.06 0 0 1 0 .08l-.14.14v.01h.02l.17-.12a.07.07 0 0 1 .05-.02h.72Z" fill="#EEAD77"/><path d="M6.67 8.42c0-.03-.01-.04-.03-.03.03 0 .04 0 .04-.02a.45.45 0 0 0-.04-.17c0-.03 0-.03.02-.02.05.03.08.07.1.11l-.01.05-.08.08Z" fill="#F4C278"/><path d="M7.3 8.34v-.01a.1.1 0 0 1 .04-.07.11.11 0 0 1 .17.08.1.1 0 0 1 0 .04l-.21-.04Z" fill="#201317"/><path d="M7.95 8.41a.27.27 0 0 0-.17.08h-.02a.01.01 0 0 1 0-.03c.1-.11.2-.24.37-.12a.06.06 0 0 1-.02.1.15.15 0 0 1-.12-.02.08.08 0 0 0-.04 0Z" fill="#0D090B"/><path d="m9.25 8.78-.02.29c0 .06-.02.07-.06.02-.07-.07-.1-.14-.08-.22 0-.03-.01-.04-.04-.04L9 8.85c-.02 0-.04 0-.04-.03v-.25c0-.02 0-.04.03-.04l.07-.02c.02 0 .03 0 .04-.02.01-.02.03-.04.07-.05l.26-.08c.13-.04.15 0 .07.1a.6.6 0 0 1-.28.19.04.04 0 0 0-.03.04c0 .04.01.07.06.1Z" fill="#F4C278"/><path d="m10.52 8.98-.01.23c0 .02-.02.03-.04 0V9.2l-.01-.02a.03.03 0 0 0-.02-.01h-.01c-.03 0-.04 0-.05.03-.03.15-.08.29-.14.41-.01.01-.02.02-.04.01-.01-.01-.02-.01-.01-.02l.1-.2c.02-.07.05-.18.07-.34v-.08l.03.01.02.1c0 .01 0 .02.02.02h.02V9.1c.02-.05.01-.1 0-.14a.82.82 0 0 1-.02-.28c0-.03.01-.03.03 0 .03.1.05.2.06.31ZM7.01 8.84l.02.33c.01.08.05.13.11.17.45.27.91.29 1.38.05.12-.05.17-.13.15-.24.05-.06.07-.13.06-.18-.02-.06-.06-.08-.11-.05-.32.17-.74.18-1.09.14-.18-.03-.35-.1-.5-.22v-.02h.04c.18.1.31.15.4.17.4.06.79.03 1.16-.12.06-.02.12-.02.18-.02a.08.08 0 0 1 .07.1c-.04.14-.12.27-.22.39-.13.15-.38.2-.58.25-.33.07-.8-.03-1.03-.26a.94.94 0 0 1-.22-.46.05.05 0 0 1 .04-.06c.06-.02.1-.01.14.03Z" fill="#0D090B"/><path d="M7.01 8.84h.02c.15.12.31.19.5.22.35.04.77.03 1.09-.14.05-.03.09-.01.1.05.02.05 0 .12-.06.18 0 0 .21.1-.14.24-.47.24-.93.22-1.38-.05a.22.22 0 0 1-.1-.17A8.4 8.4 0 0 1 7 8.84Z" fill="#FCFBFB"/><path d="M10.24 9.14c-.02.04-.04.13-.05.25 0 .02-.02.05-.05.06a.06.06 0 0 0-.02.03l-.07.2a.1.1 0 0 0 .05.11c.18.08.33.2.44.34-.03.02-.05.05-.05.1.01-.1-.04-.12-.09-.19l-.03-.01c-.02 0-.03 0 0 .03l.02.08c0 .02 0 .02-.02.02l-.03-.02a.52.52 0 0 0-.08-.16.08.08 0 0 0-.04-.03l-.14-.05h-.05a.18.18 0 0 0-.1.16 11.22 11.22 0 0 1-.02.42l.02.04c0 .06.02.12.04.17l.03.03h.03c.1-.04.18-.1.22-.2 0-.02.02-.07.02-.15 0-.06.03-.1.06-.14v.18c-.01.07.01.15.07.24l.02.04v.08a.12.12 0 0 1 0-.1h-.01l-.02-.01c-.01 0-.02 0-.02.03v.05c0 .02-.01.03-.03.03a.04.04 0 0 0-.04.03c-.02 0-.05 0-.08.02a.04.04 0 0 1-.04 0 .39.39 0 0 0-.15-.03c-.03 0-.03 0-.02.02.05.06.08.13.1.2-.04 0-.06 0-.06.02-.03.03-.06.1-.1.2-.1.18-.33.2-.5.22a.04.04 0 0 0-.04.01.04.04 0 0 0 0 .04 1.31 1.31 0 0 1 .02.49.02.02 0 0 0 .02 0c.26-.02.52-.05.7-.26a.12.12 0 0 1 .04-.03l.13-.05h.04a.01.01 0 0 1 0 .02l-.46.3-.43.08a.2.2 0 0 0-.16.14c-.04.1-.15.3-.13.42l.01.02a.04.04 0 0 0 .07 0 2.56 2.56 0 0 1 .73-.5v.02a4.08 4.08 0 0 0-.7.53c0 .12.03.23.02.36-.02.25-.05.47-.09.66l-.03.25c0 .02 0 .03.02.04l.07.01H9.1c.13-.45.18-.89.15-1.3-.05-.04-.08-.06-.09-.05-.03-.04-.04-.08-.03-.14a2.57 2.57 0 0 1 .11-.35.04.04 0 0 0-.02-.04H9.2a.46.46 0 0 0-.26.08h-.02a.03.03 0 0 0-.03-.01.8.8 0 0 1-.16.03.16.16 0 0 0-.1.07c-.11 0-.23.02-.33.06-.02 0-.02.02-.02.03l.05.32c.02.1.03.2.03.31l.03.63v.18c-.02.06-.02.12-.01.18H8.3l.03-.14a.5.5 0 0 0 0-.16 4.07 4.07 0 0 1-.03-.72c0-.08 0-.17-.03-.26a.89.89 0 0 1-.03-.28c0-.05-.02-.07-.07-.06-.2.04-.38.12-.52.25h-.01a.68.68 0 0 1 .48-.28.08.08 0 0 0 .07-.06c.03-.1.02-.2-.03-.27l.01-.04c.01-.02.03-.01.05 0v.01l.02.03.46.15.29-.06a.63.63 0 0 1 .22-.05c.09 0 .14-.05.16-.14v-.34c0-.1-.05-.14-.12-.13h-.01c.08-.03.19-.05.33-.05.12 0 .22-.06.3-.17.06-.07.06-.13 0-.19-.1-.16-.17-.34-.18-.53a4.71 4.71 0 0 1-.01-.41c0-.03 0-.04.03-.02.02 0 .02.02.03.04l.01.02c.01 0 .02 0 .03-.03v-.24c0-.02.01-.04.03-.05.05-.02.08-.07.07-.12 0-.04-.01-.04-.03 0-.04.07-.1.12-.14.2a.45.45 0 0 1-.23.21c-.01-.03 0-.05.01-.06a.34.34 0 0 0 .12-.09l.24-.32.09-.11c-.01.06-.02.1-.01.13.01.07.03.07.06 0 .05-.1.1-.2.13-.3.02-.1.05-.18.1-.26 0-.02 0-.02.02 0l-.01.04Z" fill="#2B0A34"/><path d="m9.86 9.64-.24.32c-.02 0-.03 0-.04-.02l.07-.29a.1.1 0 0 1 .02-.04.52.52 0 0 0 .04-.06c.02-.03.02-.04-.01-.01a.47.47 0 0 0-.17.2c-.02 0-.04 0-.05-.03a.8.8 0 0 0 .06-.26c.12 0 .2-.06.26-.17a.01.01 0 0 1 .02 0c.03.07.02.14-.02.2a.05.05 0 0 0 0 .05l.01.01.02.01c.02 0 .03.03.03.09Z" fill="#EEE8E5"/><path d="M9.88 11.04a.4.4 0 0 1-.26-.17.32.32 0 0 1-.05-.12.8.8 0 0 0-.04-.15.76.76 0 0 1 0-.38.04.04 0 0 0-.05-.05h-.02a.2.2 0 0 0-.06.07c.01-.07.04-.11.09-.13.1-.04.18-.11.23-.21l.14-.2c.02-.04.03-.04.03 0 0 .05-.02.1-.07.12a.05.05 0 0 0-.03.05v.24c0 .02-.02.03-.03.03l-.02-.02c0-.02 0-.03-.02-.04-.02-.02-.03-.01-.03.02v.4c.02.2.08.38.19.54Z" fill="#D8CFCC"/><path d="M11.31 10.01c-.17-.04-.25-.14-.23-.3l.23.3ZM8.43 9.78a.7.7 0 0 1-.66.03c-.02-.01-.02-.02 0-.02h.04a.77.77 0 0 0 .62-.03v.02Z" fill="#0D090B"/><path d="m9.58 9.94.04.02a.34.34 0 0 1-.12.1c-.02 0-.02.02-.01.05-.05.02-.07.06-.09.13l-.18.27-.01.02a.04.04 0 0 1-.04 0l-.01-.02c-.03-.04-.08-.05-.13-.02a.67.67 0 0 0-.12.11.07.07 0 0 1-.04.02c-.14.03-.27.07-.4.13h-.1c-.23.09-.37.22-.44.41l-.16-.07c-.03-.02-.03-.03 0-.05A.06.06 0 0 0 7.8 11c0-.11-.01-.21-.04-.3-.03-.1 0-.14.09-.14.6-.05 1.27-.31 1.7-.75.03-.04.04-.03.02.02a.38.38 0 0 0-.02.13c0 .03 0 .03.03 0v-.01Z" fill="#C7C1C1"/><path d="M10.34 10.14c-.02 0-.02.03-.01.09a.24.24 0 0 0-.06.14c0 .08-.01.13-.02.15a.36.36 0 0 1-.22.2.05.05 0 0 1-.06-.03.82.82 0 0 1-.04-.17.08.08 0 0 0-.02-.04 11.23 11.23 0 0 0 .02-.42c0-.08.04-.13.1-.16h.05l.14.05c.01 0 .03.01.03.03.04.04.07.1.09.16ZM10.5 10.23l-.05.02h-.04a.14.14 0 0 1-.04-.1c.01.01.02 0 .02-.01a.12.12 0 0 0-.03-.08c-.02-.02-.01-.03.01-.03l.03.01c.05.07.1.08.1.19Z" fill="#610E7B"/><path d="M11.36 10.19v.1l-.01.05-.06.08a.82.82 0 0 0-.09-.35c-.03-.06-.02-.07.03-.03l.06.11c.01.03.04.04.07.04Z" fill="#0D090B"/><path d="M9.88 11.04c.05.06.06.12 0 .2a.37.37 0 0 1-.3.16.98.98 0 0 0-.33.05c-.12.01-.3.02-.34.13l-.03.02-.15.02a.05.05 0 0 1-.03-.03v-.03a5.77 5.77 0 0 0-.25-.26.33.33 0 0 0-.16-.07 1.16 1.16 0 0 0-.17-.03.94.94 0 0 1-.19-.04c.07-.19.21-.32.45-.4l.1-.01c.12-.06.25-.1.39-.13.01 0 .03 0 .04-.02a.67.67 0 0 1 .12-.1c.05-.04.1-.04.13.01l.01.02a.04.04 0 0 0 .05-.02l.18-.27a.2.2 0 0 1 .06-.07h.02a.04.04 0 0 1 .04.02v.03a.76.76 0 0 0 .01.38l.04.15.05.12a.4.4 0 0 0 .26.17Z" fill="#EEE8E5"/><path d="M7.32 10.54c.02.09.03.17.02.25v.05c.02.04.05.07.09.1l.26.14c.12.1.22.15.3.16.12 0 .24.02.37.05-.05-.01-.07.03-.05.14l-.01-.12c-.01-.02-.02-.02-.03 0a.1.1 0 0 0 0 .07v.04c0 .07 0 .1.04.09 0 .14-.01.29-.05.44l-.03.03c-.02-.01-.04-.02-.05 0-.01 0-.02.02 0 .04.04.08.05.17.02.27a.08.08 0 0 1-.07.06.68.68 0 0 0-.48.27v.01c.15-.13.33-.21.53-.25.05 0 .08.01.07.06 0 .1 0 .2.03.28l.03.26c-.01.24 0 .48.03.72v.16l-.03.14h-.3l-.08-.02a.7.7 0 0 0 .32-.21.1.1 0 0 0 .02-.08c0-.02-.01-.02-.03 0l-.1.08c-.16.08-.33.15-.52.2l-.17.03h-1.4c0-.01-.03-.02-.07-.02l-.01-.1a1.28 1.28 0 0 0-.25-.33.76.76 0 0 1-.06-.2 5.37 5.37 0 0 1-.14-.72.09.09 0 0 1-.03-.05c0-.03-.01-.03-.03-.01v.02c.02.07.03.13 0 .19l.01.04c.04.08.07.19.09.27.05.3.1.58.18.86 0 .01 0 .02-.02.02l-.28.03h-.36c-.02-.02-.02-.03-.01-.04l.15-.52c.03-.11.05-.1.07 0a1.22 1.22 0 0 0 .13.43v.03a7.47 7.47 0 0 0-.13-.59c.02-.13.04-.27.03-.42 0-.12.04-.28.1-.39l.11-.23a.45.45 0 0 1 .16-.17l.15-.14c.28-.3.64-.48 1.01-.75a.07.07 0 0 0 .03-.06c0-.13-.02-.25-.06-.36a.1.1 0 0 1 0-.07c.03-.14.08-.28.16-.42 0-.02.02-.02.04-.01l.3.25Z" fill="#BC01F0"/><path d="M11.9 10.3c.03.01.04.03.03.05a.76.76 0 0 1-.12.2c-.06.07-.05.1.05.1.05-.01.1-.03.17-.08.07-.02.11-.02.11 0l-.4.16h-.01l.04-.21c0-.02 0-.03.02-.03.04-.04.08-.1.11-.19ZM10.1 11c.11.1.23.16.37.2.04.02.07.05.09.08a.04.04 0 0 1-.02.06h-.02c-.07 0-.13.03-.17.08l-.01.06-.04.01a.03.03 0 0 1-.02-.02v-.02a.3.3 0 0 1 .14-.13c.06-.03.06-.06 0-.09-.1-.04-.2-.1-.27-.17a.15.15 0 0 0-.1-.04l.05-.01Z" fill="#0D090B"/><path d="M10.05 11.03c.04 0 .07 0 .1.03.08.07.16.13.26.17.07.03.07.06 0 .1a.3.3 0 0 0-.13.12.03.03 0 0 0 0 .02l.01.02h.05l.01-.07.01.04h.03c0 .03.03.04.06.05.01.05-.03.1-.13.14l-.13.05a.12.12 0 0 0-.04.03c-.18.21-.44.24-.7.26h-.02v-.02a1.31 1.31 0 0 0-.03-.49.04.04 0 0 1 .04-.03c.18-.03.41-.04.5-.22l.1-.2Z" fill="#BC01F0"/><path d="M7.14 11.62c.02-.04.02-.08-.02-.1l-.06-.02a.64.64 0 0 0-.18-.27v-.03a.03.03 0 0 1 .05 0c.08.07.15.17.2.29.02.03.05.06.09.08a145.17 145.17 0 0 1 .66.3v.03a3.2 3.2 0 0 1-.74-.28Z" fill="#201317"/><path d="M8.36 11.3a3.46 3.46 0 0 1 .37.32c-.03.01-.05.03-.05.05a2.79 2.79 0 0 0 0 .47.02.02 0 0 0 .02 0l.02-.01v.04l-.47-.15a.03.03 0 0 1-.02-.03v-.01l.03-.03c.04-.15.05-.3.05-.44v-.08c-.02-.1 0-.15.05-.14Z" fill="#FDF61C"/><path d="M11.65 11.5c-.02.06-.07.07-.14.02-.02-.02-.03-.01-.03 0v.02a.03.03 0 0 0 0 .03l.18.09.35.25c.12.1.23.25.34.43l.15.23c-.02 0-.05 0-.06.03-.1-.2-.22-.4-.37-.56a2.14 2.14 0 0 0-.45-.33l-.17-.1-.02.01c0 .03-.01.04-.04.02a.06.06 0 0 1-.01-.04c0-.02-.01-.03-.03-.04l-.25-.13c.03-.02.08-.01.14.03.03.02.06.03.1.02h.03l.02.04c0 .02.01.03.03.02.01 0 .02 0 .02-.02l.04-.02h.17ZM9.25 11.45c-.1.09-.3 0-.28.22l-.01.28-.04-.26c0-.02-.02-.04-.04-.04h-.1c-.04 0-.06.02-.06.05v.43l-.02.01h-.02v-.02c-.02-.19-.01-.34 0-.45 0-.02.02-.04.05-.05l.15-.02c.01 0 .03 0 .03-.02.05-.1.22-.12.34-.13Z" fill="#0D090B"/><path d="M9.26 11.45c.07 0 .11.04.12.13v.34c-.02.1-.07.14-.16.14a.63.63 0 0 0-.22.05c-.04 0-.05-.06-.04-.16.01-.1.02-.19.01-.28-.02-.22.18-.13.29-.22Z" fill="#FDF61C"/><path d="M8.96 11.95c-.01.1 0 .15.04.16l-.29.06v-.04l.01-.43c0-.03.02-.05.05-.05h.1c.03 0 .05.02.05.04l.04.26Z" fill="#FDFBD6"/><path d="M11 11c-.5 0-.58.6-.69.65h.05a.01.01 0 0 1 0 .02l-.46.3-.43.08a.2.2 0 0 0-.17.14c0 .03-.02.07-.04.1-.04.1-.1.23-.08.32l.01.02a.04.04 0 0 0 .05.01h.02a2.56 2.56 0 0 1 .73-.51v.02a4.08 4.08 0 0 0-.7.53l.01.19a4.32 4.32 0 0 1-.08.83l-.03.25c0 .02 0 .03.02.04l.07.01h1.7l.11-.02c.11-.16.17-.33.2-.52 0-.02 0-.04.03-.05.02 0 .02 0 .01.02a.1.1 0 0 0 0 .08c0 .04.02.04.04 0l.19-.44a7.85 7.85 0 0 1 .3-.51l.18-.48c0-.01 0-.03.03-.04a2.13 2.13 0 0 0-.45-.33c-.12-.21-.48-.82-.62-.71Z" fill="#BC01F0"/><path d="m10.95 12.06.03.57c0 .11-.02.23-.04.34a.02.02 0 0 1-.02.02.02.02 0 0 1-.02-.01.11.11 0 0 1-.03-.08 84.22 84.22 0 0 0 .05-1.04.06.06 0 0 1 .04-.03c.03 0 .03 0 .01.02a.08.08 0 0 0-.03.1l.01.1Z" fill="#610E7B"/><path d="M12.07 12.04c.15.17.27.35.37.56l-.16.04c-.01.01-.03 0-.04-.01l-.13-.16c-.03-.04-.06-.04-.1 0a.06.06 0 0 1-.05.03c.03-.13.07-.25.13-.36a.05.05 0 0 0 0-.04c-.01-.02-.03-.02-.05-.02l.03-.04Z" fill="#8204AF"/><path d="m8.28 12.07.31.12.01.02a.02.02 0 0 1-.01.01l-.33.08h-.01a.02.02 0 0 1 0-.01V12.08h.01l.01-.01Z" fill="#FDF61C"/><path d="M12.04 12.08c.02 0 .04 0 .05.02a.05.05 0 0 1 0 .04c-.06.11-.1.23-.13.36l-.06.14c-.05.04-.07.01-.05-.08l.2-.48Z" fill="#201317"/><path d="M9.16 12.65a.12.12 0 0 1-.05.06c-.02 0-.02.01 0 .01h.03a.1.1 0 0 0 .04-.02c.01-.02.04-.02.07 0 .03.41-.02.85-.15 1.3H8.8c.04 0 .07-.02.1-.04l.01-.08v-.1a5.09 5.09 0 0 0 .09-.99c0-.01 0-.02.02-.03.03-.02.02-.03 0-.03-.06-.01-.08 0-.09.02-.09.02-.1-.04-.03-.18.03-.09.04-.2.03-.32 0 .03.01.01.02-.05a.46.46 0 0 1 .26-.08h.02l.01.02a.04.04 0 0 1 0 .04l-.1.33c-.01.06 0 .1.03.14Z" fill="#FDF61C"/><path d="M8.94 12.2c0 .06-.02.08-.02.05a.43.43 0 0 0-.03.32c-.07.14-.06.2.03.18l-.03 1.02.01.1c0 .05 0 .08-.02.1a.14.14 0 0 1-.1.03h-.16l-.03-.75.05-.32c.05-.1.03-.16-.08-.19l.02-.14c.04-.07.05-.15.03-.25 0 0 .02-.02.02-.06a.16.16 0 0 1 .1-.07.8.8 0 0 0 .16-.03h.03l.02.01Z" fill="#FDFBD6"/><path d="M8.63 12.29c0 .04-.01.06-.02.06-.05.07-.05.15-.03.25a.45.45 0 0 0-.02.14c-.04-.02-.08-.02-.1 0 0 .01 0 .02.02.02.11 0 .17.06.16.17l-.05.32-.03.75h-.18v-.18a.78.78 0 0 0 .01-.18 7.67 7.67 0 0 1-.03-.63l-.03-.31-.05-.32c0-.01 0-.03.02-.03.1-.04.22-.06.33-.06Z" fill="#FDF61C"/><path d="M6.12 12.3a.56.56 0 0 1-.05.12.87.87 0 0 0-.09.67c0 .02.01.02.03.02l-.02.01c-.03 0-.04 0-.05-.04-.05-.26 0-.51.16-.77h.02Z" fill="#610E7B"/><path d="m5.72 13.55.08.4.03.03h.15c.04 0 .06 0 .07.02h-.61l.28-.03c.02 0 .02 0 .02-.02-.07-.28-.13-.57-.18-.86a1.15 1.15 0 0 0-.1-.27v-.04a.26.26 0 0 0 0-.19v-.02c.02-.02.03-.02.03 0s.01.04.03.05l.02.05a5.37 5.37 0 0 0 .18.88Z" fill="#400A56"/><path d="M11.85 12.56c-.02.09 0 .12.05.08-.05.18-.11.36-.18.53a.26.26 0 0 1-.1.14.27.27 0 0 0-.06.04.22.22 0 0 0-.05.06c-.06.2-.1.4-.1.59h-.12l-.2-.02c.11-.16.17-.33.2-.52 0-.02 0-.04.03-.05.02 0 .02 0 .01.02a.11.11 0 0 0 0 .08c.01.04.03.04.04 0l.19-.44.13-.26.16-.25Z" fill="#610E7B"/><path d="M12.5 12.57c.06.11.15.25.18.37 0 .04.02.07.05.1l.02.05.05.1.12.22c0 .02.03.04.05.05l.03.05c.02.05.06.1.11.14l.04.05c.04.1.1.17.17.24.02.02.02.03 0 .04a.13.13 0 0 1-.1.01 1.24 1.24 0 0 1-.17-.05c-.05-.03-.07-.05-.08-.12a.33.33 0 0 0-.05-.1.05.05 0 0 0-.04-.03h-.13c-.02 0-.03 0-.05.02a.77.77 0 0 0-.17.26h-.02v-.04c0-.03 0-.04.03-.03.01 0 .02-.01.02-.03l.01-.05a.6.6 0 0 1 .13-.14.1.1 0 0 1 .06-.02h.1c.03 0 .04-.02.04-.04v-.02a.02.02 0 0 0-.03-.02c-.06.01-.1 0-.13-.07l.05.01h.03v-.02a.04.04 0 0 0 0-.04.18.18 0 0 1-.03-.08v-.01l-.02-.01c-.01 0-.02 0-.03-.02a.48.48 0 0 1-.06-.2c0-.01 0-.02-.02-.02-.1.02-.23-.01-.32.04l-.03-.01c.12-.1.2-.05.33-.07a.03.03 0 0 0 .02-.01v-.03l-.1-.18c-.02-.02-.03-.04-.05-.04.01-.05-.01-.13-.07-.22.01-.03.03-.04.06-.03Z" fill="#201317"/><path d="M5.72 13.55c.1.1.19.22.25.34l.01.1a.3.3 0 0 1-.15-.01.04.04 0 0 1-.03-.04l-.08-.4Z" fill="#610E7B"/><path d="m12.44 12.6-.16.04c-.02.01-.03 0-.04-.01l-.13-.16c-.03-.04-.06-.04-.1 0a.06.06 0 0 1-.05.03l-.06.14c-.05.18-.11.36-.18.53a.26.26 0 0 1-.1.14.27.27 0 0 0-.06.04.21.21 0 0 0-.05.06c-.06.2-.1.4-.1.59H13s-.5-1.3-.56-1.4Z" fill="#BC01F0"/><path d="M10.96 9.7c.02.03.07.04.12.02-.02.15.06.25.23.29a.2.2 0 0 0 .05.18c-.03 0-.06 0-.07-.04a.27.27 0 0 0-.06-.1c-.05-.05-.06-.04-.03.02.05.08.08.2.1.35.08.04.17.03.27-.03.05-.02.1-.07.14-.13a2.66 2.66 0 0 1 .15-.18h.03c.02.02.03.04.02.08V10.3a.38.38 0 0 1-.12.19.05.05 0 0 0-.02.03l-.04.2v.01l.41-.16.04.02c.03 0 .03.01.01.03v.01c.01.01.02.02.03.01h.02v-.01c.02.02.02.05 0 .07a2.45 2.45 0 0 0-.07.15l-.08.12a.11.11 0 0 1-.08.06.73.73 0 0 0 .15-.22v-.01l-.02-.01h-.02l-.03.07c-.03.08-.21.2-.3.25l-.22.06a.17.17 0 0 1-.1 0c-.02-.01-.03 0-.04.01v.02c.01.02.02.03.04.02.03 0 .07.01.1.04.06.06.13.1.2.14a.03.03 0 0 1 .01.04v.01l-.05.03-.08.02h-.17c-.02 0-.03 0-.04.02 0 .01 0 .02-.02.02s-.03 0-.03-.02 0-.03-.03-.03h-.01c-.05 0-.08-.01-.11-.03-.06-.04-.11-.05-.14-.03.02.02.01.02-.02 0-.02-.03-.05-.04-.1-.01a.33.33 0 0 1-.15.03l-.05.01a.25.25 0 0 1-.14.03c-.09 0-.13-.07-.25-.03h-.03l-.01-.04c.04-.05.1-.08.17-.07h.02l.02-.02a.04.04 0 0 0 0-.05.16.16 0 0 0-.09-.07 1.12 1.12 0 0 1-.37-.2.45.45 0 0 0-.09-.2c-.01-.02 0-.03.02-.02l.15.03h.04c.03-.02.06-.02.08-.02.06.06.1.05.12-.03v-.08a.1.1 0 0 0-.02-.04c-.06-.1-.09-.17-.08-.24a.6.6 0 0 0 0-.18c0-.06 0-.1.02-.1l.02.03.05.08c.01.01.03.02.04.01l.05-.02c.08.1.17.18.29.24.02 0 .03 0 .03-.02v-.16c0-.02-.02-.03-.04-.02a.1.1 0 0 1-.03.01l-.02-.07c.08.02.11-.03.1-.15 0-.02 0-.03.02-.05a.5.5 0 0 0 .07-.25c0-.02.02-.04.04-.05Z" fill="#8CDC9B"/><defs><linearGradient id="ackd4zdtx" x1="9" y1="4" x2="9" y2="14" gradientUnits="userSpaceOnUse"><stop stop-color="#201317"/><stop offset=".55" stop-color="#C29E5F"/><stop offset="1" stop-color="#201317"/></linearGradient></defs></svg>