<!-- by TradingView --><svg width="18" height="18" viewBox="0 0 18 18" xmlns="http://www.w3.org/2000/svg"><path fill="#F7931A" d="M0 0h18v18H0z"/><path d="M6.81 4h3.75v.3h.31v.29h.32v.3h.94v.29h.3v.88h.95V8.4h.3v.3H14v2.64h-.31v.3h-.31v.3h-.32v.58h-.31v.3h-1.56v.58h-.31v.3h-.32V14H6.81v-.3H6.5v-.88H4.31v-.3H4v-2.05h.31v-.3h.32v-.29h.93V7.82h-.93v-.3H4V5.19h.63v-.3H6.5V4.3h.31V4Z" fill="#fff"/><path d="M10.56 4.3H6.81v.88H4.63v.58H4.3v1.48h.32v.29h1.25v2.65H4.63v.3H4.3v2.05h2.5v1.18h3.75v-.3h.31v-.88h1.88v-.88h.63v-.3h.3V8.71h-.3v-.3h-.32V6.35h-.62v-.3h-.31v-.87h-1.26v-.6h-.3V4.3Z" fill="#2A3B92"/><path d="M7.38 5H8v.76h1.31V5h.94v.76h.94V7h1.1v1.55h-1.1v.5H6.5V7H5V5.76h2.38V5Zm.68 3.41h2.5V7h-2.5v1.41Z" fill="#69DFFA"/><path d="M7.38 13H8v-1h1.31v1h.94v-1H12v-1h1V9.3h-1.81v-.6H6.5v2.06H5.25V12h2.13v1ZM8 9.3h2.56v1.46H8V9.3Z" fill="#0EBFD7"/><path fill="#fff" d="M8.69 7.53h1.25v.29H8.69zM8.69 9.88h1.25v.29H8.69z"/></svg>