<!-- by TradingView --><svg width="18" height="18" viewBox="0 0 18 18" xmlns="http://www.w3.org/2000/svg"><path fill="url(#aov2zzrws)" d="M0 0h18v18H0z"/><path fill-rule="evenodd" d="M9 14.65a5.65 5.65 0 1 0 0-11.3 5.65 5.65 0 0 0 0 11.3ZM9 15A6 6 0 1 0 9 3a6 6 0 0 0 0 12Zm0-1.06a4.94 4.94 0 1 0 0-9.88 4.94 4.94 0 0 0 0 9.88Zm0 .35A5.3 5.3 0 1 0 9 3.71a5.3 5.3 0 0 0 0 10.58Zm1.38-8.04L9 4.28 7.62 6.25l.29.2L9 4.9l1.1 1.55.28-.2Zm2.31 4.51L9 5.52l-3.7 5.24H7.6v-.35h-1.6L9 6.13l3.01 4.28h-1.6v.35h2.28Zm-2.28-2.11H8.65v4.94H9V9h1.41v-.35Z" fill="#0DFB58"/><defs><linearGradient id="aov2zzrws" x1="3.35" y1="3.12" x2="21.9" y2="24.43" gradientUnits="userSpaceOnUse"><stop stop-color="#1A1E21"/><stop offset="1" stop-color="#06060A"/></linearGradient></defs></svg>