<!-- by TradingView --><svg width="18" height="18" viewBox="0 0 18 18" xmlns="http://www.w3.org/2000/svg"><path fill="#C7FF93" d="M0 0h18v18H0z"/><path d="m6.24 6.38.23.06c.12 0 .2.02.25.04l.09.45c.01.06 0 .09-.06.1h-.3l-.36.02h-.01l-.01.02a9.85 9.85 0 0 0 .1.93v.08l-.01.01-.02.02a26.63 26.63 0 0 0-.7 0c-.05 0-.07-.04-.07-.1 0-.2-.01-.38-.05-.56a.87.87 0 0 0-.11-.27l.02-.06a.03.03 0 0 0 0-.03H5.2l-.34.03a.04.04 0 0 1-.03 0l-.01-.02V7.1l-.07-.6v-.01h.02l.31-.02a.02.02 0 0 0 .02 0v-.02a373 373 0 0 0-.6-2.39c0-.06 0-.11.03-.15a121.73 121.73 0 0 0 .74-.9.05.05 0 0 1 .03.01l.83.68a.07.07 0 0 1 .02.05l.09 2.64Z" fill="#070503"/><path d="M5 5.54c.16.05.28.03.37-.06l.02-.02v-.02l-.05-.46v-.01h-.01a.02.02 0 0 0-.02 0l-.1.05h-.03a.02.02 0 0 1 0-.04l.15-.14a.14.14 0 0 0 .04-.05c0-.02.01-.04 0-.07l-.01-.15v-.02l-.03-.02a.05.05 0 0 0-.04.01L5 4.78H5l-.01-.01a.01.01 0 0 1 0-.02l.32-.3a.12.12 0 0 0 .03-.05.1.1 0 0 0 0-.05v-.03h-.02a.04.04 0 0 0-.03 0l-.48.4-.06-.22.5-.41a.14.14 0 0 0 .05-.06v-.06l-.1-.71c.02-.03.04-.06.08-.08h.04l.67.55a.1.1 0 0 1 .04.07l.08 2.68c0 .01 0 .03-.02.03l-.03.02-.77.04h-.02l-.01-.03-.25-1Z" fill="#C8C8E4"/><path d="m4.75 4.5-.12-.48a.08.08 0 0 1 .02-.07l.56-.7.1.72-.01.06-.05.06-.5.4Z" fill="#FEFEFF"/><path d="m5.2 7.18.03.03.1.24c.03.18.04.37.04.56l-.02-.21v-.01h-.02a.9.9 0 0 0 .03.62 1.75 1.75 0 0 0 .3.46c.32.38.5.68.56.92.02.09.02.2-.01.32-.04.16-.07.38-.08.68-.06.94.43 1.46 1.46 1.57a6.1 6.1 0 0 0 1.42 0l.01-.03-.02-.6.01-.13c.02-.28.05-.48.1-.6.09-.2.24-.34.48-.44.3-.13.64-.2 1-.2.23 0 .42.06.58.2.17.15.23.32.18.52a.1.1 0 0 1-.05.06.1.1 0 0 1-.08.02.12.12 0 0 1-.07-.05.1.1 0 0 1-.02-.08c.03-.14-.03-.26-.17-.35a.69.69 0 0 0-.42-.11c-.24 0-.5.06-.74.14-.33.11-.5.31-.53.6-.05.44-.04.85.02 1.23l.08.45.03.06.05.04c.3.11.79.06 1.45-.14l.17-.06a.59.59 0 0 0 .17-.08l.02-.02v-.02a32.85 32.85 0 0 0-.2-1.38c0-.06 0-.1.05-.12.1-.02.16.01.18.1a3.55 3.55 0 0 1 .07.4h.01l.01-.01a2.07 2.07 0 0 0 .5-1.88.02.02 0 0 0-.02 0c-.2.15-.44.23-.72.26-.4.05-.76.05-1.1.01l-1-.14c-.74-.12-1.4-.24-1.97-.37-.18-.04-.3-.13-.33-.29a3.35 3.35 0 0 1-.05-1.1.35.35 0 0 0 .02-.08v-.03l-.17-.48-.22-.42a.15.15 0 0 0-.04-.04l-.15-.13a.05.05 0 0 0-.04 0h-.02v-.01l.02-.01.35-.02c.24.33.4.68.49 1.04 0 .04.03.07.05.1a.2.2 0 0 0 .1.04 25.62 25.62 0 0 0 4.62.36c.08 0 .15-.03.2-.08.24-.26.34-.57.3-.92-.03-.2-.16-.4-.4-.58l-.03-.06c0-.02.02-.04.04-.06l.01-.02v-.03c-.02-.04-.03-.08-.02-.11v-.02h-.01l-.01-.01c-.03 0-.06-.01-.07-.03l-.01-.02V6.6l.03-.06v-.05a1.38 1.38 0 0 0-.72-.79.14.14 0 0 1 .06-.15c.28-.2.5-.42.64-.66.1-.15.1-.3-.03-.42-.11-.14-.26-.16-.45-.07-.1.05-.21.18-.32.38-.08.16-.13.32-.17.47l-.01.03c-.03.02-.07.02-.14.01a2.5 2.5 0 0 0-1.22-.5 2.2 2.2 0 0 0-1.83.54l-.12.02a.94.94 0 0 1-.47-.27c-.1-.1-.18-.23-.24-.4a.1.1 0 0 1 0-.08.11.11 0 0 1 .06-.05h.01a.11.11 0 0 1 .12.02.1.1 0 0 1 .02.03c.08.23.24.41.48.54a.04.04 0 0 0 .05 0l.15-.15.01-.01v-.01c-.02-.4-.17-.66-.44-.81a.83.83 0 0 0-.29-.1c-.14-.01-.22.02-.26.1a.7.7 0 0 0-.06.22c-.04.46.12.78.5.97l.04.02h.05c.1 0 .15.03.17.1l-.03.04a3.15 3.15 0 0 0-.82.93l-.23-.06a3.33 3.33 0 0 1 .67-.84v-.02a.56.56 0 0 0-.07-.04 1.15 1.15 0 0 1-.47-.65c-.07-.24-.06-.47.01-.7.06-.18.2-.28.43-.28.19 0 .37.05.54.16a1.1 1.1 0 0 1 .48.82h.01a.03.03 0 0 0 .03 0c.8-.38 1.6-.37 2.4.01a2.3 2.3 0 0 1 .3.15.02.02 0 0 0 .01 0c.07-.24.17-.43.3-.58.18-.2.37-.3.6-.27.2.02.34.1.44.26.12.2.11.41-.03.63a2.43 2.43 0 0 1-.53.58v.02c.02 0 .03.03.06.05a2.06 2.06 0 0 1 .54.76.04.04 0 0 0 .03 0c.11-.02.17 0 .16.1 0 0 0 .02-.02.03a.08.08 0 0 1-.04.02l-.2.05h-.01l-.03.02.01.01h.01c.11-.01.21 0 .31.05l.02.02.02.03a.07.07 0 0 1-.01.05l-.01.01c0 .02-.02.03-.03.03h-.05L12 6.83h-.01c.01.03.03.05.06.07.4.3.5.73.3 1.3-.07.2-.2.37-.4.53a.32.32 0 0 0-.09.12v.03l.02.01h.02c.32-.01.74.07 1.25.25.3.11.52.26.67.46.19.26.23.5.12.73-.1.23-.33.35-.67.34a5.93 5.93 0 0 1-.97-.08.03.03 0 0 0 0 .02c.19.42.54.61 1.05.58a.11.11 0 0 1 .09.03.1.1 0 0 1 .02.04.1.1 0 0 1 0 .05c-.1.58-.76.95-1.94 1.11h-.02v.01l-.01.01v.02c.06.32-.03.52-.26.6-.71.25-1.28.35-1.7.27-.18-.03-.3-.12-.38-.26a1.25 1.25 0 0 1-.08-.47v-.01h-.02l-.02-.01-.45.04h-.01l-.01.01a.02.02 0 0 0 0 .02c.09.34.1.69.04 1.03-.03.16-.15.25-.35.28-.5.07-.99.05-1.47-.05a.84.84 0 0 1-.57-.37c-.08-.13-.1-.32-.05-.57l-.01-.06a.13.13 0 0 0-.05-.06c-.18-.11-.4-.17-.67-.16-.24 0-.47.06-.68.16-.07.03-.13.02-.17-.02a.1.1 0 0 1 0-.14 8 8 0 0 0 1.31-1.6c-.01-.3.01-.63.08-.94a.78.78 0 0 0-.02-.5c-.07-.14-.2-.34-.42-.59-.1-.1-.16-.19-.2-.24-.25-.32-.32-.75-.23-1.29.02-.13.06-.25.1-.35Z" fill="#3E0E02"/><path d="m7.42 5.35-.1.13c-.02-.08-.08-.11-.17-.11H7.1c-.02 0-.03 0-.05-.02-.37-.19-.53-.51-.49-.97a.7.7 0 0 1 .06-.23c.04-.07.12-.1.26-.08.1.01.2.04.29.09.27.15.42.42.44.8V5l-.16.14-.02.01h-.02a.96.96 0 0 1-.49-.54.1.1 0 0 0-.02-.03.11.11 0 0 0-.12-.03h-.01a.11.11 0 0 0-.06.06.1.1 0 0 0 0 .08c.06.17.14.3.24.4.15.15.3.24.47.27Z" fill="#D1924E"/><path d="m5 5.54-.2-.83.49-.4h.03l.02.01v.03a.1.1 0 0 1 0 .05c0 .02-.02.04-.03.05l-.32.3v.03H5l.29-.24.02-.01h.02l.02.01.01.03.02.15-.01.07c0 .02-.02.04-.04.05l-.15.14v.03h.03l.1-.05a.02.02 0 0 1 .02 0v.02l.06.46v.02l-.02.02c-.1.09-.21.1-.36.06Z" fill="#FEFEFF"/><path d="m11.01 5.7-.09-.14a.13.13 0 0 0-.03-.03l-.3-.24c.07.01.11 0 .14-.01l.01-.03c.04-.15.1-.3.17-.47.1-.2.21-.33.32-.38.19-.09.34-.07.45.07.12.13.13.27.03.42-.15.24-.36.45-.64.66a.14.14 0 0 0-.06.15Z" fill="#D1924E"/><path d="m10.6 5.3.3.23.02.03.1.14c.33.16.57.42.71.79v.05l-.03.06v.03l.01.02c.01.02.04.02.07.03h.01v.01a.02.02 0 0 1 .01.02c-.01.03 0 .07.02.11v.05a.12.12 0 0 0-.05.06c0 .02.01.04.04.06.23.18.36.37.39.58.04.35-.06.66-.3.92a.25.25 0 0 1-.2.08 25.62 25.62 0 0 1-4.62-.36.2.2 0 0 1-.1-.05.18.18 0 0 1-.05-.09 2.96 2.96 0 0 0-.49-1.04h.3c.05.16.14.3.3.4.01.02.04.03.07.03.1 0 .21 0 .34-.05.13-.03.24-.1.32-.2.08-.1.12-.21.12-.32.01-.28-.15-.42-.5-.43-.28-.01-.5 0-.67.02a.6.6 0 0 0-.25-.04 3.15 3.15 0 0 1 .82-.93.67.67 0 0 1 .03-.04l.1-.12.12-.02.03-.01a2.2 2.2 0 0 1 1.8-.53c.45.06.86.23 1.22.5Z" fill="#FFCB9B"/><path d="M10.81 5.27c.08-.03.12-.05.13-.07l.17-.23a.13.13 0 0 1 .07-.04h.1a.1.1 0 0 1 .03.03.1.1 0 0 1 .02.07.1.1 0 0 1-.01.04c-.09.13-.19.25-.3.35a.17.17 0 0 1-.18.02c-.06-.03-.08-.07-.07-.13 0 0 0-.02.02-.02l.02-.02ZM10.75 5.98h.04l.03.03.02.04c.01.03 0 .08-.05.12a.66.66 0 0 1-.21.13l-.2.08a.7.7 0 0 1-.24.06c-.07 0-.12-.02-.14-.05L10 6.35v-.04L10 6.3l.74-.3ZM8.3 6.2 7.55 6c-.06-.01-.12.02-.13.07v.01c-.02.06.01.11.07.13l.77.2c.05 0 .12-.02.13-.08.02-.06-.01-.12-.07-.13Z" fill="#3E0E02"/><path d="M9.12 6.26c.66-.07 1.03.18 1.11.73.03.21-.02.4-.14.54a.74.74 0 0 1-.54.28c-.61.06-.98-.02-1.1-.26a.88.88 0 0 1 .06-.9.78.78 0 0 1 .61-.4Z" fill="#CC8040"/><path d="M11.23 6.36c.13.05.2.13.24.22.08.18.03.35-.14.5-.15.14-.31.2-.48.2-.17-.02-.3-.12-.4-.3-.09-.15-.07-.27.05-.38a.92.92 0 0 1 .7-.25.1.1 0 0 1 .03 0ZM6.75 7.02c.05 0 .07-.03.06-.08a6.02 6.02 0 0 1-.09-.46c.16-.03.39-.03.67-.02.35 0 .51.15.5.43 0 .1-.04.21-.12.31a.61.61 0 0 1-.32.21 1.1 1.1 0 0 1-.34.05.13.13 0 0 1-.08-.02.7.7 0 0 1-.28-.42Z" fill="#F3B48A"/><path d="M9.27 6.69V6.6l.04-.03.2-.1h.06a.06.06 0 0 1 .01.06l-.01.03a.5.5 0 0 1-.23.13l-.02.02v.02l.03.29.02.06.05.06.25.18.02.01a.05.05 0 0 1 0 .05l-.01.02h-.01a.08.08 0 0 1-.1 0l-.26-.19h-.04l-.23.21a.08.08 0 0 1-.1 0h-.02l-.01-.02a.04.04 0 0 1 0-.05l.28-.25.02-.02v-.03l-.03-.28v-.02l.02-.02.06-.03h.01v-.02ZM9.17 6.6l-.22-.11a.07.07 0 0 0-.09.03c-.02.03 0 .07.03.08l.22.11c.03.02.07 0 .09-.02a.06.06 0 0 0-.03-.09Z" fill="#3E0E02"/><path d="m4.92 6.93-.02-.25a.06.06 0 0 1 .02-.04l.02-.02h.03l1.58-.04.05.01.02.04.02.2a.06.06 0 0 1-.01.05l-.02.02h-.03L4.98 7a.07.07 0 0 1-.04-.02l-.02-.02v-.02ZM5.45 7.08l.43-.02.03.01.01.03.1.84a.04.04 0 0 1-.01.03l-.02.01h-.01L5.55 8l-.03-.01-.02-.03-.1-.84a.04.04 0 0 1 .02-.03l.01-.01h.02Z" fill="#876DA8"/><path d="M6.54 7.66 6.17 8a9.87 9.87 0 0 1-.1-.93h.02a.05.05 0 0 1 .04 0l.15.13.04.04.22.42Z" fill="#985424"/><path d="m6.54 7.66.17.48v.03c0 .02 0 .05-.02.08a3.35 3.35 0 0 0 .05 1.1c.03.16.15.25.33.3a39.1 39.1 0 0 0 2.98.5c.33.04.7.04 1.09 0a1.47 1.47 0 0 0 .73-.27h.01l.01.01c.12.56.03 1.09-.27 1.58a1.36 1.36 0 0 1-.25.3l-.01-.01v-.01a3.56 3.56 0 0 0-.07-.38c-.02-.09-.08-.12-.18-.1a.85.85 0 0 1-.06-.3v-.04c-.07-.1-.22-.06-.43.1l-.01.01a.1.1 0 0 0-.04.04 1.4 1.4 0 0 0-.06.72c.01.26-.1.45-.33.56l-.19.07-.2.07-.5.04a4.8 4.8 0 0 1-.02-1.23c.02-.29.2-.49.53-.6.25-.08.5-.13.74-.14.16 0 .3.03.42.11.14.1.2.2.17.35 0 .03 0 .05.02.08l.07.05a.1.1 0 0 0 .11-.04.1.1 0 0 0 .02-.03c.05-.2-.01-.38-.18-.53a.83.83 0 0 0-.58-.2c-.36 0-.7.07-1 .2-.24.1-.4.24-.48.44a2.04 2.04 0 0 0-.1.73c-.28 0-.48 0-.63-.03-.32-.06-.6-.2-.81-.42a2.63 2.63 0 0 1-.26-.28 5.07 5.07 0 0 1-.67-1.3l-.02-.05a2.36 2.36 0 0 0-.36-.54.86.86 0 0 0-.61-.24 1.75 1.75 0 0 1-.3-.46l.2-.07a3.06 3.06 0 0 0 .48-.24.2.2 0 0 0 .1 0h.03v-.02L6.18 8l.37-.34Z" fill="#FFCB9B"/><path d="M5.37 8c0 .07.02.1.07.1h.59l-.1.05a3.05 3.05 0 0 1-.57.26.9.9 0 0 1-.03-.62.01.01 0 0 1 .02 0l.02.22Z" fill="#985424"/><path d="M11.63 8.95c-.2-.02-.4 0-.63.06a47.78 47.78 0 0 1-2.07-.08.1.1 0 0 0-.04.05v.03a.09.09 0 0 0 0 .08l.04.03a10.2 10.2 0 0 0 2.34.09c.1-.02.23-.05.4-.11l.09.28a.1.1 0 0 1 0 .04v.07c.02.08.01.13 0 .16-.11.16-.37.26-.8.3-.28.03-.57.02-.88-.01A25.72 25.72 0 0 1 7 9.37a.1.1 0 0 1-.03-.04.32.32 0 0 1 0-.26c.18.04.35.1.53.17a3.7 3.7 0 0 0 .8.25l.15.03a1.57 1.57 0 0 1 .35.1 7.6 7.6 0 0 0 2.1.15c.06-.01.13-.05.23-.12l.01-.02V9.6c-.02-.06-.08-.09-.17-.08a6.43 6.43 0 0 1-2.43-.22 1.16 1.16 0 0 0-.37-.09l-.59-.16a.19.19 0 0 1-.04-.02L7.49 9v-.02h.01l.67.07h.26l.03-.01.02-.02a.07.07 0 0 0 0-.06c-.03-.1-.15-.14-.37-.13-.04 0-.1 0-.19-.02a6.7 6.7 0 0 1-1-.22l-.02-.1v-.03l.01-.02.02-.01h.03a11.5 11.5 0 0 0 .94.13c.23.04.4.06.5.06.1 0 .22.02.34.04a1.64 1.64 0 0 0 .19.03.03.03 0 0 0-.01 0 41.47 41.47 0 0 0 2.7.13v.13Z" fill="#07878B"/><path d="m6.97 9.07-.05-.48a6.7 6.7 0 0 0 1.19.24c.22-.01.34.03.38.13a.06.06 0 0 1-.01.06l-.02.02h-.03a.88.88 0 0 1-.26.01A14.17 14.17 0 0 0 7.5 9l.05.03.04.02.6.16c.14.02.26.05.36.1l.09.01c.05 0 .13.02.26.06l.26.06.84.1c.33.02.66 0 .98-.02.1-.01.15.02.17.08v.03l-.01.02c-.1.07-.17.1-.23.11a7.61 7.61 0 0 1-2.17-.17 1.57 1.57 0 0 0-.28-.07 3.7 3.7 0 0 1-.96-.29 4.19 4.19 0 0 0-.52-.16Z" fill="#0A6065"/><path d="m9 11.73.02.6v.02l-.03.02a6.1 6.1 0 0 1-1.4-.01c-1.03-.1-1.52-.63-1.46-1.57.01-.3.04-.52.08-.68a.73.73 0 0 0 .01-.32 2.42 2.42 0 0 0-.57-.92c.25 0 .45.08.61.24.1.1.22.28.36.54l.02.04c.03.06.1.2.19.44.11.27.27.56.48.87.03.05.12.14.26.28.22.22.49.36.81.42.15.03.35.04.62.03Z" fill="#F3B48A"/><path d="m11.63 8.95.03.15c-.16.06-.3.1-.4.1a10.2 10.2 0 0 1-2.33-.08.1.1 0 0 1-.04-.03.1.1 0 0 1 0-.08v-.03a.1.1 0 0 1 .04-.05 1.9 1.9 0 0 1 2.7.02Z" fill="#0A6065"/><path d="M13.37 9.48c-.05.26-.07.47-.05.65 0 .07.03.18.08.32a6.7 6.7 0 0 1-1.22-.12v-.02c-.01-.23-.05-.43-.1-.61a2.44 2.44 0 0 1-.07-.24 1.74 1.74 0 0 0-.1-.34V9.1l.01-.01.19.01c.45.06.87.18 1.26.37Z" fill="#D1924E"/><path d="M13.37 9.48c.24.15.37.35.38.59 0 .11-.02.2-.08.26a.42.42 0 0 1-.27.12 1.45 1.45 0 0 1-.08-.32c-.02-.18 0-.4.05-.65Z" fill="#985424"/><path d="M12.13 10.85v-.01h.02a1.25 1.25 0 0 0 .98.58.02.02 0 0 1 .01.03c-.02.1-.14.22-.35.35-.17.1-.33.17-.49.22a5.73 5.73 0 0 1-.84.17c-.03-.04-.04-.09-.04-.15 0-.02.02-.03.03-.04.1-.08.18-.17.25-.27.21-.28.35-.58.43-.88Z" fill="#07878B"/><path d="M11.11 11.27c-.04.02-.06.06-.05.12l.15.93c-.46.09-.93.15-1.41.18l.2-.07.18-.07c.24-.11.34-.3.33-.56v-.07c-.03-.29 0-.5.06-.65a.1.1 0 0 1 .04-.04v-.01c.22-.16.37-.2.43-.1l.01.03c0 .11.02.21.06.31Z" fill="#F3B48A"/><path d="M6.17 12.65a1 1 0 0 1-.1-.04 1.66 1.66 0 0 0-.92-.12v-.02l.18-.22a7.12 7.12 0 0 0 .63-.76c.08.18.19.37.33.57.02.02.02.04.02.07l-.1.5v.01h-.04Z" fill="#07878B"/><path d="M8.4 13.17c-.34.09-.6.14-.77.16-.37.04-.78-.08-1.22-.36a3.1 3.1 0 0 0 .11-.72.02.02 0 0 1 .02 0 3.68 3.68 0 0 0 1.75.38c.01 0 .02 0 .02.02.06.16.09.34.1.52Z" fill="#FFCB9B"/><path d="M11.21 12.32a1.02 1.02 0 0 1 .05.47s0 .02-.02.02a.59.59 0 0 1-.17.08l-.17.06c-.66.2-1.14.25-1.45.14a.13.13 0 0 1-.05-.04.12.12 0 0 1-.03-.06l-.08-.45.5-.04c.49-.03.96-.1 1.42-.18ZM6.41 12.98c.44.27.85.39 1.22.35.17-.02.43-.07.77-.16.02.18 0 .34-.04.49 0 .02-.02.05-.04.06a.14.14 0 0 1-.07.03c-1.03.1-1.64 0-1.83-.31-.1-.14-.1-.3-.01-.46Z" fill="#985424"/></svg>