<!-- by TradingView --><svg width="18" height="18" viewBox="0 0 18 18" xmlns="http://www.w3.org/2000/svg"><path fill="#3B6FEF" d="M0 0h18v18H0z"/><path fill-rule="evenodd" d="M6.7 4.42c.04-.24.28-.42.55-.42h3.38c.66 0 1.5.18 2.2.73.7.56 1.17 1.46 1.17 2.77 0 1.36-.65 2.26-1.5 2.8-.82.53-1.79.7-2.44.7h-.65l-.48 2.58c-.05.24-.28.42-.55.42H5.55a.6.6 0 0 1-.43-.18.46.46 0 0 1-.12-.4L5.84 9h-.28C5.26 9 5 8.78 5 8.5s.25-.5.56-.5h.46l.2-1h-.66C5.26 7 5 6.78 5 6.5s.25-.5.56-.5h.84l.3-1.58ZM7.35 7l-.19 1h2.9c.1 0 .26-.03.38-.1.09-.06.19-.16.19-.4 0-.24-.1-.34-.2-.4a.76.76 0 0 0-.37-.1h-2.7Zm-.37 2h3.08c.28 0 .68-.07 1.03-.3.38-.24.66-.64.66-1.2 0-.56-.28-.96-.66-1.2-.35-.23-.75-.3-1.03-.3H7.54l.19-1h2.9c.46 0 1.01.12 1.45.47.42.34.8.94.8 2.03a2.2 2.2 0 0 1-1.04 2c-.58.37-1.3.5-1.78.5H8.94c-.28 0-.51.18-.56.42L7.9 13H6.23l.75-4Z" fill="#fff"/></svg>