<!-- by TradingView --><svg width="18" height="18" viewBox="0 0 18 18" xmlns="http://www.w3.org/2000/svg"><path fill="#F0F3FA" d="M0 0h18v18H0z"/><path d="M12 4.77v3.52L11 9V5.48L8 3.7 8.95 3 12 4.77ZM7 4l3 1.66V7L7 5.34 4 7V5.66L7 4ZM6 9.71v3.52L9.05 15l.95-.71-3-1.77V9l-1 .71ZM4 8.25V12l1 .75V9.01l3-1.88-.95-.75L4 8.25Zm4 2.25 5 2.96V15l-5-2.96V10.5Zm6-4.55v3.57l-1.78 1.05L14 11.6v1.53l-4.29-2.51L13 8.82V5.25l1 .7Z" fill="url(#a)"/><defs><linearGradient id="a" x1="14" y1="9" x2="4" y2="9" gradientUnits="userSpaceOnUse"><stop stop-color="#063196"/><stop offset="1" stop-color="#010206"/></linearGradient></defs></svg>