<!-- by TradingView --><svg width="18" height="18" viewBox="0 0 18 18" xmlns="http://www.w3.org/2000/svg"><path fill="url(#a)" d="M0 0h18v18H0z"/><path d="M15 9c0 1.66-1.48 3-3.3 3-.97 0-1.85-.38-2.45-.98.33-.34.57-.82.72-1.2.31.58.96.98 1.71.98 1.07 0 1.93-.8 1.93-1.8s-.86-1.8-1.93-1.8c-1.06 0-1.93.8-1.93 1.8l.01.13c-.07 1.68-1.5 2.4-2.26 2.56v-1.14c.8-.38.86-1.32.88-1.74 0-.25.12-.62.18-.8l.01.01A3.3 3.3 0 0 1 11.7 6C13.52 6 15 7.34 15 9ZM6.34 6c1.26 0 2.16.66 2.45.99a2.9 2.9 0 0 0-.6 1.17c-.61-.85-1.42-1-1.85-1-.3 0-2.06.24-2.06 1.86 0 .96.69 1.47 1.3 1.7v-.05c0-.37.35-.67.8-.67.44 0 .8.3.8.67v1.66c0 .37-.36.67-.8.67-.45 0-.8-.3-.8-.67v-.39C4.33 11.7 3 10.62 3 9.02 3 7.17 4.76 6 6.34 6Zm5.02 2.36v1.18l1.29-.58-1.29-.6Z" fill="#fff"/><defs><linearGradient id="a" x1="18" y1="9" x2="0" y2="14.01" gradientUnits="userSpaceOnUse"><stop stop-color="#7666FD"/><stop offset="1" stop-color="#5D27EC"/></linearGradient></defs></svg>