<!-- by TradingView --><svg width="18" height="18" viewBox="0 0 18 18" xmlns="http://www.w3.org/2000/svg"><path fill="url(#ay1xxfqxy)" d="M0 0h18v18H0z"/><path d="M5.4 4.44c-.27-.03-.58 0-.8.17-.12.1-.22.2-.3.3-.03.03-.05.03-.05-.03 0-.03 0-.05.02-.07l.15-.24c.05-.1.12-.15.19-.23a2.28 2.28 0 0 1 .46-.3c.12-.03.3-.05.52-.03.16 0 .32.06.5.16.35.2.64.47.88.82.04.06.06.12.09.19a13.32 13.32 0 0 1-.19.88c-.04.14-.06.29-.07.43l-.02.05a.06.06 0 0 1-.05.01h-.1c-.03 0-.05 0-.05-.04 0-.3 0-.63-.09-.9a2.6 2.6 0 0 0-.28-.63c-.2-.3-.48-.5-.81-.54ZM13.77 4.9a.03.03 0 0 1 0 .03h-.02c0 .01 0 .01 0 0-.08-.06-.1-.15-.19-.2-.12-.08-.22-.2-.37-.24-.2-.06-.42-.07-.65-.03-.2.03-.4.14-.57.32-.17.16-.3.37-.39.63-.1.25-.1.55-.15.82 0 .03-.02.04-.04.03l-.3-.04a.07.07 0 0 1-.05-.02c-.12-.16-.18-.4-.25-.6v-.06c.04-.13.1-.26.15-.37.24-.43.57-.77.99-1 .17-.1.33-.15.47-.16.26-.02.46 0 .6.07.1.05.2.1.3.17.1.06.16.15.24.24.11.1.15.27.23.4Z" fill="#EEB48E"/><path d="M6.45 6.06c-.15-.39-.4-.54-.72-.44a.45.45 0 0 0-.24.15c-.2.24-.27.51-.35.81-.05.19-.06.38-.02.58L5 7.39a.45.45 0 0 0-.05.25c.02.1.06.2.14.27.11.11.2.2.24.27v.1l.2.3c.04.05.08.05.14.06.02 0 .03.02.04.03a.9.9 0 0 1-.15.45.05.05 0 0 1-.04.02.92.92 0 0 1-.43-.1c-.37-.2-.6-.57-.77-.97-.12-.28-.16-.57-.24-.87a3.7 3.7 0 0 1 0-1.5c.02-.12.06-.26.12-.4.04-.12.1-.24.2-.34.11-.16.27-.28.46-.36.37-.16.63-.06.95.11l.15.13c.06.08.13.12.18.21.1.18.2.33.23.53.04.15.06.3.08.48ZM12.43 8.66c.27-.28.4-.61.38-1 .16-.2.25-.39.28-.56.03-.2-.05-.39-.24-.53a1.78 1.78 0 0 0-.27-.73.51.51 0 0 0-.45-.25c-.15 0-.34.04-.41.2a2.1 2.1 0 0 1-.14.26c-.03.01-.05 0-.04-.04.05-.3.13-.57.23-.79.12-.25.3-.44.54-.57.5-.28 1.11-.08 1.39.43l.07.1c.04.06.07.12.09.2.11.45.16.88.13 1.29-.01.25-.08.5-.11.75-.02.14-.06.28-.1.42l-.17.4c-.16.37-.4.64-.7.81a.59.59 0 0 1-.26.08c-.03 0-.04-.01-.05-.03l-.17-.44Z" fill="#EB7F72"/><path d="M10.87 6.17a4.14 4.14 0 0 1-1.45.52 4.4 4.4 0 0 1-1.48 0l-.9-.17c-.08-.01-.11-.06-.1-.15.05-.26.05-.52.14-.77.05-.12.09-.25.12-.37.04-.17.13-.36.26-.55.05-.06.1-.09.18-.08l.38.1c.2.08.4.2.62.3.08.04.17.06.25.07.4.03.77 0 1.1-.12.34-.1.56.29.64.57.07.22.18.4.25.63a.02.02 0 0 1-.01.02Z" fill="#1C2956"/><path d="m6.45 6.06.04.47c0 .02 0 .03-.03.04l-.67.21c-.25.09-.45.23-.67.38-.04-.2-.03-.4.02-.58.08-.3.16-.57.35-.81a.45.45 0 0 1 .24-.15c.32-.1.57.05.72.44ZM12.85 6.57c-.23-.08-.46-.19-.7-.22l-.57-.07c-.05 0-.07-.03-.06-.09l.02-.18c0 .04 0 .05.04.04l.01-.01c.05-.08.1-.16.13-.25.07-.16.26-.2.41-.2.2 0 .35.09.45.25.14.22.23.46.27.73ZM6.8 7.16l.08-.55v-.02l.02-.02a.05.05 0 0 1 .04 0c.27.1.56.17.85.2.5.05.99.06 1.5.03.22-.02.43-.05.6-.1a4.05 4.05 0 0 0 1-.43.08.08 0 0 1 .06.03l.02.03c.07.14.12.3.17.45l-.01.1a.13.13 0 0 1-.06.07c-.12.05-.23.11-.35.18-.2.12-.44.17-.66.26a6.64 6.64 0 0 1-1.45.18 6.45 6.45 0 0 1-1.09-.13c-.19-.04-.42-.1-.68-.2-.03-.02-.05-.04-.04-.08Z" fill="#B53737"/><path d="M9.28 8.73a4.77 4.77 0 0 1-.8-.11l-.87-.23c-.2-.06-.4-.16-.58-.26a.42.42 0 0 1-.19-.22l.01-.05c.18-.23.34-.11.54-.11a6.53 6.53 0 0 1 1.06-.04c.64.03 1.25-.06 1.84-.27.35-.11.66-.28.95-.5a.12.12 0 0 0 .04-.06v-.09l-.17-.38v-.05l.02-.01a7.84 7.84 0 0 1 1.32.2c.3.07.7.31.47.72-.18.3-.4.52-.66.66-.1.06-.18.14-.29.19-.28.12-.54.24-.84.33-.6.17-1.22.26-1.85.28Z" fill="#1C2956"/><path d="M8.07 7.7c-.29.03-.51.05-.68.05-.2 0-.36-.12-.54.1a.05.05 0 0 0 0 .06c.04.1.1.18.18.22.18.1.38.2.58.25a36.64 36.64 0 0 0 1.1.27c.2.04.38.06.57.08a6.4 6.4 0 0 1-1.3-.02l-.53-.04c-.34-.03-.65-.1-.98-.18-.15-.03-.3-.08-.43-.13a2.11 2.11 0 0 1-.88-.53c-.21-.24-.04-.57.18-.7a3 3 0 0 1 1.4-.45l.02.01a.05.05 0 0 1 .01.04c-.01.13-.04.25-.06.38-.02.12.02.2.13.25.22.08.43.1.65.18l.58.16Z" fill="#141E3E"/><path d="M12.8 7.67c.02.38-.1.71-.37.99a1.76 1.76 0 0 0-.16-.51c-.01-.02 0-.04.01-.05l.53-.43ZM5.71 8.67a.08.08 0 0 0-.04-.03l-.29-.34a.1.1 0 0 1-.01-.03v-.02c0-.04-.01-.04-.02 0l-.02.03v-.1l.1.01c.09.06.17.12.26.16l.04.04v.05l-.02.23Z" fill="#B53737"/><path d="M9.18 9.35c.47.02.88.2 1.22.46L9.17 11.4a.43.43 0 0 0-.05-.03.47.47 0 0 0-.07.04L7.94 9.74c.35-.24.77-.4 1.24-.39Z" fill="#807F7F"/><path d="M10.02 9.74c.21-.2.53-.58.84-.53h.01v.02c.03.19 0 .43-.14.56-.08.06-.13.16-.23.19a.67.67 0 0 1-.64-.09l-.01-.02a.04.04 0 0 1 0-.03l.02-.01c.06-.03.1-.05.15-.1ZM7.94 10.04c-.27.13-.5.1-.71-.1a.7.7 0 0 1-.22-.6c0-.01.01-.03.03-.03.13 0 .31.02.4.13.06.07.15.1.21.18a1.88 1.88 0 0 0 .41.34.03.03 0 0 1 0 .03h-.01l-.1.05Z" fill="#FFFEFE"/><path fill-rule="evenodd" d="m12.92 10.68-.04-.35a.49.49 0 0 0-.13-.17c-.16-.1-.15-.14.03-.12.08 0 .15.02.23.03.05 0 .07-.01.04-.06a.97.97 0 0 0-.13-.2c-.05-.05-.1-.1-.13-.17l-.1-.15a1.23 1.23 0 0 1-.11-.2l-.08-.16c-.05-.1-.1-.2-.12-.32a2.08 2.08 0 0 0-.23-.63.06.06 0 0 0-.04-.02l-.03.01c-.14.1-.27.17-.44.22l-.24.08c-.17.07-.34.13-.55.16l-.35.07c-.74.2-1.49.2-2.3.16a6.1 6.1 0 0 1-.94-.1l-.7-.14a2.9 2.9 0 0 1-.66-.21H5.9l-.02.01v.02c-.03.2-.1.43-.18.68l-.1.21-.08.13a2.35 2.35 0 0 1-.43.6.05.05 0 0 0 0 .03l.02.02h.06a8.53 8.53 0 0 1 .34-.06v.05l-.03.03a.72.72 0 0 0-.3.31c.02.1.05.18.1.23l.04.02c.03 0 .06 0 .09-.02a.04.04 0 0 1 .04 0l.01.03v.02a1.31 1.31 0 0 0 0 .79.02.02 0 0 0 .02 0c.02-.01.03-.03.03-.05 0-.02 0-.03.02-.04.05-.06.13-.03.17.03.04.06.09.1.14.15a4.8 4.8 0 0 0 2.07.92c.13.04.23.03.3 0-.11-.09-.3-.21-.32-.37a.58.58 0 0 1 0-.2c.01-.03.03-.06.05-.07l.03-.03c.03-.02.04-.02.03.02-.04.1-.02.22.07.34.05.08.13.13.24.15.19.04.57.01.67-.2a.2.2 0 0 0-.02-.23.1.1 0 0 0-.04-.03.87.87 0 0 1-.47-.47.31.31 0 0 1-.03-.16c.02-.15.26-.26.38-.28.3-.06.63-.03.86.22.05.05.06.1.05.17a.77.77 0 0 1-.5.53.06.06 0 0 0-.04.04c-.04.1-.02.18.06.24.18.14.39.2.63.2.26-.02.4-.19.38-.5 0-.07.02-.07.05-.01.09.16.06.3-.04.45l-.1.15.76-.16.38-.13.2-.08c.09-.03.18-.06.27-.11a4.8 4.8 0 0 0 .82-.54l.03.12c0 .02.01.03.03.04h.05a.08.08 0 0 0 .03-.04 1.16 1.16 0 0 0-.02-.87v-.02h.03l.17.02h.02v-.03Zm-1.77-1.15a.3.3 0 0 0-.07.17c0 .02 0 .04-.02.06-.14.26-.35.43-.63.53-.17.06-.35 0-.52-.08a.57.57 0 0 1-.16-.12 1 1 0 0 0-.09-.09.44.44 0 0 1-.09-.1c-.03-.05-.06-.1-.1-.12-.02-.02-.02-.03 0-.04.22-.04.37-.2.52-.36.11-.12.23-.24.37-.32l.1-.05c.08-.04.15-.08.24-.1a.6.6 0 0 1 .55.14c.02.01.02.03.02.04l-.01.05a.08.08 0 0 0-.02.06c.02.18.05.4-.04.56-.03.04-.04.04-.03-.02l.01-.2c0-.03-.01-.03-.03 0Zm-4.41.13.01.14c.02.05 0 .06-.03.02-.08-.1-.06-.41-.05-.53l-.01-.04a.1.1 0 0 0-.04-.02l-.02-.01v-.05l.01-.02c.11-.06.22-.1.35-.13.1-.02.22 0 .35.04.18.05.34.15.48.3l.35.34c.08.07.16.1.26.12.08.02.09.05.02.1l-.15.16a.82.82 0 0 1-.17.16l-.02.02c-.14.1-.32.22-.48.17-.11-.03-.23-.09-.36-.16a1.11 1.11 0 0 1-.48-.61c-.01-.04-.02-.03-.02 0Zm3.04.94c-.41-.32-.84-.33-1.29-.03a.74.74 0 0 0-.2.14c-.03.03-.04.02-.03-.01.07-.17.31-.3.46-.37a.98.98 0 0 1 .42-.07c.3 0 .7.18.86.48v.01l-.01.01h-.02a.53.53 0 0 0-.19-.16Zm2.57.78.03-.33V11a.06.06 0 0 0-.05-.02l-.35-.05a.06.06 0 0 1-.04-.03.07.07 0 0 1-.01-.05l.08-.43a.07.07 0 0 0-.03-.07l-.02-.01-.31-.07a.06.06 0 0 0-.05.02.07.07 0 0 0-.02.04l-.06.38a.07.07 0 0 1-.02.05.06.06 0 0 1-.05 0l-.39-.06h-.04a.07.07 0 0 0-.03.05l-.08.33v.02a.07.07 0 0 0 .03.05l.02.01.38.07h.02a.07.07 0 0 1 .03.05v.03l-.1.41a.07.07 0 0 0 .01.05.06.06 0 0 0 .05.03l.32.06.04-.01a.07.07 0 0 0 .03-.04l.08-.39c0-.02.01-.03.03-.04l.04-.01.4.07a.06.06 0 0 0 .04-.01l.02-.02v-.03Z" fill="#476091"/><path d="M12.88 10.33c.3.25.37.63.35 1.03 0 .02-.01.03-.03.03-.02 0-.03-.01-.04-.03a.28.28 0 0 0-.06-.12c-.06-.08-.1-.06-.1.05.01.21-.01.43-.12.62-.1.17-.12.32-.3.44a.02.02 0 0 1-.02 0v-.02l.01-.65c0-.01 0-.02-.02-.03l-.02.01c-.06.36-.23.65-.5.86-.16.12-.35.25-.53.3l-.37.1c-.2.06-.41.06-.62.12a.11.11 0 0 1-.09-.02 3.38 3.38 0 0 1-.53-.45v-.02h.02l.24-.07.75-.16.38-.13c.16-.07.31-.1.47-.19a4.81 4.81 0 0 0 .82-.54l.03.12c0 .02.01.03.03.04h.05a.08.08 0 0 0 .03-.04 1.16 1.16 0 0 0-.02-.87v-.02a.03.03 0 0 1 .03 0l.17.02h.02v-.03l-.03-.35Z" fill="#1F3B66"/><path d="M9.78 10.6a.8.8 0 0 1-.21-.06.76.76 0 0 0-.2-.06 1.85 1.85 0 0 0-.53.01.95.95 0 0 0-.16.07.23.23 0 0 1-.19 0c.45-.3.88-.28 1.3.04ZM11.65 11.66l-.01.04c0 .02-.02.03-.03.02l-.14-.05c-.02 0-.03-.02-.03-.04l.08-.44a5.83 5.83 0 0 1 .2-.75h.03l.1.01c.05.01.06.04.05.08a5.1 5.1 0 0 0-.24 1.1v.03Z" fill="#FFFEFE"/><path d="M5.17 10.44c.01.1.05.18.1.23l.04.02c.03 0 .06 0 .09-.02a.04.04 0 0 1 .04 0l.01.03v.02a1.31 1.31 0 0 0 0 .79.02.02 0 0 0 .02 0c.02-.01.03-.03.03-.05 0-.02 0-.03.02-.04.05-.06.13-.03.17.03.04.06.09.1.14.15a4.8 4.8 0 0 0 2.07.92c.13.04.23.03.3 0 .14.02.28.02.43 0l.04.01c.02 0 .02.02.03.04l.06.3.02.05.05.02h.47c.03 0 .05-.02.06-.04a.24.24 0 0 0 .06-.1v-.01l.03-.01h.01l.02.01.3.53v.02a.03.03 0 0 1 0 .02h-.02c-.2.04-.4.1-.61.1a3.2 3.2 0 0 1-1.06-.2c-.12-.05-.2-.12-.3-.18-.14-.08-.3-.08-.46-.12-.61-.14-1.18-.3-1.57-.85a.06.06 0 0 0-.05-.03h-.02l-.01.02a.04.04 0 0 0 0 .03l.03.18c0 .03-.02.05-.06.05H5.6a.08.08 0 0 1-.03-.03c-.05-.09-.1-.16-.17-.23-.15-.18-.22-.57-.23-.79-.01-.1-.04-.1-.08-.01l-.03.07a.04.04 0 0 1-.03.02c-.03 0-.04 0-.05-.03v-.03c.01-.33.07-.63.18-.89Z" fill="#1F3B66"/><path d="m11.45 10.92-.32-.1c-.02 0-.04 0-.04.03l-.04.16c0 .01 0 .03.02.04l.33.1.03-.03.04-.16c0-.02 0-.04-.02-.04ZM12.25 11.1l-.3-.09c-.01 0-.04.01-.04.03l-.03.15c-.01.02 0 .04.02.05l.3.08c.01 0 .04-.01.04-.03l.03-.15c0-.02 0-.04-.02-.05Z" fill="#FFFEFE"/><path d="M8.59 11.23c.12-.07.25-.07.38-.08.2 0 .45 0 .58.15.01.02.02.04.01.06-.07.22-.29.36-.48.47a.05.05 0 0 1-.07 0 1.74 1.74 0 0 0-.2-.17c-.1-.06-.18-.2-.25-.3a.1.1 0 0 1 0-.07.1.1 0 0 1 .03-.06Z" fill="#B53737"/><path d="M9.15 12.36v-.01h.01l.07.01.07.05a.22.22 0 0 1 .05.15v.01c0 .06-.02.11-.06.15a.18.18 0 0 1-.13.06h-.01v-.42ZM8.83 12.46a.4.4 0 0 0 .13-.1c.03-.02.04-.01.04.02l-.01.36c0 .02-.01.03-.03.03-.03 0-.06 0-.07-.04a2.95 2.95 0 0 1-.08-.25l.02-.02Z" fill="#FFFEFE"/><path d="m9.7 12.58.13.14a.06.06 0 0 1 .01.04.06.06 0 0 1-.02.04l-.1.1a.05.05 0 0 1-.04 0h-.02l-.02-.02-.13-.26a.06.06 0 0 1 0-.06l.02-.01h.03l.1.02.04.01Z" fill="#EEB48E"/><path d="M9.8 13.13c-.05-.07-.04-.13.02-.17l.14-.11H10l.56.44c.02.01.02.02 0 .03-.1.05-.18.11-.27.18-.06.04-.07.1-.1.17v.02a.04.04 0 0 1-.05 0l-.02-.02c-.1-.2-.2-.38-.32-.54Z" fill="#FFFEFE"/><path d="M10.56 13.78c.13-.12.2-.27.16-.33-.05-.06-.2-.01-.33.1-.14.13-.2.28-.16.34.05.06.2.01.33-.11Z" fill="#B53737"/><defs><linearGradient id="ay1xxfqxy" x1="3.35" y1="3.12" x2="21.9" y2="24.43" gradientUnits="userSpaceOnUse"><stop stop-color="#1A1E21"/><stop offset="1" stop-color="#06060A"/></linearGradient></defs></svg>