<!-- by TradingView --><svg width="18" height="18" viewBox="0 0 18 18" xmlns="http://www.w3.org/2000/svg"><path fill="#F0F3FA" d="M0 0h18v18H0z"/><path d="M15 8.67C14.84 7.2 13.26 5.6 12.53 5v3.2l2.47.47Z" fill="url(#aiu2rv4jd)"/><path d="M7.5 6 4 5.5l6.24 6.47.35-.15L7.5 6Z" fill="url(#biu2rv4jd)"/><path d="M9.7 7.03 7.5 6l3.09 5.82-.88-4.79Z" fill="url(#ciu2rv4jd)"/><path d="M12.53 5 9.7 7.03l.88 4.8 1.94-3.64V5Z" fill="url(#diu2rv4jd)"/><path d="M6 8H4l6.24 3.97L6 8Z" fill="url(#eiu2rv4jd)"/><path d="M4 5.5H3l7.24 6.47L4 5.5Z" fill="url(#fiu2rv4jd)"/><path d="M7 9.5 4.41 14 7 12.5v-3Z" fill="url(#giu2rv4jd)"/><path d="M10.24 11.97 7 9.5v3l3.24-.53Z" fill="url(#hiu2rv4jd)"/><defs><linearGradient id="aiu2rv4jd" x1="12.6" y1="5.67" x2="14.28" y2="8.78" gradientUnits="userSpaceOnUse"><stop stop-color="#170964"/><stop offset="1" stop-color="#3418C2"/></linearGradient><linearGradient id="biu2rv4jd" x1="5.2" y1="5.83" x2="9.07" y2="12.34" gradientUnits="userSpaceOnUse"><stop stop-color="#462CCB"/><stop offset="1" stop-color="#1D0485"/></linearGradient><linearGradient id="ciu2rv4jd" x1="9.2" y1="6.83" x2="9.48" y2="10.68" gradientUnits="userSpaceOnUse"><stop stop-color="#2D1897"/><stop offset="1" stop-color="#11006D"/></linearGradient><linearGradient id="diu2rv4jd" x1="11.1" y1="5" x2="11.1" y2="11.83" gradientUnits="userSpaceOnUse"><stop stop-color="#4123DB"/><stop offset="1" stop-color="#1D01B6"/></linearGradient><linearGradient id="eiu2rv4jd" x1="4.4" y1="8.17" x2="9.4" y2="12.72" gradientUnits="userSpaceOnUse"><stop stop-color="#221476"/><stop offset="1" stop-color="#12075A"/></linearGradient><linearGradient id="fiu2rv4jd" x1="3.6" y1="5.67" x2="8.9" y2="12.8" gradientUnits="userSpaceOnUse"><stop stop-color="#140466"/><stop offset="1" stop-color="#2609A3"/></linearGradient><linearGradient id="giu2rv4jd" x1="7.4" y1="10.5" x2="5.09" y2="14.56" gradientUnits="userSpaceOnUse"><stop stop-color="#2420B2"/><stop offset="1" stop-color="#180289"/></linearGradient><linearGradient id="hiu2rv4jd" x1="9.2" y1="11.17" x2="7.49" y2="12.81" gradientUnits="userSpaceOnUse"><stop stop-color="#2717B5"/><stop offset="1" stop-color="#190392"/></linearGradient></defs></svg>