<!-- by TradingView --><svg width="18" height="18" viewBox="0 0 18 18" xmlns="http://www.w3.org/2000/svg"><path fill="#F0F3FA" d="M0 0h18v18H0z"/><path d="m9 11.28-4-2.2L6.16 7.5 9 9.07v2.2Z" fill="url(#abz0lhtdk)"/><path d="M9 8.24 6.45 6.88 7.6 5.23l1.41.8v2.2Z" fill="url(#bbz0lhtdk)"/><path d="M9 12 5.18 9.9 9 15v-3Z" fill="#7F8183"/><path d="m9 11.28 4-2.2-1.16-1.58L9 9.07v2.2Z" fill="url(#cbz0lhtdk)"/><path d="m9 8.24 2.55-1.36-1.14-1.65-1.41.8v2.2Z" fill="url(#dbz0lhtdk)"/><path d="m9 12 3.82-2.1L9 15v-3Z" fill="#303232"/><path d="m9 5.35-1.1-.7L9 3v2.35Z" fill="#FDC12D"/><path d="m9 5.35 1.1-.7L9 3v2.35Z" fill="#CD8F33"/><defs><linearGradient id="abz0lhtdk" x1="5.15" y1="9.16" x2="8.89" y2="9.33" gradientUnits="userSpaceOnUse"><stop stop-color="#C72220"/><stop offset="1" stop-color="#E61A15"/></linearGradient><linearGradient id="bbz0lhtdk" x1="6.45" y1="6.28" x2="9.26" y2="6.28" gradientUnits="userSpaceOnUse"><stop offset=".12" stop-color="#C72220"/><stop offset="1" stop-color="#E61A15"/></linearGradient><linearGradient id="cbz0lhtdk" x1="13.15" y1="8.68" x2="9.09" y2="8.97" gradientUnits="userSpaceOnUse"><stop stop-color="#871C1F"/><stop offset="1" stop-color="#AC2528"/></linearGradient><linearGradient id="dbz0lhtdk" x1="11.63" y1="6.73" x2="8.91" y2="7.14" gradientUnits="userSpaceOnUse"><stop stop-color="#851C1F"/><stop offset="1" stop-color="#AA2427"/></linearGradient></defs></svg>