<!-- by TradingView --><svg width="18" height="18" viewBox="0 0 18 18" xmlns="http://www.w3.org/2000/svg"><path fill="url(#a)" d="M0 0h18v18H0z"/><path d="M9.77 9.31a2.02 2.02 0 0 1 3.07.91 2 2 0 0 1-.12 1.73c-.2.36-.52.66-.88.84-.27.14-.57.21-.88.21H6.9a2.02 2.02 0 0 1-1.89-2.03v-.86l.14.14c.8.8 2.09 1.03 3.08.5.32-.18.59-.4.82-.68.23-.26.44-.55.72-.76Zm-4-3.85c-.1.08-.06.5-.05.6a2.17 2.17 0 0 0 .89 1.61c.66.48 1.57.52 2.28.12.37-.22.86-.71 1.26-.91.38-.2.75-.3 1.17-.23.42.06.84.25 1.14.55.4.4.54 1 .54 1.51v.53a2.64 2.64 0 0 0-2.17-1.02c-.37.03-.72.13-1.04.3-.84.38-1.38 1.54-2.8 1.54-.68 0-1.59-.42-1.9-1.45-.14-.5-.08-1.05-.08-1.56 0 0 .02-.33.06-.48.1-.43.35-.83.7-1.1ZM10.38 5c.48 0 .98 0 1.42.19.37.16.69.45.9.8.17.3.28.64.29.99-.17-.17-.33-.33-.53-.47-.94-.63-2.08-.52-3.18.23-.71.5-1.54.2-1.86-.07-.3-.26-.48-.62-.53-1.01-.02-.16-.08-.65.18-.65l3.3-.01Z" fill="url(#b)"/><defs><linearGradient id="a" x1="15.36" y1="1.17" x2="9.47" y2="18.18" gradientUnits="userSpaceOnUse"><stop stop-color="#24239B"/><stop offset=".52" stop-color="#02020A"/><stop offset="1" stop-color="#152671"/></linearGradient><linearGradient id="b" x1="10.6" y1="5.52" x2="9.37" y2="11.25" gradientUnits="userSpaceOnUse"><stop stop-color="#30E8FA"/><stop offset="1" stop-color="#1F91FF"/></linearGradient></defs></svg>