<!-- by TradingView --><svg width="18" height="18" viewBox="0 0 18 18" xmlns="http://www.w3.org/2000/svg"><path fill="url(#a)" d="M0 0h18v18H0z"/><path d="m12.54 5.56-1.38.02a16.43 16.43 0 0 0-2.64-.47.01.01 0 0 0 0 .02h.01a.4.4 0 0 1 .13.03h.04c.7.13 1.37.37 2 .7-.26.03-.52.01-.79-.05A7.83 7.83 0 0 0 7.4 5h.01c1.25-.04 2.5.04 3.72.22.48.08.96.19 1.42.33Z" fill="#FDFCFD"/><path d="M10.7 5.86c.66.34 1.25.83 1.65 1.44l-.01.02-.03.02-.67.17a3.5 3.5 0 0 0-1.73-1.7c.27.07.53.08.8.05Z" fill="url(#b)"/><path d="M12.54 5.56c.38.12.83.32 1.12.6.46.4.43 1.04.06 1.5a2.99 2.99 0 0 1-.97.78v.01h-.04c-.32.17-.6.29-1 .44-1.8.58-3.72.78-5.58.8-.24 0-.42-.03-.53-.07a.91.91 0 0 1 .03-1.72c.1-.04.3-.05.56-.05h.92c1.37-.02 2.61-.1 3.74-.21l.8-.13.66-.17.03-.02V7.3l.02.01c.3-.1.8-.33.63-.72a.93.93 0 0 0-.33-.36c-.45-.3-.97-.5-1.5-.65l1.38-.02Z" fill="url(#c)"/><path d="M12.71 8.45h.04a3.44 3.44 0 0 1-1.03 2.66c-.42.42-.9.76-1.46 1.03a9.6 9.6 0 0 1-4.5.85.7.7 0 0 1-.37-.15.9.9 0 0 1 .24-1.6c.09-.04.23-.06.44-.06.48 0 .97-.03 1.45-.07h.1c1.47-.18 3.55-.63 4.08-2.22.41-.15.69-.27 1.01-.44Z" fill="url(#d)"/><defs><linearGradient id="a" x1="3.35" y1="3.12" x2="21.9" y2="24.43" gradientUnits="userSpaceOnUse"><stop stop-color="#1A1E21"/><stop offset="1" stop-color="#06060A"/></linearGradient><linearGradient id="b" x1="11.13" y1="5.81" x2="11.55" y2="7.34" gradientUnits="userSpaceOnUse"><stop stop-color="#FDFCFD"/><stop offset="1" stop-color="#E4DBFF"/></linearGradient><linearGradient id="c" x1="10.61" y1="5.56" x2="10.64" y2="8.83" gradientUnits="userSpaceOnUse"><stop stop-color="#FDFCFD"/><stop offset="1" stop-color="#ECFB3E"/></linearGradient><linearGradient id="d" x1="8.88" y1="8.45" x2="8.88" y2="13" gradientUnits="userSpaceOnUse"><stop stop-color="#D1C2FF"/><stop offset=".65" stop-color="#B49AFF"/></linearGradient></defs></svg>