<!-- by TradingView --><svg width="18" height="18" viewBox="0 0 18 18" xmlns="http://www.w3.org/2000/svg"><path fill="#006AFE" d="M0 0h18v18H0z"/><path d="M9.86 9.5c.14.21.4.32.65.33.64.04 1.18.23 1.58.8.7.98.47 2.4-.5 3.05-.99.68-2.3.24-2.77-.92a2.13 2.13 0 0 1 .04-1.77c.12-.26.26-.53.16-.86-.13-.42-.52-.68-.92-.57-.23.06-.37.24-.52.49l-.3.43c-1.1 1.17-2.93.55-3.24-1.07-.25-1.33.72-2.57 2-2.5.64.04 1.15.4 1.5.99.12.18.2.29.25.34.33.33.93.27 1.17-.2.23-.43 0-.8-.15-1.16-.18-.44-.2-.88-.1-1.32.32-1.3 1.64-1.93 2.73-1.34.96.53 1.35 1.82.83 2.86-.28.55-.7.9-1.26 1.03-.16.04-.37.05-.54.06-.63.05-.96.77-.6 1.34Z" fill="#fff"/></svg>