<!-- by TradingView --><svg width="18" height="18" viewBox="0 0 18 18" xmlns="http://www.w3.org/2000/svg"><path fill="#F0F3FA" d="M0 0h18v18H0z"/><path d="M9 4a4 4 0 0 1 3.77 2.6 3.64 3.64 0 0 1-.58 3.55h-.01l-1.26-.75v-.01a.01.01 0 0 1 0-.01c.39-.5.62-1.12.56-1.74A2.47 2.47 0 0 0 9 5.38c-1.31 0-2.38.98-2.48 2.26a2.48 2.48 0 0 0 .56 1.75l-1.26.75H5.8a3.64 3.64 0 0 1-.56-3.55A4 4 0 0 1 9 4Z"/><path d="M9 9.99a4.32 4.32 0 0 1 2.64.94v.02L10.72 12h-.02a2.45 2.45 0 0 0-1.7-.63 2.45 2.45 0 0 0-1.72.64.02.02 0 0 1-.02 0l-.9-1.05a.04.04 0 0 1-.01-.03.03.03 0 0 1 .01-.02A4.32 4.32 0 0 1 9 9.99ZM9 12.37a1.7 1.7 0 0 1 1.04.4.03.03 0 0 1 0 .03v.01L9 14h-.02l-1.03-1.2a.03.03 0 0 1 0-.02.03.03 0 0 1 0-.02A1.7 1.7 0 0 1 9 12.37Z" fill="#822CE9"/></svg>