<!-- by TradingView --><svg width="18" height="18" viewBox="0 0 18 18" xmlns="http://www.w3.org/2000/svg"><path fill="#0B70FF" d="M0 0h18v18H0z"/><path d="M6.08 8.1c0 .6-.38 1.08-.9 1.07l.85 1.5h.34V11H5.22v-.33h.37l-.81-1.5H4v1.5h.41V11h-.95v-.33h.24V7.33h-.24V7H5.1c.55 0 .98.46.98 1.1Zm-1-.77H4v1.5h1.15c.34 0 .63-.34.64-.72.02-.41-.35-.78-.71-.78Zm3.02 1.4c.35.1.83.26 1.04.6.06.1.1.2.12.32.03.11.04.23.03.34a1.14 1.14 0 0 1-.34.67c-.3.31-.71.34-.9.34h-.03A1.57 1.57 0 0 1 7 10.55V11h-.3V9.67H7v.32c.24.43.73.68 1.14.68.39 0 .94-.38.86-.89-.08-.43-.66-.62-.98-.71l-.16-.05L7.82 9c-.47-.14-1.02-.3-1-1C6.8 7.3 7.35 7 7.87 7c.35 0 .55.14.83.37V7H9v1.3h-.3v-.4c-.24-.4-.48-.56-.82-.57-.32 0-.75.24-.78.68.03.41.4.52.72.62.1.03.2.06.28.1Zm5.92.12c.33.14.52.48.52.98 0 .72-.54 1.17-1.2 1.17-.41 0-.8-.19-1.13-.56l.22-.31.02.02c.24.32.59.52.9.52a.9.9 0 0 0 .9-.86.8.8 0 0 0-.8-.81H13v-.33h.43c.35 0 .68-.24.68-.64 0-.42-.33-.7-.79-.7-.37 0-.57.23-.7.44l-.26-.19c.24-.45.61-.58.96-.58.63 0 1.08.31 1.08 1 0 .32-.1.67-.38.85Zm-1.96.48c-.21-.34-.69-.5-1.05-.6l-.27-.1c-.33-.1-.7-.2-.72-.62.03-.44.45-.68.78-.68.34.01.57.17.82.57v.4h.3V7h-.3v.37c-.27-.23-.47-.36-.82-.37-.52 0-1.08.3-1.07 1-.02.7.54.87 1.01 1l.03.02.17.05c.32.09.9.28.98.71.08.5-.47.88-.86.89-.42 0-.95-.25-1.19-.68v-.32h-.29V11h.3v-.45c.28.28.69.44 1.06.45h.03c.19 0 .6-.03.9-.34.09-.09.16-.18.21-.3.06-.11.1-.24.12-.37.01-.11 0-.23-.02-.34a.87.87 0 0 0-.12-.32ZM2 8.67h1v.66H2v-.66Zm13 0h1v.66h-1v-.66Z" fill="#fff"/></svg>