<!-- by TradingView --><svg width="18" height="18" viewBox="0 0 18 18" xmlns="http://www.w3.org/2000/svg"><path fill="#181B1E" d="M0 0h18v18H0z"/><path d="M12.57 6a.2.2 0 0 1-.17.14h-.06l-.27-.18a.12.12 0 0 0-.07-.02h-.16c-.03 0-.04-.01-.04-.04a1.26 1.26 0 0 0-.62-1.02 1.48 1.48 0 0 0-.5-.18 3.5 3.5 0 0 1-1.56-.64.22.22 0 0 0-.13-.06h-.15c-.03 0-.04.02-.04.04l-.01.1-.03.03a.08.08 0 0 1-.03 0l-.47.05a.12.12 0 0 0-.07.03.1.1 0 0 0-.03.07c0 .09 0 .16-.08.23-.12.11-.24.19-.36.22l-.47.17a.24.24 0 0 0-.1.07c-.06.08-.03.12.07.14a.74.74 0 0 0-.11.08c-.02.02-.03.03-.03.05 0 .03 0 .05.02.06a.1.1 0 0 0 .09.01c.05-.01.1-.04.15-.1a.12.12 0 0 1 .05-.03.75.75 0 0 1 .27-.03 2.4 2.4 0 0 0 .44.01v.02l.01.01v.05l-.02.01-.01.01h-.03c-.18 0-.6-.01-.74.1a.79.79 0 0 1-.14.08c-.2.1-.28.14-.34.33 0-.04-.02-.07-.04-.09a.05.05 0 0 0-.06 0l-.59.43-.33.04c-.13.02-.2-.03-.21-.14a.68.68 0 0 1 .05-.37v-.06a3.8 3.8 0 0 1-.05-.18.45.45 0 0 1 .13-.52l.35-.3c.3-.26.69-.51 1.02-.74.05-.02.12-.1.22-.22a.12.12 0 0 1 .06-.04.4.4 0 0 0 .1-.05c.07-.04.07-.08.03-.13-.03-.03-.06-.05-.08-.05l-.08-.01a.06.06 0 0 1-.04-.05.53.53 0 0 1-.02-.29c0-.02.03-.03.05-.04.14-.01.25.02.33.09.02.01.03.03.03.05l.02.24c0 .01 0 .02.02.03l.02.02a.06.06 0 0 0 .06-.01.31.31 0 0 0 .1-.15c.02-.04.06-.05.13-.05.02 0 .04.02.04.04a.1.1 0 0 1-.02.05c0 .02-.02.04-.04.05-.1.04-.15.12-.12.23l.02.03.02.02a.08.08 0 0 0 .07 0c.1-.04.15-.09.18-.16 0-.02.02-.04.04-.05.06-.04.12-.14.22-.16l.13-.02c.37 0 .7-.02 1-.04.22-.02.43-.01.62.02.03 0 .05.02.06.04l.03.08c.01.02.03.03.05.03.25 0 .7.33.94.46l.25.13c.1.02.31.02.67.01.14 0 .23.06.25.19v.07c.03.12-.03.18-.17.16-.26-.03-.33.02-.21.15l.03.02h.75a.1.1 0 0 1 .06.02c.14.1-.28 1.19-.35 1.4Z" fill="#593731"/><path d="M11.76 6.54c.02-.01.03-.03.03-.05V6.2c0-.02 0-.03.02-.04a.08.08 0 0 1 .04-.03c.19-.04.32 0 .39.13a.1.1 0 0 0 .05.05l.08.02c.02.01.04.03.04.05.04.22.03.44-.02.65a.1.1 0 0 1-.04.06.38.38 0 0 0-.13.25l-.02.05c-.07.1-.17.17-.23.3-.09.17-.3.21-.4.34-.09.1-.14.18-.15.21a.88.88 0 0 1-.13.37c-.21.25-.47.45-.77.58-.25.06-.46.09-.63.09a.96.96 0 0 1-.28-.06c.04-.04.04-.08 0-.1a.09.09 0 0 0-.04-.02H9.5c-.41.23-.83.29-1.23.17a5.7 5.7 0 0 0-.76-.2L7.1 8.7a3.19 3.19 0 0 1-.22-.35c-.07-.12-.06-.24-.06-.37l-.01-.02-.02-.02-.02-.01h-.03c-.08 0-.13.06-.13.16v.01l-.02.01a.04.04 0 0 1-.04 0 3.24 3.24 0 0 1-.43-.35.57.57 0 0 1-.17-.27c-.04-.16-.14-.27-.16-.43l-.02-.61c0-.06.03-.08.08-.08.14 0 .26-.02.36-.03a.6.6 0 0 0 .3-.15c.13-.11.23-.23.32-.37.06-.2.14-.23.34-.33a.79.79 0 0 0 .14-.08c.15-.11.56-.1.74-.1a.06.06 0 0 0 .04 0l.02-.02V5.22L8.1 5.2a.04.04 0 0 0-.03 0l-.4-.01c-.1-.01-.2.01-.28.03a.12.12 0 0 0-.05.04.35.35 0 0 1-.15.1.1.1 0 0 1-.09-.02.06.06 0 0 1-.02-.06c0-.02 0-.03.03-.05a.74.74 0 0 1 .1-.08.4.4 0 0 1 .24-.18l.22-.06.26-.1a.7.7 0 0 0 .22-.14l.13-.12a.34.34 0 0 1 .15-.1c.16-.05.27-.07.32-.07.38 0 .65.02.8.07.05.01.16.1.36.24.02.02.07.04.14.04l.8.14c.07.01.16.07.26.15.17.13.3.27.4.42.05.07.08.19.08.37 0 .24 0 .44-.02.6-.06.37-.15.3.19.13Z" fill="#FFBB7F"/><path d="M10.5 5.89c-.07.04-.14.04-.2-.02-.01-.03-.02-.05 0-.07a.1.1 0 0 1 .14-.02c.05.04.07.07.05.1Z" fill="#100F12"/><path d="M10.3 5.87c.06.06.13.06.2.02l.42.11c.21.17.34.34.39.52-.19-.12-.31-.13-.38-.02a.25.25 0 0 0-.18-.14.77.77 0 0 0-.45.05c-.1-.03-.17-.01-.23.07-.01.02 0 .04.02.04h.08c-.12 0-.21.01-.28.06-.02-.04-.06-.06-.1-.04a.4.4 0 0 0-.16.09c-.05-.1-.18-.07-.38.1.05-.17.14-.33.27-.47a.58.58 0 0 1 .16-.09c.05-.02.1-.05.15-.1.14-.1.3-.17.47-.2Z" fill="#FA8870"/><path d="M10.93 6.5c0 .13.03.22.11.26.12.06.12.11 0 .16l-.06.02-.02.02v.22a.1.1 0 0 1-.03.08.12.12 0 0 1-.07.04c-.3.06-.62.06-.95 0-.02 0-.04-.01-.04-.03-.03-.23-.02-.46.02-.7a.44.44 0 0 1 .28-.04.2.2 0 0 0 .13-.12c.15-.06.3-.08.45-.05.08.02.14.06.18.14Z" fill="#100F12"/><path d="M10.3 6.41a.2.2 0 0 1-.13.12h-.08c-.03-.01-.03-.03-.02-.05.06-.08.13-.1.23-.07Z" fill="#FEE3D3"/><path d="m11.3 6.52.15.27c.07.07.08.18.05.33-.1 0-.14.05-.13.15l-.28.34a1 1 0 0 0-.38.25l-.65-.06a.33.33 0 0 0-.19-.07c-.07 0-.13-.05-.17-.15l-.07-.14-.03-.11c-.06-.23-.11-.29-.16-.2a.83.83 0 0 1 0-.33c.01-.02.02-.04.05-.04.08-.03.13-.07.14-.13a.4.4 0 0 1 .16-.1c.04 0 .08 0 .1.05-.04.23-.05.46-.02.69 0 .02.02.03.04.03.33.06.65.06.95 0l.07-.04a.1.1 0 0 0 .02-.07v-.2l.01-.03.02-.02.06-.02c.12-.05.12-.1 0-.16-.08-.04-.11-.13-.1-.26.06-.11.18-.1.37.02Z" fill="#FEE3D3"/><path d="M9.63 6.63c-.01.06-.06.1-.14.13-.03 0-.04.02-.04.04a.83.83 0 0 0-.01.33c-.11.02-.18-.02-.2-.13v-.27c.21-.17.34-.2.4-.1ZM11.5 7.12c.05.01.07.05.07.12 0 .03-.02.06-.06.07-.06.02-.1 0-.14-.04-.01-.1.03-.15.13-.15Z" fill="#100F12"/><path d="M10.7 7.86a1 1 0 0 1 .39-.25l.16-.09c.03-.01.05 0 .06.02v.04c-.01.03-.03.06-.05.06l-.3.12a.1.1 0 0 0-.04.03c-.04.05-.11.07-.21.07ZM9.87 7.73c.09.01.15.03.19.07-.16.07-.22.05-.19-.07Z" fill="#593731"/><path d="M9.51 9.1a.9.9 0 0 0-.12.12c-.06.09-.04.11.06.08.05 0 .1-.03.16-.07.11.04.2.06.28.06.17 0 .38-.03.63-.1-.21.07-.4.2-.54.38-.06.07-.18.11-.35.11-.1 0-.2 0-.3-.03a.94.94 0 0 0-.28-.02l-.32.02a.25.25 0 0 1-.23-.1l-.02-.01h-.03a.06.06 0 0 0-.05.02v.01l-.04.02c-.07.01-.12 0-.18-.02a39.81 39.81 0 0 0-.31-.12.52.52 0 0 1-.15-.08 2.23 2.23 0 0 1-.62-.68l.42.4a5.7 5.7 0 0 1 .76.2c.4.1.82.05 1.23-.19Z" fill="#D5946C"/><path d="M9.61 9.23a.76.76 0 0 1-.16.07c-.1.03-.12 0-.06-.08a.9.9 0 0 1 .12-.12h.06l.05.02c.03.03.03.07 0 .11Z" fill="#593731"/><path d="M10.36 10.3c-.06.1-.15.18-.25.25a.76.76 0 0 1-.3.11c-.19.04-.37.1-.54.16a1.4 1.4 0 0 1-.63.04.87.87 0 0 1-.4-.17.45.45 0 0 1-.1-.11.31.31 0 0 0-.12-.12c-.17-.08-.16-.14 0-.19l.54-.12c.37-.09.78-.05 1.15-.03a.3.3 0 0 1 .14.04c.06.04.11.06.19.07.1.01.2.04.32.08Z" fill="#FFBB7F"/><path d="M8.64 10.86c.3.03.5.02.63-.04.17-.07.35-.12.54-.16a.76.76 0 0 0 .3-.1c.1-.08.19-.16.25-.25.46-.02.86.13 1.2.43l.66.58c.2.2.36.37.46.54.12.2.21.42.27.65.02.15.02.31-.02.47 0 .01 0 .02-.02.02h-.02a.03.03 0 0 1-.02-.01v-.02a.96.96 0 0 0-.02-.36l-.1-.4a1.3 1.3 0 0 0-.36-.54.07.07 0 0 0-.06-.02c-.77.11-1.39.31-1.88.9-.18.22-.35.5-.51.83-.22-.17-.43-.36-.63-.54a.84.84 0 0 0-.17-.13c-.12-.06-.28-.13-.39-.22l-.16-.15c-.1-.16-.1-.3.03-.43.07-.08.18-.12.33-.11.22 0 .4.06.55.17l.03.02h.02l.04-.01c.04 0 .04-.03.02-.05a.95.95 0 0 0-.72-.3c-.41 0-.57.3-.52.63l-2.72-.63c.17-.2.31-.35.44-.46.24-.2.42-.36.54-.5.21-.06.49-.2.68-.32.1-.05.2-.07.33-.06a4.34 4.34 0 0 0 .3.29c.2.22.44.3.7.28Z" fill="#354258"/><path d="M12.95 12.5c.03.13.04.25.05.36 0 .1-.04.15-.13.18-.11.04-.23.11-.35.22l-.02.04v.01l.02.02h.1a.32.32 0 0 1-.1.04c-.24 0-.47.02-.7.06l-.15-.77c0-.01-.01-.03-.03-.03l-.03-.01c-.02 0-.03 0-.03.02v.4c-.03.35-.01 1.01.04 1.96H6.18l.02-1.07.03.06.02.02h.04l.01-.02a.43.43 0 0 0 .05-.14 3.86 3.86 0 0 0 .02-1.22c-.08-.1-.12-.09-.12.02L6.2 13.8c-.01-.13-.09-.2-.23-.2-.35 0-.58-.42-.83-.49-.12-.16-.16-.32-.13-.46a18.23 18.23 0 0 0 .42-.77c.05-.1.12-.18.22-.24l2.72.63c.06.15.17.28.32.38.18.12.4.19.56.31.24.2.44.37.61.54.12.12.01.37-.08.48a.1.1 0 0 1-.06.03c-.11.03-.2.06-.25.09-.12.06-.11.1.02.1.08 0 .16 0 .25-.03.08-.02.14-.09.18-.2.1-.23.1-.42.02-.58.16-.33.33-.6.51-.83.49-.59 1.12-.79 1.88-.9.03 0 .04 0 .06.02.16.15.28.33.35.54l.11.4a.96.96 0 0 1 .02.37V13a.02.02 0 0 0 .02 0h.02l.02-.01c.04-.16.04-.32.02-.47Z" fill="#2F3446"/><path d="M9.94 13.38c.08.16.07.35-.02.58-.04.11-.1.18-.18.2a.93.93 0 0 1-.25.03c-.13 0-.14-.04-.02-.1.05-.03.14-.06.25-.09a.1.1 0 0 0 .06-.03c.1-.1.2-.36.08-.48a8.4 8.4 0 0 0-.6-.54c-.16-.12-.39-.19-.57-.3a.85.85 0 0 1-.32-.39c-.05-.32.1-.64.52-.63.31.01.55.1.72.3.02.02.02.04-.02.05H9.5a.88.88 0 0 0-.55-.18c-.15 0-.26.03-.33.1-.13.14-.13.28-.03.44l.16.15c.11.1.27.16.39.22a10.84 10.84 0 0 0 .8.68ZM6.2 13.93v-.14l.05-1.14c0-.11.04-.12.12-.02l.01.08c.05.38.04.76-.03 1.14 0 .05-.03.1-.05.14l-.01.01-.02.01h-.02l-.02-.02-.03-.06ZM11.82 13.43l-.01 1.54h-.2a22.54 22.54 0 0 1-.03-2.33c0-.02.01-.03.03-.02h.03l.03.04.15.77Z" fill="#100F12"/><path d="M6.2 13.8v.13L6.18 15H5.13l.01-1.9c.25.07.48.48.83.5.14 0 .22.06.23.2ZM12.86 15h-1.05v-1.57c.24-.04.47-.05.7-.06.02 0 .06-.01.11-.04.04-.08.1-.13.18-.12.02 0 .04.01.04.03.06.35.02.76.02 1V15Z" fill="#FEAC7A"/><path d="M10.7 4.07c.22.21.43.35.46.32.03-.03-.12-.22-.34-.43-.22-.2-.43-.35-.46-.31-.03.03.12.22.34.42ZM10.19 5.13c.1.07.23.09.4.05a.08.08 0 0 1 .06.01c.06.04.06.08 0 .11a.72.72 0 0 1-.46.03.12.12 0 0 1-.06-.04.1.1 0 0 1-.03-.06v-.06c0-.06.03-.08.09-.04Z" fill="#100F12"/><path d="M8.44 6.01c.08.15.14.25.19.28.07.07.12.06.14-.03-.01.15.03.25.15.3-.2-.05-.32-.03-.38.04a.4.4 0 0 0-.15-.01c-.04 0-.06.03-.06.1.02-.07 0-.11-.04-.12a3.48 3.48 0 0 0-1 0c-.12-.04-.2-.01-.24.06 0-.05-.03-.08-.1-.08h-.22l.55-.52.16-.04c.34-.06.67-.05 1 .02Z" fill="#FA8870"/><path d="M8.77 6.26c-.02.09-.07.1-.14.03-.05-.03-.1-.13-.2-.28.14.06.25.14.34.25ZM11.86 6.6c.16-.04.1-.2.23-.26a.1.1 0 0 1 .08 0c.02 0 .03.02.03.03l.01.04v.4c0 .04-.01.06-.05.08l-.1.04c-.03 0-.05.03-.05.06v.18c0 .05-.02.09-.06.12a1.1 1.1 0 0 1-.06.03c-.07.02-.1 0-.1-.05l.03-.63c0-.02.01-.04.04-.04ZM8.33 6.69c.04.18 0 .34-.1.47a.43.43 0 0 1-.32.16h-.45c-.1-.02-.16-.03-.19-.13a.98.98 0 0 1 .02-.63c.38-.04.71-.04 1 0 .05.02.06.06.04.13ZM8.92 6.56l.05.64-.01.04a.1.1 0 0 1-.03.04.12.12 0 0 1-.08.03c-.05 0-.08-.02-.07-.03l.08-.5a.05.05 0 0 0-.01-.04l-.02-.01-.03-.01c-.1 0-.2-.05-.26-.12.06-.07.18-.09.38-.04ZM6.73 6.55h.22c.07 0 .1.03.1.08-.02.1-.1.08-.16.12a.06.06 0 0 0-.03.05c-.03.14-.02.3.01.44a.1.1 0 0 1 0 .04c0 .02-.02.03-.04.03h-.05l-.1-.02-.02-.01-.01-.03c-.01-.07-.05-.12-.1-.13a.11.11 0 0 0-.09.02.1.1 0 0 0-.03.03v.32c0 .07-.03.08-.1.05l-.03-.02a.22.22 0 0 1-.12-.16.58.58 0 0 0-.18-.3.09.09 0 0 1-.03-.07v-.37l.01-.03.03-.03c.05-.03.1-.03.14 0 .02 0 .03.02.03.05l.03.23.03.06a.1.1 0 0 0 .07.02c.06 0 .1 0 .15-.04a.34.34 0 0 0 .08-.1.9.9 0 0 1 .2-.23Z" fill="#100F12"/><path d="M7.3 6.56c-.08.2-.09.4-.03.63.03.1.08.11.19.12.13.02.28.02.45 0 .13 0 .23-.05.32-.15.1-.13.14-.29.1-.47 0-.07.02-.1.06-.1l.15.01c.07.07.15.11.26.12h.03l.02.02a.05.05 0 0 1 .01.04l-.08.5c-.18.2-.44.39-.76.57.04 0 .02.02-.06.05a.76.76 0 0 1-.55-.14.14.14 0 0 0-.07-.03c-.12-.01-.26-.05-.33-.15a.52.52 0 0 1-.06-.15.56.56 0 0 0-.08-.19c-.03-.15-.04-.3-.01-.44 0-.02.01-.04.03-.05.07-.04.14-.03.16-.12.04-.07.12-.1.24-.07Z" fill="#FEE3D3"/><path d="M7.96 7.9a5.04 5.04 0 0 1 .56-.25c.05-.02.08-.06.11-.08.13-.07.17-.04.11.09a6.64 6.64 0 0 1-.68.27c-.08.02-.11 0-.1-.03ZM8.83 8.63a.24.24 0 0 1-.13 0 .2.2 0 0 1-.1-.03 1.2 1.2 0 0 0-.4-.21l-.01-.02v-.03h.02c.2.03.4.11.62.24.03.02.03.03 0 .05Z" fill="#593731"/><path d="M8.35 13.9c.02.08.1.13.19.2l.01.01v.05l-.03.01a.22.22 0 0 1-.12 0 .06.06 0 0 1-.05-.04.5.5 0 0 0-.14-.17.06.06 0 0 1-.02-.04l-.01-.42c0-.04.02-.06.07-.07h.03c.02 0 .03.01.03.02l.01.03c-.01.18 0 .32.03.41Z" fill="#100F12"/></svg>