<!-- by TradingView --><svg width="18" height="18" viewBox="0 0 18 18" xmlns="http://www.w3.org/2000/svg"><path fill="#F0F3FA" d="M0 0h18v18H0z"/><path d="M4 5.82c0 .45.5 6 5 9.18 4.5-3.19 5-8.73 5-9.18A8.91 8.91 0 0 0 9 4c-.99.03-3.37.43-5 1.82Z" fill="url(#a5v3kq00p)"/><path d="M4.59 6.26c0 .39.43 5.28 4.41 8.1 3.98-2.82 4.41-7.71 4.41-8.1A7.86 7.86 0 0 0 9 4.65c-.87.02-2.97.38-4.41 1.6Z" fill="#0C195E"/><path d="M6 7.16c0 .28.3 3.81 3 5.84 2.7-2.03 3-5.56 3-5.84A5.15 5.15 0 0 0 9 6c-.6.02-2.02.28-3 1.16Z" fill="#084784"/><path d="M7 7.66c0 .16.2 2.18 2 3.34 1.8-1.16 2-3.18 2-3.34A3.8 3.8 0 0 0 9 7a3.8 3.8 0 0 0-2 .66Z" fill="#007DB7"/><path d="m10.84 7.85-.9.17c-.16-.32-.5-.44-.9-.44s-.86.14-.86.48c0 .33.7.46 1.32.59 1.4.27 1.5.73 1.5 1.12 0 .38-.32 1.23-1.96 1.23-1.31 0-1.9-.62-2.04-.93l.9-.17c.1.32.5.56 1.14.56.64 0 .98-.18.98-.52 0-.33-.34-.48-1.14-.62C7.4 9 7.3 8.68 7.3 8.12 7.3 7.67 7.72 7 9.04 7c1.06 0 1.64.57 1.8.85Z" fill="url(#b5v3kq00p)"/><defs><linearGradient id="a5v3kq00p" x1="4.11" y1="5.91" x2="13.35" y2="9.43" gradientUnits="userSpaceOnUse"><stop stop-color="#7D7D7D"/><stop offset=".55" stop-color="#FEFEFF"/><stop offset="1" stop-color="#8D8E93"/></linearGradient><linearGradient id="b5v3kq00p" x1="11.02" y1="9.62" x2="7.16" y2="9.62" gradientUnits="userSpaceOnUse"><stop stop-color="#D7D6D4"/><stop offset=".15" stop-color="#8A888B"/><stop offset=".62" stop-color="#F1EAF2"/><stop offset=".94" stop-color="#736B69"/></linearGradient></defs></svg>