<!-- by TradingView --><svg width="18" height="18" viewBox="0 0 18 18" xmlns="http://www.w3.org/2000/svg"><path fill="#181B1E" d="M0 0h18v18H0z"/><path d="M13.41 10.56c.67-2.21-.47-3.88-2.48-4.18-.86-.13-1.75-.21-2.68-.25-1.15-.05-2.6-.35-3.1-1.58-.2-.46-.2-.96.02-1.5a.1.1 0 0 1 .03-.04.05.05 0 0 1 .06 0c.02.01.04.03.04.06-.02 1.4.92 2.17 2.1 2.26l2.82.26c1.2.12 2.39.48 3.15 1.52.64.88.8 1.86.45 2.93-.07.22-.17.41-.32.58-.1.13-.14.1-.09-.06Z" fill="#FDFDFE"/><path d="M4.05 8.36c-.05.04-.06.03-.04-.04.33-.94 1.1-1.26 2-1.3.81-.04 1.66-.02 2.55.05.92.08 1.67.45 2.22 1.23.09.13.15.26.18.4.1.34.01.4-.24.16a5.22 5.22 0 0 1-.4-.42 2.37 2.37 0 0 0-1.53-.72 16.21 16.21 0 0 0-3.27-.03c-.52.05-1 .28-1.47.67ZM4.55 9c.17.74.54 1.36 1.12 1.87a3.93 3.93 0 0 0 3.6.94l.16.02c.05 0 .08.04.08.09 0 .32.17.56.49.73a4.7 4.7 0 0 1-4.2-.32 3.62 3.62 0 0 1-1.63-1.82c-.1-.24-.16-.48-.17-.71 0-.18.02-.18.1-.03.19.4.3.82.58 1.17.79.96 1.71 1.5 2.77 1.66.07 0 .14 0 .2-.05a.16.16 0 0 0 .07-.12c0-.04 0-.08-.03-.12a.15.15 0 0 0-.1-.05 3.87 3.87 0 0 1-2.41-1.28 2.26 2.26 0 0 1-.67-1.96L4.55 9Z" fill="#FDFDFE"/><path d="M10.48 10H8.76c-.06 0-.1-.03-.1-.1-.07-.34-.25-.49-.54-.7-.18-.13-.16-.2.05-.2h3.75c.05 0 .08.03.08.09v3.77c0 .15-.06.18-.17.1a3.37 3.37 0 0 1-1.21-2.81c0-.1-.04-.16-.14-.16Z" fill="#FDFDFE"/></svg>