<!-- by TradingView --><svg width="18" height="18" fill="none" xmlns="http://www.w3.org/2000/svg"><path fill="#4A5596" d="M0 0h18v18H0z"/><ellipse cx="13.521" cy="10.48" rx="1.839" ry="1.912" fill="#000300"/><path d="M6.396 9.073c-.345-.018-.47.413-.49.63l1.15.758c.807.466 2.375.964 3.821.466 1.315-.453 1.561-1.736 1.649-1.952.07-.173.087-.723.087-.976.218-.098.624-.377.502-.704-.122-.326-.56-.378-.764-.363-.339-.601-1.834-2.156-4.04-1.18-1.764.78-2.012 2.54-1.915 3.321z" fill="#F5E0CD"/><path d="M11.193 8.57c-.747.544-2.139.788-2.742.842.046.249.804 1.482 1.9 1.07.876-.328.926-1.412.842-1.913z" fill="url(#paint0_linear_1530)"/><path d="M9.933 9.431a.67.67 0 01-.584-.152l1.1-.335c-.058.136-.243.423-.516.487z" fill="#F2F6F9"/><path fill-rule="evenodd" clip-rule="evenodd" d="M9.86 9.095c-1.025.302-1.5.235-1.822.19l-.037-.006.392.191c.078.318.661 1.398 1.895 1.091.952-.237 1.076-1.428.988-2.041l.224-.288c-.25.182-.915.65-1.64.863zm-.444 1.326c-.49-.2-.823-.681-.958-.987a6.86 6.86 0 00.859-.112c.083.07.3.183.593.143a.666.666 0 00.387-.221c.084-.09.147-.19.185-.268.334-.147.582-.305.69-.388.052.331.038.904-.231 1.341-.138-.105-.453-.235-.883-.127-.44.112-.605.432-.642.62zm.056.022c.225.08.481.1.765.018.308-.088.524-.265.671-.482-.122-.093-.42-.223-.836-.118-.424.108-.572.418-.6.582zm.922-1.429c-.148.062-.31.12-.483.17-.174.048-.349.09-.514.122a.76.76 0 00.506.099.61.61 0 00.352-.203c.057-.062.104-.129.14-.188z" fill="#000"/><path d="M9.593 7.89c-.23-.01-.303.239-.31.364.036-.185.176-.252.306-.258.13-.006.222.065.232.137.008.057-.072.118-.114.142.146-.025.17-.136.164-.189.004-.062-.047-.188-.278-.197z" fill="#0C0000"/><path d="M4.533 7.609c-.11-.23-.297-.314-.377-.327-.205-.07-.615.393-.615 2.817 0 3.03 3.212 4.807 5.563 4.807 1.822 0 3.537-1.761 4.166-2.642L12.145 10.1a2.245 2.245 0 01-.91.788c-.492.23-1.323.357-1.677.39-3.932 0-4.887-3.38-5.025-3.668z" fill="#FDA925"/><path fill-rule="evenodd" clip-rule="evenodd" d="M3.636 10.982c-.028-.752-.032-1.597.054-1.942.163-.651.381-1.359.49-1.373.087-.011.327.6.436.906.435 1.037 1.976 3.098 4.655 3.041 1.957-.04 2.73-.73 2.964-1.342l-.09-.173a2.245 2.245 0 01-.91.788c-.492.23-1.323.357-1.677.39-3.623 0-4.718-2.87-4.976-3.546a2.05 2.05 0 00-.05-.122c-.11-.23-.296-.314-.376-.327-.205-.07-.615.393-.615 2.817 0 .308.033.602.095.883z" fill="#FFFFE0"/><path fill-rule="evenodd" clip-rule="evenodd" d="M13.093 11.926h-.201c-1.72 1.63-3.803 1.962-4.628 1.924-2.59-.018-4.018-1.63-4.635-2.894.534 2.505 3.354 3.95 5.473 3.95 1.822 0 3.537-1.761 4.166-2.642l-.175-.338z" fill="#BF6A0F"/><ellipse cx="4.645" cy="10.423" rx=".7" ry=".828" fill="#BF6A0F"/><ellipse rx=".443" ry=".479" transform="matrix(.94566 .32514 -.30327 .9529 5.909 11.851)" fill="#BF6A0F"/><ellipse rx=".493" ry=".533" transform="matrix(.94566 .32514 -.30327 .9529 6.777 13.352)" fill="#BF6A0F"/><ellipse rx=".493" ry=".482" transform="matrix(.94566 .32514 -.30327 .9529 10.981 12.2)" fill="#BF6A0F"/><ellipse rx=".877" ry=".863" transform="matrix(.94566 .32514 -.30327 .9529 9.455 13.71)" fill="#BF6A0F"/><ellipse rx=".29" ry=".391" transform="matrix(.7723 -.63526 .6058 .79562 8.135 8.092)" fill="#02050A"/><ellipse rx=".287" ry=".396" transform="matrix(.9662 -.25777 .23975 .97083 10.65 7.317)" fill="#000005"/><path d="M9.35 3.68c-3.052.18-4.037 2.798-4.148 4.084-.424-2.35 2.443-5.485 5.509-4.33 2.614.984 3.04 3.611 2.856 4.482 0-1.635-1.164-2.92-1.747-3.358-.102.28-.362.82-1.766.333-1.023-.356-.905-.923-.704-1.211z" fill="#fff"/><ellipse cx="13.528" cy="10.479" rx="1.582" ry="1.522" transform="rotate(-90 13.528 10.48)" fill="#C37600"/><path fill-rule="evenodd" clip-rule="evenodd" d="M13.521 12.245c.938 0 1.698-.79 1.698-1.765 0-.975-.76-1.766-1.698-1.766s-1.698.79-1.698 1.765c0 .975.76 1.766 1.698 1.766zm-.003-.291c.784 0 1.419-.66 1.419-1.475 0-.814-.635-1.474-1.418-1.474-.784 0-1.419.66-1.419 1.474 0 .815.635 1.475 1.418 1.475z" fill="#F9C813"/><ellipse rx=".523" ry=".767" transform="matrix(.84923 -.52802 .49883 .8667 11.5 11.04)" fill="#F3E0CF"/><ellipse cx="13.528" cy="10.48" rx="1.48" ry="1.423" transform="rotate(-90 13.528 10.48)" fill="url(#paint1_linear_1530)"/><path fill-rule="evenodd" clip-rule="evenodd" d="M13.832 9.46l.24.062-.054.228a.474.474 0 01.072.782c.097.12.139.286.1.45a.492.492 0 01-.557.381l-.061.255-.24-.063.06-.252-.113-.03-.06.253-.24-.062.06-.252-.4-.103.059-.244.215.055.272-1.137-.216-.056.059-.245.215.056.184.047.052-.216.24.062-.052.216.113.03.052-.217zm-.272.486l.28.072c.074.02.117.112.094.207-.022.095-.102.156-.177.137l-.279-.072.082-.344zm-.22.615l.394.101c.07.018.107.11.084.205-.023.095-.097.158-.166.14l-.393-.1.082-.346z" fill="#F9C813"/><path fill-rule="evenodd" clip-rule="evenodd" d="M5.977 5.06c-.626.979-.809 2.055-.8 2.434.013.576.187 1.236.293 1.511.113.162.238.325.376.483a.743.743 0 01.1-.22.605.605 0 01.388-.26 3.104 3.104 0 01.002-.696c.169-1.486 1.388-2.585 2.607-2.81.604-.112 1.26-.154 1.887.064.63.219 1.225.697 1.712 1.617l.002.003v.004c.061.17.133.462.154.791.021.33.025.7-.121 1.022l-.204.17c.137-.303.258-.865.238-1.186-.02-.318-.09-.6-.147-.763-.478-.9-1.057-1.361-1.662-1.572-.607-.21-1.245-.171-1.843-.06-1.187.218-2.372 1.29-2.536 2.73-.108.956.25 1.676.54 2.041a6.6 6.6 0 00.855.363c.604.21 1.186.325 1.51.325.182-.006.478-.028.776-.071.286-.042.562-.103.74-.186-.001-.216.076-.402.228-.497a.442.442 0 01.333-.049.82.82 0 01.155-.196c.079-.072.184-.13.303-.106l-.017.09c-.08-.017-.159.02-.229.084a.72.72 0 00-.125.154c.187.07.372.23.503.458.237.41.206.882-.068 1.052-.274.17-.688-.024-.924-.435a1.22 1.22 0 01-.133-.335 3.419 3.419 0 01-.737.177 7.72 7.72 0 01-.799.073h-.003c-.356 0-.963-.123-1.578-.336-.615-.214-1.256-.523-1.675-.905C5.05 9.085 4.557 7.771 4.46 7.47a.205.205 0 00-.13-.14.298.298 0 00-.158-.01l-.02.004-.02-.003c-.01-.002-.07 0-.148.085-.078.085-.17.246-.236.54a7.157 7.157 0 00-.144 2.316c.115 1.034.52 2.19 1.587 3.082 1.298 1.083 2.795 1.572 4.217 1.414 1.42-.158 2.775-.963 3.79-2.488l.168.121c-1.046 1.572-2.452 2.414-3.936 2.579-1.483.165-3.033-.347-4.368-1.46-1.12-.935-1.542-2.15-1.662-3.223-.12-1.07.061-2.005.149-2.39.072-.317.176-.517.287-.638.102-.11.215-.158.31-.15a.496.496 0 01.252.02.414.414 0 01.257.274c.041.13.162.46.372.867a7.37 7.37 0 01-.055-.771c-.01-.423.185-1.542.835-2.557C6.46 3.92 7.578 3 9.409 3c1.83 0 2.925.9 3.558 1.914.63 1.008.804 2.126.804 2.582v.094c-.014.226-.07.693-.185 1.096l-.196-.06c.107-.378.162-.91.177-1.133-.001-.424-.168-1.497-.771-2.463-.601-.961-1.636-1.817-3.387-1.817-1.751 0-2.81.874-3.432 1.847zm-.059 4.508a3.205 3.205 0 00.864.698A2.86 2.86 0 016.346 9.1a.517.517 0 00-.328.22.66.66 0 00-.1.248zm5.977 1.227a.992.992 0 01.14.545c-.01.163-.073.28-.168.34-.095.059-.224.061-.368-.006a.942.942 0 01-.396-.387.992.992 0 01-.14-.545c.01-.164.074-.281.169-.34.094-.06.224-.062.367.006.143.067.289.2.396.387z" fill="#000300"/><defs><linearGradient id="paint0_linear_1530" x1="8.834" y1="9.85" x2="10.906" y2="9.126" gradientUnits="userSpaceOnUse"><stop stop-color="#C08695"/><stop offset="1" stop-color="#FAC5D5"/></linearGradient><linearGradient id="paint1_linear_1530" x1="13.528" y1="9.056" x2="13.528" y2="11.903" gradientUnits="userSpaceOnUse"><stop stop-color="#F99501"/><stop offset="1" stop-color="#FEA201"/></linearGradient></defs></svg>