<!-- by TradingView --><svg width="18" height="18" viewBox="0 0 18 18" xmlns="http://www.w3.org/2000/svg"><path fill="#F0F3FA" d="M0 0h18v18H0z"/><path d="m10.33 6-.19 1h1.44l-.31 1H8.74c-.13 0-.24.1-.24.23 0 .12.1.22.24.22h.8c.85 0 1.73.28 1.73 1.41 0 .79-.74 1.54-1.72 1.54H9.1l-.2.6h.93c1.17 0 2.05-.98 2.05-2.1 0-.67-.1-1.13-.38-1.45h.41L12.5 6h-2.17Z" fill="#222221"/><path d="M4.31 10.69c0-.18.14-.31.32-.31H6.8c.17 0 .31.13.31.3 0 .18-.14.32-.31.32H4.63a.31.31 0 0 1-.32-.31Z" fill="url(#a)"/><path d="m9.93 6-.19 1h-.62c-.59.04-1.79.04-1.79 1.14 0 .79.6 1.28 1.36 1.28H9.7a.3.3 0 0 1 .29.3.3.3 0 0 1-.29.28H5.3A.3.3 0 0 1 5 9.71a.3.3 0 0 1 .29-.28h1.47c.13 0 .24-.09.24-.2C7 9.1 6.89 9 6.75 9H5.61c-.21 0-.39-.23-.39-.43 0-.2.18-.43.4-.43h.49c.2 0 .37.02.4-.16.13-.87.92-2.08 3.42-1.97Z" fill="url(#b)"/><path d="M8.69 11.38H5.32c-.21 0-.38.13-.38.3 0 .18.17.32.38.32h3.2l.17-.63Z" fill="url(#c)"/><path d="M6.19 7.44a.31.31 0 1 1-.63 0 .31.31 0 0 1 .63 0Z" fill="#E7B25B"/><path d="M13 6.55a.3.3 0 0 1 .43.11 5.04 5.04 0 0 1-4.77 7.33 4.99 4.99 0 0 1-3-1.28.3.3 0 0 1 0-.44.34.34 0 0 1 .46 0c.79.7 1.82 1.1 2.88 1.1a4.46 4.46 0 0 0 4.37-4.4c0-.68-.17-1.36-.48-1.98a.34.34 0 0 1 .12-.44Z" fill="#222221"/><path d="M4.38 10a.28.28 0 0 1-.34-.25c-.23-1.81.5-3.67 1.92-4.76a4.66 4.66 0 0 1 4.88-.52c.15.08.2.27.12.42a.3.3 0 0 1-.4.13 4.1 4.1 0 0 0-4.25.47 4.5 4.5 0 0 0-1.67 4.14c.02.17-.1.33-.26.36Z" fill="url(#d)"/><defs><linearGradient id="a" x1="7.12" y1="10.56" x2="4.31" y2="10.56" gradientUnits="userSpaceOnUse"><stop stop-color="#D8841D"/><stop offset=".23" stop-color="#DC911B"/></linearGradient><linearGradient id="b" x1="6.43" y1="7.65" x2="8.99" y2="10.27" gradientUnits="userSpaceOnUse"><stop stop-color="#E3A75C"/><stop offset=".72" stop-color="#CE5E23"/></linearGradient><linearGradient id="c" x1="8.69" y1="11.5" x2="4.94" y2="11.5" gradientUnits="userSpaceOnUse"><stop stop-color="#D8841D"/><stop offset=".64" stop-color="#DC911B"/></linearGradient><linearGradient id="d" x1="10.5" y1="4.34" x2="3.73" y2="9.55" gradientUnits="userSpaceOnUse"><stop stop-color="#CC5524"/><stop offset=".48" stop-color="#F0CC88"/><stop offset=".67" stop-color="#EEC67D"/><stop offset="1" stop-color="#DC911B"/></linearGradient></defs></svg>