<!-- by TradingView --><svg width="18" height="18" viewBox="0 0 18 18" xmlns="http://www.w3.org/2000/svg"><path fill="url(#a)" d="M0 0h18v18H0z"/><path d="M13.69 7.33h.3a.02.02 0 0 1 .01.02V10.66h-.65l-.01.01v.64h-.01a.02.02 0 0 1-.01.02h-.62l-.03.01v.64a.02.02 0 0 1-.02.02H12v.64a.02.02 0 0 1-.03.03h-.63a.03.03 0 0 0-.01.01v.63l-.01.02h-.65a.02.02 0 0 0-.01.02l-.01.64H7.34v-.63l-.01-.02h-.65a.01.01 0 0 1-.01-.02v-.63a.03.03 0 0 0-.03-.02h-.62a.02.02 0 0 1-.02-.02V12h-.65L5.34 12v-.64l-.01-.02H5.13a34 34 0 0 0-.46-.02v-.65h-.65a.01.01 0 0 1-.02-.02V7.35l.02-.01h.63a.02.02 0 0 0 .02-.02v-.63a.02.02 0 0 1 .02-.02h.62a.03.03 0 0 0 .02-.03V6a.01.01 0 0 1 .01 0V6h.64A.02.02 0 0 0 6 5.98v-.63a.02.02 0 0 1 .02-.02h.64v-.64l.01-.01.02-.01h.62a.03.03 0 0 0 .03-.03v-.62A.02.02 0 0 1 7.35 4h3.3a.02.02 0 0 1 .02.02v.62a.02.02 0 0 0 .02.03h.63l.01.01v.63a.03.03 0 0 0 .03.02h.62l.01.01.01.02v.63l.02.01h.64v.64a.03.03 0 0 0 .04.03h.61a.02.02 0 0 1 .02.02v.62a.02.02 0 0 0 .03.03h.33Z"/><path d="M12.67 7.33V8h-.65a.02.02 0 0 1-.02-.02v-.61a.02.02 0 0 0-.02-.02h-.63a.02.02 0 0 1-.02-.01v-.66H10v-.65A.02.02 0 0 0 9.97 6H8v-.62L8 5.34h-.66V4.7a.03.03 0 0 1 .04-.03h3.25a.06.06 0 0 1 .05.05v.6l.02.01h.59a.06.06 0 0 1 .06.06v.6h.61l.04.02.01.03v.6a.02.02 0 0 0 .02.03h.6a.05.05 0 0 1 .05.05v.61Z" fill="#F360FF"/><path d="M7.33 5.33h.63a.04.04 0 0 1 .04.05v1.24a.05.05 0 0 1-.05.05h-.58c-.02 0-.03-.01-.03-.03A13.4 13.4 0 0 1 7.32 6H7.3a14.76 14.76 0 0 1-.64-.02v-.6a.05.05 0 0 1 .04-.04h.63Z" fill="#BC44E9"/><path d="M7.37 6.67c-.03.01-.04.03-.03.06a1.4 1.4 0 0 0-.59-.04.08.08 0 0 0-.07.07l-.05.5a.05.05 0 0 1-.05.04h-.1a1 1 0 0 0-.3.05.26.26 0 0 0-.16.2 4.61 4.61 0 0 0-.06.4h-.03l-.47.07a.08.08 0 0 0-.08.06c-.03.2-.05.4-.04.59h-.67V7.4c0-.05.03-.07.09-.07a5.83 5.83 0 0 0 .57-.03v-.55c0-.06.03-.1.1-.1a81.75 81.75 0 0 0 .56 0v-.62A.05.05 0 0 1 6.06 6a23.8 23.8 0 0 0 1.28.02.03.03 0 0 1 0 .02v.61c0 .02.02.03.04.03Z" fill="#8D01AC"/><path d="M10.67 6.67c.02.2.03.4.01.6a.07.07 0 0 1-.07.07l-.48-.02c-.09 0-.13.04-.13.12a4.05 4.05 0 0 1-.03.54 19.91 19.91 0 0 1-.55.02c-.07 0-.1.03-.1.1.02.19.02.38 0 .57l-.65.01v-.65a.03.03 0 0 0 0-.03.03.03 0 0 0-.03 0h-.58A.05.05 0 0 1 8 7.95v-.57a.06.06 0 0 0-.06-.06h-.6a.02.02 0 0 1-.02-.02v-.57c0-.03.01-.05.04-.06h.58A.05.05 0 0 0 8 6.62V6h1.98a.02.02 0 0 1 .02.02v.63a.02.02 0 0 0 .03.02h.64Z" fill="#4C007C"/><path d="m12.67 8 .02.14c0 .4 0 .8-.02 1.2h-.62a.05.05 0 0 0-.05.02v.61a.03.03 0 0 1-.03.03h-.6l-.03.01v.64a.02.02 0 0 1-.03.02h-.64V10l-.03-.01h-.6l-.02-.01-.02-.04v-.61h-.62a.05.05 0 0 1-.05-.06V8.1c-.01-.07.02-.1.1-.1a19.93 19.93 0 0 0 .54-.02l.02-.03c.01-.16.02-.33.01-.51 0-.08.04-.12.13-.12a24.74 24.74 0 0 1 .53 0 .07.07 0 0 0 .02-.04c.02-.2.01-.41-.01-.61h.66v.65a.02.02 0 0 0 0 .01.02.02 0 0 0 .02 0h.63a.02.02 0 0 1 .02.03v.63h.67Z" fill="#250280"/><path d="M7.34 6.73v.57a.02.02 0 0 0 .02.02h.59a.06.06 0 0 1 .06.06v.57a.05.05 0 0 0 .05.05h.58a.03.03 0 0 1 .02 0 .03.03 0 0 1 .01.03v.65l-.01.58a.08.08 0 0 1-.08.07h-.52a.05.05 0 0 0-.05.05l-.02.52a.11.11 0 0 1-.07.1.43.43 0 0 1-.18.01h-.3c-.06.01-.1.05-.1.13v.5c-.2.03-.39.04-.56.03-.08 0-.11-.04-.12-.11a5.23 5.23 0 0 1 0-.54.06.06 0 0 0-.04-.02H6v-.64a.02.02 0 0 0-.02-.03h-.6a.04.04 0 0 1-.04-.04v-.62c0-.2 0-.39.04-.59a.08.08 0 0 1 .08-.06l.47-.06a.05.05 0 0 0 .04-.04l.05-.37c.02-.1.08-.17.17-.2a1 1 0 0 1 .28-.04 4.28 4.28 0 0 0 .14-.02l.02-.03.05-.5a.08.08 0 0 1 .07-.07c.19-.03.39-.01.59.04Z" fill="#990194"/><path d="M12.67 10.63v-1.3a34.73 34.73 0 0 0 0-1.34v-.66h.57c.07.01.1.06.1.15v3.08a.1.1 0 0 1-.09.1c-.2.02-.39 0-.58-.03Z" fill="#2D005D"/><path d="M5.34 8.67v.62a.04.04 0 0 0 .04.04h.6a.02.02 0 0 1 .02.03V10h-.65a.02.02 0 0 0-.01.02v.56c0 .04-.01.07-.03.1l-.58-.01a.06.06 0 0 1-.06-.06V8.67h.67Z" fill="#BC44E9"/><path d="M9.33 8.67v.61a.05.05 0 0 0 .05.05h.6l.02.01v.62s0 .02.02.03l.03.01h.6a.03.03 0 0 1 .03.03v.63l-.04.64a.05.05 0 0 1-.04.04h-.53a.07.07 0 0 0-.07.07V12H8L8 11.37a.03.03 0 0 0-.03-.03H7.4a.06.06 0 0 1-.06-.06V10.14c0-.08.04-.12.1-.13h.3l.18-.01a.1.1 0 0 0 .07-.1l.02-.52a.05.05 0 0 1 .05-.05h.52a.08.08 0 0 0 .08-.07l.01-.58.66-.01Z" fill="#3723C3"/><path d="M12.67 9.33V11.3a.03.03 0 0 1-.01.03.03.03 0 0 1-.03 0h-.62a.02.02 0 0 0 0 .02H12v.6a.04.04 0 0 1-.04.05h-.62v.61a.05.05 0 0 1-.06.05h-.61l-.64.02a.03.03 0 0 1-.02-.01.03.03 0 0 1-.01-.03v-1.23a.07.07 0 0 1 .07-.07h.53a.05.05 0 0 0 .04-.04l.03-.64h.64a.02.02 0 0 0 .02-.01v-.62l.01-.02h.62a.03.03 0 0 0 .04-.04v-.59a.05.05 0 0 1 .01-.03.05.05 0 0 1 .04-.02h.62Z" fill="#6123C4"/><path d="M7.33 10.65v.63a.06.06 0 0 0 .07.06H7.98v.03l.03.63v.65a.03.03 0 0 1-.03.03h-.64l-.6-.01a.08.08 0 0 1-.07-.08v-.56a.03.03 0 0 0-.03-.03h-.58a.07.07 0 0 1-.06-.07v-.57a.02.02 0 0 0-.02-.02H5.4a.07.07 0 0 1-.07-.06v-.58l-.03-.03c.02-.02.02-.05.03-.1a37.44 37.44 0 0 0 .01-.57h1.27a.05.05 0 0 1 .05.04v.52c0 .07.03.1.1.11.18 0 .37 0 .56-.02Z" fill="#6300BB"/><path d="M10 12v.64a.03.03 0 0 0 .03.04l.64-.01c.02.18.02.36.01.54 0 .09-.07.13-.2.13-1.58.02-2.59.01-3.03 0-.07 0-.1-.04-.11-.11a3.23 3.23 0 0 1 0-.56h.64a.03.03 0 0 0 .03-.02V12H10Z" fill="#2D005D"/><defs><linearGradient id="a" x1="9" y1="0" x2="9" y2="18" gradientUnits="userSpaceOnUse"><stop stop-color="#5DD6D5"/><stop offset="1" stop-color="#FEF8E4"/></linearGradient></defs></svg>