<!-- by TradingView --><svg width="18" height="18" xmlns="http://www.w3.org/2000/svg"><path fill="url(#paint0_linear)" d="M0 0h18v18H0z"/><path d="M10.318 7c.03-.915-.604-1.333-1.318-1.333-.744 0-1.287.333-1.287.949 0 .875 1.257 1.149 1.923 1.265.713.178 1.72.47 2.216.956l.14.13A3.526 3.526 0 0113 11.383c0 .974-.419 1.882-1.178 2.579A4.257 4.257 0 019 15a4.25 4.25 0 01-2.806-1.038C5.434 13.265 5 11.973 5 11h2.713c0 .617.372 1.333 1.302 1.333.745 0 1.218-.298 1.218-.794 0-1.053-1.087-1.237-1.854-1.437-.743-.194-1.612-.389-2.216-.956L6.1 9.08C5.403 8.416 5 7.557 5 6.616c0-.973.433-1.88 1.193-2.579A4.249 4.249 0 019 3c1.07 0 2.062.373 2.822 1.037C12.582 4.735 13 6.027 13 7h-2.682z" fill="#fff"/><defs><linearGradient id="paint0_linear" x1="3.349" y1="3.122" x2="21.904" y2="24.434" gradientUnits="userSpaceOnUse"><stop stop-color="#1A1E21"/><stop offset="1" stop-color="#06060A"/></linearGradient></defs></svg>