<!-- by TradingView --><svg width="18" height="18" viewBox="0 0 18 18" xmlns="http://www.w3.org/2000/svg"><path fill="url(#avx2mcyex)" d="M0 0h18v18H0z"/><path d="M14 7H6V5h6.22c.6 0 1.78.4 1.78 2ZM6 7v.52c0 .15.08.48.42.48h5.91C12.9 8 14 8.21 14 9.24v2.47C14 12 13.67 13 12.33 13H5.67C5.1 13 4 12.39 4 11.02h7.58c.14 0 .42-.18.42-.52 0-.14-.08-.5-.42-.5H4.83C4.42 10 4 9.83 4 9.14V7h2Z" fill="url(#bvx2mcyex)"/><defs><linearGradient id="avx2mcyex" x1="3.35" y1="3.12" x2="21.9" y2="24.43" gradientUnits="userSpaceOnUse"><stop stop-color="#1A1E21"/><stop offset="1" stop-color="#06060A"/></linearGradient><linearGradient id="bvx2mcyex" x1="9" y1="5" x2="9" y2="12.65" gradientUnits="userSpaceOnUse"><stop stop-color="#FDF6EB"/><stop offset=".28" stop-color="#CFB89A"/><stop offset=".58" stop-color="#846B52"/><stop offset=".78" stop-color="#AD9173"/><stop offset="1" stop-color="#DFCCAF"/></linearGradient></defs></svg>