<!-- by TradingView --><svg width="18" height="18" xmlns="http://www.w3.org/2000/svg"><path fill="#142E52" d="M0 0h18v18H0z"/><path d="M4.003 9.812V5H14v4.812c-.145 3.773-3.405 5.03-5.017 5.188-4.125-.685-5.039-3.745-4.98-5.188z" fill="#00B6FA"/><path d="M5.002 9.85V6H13v3.85c-.116 3.018-2.724 4.024-4.014 4.15-3.3-.548-4.03-2.996-3.984-4.15z" fill="#142E52"/><path d="M12 7v2.75L8.624 7.46h-.74l4.064 2.8c-.265 1.984-2.077 2.653-2.95 2.74-2.512-.443-3.043-2.289-2.995-3.156v-.678l4.259 2.912.363-.286-4.622-3.155V7H12z" fill="#10A0EC"/></svg>