<!-- by TradingView --><svg xmlns="http://www.w3.org/2000/svg" width="18" height="18"><path fill="url(#abcqqeggv)" d="M0 0h18v18H0z"/><path d="M6.96 5.26l2.2-2.23.09 1.4c-.33.33-1.6 1.31-2.82 2.82-1.08 1.35.2 3.25.99 3.86l-.02 1.02c-.52-.27-1.46-.62-2.15-2.24-.85-1.99.67-3.5 1.7-4.63z" fill="url(#bbcqqeggv)"/><path d="M11.1 12.64l-2.2 2.23-.1-1.4c.33-.33 1.5-1.4 2.8-2.84 1.07-1.19-.2-3.05-.94-3.45V5.94c.51.27 1.38.52 2.07 2.14.85 1.99-.5 3.65-1.63 4.56z" fill="url(#cbcqqeggv)"/><path d="M8.83 15a4.35 4.35 0 01-.47-6.04L9.14 8c.43-.55 1.22-2.36 0-3.46-.14-.13-.97-.47-1.55.08l-.08.08.08-.08L9.14 3c1.05.89 2.69 3.28.79 5.7l-1 1.23a3.02 3.02 0 000 3.53c.2.29 1 .38 1.66-.32L8.83 15z" fill="url(#dbcqqeggv)"/><defs><linearGradient id="abcqqeggv" x1="9" y1="0" x2="9" y2="18" gradientUnits="userSpaceOnUse"><stop stop-color="#380087"/><stop offset="1" stop-color="#13002E"/></linearGradient><linearGradient id="bbcqqeggv" x1="7.12" y1="3.03" x2="7.12" y2="12.13" gradientUnits="userSpaceOnUse"><stop stop-color="#986EF8"/><stop offset="1" stop-color="#4592E6"/></linearGradient><linearGradient id="cbcqqeggv" x1="10.9" y1="14.87" x2="10.9" y2="5.94" gradientUnits="userSpaceOnUse"><stop stop-color="#3CD7FE"/><stop offset="1" stop-color="#8651E7"/></linearGradient><linearGradient id="dbcqqeggv" x1="9.04" y1="3" x2="9.04" y2="15" gradientUnits="userSpaceOnUse"><stop stop-color="#45CFFB"/><stop offset="1" stop-color="#9E68FC"/></linearGradient></defs></svg>