<!-- by TradingView --><svg width="18" height="18" viewBox="0 0 18 18" xmlns="http://www.w3.org/2000/svg"><path fill="#F0F3FA" d="M0 0h18v18H0z"/><path d="M9 13.94a4.94 4.94 0 1 0 0-9.88 4.94 4.94 0 0 0 0 9.88ZM9 15A6 6 0 1 0 9 3a6 6 0 0 0 0 12Z" fill="url(#a1zswaofs)"/><circle cx="9" cy="9" r="4.94" fill="#9B5860"/><path d="M8.1 6.35c-.14.14-.06.3 0 .36-.18.17-.89.17-1.24.35a.63.63 0 0 0-.35.53.63.63 0 0 0-.35.53c-.29.28-.24.59-.18.7-.28.29-.12.6 0 .7-.14.43.18.9.35 1.07 0 .28.36.47.53.53 0 .42.47.53.7.53.15.42.65.4.89.35.28.42.82.18 1.06 0 .28.28.7 0 .88-.18.57.14.7-.17.7-.35.43.14.54-.06.54-.18.28 0 .35-.35.35-.53.28 0 .23-.58.18-.88.28-.56-.36-1.17-.71-1.4l.18-.54c.17-.35 0-.35.17-.53.14-.14-.06-.3-.17-.35-.36-.06-1.06-.21-1.06-.35 0-.18-.36-.18-.53-.18-.18 0-.53-.35-.7-.53-.18-.18-.54-.18-.71-.18-.18 0-.18 0-.36.18-.17.18 0 .18-.17.35Z" fill="url(#b1zswaofs)"/><defs><linearGradient id="a1zswaofs" x1="9" y1="3" x2="9" y2="15" gradientUnits="userSpaceOnUse"><stop stop-color="#F2D9D7"/><stop offset="1" stop-color="#C65F54"/></linearGradient><linearGradient id="b1zswaofs" x1="8.29" y1="6.18" x2="9.02" y2="12.23" gradientUnits="userSpaceOnUse"><stop stop-color="#D79699"/><stop offset=".4" stop-color="#DBBBB8"/><stop offset=".65" stop-color="#DFC7C1"/><stop offset="1" stop-color="#F7EEE3"/></linearGradient></defs></svg>