<!-- by TradingView --><svg width="18" height="18" viewBox="0 0 18 18" xmlns="http://www.w3.org/2000/svg"><path fill="url(#amqtu1xcl)" d="M0 0h18v18H0z"/><path d="M7.28 3h3.48L12 4.83v3.35l-1 1.04V11h2V7.72l1.44-1 .56.81-1 .7V12h-4V8.81l1-1.03V5.14L10.23 4H7.77L7 5.16v2.62L8 8.8V12H4V8.24l-1-.7.55-.83 1.45 1V11h2V9.22L6 8.18V4.82L7.28 3Zm.49 5.23V7.3h1v.93h-1Zm1.49 0V7.3h1v.93h-1Zm-.53 4.68L7.09 14H4.84l-1-.51.46-.9.79.41h1.7l1.38-.92.56.83Zm.52 0 .57-.83 1.32.92h1.71l.72-.4.48.88-.94.52h-2.28l-1.58-1.1Z" fill="#00FE01"/><defs><linearGradient id="amqtu1xcl" x1="3.35" y1="3.12" x2="21.9" y2="24.43" gradientUnits="userSpaceOnUse"><stop stop-color="#1A1E21"/><stop offset="1" stop-color="#06060A"/></linearGradient></defs></svg>