<!-- by TradingView --><svg width="18" height="18" viewBox="0 0 18 18" xmlns="http://www.w3.org/2000/svg"><path fill="url(#a)" d="M0 0h18v18H0z"/><path d="M12.74 12.47c-.19.46-.52.9-1 1.3-.71.62-1.43 1-2.16 1.15-.81.18-1.6.05-2.36-.36a4.68 4.68 0 0 1-1.4-1.13 3.5 3.5 0 0 1-.76-1.67 5.6 5.6 0 0 1-.04-1.3 12.71 12.71 0 0 0 .04-2.4V8c-.04-.64-.05-1.11-.03-1.43.06-.73.3-1.36.71-1.88a4.79 4.79 0 0 1 2.08-1.5 3.4 3.4 0 0 1 2.47.08c.62.26 1.16.64 1.61 1.11.5.53.81 1.11.96 1.76.07.32.11.71.1 1.16l-.02 1.41c0 .3 0 .77.03 1.42l.03.72c0 .65-.08 1.19-.26 1.62Z" fill="#1F250E"/><path d="M12.35 7.78a.48.48 0 0 1-.14.02 21.29 21.29 0 0 0-1.75-.1c-.12-.05-.18-.15-.19-.3l-.04-1.37c-.02-.46-.16-.74-.43-.83a46.1 46.1 0 0 0-1.83 0 .42.42 0 0 1-.17-.39 21.68 21.68 0 0 0 .1-1.13c.06-.14.16-.21.29-.22h1.56c.1 0 .18.04.23.13.03.05.05.14.06.29l.09.86c.03.2.12.35.29.45.07.05.22.09.42.1.33.03.73.08 1.2.17.17.03.27.14.3.33.07.49.13 1 .19 1.56.02.2-.04.35-.18.43Z" fill="#C6FF37"/><path d="M12.35 7.78a.2.2 0 0 1-.05.05 14.97 14.97 0 0 0 .03 2.45c-.49.02-.97.06-1.45.1a.67.67 0 0 1-.31-.04.39.39 0 0 1-.24-.26c-.02-.07-.03-.2-.03-.4V8.15a.99.99 0 0 0-.03-.3.43.43 0 0 0-.17-.21c-.06-.04-.2-.06-.4-.06H8.3c-.2 0-.32-.01-.37-.04a.45.45 0 0 1-.22-.37 79.2 79.2 0 0 0 .04-1.74.4.4 0 0 0-.2-.21l.42-.03a46.06 46.06 0 0 1 1.83 0c.27.1.41.38.43.84l.04 1.37c.01.15.07.25.2.3h.03c.57.01 1.14.05 1.71.1.03 0 .08 0 .14-.02Z" fill="#2F3A12"/><path d="M7.56 5.22c.1.06.16.13.19.21v.3a79.12 79.12 0 0 1-.04 1.5c.03.14.1.24.22.3.05.04.17.05.36.05H9.7c.2 0 .34.02.4.06.08.06.14.13.17.21.02.07.03.17.03.3a1224.25 1224.25 0 0 1 0 1.53c0 .2.01.33.03.4.04.12.11.2.24.26.08.04.19.05.31.04.48-.04.96-.08 1.45-.1.11.05.19.12.22.22a.86.86 0 0 1 0 .34c-.06.56-.12 1.02-.18 1.4a.6.6 0 0 1-.08.26.31.31 0 0 1-.21.12c-.47.09-.95.15-1.42.19-.1.02-.2 0-.28-.05a.27.27 0 0 1-.13-.26 112.43 112.43 0 0 1 .05-1.7c-.06-.24-.2-.35-.41-.35H8.47c-.28 0-.45-.01-.52-.04-.16-.09-.25-.24-.24-.47a1319.9 1319.9 0 0 0-.03-2 .45.45 0 0 0-.18-.24c-.07-.04-.22-.05-.44-.04a19.48 19.48 0 0 0-1.27.08c-.16.02-.28-.07-.34-.24a.85.85 0 0 1 0-.32 41.27 41.27 0 0 0 .19-1.41c.01-.14.06-.24.13-.3a.77.77 0 0 1 .29-.09c.5-.1 1-.15 1.5-.16Z" fill="#C6FF37"/><path d="m10.66 12.8-.53.28c-.07-.14-.16-.2-.28-.2a10.66 10.66 0 0 1-1.7-.02.56.56 0 0 1-.3-.25.83.83 0 0 1-.12-.4 49.1 49.1 0 0 1-.06-1.55c0-.11-.04-.2-.12-.24a.6.6 0 0 0-.27-.04l-.8-.03a13 13 0 0 0-.02-2.65l.6-.04c.22-.01.37 0 .44.04.08.06.15.14.18.25.02.04.03.15.03.32v1.67c0 .23.08.38.24.47.07.03.24.04.52.04H9.9c.21 0 .35.11.4.34l.01.04-.05 1.67c0 .11.04.2.13.26.08.05.17.07.28.05Z" fill="#2F3A12"/><path d="M6.49 10.35c.26.02.53.03.8.03a.6.6 0 0 1 .26.04c.08.05.12.13.12.24l.06 1.55c0 .15.05.28.12.4.08.12.18.2.3.25l.34.03c.36.03.81.02 1.36 0 .12-.02.21.05.28.2.02.08.02.16.01.26a112.16 112.16 0 0 0-.1 1.1.3.3 0 0 1-.15.14.42.42 0 0 1-.2.04h-1.4c-.22 0-.33-.07-.36-.22a8.9 8.9 0 0 1-.08-.77 1.4 1.4 0 0 0-.1-.51.62.62 0 0 0-.25-.25c-.09-.04-.21-.07-.37-.08-.39-.03-.81-.1-1.27-.19-.14-.02-.23-.17-.27-.43l-.16-1.34a.8.8 0 0 1 .02-.4c.05-.1.16-.16.32-.15l.72.06Z" fill="#C6FF37"/><defs><linearGradient id="a" x1="3.35" y1="3.12" x2="21.9" y2="24.43" gradientUnits="userSpaceOnUse"><stop stop-color="#1A1E21"/><stop offset="1" stop-color="#06060A"/></linearGradient></defs></svg>