<!-- by TradingView --><svg width="18" height="18" viewBox="0 0 18 18" xmlns="http://www.w3.org/2000/svg"><path fill="#F0F3FA" d="M0 0h18v18H0z"/><path fill-rule="evenodd" d="M10.6 12.73A4.05 4.05 0 0 1 4.94 9a4.06 4.06 0 0 1 5.66-3.73 3.75 3.75 0 1 0 0 7.47ZM14 9A5 5 0 1 1 4 9a5 5 0 0 1 10 0Zm-2.03-1.5a1.56 1.56 0 0 0 0 3 1.56 1.56 0 1 1 0-3Zm1.1 1.5a.62.62 0 1 1-1.26 0 .62.62 0 0 1 1.25 0Zm-2.82 2.81c.47 0 .9-.11 1.29-.31h-.04a2.5 2.5 0 1 1 .04-5 2.81 2.81 0 1 0-1.29 5.31Z" fill="url(#a)"/><defs><linearGradient id="a" x1="13.22" y1="9.31" x2="4.63" y2="10.56" gradientUnits="userSpaceOnUse"><stop stop-color="#604EFF"/><stop offset="1" stop-color="#345AFF"/></linearGradient></defs></svg>