<!-- by TradingView --><svg width="18" height="18" viewBox="0 0 18 18" xmlns="http://www.w3.org/2000/svg"><path fill="#F0F3FA" d="M0 0h18v18H0z"/><circle cx="9" cy="9" r="6"/><path d="M9 3.2A5.8 5.8 0 1 1 9 14.8 5.8 5.8 0 0 1 9 3.19Zm0 .4a5.4 5.4 0 1 0 0 10.8A5.4 5.4 0 0 0 9 3.6Z" fill="url(#a)"/><circle cx="9" cy="9" r="4.24" fill="#5B5C5E"/><circle cx="9" cy="9" r="3.53" fill="#898A8C"/><circle cx="9" cy="9" r="2.75" fill="#999D9C"/><path d="M12.84 5.14 14.44 9l-1.6 3.86-3.86 1.6-3.86-1.6L3.52 9l1.6-3.86 3.86-1.6 3.86 1.6Zm-7.4.32L3.97 9l1.47 3.54 3.54 1.47 3.55-1.46L14 9l-1.47-3.54-3.55-1.47-3.54 1.47Z" fill="#B2B8B8"/><circle cx="9" cy="9" r="1.76" fill="#BBBFBE"/><path d="M7.17 7.98c.05.28.25.85.68.85.43 0 .68-.24.74-.36.45 1.37-1.26 2.88-2.21 3.5l-.05.03c-.94-.6-2.71-2.14-2.26-3.53.07.12.31.36.75.36.43 0 .63-.57.68-.85l.83-.4.84.4Z" fill="url(#b)"/><path d="M7.17 7.98c.04.28.24.83.66.85h.02c.43 0 .68-.24.74-.36.45 1.37-1.26 2.88-2.21 3.5l-.05.03-.04-.03c-.96-.62-2.67-2.13-2.22-3.5.07.11.3.35.73.36h.02c.42 0 .62-.53.67-.82v-.03l.84-.4.84.4Zm-1.51.14c-.04.15-.1.33-.2.5-.13.2-.33.4-.63.4h-.01c-.27 0-.48-.08-.63-.18-.04.51.22 1.05.63 1.57a6.89 6.89 0 0 0 1.51 1.36c.46-.3 1.08-.8 1.54-1.4.4-.5.64-1.03.6-1.53-.14.1-.34.18-.6.18h-.02c-.3 0-.51-.2-.64-.4a1.7 1.7 0 0 1-.2-.5l-.68-.32-.67.32Z" fill="url(#c)"/><path d="M12.5 7.98c.05.28.25.85.68.85.44 0 .68-.24.75-.36.45 1.37-1.26 2.88-2.22 3.5l-.04.03c-.95-.6-2.72-2.14-2.26-3.53.06.12.3.36.74.36.43 0 .63-.57.68-.85l.84-.4.83.4Z" fill="url(#d)"/><path d="M12.5 7.98c.05.28.24.83.66.85h.02c.44 0 .68-.24.75-.36.45 1.37-1.26 2.88-2.22 3.5l-.04.03-.05-.03c-.95-.62-2.66-2.13-2.21-3.5.06.11.3.35.72.36h.02c.42 0 .62-.53.68-.82v-.03l.84-.4.83.4Zm-1.5.14c-.04.15-.1.33-.2.5-.13.2-.34.4-.64.4h-.01c-.26 0-.47-.08-.63-.18-.03.51.22 1.05.63 1.57a6.89 6.89 0 0 0 1.52 1.36c.46-.3 1.08-.8 1.53-1.4.4-.5.64-1.03.61-1.53-.15.1-.35.18-.6.18h-.03c-.3 0-.51-.2-.64-.4a1.7 1.7 0 0 1-.2-.5l-.67-.32-.68.32Z" fill="url(#e)"/><path d="m9.05 6.22.07.05.17.06c.16.03.4.05.76.02h.02l.02.01c.05.07.16.18.3.26.14.08.31.14.5.11v.1a.87.87 0 0 1-.54-.13 1.24 1.24 0 0 1-.32-.26c-.35.03-.6.02-.76-.02a.8.8 0 0 1-.2-.06.34.34 0 0 1-.06-.05.95.95 0 0 1-.5.14c-.18 0-.36-.01-.48-.04-.25.32-.64.44-.8.43v-.1c.15.01.52-.1.74-.4l.02-.03h.03c.11.03.3.05.49.04.19 0 .37-.05.47-.14l.04-.03.03.04Z"/><path d="M8.94 7.46c.28.03.85.1.91.16.08.06.87.43 1.02 1.22h-.07c-.13-.39-.69-1.16-1.86-1.16-1.18 0-1.73.77-1.86 1.16H7c.15-.79.95-1.16 1.02-1.22.06-.05.64-.13.92-.16Z" fill="#666"/><path d="M9.12 7.28c.2.02.39.05.55.1l.26-1.04.24.07-.27 1.05c.16.07.3.15.4.24l.48-.98.22.12-.48 1c.21.2.35.72.35 1.02-.27-1.09-1.39-1.33-1.93-1.32h-.01c-.54-.01-1.66.23-1.93 1.32 0-.29.12-.72.47-1.06L7 6.85l.22-.11.43.9c.12-.1.26-.17.42-.22L7.8 6.4l.24-.07.27 1.02c.16-.04.35-.07.55-.07V6.22h.25v1.06Z"/><path d="m9.88 10.7.24.24.2.3.11.25.1.3c-.21-.12-.42-.13-.61-.03a6.97 6.97 0 0 1-.13.05 1 1 0 0 0-.28-.35c-.33-.24-.7-.3-1.12-.19-.14.04-.28.12-.42.25a.61.61 0 0 0-.17.23l-.01-.01a.27.27 0 0 0-.08-.07l.1-.24c.08-.14.18-.27.3-.38a1.48 1.48 0 0 1 1.28-.39v-.01a1.92 1.92 0 0 0-1.06.08.72.72 0 0 0-.2.12h-.01v-.01l.2-.18c.18-.11.35-.19.5-.22a1.23 1.23 0 0 1 1.06.27Z" fill="#75D3F5"/><path d="m10.53 11.79.11.1c.07.1.12.2.14.32l.02.17v.01h.01l.34-.03h.15a.1.1 0 0 1 .09.04v.01h.02c.21-.03.35-.05.52-.02l.04.01v.01a.04.04 0 0 0 .03.01h.28l.01.02a.03.03 0 0 0 .03.02c.05 0 .16.01.2.05a.04.04 0 0 1 0 .03v.03a.17.17 0 0 1-.06.03v.03c0 .04-.04.05-.11.05h-.01v-.02c.02 0 .03-.02.04-.04a.02.02 0 0 0 0-.02.21.21 0 0 0-.12-.08 1.32 1.32 0 0 0-.27-.03c-.32 0-.44 0-.75-.02a4.52 4.52 0 0 0-.51-.02.55.55 0 0 0-.16-.44c-.3-.32-.82-.2-1 .2 0 0-.01.02-.03.02-.1.04-.2.11-.26.2a.06.06 0 0 1-.05.02c-.44 0-.89.01-1.34.05-.24.03-.42.06-.55.1-.11.03-.2.07-.26.17a.04.04 0 0 1-.03.02l-.81.04c-.08 0-.13 0-.16-.05l.92-.01a.07.07 0 0 0 .05-.03c.14-.16.37-.2.58-.24a6.62 6.62 0 0 1 .41-.07c0-.16-.06-.3-.19-.4a.05.05 0 0 1-.02-.04c.02-.11-.04-.28-.17-.3-.15-.02-.23.09-.3.22a.02.02 0 0 1-.01.01c-.23 0-.4.08-.53.26a.45.45 0 0 0-.08.33v.01h-.01v-.01a.5.5 0 0 1 .15-.47c.05-.04.1-.08.17-.1a.94.94 0 0 1 .29-.08v-.01c.06-.1.14-.17.25-.2l.12.02.08.07c.05.06.07.14.06.24a.05.05 0 0 0 .02.04.42.42 0 0 1 .19.42h.2a5.91 5.91 0 0 1 1.01-.07.46.46 0 0 1 .16-.17l.12-.06.02-.02a.6.6 0 0 1 .2-.27.03.03 0 0 0 0-.03c-.15-.3-.4-.49-.75-.56a1.22 1.22 0 0 0-.64.05c-.24.08-.43.22-.58.44.03-.08.09-.16.17-.23.14-.13.28-.2.42-.25.41-.11.79-.05 1.12.2a1 1 0 0 1 .29.35l.12-.06c.2-.1.4-.1.6.03Z" fill="#FCFDFD"/><path d="M7.79 11.74v.01a1.22 1.22 0 0 1 1.22-.49c.35.07.6.26.77.56a.03.03 0 0 1-.01.03.6.6 0 0 0-.2.27l-.02.02-.12.06a.46.46 0 0 0-.16.17.04.04 0 0 1-.03.02 5.92 5.92 0 0 0-1.18.05.42.42 0 0 0-.19-.42.05.05 0 0 1-.02-.04c0-.1-.01-.18-.06-.24Z" fill="#86B6D0"/><path d="m6.08 12.78-.22.01c0-.01 0-.02-.03-.03a.01.01 0 0 1 0-.02l.04-.03.04-.02c.11 0 .23 0 .35.02l.2-.12.02-.01.18-.05v-.01l.06-.01a.01.01 0 0 0 .02.01v-.01a.45.45 0 0 1 .08-.33c.12-.18.3-.27.53-.26l.02-.01c.06-.13.14-.24.3-.22.12.02.18.19.16.3a.05.05 0 0 0 .02.05c.13.1.2.23.2.4h-.01l-.02.02a6.7 6.7 0 0 0-.39.04c-.21.03-.44.08-.58.24a.07.07 0 0 1-.05.03l-.92.01Z" fill="#7ED0E2"/><path d="M12.34 12.66s-.02 0-.02.02a2.9 2.9 0 0 1-.7.06h-.07l-.02.02a.2.2 0 0 1-.12.12c-.2.07-.38.11-.56.14-.14.02-.4.03-.77.05l-.97.02h-.56a7.07 7.07 0 0 1-.51-.07 3.88 3.88 0 0 0-.62-.08l-.81-.02a1.58 1.58 0 0 1-.37-.1l.8-.03a.04.04 0 0 0 .04-.02c.06-.1.15-.14.26-.17.13-.04.31-.07.55-.1a12.6 12.6 0 0 1 1.37-.05l.02-.02a.57.57 0 0 1 .26-.2c.02 0 .03-.01.03-.02.18-.4.7-.52 1-.2a.55.55 0 0 1 .16.45h.51c.31.03.43.03.75.03.1 0 .2.01.27.03.05.01.09.04.12.08a.02.02 0 0 1 0 .02c0 .02-.02.03-.04.04Z" fill="#3AC2DC"/><path d="M11.61 12.74v.11l.04.11a.35.35 0 0 1-.22.3c-.07.03-.15.03-.23.04h-.02c-.07.06-.15.06-.23.04a.03.03 0 0 0-.02.01l-.03.04c-.06.04-.1.06-.13.06a.26.26 0 0 0-.15.04.26.26 0 0 1-.16.03h-.02a.6.6 0 0 1-.31.07l-.14-.02a1.35 1.35 0 0 1-.6-.2h-.01a1.52 1.52 0 0 1-1.08-.1l-.01.01c-.14.15-.38.18-.58.14l-.23-.1-.09-.05h-.01c-.01 0-.02 0-.02.02a.44.44 0 0 1-.26-.01h-.03l-.11-.01c-.06 0-.1-.03-.12-.07a.04.04 0 0 1 .02-.06l.09-.02h.3a.2.2 0 0 0 .08-.04l.17-.13c.18.01.35.04.54.07.08.02.25.04.5.06l.36.1c.1.02.2.03.3.02a1.9 1.9 0 0 0 .3-.06h-.34c-.06 0-.18 0-.35-.03-.03 0-.04 0-.03-.02h.33a45.7 45.7 0 0 0 1.74-.07c.18-.03.36-.07.56-.14a.2.2 0 0 0 .12-.12l.02-.02a.09.09 0 0 1 .06 0Z" fill="#C7E8F6"/><defs><linearGradient id="a" x1="11.05" y1="5.13" x2="4.66" y2="12.82" gradientUnits="userSpaceOnUse"><stop stop-color="#A3F0F6"/><stop offset=".71" stop-color="#111516"/><stop offset="1" stop-color="#057394"/></linearGradient><linearGradient id="b" x1="8.67" y1="9.79" x2="4" y2="9.79" gradientUnits="userSpaceOnUse"><stop offset=".25" stop-color="#36B8E9"/><stop offset=".5" stop-color="#ECF6EE"/><stop offset=".7" stop-color="#36B8E9"/></linearGradient><linearGradient id="c" x1="8.67" y1="9.79" x2="4" y2="9.79" gradientUnits="userSpaceOnUse"><stop stop-color="#E0E7EB"/><stop offset=".19" stop-color="#666E71"/><stop offset=".4" stop-color="#ECF4F2"/><stop offset=".74" stop-color="#495A51"/><stop offset="1" stop-color="#F2F4EE"/></linearGradient><linearGradient id="d" x1="14" y1="9.79" x2="9.33" y2="9.79" gradientUnits="userSpaceOnUse"><stop offset=".25" stop-color="#36B8E9"/><stop offset=".5" stop-color="#ECF6EE"/><stop offset=".7" stop-color="#36B8E9"/></linearGradient><linearGradient id="e" x1="14" y1="9.79" x2="9.33" y2="9.79" gradientUnits="userSpaceOnUse"><stop stop-color="#E0E7EB"/><stop offset=".19" stop-color="#666E71"/><stop offset=".4" stop-color="#ECF4F2"/><stop offset=".74" stop-color="#495A51"/><stop offset="1" stop-color="#F2F4EE"/></linearGradient></defs></svg>