<!-- by TradingView --><svg width="18" height="18" viewBox="0 0 18 18" xmlns="http://www.w3.org/2000/svg"><path fill="url(#aux0gxon5)" d="M0 0h18v18H0z"/><path d="m7.53 13.41.15-1.62 2.64-.29-.44 2.06-2.35-.15Z" fill="#145AE6"/><path fill-rule="evenodd" d="M9 13.41A4.41 4.41 0 1 0 9 4.6a4.41 4.41 0 0 0 0 8.82ZM9 14A5 5 0 1 0 9 4a5 5 0 0 0 0 10Z" fill="url(#bux0gxon5)"/><path d="m8.08 4.3.14.02-.05.04a.07.07 0 0 0-.02.07 1 1 0 0 1-.01.5c0 .02-.02.03-.04.03l-.03-.02a.06.06 0 0 1-.01-.05c0-.03 0-.06.02-.09.01-.06 0-.07-.04-.02a.72.72 0 0 0-.1.13.1.1 0 0 1-.07.05.21.21 0 0 1-.17-.04c.02-.04.02-.08 0-.1.04 0 .05 0 .04-.05.06-.07.35-.43.34-.46Z" fill="#EAEEF4"/><path d="M8.26 4.32a.08.08 0 0 0-.04 0l-.05.04a.07.07 0 0 0-.02.07 1 1 0 0 1-.01.5c0 .02-.02.03-.04.03l-.03-.02a.06.06 0 0 1-.01-.05c0-.03 0-.06.02-.09.01-.06 0-.07-.04-.02a.72.72 0 0 0-.1.13.1.1 0 0 1-.07.05.21.21 0 0 1-.17-.04.34.34 0 0 1-.02.04v-.03c-.02.04-.02.05 0 .03.02.12.01.24-.01.34-.01.03-.03.06-.06.07-.1.06-.13.16-.12.28a.1.1 0 0 1-.03.09.99.99 0 0 1-.41.24l.17.04c.07 0 .16-.02.26-.05.03-.02.06-.01.08.02a.2.2 0 0 0 .15.07c.03 0 .05-.01.06-.05 0-.05-.01-.09-.06-.12-.08-.07-.07-.1.03-.1.07-.01.14-.07.2-.2A.64.64 0 0 1 8 5.2c.15.08.24.17.28.26l.07.08c.03.02.07.02.11.01a.1.1 0 0 1 .09.03.1.1 0 0 1 .03.08v.43l.01.03a.05.05 0 0 0 .05.02l.03-.01c.07-.08.1-.18.1-.3h.04l.02.01.02.14.01.02.02.02h.05c.02-.02.03-.04.02-.06V5.9c.02-.04.04-.04.06 0 .01.03.02.06.01.1 0 .04.01.06.05.06.09 0 .17.03.25.08.04.03.07.02.1-.01a.25.25 0 0 1 .15-.1c.03-.01.05-.03.05-.07 0-.08.03-.15.09-.21a.1.1 0 0 0 .02-.1l-.04-.12c-.01-.04 0-.06.03-.07.02 0 .04 0 .05.02.08.13.11.26.1.41 0 .04-.03.06-.06.07h-.03c-.02 0-.04 0-.04.03 0 .2.05.36.14.5a.04.04 0 0 0 .04.02h.01l.02-.02c.1-.21.22-.38.39-.51a.06.06 0 0 1 .08-.01c.13.06.26.1.39.08.05 0 .1-.03.16-.07l.16-.12-.53-.19a.1.1 0 0 0-.05 0c-.22.01-.37-.07-.44-.25a.68.68 0 0 1-.07.23c-.01.02-.03.02-.05 0a.03.03 0 0 1-.01-.03c.04-.2 0-.33-.12-.41a1.48 1.48 0 0 0-.48-.44c0-.17-.06-.29-.2-.34-.02-.01-.03 0-.02.03l.01.03c.04.04.03.07-.03.09-.1.02-.2.02-.3-.02-.03-.01-.05-.04-.03-.08l-.01-.06-.01-.01a.03.03 0 0 0-.03 0v.02c-.01.02-.02.03-.05.03H8.7c-.11-.12-.22-.09-.33.1-.04.07-.07.06-.09-.02a.81.81 0 0 1 0-.22Zm.88 1.15Z" fill="#4B91F8"/><path d="m9.4 4.22-.61-.05a.2.2 0 0 0-.1.01c-.09.04-.2.06-.35.08-.05 0-.07.02-.08.06l.01.21c.02.09.05.1.1.02.1-.18.2-.2.32-.1l.02.01c.03 0 .04-.01.04-.03V4.4a.03.03 0 0 1 .04 0h.01c.01.03.01.05 0 .07 0 .04 0 .07.04.08.1.04.2.04.3.02.06-.02.07-.05.03-.1a.1.1 0 0 1-.01-.02c-.01-.03 0-.04.02-.03.14.05.2.17.2.34.2.11.36.26.48.44.12.08.16.22.12.41l.01.04c.02.01.04 0 .05-.01a.68.68 0 0 0 .07-.23c.07.18.22.26.44.25a.1.1 0 0 1 .04 0l.54.19.63-.15-.06-.09h-.02c-.17.06-.33.1-.5.13-.2.03-.33-.04-.46-.18a38.8 38.8 0 0 0-.46-.47c-.16-.07-.8-.66-.86-.88Z" fill="#D9E1EB"/><path d="M7.67 4.93a.8.8 0 0 1 0 .37c-.01.03-.03.06-.06.07-.1.06-.13.16-.12.28a.1.1 0 0 1-.03.09.99.99 0 0 1-.41.24l-.73-.1c-.07 0-.13 0-.17.03a.2.2 0 0 0-.1.19l.01.32.02.02c0 .01 0 .02-.02.03-.23.16-.28.38-.15.66l.01.04c-.01.05-.04.07-.08.08-.14-.35-.12-.7.06-1.02.06-.11.06-.2.02-.3a.45.45 0 0 1 .22-.17c.53.1 1.15-.05 1.35-.6.06-.03.12-.1.18-.23Z" fill="#BADBF9"/><path d="m12.08 6.12-.26.7-.22.33-.18-.06c.02-.1.1-.16.14-.24a.86.86 0 0 0 .1-.28c0-.04.02-.08.04-.1.07-.1.09-.19.04-.28.04-.13.1-.2.21-.2.04 0 .08.04.13.13Z" fill="#051B9F"/><path d="M6.2 6.13c.2.04.31.08.35.15.1.13.2.23.32.32 0 .05.05.1.12.15.07.04.07.1.02.15l-.16.14a.12.12 0 0 1-.15.02 1.3 1.3 0 0 1-.32-.33l-.18-.6Z" fill="#342D38"/><path d="M11.74 6.2c.05.08.03.17-.04.26a.23.23 0 0 0-.05.11.86.86 0 0 1-.09.28c-.05.08-.12.15-.14.24-.08 0-.15-.04-.22-.13a.4.4 0 0 1 0-.3c.06-.1.12-.17.17-.2l.37-.27Z" fill="#352E47"/><path d="M11.2 6.96a.4.4 0 0 1 0-.3l-.4-.44a.08.08 0 0 0-.05-.03l-.19-.01c-.03 0-.06 0-.08.04a.4.4 0 0 0-.04.16.95.95 0 0 0-.12.62c0 .03 0 .07-.02.1-.1.18-.2.33-.3.46-.1.13-.07.17.08.1l.33-.08c.07-.01.07-.04.02-.07a.05.05 0 0 1-.03-.03c-.01-.03 0-.06.04-.07l.45-.17.3-.28Z" fill="#0A41DA"/><path d="M6.87 6.6c.05 0 .1 0 .16.04a.7.7 0 0 1 .1.24c.04.15 0 .23-.12.26-.04 0-.1.05-.16.14-.1.05-.2.02-.27-.1-.1-.12-.16-.28-.2-.45.14.19.25.3.32.33.05.03.1.02.15-.02L7 6.9c.05-.06.05-.1-.02-.15-.07-.05-.11-.1-.12-.15Z" fill="#051B9F"/><path d="M11.42 8.95c0 .04.03.07.08.1.12.07.2.18.24.33l-.01.08c-.04.08-.04.17-.01.28-.03.19-.1.36-.23.52a.1.1 0 0 1-.08.04c-.22.01-.29.17-.39.33-.1.16.04.43.12.58a.1.1 0 0 1 .01.07c-.03.11-.11.19-.12.31 0 .08.02.1.1.06.04-.03.1-.06.15-.07.05-.01.05 0 .01.03a.4.4 0 0 1-.17.08.1.1 0 0 0-.07.05l-.03.07c-.02.04-.05.04-.08.01a.07.07 0 0 0-.04-.02h-.02l-.02.01a.05.05 0 0 0-.01.05c0 .02.02.04.04.05.05.02.05.04 0 .06l-.06.04a.13.13 0 0 0-.07.07l-.16.39a.38.38 0 0 0-.24.12.3.3 0 0 1-.22-.08c-.03-.02-.05-.03-.08 0-.04.01-.05.05-.03.1.06.22.1.45.1.69 0 .03 0 .05-.04.06-.07 0-.1.04-.1.1 0-.04-.02-.03-.07.01.03-.32.03-.62-.14-.86-.02-.03-.01-.04.01-.05.1-.04.14-.13.14-.29.07.07.14.12.2.16.15.1.33.1.42-.09.06-.13.12-.25.16-.38.04-.1.14-.18.22-.24a.1.1 0 0 0 .04-.09c0-.1.03-.21.1-.31a.1.1 0 0 0 0-.1l-.15-.4a.14.14 0 0 1 0-.1c.12-.27.26-.42.45-.46a.16.16 0 0 0 .1-.07.78.78 0 0 0 .14-.36c0-.1 0-.2.02-.29.01-.11 0-.2-.04-.26a.47.47 0 0 0-.2-.18.04.04 0 0 0-.04 0 .04.04 0 0 0-.02.04c0 .03 0 .06.02.1.02.02.02.05.02.09a.22.22 0 0 1-.11.16l-.05-.03-.03-.85a1.3 1.3 0 0 0 .06-.8l-.03-.08c0-.03.01-.05.05-.06a.1.1 0 0 0 .04-.04l.06-.1a.8.8 0 0 0 .24-.38l.22-.33c.13.31-.18.87-.34 1.14-.28.46.3.5-.13.86-.03.02-.03.04-.02.07.02.03.05.05.1.06Z" fill="#BADBF9"/><path d="m6.2 6.13.18.6c.04.17.1.33.2.46.07.1.16.14.27.09.06-.09.12-.13.16-.14.12-.03.16-.11.12-.26a.7.7 0 0 0-.1-.24.17.17 0 0 1 .1-.03c.03 0 .06.01.07.05l.05.04c.03 0 .06 0 .08-.03a.19.19 0 0 1 .12-.07.1.1 0 0 1 .09.02.7.7 0 0 1 .18.23.1.1 0 0 0 .09-.07c0-.03.02-.03.04-.02l.33.32c.02.02.05.03.08.03l.18.02a.07.07 0 0 1 .06.03.07.07 0 0 1 0 .06.2.2 0 0 1-.15.15.14.14 0 0 1-.12-.02c-.06-.04-.11-.03-.15.02a.07.07 0 0 0 .03.1h.03c.28-.02.46.11.54.4.02.06.05.1.1.1h.01l.01-.03v-.03c-.07-.03-.08-.06-.06-.1a.05.05 0 0 1 .04-.04.05.05 0 0 1 .05.03c.04.06.09.08.16.08-.02-.18.05-.28.2-.31a.07.07 0 0 0 .05-.04.07.07 0 0 0 0-.06l-.08-.2v-.02l.01-.02.02-.02c.03-.02.05-.02.06 0 .1.16.15.34.16.56a.06.06 0 0 0 .04.05.06.06 0 0 0 .06 0l.12-.1c.03-.03.04-.02.03.03a.6.6 0 0 1-.1.15c-.02.03-.01.06.03.07h.04c.02 0 .04 0 .04.03s-.01.05-.04.06a.08.08 0 0 0-.05.07c0 .04.01.06.05.07a.08.08 0 0 1 .04.06.09.09 0 0 1 0 .07c-.08.11-.09.22-.02.33a.1.1 0 0 1 .01.08c-.02.08-.02.14.01.18a.18.18 0 0 1-.05.06c-.08-.02-.12.02-.13.14a.4.4 0 0 1-.25.2l-.45-.16c.04-.02.02-.08-.03-.15l-.51-.3-.21-.24.45.18c.03.01.06 0 .09-.02a.35.35 0 0 1 .21-.1c.05 0 .07-.02.08-.06 0-.05 0-.1-.04-.15-.03-.03-.05-.03-.08 0a.08.08 0 0 0-.02.07c.01.06 0 .07-.06.04l-.9-.58a.14.14 0 0 0-.08-.02c-.45 0-.54.1-.29.28-.1 0-.21.03-.35.1a.08.08 0 0 0-.04.05.09.09 0 0 0 .01.08l.07.07c.03.01.05.04.05.07l.14.53c-.21-.02-.32.02-.33.11a.2.2 0 0 1-.15.07c-.06 0-.07-.02-.04-.08a.18.18 0 0 1 .06-.07.1.1 0 0 0 .03-.04.1.1 0 0 0 0-.06l-.1-.37c0-.03 0-.06.02-.09a.64.64 0 0 0 .04-.35.07.07 0 0 0-.05-.06c-.05-.02-.08-.08-.07-.17.05-.09.04-.18-.02-.29-.23-.39-.4-.74-.53-1.07.05-.1.07-.24.06-.4Z" fill="#0B20C7"/><path d="M8 5.2c.18-.04.24.16.28.25l.07.08c.03.02.07.02.11.01a.1.1 0 0 1 .09.03.1.1 0 0 1 .03.08v.43l.01.03a.05.05 0 0 0 .05.02l.03-.01c.07-.08.1-.17.1-.3h.04l.02.01.02.14.01.02.02.02h.05c.02-.02.03-.04.02-.06V5.9c.02-.04.04-.04.06 0 .01.03.02.06.01.1 0 .04.01.06.05.06.09 0 .17.03.25.08.04.03.07.02.1-.01a.25.25 0 0 1 .15-.1c.03-.01.05-.03.05-.07 0-.08.03-.15.09-.2a.1.1 0 0 0 .02-.1l-.04-.13c-.01-.04 0-.06.03-.07.02 0 .04 0 .05.02.08.13.11.26.1.41 0 .04-.03.06-.06.07h-.03c-.02 0-.04 0-.04.03 0 .2.05.36.14.5l.02.01a.03.03 0 0 0 .05-.01c.1-.21.22-.38.39-.51a.06.06 0 0 1 .08-.01c.13.06.26.1.39.08.05 0 .1-.03.16-.07l.16-.12.63-.15.32.29v.12c-.05-.1-.09-.13-.13-.13-.1 0-.17.07-.2.2l-.38.27a.78.78 0 0 0-.18.2l-.38-.44a.08.08 0 0 0-.06-.03l-.19-.01c-.03 0-.06 0-.08.04a.4.4 0 0 0-.04.16.95.95 0 0 0-.12.62c0 .03 0 .07-.02.1-.1.18-.2.33-.3.46-.1.13-.07.17.08.1l.33-.08c.07-.01.07-.04.02-.07l-.02-.03c-.02-.03-.01-.06.03-.07l.45-.17.3-.28c.08.1.15.14.23.13l.18.06a.8.8 0 0 1-.24.38l-.06.1a.1.1 0 0 1-.04.04c-.04.01-.05.03-.05.06 0 .02 0 .04.03.08a.2.2 0 0 1 .03.1c-.06 0-.1-.01-.14-.03-.11-.04-.2-.06-.32.1-.05 0-.07.03-.06.06-.29.14-.5.34-.63.62-.01-.02-.05-.02-.1 0a.23.23 0 0 0-.07.06c-.02.02-.01.05.01.06l.02.02c0 .03 0 .05-.02.07a.06.06 0 0 1-.05 0c-.02 0-.02-.02-.02-.03V8.8c-.01-.02-.03-.02-.05 0-.05.05-.1.09-.17.11-.03-.04-.03-.1 0-.18a.1.1 0 0 0-.02-.08c-.07-.1-.06-.22.01-.33a.09.09 0 0 0-.03-.13c-.04 0-.05-.03-.05-.07 0-.03.02-.06.05-.07.03-.01.04-.03.04-.06 0-.02-.02-.03-.04-.03h-.04c-.04-.01-.05-.04-.02-.07a.6.6 0 0 0 .09-.15c.01-.05 0-.05-.03-.02l-.12.08a.06.06 0 0 1-.09-.01v-.03a1.1 1.1 0 0 0-.17-.55c-.01-.03-.03-.03-.06-.01l-.02.02-.01.02v.02l.08.2a.07.07 0 0 1-.02.09l-.03.01c-.15.03-.22.13-.2.3a.16.16 0 0 1-.16-.07.05.05 0 0 0-.05-.03.05.05 0 0 0-.04.03c-.02.05 0 .08.05.1.02.02.02.03.01.04v.02l-.02.01c-.05 0-.08-.04-.1-.1-.08-.29-.26-.42-.54-.4a.06.06 0 0 1-.06-.02.07.07 0 0 1 0-.08c.04-.05.09-.06.15-.02.04.03.08.03.12.02a.2.2 0 0 0 .16-.15.07.07 0 0 0-.01-.06.07.07 0 0 0-.06-.03l-.18-.02a.13.13 0 0 1-.08-.03l-.33-.32c-.02-.01-.03-.01-.04.02a.1.1 0 0 1-.1.07.7.7 0 0 0-.17-.23.1.1 0 0 0-.1-.02.19.19 0 0 0-.11.07c-.02.03-.05.04-.08.03a.08.08 0 0 1-.05-.04.08.08 0 0 0-.07-.05c-.03 0-.07 0-.1.03a.26.26 0 0 0-.16-.04 1.23 1.23 0 0 1-.32-.32c-.04-.07-.16-.11-.35-.15.01.17-.01.3-.06.41 0-.04-.02-.08-.08-.12a2.26 2.26 0 0 1 0-.32.2.2 0 0 1 .09-.19c.04-.03.1-.04.17-.03l.73.1.17.04c.07 0 .16-.02.26-.05.03-.02.06-.01.08.02a.2.2 0 0 0 .15.07c.03 0 .05-.01.06-.05 0-.04-.01-.09-.06-.12-.08-.07-.07-.1.03-.1.07-.01.14-.07.2-.2A.64.64 0 0 1 8 5.2Z" fill="#3681F2"/><path d="M6.55 7.99c-.02.13 0 .27.05.39v.1c0 .08 0 .16.05.24a.05.05 0 0 1 0 .05l-.03.01h-.03a.21.21 0 0 1-.15-.18.1.1 0 0 1 .05-.1l.03-.01c.03-.02.03-.04 0-.06l-.17-.19a.3.3 0 0 1-.06-.09c.02-.13.01-.22-.04-.28-.03-.03-.03-.06 0-.1.02-.02.02-.05-.02-.07-.05-.04-.05-.07 0-.11.04-.05.1-.06.14-.06.03 0 .06.04.08.1l.1.36Z" fill="#145AE6"/><path d="M8.04 8.47a1.5 1.5 0 0 0-.46-.21l-.18-.15c-.25-.18-.16-.28.29-.28.03 0 .05 0 .08.02l.9.58c.05.03.07.02.06-.04 0-.03 0-.05.02-.07.03-.03.05-.03.08 0 .03.05.05.1.04.15-.01.04-.03.06-.08.07a.35.35 0 0 0-.21.1.08.08 0 0 1-.1 0l-.44-.17Z" fill="#1C6BF2"/><path d="M11.27 7.92c.04.22 0 .45-.1.7a1.6 1.6 0 0 0-.19.45c-.02.08-.1.1-.26.08-.02 0-.03-.03-.03-.07l.17-.5c.1-.11.1-.3.03-.53a.1.1 0 0 0-.08-.07c.17-.22.26-.1.46-.06Z" fill="#0B20C7"/><path d="M6.06 6.42c.06.04.09.08.08.12.13.33.3.68.53 1.07.06.1.07.2.02.29 0 .1.02.15.07.17.03.01.05.03.05.06.02.12 0 .24-.04.35a.14.14 0 0 0-.01.1l.1.36a.1.1 0 0 1 0 .06.1.1 0 0 1-.04.04.18.18 0 0 0-.06.07c-.03.06-.02.08.04.08a.2.2 0 0 0 .15-.07l-.06.38c-.02-.01-.04-.01-.07 0-.04.01-.07 0-.08-.05v-.1c0-.06-.01-.09-.07-.1a1.99 1.99 0 0 1-.19-.03v-.06h.02c.03 0 .04 0 .06.02a.04.04 0 0 0 .04 0h.02l.01-.03.02-.1C6.65 9 6.64 9 6.6 9s-.06-.01-.06-.05a.11.11 0 0 0-.04-.1.63.63 0 0 1-.2-.29c-.09-.16-.07-.26.05-.32l.17.19c.03.02.03.04 0 .06l-.03.02a.1.1 0 0 0-.05.09c.02.1.07.15.15.18a.04.04 0 0 0 .05 0 .05.05 0 0 0 0-.06.38.38 0 0 1-.03-.24l-.01-.1a.78.78 0 0 1-.05-.4 3.9 3.9 0 0 0-.1-.35c-.02-.06-.05-.1-.08-.1-.05 0-.1.01-.14.06-.05.04-.05.07 0 .1.04.03.04.05.02.09-.03.03-.03.06 0 .1.05.05.06.14.04.27l-.19-.1a.09.09 0 0 1-.05-.07c0-.06-.04-.1-.1-.11a.1.1 0 0 1-.06-.07.17.17 0 0 1 .02-.16.11.11 0 0 0 .01-.09l-.08-.3c.04 0 .07-.03.08-.08v-.04c-.14-.28-.09-.5.14-.66l.02-.03-.02-.02Z" fill="#4B91F8"/><path d="M10.81 7.98a.1.1 0 0 1 .08.07c.07.24.06.42-.03.54 0-.22-.03-.4-.11-.55-.01-.03 0-.05.06-.06Z" fill="#051B9F"/><path d="M10.75 8.04c.08.15.12.33.1.55l-.16.49c-.28.25-.51.33-.7.24.1-.16.15-.3.14-.43a.52.52 0 0 0 0-.23c.12-.28.33-.48.62-.62Z" fill="#FBFCF8"/><path d="m7.4 8.11.18.15-.18.05c-.02-.02-.04-.01-.05.01-.13.28-.1.51.07.71.15.13.21.23.2.3a1.41 1.41 0 0 0-.34-.32l-.14-.53a.13.13 0 0 0-.05-.07.33.33 0 0 1-.07-.07.09.09 0 0 1 .03-.13c.14-.07.25-.1.35-.1Z" fill="#051B9F"/><path d="M7.58 8.26c.17.04.32.11.46.2l.21.25-.07.2a1.1 1.1 0 0 0-.55-.51.6.6 0 0 0-.12-.03.16.16 0 0 1-.1-.06l.17-.05Z" fill="#9BAFE3"/><path d="M7.4 8.31c.03.03.06.05.11.06.06 0 .1.02.12.03.24.1.43.27.55.51l.05.2a7.2 7.2 0 0 1 .02.15.12.12 0 0 1-.06.07.11.11 0 0 1-.1 0 2.64 2.64 0 0 0-.67-.3c-.17-.2-.2-.43-.07-.71 0-.02.03-.03.05 0Z" fill="#D9E1EB"/><path d="M12.21 8.52c.26.2.36.46.3.77a.6.6 0 0 1-.3.25h-.03V9.5c.28-.19.33-.41.15-.68-.1-.15-.27-.22-.53-.21.05-.07.07-.11.06-.13.15 0 .27 0 .35.04Z" fill="#051B9F"/><path d="M6.3 8.56c.03.12.1.22.2.3.03.02.04.05.04.09 0 .04.02.05.06.05.04 0 .05.01.05.05l-.02.1a.04.04 0 0 1-.03.04.04.04 0 0 1-.04-.01.08.08 0 0 0-.06-.03l-.02.01v.06l.03.01.16.02c.06.01.08.04.07.1v.1c0 .04.03.06.08.05.03-.01.05-.01.07 0l.16.35a.38.38 0 0 1-.13.08.1.1 0 0 1-.11-.03c-.04-.04-.07-.04-.1 0-.02.05-.04.05-.06 0-.01-.04 0-.06.03-.08a.06.06 0 0 0 .03-.05.06.06 0 0 0-.02-.06.31.31 0 0 0-.22-.06c-.03 0-.06-.01-.08-.03a.12.12 0 0 1-.04-.08l-.03-.45-.01-.04-.02-.03a.1.1 0 0 1-.02-.07c0-.13-.04-.22-.14-.27.01-.03.02-.05 0-.06a.36.36 0 0 1 .16-.06Z" fill="#145AE6"/><path d="M11.8 8.6c.26 0 .44.07.53.22.18.27.13.5-.15.68a.2.2 0 0 1-.07.07c-.13-.06-.26 0-.4.17-.02-.11-.02-.2.02-.28a.12.12 0 0 0 0-.08.54.54 0 0 0-.23-.33c-.05-.03-.07-.06-.08-.1h.02c.15.03.26-.02.35-.17.02-.02.01-.04-.02-.04l-.04.01c.01-.05.03-.1.07-.14Z" fill="#4B91F8"/><path d="m11.18 8.61.03.85c-.04-.05-.08-.07-.1-.07-.03 0-.05.02-.08.07-.02.06-.06.08-.1.07l-.02-.18a.1.1 0 0 0-.03-.07l-.15-.13c.14.02.23 0 .25-.09.05-.16.11-.31.2-.45Z" fill="#3681F2"/><path d="M6.13 8.68c.1.05.15.14.14.27 0 .03 0 .05.02.07l.02.03.01.04.03.45c0 .03.01.06.04.08.02.02.05.03.08.03.08 0 .16.02.22.06a.06.06 0 0 1 .02.06.06.06 0 0 1-.03.05c-.03.02-.04.04-.03.08.02.05.04.05.06 0 .03-.04.06-.04.1 0a.1.1 0 0 0 .11.03.38.38 0 0 0 .13-.08l.33.31c.03.05.06.07.1.05.01.05.05.1.11.14-.08.04-.2.02-.38-.06.02-.08-.05-.16-.21-.24a.18.18 0 0 0-.11-.02c-.21.03-.32-.04-.33-.21 0-.03-.02-.05-.05-.05-.25-.02-.27-.4-.27-.6 0-.03 0-.06-.02-.09a.84.84 0 0 1-.12-.3c-.01-.06-.08-.09-.2-.07.1 0 .17 0 .23-.03Z" fill="#4B91F8"/><path d="M5.85 8.72h.05c.12-.03.19 0 .2.07.03.13.07.22.12.3.02.02.03.05.02.09 0 .18.02.57.27.59.03 0 .05.02.05.05.01.17.12.24.33.21.04 0 .07 0 .1.02.17.08.24.16.22.24l.28.52c-.03.02-.05.03-.06.02a4.74 4.74 0 0 0-1.42-.96.07.07 0 0 0-.08 0 .45.45 0 0 1-.23.1c-.03 0-.04-.04-.01-.1.03-.01.05-.03.06-.06 0-.03 0-.05-.03-.06a.2.2 0 0 1-.08-.1.09.09 0 0 1 0-.07.48.48 0 0 0 .04-.2c0-.04.01-.07.03-.1.1-.12.22-.2.34-.24.07-.02.08-.06.04-.12l-.02-.03c-.03-.05-.07-.06-.13-.03a.9.9 0 0 0-.39.35.47.47 0 0 0-.03.34l-.03.04c-.03.03-.05.03-.07 0-.02-.02-.02-.05-.01-.09a.53.53 0 0 0 .03-.24c.08-.23.22-.4.41-.54Z" fill="#145AE6"/><path d="M11.73 8.75h.04c.03 0 .04 0 .02.03-.09.15-.2.2-.35.17 0-.05.04-.08.1-.1a.52.52 0 0 0 .2-.1Z" fill="#D9E1EB"/><path d="M5.69 9.87c-.09-.05-.11-.11-.12-.23a.12.12 0 0 0-.05-.1.47.47 0 0 1 .03-.33.9.9 0 0 1 .4-.35c.05-.03.1-.02.12.03l.02.03c.04.06.03.1-.04.12a.71.71 0 0 0-.34.24.14.14 0 0 0-.03.1c0 .07 0 .14-.04.2a.09.09 0 0 0 0 .07.2.2 0 0 0 .08.1c.02.01.03.03.03.06s-.03.05-.06.06Z" fill="#051B9F"/><path d="M10.13 8.89a.72.72 0 0 1-.13.43c-.17.1-.29.1-.35 0-.05-.08-.1-.14-.16-.2 0-.12.05-.16.13-.14.02.13.06.2.15.24a.17.17 0 0 0 .19-.06.18.18 0 0 0 .03-.07.4.4 0 0 1 .14-.2Z" fill="#4EA05D"/><path d="M7.28 9c.1.07.22.18.34.34.28.17.62.23 1.03.19.04 0 .08 0 .12.04.04.04.06.04.07-.02l.04-.2a.04.04 0 0 1 .05-.03c.07.02.14.07.22.06.05-.01.08-.03.1-.06a.4.4 0 0 0 .24-.2c.06.06.11.12.16.2.06.1.18.1.35 0 .18.1.4.01.69-.24 0 .04.01.06.04.07l.15.13a.1.1 0 0 1 .03.07l.01.18a1.6 1.6 0 0 1-.32.63c-.16-.2-.35-.25-.56-.15-.2.1-.35.03-.46-.18-.08-.38-.26-.42-.56-.12 0 .02-.03.04-.08.06-.35.34-.72.11-1.08 0l-.22-.07-.48-.02c-.04 0-.05.02-.05.05 0 .06.03.1.07.15l.24.22c.03.03.03.04 0 .05l-.04.01-.33-.31-.16-.35.06-.38c.01-.09.12-.13.33-.11Z" fill="#E2D6C7"/><path d="M7.42 9.03a2.64 2.64 0 0 1 .72.3.11.11 0 0 0 .1-.03.12.12 0 0 0 .02-.04v-.07l.06.1c.12.17.26.18.4.05.02-.09.04-.15.07-.18l.45.16c-.01.03-.04.05-.09.05-.08.02-.15-.03-.22-.05a.04.04 0 0 0-.04.01v.02l-.05.2c0 .06-.03.06-.07.02a.14.14 0 0 0-.12-.04c-.4.04-.75-.02-1.03-.2.01-.07-.05-.17-.2-.3Z" fill="#A3A3A3"/><path d="m6.14 8.62-.01.06a.57.57 0 0 1-.23.03l-.05.01c-.19.13-.33.31-.41.54-.04.02-.05.03-.04.04v.26c0 .07-.03.13-.06.16-.06.04-.12.04-.2 0a.17.17 0 0 0-.1-.02.73.73 0 0 0-.48.25c-.1-.03-.14-.12-.1-.28-.05 0-.08-.01-.1-.04-.24-.28-.26-.59-.07-.93.2-.33.45-.44.99-.44a.11.11 0 0 1 .11 0l.33.23.09.04.33.1Z" fill="url(#cux0gxon5)"/><path d="M8.23 9.1c.12.11.25.16.37.14.03 0 .05.01.06.04.01.05.03.07.06.06-.14.13-.28.12-.4-.04a.9.9 0 0 1-.07-.11c0-.02 0-.05-.02-.08Z" fill="#2D673D"/><path d="M11.61 9.83c-.06-.03-.1-.04-.14-.03a.18.18 0 0 0 .04-.1V9.7l-.02-.02a.05.05 0 0 0-.03-.02.75.75 0 0 0-.24.05c-.03.01-.05 0-.07-.01a.13.13 0 0 1-.02-.07.06.06 0 0 1 .05-.06c.05 0 .08-.03.08-.07.06-.03.1-.09.1-.16v-.1a.2.2 0 0 1-.03-.1.04.04 0 0 1 .02-.02.04.04 0 0 1 .04 0c.08.03.15.09.2.17.04.06.05.15.04.26l-.02.29Z" fill="#4B91F8"/><path d="M5.44 9.26c0 .09 0 .17-.03.24v.1c.03.02.05.02.08-.01l.03-.04c.03.02.05.05.05.1 0 .1.03.17.12.22-.03.06-.02.1 0 .1a.62.62 0 0 1-.48-.14c-.03-.02-.05-.02-.08 0l-.4.3c.01.02-.01.03-.09.03-.1-.08-.12-.14-.08-.2.14-.16.3-.25.49-.26.03 0 .06 0 .09.02.07.04.14.04.2 0 .03-.03.05-.09.06-.16V9.3c-.01-.01 0-.02.04-.04ZM12.52 9.29c.04.16.03.28-.06.38-.15.01-.27-.02-.35-.1a.2.2 0 0 0 .08-.07v.03c0 .01 0 .02.02.01a.6.6 0 0 0 .3-.25Z" fill="#1C6BF2"/><path d="m11.2 9.46.06.03c0 .04-.03.06-.08.07a.06.06 0 0 0-.05.04v.02l.02.06c.02.03.04.03.07.02a.75.75 0 0 1 .24-.05.05.05 0 0 1 .03.02l.02.02v.02c0 .02-.01.05-.04.09l-.49.27-.12.06a.38.38 0 0 0-.09.05 1 1 0 0 0-.19.2c-.08.12-.14.24-.18.36-.04.1-.1.2-.15.28a.07.07 0 0 1-.07.03 1.3 1.3 0 0 1-.46-.14.1.1 0 0 0-.07-.01.47.47 0 0 0-.2.13l-.85.12c-.33-.06-.56-.05-.67.01-.09.05-.13.09-.14.12-.05.16-.1.16-.13 0a2.63 2.63 0 0 0-.17-.47l-.28-.52c.18.08.3.1.38.06.75.45 1.4.73 2.25.3.32-.1.57-.27.76-.49.16-.2.27-.4.32-.63.05.01.09-.01.11-.07.03-.05.05-.07.07-.07.03 0 .07.02.1.07Z" fill="#0B20C7"/><path d="M12.84 8.08a.94.94 0 0 0-.42.16.17.17 0 0 1-.08.03c-.23.01-.39.08-.48.21.15 0 .27 0 .35.04.26.2.36.46.3.77.05.16.04.28-.05.38 0 .04.03.07.07.1.02.24.3.2.43.08.07-.07 1.1-.38.8-.83-.05-.33-.42-1-.92-.94Z" fill="url(#dux0gxon5)"/><path d="m9.58 9.83-.24.23c-.1.04-.19.03-.25 0a.08.08 0 0 1-.03-.08c0-.1 0-.18-.04-.27.3-.3.48-.26.56.12Z" fill="#342D38"/><path d="m7.64 9.7-.48-.02c-.04 0-.05.02-.05.05 0 .06.03.1.07.15l.24.22c.03.03.03.04 0 .05l-.04.01c.03.05.06.07.1.05.01.05.05.1.11.14.75.45 1.4.73 2.25.3.32-.1.57-.27.76-.49-.16-.2-.35-.25-.56-.15-.2.1-.35.03-.46-.18l-.24.23c-.1.04-.19.03-.25 0a.08.08 0 0 1-.03-.08c0-.1 0-.18-.04-.27 0 .02-.03.04-.08.06-.3.28-.6.17-.9.06a4.24 4.24 0 0 0-.18-.06l-.22-.07Z" fill="#A1897C"/><path d="M10.98 10.07a2 2 0 0 0-.59 1.25c-.01.18-.08.3-.16.44l-.06-.1-.01-.43c0-.04-.02-.06-.05-.07l-.45-.13h-.22a.47.47 0 0 1 .2-.13.1.1 0 0 1 .08 0c.14.08.29.13.46.15.03 0 .05 0 .07-.03.06-.09.1-.18.15-.28.04-.12.1-.24.18-.35a1 1 0 0 1 .2-.21.37.37 0 0 1 .08-.05l.12-.06ZM7.43 10.83l.06-.02c.08.18.14.33.17.47.04.16.08.16.13 0 0-.03.05-.07.14-.12.11-.06.34-.07.67-.01-.22.06-.48.03-.65.16-.17.13-.21.33-.13.61-.05 0-.09-.03-.13-.1a.32.32 0 0 1-.05-.14.9.9 0 0 0-.1-.38.15.15 0 0 1-.03-.1.5.5 0 0 0-.08-.37Z" fill="#3681F2"/><path d="M5.68 11.42a.05.05 0 0 1-.05.01c-.01 0-.02 0 0-.02a.15.15 0 0 1 .13-.06c.17.02.36-.02.47-.16.08-.08.16-.16.27-.22h.01l.02.02-.37.3c-.04.03-.05.07-.03.11.02.03.01.04-.02.05a.58.58 0 0 1-.4-.04h-.03Z" fill="#9BAFE3"/><path d="M9.44 11.03h.22l.45.13c.03.01.04.03.05.07l.01.44a.43.43 0 0 1-.09.13c-.16.4-.37.62-.65.66-.32-.07-1.32.38-1.55-.02-.06-.2-.06-.35-.06-.52-.08-.28-.04-.48.13-.61.11-.09.25-.1.4-.12.08 0 .17-.02.25-.04l.84-.12Z" fill="url(#eux0gxon5)"/><defs><linearGradient id="aux0gxon5" x1="3.35" y1="3.12" x2="21.9" y2="24.43" gradientUnits="userSpaceOnUse"><stop stop-color="#1A1E21"/><stop offset="1" stop-color="#06060A"/></linearGradient><linearGradient id="bux0gxon5" x1="6.79" y1="5.03" x2="11.5" y2="13.26" gradientUnits="userSpaceOnUse"><stop stop-color="#AB860A"/><stop offset=".28" stop-color="#F2DD1B"/><stop offset=".63" stop-color="#FBFCF8"/><stop offset="1" stop-color="#FCF484"/></linearGradient><linearGradient id="cux0gxon5" x1="4.59" y1="8.71" x2="5.18" y2="9.59" gradientUnits="userSpaceOnUse"><stop offset=".6" stop-color="#D9E1EB"/><stop offset="1" stop-color="#AEC0E3"/></linearGradient><linearGradient id="dux0gxon5" x1="12.53" y1="8.26" x2="12.82" y2="9.74" gradientUnits="userSpaceOnUse"><stop offset=".54" stop-color="#D9E1EB"/><stop offset="1" stop-color="#5E76C3"/></linearGradient><linearGradient id="eux0gxon5" x1="9.59" y1="11.21" x2="8.26" y2="12.38" gradientUnits="userSpaceOnUse"><stop stop-color="#E2D6C7"/><stop offset="1" stop-color="#8E7365"/></linearGradient></defs></svg>