<!-- by TradingView --><svg width="18" height="18" viewBox="0 0 18 18" xmlns="http://www.w3.org/2000/svg"><path fill="#2C2F4E" d="M0 0h18v18H0z"/><path d="M12.43 4.09c-.6-.18-1.34-.1-2.3.32l-.03.01-.01.01a.44.44 0 0 1-.06.04 8.1 8.1 0 0 0-2.73.31c-.89.25-1.83.76-2.14 1.77l-.04.02c-.18.1-.33.18-.44.27a.82.82 0 0 0-.28.46.36.36 0 0 0 .01.25c.06.12.18.15.27.15.09 0 .18-.03.26-.06.08-.03.17-.07.27-.13a9.7 9.7 0 0 1 1.5-.21c.35-.02.62 0 .83.05a3.42 3.42 0 0 0 .69 1.32c.12.13.27.25.45.3l.14.02c.05 0 .11 0 .18-.03.07-.04.1-.1.12-.15v-.13L9.1 8.5a8.17 8.17 0 0 1-.06-.36v-.8a5.92 5.92 0 0 1 4.47 2.9v.01a.2.2 0 0 0 .11.09.22.22 0 0 0 .27-.12 2.98 2.98 0 0 0 .1-.58c.02-.37.01-.9-.11-1.46v-.03a5.9 5.9 0 0 0-.81-1.58c-.32-.43-.73-.8-1.33-1.29l-.12-.1.08-.08.2-.18.1-.09c.08-.04.14-.1.2-.13l.02-.03c.06-.04.12-.08.23-.13a.4.4 0 0 0 .1-.06.22.22 0 0 0 .09-.16c0-.1-.06-.15-.1-.18a.38.38 0 0 0-.1-.05Z" fill="url(#arvat2qvn)"/><path d="M4.54 8.5c.02-.13-.07-.24-.2-.26-.14-.01-.26.07-.27.2a6.7 6.7 0 0 0-.07.81C4 11.93 6.22 14 9.04 14c2.01 0 3.71-1.2 4.55-2.78a.22.22 0 0 0-.11-.3.25.25 0 0 0-.32.1 4.73 4.73 0 0 1-4.12 2.53c-2.55 0-4.56-1.86-4.56-4.3 0-.2.03-.55.06-.75Z" fill="url(#brvat2qvn)"/><defs><linearGradient id="arvat2qvn" x1="4.38" y1="8.31" x2="13.55" y2="9.79" gradientUnits="userSpaceOnUse"><stop stop-color="#E3BF9F"/><stop offset=".47" stop-color="#C2DAA8"/><stop offset="1" stop-color="#61B2C8"/></linearGradient><linearGradient id="brvat2qvn" x1="4.38" y1="8.31" x2="13.55" y2="9.79" gradientUnits="userSpaceOnUse"><stop stop-color="#E3BF9F"/><stop offset=".47" stop-color="#C2DAA8"/><stop offset="1" stop-color="#61B2C8"/></linearGradient></defs></svg>