<!-- by TradingView --><svg width="18" height="18" viewBox="0 0 18 18" xmlns="http://www.w3.org/2000/svg"><path fill="#F0F3FA" d="M0 0h18v18H0z"/><path d="M8.97 6c-.38.24-.82.7-.88 1.2-.05.35.11.78.29 1.09l.58 1c.11.2.25.48.27.7.02.25-.05.5-.2.73-.02.02-.04.02-.05 0-.44-.53-.82-1.08-1.16-1.64-.33-.54-.78-1.36-.63-2.04.2-.88 1.02-1.62 1.78-2.03a.06.06 0 0 1 .06 0c.58.4 1.13.92 1.48 1.56.27.5.36 1.04.27 1.63 0 .05-.02.05-.05 0A7.55 7.55 0 0 0 9.03 6a.04.04 0 0 0-.06 0Z" fill="#14171A"/><path d="M9.02 11.54c.4-.3.71-.7.86-1.2.1-.36.02-.68-.14-.99-.17-.32-.37-.66-.59-1.03a3.9 3.9 0 0 1-.3-.63.89.89 0 0 1 .13-.88 12.5 12.5 0 0 1 1.27 1.6c.27.42.6 1.03.6 1.55.01.64-.38 1.3-.8 1.78A4.3 4.3 0 0 1 9 12.6c-.05-.02-.08-.05-.12-.08-1.13-.77-2.46-2.25-2.01-3.8.02-.07.04-.07.07 0a6.83 6.83 0 0 0 2.09 2.81Z" fill="#14171A"/><path d="M5.69 8.04c0 .7.14 1.37.39 2 .44 1.14 1.2 2 2.23 2.59.07.03.06.05-.01.04-.4-.04-.78-.16-1.15-.36a4.1 4.1 0 0 1-1.94-2.4c-.21-.7-.3-1.43-.4-2.14a3.54 3.54 0 0 0-.1-.53h.02a6.96 6.96 0 0 1 1.86.24l.02.04v.66l-.01.01-.02.01h-.01a3.65 3.65 0 0 0-.88-.16ZM12.3 8.03a3.23 3.23 0 0 0-.89.17.02.02 0 0 1 0-.02V7.5c0-.03 0-.04.02-.05a7.4 7.4 0 0 1 1.85-.2.03.03 0 0 1 0 .03l-.07.34c-.15.97-.22 2.02-.66 2.91a3.96 3.96 0 0 1-2.56 2.1c-.1.02-.21.04-.32.04-.04 0-.05 0 0-.03a5.26 5.26 0 0 0 2.62-4.6Z" fill="#14171A"/><path d="M4.25 10.79c.06.09.14.17.22.26.5.55 1.13 1.01 1.79 1.36.48.25.97.42 1.47.5.1.02.1.03 0 .04a3.82 3.82 0 0 1-3.28-1c-.3-.26-.58-.52-.86-.8a3.89 3.89 0 0 0-.59-.47.04.04 0 0 1 .01-.03c.47-.39.99-.7 1.56-.92.02-.01.04 0 .04.02a4.02 4.02 0 0 0 .29.75l-.02.01a3.46 3.46 0 0 0-.63.27ZM13.74 10.8c.01-.03 0-.04-.01-.05-.2-.1-.4-.17-.61-.24-.02 0-.03-.01-.02-.03a4 4 0 0 0 .31-.76 5.51 5.51 0 0 1 1.59.97l-.01.01c-.46.3-.84.7-1.25 1.08a4 4 0 0 1-3.5 1.16c-.04 0-.04 0 0-.02.28-.06.58-.12.84-.22a6.63 6.63 0 0 0 2.66-1.9Z" fill="#14171A"/></svg>