<!-- by TradingView --><svg width="18" height="18" viewBox="0 0 18 18" xmlns="http://www.w3.org/2000/svg"><path fill="url(#a24j4wpdl)" d="M0 0h18v18H0z"/><path fill-rule="evenodd" d="M10.78 12.8a3.97 3.97 0 0 0 2.18-1.88c.4-.7.55-1.53.48-2.33a1.58 1.58 0 0 0-.08-.37c-.02-.06.14-.28.21-.37l.02-.02a110.65 110.65 0 0 0 1.36-1.9l.04-.05a67.22 67.22 0 0 0-2.14.1 8.4 8.4 0 0 1-.8.02.07.07 0 0 1-.04-.03c-.57-.7-2.56-1.2-3.76-.87a4.28 4.28 0 0 0-2.74 2.18c-.39.78-.47 1.65-.34 2.5.12.7-.52 1.34-1.06 1.88-.18.19-.36.36-.48.52-.02.02-.01.02.01.02l1.08-.08c.57-.05 1.14-.1 1.71-.1.07 0 .11.05.16.09l.05.04a4.85 4.85 0 0 0 4.14.65Zm-3.94-1.94c.13.02.23.04.33.14a3.02 3.02 0 0 0 4.3-.09 2.88 2.88 0 0 0 .65-2.66c-.04-.09-.07-.18-.04-.25l.47-.81c0-.02-.01-.02-.02-.02-.37.03-.68.02-.93-.03-.13-.02-.2-.1-.29-.18a3.14 3.14 0 0 0-3.1-.6l-.1.04a2.83 2.83 0 0 0-1.73 3.08l.03.17c.04.14.08.29.03.41a3.22 3.22 0 0 1-.43.76v.02a.04.04 0 0 0 .04.02c.27-.02.54-.02.79 0Z" fill="#fff"/><circle cx="3.8" cy="6.2" fill="url(#b24j4wpdl)" r=".8"/><defs><linearGradient id="a24j4wpdl" x1="3.35" y1="3.12" x2="21.9" y2="24.43" gradientUnits="userSpaceOnUse"><stop stop-color="#1A1E21"/><stop offset="1" stop-color="#06060A"/></linearGradient><linearGradient id="b24j4wpdl" x1="4.35" y1="5.71" x2="3.13" y2="6.6" gradientUnits="userSpaceOnUse"><stop stop-color="#3119FF"/><stop offset="1" stop-color="#21E8FF"/></linearGradient></defs></svg>