<!-- by TradingView --><svg width="18" height="18" xmlns="http://www.w3.org/2000/svg"><path fill="#F0F3FA" d="M0 0h18v18H0z"/><path d="M13.183 4h-.867l-6.02 1.18L6.174 14h6.876c.8 0 .966-.596.949-.894V4.842c0-.633-.544-.825-.816-.842z" fill="#881816"/><path d="M4.84 4h7.473C8.663 5.462 7.258 7.45 7.011 8.26c-.087.29-.21.984 0 1.441.21.457.314 1.229.34 1.558.011 1.713-.785 2.543-1.185 2.741H4.84c-.64-.013-.828-.594-.839-.88v-8.2c.013-.66.544-.92.84-.92z" fill="#C31718"/><path d="M6.906 8.706c.338-1.95 2.904-3.527 4.13-4.103-1.227 1.731-.776 2.95-.398 3.344-.624.068-1.178.534-1.376.76-.34.318-1.167.966-1.746 1.011-.579.045-.648-.656-.61-1.012zM7.461 10.066a.636.636 0 01-.385-.204c.567 1.788.076 2.94-.245 3.477.58-.587.919-1.696.919-2.282 0-.47-.203-.86-.289-.99z" fill="#fff"/><path d="M9.505 8.94c-.799.864-1.432 1.088-1.649 1.092.66 1.223-.096 2.756-.557 3.37.534-.15 3.077-1.921 3.623-3.232.436-1.049.22-1.549.058-1.668-.486-.354-1.243.146-1.475.437z" fill="#fff"/></svg>