<!-- by TradingView --><svg width="18" height="18" viewBox="0 0 18 18" xmlns="http://www.w3.org/2000/svg"><path fill="#F0F3FA" d="M0 0h18v18H0z"/><path d="M10.3 10.27v.05l-.01.03h-.03c-.02.01-.03 0-.03-.02 0-.07-.05-.14-.14-.19a.36.36 0 0 0-.2-.04c-.19 0-.32-.04-.45.11a.1.1 0 0 1-.05.03.1.1 0 0 1-.06 0l-.82-.27a.08.08 0 0 1-.04-.02.17.17 0 0 1-.02-.16c0-.04.04-.07.1-.1.14-.08.29-.14.42-.18.25-.07.55-.05.82-.04a.9.9 0 0 1 .32.1c.01 0 .02 0 .03-.02v-.01c.16.17.24.37.24.6 0 .05-.02.08-.07.1-.01 0-.02.01-.01.03Z" fill="#001C58"/><path d="M9.84 10.3c-.01.02-.02.05-.05.07-.03.03-.04.02-.03-.01v-.04c.01-.07-.02-.09-.1-.05a.16.16 0 0 1-.12.02c-.02 0-.03-.02-.03-.03v-.04l.02-.04a.08.08 0 0 1 .04-.02c.15-.02.3-.02.45 0 .08.02.12.07.13.16 0 .02 0 .03-.03.03-.1.02-.18 0-.2-.07-.04-.06-.07-.06-.08.01Z" fill="#001C58"/><path fill-rule="evenodd" d="M8.4 9.99a.15.15 0 0 1-.03-.06c-.05-.12.01-.23.19-.32.38-.18.8-.25 1.25-.2.1 0 .2.04.29.1.06.04.07.03.03-.02a1.06 1.06 0 0 0-.65-.36c-.02 0-.03-.02-.03-.04v-.2l.03-.06a.13.13 0 0 1 .07-.03c.18-.04.38-.08.52-.18v-.04l-.01-.01a.03.03 0 0 0-.02 0 1.22 1.22 0 0 1-.47.07v-.02l-.01-.01v-.02a.77.77 0 0 0 .17-.22v-.03l-.01-.02a.06.06 0 0 1-.03-.04c-.04-.5.37-.96.9-1.15a.94.94 0 0 1 .35-.03h.02c.03 0 .04-.01.04-.04v-.3a.09.09 0 0 0-.03-.07.14.14 0 0 1-.05-.14c0-.02 0-.03-.03-.03h-.19V6.5l-.01-.02a.4.4 0 0 1 .13-.1c.02 0 .03-.02.03-.04v-.11c0-.02-.01-.04-.04-.04a.5.5 0 0 0-.25.02c-.1.04-.2.09-.28.15-.15.12-.24.3-.33.45l-.09.16c-.04.06-.09.07-.15.04-.23-.14-.61-.5-.56-.77l.01-.09c.06-.31.16-.85-.1-1.04-.22-.14-.46-.16-.75-.04a.05.05 0 0 0-.02.02v.05l.03.01.02.01c.1.04.26.1.3.18.08.22.03.41-.15.6-.1.1-.2.21-.28.33-.44.65.21 1.06.76 1.4l.16.1c.1.07.2.18.26.32.05.1.05.2.02.31-.08.29-.14.46-.46.65a.15.15 0 0 1-.08.02c-.12 0-.2.03-.25.1a.58.58 0 0 1-.22.19c-.17.07-.27.26-.34.4l.01.01a.1.1 0 0 0 .07 0 .14.14 0 0 0 .06-.07.17.17 0 0 1 .06-.06.07.07 0 0 0 .04-.05c0-.07.04-.14.1-.2h.01c.02 0 .03 0 .02.02a.46.46 0 0 0-.08.27c0 .02-.01.03-.03.03a.2.2 0 0 0-.1 0c-.02.01-.03.03-.02.05l.01.04c0 .02-.01.03-.03.03-.27.01-.17.33-.12.47.11.33.5.59.88.68.02 0 .04 0 .05-.02.02-.04 0-.05-.04-.04h-.08a.47.47 0 0 0-.05-.04 1.19 1.19 0 0 1-.6-.83v-.01l.03-.02c.01 0 .03 0 .03.02.07.44.37.75.9.93.09.03.18.03.28 0 .3-.08.55-.23.76-.46v-.04c-.05-.03-.6-.12-.71-.14h-.02c-.04 0-.05.05-.06.08 0 .02-.01.02-.02 0a.13.13 0 0 1-.03-.06c0-.02 0-.03-.02-.04a.1.1 0 0 0-.04-.03l-.85-.27a.19.19 0 0 1-.06-.03Zm.32-4.83.05.02a.1.1 0 0 1 .05.03l.02.05c-.05.26-.1.48-.16.69-.03.1 0 .18.1.24l.09.06c.1.06.16.04.18-.07l.08-.59c.02-.1-.03-.24-.13-.4-.05-.07-.18-.08-.27-.07-.05.01-.05.02-.01.04Z" fill="#001C58"/><path fill-rule="evenodd" d="M9 15A6 6 0 1 0 9 3a6 6 0 0 0 0 12Zm0-.35a5.65 5.65 0 1 0 0-11.3 5.65 5.65 0 0 0 0 11.3Z" fill="#001C58"/><path d="M6.46 4.88a4.82 4.82 0 0 1 5-.05l.25-.38a5.27 5.27 0 0 0-5.52.06l.27.37Zm5.52 8.5-.24-.39a4.82 4.82 0 0 1-5.43.04l-.3.35a5.27 5.27 0 0 0 5.97 0Z" fill="#001C58" fill-opacity=".5"/><path d="M4 9.03c0-1.57.7-2.98 1.8-3.91h.26a4.96 4.96 0 0 0-1.9 3.91c0 1.56.71 2.95 1.82 3.85h-.26A5.14 5.14 0 0 1 4 9.03Zm8.28 3.85A5.14 5.14 0 0 0 14 9.03c0-1.57-.7-2.98-1.8-3.91h-.26a4.96 4.96 0 0 1 .08 7.76h.26Z" fill="#001C58"/><path d="m7.47 10.92-.29.4c.09.11 1 .5 1.89.5.7 0 1.44-.33 1.71-.5l-.34-.4c-.17.16-.7.48-1.37.48-.68 0-1.35-.32-1.6-.48Z" fill="#001C58" fill-opacity=".5"/><path d="m7.74 11.75-.22.45c.25.1.89.34 1.5.34.6 0 1.16-.23 1.36-.34l-.2-.4c-.15.09-.6.26-1.16.26a3 3 0 0 1-1.28-.3Z" fill="#001C58" fill-opacity=".5"/></svg>