<!-- by TradingView --><svg width="18" height="18" viewBox="0 0 18 18" xmlns="http://www.w3.org/2000/svg"><path fill="url(#akcbgkn0m)" d="M0 0h18v18H0z"/><path fill-rule="evenodd" d="M9 14.65a5.65 5.65 0 1 0 0-11.3 5.65 5.65 0 0 0 0 11.3ZM9 15A6 6 0 1 0 9 3a6 6 0 0 0 0 12Z" fill="url(#bkcbgkn0m)"/><path d="m8.25 9.12.42 2.33a2.81 2.81 0 0 1-1.59-.73c-.28-.26-.7-.36-1.02-.17-.34.2-.45.66-.18.96a4.22 4.22 0 0 0 3.05 1.37l.08.48a.7.7 0 0 0 1.4-.25l-.09-.44a4.24 4.24 0 0 0 2.87-4.64c-.1-.64-.75-.99-1.4-.88-1.84.3-3.68.56-5.54.84a2.82 2.82 0 0 1 4.21-1.76c.27.16.61.21.89.06.42-.23.52-.8.13-1.08a4.24 4.24 0 0 0-6.71 3.43c0 .57.54.94 1.1.85l2.38-.37Zm1.4-.2 2.17-.34v.07c0 1.18-.72 2.19-1.75 2.61l-.42-2.35Z" fill="url(#ckcbgkn0m)"/><defs><linearGradient id="akcbgkn0m" x1="3.35" y1="3.12" x2="21.9" y2="24.43" gradientUnits="userSpaceOnUse"><stop stop-color="#1A1E21"/><stop offset="1" stop-color="#06060A"/></linearGradient><linearGradient id="bkcbgkn0m" x1="3.18" y1="9.53" x2="15" y2="9.88" gradientUnits="userSpaceOnUse"><stop stop-color="#FD00FF"/><stop offset="1" stop-color="#0BF2FE"/></linearGradient><linearGradient id="ckcbgkn0m" x1="6" y1="6.35" x2="12.18" y2="10.76" gradientUnits="userSpaceOnUse"><stop stop-color="#0BF1FF"/><stop offset="1" stop-color="#F903FF"/></linearGradient></defs></svg>