<!-- by TradingView --><svg width="18" height="18" viewBox="0 0 18 18" xmlns="http://www.w3.org/2000/svg"><path fill="#BDBDBD" d="M0 0h18v18H0z"/><path d="m8.51 5.24-.01-.08c0-.02-.02-.03-.05-.02-.04 0-.09.02-.13.04-.03.02-.04.05-.03.08l.04.12c.02.04.03.04.05 0 .04-.1.08-.15.13-.14l-.03.19c0 .02-.02.02-.03.03H8.4c-.02 0-.03.02-.03.03a.9.9 0 0 1-.02.14c0 .02-.02.03-.03.04-.03.02-.05.01-.06-.01a28.81 28.81 0 0 0-.24-.38v.01c.07.14.15.29.24.43.02.02.02.05 0 .07 0 .01-.02.02-.03.01-.1-.04-.19-.08-.27-.14a1.02 1.02 0 0 0-.24-.11c-.23-.08-.5-.14-.78-.18a3 3 0 0 0-1 0c.26-.06.52-.08.78-.07a52.28 52.28 0 0 0 .36.01V5.3l-.01-.01-.68-.07c-.01 0-.03 0-.04-.02a6.36 6.36 0 0 0-1.38.14h-.01l.19-.08a.9.9 0 0 0 .12-.05.67.67 0 0 1 .18-.05 13.02 13.02 0 0 1 .85-.07v-.02a.63.63 0 0 0-.21-.04 3.42 3.42 0 0 0-.96.1.8.8 0 0 1 .37-.07h.05a2.77 2.77 0 0 1 .8-.05c.01 0 .02-.01.01-.03-.01-.02-.03-.04-.06-.04a5.4 5.4 0 0 1-.63-.1 1.43 1.43 0 0 1-.2-.03h.1l.2.01a11.03 11.03 0 0 1 .83.17l.16.06c.03 0 .03 0 .01-.02a1.8 1.8 0 0 1-.4-.8c-.07-.28-.05-.5.08-.66.04-.05.1-.08.18-.11.23-.08.5-.05.79.1A2.32 2.32 0 0 1 8 4c.02.02.03.01.04 0v-.02a7.37 7.37 0 0 0 .48.24c.06.03.07.02.04-.03a.96.96 0 0 0-.3-.22 2.11 2.11 0 0 1-.16-.09h-.05a.04.04 0 0 0-.02.03c0 .03 0 .03-.01 0v-.01c.03-.04.02-.07-.02-.1h-.04l-.02-.01c0-.02 0-.02.02-.02.27.06.5.17.67.33.06.06.08.05.06-.03a2.29 2.29 0 0 0-.44-.56h.02c.18.1.32.24.42.41 0 .02.02.02.03.01h.01c0-.03 0-.03.02-.02.1.1.17.2.2.31 0 .06.03.06.06.01.18-.3.38-.47.59-.49.02 0 .03-.01.04-.03.06-.16.16-.32.3-.46a.8.8 0 0 1 .5-.26c.17 0 .3.05.39.17.05.08.09.2.1.35l.01.05c.03.2.02.4 0 .6 0 .03 0 .03.03.02.11-.05.23-.08.34-.11l.7-.16a4.55 4.55 0 0 1 1.1-.1v.01l-.8.08a.24.24 0 0 0-.16.08l-.03.02a15.55 15.55 0 0 0-.78.16 2.03 2.03 0 0 1 .67 0v.01c-.5 0-.88.08-1.17.26a2.2 2.2 0 0 1-.49.2c-.03.02-.03.02 0 .03.02 0 .04 0 .04.02.01.02.03.03.05.03l.14-.01c.03-.01.03-.02 0-.03a.27.27 0 0 0-.16.01l-.02-.02.01-.01c.08-.03.16-.05.25-.06.3-.04.62-.05.95-.05a2.38 2.38 0 0 1 .82.16h-.01a3.44 3.44 0 0 0-.6-.1c-.15-.01-.15 0 0 .05a5.95 5.95 0 0 0 .43.12l.1.04c.14.06.25.1.32.1.2.03.33.08.42.14.07.05.15.1.24.13.02 0 .02.02 0 .02l-.03.02h-.04c-.15-.1-.31-.19-.5-.24-.02-.01-.03 0-.02.01l.01.02c.02.01.01.02 0 .02h-.02a4.05 4.05 0 0 0-1.82-.37c-.05 0-.05 0 0 .02a1.33 1.33 0 0 0 .35.07c.1 0 .19.02.24.03l.2.04a1.66 1.66 0 0 1 .3.08l.18.06c.21.08.38.16.5.23.13.06.24.14.33.24.03.02.02.02 0 0-.3-.22-.67-.38-1.09-.5a24.74 24.74 0 0 0-.56-.13l.48.24c.08.04.14.08.2.13.03.03.02.03-.01.01a1.43 1.43 0 0 0-.28-.14A1.4 1.4 0 0 1 11.6 5a1.95 1.95 0 0 0-.85-.2 1.1 1.1 0 0 1-.23 0v.02l.46.1c.13.02.27.06.4.12a3.26 3.26 0 0 1 .4.2h-.01a2.85 2.85 0 0 0-.66-.22.64.64 0 0 1-.15-.04.1.1 0 0 0-.05 0c-.03 0-.06 0-.11-.02a2.24 2.24 0 0 0-.35-.06.83.83 0 0 0-.4.08.04.04 0 0 0-.01.02v.02l.03.01a.5.5 0 0 0 .16-.05l.03-.01h.02c0 .03.01.04.04.02a.12.12 0 0 1 .06-.02c.02 0 .03 0 .05.02.01.02.03.02.05 0a.1.1 0 0 1 .04 0l.2-.03.06.01.27.08.27.08a6.46 6.46 0 0 1 1.22.68v.02h-.03a3.3 3.3 0 0 0-.8-.41c-.03 0-.04 0-.03.02.01.04.03.08.07.1v.01h-.02a.96.96 0 0 1-.07-.06.59.59 0 0 0-.12-.1 1.53 1.53 0 0 0-.41-.15l-.18-.05a2.91 2.91 0 0 0-.29-.06v.02h.01a2.06 2.06 0 0 1 .68.3v.02a2.36 2.36 0 0 0-1.27-.27v.03c.18 0 .34.02.46.03.46.07.87.25 1.22.55l.77.7a3.6 3.6 0 0 1 .45.58l.06.06a2.7 2.7 0 0 1 .2.42 4.34 4.34 0 0 0-.32-.5 5.36 5.36 0 0 0-1.34-1.32v.02a31.1 31.1 0 0 1 .77.74v.01c.05.06.08.1.09.15.03.1.08.22.15.33.03.05.08.1.14.13l-.01.02h-.03a.76.76 0 0 0-.04-.05 3.93 3.93 0 0 0-.54-.65 5.6 5.6 0 0 1-.4-.43.48.48 0 0 0-.13-.1c-.06-.03-.07-.02-.03.04l.01.02.02.03c.1.12.2.22.3.3a1 1 0 0 1 .21.23l.18.28c.1.17.23.35.37.53.04.05.06.1.07.15a.4.4 0 0 0 .05.12l.04.05.06.12.1.25a2.6 2.6 0 0 1 .2.52c0 .02 0 .03-.03.03h-.01v.03c.05.1.08.2.1.32v.01h-.02a.9.9 0 0 0-.09-.22c-.03-.06-.04-.06-.03 0 .01.08.06.18.13.32.07.12.1.21.12.28l.06.17.03.18c0 .08.01.16.05.24a.2.2 0 0 1 .02.1h-.02a18.5 18.5 0 0 0-.75-1.82h-.01l.1.27.08.26a94.12 94.12 0 0 1 .5 2.4h-.02l-.06-.19-.08-.22-.2-.75c-.01-.01-.02-.02-.04 0h-.01c-.02 0-.02.01-.02.03a9.54 9.54 0 0 1-.04.08c0-.02 0-.03-.02-.01a.07.07 0 0 0-.03.03.44.44 0 0 0 0 .2c0 .02 0 .05-.02.09l-.01.03c-.01.03-.01.03 0 0h.04c.02 0 .03.02.03.03.01.08.02.13.01.18v.1c0 .06 0 .1-.02.13 0 .03-.01.03-.02 0l-.01-.1a.6.6 0 0 1-.01-.1c0-.06 0-.11-.03-.16 0-.04-.02-.04-.02 0l-.03.4c0 .02 0 .03-.02.04a.08.08 0 0 0-.03.04c-.01.02-.02.02-.02 0l.01-.05.02-.03v-.58c0-.01-.01-.02-.03-.02-.02-.02-.02-.03 0-.04l.03-.04c0-.01 0-.02-.02-.03-.04 0-.06-.02-.06-.06a6.58 6.58 0 0 0 0-.64h-.02a7.75 7.75 0 0 0-.06.9.22.22 0 0 0-.01.12c0 .02.01.02.02 0l.02-.06c0-.03 0-.06.02-.07.02-.02.02-.02.02 0a5.1 5.1 0 0 0-.05.6 2.28 2.28 0 0 0-.04.4 5.9 5.9 0 0 0 0 1.63c-.07-.34-.11-.6-.12-.77a300.44 300.44 0 0 1-.05-1.26 5.52 5.52 0 0 1 .02-.13l-.03-.02h-.02a.3.3 0 0 0 0 .11l-.01.09c-.07.26-.1.53-.1.79a.5.5 0 0 1-.04.2c-.03.07-.05.17-.07.31l-.03.16a35.43 35.43 0 0 1-.13.57h-.02v-.02l.15-1.46c.01-.13.02-.25 0-.38 0-.12 0-.25.03-.39.01-.04 0-.04-.02 0a.22.22 0 0 0-.04.1c-.02.13-.04.26-.08.39a.76.76 0 0 0 0 .21.8.8 0 0 1-.01.2c-.05.26-.09.49-.1.67a17.2 17.2 0 0 0-.02 1.13c-.03.39-.04.73-.02 1.04 0 .13.03.28.08.44V15h-.03l-.02-.01-.05-.24-.03-.36a9.6 9.6 0 0 1-.07-1.38c-.02.08-.04.2-.05.36v.16a36.44 36.44 0 0 0-.08.84c-.02-.1-.03-.21-.03-.32v-.38a5.65 5.65 0 0 1 .17-1.6c.02-.11 0-.12-.05 0l-.09.18a.4.4 0 0 0-.04.16v.27a2.1 2.1 0 0 1-.05.4c0 .02-.01.03-.03.03v.02c0 .06-.02.1-.03.14l-.06.19a2.76 2.76 0 0 1-.03.1c0-.37.05-.74.15-1.11.02-.08 0-.09-.05-.02a.36.36 0 0 0-.09.18c-.02.2-.05.39-.1.57-.03.1-.05.25-.07.44l-.03.27a14.54 14.54 0 0 0-.12 1.06 2.31 2.31 0 0 1 0-.65 142.25 142.25 0 0 1 .1-.83l-.02-.01h-.01a10.22 10.22 0 0 0-.28 1.48c-.02-.1-.02-.17-.01-.25l.06-.62c.01-.1.04-.26.1-.46l.09-.4c.01-.12.05-.23.1-.33 0-.02 0-.03-.02-.03h-.02c-.1.11-.3.24-.59.37l-.15.07a3.4 3.4 0 0 1-1.22.3l-.52.04c-.52.02-.94-.15-1.26-.51a4.3 4.3 0 0 0-.27-.27 3.18 3.18 0 0 1-.2-.21 3.5 3.5 0 0 0-.2-.22 6.55 6.55 0 0 1-.72-.76l.04.2a1 1 0 0 1 .04.24v1.27c0 .15.01.39.05.7v.02H6.1a2.04 2.04 0 0 1-.08-.34l-.05-.22c-.03-.1-.04-.2-.05-.3l.01-.08V13c-.02-.03-.02-.03-.02 0l-.01.43c-.01.22.02.55.1.98.03.17.09.34.17.5v.05h-.03a.35.35 0 0 1-.09-.14c-.1-.3-.17-.6-.2-.92a.4.4 0 0 0-.03-.14c-.02-.04-.03-.04-.03 0l-.03.22-.02.2c-.02.21 0 .42.05.62l-.01.01h-.02a2.1 2.1 0 0 0-.06-.23 1.56 1.56 0 0 1-.07-.28 5.76 5.76 0 0 1 .05-1.76 9.61 9.61 0 0 0 .01-.68v.01a7.03 7.03 0 0 0-.1 1.15c.02.08.01.16 0 .25l-.08.45a1.1 1.1 0 0 0 0 .27v.02H5.5a2.82 2.82 0 0 1-.04-.6c0-.06 0-.1-.02-.15a.5.5 0 0 1-.04-.15 4.2 4.2 0 0 1 .02-.59H5.4a8.02 8.02 0 0 0-.07 2.1c.01.03 0 .03-.02.01a.17.17 0 0 1-.05-.1 4.65 4.65 0 0 0-.24-1.02 2.87 2.87 0 0 0-.04.84h-.02a14.25 14.25 0 0 1-.14-1.52c.02-.14.03-.3.03-.46l.04-.29.03-.21c0-.02 0-.03-.02-.02h-.02c-.04.1-.06.27-.08.48l-.01.2a492.72 492.72 0 0 0-.12 1h-.01c-.02 0-.03 0-.03-.02a8.92 8.92 0 0 1 .21-2.32c0-.03-.01-.03-.02 0l-.03.08a.4.4 0 0 0-.04.1l-.04.2-.05.28-.02.28c-.03.23-.04.4-.04.51 0 .1-.02.21-.05.32a15.96 15.96 0 0 1-.21.68 34.15 34.15 0 0 0 .12-.84l.01-.19.05-.33a8 8 0 0 1 .24-1.1c.04-.12.07-.25.07-.4h-.02a.36.36 0 0 0-.07.13l-.21.67a12.9 12.9 0 0 0-.26 1.01 6.39 6.39 0 0 1-.28.8l.09-.33a9.56 9.56 0 0 0 .25-.88l.04-.2.04-.2a34.25 34.25 0 0 1 .49-1.5c0-.05.03-.1.07-.15.03-.04.04-.03.03.02l-.06.26v.04l.02.1-.01.04a.1.1 0 0 0-.02.07c0 .03 0 .03.02.01a.15.15 0 0 0 .05-.13c0-.1 0-.2.04-.3a.13.13 0 0 0 0-.12c-.03-.05-.03-.08.01-.12.03-.02.05-.01.05.02 0 .05.02.09.05.12.05.05.07.05.07-.02-.01-.1-.03-.22-.07-.33 0-.01 0-.02-.02 0a.1.1 0 0 0-.03.03l-.15.23c-.18.24-.3.45-.36.63a10.45 10.45 0 0 1-.4 1.07l-.1.3h-.03c-.02-.02-.03-.03-.02-.04.09-.18.15-.36.18-.55a1 1 0 0 1 .1-.26l.07-.17a4.37 4.37 0 0 1 .67-1.28.08.08 0 0 1 .06-.03c.03 0 .06-.02.06-.05a.32.32 0 0 0 0-.16c0-.03-.02-.03-.04 0a5.11 5.11 0 0 0-.46.67l-.01-.02a.84.84 0 0 0 .1-.2c0-.04.03-.1.07-.18l.09-.2-.01-.02H4.9c-.05.06-.08.14-.1.22a.76.76 0 0 1-.09.19l-.25.38a.18.18 0 0 1-.1.07c-.03.01-.04 0-.02-.02a33.23 33.23 0 0 1 .28-.46l.02-.05.22-.44c.06-.13.14-.27.24-.42a44.86 44.86 0 0 1 .68-.91 5 5 0 0 0 .57-.64.57.57 0 0 1 .13-.11l.13-.13H6.6c-.13.06-.25.14-.35.25l-.49.48a3.8 3.8 0 0 0-.37.47l-.2.31a3.17 3.17 0 0 1-.23.3 6.04 6.04 0 0 1 .28-.47 9.43 9.43 0 0 1 1.34-1.5 5.44 5.44 0 0 1 .55-.4h.02c.03 0 .05 0 .06-.02.01-.01 0-.02-.01-.01h-.04c-.02.01-.02 0 0 0l.2-.16h.01l.01.01v.02l-.15.11c-.02.02-.02.02.01.02l.13-.02c.01 0 .02 0 .03-.02.06-.09.1-.17.13-.26.01-.03 0-.03-.02-.02a11.38 11.38 0 0 0-1.04.72h-.01v-.02a6.01 6.01 0 0 1 1.04-.73c.06-.02.1-.06.12-.12.05-.15.17-.23.37-.26v-.01l-.18-.15-.03-.01c-.4 0-.76.08-1.1.22a1.45 1.45 0 0 0-.57.44l-.01-.01V6.4c.08-.11.17-.21.28-.3a.05.05 0 0 0 .02-.03c0-.03.01-.05.04-.06l.3-.15c.22-.12.5-.19.83-.2.03 0 .06 0 .1.02l.05.02c.02 0 .03 0 .04-.02.01-.02 0-.03-.01-.03l-.41-.1a2.8 2.8 0 0 0-.9-.05 2.32 2.32 0 0 1 1.22.06c.08.03.13.06.14.1l.03.01c.07 0 .12.04.16.1.02.05.05.1.09.14l-.01.03a2.1 2.1 0 0 1-.11.05c-.17.07-.27.15-.3.24-.05.14-.12.26-.2.36 0 .02 0 .03.02.02l.31-.14c.08-.04.18-.08.29-.1.13-.05.26-.1.4-.19h.05c0 .02.02.02.04 0a.84.84 0 0 1 .36-.12c.02 0 .02 0 .01.01a.96.96 0 0 1-.22.18c-.05.03-.05.06 0 .08.15.07.26.16.33.27 0 .02.02.02.03 0 .1-.16.26-.3.5-.43.02-.01.02-.03-.01-.04a1.13 1.13 0 0 0-.11-.04.52.52 0 0 1-.2-.08 2.42 2.42 0 0 1-.2-.2h.01c.02-.02.03-.02.05 0 .04.02.09.03.14.02h.05l.22.1h.16c.1.05.21.09.32.11l.13.07c.06.05.1.07.13.07.02 0 .03 0 .04.02.04.05.1.08.2.08.04 0 .04.01.01.03-.02 0-.03.02-.03.04s.02.03.04.03a.3.3 0 0 1 .1.02l.03.03c0 .03.02.06.04.08v.02c0 .02-.01.02-.03 0a.43.43 0 0 0-.2-.07c-.02 0-.03 0-.02.02l.05.08c.1.13.11.28.04.47l-.02.03c-.06.04-.1.1-.14.17-.01.02 0 .03.01.02h.02c.02.02.03.03 0 .04a1 1 0 0 1-1.09.1.56.56 0 0 1-.28-.28c-.01-.02-.02-.02-.04 0L9 7.13a.06.06 0 0 0 0 .05c.01.05 0 .08-.03.12-.13.14-.3.26-.48.35-.22.1-.42.15-.61.13-.02 0-.03 0-.04-.02v-.02a.06.06 0 0 0-.04-.03l-.14-.05c-.04-.02-.06-.05-.07-.09v-.02c0-.04.02-.05.06-.04.05.02.1.03.16.02.04 0 .04-.02.02-.04l-.04-.03a.44.44 0 0 1-.1-.1c-.13-.22-.12-.46.02-.72 0-.02 0-.02-.02-.02l-.21.06a.06.06 0 0 0-.05.04L7.34 7l-.04.1a8.2 8.2 0 0 1-.58 1.35l-.05.06c-.08.1-.15.18-.2.22l-.14.08c-.14.07-.13.1.03.05.18-.05.35-.11.48-.2a20.1 20.1 0 0 0 1.04-.65h.01v.02c-.34.33-.73.58-1.17.77-.06.03-.16.05-.3.09a1.75 1.75 0 0 0-.5.19c-.1.05-.17.09-.22.1a1 1 0 0 0-.2.12.06.06 0 0 0-.02.03.1.1 0 0 1-.02.05l-.04.02a.16.16 0 0 0-.13.15 1 1 0 0 0 .02.38c.08.27.18.53.3.78.08.19.18.36.3.51a6.01 6.01 0 0 1 .34.43 10.91 10.91 0 0 0 1.33 1.33 3.3 3.3 0 0 0 .55.34c.09 0 .17.01.24.03.22.04.48.04.79-.02l.22-.03c.15-.01.26-.03.34-.05l.15-.04a5.79 5.79 0 0 0 .89-.29 1.71 1.71 0 0 0 .47-.37c.04-.06.09-.1.14-.11l.04-.03c.05-.05.1-.12.13-.2a8.03 8.03 0 0 0 .6-2 9.82 9.82 0 0 0 .16-1.75c-.02-.13-.15-.22-.4-.27a3.02 3.02 0 0 0-.89-.04c-.21 0-.41-.02-.6-.08a.73.73 0 0 1-.43-.34V7.7h.03l.05.05c.05.07.1.11.14.13.22.12.53.16.92.14.18-.01.42 0 .7.05.04.01.05 0 .03-.03a.44.44 0 0 1-.09-.22c0-.04-.02-.05-.06-.01l-.13.13-.02-.01.15-.2a.07.07 0 0 0 0-.06v-.06c0-.02 0-.02-.02 0a.89.89 0 0 1-.19.18c-.03.03-.05.02-.04-.02 0-.02.02-.05.05-.08a.27.27 0 0 0 .04-.05l.1-.13a.13.13 0 0 0 .02-.08v-.05c0-.03-.02-.04-.05 0a2.16 2.16 0 0 1-.29.22v-.02c.03-.1.09-.18.16-.26a.27.27 0 0 0 .07-.21c0-.04-.02-.04-.04-.01a1.2 1.2 0 0 1-.2.21h-.03c-.02 0-.02 0-.01-.02l.17-.22v-.04l-.02-.12-.02-.02h-.02a.04.04 0 0 0-.02.02.32.32 0 0 1-.23.2c-.02 0-.03 0-.02-.02l.23-.35v-.03a.62.62 0 0 0-.07-.14.63.63 0 0 1-.17.22c-.06.05-.08.05-.04-.02a7.22 7.22 0 0 0 .22-.43l-.01-.02c-.01-.02-.03-.02-.05 0a.6.6 0 0 0-.2.17v-.01c.04-.09.1-.16.16-.21.01-.01.02-.03 0-.05l-.01-.03c-.02-.01-.03-.02-.05 0-.02 0-.05.04-.07.08 0 .02-.02.02-.03.02H11c-.02-.01-.02-.02-.01-.03l.08-.15c.01-.02 0-.03-.01-.04l-.07-.04a.06.06 0 0 1-.02-.03.26.26 0 0 0-.07-.09h-.04c-.02.01-.03.03-.02.05.01.02.02.04.01.06 0 .02-.01.02-.03 0-.04-.05-.05-.1-.01-.15v-.04c-.02-.03-.04-.04-.07-.05-.02 0-.03 0-.03.02 0 .05-.02.1-.05.14a16.47 16.47 0 0 0 .24.44.62.62 0 0 0-.16.07h-.01l-.01-.01V6.4l.07-.02c.05-.02.06-.04.03-.08l-.48-.68a.25.25 0 0 0-.1-.08.04.04 0 0 1-.02-.03.17.17 0 0 0-.05-.12h-.05a.24.24 0 0 1-.1.05c-.03 0-.03 0-.01-.02a.51.51 0 0 1 .06-.07c.02-.02.02-.03 0-.04a.25.25 0 0 1-.09-.07.84.84 0 0 0-.27-.2c-.04-.02-.05-.05-.01-.08l.12-.11c.02-.02.02-.05 0-.07 0-.02-.02-.03-.04-.02-.1.06-.2.12-.27.18a.6.6 0 0 0-.18.28H9.3c-.01 0-.02-.01-.02-.03.02-.22.1-.43.23-.62.01-.02 0-.03-.01-.03l-.02.01c-.02.02-.03.02-.04 0V4.5a.26.26 0 0 1 .08-.08c.03-.01.04-.03.03-.06V4.3c0-.03-.01-.04-.04-.02a1 1 0 0 0-.36.5l-.06.15c-.02.06-.03.05-.02 0 0-.14.08-.32.21-.54l.04-.06c.03-.04.01-.05-.04-.02a.34.34 0 0 0-.12.13l-.02.07c0 .04-.02.07-.03.09a9.55 9.55 0 0 1-.1.4c0 .02.01.02.03.01h.01v.01l-.01.14c-.01.07-.03.07-.04 0l-.03-.11a.8.8 0 0 1-.04-.2c0-.06-.04-.12-.1-.19a.66.66 0 0 1-.09-.08l-.03-.04a.7.7 0 0 0-.13-.16c-.13-.1-.3-.2-.47-.28-.02 0-.03 0-.03.02.03.08.14.18.36.3.25.14.38.4.37.8 0 .03-.01.03-.03 0l-.04-.04c-.02-.03-.03-.02-.04 0a.6.6 0 0 1-.05.14c-.02.04-.04.04-.06 0 0-.04-.04-.06-.09-.07Z" fill="#020202"/><path d="m10 4.33-.17-.08c-.06-.04-.06-.06.02-.06h.13v-.02a4.5 4.5 0 0 0-.2-.11l-.03-.04c.05-.3.2-.55.44-.76.19-.16.34-.2.46-.13.13.08.2.24.2.48 0 .21-.01.4-.04.56-.01.1-.1.18-.26.24-.15.05-.28.11-.42.18-.01 0-.02.02 0 .03.03.06.09.07.16.05h.01a.17.17 0 0 1-.08.05c-.03 0-.05.02-.06.05 0 .01-.01.02-.03.02a.1.1 0 0 1-.04.01c-.02 0-.03 0-.03.02v.02l-.02.01a.31.31 0 0 0-.2.16c0 .02 0 .03-.02.03-.02.02-.05.01-.07 0-.02-.03-.01-.04 0-.06l.2-.17c0-.01.01-.02.03-.02h.05c.03 0 .05-.02.06-.04l-.01-.06-.27-.29c-.04-.04-.02-.06.04-.04h.14c.03 0 .03-.01 0-.03ZM8.4 4.72c.08.08.14.17.2.27l-.01.03h-.03l-.02-.01a.39.39 0 0 0-.2-.12h-.01l-.01.02c.05.03.08.05.11.09.01.01 0 .02-.01.03l-.57.1c-.22.02-.44 0-.67-.08A.66.66 0 0 1 7 4.96a1.22 1.22 0 0 0-.07-.04.48.48 0 0 1-.14-.12 1.17 1.17 0 0 1-.18-.36c-.1-.3-.14-.5-.12-.65.02-.15.12-.24.3-.25.3-.02.53.04.72.15a1.8 1.8 0 0 1 .46.42.99.99 0 0 0 .3.28c.14.07.22.13.25.18.09.13.15.26.18.4 0 .02 0 .02-.02.01l-.01-.02c0-.01 0-.02-.02-.03l-.01-.03a.63.63 0 0 0-.23-.2c-.02 0-.03 0-.01.02ZM9.48 4.03a.42.42 0 0 0-.17.11 2.92 2.92 0 0 1-.25.25v-.02c.1-.24.26-.43.47-.56h.04c.02 0 .02.01.02.03l-.04.12a.12.12 0 0 1-.07.07Z" fill="#BDBDBD"/><path d="M10.56 4.04h.01l.02.04c-.07.24-.18.34-.34.31-.04 0-.07-.02-.07-.06a.47.47 0 0 1 .1-.41c.04-.06.1-.1.18-.1.13 0 .15.06.08.18 0 .01 0 .03.02.04ZM7.43 4.82a.84.84 0 0 1-.34-.23 1.1 1.1 0 0 1-.24-.56c0-.04.01-.06.04-.08a.12.12 0 0 1 .1-.02c.35.1.63.29.84.57.08.11.09.2.02.26a.38.38 0 0 1-.42.06Z" fill="#020202"/><path d="m9.5 4.12-.14.1v.03c.02.02.04.02.05 0l.13-.09c.01 0 .02-.02 0-.04a.04.04 0 0 0-.05 0ZM7.39 4.51l.25.2c.05.03.04.05-.02.04-.09-.01-.24-.14-.44-.39-.01-.01 0-.02.01-.01l.06.02a.1.1 0 0 1 .03.03l.1.11ZM9.58 4.8c0-.02.02-.03.03-.04.02 0 .03-.02.03-.03l.01-.07c0-.05.02-.05.05 0l.04.05c.02.02 0 .04-.03.04a.2.2 0 0 0-.11.05c-.02.02-.03.02-.02 0ZM8.51 5.24c-.05-.01-.09.04-.13.14-.02.04-.03.04-.05 0l-.04-.12c0-.03 0-.06.03-.08a.32.32 0 0 1 .13-.04c.03 0 .04 0 .05.02l.01.08ZM7.53 5.74l-.47.08c-.04.01-.04 0-.02-.02a.17.17 0 0 1 .1-.05l.44-.06c.02 0 .05.01.06.03.02.02.01.03-.02.02h-.1ZM11.47 6.13h-.02l-.06-.06A2.48 2.48 0 0 1 11 5.7V5.7c.02-.01.15.1.42.34l.06.05v.02l-.02.02ZM10.04 7.14c0 .06.03.1.08.13l-.05.04h-.02l-.19-.15h-.05v.01l.07.12c.01.02 0 .03-.02.03a.09.09 0 0 1-.08-.04l-.11-.14a.1.1 0 0 0-.07-.04h-.02c-.03 0-.04.01-.02.04l.11.12c.02.02.01.03-.01.04H9.6l-.16-.2c-.03-.03-.04-.03-.04.02.01.05.04.1.1.13v.02c0 .02-.02.02-.03.01l-.03-.01a.62.62 0 0 1-.18-.1.45.45 0 0 0-.14-.1l-.02-.04c0-.22.06-.42.19-.6a.84.84 0 0 1 .22-.18l.13-.1a.05.05 0 0 1 .05 0c.12.05.25.08.38.1.08.01.16.09.26.23l.06.08a.4.4 0 0 1 .09.2.54.54 0 0 1-.16.48.08.08 0 0 1-.06.02c-.04 0-.05-.01-.03-.04l.02-.06c.01-.01 0-.02-.01-.03h-.07l.02.11c0 .02 0 .03-.03.03-.02 0-.02 0-.01-.02v-.02l-.01-.02-.08-.08c-.02-.01-.03 0-.02.01ZM7.88 7.22c.03.06.07.13.13.2v.01l-.03.01h-.01c-.13-.1-.2-.2-.24-.28a.74.74 0 0 1 .05-.52c0-.02.02-.03.03-.03l.24-.09c.14-.04.24-.08.3-.12.13-.06.33.01.62.23.04.03.05.06.04.1-.03.15-.05.32-.05.5 0 .02 0 .04-.02.05l-.13.08h-.04l-.02-.03a.1.1 0 0 0-.02-.01c-.02-.02-.04-.02-.04 0l.05.06c.01.02 0 .03-.02.03H8.7c-.02 0-.04 0-.05-.02a.16.16 0 0 0-.09-.07c-.06-.02-.07-.01-.03.03.02.02.03.04.02.06 0 .04-.03.04-.06.01a.98.98 0 0 0-.15-.13c-.02-.02-.03-.01-.02.01 0 .03.01.07.03.1v.03H8.3l-.14-.14c-.07-.05-.09-.04-.05.03l.04.1-.03.01-.03-.01a1.75 1.75 0 0 0-.18-.21c-.03-.04-.04-.03-.03.01ZM11.47 6.74a.27.27 0 0 1-.11-.21c0-.05 0-.05.04-.01.12.13.18.27.19.4 0 .08-.03.09-.08.02a.36.36 0 0 1-.07-.12c0-.02 0-.03.02-.04h.01v-.04ZM12 6.88c.05.1.1.19.12.18l-.08-.2c-.06-.1-.12-.18-.13-.17-.01 0 .02.09.08.2ZM7.22 6.86l-.18.17a.13.13 0 0 1-.07.04c-.02 0-.03 0-.01-.02.1-.13.22-.24.34-.32.07-.04.09-.03.06.03l-.04.13c-.01.03-.03.03-.04 0l-.02-.02c0-.02-.02-.02-.04-.01Z" fill="#BDBDBD"/><path d="m9.76 7-.08.01c-.06.01-.1 0-.12-.06l-.02-.05c-.02-.05 0-.1.06-.12l.12-.04a.12.12 0 0 1 .1 0c.04.03.05.05.05.09l-.01.1c0 .04-.04.07-.1.08ZM8.55 6.87c-.01-.05 0-.08.05-.1.08-.02.15-.01.23.04l.02.04c0 .08-.05.12-.13.13-.09 0-.14-.03-.17-.11Z" fill="#020202"/><path d="M6.74 8.2c-.06.09-.07.08-.04-.01.03-.1.08-.21.13-.31.08-.15.14-.3.18-.44a.51.51 0 0 1 .11-.2c.04-.04.05-.03.03.02a3.52 3.52 0 0 1-.21.55 2.5 2.5 0 0 1-.2.39ZM5.74 8.5v.02l.03.01c.06-.08.13-.16.21-.22h.03v.01a84.23 84.23 0 0 0-.72.88 1.88 1.88 0 0 1-.32.32c-.02-.02-.01-.03 0-.03a.11.11 0 0 0 .06-.07c0-.03.03-.06.05-.1.1-.1.19-.22.28-.34.11-.13.2-.28.29-.46.04-.1.1-.18.16-.26a58.56 58.56 0 0 0 .6-.75 125.7 125.7 0 0 1 .2-.1c-.16.26-.36.52-.61.77-.1.1-.19.2-.26.32ZM11.93 7.69h.02c.02-.01.04.03.07.13v.01c.04.1.05.15.03.15h-.02l-.1-.3ZM6.54 7.9a.43.43 0 0 0-.08.07.45.45 0 0 1-.1.08c-.03.02-.04.01 0-.02l.3-.33c.03-.02.03-.02.02.01a.36.36 0 0 1-.14.19Z" fill="#BDBDBD"/><path d="m11.87 7.92-.04-.15c-.02-.04-.01-.04.01 0 .03.03.05.08.07.12v.04c-.01.02 0 .05.03.07.04.04.08.04.11 0h.03c.04.05.06.1.07.15 0 .03 0 .03-.03.02l-.2-.1c-.01 0-.02-.01-.02-.03a.08.08 0 0 0-.03-.07c-.01 0-.02-.02 0-.03v-.02ZM6.31 8.1h-.03l-.4.5v.03h.04l.4-.5V8.1ZM12.45 8.36a.34.34 0 0 0-.1-.11.94.94 0 0 1-.04-.04.08.08 0 0 1-.03-.07l.02-.04h.05c.11.14.2.33.27.6a.7.7 0 0 1 .01.26 1.76 1.76 0 0 0-.02.3l-.02.01-.01-.01a5.2 5.2 0 0 1-.01-.45c0-.11-.04-.26-.12-.45ZM4.98 9.33 5 9.28a4.43 4.43 0 0 0 .17-.24c.04-.05.09-.1.13-.17a3 3 0 0 1 .27-.35 8.11 8.11 0 0 1-.58.81ZM5.7 9.01l.08-.03h.02c0 .03-.01.05-.04.07l-.28.15c-.08.03-.1.01-.05-.05a.67.67 0 0 1 .1-.1.68.68 0 0 0 .1-.09l.24-.25h.04v.02c-.05.06-.1.12-.18.17a.14.14 0 0 0-.05.1c0 .02 0 .02.03.01Z" fill="#BDBDBD"/><path d="M11.82 9.48v.08c.02.02.02.04 0 .05a.5.5 0 0 0-.04.16 11.3 11.3 0 0 0-.08.87c-.03 0-.05.03-.05.06-.05.33-.17.67-.36 1-.1.17-.24.32-.42.46a3.31 3.31 0 0 1-1.76.7c-.42.04-.78 0-1.1-.15-.53-.23-1-.63-1.4-1.18a.13.13 0 0 0-.07-.05 14.67 14.67 0 0 1-.24-.42.12.12 0 0 0-.06-.06c-.03-.01-.04 0-.03.01l.09.23-.02.01h-.01l-.19-.38a2.32 2.32 0 0 1-.18-1.2c0-.08.04-.1.1-.04l.04.04a545.89 545.89 0 0 0 .41.26c.1.06.1.07-.01.04a.77.77 0 0 1-.11-.04c-.04-.02-.05-.01-.04.02.06.17.14.34.23.53.06.14.16.28.29.42.2.22.45.43.73.61.11.07.29.14.52.21.21.06.4.1.56.1.2 0 .4-.01.59-.03.12 0 .23-.03.33-.08.2-.1.36-.19.5-.29l.26-.19a5.04 5.04 0 0 0 .88-1.27 10.4 10.4 0 0 0 .44-1.04c.03-.05.01-.06-.04-.03-.1.05-.2.12-.29.2h-.01l-.01-.01c.13-.13.28-.23.44-.3.02-.02.04-.01.06 0 .03 0 .05.04.06.1v.03a2.24 2.24 0 0 1 .06.96l-.03-.01-.03-.38c0-.02 0-.02-.01 0Z" fill="#020202"/><path d="M9.22 10a.79.79 0 0 1 .27-.53c.26-.21.55-.31.85-.3.17 0 .27.13.28.38.02.22-.04.37-.17.46a1.51 1.51 0 0 1-.3.17l-.02-.01v-.02a3 3 0 0 1 .04-.02c.22-.15.34-.29.35-.42.03-.25-.02-.4-.14-.46-.11-.05-.27-.03-.48.05-.17.07-.31.15-.41.24a1 1 0 0 0-.2.33 2.25 2.25 0 0 1-.08.14V10Z" fill="#020202"/><path d="M9.65 9.98a.2.2 0 0 0-.07.1l-.03.03a.45.45 0 0 0-.19.2c-.01.03-.03.03-.05 0-.04-.06-.02-.15.04-.28.05-.1.1-.2.17-.26.16-.18.33-.3.51-.38.12-.05.21-.05.27 0 .14.11.05.3-.27.57l-.06.05c-.03.02-.04.02-.05 0a.1.1 0 0 0-.05-.08l-.04.01-.12.15H9.7c-.01 0-.02 0-.02-.02l.01-.08c0-.02 0-.02-.03-.01ZM7.52 9.44c-.17-.05-.3-.02-.4.08a.46.46 0 0 0-.11.36c0 .19.07.34.18.45l.13.1a1 1 0 0 1 .08.05c.04.03.04.04-.02.03a.44.44 0 0 1-.25-.11.42.42 0 0 1-.14-.23c-.05-.21-.05-.4 0-.55.07-.21.23-.29.48-.23a.4.4 0 0 1 .18.1c.02.03.02.03 0 .02a.43.43 0 0 1-.06-.03.27.27 0 0 0-.07-.04Z" fill="#020202"/><path d="m11.08 10.65.12.59c.01.06.04.11.08.16.01.01.02.02.01.04-.07.17-.16.32-.29.44 0 .01-.02.02-.04.01-.01 0-.02-.01-.02-.03v-.05c-.03-.2-.06-.36-.1-.46a.5.5 0 0 1-.03-.23l-.01-.02c-.02-.01-.03 0-.03.01.02.28.05.56.11.83 0 .02 0 .05-.03.07a8.74 8.74 0 0 1-.5.3c-.03.01-.04 0-.05-.02l-.05-.69c0-.03 0-.06.03-.08a3.99 3.99 0 0 0 .55-.56l.05-.09.07-.11.14-.26c.1-.18.17-.3.2-.4.1-.21.19-.43.27-.65.05-.11.07-.11.06 0v.3a4.48 4.48 0 0 1-.08.97c-.03.1-.06.1-.09 0l-.11-.39c0-.01-.02-.02-.03-.01h-.02a5.24 5.24 0 0 1 .13.6l.03.1a.7.7 0 0 1-.06.25c-.04.1-.07.1-.1 0a4.7 4.7 0 0 0-.18-.63h-.02l-.01.01Z" fill="#BDBDBD"/><path d="M7.97 10.3v.08c.02.04 0 .04-.03.02a.74.74 0 0 1-.17-.22l-.03-.05c-.02-.02-.03-.02-.03 0v.1c.02.05.02.08.01.1 0 .02 0 .02-.02 0a1.43 1.43 0 0 1-.22-.3c-.04-.06-.06-.05-.06.02v.07c0 .07-.02.08-.06.02a3.56 3.56 0 0 0-.06-.07c-.12-.15-.18-.28-.17-.39 0-.05.04-.1.1-.11a.24.24 0 0 1 .16 0c.3.11.6.38.86.8.05.08.07.15.06.23 0 .02-.01.03-.04.02a15.77 15.77 0 0 0-.26-.34c-.04-.05-.05-.05-.04.02Z" fill="#020202"/><path d="M12.93 9.9c-.03-.01-.05-.02-.05-.05 0-.04.01-.07.03-.1.02-.05.03-.05.05 0l.06.18v.01c-.04.01-.07 0-.08-.03l-.01-.02ZM12.3 10.6v.02l-.03-.01-.01-.03c0-.2.03-.35.07-.46.06-.17.08-.17.06.02a102.11 102.11 0 0 0-.06.41l-.02.02c-.02 0-.02.02 0 .03ZM12.44 10.3c-.02.13-.01.25 0 .25.03 0 .06-.1.08-.25.02-.14.02-.25 0-.25-.03 0-.06.1-.08.25ZM5.37 10.83c-.05.15-.07.3-.09.44a.42.42 0 0 1-.05.16c0-.23.05-.48.12-.73.01-.05 0-.08-.04-.12h-.03l-.09.18s0 .01 0 0h-.02c.07-.16.1-.32.05-.49l.02-.01a7.37 7.37 0 0 0 .36.81.11.11 0 0 0-.1.04c-.01.02-.02.01-.02 0 0-.1-.02-.2-.05-.28-.03-.06-.04-.06-.06 0ZM9.59 12.12c0 .16 0 .32.02.47 0 .01 0 .02-.03.03-.17.06-.36.1-.57.1-.04 0-.07-.02-.07-.06 0-.1-.02-.2-.06-.29a.56.56 0 0 1-.03-.16 1.49 1.49 0 0 0-.01-.08c-.01.08 0 .2.02.35l.03.22c0 .01 0 .02-.02.02-.15.01-.32 0-.51-.02-.07 0-.1-.04-.12-.09L8.08 12c0-.01-.01-.02-.02-.01h-.02c.02.2.06.38.1.57 0 .05-.02.06-.07.04l-.32-.16a.19.19 0 0 1-.1-.13 2.53 2.53 0 0 1-.08-.48l-.02-.01h-.02l.05.46c0 .03-.01.03-.03.02-.16-.1-.3-.22-.42-.35a7.77 7.77 0 0 1-.06-.48c-.03.14-.03.26-.02.36 0 .06-.01.06-.05.02a12.6 12.6 0 0 1-.33-.38c-.03-.03-.03-.06-.02-.08.03-.1.04-.19.02-.27 0-.08-.02-.08-.03 0l-.04.21c0 .03-.01.03-.03.01a.7.7 0 0 1-.14-.22v-.05a.61.61 0 0 0 .02-.33c-.01-.04-.02-.04-.03 0a1.9 1.9 0 0 0-.03.19h-.01c-.02 0-.03 0-.04-.02l-.03-.26c0-.02 0-.03.02-.04l.04-.03v-.04a.67.67 0 0 1-.01-.09c0-.04 0-.05.03-.01a.4.4 0 0 1 .06.12c.02.05.03.09.05.1a2.58 2.58 0 0 0 .66.75c.09.09.2.18.36.28.19.13.43.21.72.26a6.4 6.4 0 0 0 .94.04c.24 0 .56-.11.94-.36l.05-.04c.04-.02.05-.01.05.02 0 .24.01.49.04.75l-.03.03-.55.2h-.03l-.05-.47h-.01ZM5.02 11.2v.01L5 11.2a1.85 1.85 0 0 1 .11-.3 32.05 32.05 0 0 1-.09.3ZM5.8 11.36c.07 0 .1.05.09.13v.02c-.01.08-.05.12-.12.12h-.01l.03-.27ZM5.18 13.13c-.01.06-.02.06-.02 0-.02-.14-.01-.29.01-.45a14.8 14.8 0 0 1 .2-1.1l.01.02a4 4 0 0 1-.08.71l-.06.42c0 .15-.03.29-.06.4ZM5.85 12.08h.02l.01.01a.4.4 0 0 1 0 .2.7.7 0 0 0 0 .12c0 .06 0 .14-.03.25l-.03.18-.03.75c0 .02-.01.04-.04.06-.02 0-.03 0-.03-.02v-.25a6.15 6.15 0 0 0 .03-.7.86.86 0 0 0 .01-.18v-.12a4.74 4.74 0 0 0 .02-.34c.02-.02.03-.02.04 0v.01c0 .02.02.03.03.03Z" fill="#BDBDBD"/></svg>