<!-- by TradingView --><svg width="18" height="18" viewBox="0 0 18 18" xmlns="http://www.w3.org/2000/svg"><path fill="url(#a)" d="M0 0h18v18H0z"/><path d="m10.23 4 .01.01v.02L7.85 6h4.8c.91 0 1.35.58 1.35 1.4v3.52c0 .17-.08.33-.25.48l-2.84 2.57a.12.12 0 0 1-.08.03H7.77l-.01-.01v-.02l2.4-1.95.01-.01V12H5.36C4.44 12 4 11.42 4 10.6V7.07c0-.17.08-.33.25-.48l2.84-2.57A.12.12 0 0 1 7.17 4H10.23ZM7.71 6.2 4.04 9.57v.01a.02.02 0 0 0 0 .02v.02h6.22l.01.02V11.8h.02l3.68-3.4a.02.02 0 0 0 0-.02l-.02-.02H7.74V6.2h-.01v-.01H7.7Zm.12-.18v.01l.01-.02Z" fill="url(#b)"/><defs><linearGradient id="a" x1="3.35" y1="3.12" x2="21.9" y2="24.43" gradientUnits="userSpaceOnUse"><stop stop-color="#1A1E21"/><stop offset="1" stop-color="#06060A"/></linearGradient><linearGradient id="b" x1="9" y1="4" x2="9" y2="14" gradientUnits="userSpaceOnUse"><stop stop-color="#D5B0FE"/><stop offset="1" stop-color="#AC7EE1"/></linearGradient></defs></svg>