<!-- by TradingView --><svg width="18" height="18" viewBox="0 0 18 18" xmlns="http://www.w3.org/2000/svg"><path fill="#F0F3FA" d="M0 0h18v18H0z"/><path d="M9 8.83V3l2.66 4.28L9 8.83ZM9 9.78V14l3.13-5.98L9 9.78Z" fill="#547486"/><path d="M9 9.78V14L5.85 8.02 9 9.78ZM9 8.83V3L6.33 7.28 9 8.83ZM9 5.67V3l2.66 4.28L9 5.67Z" fill="#2A8CC2"/><path d="M9 5.67V3L6.33 7.28 9 5.67ZM5.68 12.22c-1.3-1.74-.44-3.56.15-4.26L9 14c-.8 0-2.03-.04-3.32-1.77Z" fill="#00A3FF"/><path d="M12.32 12.22c1.3-1.74.44-3.56-.16-4.26L9 14c.8 0 2.03-.04 3.32-1.77Z" fill="#2A8CC2"/></svg>