<!-- by TradingView --><svg width="18" height="18" viewBox="0 0 18 18" xmlns="http://www.w3.org/2000/svg"><path fill="#F0F3FA" d="M0 0h18v18H0z"/><path d="M11 6.5V4H9.57v1.25H8.43V4H7v1.25h-.73c-.7 0-1.27.68-1.27 1.42v2.56c0 .74.57 1.33 1.27 1.33h4.21V9.31H7.57c-.42 0-.86-.35-.86-.79V7.25c0-.44.44-.75.86-.75H11Z" fill="url(#a2oldu3uv)"/><path d="M7 11.5V14h1.43v-1.25h1.14V14H11v-1.25h.73c.7 0 1.27-.68 1.27-1.42V8.77a1.3 1.3 0 0 0-1.27-1.33H7.57v1.25h2.86c.42 0 .86.35.86.79v1.27c0 .44-.44.75-.86.75H7Z" fill="url(#b2oldu3uv)"/><defs><linearGradient id="a2oldu3uv" x1="5" y1="7.73" x2="11.16" y2="7.73" gradientUnits="userSpaceOnUse"><stop stop-color="#01A59D"/><stop offset="1" stop-color="#2C3692"/></linearGradient><linearGradient id="b2oldu3uv" x1="6.23" y1="9.38" x2="13.14" y2="9.38" gradientUnits="userSpaceOnUse"><stop stop-color="#01A59D"/><stop offset="1" stop-color="#2C3692"/></linearGradient></defs></svg>