<!-- by TradingView --><svg width="18" height="18" viewBox="0 0 18 18" xmlns="http://www.w3.org/2000/svg"><path fill="#F0F3FA" d="M0 0h18v18H0z"/><path d="m7.69 5.03.01-.01-.42-1.69a26.4 26.4 0 0 1 .64-.2 3.83 3.83 0 0 1 3.43.74c.7.58 1.17 1.33 1.4 2.26a12.9 12.9 0 0 0 .1.5l-1.38.41v.01l.05.04 1.34.71a26.5 26.5 0 0 1 1.14.68l-.36 1.05c-.02.05-.1.1-.26.17l-.04.01a.04.04 0 0 0-.03.04l-.17.97c0 .03-.02.05-.05.07A1750 1750 0 0 0 5 14.99l.31-1.79v-.09l-.1-.4a.9.9 0 0 1-.03-.24V4.83c0-.15.04-.29.14-.41.09-.12.2-.2.35-.25.19-.06.4-.02.64.11l1.38.75Zm.26.36a318.04 318.04 0 0 1-1.73-.93c-.19-.1-.34-.14-.45-.1-.27.07-.4.25-.4.54v7.46c0 .11 0 .21.03.3l.1.38a.5.5 0 0 1 0 .21l-.24 1.37c0 .02 0 .03.03.01l.08-.04C7.8 13.3 10.31 12 12.9 10.66a.12.12 0 0 0 .07-.09 75.54 75.54 0 0 0 .2-1l.26-.11a.09.09 0 0 0 .05-.06l.28-.83v-.02a649.8 649.8 0 0 0-2.77-1.53c-.04-.02-.04-.03 0-.04l1.62-.48.02-.03-.11-.43c-.2-.8-.63-1.48-1.3-2a3.7 3.7 0 0 0-3.67-.6c-.03 0-.04.02-.03.05l.47 1.87c0 .04 0 .05-.04.03Z" fill="#62449D"/><path d="M7.95 5.39c.03.02.04 0 .04-.03l-.47-1.87c0-.03 0-.04.03-.05l.5-.14a3.7 3.7 0 0 1 3.17.73c.67.53 1.1 1.2 1.3 2a183.16 183.16 0 0 0 .09.47l-1.62.48c-.04 0-.04.02 0 .04l2.04 1.1a11.69 11.69 0 0 1 .73.45l-.28.83c-.01.03-.03.05-.05.06l-.26.11a73.86 73.86 0 0 1-.2 1c-.01.05-.03.08-.07.1a1491.83 1491.83 0 0 0-7.64 3.95l.25-1.37a.5.5 0 0 0-.01-.2l-.1-.4a1.21 1.21 0 0 1-.03-.3V4.9c0-.3.13-.47.4-.55.11-.03.26 0 .45.1l.02.02 1.7.92Zm.27-1.27.06.26c.72-.1 1.37.02 1.96.4.57.36.95.86 1.16 1.5 0 .02.02.02.04.02l.31-.1.24-.07c.01 0 .02-.01.01-.02a3.15 3.15 0 0 0-3.83-2.28c-.02 0-.02.01-.02.02l.07.27Zm.28 1.16.1.37c0 .02.01.04.04.03h.04l.27-.03c.29.02.55.12.77.3.23.18.37.41.43.7 0 .02.01.03.03.02l.58-.17c.02 0 .03-.02.02-.04a2.12 2.12 0 0 0-1.17-1.27c-.35-.15-.73-.2-1.13-.15-.02 0-.02.01-.02.03l.04.2ZM6 5.96v3.05l1.39.8c-.23.15-.45.32-.66.48a.14.14 0 0 1-.1.03 27 27 0 0 1-.6-.37c-.01 0-.02 0-.03.02l.01.02v2.08l.01.01 1.77-.95 2.41-1.3h.02V9.8l-.53-.28-2.22-1.2a.08.08 0 0 1-.05-.08V7.8l.01-.41c0-.02 0-.02.02-.01l1.9 1.06 1.64.9c.04.03.07.03.11.01l.85-.45.48-.26c.02-.02.02-.03 0-.04L9.3 6.92 6.05 5.17c-.03-.02-.05 0-.05.03v.76Zm6.6 4.35v.07l-.02.09c0 .01 0 .02.01.01l.21-.1a.11.11 0 0 0 .06-.1l.07-.43.03-.16.06-.35c0-.02.01-.04.03-.05l.23-.11.01-.02.07-.33h-.01l-.87.45c-.02 0-.02.02-.01.04l.09.18c0 .03.03.04.06.02l.12-.06c.01 0 .02 0 .01.01l-.15.84Zm-.5-.65-.2 1.17c0 .02 0 .02.02.01l.24-.13.25-1.38h-.01l-.36.19v.01l.06.13Zm-1.15 1.19a.24.24 0 0 0 .02-.1l.06-.35c0-.03.02-.05.04-.06l.1-.05c.03-.02.03 0 .03.02l-.14.8a.27.27 0 0 0-.03.1v.08l.02.01.22-.12c.01 0 .02-.01.02-.03l.1-.54c.02-.02.03-.07.03-.14l.05-.32c0-.01.01-.03.03-.03l.13-.07h.02l-.18 1c0 .02 0 .02.03.01l.2-.11a.07.07 0 0 0 .05-.06l.09-.5a.13.13 0 0 0 0-.07l.14-.75c0-.02 0-.02-.02-.01l-1.22.64c-.03.02-.03.03-.01.05.04.06.05.12.04.19a284.24 284.24 0 0 1-.17 1.1l.21-.11a.07.07 0 0 0 .04-.06l.1-.52Zm-.43.2a.31.31 0 0 0 .03-.13l.11-.65c0-.02 0-.03-.02-.02l-.9.48c-.01 0-.02.02 0 .03.04.08.06.14.05.18a3431.73 3431.73 0 0 0-.2 1.14l.27-.15v-.01l.07-.4c0-.02.02-.04.04-.05l.22-.12c.02-.01.03 0 .03.02l-.07.37c0 .02.01.03.04.02l.19-.1a.1.1 0 0 0 .05-.08l.1-.53Zm-1.55.89c0-.01 0-.02.02-.02l.52-.28.01-.01a5.74 5.74 0 0 0 .07-.34l-.52.27c-.03.02-.04 0-.04-.03l.02-.08a.1.1 0 0 1 .06-.07l.5-.26v-.02l.07-.33-.92.48c-.02.01-.03.03 0 .05.04.05.05.12.04.2a90.33 90.33 0 0 0-.17 1.08l.77-.4.03-.03a.24.24 0 0 0 .02-.1l.04-.2v-.03h-.03l-.52.28.03-.16Zm-.96.53a.1.1 0 0 0 .06-.04c.02-.02.03-.01.04.01l.04.21.03.15h.02l.21-.1c.02-.01.02-.02.02-.03a.4.4 0 0 0 0-.15.6.6 0 0 1-.02-.1l-.02-.13.01-.03.11-.06c.02 0 .02-.01.03-.03l.15-.86v-.02h-.04a264.13 264.13 0 0 0-.9.5l.06.1.01.04c0 .04 0 .1-.02.16l-.18.98c0 .04 0 .05.04.03a.98.98 0 0 1 .17-.1.11.11 0 0 0 .08-.1c0-.05 0-.1.02-.15l.02-.1a.83.83 0 0 1 .03-.16c0-.01.01-.02.03-.02Zm-1.03.72a.42.42 0 0 0-.04.2.17.17 0 0 0-.01.06c0 .02 0 .02.02.02l.2-.11a.1.1 0 0 0 .06-.08l.08-.49.03-.1.05-.35a.1.1 0 0 1 .06-.07l.21-.11a2.45 2.45 0 0 0 .06-.36l-.86.46c-.02.01-.03.03-.02.05l.1.19c0 .02.03.03.05.01l.12-.06h.02l-.13.74Zm-1.24.66a.42.42 0 0 0-.03.15v.1c0 .02 0 .02.02.01l.76-.4a.07.07 0 0 0 .04-.05l.14-.8c0-.03 0-.03-.03-.02l-.51.27a2.36 2.36 0 0 1 .03-.17l.5-.27a.1.1 0 0 0 .06-.08c0-.08.02-.16.04-.24.01-.04 0-.05-.03-.03l-.89.47v.03l.05.1.01.04-.11.63c0 .01 0 .02.01.01l.49-.26c.03-.02.05 0 .04.03v.06a.1.1 0 0 1-.06.08l-.48.25c-.04.02-.05.05-.05.1Z"/><path d="M11.75 6.2h-.04l-.01-.02a3.07 3.07 0 0 0-1.8-1.96 2.92 2.92 0 0 0-1.68-.1l-.07-.27s0-.02.02-.02l.5-.1a3.15 3.15 0 0 1 3.31 2.4l-.23.08Z" fill="#A2113F"/><path d="m11.75 6.2-.31.1c-.02 0-.03 0-.04-.02a2.74 2.74 0 0 0-1.16-1.5 2.73 2.73 0 0 0-1.96-.4l-.06-.26a2.92 2.92 0 0 1 3.28 1.54 3.96 3.96 0 0 1 .21.54h.04Z" fill="#90030D"/><path d="M10.5 5.91a.13.13 0 0 1-.11 0 .5.5 0 0 0-.1-.03.24.24 0 0 1-.07-.03.07.07 0 0 0-.04-.02.1.1 0 0 1-.04-.01.33.33 0 0 0-.06-.04.89.89 0 0 1-.15-.08.68.68 0 0 0-.16-.08.4.4 0 0 1-.08-.03.38.38 0 0 0-.11-.06.07.07 0 0 1-.05-.02l-.02-.02a.85.85 0 0 1-.2-.06.15.15 0 0 0-.09-.01L9.2 5.4a.12.12 0 0 0-.1-.04h-.04a.59.59 0 0 0-.16-.02c-.01 0-.03 0-.04-.02h-.03l-.32-.05-.04-.2c0-.03 0-.04.02-.04a2.13 2.13 0 0 1 2.02.87ZM9.3 6.92v.05c0 .02 0 .02-.01 0s-.02-.02-.03 0h-.04c-.06 0-.11 0-.17-.02a2.12 2.12 0 0 0-.57-.03l-.1.06h-.03c-.04 0-.06 0-.07.04a.34.34 0 0 0-.23.04l-.15.06a7.34 7.34 0 0 0-.37.14h-.08c-.02 0-.04 0-.05-.02a.21.21 0 0 1-.09-.08.12.12 0 0 0-.03-.03.12.12 0 0 1-.03-.04.82.82 0 0 0-.09-.14 3.29 3.29 0 0 0-.22-.25.96.96 0 0 1-.11-.14.82.82 0 0 1-.1-.23l-.02-.06a.15.15 0 0 0-.07-.09 4.7 4.7 0 0 1-.33-.1.93.93 0 0 0-.3-.12V5.2c0-.04 0-.05.04-.03L9.3 6.92Z" fill="#90030D"/><path d="m8.5 5.28.32.04.03.01.04.02c.06 0 .1 0 .16.02h.03c.04 0 .08 0 .1.04h.04c.03 0 .06 0 .1.02.03.02.1.05.19.06l.02.02.05.02.11.06a.4.4 0 0 0 .08.03l.16.08.15.08.06.04a.1.1 0 0 0 .04.01c.02 0 .03 0 .04.02l.08.03a.5.5 0 0 1 .09.03c.04.02.07.02.1 0 .13.17.22.35.3.55 0 .02 0 .04-.03.04l-.58.17c-.02 0-.03 0-.03-.02-.06-.29-.2-.52-.43-.7a1.32 1.32 0 0 0-.77-.3 1.39 1.39 0 0 0-.31.03c-.03 0-.04 0-.05-.03l-.09-.37Z" fill="#601658"/><path d="m9.3 6.92 3.13 1.68c.02.01.02.02 0 .04l-.48.25-.22-.02-.03-.01-.01-.01c-.04-.04-.07-.05-.1-.06a.21.21 0 0 1-.1-.04 3.49 3.49 0 0 1-.55-.2 2.6 2.6 0 0 0-.69-.15c-.16 0-.32 0-.48-.02a.8.8 0 0 0-.17 0l-.1.02c-.02 0-.03 0-.04.02-.01.02-.03.02-.04 0H9.4v.02h-.03v-.01h-.01l-.01.01-1.91-1.06h-.02v.42c-.02 0-.03 0-.03-.02h-.03L7 7.7h-.03c-.08 0-.14-.02-.17-.1a.02.02 0 0 0-.02 0h-.02c-.03.05-.04.06-.05.03v-.17l-.01-.09a.46.46 0 0 1-.04-.09c0-.01 0-.02-.02-.02H6.5l-.07-.01h-.06a1.2 1.2 0 0 0-.09-.02.88.88 0 0 1-.13-.03.2.2 0 0 0-.12-.01c-.01 0-.02 0-.02-.02V5.96c.1.02.2.06.3.11.04.02.07.04.1.04a4.7 4.7 0 0 0 .23.07c.03.02.06.05.07.1l.02.05c.03.1.06.18.1.23l.1.14c.08.07.16.16.23.25l.09.14c0 .02.02.03.03.04l.03.03c.02.04.05.06.09.08l.05.01h.12a7.35 7.35 0 0 1 .48-.2.34.34 0 0 1 .22-.02l.01-.01c.01-.04.03-.05.07-.03h.03l.1-.07.02-.01c.22 0 .4 0 .55.04l.17.03c.02 0 .03 0 .04-.02h.02v.02h.02v-.06Z" fill="#7F0B29"/><path d="M6 7.15v.02c.01.02.02.02.03.02a.2.2 0 0 1 .12 0c.03.02.07.03.13.04l.1.01h.05l.07.01c.03.02.08.02.15.01.01 0 .02 0 .02.02l.04.1.01.08v1.19L6 9.01V7.15Z" fill="#801F4C"/><path d="M7.42 7.8v.45c0 .03.02.06.05.07a330.32 330.32 0 0 1 2.73 1.5L8.7 9.82l-.13-.06-1.87-1.1.01-1.02c0 .03.02.02.05-.02l.02-.02c.01 0 .02 0 .02.02.03.07.09.1.17.09H7l.36.09.02-.02c.01.03.02.04.03.03ZM11.95 8.9l-.85.45a.11.11 0 0 1-.11 0l-1.63-.9v-.02h.02c0 .02.02.02.02 0h.06c0-.02.02-.03.03-.03l.1-.01a.8.8 0 0 1 .18 0l.47.01c.06 0 .11 0 .17.02a2.6 2.6 0 0 1 .52.13l.06.01a3.48 3.48 0 0 0 .5.19c.03.03.06.04.1.04.03 0 .06.02.1.06h.01l.03.02.22.03Z" fill="#601658"/><path d="m6.71 8.65 1.87 1.1v.02l-.02.02c-.16.01-.33.02-.49.01H7.4L6 9l.71-.35Z" fill="#6839BE"/><path d="M11.85 10.32a.26.26 0 0 0-.2.07l-.02.03a8.03 8.03 0 0 0-.1.53c.02.01.04.02.05 0l.1-.05a.08.08 0 0 0 .05-.06l.02-.3c0-.06.03-.11.06-.16h.03l-.1.51c0 .03-.01.05-.03.06l-.21.11c-.02.01-.03 0-.03-.02l.18-.98c0-.02 0-.02-.02-.02l-.13.08a.05.05 0 0 0-.03.03l-.05.32-.05.07-.02.01h-.03l-.12.07a.07.07 0 0 0-.03.05l-.07.45c0 .02-.02.03-.04.02v-.02l.14-.81c0-.03 0-.04-.03-.02l-.1.05a.08.08 0 0 0-.04.06l-.07.34-.19.1a.1.1 0 0 0-.05.08 5.71 5.71 0 0 0-.07.49c0 .02.02.03.04.01l.11-.06a.07.07 0 0 0 .03-.05 27.06 27.06 0 0 0 .08-.43c0-.03.02-.04.04-.03l-.1.52c0 .03-.01.05-.04.06l-.21.11-.02-.01.2-1.09a.22.22 0 0 0-.05-.19c-.02-.02-.02-.03 0-.05l1.23-.64c.02-.01.03 0 .02.01l-.13.75Z" fill="#E6E6E6"/><path d="m8.58 9.75.13.06-1.39.83-.01.03c0 .01.01.03.03.03l.03.02c.07.1.15.18.23.26l.1.1.03.01c.03 0 .05.01.06.04l-1.77.95h-.01V9.98a124.69 124.69 0 0 0 .32 1.17c.01.02.02.01.03 0l.3-.79c0-.02 0-.04-.03-.05.04 0 .07-.01.1-.03l.66-.49h.68a3.55 3.55 0 0 0 .51-.03v-.02Z" fill="#4E2894"/><path d="m12.93 9.85-.07.44c0 .04-.03.07-.06.08a3.93 3.93 0 0 1-.22.1l.02-.1c.08.02.16-.01.22-.09l.08-.45c0-.01 0-.02.02-.02l.01.04Z" fill="#fff"/><path d="m8.71 9.8 1.49.03c0 .01 0 .01 0 0l-2.4 1.3c-.02-.03-.04-.04-.07-.04l-.03-.01a.77.77 0 0 0-.1-.1 1.93 1.93 0 0 1-.26-.28.04.04 0 0 1-.03-.03l.01-.03 1.4-.83ZM6.63 10.32c.02.01.03.03.02.05l-.29.78c0 .02-.02.03-.03.01a125.67 125.67 0 0 1-.3-1.2l.6.36Z" fill="#6839BE"/><path d="m12 10.54.05-.31c0-.05.05-.1.14-.13l.02-.01h.03v.04c0 .01 0 .03-.02.05a10.63 10.63 0 0 0-.08.41c0 .03-.02.06-.04.08a.2.2 0 0 1-.12.06c-.03 0-.04 0-.02-.04l.05-.15Z" fill="#999"/><path d="M10.55 10.92c0 .04-.02.07-.05.08l-.06.02-.63.33c-.05.03-.08.07-.09.15l-.07.4c0 .06.01.07.06.04l.07-.04a.14.14 0 0 0 .08-.1v-.08l.06-.27a.1.1 0 0 1 .05-.05l.28-.14c.02-.02.03 0 .02.02a6 6 0 0 0-.05.36c0 .03.02.03.03.02a.72.72 0 0 1 .12-.07c.02 0 .03-.02.03-.04.01-.1.03-.18.06-.27l.01-.12c0-.05.02-.08.05-.11l-.09.53a.1.1 0 0 1-.05.08l-.2.1c-.02.01-.03 0-.03-.02l.07-.37c0-.02 0-.03-.03-.02l-.22.12a.07.07 0 0 0-.04.05l-.06.4h-.01l-.26.16h-.01l.2-1.14c0-.04-.01-.1-.05-.17v-.01c-.02-.01-.01-.02 0-.03l.9-.48c.02 0 .02 0 .02.02l-.11.65Zm-.5-.04v.01l-.04.22.01.02.27-.15.04-.23h-.02l-.26.13Z" fill="#E6E6E6"/><path d="m11.85 10.32-.01.06h-.03a.3.3 0 0 0-.06.15l-.02.3c0 .04-.02.06-.05.07l-.1.06h-.04a.04.04 0 0 1-.01-.05 8.03 8.03 0 0 1 .12-.51.26.26 0 0 1 .2-.08Z" fill="#999"/><path d="m11.39 10.61-.1.54c0 .02 0 .03-.02.03l-.22.12h-.01v-.1c.15 0 .23-.06.23-.17l.02-.1.02-.1a10.15 10.15 0 0 1 .07-.22Z" fill="#E6E6E6"/><path d="m10.05 10.88.26-.14.02.01-.04.22v.01l-.27.15-.01-.02.04-.22Z"/><path d="m8.94 12.1.52-.28h.03v.03l-.04.2c0 .04 0 .07-.02.1l-.03.02-.77.41H8.6c0-.07.03-.18.05-.34l.14-.74a.23.23 0 0 0-.05-.2c-.02-.02-.01-.04.01-.05l.92-.49-.06.34-.01.02-.5.26a.1.1 0 0 0-.06.07l-.02.08c0 .04 0 .05.04.03a11.85 11.85 0 0 1 .52-.27 5.74 5.74 0 0 1-.08.35l-.52.28c-.01 0-.02 0-.02.02l-.04.15c0 .01 0 .02.01.01Zm.18-.32a5.58 5.58 0 0 0 .39-.23v-.02h-.02a20.19 20.19 0 0 1-.68.35.1.1 0 0 0-.07.08 13.03 13.03 0 0 1-.07.5c0 .03.02.04.04.02l.15-.1a13.28 13.28 0 0 1 .56-.31l.02-.14c0-.02 0-.03-.03-.01l-.49.26c-.02.01-.03 0-.03-.02l.04-.25c0-.02.02-.03.03-.04a.68.68 0 0 1 .13-.06l.01-.01.02-.02Z" fill="#E6E6E6"/><path d="M10.55 10.92c0 .05-.01.1-.03.13a.18.18 0 0 0-.05.11l-.01.12-.06.27c0 .02-.01.03-.03.04a.73.73 0 0 0-.12.07c-.01.01-.03 0-.03-.02a6 6 0 0 1 .06-.37c0-.02-.01-.03-.03-.01l-.28.14a.1.1 0 0 0-.05.05 1.34 1.34 0 0 0-.06.35c-.01.04-.03.08-.08.1l-.07.04c-.05.03-.07.02-.06-.04l.07-.4c.01-.08.04-.12.1-.15a30.51 30.51 0 0 0 .68-.35c.03-.01.04-.04.05-.08Z" fill="#999"/><path d="M7.98 12.49a.83.83 0 0 0-.03.16l-.02.1a.95.95 0 0 0-.02.15c0 .05-.03.09-.08.1a1 1 0 0 0-.17.1c-.03.02-.04 0-.04-.03a141.65 141.65 0 0 1 .2-1.17l-.06-.1v-.03a265.71 265.71 0 0 1 .93-.46l-.15.86c0 .02-.01.03-.03.03l-.1.06c-.02 0-.02.02-.02.03l.02.13.01.1a.4.4 0 0 1 .01.15l-.01.03-.22.1h-.02a.55.55 0 0 1-.03-.15l-.04-.2c0-.03-.02-.04-.04-.02a.1.1 0 0 1-.06.04c-.02 0-.02 0-.03.02Zm.1-.56-.04.2h.02l.26-.14v-.01l.04-.18c0-.02 0-.02-.02-.02l-.26.15Zm.05.4.07.4a2.03 2.03 0 0 0 .2-.11 3.54 3.54 0 0 1-.05-.37c0-.02 0-.04.03-.04l.1-.04.03-.04.03-.08c0-.02 0-.02-.02-.01l-.74.39a.04.04 0 0 0-.02.02l-.09.5c0 .05 0 .06.05.04l.1-.05a.11.11 0 0 0 .05-.07l.08-.42.01-.02a.4.4 0 0 1 .12-.06l.03-.02v-.01c.01-.02.02-.02.02 0Z" fill="#E6E6E6"/><path d="M9.1 11.8H9.1a.69.69 0 0 0-.13.07.06.06 0 0 0-.03.04l-.04.25c0 .02 0 .03.03.02l.5-.26c.01-.02.02 0 .02.01l-.02.14c0 .02-.02.03-.03.04a13.41 13.41 0 0 0-.68.37c-.02.02-.04.01-.04-.01v-.06a13 13 0 0 0 .07-.45.1.1 0 0 1 .07-.08.74.74 0 0 0 .12-.06l.07-.04a19.83 19.83 0 0 0 .51-.25v.02a5.58 5.58 0 0 1-.4.25Z" fill="#999"/><path d="m8.08 11.93.26-.15c.01 0 .02 0 .02.02l-.03.18-.28.15h-.01l.04-.2Z"/><path d="M7.32 12.69a.53.53 0 0 0-.24.12l-.02.02c0 .13-.03.25-.08.36l.13-.73c0-.02 0-.02-.02-.01l-.12.06c-.02.02-.04.01-.05-.01l-.1-.19c0-.02 0-.04.02-.05l.86-.46a2.45 2.45 0 0 1-.06.36l-.21.1a.1.1 0 0 0-.06.08l-.05.35Z" fill="#E6E6E6"/><path d="M8.11 12.34c0 .02-.02.03-.03.03a.4.4 0 0 0-.12.06l-.01.02-.08.42c0 .03-.03.06-.06.07l-.1.05c-.03.02-.05 0-.04-.03l.1-.5.01-.03.74-.4c.02 0 .02 0 .02.02l-.03.08-.04.04-.1.04-.02.04a3.55 3.55 0 0 0 .05.38 2.01 2.01 0 0 1-.2.1l-.07-.4h-.02ZM7.32 12.69l-.03.1v-.01a423.94 423.94 0 0 0-.14.5.47.47 0 0 1-.2.1c0-.07 0-.14.03-.2.05-.1.07-.22.08-.35l.02-.02c.07-.07.15-.1.24-.12Z" fill="#999"/><path d="m7.3 12.8-.09.48a.1.1 0 0 1-.06.08l-.2.1c-.02.01-.02 0-.02-.01l.01-.07a.47.47 0 0 0 .22-.1l.01-.03.1-.47c0-.03.01-.03.02 0v.01Z" fill="#E6E6E6"/><path d="m5.71 14 .03-.15v.03c.01.02.02.02.03 0a.2.2 0 0 1 .07-.08l.44-.23c.07-.04.1-.12.08-.24v-.04l.02-.02v-.02h-.03l-.46.23c-.04.01-.05 0-.02-.03a56.24 56.24 0 0 0 .72-.38v.02l-.09.5a.1.1 0 0 1-.05.08L5.8 14h-.1Z" fill="#999"/></svg>