<!-- by TradingView --><svg width="18" height="18" viewBox="0 0 18 18" xmlns="http://www.w3.org/2000/svg"><path fill="#F0F3FA" d="M0 0h18v18H0z"/><path d="M8.84 3a.44.44 0 0 0-.2.08.06.06 0 0 0-.02.05l.01.46.06.33-.01.03-.55.1c-.04.01-.07 0-.08-.05l-.25-.82a.03.03 0 0 0-.03-.02l-.97.24c.24-.12.47-.2.7-.25.42-.08.86-.13 1.34-.15Z" fill="#A2AD85"/><path d="m9.65 3.03.04.36c0 .02.02.04.04.05.19.1.4.15.61.16l-.13.4c0 .03-.02.03-.04.03a.73.73 0 0 1-.62-.56c0-.02-.01-.03-.03-.02l-.01.01c-.01.03-.03.04-.05.03a2.2 2.2 0 0 0-.83.1l-.01-.46c0-.02 0-.04.02-.05a.44.44 0 0 1 .2-.08l.8.03Z" fill="#BEBE7C"/><path d="m12.1 3.86-.33-.16h-.04a.06.06 0 0 0-.04.02l-.26.46-.74-.31.12-.46c.01-.05 0-.1-.06-.11l-.21-.08c-.06-.02-.1 0-.11.05l-.09.33c-.22-.01-.42-.06-.61-.16a.06.06 0 0 1-.04-.05l-.04-.36c.26.03.53.07.79.12.17.03.35.08.53.16.39.16.8.29 1.12.55Z" fill="#99A88D"/><path d="m8.68 3.95-.02.7c0 .02 0 .04-.03.04h-.35c-.02 0-.03-.01-.03-.03l-.11-.21c-.01-.02-.03-.03-.05-.03-.31.07-.55.19-.73.36-.1.1-.19.16-.27.18a3.7 3.7 0 0 1-.5.15c-.03 0-.05 0-.06-.03l-.3-.39.85-.37c.02-.01.02-.03.02-.05l-.35-.84.05-.03.97-.24a.03.03 0 0 1 .03.02l.25.82c.01.05.04.06.08.05l.55-.1ZM10.69 3.87l-.07.15c-.2-.05-.34.02-.42.23l-.11.38c-.02.08-.07.12-.15.11l-.22-.03c-.1 0-.14-.07-.14-.2l.03-.68c0-.01 0-.02-.03-.02-.23.03-.46.03-.7.01-.07 0-.13.03-.2.1l-.05-.33c.27-.08.54-.12.83-.1.02 0 .04 0 .05-.03h.01c.02-.02.03-.01.03 0 .09.32.3.51.62.57.02 0 .04 0 .04-.03l.13-.4.09-.33c.02-.06.05-.07.11-.05l.2.08c.06.02.08.06.07.11l-.12.46Z" fill="#CAC36F"/><path d="m6.75 3.43.34.84c.01.02 0 .04-.01.05l-.85.37-.2-.24-.28-.4a.06.06 0 0 0-.06-.02l-.02.02a.78.78 0 0 1-.25.16.05.05 0 0 0-.02.08l.39.47.37.46v.04l-.14.26h-.01l-.29-.25-.76-.72.38-.31.4-.29c.34-.19.68-.37 1.01-.52Z" fill="#A2AD85"/><path d="M12.1 3.86c.27.12.5.28.7.49l-.37.5-1-.67.26-.46.04-.03h.04l.32.17Z" fill="#BEBE7C"/><path d="m10.62 4.02-.16.72c0 .02-.01.03-.04.04l-.36.08c-.15.01-.3.02-.45.01l-.32.01c-.12.02-.22.05-.3.09l-1.08.51a3.53 3.53 0 0 1-1.14.24c-.24.01-.41.08-.58.23l-.32.28-.4.24-.46-.33c-.02 0-.02-.02 0-.04l.71-.83.29.26h.01l.14-.27v-.04l-.37-.46c.1-.09.18-.2.24-.31l.2.24.3.4.05.02c.13-.03.3-.07.51-.15a.76.76 0 0 0 .27-.18c.18-.17.42-.29.73-.36.02 0 .04 0 .05.03l.1.21c.01.02.02.03.04.03h.35c.02 0 .03-.02.03-.04l.02-.7v-.03c.07-.07.13-.1.2-.1.24.02.47.02.7 0h.03l-.03.7c0 .12.04.18.14.2l.22.02c.08.01.13-.03.15-.11 0-.07.05-.2.11-.38.08-.2.22-.28.42-.23Z" fill="#E0CE5F"/><path d="m11.43 4.18-.35.68a.05.05 0 0 1-.04.03h-.3l-.68-.03.36-.08c.03 0 .04-.02.04-.04l.16-.72.07-.15.74.31ZM6.03 4.45c-.06.12-.15.22-.24.31l-.4-.47a.05.05 0 0 1 .03-.08c.09-.04.17-.1.25-.16a.05.05 0 0 1 .04-.02.05.05 0 0 1 .04.02l.28.4Z" fill="#BEBE7C"/><path d="M12.43 4.85a5.68 5.68 0 0 1-.27.38l.01.04c-.14-.09-.24-.15-.3-.16a5.5 5.5 0 0 0-.94-.18c-.1 0-.14.01-.1.06l-.09-.1h.3c.02 0 .03-.01.04-.03l.35-.68 1 .67Z" fill="#CAC36F"/><path d="m13.34 4.81-.05.08-.42.35-.36.36a.52.52 0 0 0-.13-.12.56.56 0 0 0-.16-.16l-.05-.05a.14.14 0 0 1-.01-.04l.01-.04c.1-.11.18-.23.26-.34l.37-.5.54.46Z" fill="#A2AD85"/><path d="m4.96 4.55.76.72L5 6.1v.04l.47.33-.75.26a3 3 0 0 0-.75.3c-.1.02-.15.08-.16.17v.18c.13.22.32.35.58.4l-.2.02c-.05 0-.05 0-.01.02l.3.11a.01.01 0 0 1 0 .02l-.01.02-.02.01-.64-.03c-.02 0-.04.01-.04.03l-.1.97c0 .02 0 .03.03.03h.52l.1.9c0 .03-.01.05-.04.06l-.44.13c-.04.02-.05.04-.04.08l.13.24c.01.03.04.04.08.03l.4-.12a.05.05 0 0 1 .06.03v.03l-.04.31c-.07.03-.1.08-.12.15l-.01.06-.11.2a.1.1 0 0 1-.03.02l-.03.02c-.07.02-.1.06-.1.12a.08.08 0 0 1 0 .06c-.14.15-.25.35-.31.58l-.13-.25-.12-.36a.08.08 0 0 1 .03-.09l.4-.28c.01-.01.02-.03.01-.05a.91.91 0 0 0-.13-.28.04.04 0 0 0-.05-.02l-.5.13-.1-.4.57-.2c.02 0 .03-.02.02-.03l-.14-1.02C3.58 9 3.56 9 3.54 9L3 9l.08-1.02.6-.06c.01 0 .02-.01.02-.03v-.65a.07.07 0 0 0-.05-.07l-.28-.1c-.01-.01-.02-.02-.01-.04l.12-.31.02-.02.31.08c.2.04.38.02.55-.05.12-.04.21-.12.29-.23l.25-.34c.01-.02 0-.04-.01-.05l-.4-.28-.32-.21a.07.07 0 0 1-.02-.08l.01-.02a.49.49 0 0 0 .1-.2l.7-.76Z" fill="#BEBE7C"/><path d="m14.3 6.13-.47.17c-.01 0-.03 0-.04-.02l-.54-.77v-.03l.3-.3a.07.07 0 0 0 .02-.04.07.07 0 0 0-.02-.05l-.18-.18a.08.08 0 0 0-.06-.03h-.02l.05-.07c.38.4.7.84.96 1.32Z" fill="#99A88D"/><path d="m10.74 4.9.09.09.12.06c.11.23.23.47.36.7.12.22.21.43.28.61a82.3 82.3 0 0 0 .27.8c0 .03 0 .05-.02.06-.18.12-.31.28-.41.48l-.08.08.25-.57a.6.6 0 0 0 .04-.4 4.55 4.55 0 0 0-.3-.81.07.07 0 0 0-.1 0l-.25.27c-.04.05-.08.04-.12-.02a2.07 2.07 0 0 0-.6-.72c-.42-.28-.87-.29-1.34-.02-.36.19-.61.37-.78.52-.18.18-.3.42-.35.73a.05.05 0 0 1-.03.04l-.07.03c-.02 0-.03 0-.04-.02l-.05-.38c0-.02-.02-.04-.04-.04h-.04c-.04 0-.04 0 0 .02l.03.01a.2.2 0 0 1-.08-.01 1.94 1.94 0 0 0-.84-.31c-.27-.04-.52.07-.77.13l.32-.28a.86.86 0 0 1 .58-.22 3.53 3.53 0 0 0 1.14-.25l1.08-.51c.08-.04.18-.07.3-.09h.32c.15 0 .3 0 .45-.02l.68.04Z" fill="#D59B76"/><path d="m14.3 6.13.3.64c0 .1.01.19.05.28v.03l-.02.03-.34.17c-.02 0-.02.02-.02.04l.18.56.02.02h.35a.06.06 0 0 1 .07.06v.26c0 .04-.02.06-.06.07l-.71.13h-.02c-.1-.16-.21-.34-.42-.38h-.05c0-.05-.04-.07-.1-.09l.01-.44c0-.02.01-.03.03-.03l.57-.18c.04-.01.04-.03.03-.06l-.42-.83c-.01-.03-.04-.04-.07-.02l-.27.14a.08.08 0 0 1-.1-.03l-.43-.6a.05.05 0 0 1 0-.06c.04-.1.11-.2.2-.28.03-.02.03-.03.02-.05a.96.96 0 0 0-.23-.27l.42-.35h.02c.02 0 .04 0 .06.02l.18.18a.07.07 0 0 1 .01.07l-.01.02-.3.3v.03l.54.77c.01.02.03.02.04.02l.47-.17Z" fill="#BEBE7C"/><path d="m12.17 5.27.05.05c-.22.43-.34.87.04 1.26l.4.71.26.21.2.13c.08.04.15.09.2.14a74.78 74.78 0 0 0 .31.26h-.16a.76.76 0 0 0-.54-.02c-.15.04-.3.1-.42.16-.1.05-.18.08-.27.1l-.29.1a1.12 1.12 0 0 1-.45-.56l.01-.05c.23-.2.4-.31.44-.59 0-.08-.02-.16-.08-.26-.11-.18-.2-.4-.24-.66a1.54 1.54 0 0 0-.2-.55 3.9 3.9 0 0 0-.48-.65l-.12-.06c-.04-.05 0-.07.1-.06.31.03.63.1.93.18.07.01.17.07.31.16Z" fill="#F7DBD4"/><path d="M11.95 8.36c-.28.22-.62.26-.95.27-.09 0-.1-.02-.04-.08.25-.25.41-.46.47-.85.1-.2.23-.36.41-.48a.04.04 0 0 0 .02-.05l-.04-.18-.23-.63a4.67 4.67 0 0 0-.28-.61c-.13-.23-.25-.47-.36-.7.18.2.34.42.48.65.1.18.15.32.2.55.05.26.13.48.24.66.06.1.09.18.08.26-.04.28-.21.4-.44.6-.01 0-.02.02-.01.04.1.24.24.42.45.55Z" fill="#E4C8B8"/><path d="M12.87 5.24c.1.08.17.17.23.27l-.01.05a.86.86 0 0 0-.22.28l.01.05.43.61a.08.08 0 0 0 .1.03l.27-.14c.03-.02.06-.01.07.02l.42.83c.02.03 0 .05-.03.06l-.57.18c-.02 0-.03.01-.03.03v.44l-.22-.18c-.05-.05-.12-.1-.2-.14a2.12 2.12 0 0 1-.2-.13c.21.1.29-.05.22-.43-.04-.26.22-.46-.07-.7a3.85 3.85 0 0 1-.12-.14.56.56 0 0 1-.09-.15 1.2 1.2 0 0 0-.35-.48l.36-.36Z" fill="#CAC36F"/><path d="m11.35 7.78-.02.02c.05-.19.1-.37.18-.55a.8.8 0 0 0 .05-.47 4.04 4.04 0 0 0-.23-.64.07.07 0 0 0-.07 0 .07.07 0 0 0-.03.01l-.2.25a.05.05 0 0 1-.07 0l-.45-.36a.1.1 0 0 0-.1-.02 9.6 9.6 0 0 1-.61.24c-.18.06-.36.19-.49.32-.17.18-.2.15-.09-.07.1-.19.28-.38.54-.57a.06.06 0 0 0 .03-.05c.01-.2-.08-.32-.28-.35-.44-.07-.73.15-.98.49l-.26.31c-.14.15-.3.33-.47.55a1.07 1.07 0 0 1-.23.2.03.03 0 0 1-.03-.03l.02-.64-.04-.01c-.03-.02-.03-.03 0-.02h.05c.02 0 .04.02.04.04l.05.38c0 .02.02.02.04.02l.07-.03a.05.05 0 0 0 .03-.04c.05-.31.17-.55.35-.73.17-.15.42-.33.78-.52.47-.27.92-.26 1.34.02.26.17.44.44.6.72.04.06.08.07.12.02l.26-.26a.07.07 0 0 1 .09-.01l.02.02c.11.25.2.51.28.78a.6.6 0 0 1-.04.41l-.25.57Z" fill="#B78767"/><path d="M4.26 5.3a.49.49 0 0 1-.1.2.07.07 0 0 0 0 .09l.01.02.32.21-.68.95-.3-.08c-.02 0-.02 0-.03.02l-.12.31.01.03.28.1c.03.02.05.05.05.08v.65c0 .02 0 .03-.03.03l-.6.06.2-.84c.06-.2.14-.39.23-.56l.31-.61c.03-.07.08-.15.14-.23l.14-.22c.04-.08.1-.14.17-.2Z" fill="#99A88D"/><path d="m12.38 5.48-.13.75c-.01.09-.01.2.01.35-.38-.4-.26-.83-.04-1.26.06.04.11.1.16.16Z" fill="#E4C8B8"/><path d="M12.5 5.6c.17.13.29.3.36.48a3.86 3.86 0 0 0 .2.29l-.26-.05c-.03 0-.05-.02-.05-.05l-.04-.3a.05.05 0 0 0-.04-.05.05.05 0 0 0-.05.01.6.6 0 0 0-.22.6c.02.15.04.22.05.24.09.17.16.35.22.52l-.4-.7a1.18 1.18 0 0 1-.02-.36l.13-.75c.05.03.1.07.13.12Z" fill="#D59B76"/><path d="M11.33 7.8c-.08.1-.18.2-.3.26-.1 0-.2 0-.29-.04-.12-.04-.14-.14-.3-.1-.32.08-.64.12-.97.06-.24-.05-.42-.22-.66-.25a.97.97 0 0 0-.6.13c-.1.06-.15.11-.16.17-.07.24-.08.51-.42.65L7 8.96c-.1.05-.2.1-.28.19-.01 0 0 .01 0 0l.35-.04c.02 0 .03 0 .04.02v.03s0 .02-.03.04c-.14.09-.3.16-.47.2-.02 0-.04 0-.06-.02-.18-.18-.27-.3-.28-.33-.07-.2-.17-.38-.3-.54a2.5 2.5 0 0 1-.9-.37l.37.14.85.21c.03 0 .04.02.04.05v.25a.08.08 0 0 0 .07.08c.46.02.94-.01 1.14-.5.06-.15.09-.27.08-.35l.26-.58c.05-.21.08-.4.1-.6 0-.08-.02-.08-.06-.01a3.02 3.02 0 0 0-.23.52h-.01a3.9 3.9 0 0 0-.63-.06c-.29 0-.39-.26-.6-.4a3.52 3.52 0 0 0-.2-.12c-.05-.03-.05-.05.01-.05a2.19 2.19 0 0 1 .64.04V6.7c-.38-.28-.62-.5-1.07-.3a3.8 3.8 0 0 1-1.1.32l.74-.26.4-.24c.25-.06.5-.17.77-.13.3.03.58.14.84.3a.2.2 0 0 0 .08.02l-.02.64a.03.03 0 0 0 .03.03h.01c.08-.06.15-.12.22-.2.17-.22.33-.4.47-.55.1-.1.18-.2.26-.31.25-.34.54-.56.98-.5.2.04.3.16.28.36 0 .02 0 .04-.03.05-.26.2-.44.38-.54.57-.11.22-.08.25.1.07.12-.13.3-.26.48-.32l.61-.24a.1.1 0 0 1 .1.02l.45.37h.03l.04-.01.2-.25a.07.07 0 0 1 .1 0l.02.02c.1.21.16.42.21.61a.8.8 0 0 1-.05.47c-.07.18-.13.36-.18.55Z" fill="#A16D4B"/><path d="m3.81 6.77.68-.95.4.28c.02.01.02.03 0 .05l-.24.34a.63.63 0 0 1-.29.23.92.92 0 0 1-.55.05Z" fill="#A2AD85"/><path d="M13.07 6.37c.29.24.03.44.07.7.07.38 0 .53-.22.43l-.25-.2a3.04 3.04 0 0 0-.22-.53 1.3 1.3 0 0 1-.05-.23.6.6 0 0 1 .22-.61.05.05 0 0 1 .09.03l.04.31c0 .03.02.05.05.05l.27.05Z" fill="#7D5C52"/><path d="M10.75 6.48a.9.9 0 0 0-.77-.14.74.74 0 0 0-.51.39.4.4 0 0 0-.04.14c.35.2.72.29 1.13.25.02 0 .04 0 .04.03l.02.02c0 .02 0 .03-.02.04l-.63.32a.05.05 0 0 0-.03.05v.12l.01.03.04.01c.24 0 .48-.04.7-.12-.1.07-.23.13-.36.17a.52.52 0 0 1-.35 0 1.03 1.03 0 0 1-.47-.35.07.07 0 0 1-.01-.07.07.07 0 0 1 .05-.04l.55-.08c.03 0 .03-.02 0-.03l-.72-.27c-.02-.01-.04 0-.04.02-.05.28-.23.46-.52.54-.36.1-.62.16-.78.18-.03 0-.05 0-.06-.02a.08.08 0 0 1-.02-.1l.02-.02c.3-.22.63-.41.97-.57.13-.07.24-.15.35-.24.09-.09.27-.31.42-.38.22-.1.46-.15.72-.14.02 0 .04.01.05.03l.26.23ZM7.88 7.44l.03-.38c.01-.09 0-.1-.04-.01-.09.17-.16.36-.23.57a.61.61 0 0 0-.02.4c.01.08-.02.2-.08.36-.2.48-.68.51-1.14.49a.08.08 0 0 1-.07-.08v-.25c0-.03-.01-.04-.04-.05l-.85-.21a.15.15 0 0 0 .05-.1c-.03-.06-.03-.1 0-.15.1.03.18.04.22.03.22-.08.44-.13.67-.18.12-.02.18-.1.2-.26.08.03.15.03.2 0a.05.05 0 0 0 .02-.06l-.01-.1a.3.3 0 0 0-.06-.12 1.13 1.13 0 0 0-.26-.3c-.2-.1-.4-.21-.58-.37-.08-.07-.16-.1-.23-.07-.35.13-.7.22-1.04.26a13.67 13.67 0 0 1-.65.17 3 3 0 0 1 .75-.3 3.8 3.8 0 0 0 1.1-.31c.46-.21.7.01 1.08.29v.05h-.01a2.19 2.19 0 0 0-.63-.04c-.06 0-.06.02 0 .05l.19.12c.21.14.31.4.6.4a3.9 3.9 0 0 1 .65.05c.06-.2.14-.37.22-.51.04-.07.05-.07.05.01 0 .2-.04.39-.09.6Z" fill="#7B482D"/><path d="M10.75 6.48c.18.13.37.21.58.26.02 0 .03.02.02.04-.12.38-.25.69-.65.84-.23.08-.47.12-.71.12l-.04-.01v-.15c0-.02 0-.04.02-.05l.63-.32c.02 0 .03-.02.02-.04l-.02-.02a.04.04 0 0 0-.04-.03c-.4.04-.78-.05-1.13-.25a2.06 2.06 0 0 0 1.6.03.08.08 0 0 0 0-.1c-.2-.18-.42-.36-.66-.4a.96.96 0 0 0-.9.33c.1-.2.28-.34.51-.4a.9.9 0 0 1 .77.15Z" fill="#643B26"/><path d="M9.43 6.87c0-.05.02-.1.04-.14a.96.96 0 0 1 .9-.33 1.35 1.35 0 0 1 .67.42.08.08 0 0 1-.04.1c-.53.2-1.02.16-1.57-.05ZM13.05 6.88a.2.2 0 0 0-.08.1c-.02.05-.01.1.01.13h.05a.05.05 0 0 1 .05 0 .05.05 0 0 1 .03.03c.02.08 0 .14-.06.17a.07.07 0 0 1-.05 0 1.3 1.3 0 0 1-.2-.07c-.11-.07-.17-.29-.23-.37-.1-.13-.07-.29.08-.35a.1.1 0 0 0 .05-.04c.14-.23.43.03.44.19 0 .1-.02.17-.09.2Z" fill="#221616"/><path d="M6.57 7.62c-.15-.07-.3-.16-.43-.27a1.3 1.3 0 0 0-.64-.32h-.04c-.02.02-.02.03 0 .04l.2.17v.02l-.25.08a.04.04 0 0 0-.01.06l.12.11v.02l-.13.16a.05.05 0 0 0 0 .05l.07.15c.04.05.04.1.02.14-.02.04-.02.1 0 .15a.96.96 0 0 0-.3-.24c-.44-.17-.9-.36-1.36-.56-.02 0-.02-.07-.01-.18 0-.1.06-.15.16-.17a13.63 13.63 0 0 0 .65-.17c.35-.04.7-.13 1.04-.26.07-.02.15 0 .23.07.19.16.38.28.58.36.04.02.13.12.26.3a.3.3 0 0 1 .06.13l.01.1c0 .02 0 .04-.02.05-.05.04-.12.04-.2.01Z" fill="#643B26"/><path d="M10.43 6.86c-.07.02-.11 0-.12-.08-.02-.1 0-.15.05-.17.05-.01.09.03.13.12.03.07.01.11-.06.13Z" fill="#838383"/><path d="m15 9.56-.74-.16c-.01-.16 0-.37.05-.64.02-.07 0-.13-.07-.2a.27.27 0 0 1-.12-.14l.7-.13c.05 0 .07-.03.07-.07v-.26a.06.06 0 0 0-.07-.06h-.35c-.01 0-.02 0-.02-.02l-.18-.56c0-.02 0-.03.02-.04l.34-.17.02-.03v-.03a.7.7 0 0 1-.05-.28c.16.38.28.79.34 1.22.08.53.05 1.04.05 1.57Z" fill="#99A88D"/><path d="m7.88 7.44-.26.58a.61.61 0 0 1 .02-.4c.07-.21.14-.4.23-.57.04-.08.05-.08.04.01l-.03.38Z" fill="#643B26"/><path d="M6.57 7.62c0 .15-.07.24-.19.26-.23.05-.45.1-.67.18-.04 0-.12 0-.23-.03.02-.04.02-.09-.02-.14a1.27 1.27 0 0 1-.08-.18l.01-.02.14-.16v-.02l-.13-.1a.04.04 0 0 1 0-.07l.25-.08c.02 0 .02-.01 0-.02l-.2-.17.01-.03h.04a1.3 1.3 0 0 1 .64.32c.13.1.28.2.43.26Z" fill="#A18471"/><path d="M6.74 7.5v.04c0 .06-.03.08-.09.06a1.29 1.29 0 0 1-.3-.19c-.1-.08-.1-.1.04-.1.04.02.13.03.25.06.07.02.1.06.1.13ZM5.49 8.18c0 .04-.02.07-.05.1l-.38-.14a1.88 1.88 0 0 0-.67-.35.82.82 0 0 1-.57-.41l1.35.56c.1.04.2.12.32.24Z" fill="#551A14"/><path d="M11.03 8.06c-.14.09-.26.13-.35.12-.54-.03-1.03-.06-1.36.44a.12.12 0 0 0-.02.04.94.94 0 0 0-.06.47l-.23.28c-.09-.04-.16-.03-.21.03-.2.22-.43.4-.69.53a.05.05 0 0 0-.02.03v.03c.05.18.16.34.32.46l-.31-.08-.3-.29c-.05-.04-.08-.06-.08-.08 0-.05.02-.09.08-.12l.02-.03v-.05l-.02-.01c-.16-.04-.23-.13-.2-.3.05-.18.06-.32.05-.42 0-.02 0-.03.02-.04h.02c.03-.01.03-.02 0-.02l-.2-.03a.07.07 0 0 0-.08.07c-.02.1-.07.16-.17.19l-.44.12c-.57.08-.7-.4-.82-.83l-.01-.06c.13.16.23.34.3.54 0 .03.1.15.28.33.02.02.04.02.06.02.17-.04.33-.11.47-.2l.04-.04-.01-.03c0-.02-.02-.02-.04-.02l-.34.05c-.02 0-.02 0 0-.01.08-.08.17-.14.27-.2l.63-.27c.34-.14.35-.4.42-.65.01-.06.07-.11.16-.17.18-.1.38-.15.6-.13.24.03.42.2.66.25.33.06.65.02.98-.06.15-.04.17.06.3.1a.7.7 0 0 0 .28.04Z" fill="#B78767"/><path d="M11.43 7.7c-.06.39-.22.6-.47.85-.06.06-.05.09.04.08.33-.01.67-.05.95-.27l.29-.08.27-.1c.13-.07.27-.13.42-.17a.76.76 0 0 1 .54.02l-.24-.01a.45.45 0 0 0-.24.04c-.19.1-.39.19-.49.38-.12.25-.18.42-.34.55-.15.13-.34.26-.55.39-.2.12-.39.37-.73.41l-.32-.28a2 2 0 0 1-.35-.84.05.05 0 0 0-.06-.02.79.79 0 0 0-.38.23l-.33.35c-.01.02-.03.02-.05 0l-.15-.1a.94.94 0 0 1 .06-.47l-.02.37c0 .03 0 .04.03.04h.03a.04.04 0 0 0 .04-.02c.13-.2.25-.32.35-.38.15-.1.3-.18.47-.25.06-.03.06-.05 0-.06a.9.9 0 0 0-.88.26c.33-.5.82-.47 1.36-.44.1.01.2-.03.35-.12a.92.92 0 0 0 .3-.26l.02-.02.08-.08Z" fill="#C2A290"/><path d="M4.4 7.79c.23.06.45.18.66.35.26.18.57.3.91.37v.06l-.05.06c-.15.1-.3.23-.42.4l-.52.95a.42.42 0 0 0-.1-.12c-.01-.01-.03 0-.04.02l-.1.27-.16.11c-.02.02-.04.01-.05 0v-.06c.06-.13.15-.27.26-.41a.07.07 0 0 0 .01-.06l-.1-.7c0-.03-.02-.04-.04-.04H3.7c-.02 0-.03-.02-.03-.04l.1-.97c0-.02.02-.03.04-.03l.64.03h.02v-.03a.01.01 0 0 0 0-.02l-.3-.1c-.03-.02-.03-.03.01-.03l.21-.01Z" fill="#E0CE5F"/><path d="M13.47 8.03h.16l.05.01-.42.05a.78.78 0 0 0-.3.08c-.1.05-.17.1-.23.16a.27.27 0 0 1-.06.04l-.13.06a.05.05 0 0 0-.02.04c-.02.17 0 .32.05.45.02.09.04.17.04.23v.24c0 .13-.02.22-.07.28a.79.79 0 0 1-.23.2l-.27.1a.98.98 0 0 1-.28.07c-.23.01-.46-.01-.68-.08l-.2-.17c.34-.04.53-.3.73-.41.21-.13.4-.26.55-.39.16-.13.22-.3.34-.55.1-.2.3-.29.5-.38a.45.45 0 0 1 .23-.04l.24.01Z" fill="#A18471"/><path d="M13.68 8.04c.2.04.32.22.42.38a7.22 7.22 0 0 1-1.53.13.05.05 0 0 0 0 .04c.07.32.23.6.47.83.15.14.32.24.54.3l-.17.44c-.05 0-.09 0-.1.02-.05 0-.1.02-.16.05.08-.1.08-.2.01-.25a.08.08 0 0 0-.06-.02l-.84.1c-.42.06-.82.03-1.18-.1.22.07.45.1.68.08.09 0 .18-.03.28-.06.15-.06.24-.1.27-.1.1-.06.18-.13.23-.2.05-.07.07-.16.07-.29v-.24a.78.78 0 0 0-.04-.23 1.15 1.15 0 0 1-.05-.45.05.05 0 0 1 .02-.04l.13-.06a.26.26 0 0 0 .06-.04c.06-.06.14-.11.24-.16a.78.78 0 0 1 .29-.08l.42-.05Z" fill="#443638"/><path d="m9.3 8.66.02-.04a.9.9 0 0 1 .87-.26c.07.01.07.03 0 .06-.16.07-.31.16-.46.25a1.37 1.37 0 0 0-.37.4h-.05c-.02 0-.03-.01-.03-.04l.02-.37Z" fill="#E4C8B8"/><path d="M14.1 8.42h.02c.03.07.07.12.12.14.03.13.03.25-.02.36l-.02.03-.1.08a.09.09 0 0 0-.04.05c-.04.17-.08.28-.13.32l-.35.32a1.23 1.23 0 0 1-.54-.3 1.7 1.7 0 0 1-.48-.85.05.05 0 0 1 .03-.04h.02c.52.01 1.01-.02 1.49-.11Z" fill="#221616"/><path d="M14.26 9.4c-.01.41-.08.82-.22 1.2a1.94 1.94 0 0 0-.59-.16c-.02 0-.03-.02-.04-.04l-.01-.11c-.01-.06 0-.1.01-.13l.17-.44.35-.32c.05-.04.1-.15.13-.32 0-.02.02-.04.04-.05l.1-.08.02-.03c.05-.1.05-.23.02-.36.06.07.09.13.07.2-.04.27-.06.48-.05.64Z" fill="#CAC36F"/><path d="M5.98 8.57c.12.43.25.91.82.83l.44-.12c.1-.03.15-.1.17-.2a.07.07 0 0 1 .08-.06l.2.03c.03 0 .03 0 0 .02h-.02c-.02 0-.03.02-.02.04 0 .1 0 .24-.04.42-.04.17.03.26.19.3l.02.01v.05l-.02.03c-.06.03-.09.07-.08.12 0 .02.03.04.07.08.11.09.21.19.3.3-.1-.03-.18 0-.2.1-.34-.23-.61-.1-.9.11a.06.06 0 0 1-.09 0c-.3-.27-.4-.68-.1-1 .08-.07.07-.1-.04-.1-.28.03-.52-.07-.64-.36l-.2-.54.06-.06Z" fill="#D59B76"/><path d="m5.92 8.63.2.54c.12.29.36.39.64.36.1 0 .12.03.05.1-.31.32-.2.73.1 1a.06.06 0 0 0 .07 0c.3-.22.57-.34.92-.1.03.21-.05.39-.23.54a.07.07 0 0 0-.02.1l.03.01c.17.1.37.16.58.2.02 0 .04.01.04.03.11.25.3.47.55.67-.5-.1-.95-.26-1.37-.46a54 54 0 0 0-.71-.36 2.35 2.35 0 0 1-.45-.28l.09-.02c.02 0 .04-.02.05-.04a.18.18 0 0 1 .07-.07c.03-.01.02-.03 0-.04l-.25-.1a.05.05 0 0 1-.03-.05c.07-.22.08-.46 0-.7A2.53 2.53 0 0 0 6 9.31c-.1-.15-.26-.25-.49-.3.13-.16.27-.3.42-.4Z" fill="#C2A290"/><path d="m10.56 9.51-.5-.44a.08.08 0 0 0-.14.05c-.02.11.02.2.13.24l.16.06.3.17c.1.07.18.17.27.28.03.05.09.1.17.15l.22.13.26.22c.12.1.22.16.3.2.27.12.7.2.98.03l.43-.26c-.33.3-.58.47-1.03.5a.08.08 0 0 0-.06.03c-.1.12-.18.29-.22.48-.03.12-.07.24-.14.37-.05.11-.1.23-.17.35-.38.13-.8.2-1.25.2a.96.96 0 0 0-.75.01l.02-.06a.02.02 0 0 0 0-.02.02.02 0 0 0-.02 0c-.26 0-.49-.04-.67-.12-.25-.2-.44-.42-.55-.67a.06.06 0 0 0-.04-.04 1.94 1.94 0 0 1-.6-.2.07.07 0 0 1 0-.1.56.56 0 0 0 .24-.54c.01-.1.08-.14.2-.12l.31.08c.06-.13.12-.22.15-.26.2-.25.36-.52.45-.82l.23-.28.15.1c.02.02.04.02.05 0l.33-.35a.79.79 0 0 1 .4-.24.05.05 0 0 1 .04.03v.01a2 2 0 0 0 .35.83Z" fill="#A18471"/><path d="M4.73 10.15a.43.43 0 0 1-.08.15.5.5 0 0 0-.1.13.41.41 0 0 0 0 .2c-.05 0-.09 0-.12.04l.04-.31a.05.05 0 0 0-.07-.06l-.4.12c-.03.01-.06 0-.07-.03l-.13-.24c-.01-.04 0-.06.04-.08l.44-.13c.03-.01.04-.03.03-.05l-.09-.9h.44c.02 0 .04.01.04.03l.1.71v.06c-.12.14-.2.28-.27.41v.05c.01.02.03.03.05.01l.15-.1Z" fill="#CAC36F"/><path d="M3.13 10.27 3 9l.54.01c.02 0 .03.01.04.03l.14 1.02c0 .01 0 .03-.02.03l-.57.2Z" fill="#99A88D"/><path d="M5.5 9.02c.23.05.4.15.49.3.11.2.2.4.27.63.07.25.06.49-.01.7a.05.05 0 0 0 .03.07l.25.1c.02 0 .03.02 0 .03a.18.18 0 0 0-.07.07.08.08 0 0 1-.05.04l-.09.02a9.4 9.4 0 0 1-1.34-1l.52-.96Z" fill="#E4C8B8"/><path d="m10.56 9.51.32.28.2.17c.36.13.76.16 1.18.1a25.45 25.45 0 0 1 .9-.08c.07.06.07.14 0 .25-.06.02-.12.06-.17.1a.39.39 0 0 1-.17.07.7.7 0 0 1-.3-.03 1.56 1.56 0 0 0-.68-.09c-.13.02-.36-.03-.67-.13a3.89 3.89 0 0 0-.22-.13.54.54 0 0 1-.17-.15 1.29 1.29 0 0 0-.27-.28 6.88 6.88 0 0 0-.46-.23c-.1-.05-.15-.13-.13-.24a.08.08 0 0 1 .14-.05l.5.44Z" fill="#221616"/><path d="M9.01 9.41c-.1.3-.24.57-.45.82a1.5 1.5 0 0 0-.15.26.94.94 0 0 1-.33-.46.05.05 0 0 1 .03-.06c.26-.13.49-.31.69-.53.05-.06.12-.07.21-.03Z" fill="#A16D4B"/><path d="m15 9.56-.2 1.09c-.05.02-.07.06-.08.1a.06.06 0 0 1-.02.04.06.06 0 0 1-.05.01l-.6-.2c.13-.38.2-.79.21-1.2l.73.16Z" fill="#BEBE7C"/><path d="m4.98 9.98.84.67.5.33c.16.12.3.22.45.28l.71.36c.42.2.87.36 1.37.46a1.58 1.58 0 0 0 .68.11.02.02 0 0 1 .01.03l-.02.06c-.24.13-.41.3-.52.54 0-.02 0-.05-.02-.06-.01-.02-.03-.03-.04-.01h-.02a4.68 4.68 0 0 1-2.75-1.08l-.49-.3a1.9 1.9 0 0 1-.41-.3 4.11 4.11 0 0 0-.4-.32c-.05-.03-.13-.1-.24-.23H4.6l-.02.02a.03.03 0 0 0 0 .04c.03.02.05.06.06.09a.25.25 0 0 0-.1-.04.41.41 0 0 1 .02-.2.5.5 0 0 1 .1-.13.43.43 0 0 0 .07-.15l.12-.27c0-.03.02-.03.04-.02l.09.12Z" fill="#8F2B26"/><path d="m13.15 10.23.15-.05a.41.41 0 0 1-.16.16l-.43.26c-.28.17-.71.1-.98-.03-.08-.04-.18-.1-.3-.2l-.26-.22c.31.1.54.14.67.13.22-.02.45.01.68.1a.7.7 0 0 0 .3.02c.04 0 .1-.03.17-.08l.16-.1Z" fill="#7D5C52"/><path d="M13.41 10.16c-.02.03-.02.07-.01.13l.02.6-.03.05c-.44-.16-.84-.1-1.2.2a.55.55 0 0 0-.2.38l-.06.44-.4.11.16-.35c.07-.13.11-.25.14-.37.04-.2.12-.36.22-.48a.08.08 0 0 1 .06-.03c.45-.03.7-.2 1.03-.5.07-.04.12-.1.16-.16.02-.02.06-.02.11-.02Z" fill="#C2A290"/><path d="m14.04 10.6.6.2a.06.06 0 0 0 .06 0 .06.06 0 0 0 .02-.05c0-.04.03-.08.07-.1l-.23.64a10.96 10.96 0 0 1-1-.5c-.04-.01-.07-.02-.1 0-.03 0-.04.04-.04.1l-.02-.6.01.11c0 .02.02.04.04.04.21.02.4.08.6.17Z" fill="#A2AD85"/><path d="m9 12.82-.03.1a17 17 0 0 1-1.78-.6l-.76-.37a12.66 12.66 0 0 1-1.5-1.04l-.3-.24a.23.23 0 0 0-.05-.1.03.03 0 0 1 0-.03l.02-.02h.03c.11.13.19.2.23.23.19.14.32.24.4.32.15.14.29.24.42.3l.49.31.5.28a10.64 10.64 0 0 0 2.24.8l.03-.01c.01-.02.03-.01.04 0 .02.03.02.05.02.07Z" fill="#551A14"/><path d="M3.6 11.63c-.17-.3-.29-.62-.36-.95l.49-.13c.02 0 .04 0 .05.02.06.09.1.18.13.28l-.01.05-.4.28a.08.08 0 0 0-.03.09l.12.36Z" fill="#99A88D"/><path d="M4.54 10.63c.04 0 .07.02.1.04l.28.24.29.25c.39.29.8.55 1.22.8l-.84-.33h-.05l-.2.22-.54.67c-.09.11-.23.23-.41.35a6.8 6.8 0 0 1-.67-1 1.51 1.51 0 0 1 .32-.6v-.03c0-.06.02-.1.1-.12l.02-.02.03-.03.1-.19.02-.06c.01-.07.05-.12.12-.15.03-.03.07-.05.11-.04ZM13.39 10.94l.05.1-.26.23c-.19.13-.43.3-.74.48-.1.06-.27.13-.51.2l.07-.43a.55.55 0 0 1 .2-.37c.35-.3.75-.37 1.19-.2Z" fill="#E4C8B8"/><path d="m14.56 11.29-.14.32a1.9 1.9 0 0 1-.62-.2h-.02l-.01.01v.24c0 .02-.02.04-.03.05l-.34.27c0-.02 0-.05-.02-.08l.2-.17c.03-.02.05-.04.04-.08l-.01-.08-.02-.6c0-.03-.01-.04-.03-.03a.24.24 0 0 0-.12.1l-.05-.1.03-.06c0-.05.01-.08.05-.1l.1.01.16.08c.27.15.54.29.83.42Z" fill="#BEBE7C"/><path d="M13.57 11.73v-.1c0-.02-.01-.03-.03 0a.8.8 0 0 1-.12.11l-.62.46c-.17.14-.34.24-.51.3-.38.16-.73.29-1.03.37l-.2.04c-.15 0-.21.05-.17.12a.39.39 0 0 0-.1-.17 1 1 0 0 0-.52-.6c.45 0 .87-.06 1.25-.19l.4-.11c.25-.08.43-.15.52-.21l.74-.48.26-.23a.24.24 0 0 1 .12-.1c.02 0 .03 0 .03.02a16.87 16.87 0 0 1 .03.7c0 .03 0 .05-.05.07Z" fill="#8F2B26"/><path d="M7.53 11.47c-.03.06-.02.13.02.14.04.02.08-.03.1-.1.03-.07.02-.13-.01-.14-.04-.02-.09.03-.11.1Z" fill="#E4C8B8"/><path d="M14.42 11.61c-.24.52-.55 1-.93 1.41l.15-.28a.05.05 0 0 0 0-.05l-.31-.43c0-.11.03-.2.07-.28l.34-.27a.07.07 0 0 0 .02-.05v-.24l.02-.01a.04.04 0 0 1 .04 0c.19.1.39.17.6.2Z" fill="#99A88D"/><path d="m13.57 11.73-.19.17c-.2.13-.4.28-.58.44-.07.05-.26.15-.56.3-.14.06-.27.15-.42.2l-.56.14-.37.05c-.04-.07.02-.11.17-.12l.2-.04c.3-.08.65-.2 1.03-.36.17-.07.34-.17.5-.3l.63-.47a.8.8 0 0 0 .12-.12c.02-.02.03-.01.03.01v.1Z" fill="#551A14"/><path d="m6.43 11.95.76.38c-.23.17-.37.3-.4.4l-.14.4a.52.52 0 0 1-.08.16 21.71 21.71 0 0 1-.5.52H6l-.39-.14c-.09-.03-.15 0-.22.04a.05.05 0 0 1-.06 0 .33.33 0 0 0-.13-.07c-.3-.24-.57-.5-.81-.77.18-.12.32-.24.41-.35l.54-.67.2-.21a.04.04 0 0 1 .06-.01l.83.32Z" fill="#C2A290"/><path d="M13.38 11.9c.02.03.03.06.02.08a.68.68 0 0 0-.07.28c-.04.35-.07.58-.1.7-.04.2-.15.4-.32.64a.27.27 0 0 0-.15.12c-.08-.1-.12-.16-.11-.22a1.9 1.9 0 0 0-.03-.71c0-.02-.02-.03-.04-.03h-.41c-.03 0-.03 0-.01-.02a.24.24 0 0 0 .08-.1c.3-.15.49-.25.56-.3.19-.16.38-.3.58-.44Z" fill="#E4C8B8"/><path d="m13.33 12.26.3.43c.02.01.02.03.01.05l-.15.28-.58.58c.17-.23.28-.45.32-.64.03-.12.06-.35.1-.7Z" fill="#BEBE7C"/><path d="M8.97 12.92c-.09.45.03.8.34 1.05.17.14.36.2.56.22.23.01.43-.06.6-.2.34-.29.44-.66.32-1.13.04.05.08.1.1.17l.37-.05c.29.11.5.29.66.53.07.1.1.2.06.29-.03.11-.1.2-.2.27a.57.57 0 0 1-.14.05c-.13.04-.24.07-.35.13-.15.09-.33.17-.53.25-.12.05-.21.16-.28.32-.2.06-.33.1-.38.1l-.76.06a5.4 5.4 0 0 1-2.47-.37 8.2 8.2 0 0 1-1.1-.54c-.2-.12-.4-.26-.57-.43.05.01.09.03.13.06.02.02.04.02.06 0 .07-.04.13-.06.22-.03a29.35 29.35 0 0 1 .47.14 21.71 21.71 0 0 0 .5-.52.52.52 0 0 0 .07-.17l.14-.4c.03-.09.17-.22.4-.4a17 17 0 0 0 1.78.6Z" fill="#A18471"/><path d="m10.34 12.86.14.14a.08.08 0 0 1 0 .11l-.57.7a.04.04 0 0 1-.07-.03.6.6 0 0 0-.07-.19 3.16 3.16 0 0 1-.28-.67.57.57 0 0 1-.04-.24c0-.02.02-.03.04-.03.16.01.3.04.42.07l.22.04c.1 0 .17.04.21.1Z" fill="#DA443E"/><path d="M12.24 12.63a.24.24 0 0 1-.08.1c-.02.02-.02.03 0 .03h.42c.02 0 .03.01.04.03.05.23.06.47.03.71-.01.06.03.13.11.22-.27.22-.57.4-.89.56-.09.04-.17.1-.25.16a.44.44 0 0 1-.2.1c-.06 0-.13.02-.22.06-.23.1-.47.17-.72.22.07-.16.16-.27.28-.32.2-.08.38-.16.53-.25.11-.06.22-.09.35-.13a.57.57 0 0 0 .14-.05c.1-.07.17-.16.2-.27.03-.08.01-.18-.06-.3a1.33 1.33 0 0 0-.66-.52c.2-.04.38-.09.56-.15.15-.04.28-.13.42-.2Z" fill="#C2A290"/><path d="m9.83 12.84.25.06c.03 0 .04.02.02.04a.26.26 0 0 1-.1.1h-.05l-.15-.13c-.07-.07-.06-.1.03-.07ZM9.6 12.93a.02.02 0 0 1 .01-.02.02.02 0 0 1 .03 0l.25.2c.02.02.02.04.02.06l-.02.24c0 .15-.03.16-.07 0-.03-.13-.1-.29-.21-.48ZM9.95 13.55l.06-.33a.08.08 0 0 1 .06-.06l.17-.02c.06-.01.07 0 .03.05-.1.1-.18.21-.26.34a.07.07 0 0 1-.05.03h-.01Z" fill="#F8F9F9"/></svg>