<!-- by TradingView --><svg width="18" height="18" viewBox="0 0 18 18" xmlns="http://www.w3.org/2000/svg"><path fill="#DD1438" d="M0 0h18v18H0z"/><path fill-rule="evenodd" d="M6.47 7.66a2.77 2.77 0 0 0 .11.46c-.5.32-.9.73-1.2 1.24-.2.35-.32.75-.36 1.18a3.1 3.1 0 0 0 1.75 3.11c.53.27 1.1.38 1.73.34a3.28 3.28 0 0 0 2.66-1.66 3 3 0 0 0 .23-2.43l.12-.07a3.2 3.2 0 0 0 1.2-4c-.25-.52-.61-.94-1.1-1.26A3.43 3.43 0 0 0 9.7 4a3.32 3.32 0 0 0-2.83 1.54 3.04 3.04 0 0 0-.4 2.12Zm5.9-.24a2.5 2.5 0 0 0-.99-2.25 2.74 2.74 0 0 0-.84-.45c.3-.16.6-.2.94-.14a3.16 3.16 0 0 1 .79.76 2.83 2.83 0 0 1 .52 1.98 2.94 2.94 0 0 1-1.53 2.28l-.1-.24v-.02a2.5 2.5 0 0 0 1.2-1.92Zm-2.31-2.2h-.02v-.01c.1-.2.25-.34.44-.45h.02a2.43 2.43 0 0 1 1.63 2.75c-.08.37-.23.69-.46.97a2.56 2.56 0 0 1-.63.55l-.13-.32v-.02a1.97 1.97 0 0 0 .78-1.94 1.9 1.9 0 0 0-1.63-1.52Zm-.2.58h.01c.38.02.7.18.97.5.19.24.28.51.26.82a1.34 1.34 0 0 1-.43.96v.01l.14.35h.02a1.7 1.7 0 0 0 .68-1.78 1.9 1.9 0 0 0-1.48-1.42H10c-.09.18-.14.37-.14.56Zm.02.04c.36.05.64.22.84.52a1.14 1.14 0 0 1-.16 1.47L9.93 6.2a.98.98 0 0 1-.06-.36Zm-3.84 3.6a2.41 2.41 0 0 1 .77-.77l-.1-.24H6.7a2.98 2.98 0 0 0-1.38 3.39 2.88 2.88 0 0 0 1.24 1.62c.14.03.29.02.45-.01a1.5 1.5 0 0 0 .42-.16 2.58 2.58 0 0 1-1.77-2.84c.05-.36.18-.7.38-1Zm.9-.44.12.32v.02a1.89 1.89 0 0 0-.78 1.39 1.88 1.88 0 0 0 .99 1.84c.2.1.4.18.65.21v.02c-.1.18-.25.32-.43.44h-.02a2.48 2.48 0 0 1-1.21-.9 2.4 2.4 0 0 1-.31-2.12c.08-.24.2-.47.38-.69a2.7 2.7 0 0 1 .6-.53Zm1 3.75c.1-.16.15-.34.17-.54l-.01-.01a1.3 1.3 0 0 1-.8-2.25v-.02l-.13-.35h-.02c-.21.15-.37.33-.49.55l-.14.34a1.76 1.76 0 0 0 .18 1.38 1.91 1.91 0 0 0 1.23.9h.02Zm.16-.58a1.15 1.15 0 0 1-.7-.38c-.13-.14-.22-.3-.27-.48a1.1 1.1 0 0 1-.02-.55c.04-.2.14-.39.28-.55h.03a747.68 747.68 0 0 0 .68 1.75 2.3 2.3 0 0 1 0 .2Z" fill="#fff"/></svg>