<!-- by TradingView --><svg width="18" height="18" viewBox="0 0 18 18" xmlns="http://www.w3.org/2000/svg"><path fill="url(#a)" d="M0 0h18v18H0z"/><path d="M13.58 5.75c-.27-.4-.58-.74-.91-1.02a3.33 3.33 0 0 0-2.41-.64h-.21l.02-.04a3.4 3.4 0 0 1 3.5 1.7Z" fill="#38D07A"/><path d="m10.07 4.05-.02.05a3.5 3.5 0 0 0-1.87 1.04v.1c-.06.04-.1.1-.1.15l-.03.06-.2.26-.04.1a.14.14 0 0 0-.02.06c0 .06-.02.12-.05.2l-.05.06-.16.15c-.02.03-.02.05 0 .07.02 0 .02.02.01.03 0 .02-.01.04-.03.05a.18.18 0 0 0-.05.17c-.05.04-.06.07-.02.08 0 .01 0 .03.02.03l-.07.07c-.02.01-.01.03.01.04a.2.2 0 0 0 .07 0v.04c-.12.05-.16.11-.14.18a.16.16 0 0 0-.04.07v.03c0 .02.02.02.04.02l.02.03c0 .03-.04.06-.09.1l-.16.09a.23.23 0 0 0-.05.04c-.03.04-.04.06-.02.07.04.01.04.04 0 .06-.11.1-.16.18-.14.25l.01.09-.17.2a.93.93 0 0 0-.17.2A405.98 405.98 0 0 0 5.19 11a.05.05 0 0 0 0 .06l.07.06a.26.26 0 0 0-.03.1c-.1.06-.2.17-.3.33l-.14.19a.05.05 0 0 0 0 .06c0 .02.01.04.03.05l-.19.13V12h.03l.27-.12h.02l.01.01c.02.01.01.02 0 .03l-.4.23c-.02 0-.03.02-.03.03l.01.03h.02c.14-.04.3-.08.45-.1.06 0 .06 0 0 .03a.79.79 0 0 1-.2.07.73.73 0 0 0-.36.16l-.01.03c-.01.02 0 .03.02.03.04 0 .08 0 .1.03l-.21.13-.33.51a.25.25 0 0 1 .02-.18l3.39-6.64c.27-.55.5-.92.69-1.14.5-.57 1.15-.93 1.95-1.1Z" fill="#C2EF32"/><path d="M12.67 4.73c-.1.04-.17.1-.2.18a2.82 2.82 0 0 0-1.15-.52 2.3 2.3 0 0 0-1.06-.14V4.1c.88-.1 1.68.11 2.4.64Z" fill="#2E38B9"/><path d="M10.26 4.09v.16a3.3 3.3 0 0 0-1.97.84c-.06.1-.1.11-.11.05.51-.54 1.14-.9 1.87-1.04l.21-.01Z" fill="#0D6B8C"/><path d="M11.32 4.4a3.06 3.06 0 0 0-1.38-.06 3.08 3.08 0 0 0-1.74.9h-.02v-.1c0 .06.05.04.11-.05a3.3 3.3 0 0 1 1.97-.84c.36-.03.7.01 1.06.14Z" fill="#76B475"/><path d="m11.32 4.4.33.13a3.33 3.33 0 0 1 1.01.6l-.1.3a3.21 3.21 0 0 0-1.96-.91 6.29 6.29 0 0 0-.66-.01v-.17c.45-.09.9-.07 1.38.05Z" fill="#2E38B9"/><path d="M9.94 4.34v.17c-.53.06-1.02.25-1.45.55-.02.01-.02.02-.01.03l.01.02a3.01 3.01 0 0 1 2.08-.55c0 .06 0 .13.03.2h-.84a3.12 3.12 0 0 0-1.9.95l.2-.26a.11.11 0 0 0 .02-.06c0-.06.04-.1.1-.15h.05l.17-.19c.44-.38.95-.61 1.54-.7Z" fill="#0D6B8C"/><path d="M12.46 4.91c.34.27.62.58.84.95v.03h-.03a3.78 3.78 0 0 0-.61-.76c-.2-.18-.43-.34-.67-.46a2.44 2.44 0 0 0-.33-.14 3.92 3.92 0 0 1-.34-.14c.4.08.79.26 1.14.52Z" fill="#467DBF"/><path d="M12.57 5.42a3.23 3.23 0 0 1 .52.74h-.01a3.12 3.12 0 0 0-2.51-1.6 3.01 3.01 0 0 0-2.08.55l-.01-.02v-.03c.44-.3.93-.49 1.46-.55h.66c.7.05 1.35.35 1.97.91Z" fill="#2FB2A0"/><path d="M12.3 5.24a.49.49 0 0 0-.18-.04c-.07 0-.1.02-.1.06 0 .04.01.09.05.15l-.52-.3c-.29-.19-.6-.3-.96-.35a.51.51 0 0 1-.02-.2c.64.04 1.22.26 1.73.68Z" fill="#2E38B9"/><path d="M10.6 4.76c.35.05.66.16.95.34a2.9 2.9 0 0 0-1.46-.3h-.31l-.02-.03h.83Z" fill="#3098B5"/><path d="M12.67 4.73c.33.28.64.61.9 1.02.16.22.27.47.32.75a.28.28 0 0 1-.1-.13 5.8 5.8 0 0 0-.06-.15l-.16-.3c-.01-.03-.03-.03-.04-.02l-.02.01a.04.04 0 0 0-.02.06c.06.17.1.34.13.5.02.17 0 .18-.08.03a3.05 3.05 0 0 0-.29-.5c-.06-.07-.08-.07-.05.03.04.17.06.33.07.5 0 .12-.03.13-.1.03a3.96 3.96 0 0 1-.12-.2c-.07-.12-.09-.11-.06.02.03.14.08.28.14.43a.3.3 0 0 1 0 .22c0 .02-.01.03-.03.04a.28.28 0 0 0-.12.07.1.1 0 0 0-.03.07 12.59 12.59 0 0 0 0 .4h-.01c-.02 0-.03 0-.03-.02-.04-.17-.1-.31-.16-.44-.04-.05-.05-.05-.05.02l.03.54c0 .05 0 .08-.03.12a21.1 21.1 0 0 1-1.16 1.51 65.19 65.19 0 0 0-1.13 1.34 4.34 4.34 0 0 1-.94-.22.8.8 0 0 1-.24-.13v-.5c.12-.09.2-.17.22-.23-.05-.1-.07-.18-.05-.23 0-.03.02-.03.04 0l.23.33h.05c.02-.02.02-.03.01-.05l-.16-.35a.86.86 0 0 0-.34-.5c0-.06.02-.1.04-.1.02-.02.04-.01.05 0 .26.22.45.48.55.77l.02.02.02.01c.02 0 .03 0 .03-.02l-.04-.55c0-.02 0-.04.02-.05H10c.02.08.05.14.1.16.06.05.08.04.04-.04a1.42 1.42 0 0 0-.11-.18c.01-.11.05-.2.1-.28l.17.29c.04.05.05.05.06-.02 0-.05-.01-.1-.04-.16-.07-.16-.12-.3-.14-.41-.02-.13.01-.14.09-.04a3.3 3.3 0 0 1 .28.4h.02v-.02a1.86 1.86 0 0 0-.37-.7c-.07-.07-.06-.09.03-.06.14.04.24.13.3.26.02.03.06.05.1.05l.15.18.02-.02c.02-.01.02-.03.01-.05a.48.48 0 0 1-.06-.19l.01-.03h.04c.05.02.12.1.2.22l.06.08.03.02.02-.01v-.04c-.19-.54-.43-.9-.72-1.1-.03 0-.03-.03-.02-.05a.22.22 0 0 1 .1-.11c.16.14.32.29.46.44.06.06.13.16.21.3a4.16 4.16 0 0 0 .11.14V7.9a2.18 2.18 0 0 0-.66-.87.4.4 0 0 1 .23-.14l.28.27.46.76v.01h.03c.02 0 .02-.02.02-.04a3 3 0 0 0-.32-.73v-.03h.04c.14.12.25.24.34.38.02.02.03.02.05 0h.01v-.03c-.14-.3-.29-.56-.44-.78-.04-.07-.02-.13.07-.17.3.26.52.57.67.94h.02v-.02a2.79 2.79 0 0 0-.66-.97c-.04-.14 0-.22.13-.25a4.63 4.63 0 0 1 .53.59V6.8a3.09 3.09 0 0 0-.55-.64.51.51 0 0 1-.09-.38 2.76 2.76 0 0 1 1.06 1.17v-.02a2.9 2.9 0 0 0-.86-1.1c-.18-.15-.25-.3-.2-.44a2.85 2.85 0 0 1 .73.57l.02-.01v-.02l-.22-.22c.05-.17.2-.14.48.07l.02.02a3 3 0 0 1 .28.35v-.02a2.67 2.67 0 0 0-.64-.72.24.24 0 0 1-.05-.15c0-.04.03-.06.1-.06.05 0 .12.02.18.04a3.12 3.12 0 0 1 .8.92v-.01a3.5 3.5 0 0 0-.53-.73l.09-.3a3.78 3.78 0 0 1 .63.77c.01-.01.02-.02.01-.03-.22-.37-.5-.68-.84-.95.04-.08.1-.14.2-.18Z" fill="#4527BF"/><path d="m9.76 4.77.02.03c-.63.08-1.18.32-1.65.73a.23.23 0 0 0-.06.1c-.02.03-.01.03.01 0l.03-.01c.05-.01.05 0 .01.03l-.22.19c-.03.02-.02.03.02.03h.02c.04 0 .04.02.01.04l-.2.15a.48.48 0 0 0 .04-.2c0-.01 0-.04.02-.06l.04-.09a3.12 3.12 0 0 1 1.9-.95Z" fill="#8BE65D"/><path d="m10.1 4.8.04.17L9.8 5c-.59.03-1.12.2-1.6.54v.02l.01.02h.02a24.7 24.7 0 0 0 .44-.26 3.08 3.08 0 0 1 1.66-.26l-.2.19-.08.05-.44.02c-.03 0-.04.01-.04.04 0 .02 0 .06.03.1l-.21.03a3.09 3.09 0 0 0-1.66.68c-.02.01-.03 0-.03-.01v-.03l.04-.07.21-.15c.03-.02.03-.03-.01-.04h-.02c-.04 0-.05 0-.02-.03l.23-.19c.03-.03.03-.04-.02-.03l-.03.01c-.02.03-.03.03-.01 0a.23.23 0 0 1 .06-.1 3.1 3.1 0 0 1 1.65-.73h.31Z" fill="#0D6B8C"/><path d="M11.55 5.1a4.03 4.03 0 0 1 .86.68c-.27-.21-.43-.24-.48-.07a3.77 3.77 0 0 0-1.5-.7l-.29-.04-.05-.16c.5-.03.99.07 1.46.3Z" fill="#2E38B9"/><path d="m11.93 5.71.22.22v.02l-.02.01a2.85 2.85 0 0 0-.74-.57c-.33-.2-.68-.32-1.06-.33a3.08 3.08 0 0 0-2.12.52v-.02c-.02 0-.01-.02 0-.02.47-.33 1-.51 1.59-.54l.34-.03a106.85 106.85 0 0 0 .58.1 4 4 0 0 1 1.21.64Z" fill="#76B475"/><path d="M11.4 5.4c-.05.14.02.28.2.44a5.48 5.48 0 0 1-.25-.15 3.23 3.23 0 0 0-1.22-.44l.2-.2c.38.02.73.14 1.06.34Z" fill="#1C48B1"/><path d="M12.07 5.41a2.67 2.67 0 0 1 .64.74h-.01a4.03 4.03 0 0 0-1.15-1.04l.52.3Zm-1.93-.16a3.23 3.23 0 0 1 1.46.59 2.81 2.81 0 0 1 .86 1.1h-.02a2.76 2.76 0 0 0-1.04-1.16 2.4 2.4 0 0 0-1.35-.48l.09-.05Z" fill="#467DBF"/><path d="M10.05 5.3c.5.03.96.18 1.35.48-.02.12 0 .24.09.38a3.41 3.41 0 0 0-.77-.46 3.6 3.6 0 0 0-.56-.15v.01l.43.15c.34.11.64.29.92.52-.13.03-.17.11-.13.25a2.32 2.32 0 0 0-.99-.57 2.3 2.3 0 0 0-.52-.15 6.73 6.73 0 0 0-.67-.03l-.04-.17h.04c.28-.05.49-.07.62-.04a2.58 2.58 0 0 0 .27.02 1.71 1.71 0 0 0-.5-.08.2.2 0 0 1-.02-.1c0-.03.01-.04.04-.04l.44-.02Z" fill="#1C48B1"/><path d="M9.6 5.46a1.71 1.71 0 0 1 .5.09c-.1 0-.19-.02-.28-.03a1.91 1.91 0 0 0-.66.04c-.53.08-1 .3-1.4.66a.2.2 0 0 0-.05.12.1.1 0 0 1-.03.06l-.22.2a.18.18 0 0 1 .05-.17.14.14 0 0 0 .03-.05v-.03c-.03-.02-.03-.04 0-.07l.15-.15v.03c0 .02.02.02.04 0a3.09 3.09 0 0 1 1.66-.67l.2-.03Z" fill="#76B475"/><path d="m9.16 5.56.04.17-.33.06a2.62 2.62 0 0 0-1.12.52l.01.01c.01.01.02.02.03 0 .25-.2.52-.34.83-.42l.09.12c-.48.12-.9.33-1.27.66-.04-.01-.03-.04.02-.08l.22-.2a.1.1 0 0 0 .03-.06c.01-.06.03-.1.06-.12.4-.36.86-.58 1.4-.66Z" fill="#0D6B8C"/><path d="m10.39 5.91.2.1a.2.2 0 0 0-.04.17l.08.16.04.06v.06c-.04.08 0 .18.1.3l.06.09a2.9 2.9 0 0 0-1.96-.63.24.24 0 0 0-.05-.18c.4-.05.8-.02 1.2.07h.01v-.02c.01 0 0 0 0 0a3 3 0 0 0-1.32-.07l-.1-.12c.23-.08.41-.12.54-.12h.25a2.87 2.87 0 0 1 .99.13Z" fill="#1C48B1"/><path d="M13.89 6.5a3.36 3.36 0 0 1-.38 2.62 3.74 3.74 0 0 1-1.58 1.37 94.37 94.37 0 0 0-3.4 1.75 8.54 8.54 0 0 1-.65.33 11.6 11.6 0 0 1-1.22.6.73.73 0 0 0-.2.12.54.54 0 0 1-.19.1 210.78 210.78 0 0 0-.92.44v-.1c.07-.12.17-.2.3-.27A78.19 78.19 0 0 1 7 12.78a.18.18 0 0 1 .06-.03l.24-.08c.02 0 .03-.01.04-.03.03-.06.1-.1.2-.12a.57.57 0 0 0 .1-.03l.26-.15c.09-.07.2-.12.35-.16a.1.1 0 0 0 .06-.05.27.27 0 0 1 .2-.12c.02 0 .04-.02.05-.04.09-.11.2-.18.37-.19.5-.18.86-.4 1.1-.69a3.27 3.27 0 0 1 .37-.4v-.01a21.07 21.07 0 0 0 2.3-2.85.17.17 0 0 0 .03-.12l-.03-.54c0-.07.01-.07.05-.02.07.13.12.27.16.44 0 .01.01.02.03.02h.02v-.4c0-.03 0-.05.02-.07a.28.28 0 0 1 .12-.07c.02 0 .03-.02.04-.04a.3.3 0 0 0-.01-.22 2.4 2.4 0 0 1-.14-.43c-.03-.13 0-.14.06-.02l.13.2c.06.1.1.1.09-.03 0-.17-.03-.33-.07-.5-.03-.1 0-.1.05-.02.1.14.2.3.3.49.06.15.09.14.07-.02a2.73 2.73 0 0 0-.13-.51c0-.02 0-.04.02-.06h.02c.01-.02.03-.02.04 0l.16.31.05.15c.02.05.06.1.1.13Z" fill="#7F0FC1"/><path d="M11.38 6.48c.3.28.51.6.67.97l-.01.02h-.02a2.6 2.6 0 0 0-.67-.94A2.76 2.76 0 0 0 10.6 6l-.2-.1c.28.05.6.24 1 .57Z" fill="#467DBF"/><path d="M8.82 6.04c-.51.1-.97.33-1.36.67l-.02-.03c.37-.33.79-.54 1.27-.66a3 3 0 0 1 1.33.07v.01c0 .01-.02.02-.03.01-.39-.1-.79-.12-1.19-.07Z" fill="#76B475"/><path d="M11.35 6.53c-.09.04-.11.1-.07.17a6.11 6.11 0 0 1 .44.8l-.01.01c-.02.02-.03.02-.05 0-.09-.14-.2-.26-.34-.38h-.03v.03a3 3 0 0 1 .3.73c.01.02 0 .03-.01.04h-.03l-.46-.77a1.2 1.2 0 0 0-.26-.31 1.06 1.06 0 0 0-.06-.08c-.1-.13-.14-.23-.1-.3a.06.06 0 0 0 0-.07l-.04-.06a.63.63 0 0 1-.08-.16.2.2 0 0 1 .04-.17c.28.13.54.3.76.52Z" fill="#2E38B9"/><path d="M8.82 6.04c.04.05.06.1.05.18l-.29.06c-.17.03-.3.06-.38.09a2.6 2.6 0 0 0-.71.4.05.05 0 0 0-.02.03v.02a.2.2 0 0 1-.07 0c-.02-.01-.03-.03 0-.04l.06-.07c.4-.34.85-.57 1.36-.67Z" fill="#0D6B8C"/><path d="M10.81 6.9a.4.4 0 0 0-.23.13 2.9 2.9 0 0 0-1.23-.53 1 1 0 0 0-.34.01h-.38a.24.24 0 0 0-.15-.01v-.16a2.6 2.6 0 0 1 1.73.14c.19.09.38.22.6.41Z" fill="#1C48B1"/><path d="M8.48 6.34v.16c-.35.07-.67.2-.97.4l-.04-.01v-.07h.03c.3-.24.62-.4.98-.48Z" fill="#0D6B8C"/><path d="m8.63 6.5.02.01-.01.02c-.07 0-.14 0-.21.02-.43.1-.77.26-1.02.47a.08.08 0 0 1-.04.01l-.04.01c-.02-.07.02-.13.13-.18v.03h.05c.3-.2.62-.32.97-.4a.24.24 0 0 1 .15.01Z" fill="#76B475"/><path d="M9.01 6.51a.1.1 0 0 0 .06.02l.04.2a2.5 2.5 0 0 0-1.78.43c-.02 0-.03 0-.04-.02v-.03c0-.03.02-.05.04-.07h.04l.04-.02c.25-.21.6-.37 1.02-.47a.69.69 0 0 1 .2-.02c.02 0 .02 0 .02-.02h-.02.38Z" fill="#0D6B8C"/><path d="M10.58 7.03a2.18 2.18 0 0 1 .67.88h-.03a3.97 3.97 0 0 1-.09-.14 1.93 1.93 0 0 0-.2-.3l-.46-.44c-.4-.33-.87-.5-1.4-.5a.1.1 0 0 1-.06-.02 1 1 0 0 1 .34-.01c.45.08.87.26 1.23.53Z" fill="#3098B5"/><path d="M10.47 7.03a.22.22 0 0 0-.11.11c-.01.02 0 .04.02.05.29.2.53.56.72 1.1v.04h-.05a1.53 1.53 0 0 1-.06-.1.63.63 0 0 0-.2-.22h-.04a.03.03 0 0 0-.01.04c0 .07.03.14.06.2v.04c-.02 0-.02.01-.03.02a.15.15 0 0 0-.03-.09 2.47 2.47 0 0 0-1.1-1.03H9.6v.03c.2.1.38.22.53.36l.08.06c.05.02.08.05.1.07l.3.42a.12.12 0 0 1-.1-.05.48.48 0 0 0-.3-.26c-.09-.03-.1 0-.03.06.13.13.26.37.37.7v.02h-.02c0 .01 0 .01 0 0a3.3 3.3 0 0 0-.28-.4c-.08-.1-.11-.09-.09.04.02.11.07.25.14.4.03.06.04.12.04.17 0 .07-.02.07-.06.02l-.17-.29c-.13-.21-.28-.4-.47-.57a.9.9 0 0 0-.27-.22 2.76 2.76 0 0 0-1.02-.3 2.5 2.5 0 0 0-.97.15c-.07.02-.08 0-.04-.06a.19.19 0 0 1 .09-.08 2.35 2.35 0 0 1 2.7.5c.01 0 .01 0 0 0A2.52 2.52 0 0 0 8.6 7.2a2.02 2.02 0 0 0-.67.04 5.26 5.26 0 0 0-.64.19v-.02a.2.2 0 0 0 .08-.1 2.53 2.53 0 0 1 2.12-.16h.02v-.03c-.26-.1-.52-.15-.79-.18l-.14-.2a2.52 2.52 0 0 1 .97.11 4.4 4.4 0 0 0-.44-.13l-.04-.2c.53 0 1 .17 1.4.5Z" fill="#1C48B1"/><path d="M9.11 6.73c.15.03.3.07.43.12l.01.01h-.01a2.52 2.52 0 0 0-2.19.33l-.02-.03a2.5 2.5 0 0 1 1.78-.43Z" fill="#76B475"/><path d="m8.58 6.76.14.2c-.2 0-.41.02-.61.04-.17 0-.41.1-.74.28h-.1c.04-.03.07-.06.08-.1.37-.24.78-.38 1.23-.42Z" fill="#0D6B8C"/><path d="M7.37 7.32v-.04c.33-.18.57-.27.74-.28l.61-.05c.27.03.53.09.78.18.01 0 .02.01.01.02 0 .01 0 .02-.02.01a2.53 2.53 0 0 0-2.12.16Z" fill="#76B475"/><path d="M9.65 7.97a2.7 2.7 0 0 0-.67-.36c-.3-.1-.64-.14-1.02-.1a1.7 1.7 0 0 0-.79.3.31.31 0 0 0-.2.09c-.02.01-.03.02-.05 0a.1.1 0 0 1-.02-.01.27.27 0 0 1 0-.1h.04L7 7.73a.76.76 0 0 1 .26-.16c.04-.02.05-.04 0-.06l-.02-.02c-.02-.01-.03-.03 0-.05a.07.07 0 0 1 .04-.03v.02h.02c.28-.1.49-.16.63-.2a2.52 2.52 0 0 1 2.21.72c0 .01 0 .01 0 0a2.35 2.35 0 0 0-2.7-.5.19.19 0 0 0-.1.08c-.03.06-.02.08.05.06a2.41 2.41 0 0 1 1.99.16c.1.05.2.12.27.2Z" fill="#76B475"/><path d="m10.77 8.31-.14-.18-.3-.42a.33.33 0 0 0-.1-.07.41.41 0 0 1-.09-.06 2.13 2.13 0 0 0-.52-.36V7.2h.01a2.47 2.47 0 0 1 1.1 1.02c.03.03.04.06.04.1Z" fill="#467DBF"/><path d="M7.26 7.28h.1l.01.04a.2.2 0 0 1-.09.1.07.07 0 0 0-.05.03c-.02.02-.01.04.01.05l.03.02c.04.02.04.04 0 .06-.1.03-.2.09-.27.16a.16.16 0 0 1-.06.04l-.05.02c-.02-.07.03-.15.15-.25.03-.02.03-.05-.01-.06-.02 0-.01-.03.02-.07a.23.23 0 0 1 .05-.04l.16-.1Z" fill="#8BE65D"/><path d="M8.98 7.61c-.01.13.04.24.14.34-.4-.2-.82-.28-1.24-.24a.7.7 0 0 1-.13 0c-.2.08-.4.11-.58.1a2.12 2.12 0 0 1 1.8-.2Z" fill="#1C48B1"/><path d="M8.98 7.61c.24.09.47.2.67.36.19.17.34.36.47.57a.63.63 0 0 0-.1.28 2.42 2.42 0 0 0-.9-.87.43.43 0 0 1-.14-.34Z" fill="#2E38B9"/><path d="M9.12 7.95A2.42 2.42 0 0 1 10.13 9c.04.08.02.1-.05.04-.04-.02-.07-.08-.09-.16a2.05 2.05 0 0 0-.98-.92c-.37-.2-.8-.26-1.26-.2v-.04a.7.7 0 0 0 .13 0c.42-.05.84.02 1.24.23Z" fill="#3098B5"/><path d="M7.75 7.72v.04c-.15.02-.29.07-.42.14a1.6 1.6 0 0 0-.53.25c-.03.02-.04.04-.04.07 0 .02 0 .03.03.02l.33-.17h.01l.02.02v.03l-.36.2a.05.05 0 0 0-.03.04v.02c0 .02 0 .02.02.02l.57-.21h.03c.02 0 .03.03.01.06l-.61.23c-.03.01-.04.03-.03.05v.02c.01.03.03.04.06.03.15-.07.3-.12.48-.13v.01l.01.02c0 .02 0 .03-.03.03-.1 0-.21.04-.35.1l-.2.08a.56.56 0 0 0-.3.19c-.02.03-.01.04.03.02l.26-.12A.73.73 0 0 1 7 8.7c.09 0 .19-.02.3-.04.08-.01.15 0 .2.05l-.5.07c-.2.03-.4.1-.6.24v.03c.02.03.04.03.07.02a.88.88 0 0 1 .5-.1l-.3.11a.91.91 0 0 0-.55.3l.01.01h.03c.19-.13.37-.19.54-.16a3 3 0 0 0-.47.2.04.04 0 0 0-.02.04c0 .03.01.04.04.03l.24-.08c.02 0 .04 0 .04.02v.04c.01.02 0 .03-.02.03a1 1 0 0 0-.29.1.06.06 0 0 0-.03.04v.02c0 .02.02.03.04.03h.19a1 1 0 0 1-.31.12.07.07 0 0 0-.06.04c-.02.06-.03.1-.01.1.04 0 .1 0 .17-.04l.14-.03c.02 0 .03 0 .03.03v.02c0 .01 0 .02-.02.02-.2.02-.4.09-.56.2a.06.06 0 0 0-.03.03c0 .03 0 .05.04.04l.16-.04c.09-.02.1 0 .02.05a.57.57 0 0 1-.18.07.1.1 0 0 0-.08.08v.02c0 .03 0 .04.03.03.23-.06.46-.07.68-.02v.03c0 .02-.01.03-.03.02a.97.97 0 0 0-.67.07.1.1 0 0 0-.05.05c-.01.03 0 .04.03.04l.15.01c.1.01.1.03 0 .06l-.23.09c-.08.03-.08.06 0 .08h.22v.02c.01.02 0 .03-.01.03l-.26.08-.32.1a.23.23 0 0 1-.07-.06.05.05 0 0 1 0-.06l.08-.18.38-.71a3.04 3.04 0 0 0 .26-.54l.65-1.26a.93.93 0 0 1 .17-.22.72.72 0 0 0 .17-.2c0 .02.01.02.02.02.02.02.03.01.05 0a.31.31 0 0 1 .2-.1c.19.02.38-.01.58-.08Z" fill="#8BE65D"/><path d="M9.01 7.96a.49.49 0 0 0-.25.17 4.07 4.07 0 0 0-.7-.2c-.15-.01-.36 0-.61.06-.03 0-.05 0-.06-.02l-.06-.07c.13-.07.27-.12.42-.14.46-.06.89 0 1.26.2Z" fill="#1C48B1"/><path d="m7.33 7.9.06.07c.01.02.03.03.06.02a2 2 0 0 1 .61-.05c.15.01.38.08.7.19l.43.24.02.02v.03H9.2l-.32-.19a1.9 1.9 0 0 0-1.44-.19c-.03 0-.04.03-.04.06 0 .04.03.07.06.1.02.01.03.03.02.05l-.01.02c-.03 0-.05 0-.08-.02.02-.03.01-.05-.01-.06h-.03l-.57.2h-.02v-.03c0-.02 0-.04.03-.05l.36-.19V8.1l-.02-.01-.34.16c-.02 0-.03 0-.03-.02 0-.03.01-.05.04-.07.17-.12.34-.2.53-.25Z" fill="#38D07A"/><path d="m8.88 8.23-.39.1a2.17 2.17 0 0 0-.97-.12l-.01.02v.02h.02c.33-.04.65 0 .96.13l.08-.01c.23.1.45.25.66.43.17.11.28.28.34.5a.2.2 0 0 1-.07 0c-.02 0-.03 0-.04-.03a.66.66 0 0 0-.28-.4 3.4 3.4 0 0 0-.74-.4c-.03-.01-.04 0-.05.02v.06l.06.1a2.6 2.6 0 0 0-.9-.23.06.06 0 0 1-.06-.04.2.2 0 0 1-.02-.1v-.03c.02-.02.01-.04 0-.05a.12.12 0 0 1-.07-.1c0-.03.01-.05.04-.06.5-.12.98-.06 1.44.2Z" fill="#1C48B1"/><path d="M9.01 7.96c.42.19.75.5.98.92h-.07a.04.04 0 0 0-.02.05l.04.55c0 .02-.01.03-.03.02h-.02l-.02-.03c-.1-.3-.29-.55-.55-.77a.04.04 0 0 0-.05 0c-.02 0-.04.04-.04.1a3.2 3.2 0 0 0-.74-.47l.39-.1.32.19v-.05l-.44-.24a.48.48 0 0 1 .25-.17Z" fill="#2E38B9"/><path d="M8.5 8.33a.1.1 0 0 1 .07.04c-.03.01-.06.02-.08.01-.3-.13-.63-.17-.96-.12l-.02-.01v-.02l.01-.02c.34-.04.66 0 .97.12Z" fill="#3098B5"/><path d="M7.4 8.25c.02.02.04.03.07.02 0 .05 0 .08.02.11l.06.04c.32.02.62.1.9.22.2.1.37.22.5.38l-.24-.15a.87.87 0 0 0-.22-.16 2.31 2.31 0 0 0-.88-.24c-.03 0-.05.01-.06.03a.06.06 0 0 0 0 .07l.1.13-.14.02a.26.26 0 0 0-.21-.05l-.3.04c-.11 0-.2.03-.29.07l-.26.12c-.04.02-.05.01-.02-.02.07-.1.17-.16.29-.19l.2-.08a1 1 0 0 1 .35-.1c.02 0 .03-.01.03-.03v-.02l-.01-.01c-.17.01-.33.06-.48.13-.03 0-.05 0-.05-.03l-.01-.02c0-.02 0-.04.03-.05l.61-.23Z" fill="#2FB2A0"/><path d="m8.95 9.02.5.58a.72.72 0 0 1-.23.24l-.34-.2c-.07-.03-.1-.02-.07.06a2.54 2.54 0 0 0 .1.28c-.02.03-.03.03-.05 0a1.8 1.8 0 0 1-.24-.37 1.6 1.6 0 0 0-.83-.6.08.08 0 0 1-.05-.05l-.06-.16c-.01-.03 0-.05.03-.04a1.93 1.93 0 0 1 1.1.58V9.3a2 2 0 0 0-1.17-.6l-.09-.13a.06.06 0 0 1 0-.07.06.06 0 0 1 .06-.03c.3.02.6.1.88.24.05.02.13.07.22.16l.24.15Z" fill="#1C48B1"/><path d="m9.57 9.3.16.35c.01.02.01.03-.01.04l-.02.01h-.03l-.23-.33c-.02-.03-.03-.03-.04 0-.02.05 0 .13.05.23l-.5-.58c-.13-.16-.3-.29-.5-.38l-.05-.09a.08.08 0 0 1-.01-.06c0-.02.02-.03.05-.02.23.08.47.22.74.4a.7.7 0 0 1 .28.4c0 .02.02.03.04.04a.2.2 0 0 0 .07-.01Z" fill="#2E38B9"/><path d="M8.62 9.61c-.19-.2-.4-.36-.66-.48h-.03a.05.05 0 0 0-.05.03l.01.04.5.58v.03c-.02.03-.05.03-.07 0a.53.53 0 0 0-.17-.14c-.09-.04-.1-.03-.04.05l.15.18c.02.02.02.04 0 .06l-.02.02c-.03 0-.03.02-.01.04l.14.15c.02.02.02.04.02.06-.07.32-.19.61-.36.87a.4.4 0 0 1-.25.03l-.13-.32a.15.15 0 0 1-.01-.08c.03-.19.02-.37-.03-.55a.28.28 0 0 1 .02-.15.1.1 0 0 0-.01-.08l-.15-.25c-.02-.03-.01-.05.03-.05l.06.01c.02.01.03.01.04-.01v-.03c0-.02 0-.03-.02-.03l-.44-.2a.06.06 0 0 1-.04-.04c0-.03 0-.06.02-.1.13.02.26.03.36.02.07 0 .08-.02 0-.04a1.6 1.6 0 0 0-.75-.05c-.05 0-.07-.02-.05-.09l.29-.12c.1-.06.11-.12.03-.18l.5-.07.14-.02a2 2 0 0 1 1.17.6v.03H8.8a2 2 0 0 0-1.09-.57c-.03 0-.04 0-.03.04l.06.16c0 .03.03.05.05.05.37.13.64.33.83.6Z" fill="#3098B5"/><path d="M7 8.79c.08.06.07.12-.03.18a.88.88 0 0 0-.5.1c-.03.02-.05.02-.07 0v-.04c.2-.13.4-.21.6-.24Zm-.32.31c-.02.06 0 .09.05.08.27-.04.52-.03.76.05.07.02.06.03 0 .04-.11.01-.23 0-.37-.02H6.7c-.17-.04-.35.02-.54.15h-.03v-.02a.91.91 0 0 1 .55-.29Z" fill="#38D07A"/><path d="M8.62 9.61c.07.14.15.26.24.38.02.02.03.02.04 0v-.01l.01-.02a2.54 2.54 0 0 1-.1-.26c-.02-.08 0-.1.07-.06l.34.2.01.5c-.31-.15-.6-.34-.83-.56l-.5-.58a.04.04 0 0 1-.02-.04.05.05 0 0 1 .05-.03h.03c.25.12.47.28.66.48Z" fill="#2E38B9"/><path d="M7.12 9.25a.17.17 0 0 0-.02.1c0 .02.02.04.04.05l.44.19c.02 0 .02.01.02.03v.03c-.01.02-.02.02-.04.01a.09.09 0 0 0-.06-.01c-.04 0-.05.02-.03.05l.15.25a.1.1 0 0 1 0 .08.28.28 0 0 0-.01.15c.05.18.06.36.03.55v.08l.14.32-.18.05c-.03 0-.04.03-.03.06v.02c0 .03-.03.04-.06.04a1.87 1.87 0 0 0-.37.01l-.02-.01h-.03c-.04.04-.07.05-.1.02L6.7 11a.11.11 0 0 1-.03-.1l.12-.6c.01-.04 0-.07-.04-.08l-.3-.07a.06.06 0 0 1-.04-.03v-.06a.07.07 0 0 1 .05-.04l.22-.04c.02 0 .03 0 .03-.03 0-.02 0-.03-.03-.03-.13 0-.22-.07-.26-.2h-.2l-.03-.03v-.02c0-.02.02-.03.03-.04a.76.76 0 0 1 .3-.1c.01 0 .02-.01.02-.03l-.01-.04c0-.02-.02-.02-.04-.02l-.24.08c-.03 0-.04 0-.04-.03l.02-.03a3 3 0 0 1 .47-.2h.42Z" fill="#2FB2A0"/><path d="M8.4 9.78c.24.22.52.4.83.55.07.06.15.1.24.13l-.42.35c-.1.1-.22.18-.32.22a6.8 6.8 0 0 1-.35.17.06.06 0 0 0-.04.05.96.96 0 0 1-.15.42c-.08-.01-.13-.04-.12-.07a.35.35 0 0 0 .04-.23.92.92 0 0 0-.08-.27c.17-.26.3-.55.36-.87 0-.02 0-.04-.02-.06l-.14-.15c-.02-.02-.02-.03 0-.04.02 0 .02-.01.03-.02.02-.02.02-.04 0-.06l-.15-.18c-.06-.08-.05-.1.04-.05.06.03.12.08.17.14.02.03.05.03.08 0v-.03Z" fill="#467DBF"/><path d="M7 11.32a.11.11 0 0 0-.05.1c0 .05.02.08.06.1.08.04.15.1.21.15.04.03.05.06.02.1 0 .01 0 .02-.02.01l-.02.01.01.03c.04.02.07.05.08.08 0 .03-.01.04-.04.04-.1-.02-.18-.07-.2-.16-.02-.03-.02-.03-.03 0l-.03.04a.08.08 0 0 1-.07.01.35.35 0 0 1-.14-.08c-.03-.03-.04-.02-.04.02v.04c.05.07.12.13.23.17v.01l.01.04c0 .01 0 .02-.02.02a.24.24 0 0 1-.1-.06h-.03v.02c-.02.02-.02.03 0 .04.05.07.12.11.2.12.01 0 .02 0 .02.02v.01l-.01.01a.69.69 0 0 1-.36-.13 1.47 1.47 0 0 0-.16-.09c-.04-.01-.04 0-.02.03.06.1.15.17.26.2l.01.02v.02c0 .02 0 .03-.02.03a.27.27 0 0 1-.1-.04c-.04-.02-.05-.01-.05.03 0 .05.02.07.05.1.03 0 .03.02 0 .03-.04.01-.08 0-.1-.03a.49.49 0 0 0-.2-.14l-.03.01a.2.2 0 0 0 0 .12c.02.03 0 .04-.02.03l-.18-.1c-.03 0-.03-.02 0-.03.03-.01.04-.03.04-.05l-.01-.06a1.45 1.45 0 0 0-.3-.33H5.8l-.01.02v.02l.24.29v.02l-.01.01H6a1.1 1.1 0 0 1-.33-.37c-.04-.06-.03-.11.03-.15.02-.02.02-.03.02-.06a.34.34 0 0 0-.05-.11v-.02h.03c.2.31.46.57.77.76.03.01.04 0 .05-.02v-.02c0-.02 0-.03-.02-.04-.28-.17-.51-.4-.7-.7a.17.17 0 0 0-.13-.08l-.25-.03c-.02 0-.04-.01-.04-.04 0-.04.02-.07.06-.08l.16-.03c.1-.02.1-.05.01-.1-.02 0-.03-.04-.03-.1l.26-.07c.02 0 .02-.01.02-.03v-.02h-.01a.53.53 0 0 1-.2 0c-.09-.02-.09-.05-.01-.08l.23-.09c.1-.03.1-.05 0-.06a.94.94 0 0 0-.15 0c-.03 0-.04-.02-.03-.05a.1.1 0 0 1 .05-.05c.23-.1.45-.13.67-.07.02 0 .03 0 .04-.02v-.02a1.38 1.38 0 0 0-.69.01c-.03.01-.04 0-.03-.03v-.02a.1.1 0 0 1 .08-.08.57.57 0 0 0 .18-.07c.08-.05.07-.07-.02-.05-.05 0-.1.02-.16.04-.03 0-.05 0-.04-.04l.03-.04c.17-.1.36-.17.56-.19.01 0 .02 0 .02-.02v-.02c0-.02 0-.03-.03-.03a.44.44 0 0 0-.14.03.34.34 0 0 1-.17.03c-.02 0-.01-.03.01-.09a.07.07 0 0 1 .06-.04c.1-.02.2-.06.3-.12.05.13.14.2.27.2.03 0 .04.01.03.03a10.35 10.35 0 0 1-.25.06.07.07 0 0 0-.05.05v.06c0 .02.02.03.04.03l.3.07c.04.01.05.04.04.08l-.12.6c0 .04 0 .07.03.1l.3.33Z" fill="#38D07A"/><path d="M10.4 10.68v.02l-.01.03c-.13.1-.25.23-.36.36-.24.28-.6.51-1.1.7-.05-.06-.06-.1-.04-.13l.01-.01.16-.08a.15.15 0 0 0 .06-.06l.04-.06v-.02l-.03-.01-.3.1c-.03 0-.05-.01-.06-.04v-.06c-.02-.04-.03-.04-.04 0l-.06.14c-.02.04-.05.06-.09.05a.12.12 0 0 0-.13.03c-.02.02-.01.04.01.05v.02l-.02.01a.46.46 0 0 1-.25-.05.96.96 0 0 0 .15-.42c0-.03.02-.04.04-.05l.35-.16c.1-.05.21-.13.32-.23l.42-.35c.3.1.62.18.94.22Z" fill="#745AC2"/><path d="M5.58 11c0 .06 0 .1.03.1.09.05.08.08-.01.1l-.16.03c-.04.01-.06.04-.06.08 0 .03.02.04.04.04l.25.03c.06.01.1.04.13.09.2.29.42.52.7.69.02 0 .02.02.02.04v.02c0 .03-.02.03-.05.02a2.52 2.52 0 0 1-.78-.77l-.02.01v.02l.05.11c0 .03 0 .04-.02.06-.06.04-.07.1-.03.16.1.15.21.28.33.36h.02l.01-.01v-.02l-.24-.3.01-.02c.02-.02.03-.02.04 0 .12.09.22.2.3.32.02.02.03.04.02.06 0 .02-.01.04-.03.05-.04 0-.04.02 0 .04l.17.08c.03.02.04.01.02-.02a.2.2 0 0 1 0-.12c0-.01.01-.02.03-.01.07.03.14.08.2.14.02.03.06.04.1.03.03-.01.03-.02 0-.04a.1.1 0 0 1-.05-.09c0-.04.01-.05.06-.03l.1.04c.01 0 .02-.01.02-.03v-.02l-.02-.01a.5.5 0 0 1-.26-.21c-.02-.03-.01-.04.02-.03.04.02.1.05.16.1.15.08.27.13.36.12v-.04a.32.32 0 0 1-.22-.12V12l.01-.01h.02l.1.05c.02 0 .03 0 .03-.02v-.04l-.01-.01a.41.41 0 0 1-.22-.17.07.07 0 0 1-.01-.04c0-.04.01-.05.04-.02.04.04.09.06.14.08l.07-.01a.07.07 0 0 0 .03-.04c0-.03.01-.03.02 0 .03.09.1.14.21.16.03 0 .04 0 .04-.04-.01-.03-.04-.06-.08-.08-.02 0-.02-.01 0-.03h.01c.01 0 .02 0 .02-.02.03-.04.02-.07-.02-.1-.06-.06-.13-.1-.2-.15a.12.12 0 0 1-.07-.1c0-.04 0-.07.04-.1.03.03.07.02.1-.02h.03l.02.01h.37c.03 0 .05-.02.06-.05v-.02c-.01-.03 0-.06.03-.06l.18-.05a.4.4 0 0 0 .25-.03c.04.08.06.17.08.27.01.09 0 .16-.04.23-.04.02-.06.04-.06.08s-.02.05-.06.04a.45.45 0 0 1-.12-.07c-.02 0-.03 0-.03.02l-.05.1a.06.06 0 0 1-.05.03h-.08c-.03 0-.05.02-.06.05l-.1.4c0 .02 0 .04-.02.05a.44.44 0 0 0-.08.16l-.02.03h-.02c-.04 0-.04-.03-.02-.05a.14.14 0 0 0 .04-.1c0-.04-.02-.05-.05-.04-.06.03-.08.07-.09.15 0 .03-.01.05-.04.06a.07.07 0 0 1-.08 0c-.02-.02-.02-.04-.02-.08v-.02h-.02c-.02 0-.04.01-.04.03a.4.4 0 0 1-.13.26c-.02.02-.04.02-.06-.01 0-.03 0-.05.02-.05.03 0 .04-.02.04-.05 0-.02 0-.03-.02-.03-.02-.01-.04 0-.06.01-.06.07-.12.08-.2.06-.02-.01-.04 0-.05.02l-.07.25c-.02.06-.05.08-.1.06-.05 0-.06-.03 0-.05l.03-.04-.01-.04h-.02c-.02-.04-.01-.06.03-.06h.01c.04-.01.05-.03.02-.05a.23.23 0 0 0-.14-.04c-.1-.07-.18-.07-.26 0-.02.02-.04.02-.07 0l-.16-.1c-.07-.04-.1-.02-.07.05l.05.21c.02.07 0 .08-.06.05a.39.39 0 0 0-.21-.06c-.02 0-.04 0-.05-.02l-.17-.14a1 1 0 0 0-.32-.22.64.64 0 0 0-.42 0l-.09-.02c-.02 0-.03 0-.02-.03l.01-.03a.78.78 0 0 1 .35-.16.79.79 0 0 0 .22-.07c.05-.02.05-.03-.01-.03-.16.02-.3.06-.45.1h-.02v-.03l.01-.03.41-.23c.01 0 .02-.02 0-.03h-.03l-.27.11h-.02l-.01-.02v-.01l.2-.13.45-.36a.06.06 0 0 0 .03-.06l-.03-.16a.06.06 0 0 0-.03-.05h-.02c0-.04.01-.07.03-.1l.32-.1Z" fill="#76B475"/><path d="M5.23 11.2h.02c.02.02.03.03.03.06l.03.16c0 .02 0 .04-.03.06l-.46.36a.19.19 0 0 1-.04-.05.05.05 0 0 1 0-.06c.04-.04.09-.1.14-.2.1-.15.2-.26.3-.33Z" fill="#8BE65D"/><path d="M8.93 11.78a.46.46 0 0 0-.37.2.09.09 0 0 1-.06.03.26.26 0 0 0-.19.12.1.1 0 0 1-.06.05c-.14.04-.26.1-.35.16l-.25.15a.57.57 0 0 1-.12.03c-.1.02-.16.06-.2.12 0 .02-.01.03-.03.03l-.24.08a.18.18 0 0 0-.06.03 78.19 78.19 0 0 0-1.34.68.75.75 0 0 0-.31.27 3.31 3.31 0 0 0-.86-.2 3.42 3.42 0 0 0-.07-.04.98.98 0 0 1-.18-.12.4.4 0 0 1-.12-.2l-.02-.01h-.02v.02l-.04.22a.4.4 0 0 1-.02-.3l.33-.5c.07 0 .09.06.05.16v.04l.02.02c.03 0 .04 0 .05-.03l.02-.11c0-.06.02-.06.03 0l.02.07c.01.03.02.04.04.05.32.12.63.21.94.28.04 0 .05 0 .05-.04l.02-.01c.03 0 .04 0 .04.03-.01.07 0 .12.06.15.04.02.06.01.08-.03l.06-.2c0-.01.01-.02.03-.02l.03.01c.03.03.07.05.1.06.03 0 .05-.01.05-.04v-.09l.02-.02h.03l.06.04c.04.02.03.04 0 .06-.02 0-.03.01-.02.03 0 .02.02.03.04.02.05-.03.08-.06.08-.1l.04-.25c.05 0 .1.01.14.04.03.02.02.04-.02.04H6.4c-.04.01-.05.03-.03.06l.02.01v.04c0 .02-.01.03-.03.04-.05.02-.04.04 0 .05.06.02.1 0 .1-.06l.08-.25c.01-.03.03-.03.05-.02.08.02.14 0 .2-.06.02-.02.04-.02.06-.01.01 0 .02.01.02.03 0 .03 0 .05-.04.05-.02 0-.03.02-.02.05.02.03.03.03.06.01a.4.4 0 0 0 .13-.26c0-.02.02-.03.04-.03h.02v.02c0 .04 0 .06.02.07.02.02.05.03.08.01a.07.07 0 0 0 .04-.06c0-.08.03-.12.09-.15.03-.01.05 0 .05.04 0 .03-.01.07-.04.1-.02.02-.02.04.02.05h.02l.02-.03a.44.44 0 0 1 .08-.16.14.14 0 0 0 .03-.05l.1-.4c0-.03.02-.05.05-.05h.08c.02 0 .04 0 .05-.03a.35.35 0 0 0 .05-.1c0-.02.01-.03.03-.02l.12.07c.04.01.06 0 .06-.04s.02-.06.06-.08c0 .03.04.06.12.07.08.04.16.06.25.05h.02v-.03c-.02-.01-.03-.03-.01-.05.03-.04.07-.05.13-.03.04 0 .07 0 .1-.05l.05-.15c.01-.03.02-.03.03 0l.01.07c.01.03.03.04.06.03l.3-.1c.01 0 .02 0 .03.02v.02l-.04.06a.15.15 0 0 1-.06.06l-.16.08-.01.01c-.02.03 0 .07.04.12Z" fill="#8A65A7"/><path d="m5.6 12.13.09.17c.01.05 0 .06-.03.02a1.7 1.7 0 0 1-.4-.57v-.04l.03-.02h.15a.1.1 0 0 1 .1.05c.13.27.34.5.6.7.05.02.04.04 0 .04h-.09c-.03.01-.05 0-.07-.02-.1-.13-.2-.25-.33-.36h-.03l-.01.01v.02Z" fill="#38D07A"/><path d="M6.29 12.68a3.2 3.2 0 0 0-.04.25c0 .04-.03.07-.08.1-.02.01-.04 0-.04-.02l.01-.03c.04-.02.05-.04 0-.06l-.05-.04h-.03a.03.03 0 0 0-.01.02l-.01.1c0 .02-.02.03-.04.03a.16.16 0 0 1-.1-.06.03.03 0 0 0-.04-.01.03.03 0 0 0-.03.02l-.06.2c-.02.04-.04.05-.08.03a.14.14 0 0 1-.06-.15c0-.03-.01-.04-.04-.03l-.02.01c0 .04-.01.05-.04.04a6.62 6.62 0 0 1-.95-.28.06.06 0 0 1-.03-.05l-.03-.07c-.01-.06-.02-.06-.03 0l-.02.11c0 .03-.02.04-.05.03l-.02-.02a.05.05 0 0 1 0-.04c.04-.1.02-.15-.05-.17l.2-.13a.64.64 0 0 1 .42 0 1 1 0 0 1 .32.21l.17.14.05.02c.07 0 .14.02.21.06.06.03.08.02.06-.05l-.05-.2c-.02-.08 0-.1.07-.06l.16.1c.03.02.05.02.07 0 .08-.07.16-.07.26 0Z" fill="#8B8B89"/><path d="M5.35 13.73v.1a.93.93 0 0 1-.78.14.74.74 0 0 1-.53-.57.78.78 0 0 0 .03-.22l.01-.02h.02l.02.02a.4.4 0 0 0 .12.2l.18.11a3.4 3.4 0 0 1 .12.06c.28.03.55.09.8.18Z" fill="#745AC2"/><defs><linearGradient id="a" x1="3.35" y1="3.12" x2="21.9" y2="24.43" gradientUnits="userSpaceOnUse"><stop stop-color="#1A1E21"/><stop offset="1" stop-color="#06060A"/></linearGradient></defs></svg>