<!-- by TradingView --><svg width="18" height="18" viewBox="0 0 18 18" xmlns="http://www.w3.org/2000/svg"><path fill="#F0F3FA" d="M0 0h18v18H0z"/><path fill-rule="evenodd" d="M5.22 5.7 6.16 4h1.9L9 5.7l-.9 1.6h1.8L9 5.7 9.95 4h1.89l.94 1.7-.9 1.6h1.67L14.5 9l-.95 1.7H11.9l.9 1.6-.95 1.7h-1.9L9 12.3l.9-1.6H8.1l.9 1.6-.95 1.7H6.16l-.94-1.7.9-1.6H4.44L3.5 9l.95-1.7H6.1l-.9-1.6ZM10 10.6h1.61l-.8-1.45-.81 1.46Zm.8-1.75L10 7.4h1.61l-.8 1.45ZM6.4 7.39l.8 1.46L8 7.39H6.4Zm.8 1.76-.8 1.46H8l-.8-1.46Z"/><path d="m9.2 5.7.85-1.52h1.69l.84 1.52-.84 1.51h-1.7L9.2 5.7Z" fill="#CA0000"/></svg>