<!-- by TradingView --><svg width="18" height="18" viewBox="0 0 18 18" xmlns="http://www.w3.org/2000/svg"><path fill="#F0F3FA" d="M0 0h18v18H0z"/><path d="m13.58 10.06-.01.01-.02.02-3.46 3.46c-.6.6-1.59.6-2.19 0l-.96-.96a.17.17 0 0 1 .08-.28c1.02-.32 1.85-.69 2.5-1.1 1.52-.99 2.88-1.37 4.06-1.15Zm-.73-2.85c1.28.4 1.13 1.35 1.15 1.72-1.4-.74-3.08-.47-5.05.8-1.47.96-2.7 1.35-3.7 1.18-.98-.17-1.2-1.38-1.25-1.7 1.09.55 2.55.24 4.38-.95 1.7-1.1 3.2-1.45 4.47-1.05ZM10.1 4.45l.9.9a.17.17 0 0 1-.1.3c-1.3.25-2.33.64-3.11 1.14-1.34.86-2.48 1.27-3.42 1.2L7.9 4.45c.6-.6 1.58-.6 2.19 0Z" fill="url(#a)"/><defs><linearGradient id="a" x1="9" y1="4" x2="8.9" y2="20.86" gradientUnits="userSpaceOnUse"><stop stop-color="#3068EF"/><stop offset="1" stop-color="#1322AC"/></linearGradient></defs></svg>