<!-- by TradingView --><svg width="18" height="18" viewBox="0 0 18 18" xmlns="http://www.w3.org/2000/svg"><path fill="#BA8318" d="M0 0h18v18H0z"/><path d="M9.52 5c.67-.01 1.13.46 1.28.7-.5.1-.8.6-.8.95v4.51c0 1.14-.65 1.77-1.52 1.84-.7.05-1.14-.47-1.28-.74.45-.23.8-.6.8-.9v-4.7C8 5.68 8.69 5 9.52 5Z" fill="#fff"/><path d="M6.43 6.56c.24 0 .49.13.58.2C6.38 6.63 5.7 7 5.66 7.9c-.04.9.56 1.26 1.06 1.3.4.02.68-.26.78-.4.1 2.23-1.5 2.67-2.18 2.71A2.4 2.4 0 0 1 3 8.9c.08-1.58.9-2.15 1.27-2.24-.33.46-.4.62-.48 1.2-.07.46.09.96.16 1.13-.04-.39-.07-.57 0-.88.3-1.34 1.1-1.7 1.47-1.7-.16.14-.5.59-.54 1.21-.04.62.27 1.12.44 1.28a2.2 2.2 0 0 1-.21-.99c.19-1.28 1.03-1.34 1.32-1.34ZM11.57 6.56c-.24 0-.49.13-.58.2.63-.13 1.32.25 1.35 1.14.04.9-.55 1.26-1.06 1.3a.89.89 0 0 1-.78-.4c-.1 2.23 1.5 2.67 2.18 2.71A2.4 2.4 0 0 0 15 8.9c-.08-1.58-.9-2.15-1.27-2.24.33.46.4.62.48 1.2.07.46-.09.96-.16 1.13.04-.39.07-.57 0-.88-.3-1.34-1.1-1.7-1.47-1.7.16.14.5.59.54 1.21.04.62-.27 1.12-.44 1.28.2-.45.23-.85.21-.99-.19-1.28-1.03-1.34-1.32-1.34Z" fill="#fff"/></svg>