<!-- by TradingView --><svg width="18" height="18" viewBox="0 0 18 18" xmlns="http://www.w3.org/2000/svg"><path fill="#F0F3FA" d="M0 0h18v18H0z"/><path d="M8.92 5C14.58 5 16 6.89 16 7.83h-3.87c1.3.27 3.87 1.11 3.87 2.35.04.95-1.28 2.82-6.92 2.82C3.42 13 2 11.11 2 10.16h3.87C4.57 9.9 2 9.06 2 7.82 1.96 6.87 3.28 5 8.92 5Zm-5.4 5.33c-.24 0-.47.15-.47.49 0 .8 2.33 1.57 3.5 1.85-1.58-.69-2-1.85-2.02-2.34h-1Zm2.18 0c-.37 0-.55.21-.55.58 0 .83 1.87 1.52 2.8 1.76a3.23 3.23 0 0 1-1.33-2.34H5.7Zm1.69 0c-.32 0-.58.34-.46.69.33.96 1.13 1.65 2.07 1.65s1.74-.69 2.07-1.65c.12-.35-.14-.69-.46-.69H7.4Zm4.1 0c-.04.51-.38 1.7-1.44 2.34 1.02-.16 3.15-1.01 3.15-1.85 0-.36-.31-.49-.71-.49h-1Zm2.12 0c-.02.5-.48 1.65-2.16 2.34 1.26-.19 3.85-1.12 3.85-1.93 0-.33-.19-.4-.45-.4H13.6ZM3.17 8c-.24 0-.47.13-.47.42 0 .69 2.33 1.34 3.5 1.58-1.58-.59-2-1.58-2.02-2h-1Zm2.18 0c-.37 0-.55.18-.55.5 0 .7 1.87 1.3 2.8 1.5a2.69 2.69 0 0 1-1.32-2h-.93ZM9 8c-.97 0-1.75.45-1.75 1s.78 1 1.75 1h.18c.88-.06 1.57-.48 1.57-1s-.7-.95-1.58-1H9Zm1.4 0c.98.55 1.3 1.56 1.32 2h.93c.36 0 .55-.18.55-.5 0-.7-1.87-1.3-2.8-1.5Zm1.4 0c1.42.59 1.8 1.58 1.82 2h.9c.22 0 .43-.13.43-.42 0-.69-2.1-1.34-3.15-1.58ZM6.2 5.33c-1.14.19-3.5 1.12-3.5 1.93 0 .33.17.4.41.4h1.13c.01-.48.43-1.64 1.96-2.33Zm1.4 0c-.9.16-2.8 1.01-2.8 1.85 0 .36.28.49.63.49h.9c.02-.51.33-1.7 1.27-2.34Zm1.4 0c-.94 0-1.74.69-2.07 1.65-.12.35.14.69.46.69h3.22c.32 0 .58-.34.46-.69-.33-.96-1.13-1.65-2.07-1.65Zm1.2 0a3.15 3.15 0 0 1 1.48 2.34h1.04c.42 0 .62-.21.62-.58 0-.83-2.1-1.52-3.14-1.76Zm1.36 0c1.73.69 2.2 1.85 2.23 2.34h1.1c.27 0 .52-.15.52-.49 0-.8-2.57-1.57-3.85-1.85Z"/></svg>