<!-- by TradingView --><svg width="18" height="18" viewBox="0 0 18 18" xmlns="http://www.w3.org/2000/svg"><path fill="#F0F3FA" d="M0 0h18v18H0z"/><path d="M9 3a6 6 0 1 1 0 12A6 6 0 0 1 9 3Zm0 .35a5.65 5.65 0 1 0 0 11.3 5.65 5.65 0 0 0 0-11.3ZM9.06 6a.83.83 0 0 1 .76 1.16c-.19.44-.64.85-.64 1.34 0 .48.45.9.64 1.34.04.1.06.21.06.33 0 .46-.37.83-.82.83a.83.83 0 0 1-.76-1.16c.19-.45.63-.86.63-1.34v-.32c0-.3-.24-.54-.45-.76-.22-.21-.46-.46-.76-.46h-.28c-.46 0-.84.42-1.26.62A.83.83 0 0 1 5 6.83a.83.83 0 0 1 1.18-.75c.42.2.8.63 1.26.63.46 0 .85-.42 1.26-.63.1-.05.23-.08.36-.08Zm2.72 0a.78.78 0 1 1 0 1.55.78.78 0 0 1 0-1.55Z" fill="url(#a)"/><path fill="url(#b)" d="M5 11h8v1H5z"/><defs><linearGradient id="a" x1="15" y1="9" x2="3" y2="9" gradientUnits="userSpaceOnUse"><stop stop-color="#69D0A0"/><stop offset="1" stop-color="#8DDB9F"/></linearGradient><linearGradient id="b" x1="13" y1="11.5" x2="5" y2="11.5" gradientUnits="userSpaceOnUse"><stop stop-color="#69D0A0"/><stop offset="1" stop-color="#8DDB9F"/></linearGradient></defs></svg>