<!-- by TradingView --><svg width="18" height="18" viewBox="0 0 18 18" xmlns="http://www.w3.org/2000/svg"><path fill="#F0F3FA" d="M0 0h18v18H0z"/><path d="M9.5 7a.5.5 0 1 0 0-1 .5.5 0 0 0 0 1Z"/><path fill-rule="evenodd" d="M8.42 4.56a4.49 4.49 0 0 0-2.83 7.36c.06.08.04.25-.03.32-.16.15-.33.07-.44-.08a5 5 0 1 1 3.54 1.82 2.63 2.63 0 0 1 .33-5.24 2.2 2.2 0 0 0 1.39-.47c.57-.45.84-1.07.81-1.85-.01-.31-.08-.6-.21-.88a1.8 1.8 0 0 0-1.55-1.02 4.65 4.65 0 0 0-1 .04ZM10 11.5a.5.5 0 1 1-1 0 .5.5 0 0 1 1 0Z"/></svg>