<!-- by TradingView --><svg width="18" height="18" viewBox="0 0 18 18" xmlns="http://www.w3.org/2000/svg"><path fill="#EF3E36" d="M0 0h18v18H0z"/><path fill-rule="evenodd" d="M15 9A6 6 0 1 1 3 9a6 6 0 0 1 12 0Zm-1 0A5 5 0 1 1 4 9a5 5 0 0 1 10 0ZM4.43 7h2.45v.57H6V11h-.6V7.57h-.97V7Zm2.7 4h-.6l1.76-4 1.68 4h-.58l-.4-1H7.55l-.43 1Zm1.16-2.75.46 1.15H7.8l.49-1.15ZM11.87 11c1.02 0 1.79-.96 1.64-2H12v.6h.93c-.2.47-.64.8-1.14.8-.7 0-1.26-.63-1.26-1.4 0-.77.56-1.4 1.26-1.4.55 0 .94.24 1.14.55l.4-.43A2.02 2.02 0 0 0 11.88 7C10.84 7 10 7.9 10 9s.84 2 1.87 2Z" fill="#fff"/></svg>