<!-- by TradingView --><svg width="18" height="18" fill="none" xmlns="http://www.w3.org/2000/svg"><path fill="url(#paint0_linear_1530)" d="M0 0h18v18H0z"/><path fill-rule="evenodd" clip-rule="evenodd" d="M3 7.731c.395 0 2.093-.068 2.8-1.731h1.498l.054.18c.18.619.483 1.658 1.648 1.658 1.195 0 1.493-1.093 1.66-1.705L10.695 6h1.58c.169.57 1.32 1.731 2.724 1.731v.578c-.622.034-2.4-.212-3-1.511v2.47h3V10h-3v1.3h.5v.7h-2v-.7h.5V10H7v1.3h.5v.7h-2v-.7H6V10H3v-.733h3v-2.47c-.258.575-1.379 1.548-3 1.512V7.73zm4-.71v2.246h4V7.163c-.309.56-.89 1.248-2 1.248-1.206 0-1.729-.813-2-1.39z" fill="#fff"/><defs><linearGradient id="paint0_linear_1530" x1="1.823" y1="2.854" x2="12.91" y2="16.839" gradientUnits="userSpaceOnUse"><stop stop-color="#4DD4CF"/><stop offset=".871" stop-color="#0C5FF8"/></linearGradient></defs></svg>