<!-- by TradingView --><svg width="18" height="18" viewBox="0 0 18 18" xmlns="http://www.w3.org/2000/svg"><path fill="url(#a)" d="M0 0h18v18H0z"/><path fill-rule="evenodd" d="M8.06 4.16a1.02 1.02 0 0 1 1.9 0l1.23 2.96c.13.3.1.63-.04.88-.04.08.03.2.1.21.27.02.52.15.7.4l1.84 2.62c.55.78-.05 1.87-.97 1.76l-3.1-.35c-.21-.03-.4-.2-.54-.4a.23.23 0 0 0-.36 0c-.14.2-.33.37-.54.4l-3.1.35c-.92.1-1.52-.98-.97-1.76l1.84-2.62a.93.93 0 0 1 .7-.4c.08 0 .16-.15.12-.22a1.03 1.03 0 0 1-.04-.87l1.23-2.96Zm.7.36c.11-.25.4-.25.5 0l1.13 2.7c.11.26.02.5-.2.5H7.84c-.23 0-.3-.24-.18-.5l1.1-2.7Zm.05 6.16c.09.17.31.17.4 0l.94-1.72c.09-.17-.02-.37-.2-.37H8.07c-.17 0-.29.2-.2.37l.94 1.72Zm-3.7 1.42c-.26.03-.39-.22-.23-.45l1.65-2.39c.15-.22.48-.26.6-.06l1.12 2.07c.1.2-.09.48-.35.5l-2.78.33Zm8.09-.45c.15.23.02.48-.25.45l-2.77-.32c-.27-.03-.46-.32-.36-.51l1.13-2.07c.1-.2.44-.16.6.06l1.65 2.4Z" fill="#EB1698"/><defs><linearGradient id="a" x1="3.35" y1="3.12" x2="21.9" y2="24.43" gradientUnits="userSpaceOnUse"><stop stop-color="#1A1E21"/><stop offset="1" stop-color="#06060A"/></linearGradient></defs></svg>