<!-- by TradingView --><svg width="18" height="18" viewBox="0 0 18 18" xmlns="http://www.w3.org/2000/svg"><path fill="url(#a)" d="M0 0h18v18H0z"/><path d="M11.14 4c.14 0 .28.06.42.2l1.36 1.25c.04.04.07.1.07.19a346.23 346.23 0 0 1 .01 6.68c0 .1-.04.2-.1.26l-1.48 1.35a.24.24 0 0 1-.16.07h-4.4a.62.62 0 0 1-.42-.2l-1.36-1.25c-.04-.04-.07-.1-.07-.19V9.01L5 5.67c0-.1.04-.18.1-.25l1.48-1.35c.05-.05.1-.07.17-.07h4.39ZM7.13 5c-.09 0-.13.05-.13.13a2801.87 2801.87 0 0 0 0 6.06c0 .12.05.2.15.24A3991.33 3991.33 0 0 0 10.87 13c.09 0 .13-.05.13-.13a3298.38 3298.38 0 0 0 0-6.06c0-.12-.05-.2-.15-.24L7.15 5h-.02Z" fill="#F5F6FC"/><defs><linearGradient id="a" x1="9" y1="0" x2="9" y2="18" gradientUnits="userSpaceOnUse"><stop stop-color="#0118FD"/><stop offset="1" stop-color="#191AAF"/></linearGradient></defs></svg>