<!-- by TradingView --><svg width="18" height="18" viewBox="0 0 18 18" xmlns="http://www.w3.org/2000/svg"><path fill="#F0F3FA" d="M0 0h18v18H0z"/><path d="M15 9A6 6 0 1 1 3 9a6 6 0 0 1 12 0Z" fill="#62850B"/><path fill-rule="evenodd" d="M9 14.81A5.81 5.81 0 1 0 9 3.2 5.81 5.81 0 0 0 9 14.8ZM9 15A6 6 0 1 0 9 3a6 6 0 0 0 0 12Z" fill="#1B2801"/><path fill-rule="evenodd" d="M9 13.99a4.99 4.99 0 1 0 0-9.97 4.99 4.99 0 0 0 0 9.97Zm0 .37A5.36 5.36 0 1 0 9 3.64a5.36 5.36 0 0 0 0 10.72Z" fill="#1B2801" fill-opacity=".8"/><path d="M10.4 10.22a10.5 10.5 0 0 1 1.88-.23c.28-.01.55.04.82.16.06.03.07.06 0 .1-.63.41-1.3.69-2.02.83-.35.08-.37.2-.05.36.33.17.62.37.87.6.06.06.05.09-.03.1a3.9 3.9 0 0 1-2.53-.64c-.06-.04-.1-.02-.12.05-.08.37-.28 1.2-.64 1.38h-.04l-.01-.03v-.02a2.83 2.83 0 0 0 .5-1.37.08.08 0 0 0-.11-.04c-.87.44-1.66.8-2.67.68a.08.08 0 0 1-.06-.05.07.07 0 0 1 .02-.08c.24-.21.5-.4.8-.53.4-.19.37-.32-.05-.4a5.43 5.43 0 0 1-2.1-.89.06.06 0 0 1 .03-.08 5.84 5.84 0 0 1 2.74.11c.12.02.13 0 .04-.08a7.1 7.1 0 0 1-1.95-2.67c-.16-.39-.06-.48.3-.26.88.52 1.65 1.19 2.3 2.01.08.1.1.1.07-.04-.09-.35-.15-.73-.1-1.1.16-.99.25-1.9.6-2.87a.25.25 0 0 1 .12-.14.08.08 0 0 1 .12.04c.24.56.42 1.14.54 1.75.15.71.07 1.48.1 2.22 0 .1.03.1.09.03a8.4 8.4 0 0 1 2.5-2.04c.17-.1.22-.05.15.13a8.33 8.33 0 0 1-1.45 2.37c-.21.25-.43.44-.66.56a.07.07 0 0 0-.03.05v.02l.03.01Z" fill="#1B2801"/></svg>