<!-- by TradingView --><svg width="18" height="18" viewBox="0 0 18 18" xmlns="http://www.w3.org/2000/svg"><path fill="url(#ahjp0mw2k)" d="M0 0h18v18H0z"/><path d="M3 5v1.17l1.23 1.11 2.68.67v.52l1.07 2.46v.8l1 1.03v.02h.03v-.02l1-1.03v-.8l1.08-2.46v-.52l2.68-.67L15 6.17V5l-.33.8-.9.5-2.68.44-2.08-.43H9l-2.08.43-2.68-.43-.9-.5L3 5Z" fill="url(#bhjp0mw2k)"/><path d="m5.84 11.37.65-2.69 1.02 2.28-.23.93 1.4 1.34V14l-2.84-2.63Z" fill="url(#chjp0mw2k)"/><path d="m12.16 11.37-.65-2.69-1.02 2.28.23.93-1.4 1.34V14l2.84-2.63Z" fill="url(#dhjp0mw2k)"/><defs><linearGradient id="ahjp0mw2k" x1="3.35" y1="3.12" x2="21.9" y2="24.43" gradientUnits="userSpaceOnUse"><stop stop-color="#1A1E21"/><stop offset="1" stop-color="#06060A"/></linearGradient><linearGradient id="bhjp0mw2k" x1="3.6" y1="6.4" x2="14.75" y2="6.14" gradientUnits="userSpaceOnUse"><stop stop-color="#380D78"/><stop offset=".43" stop-color="#56758A"/><stop offset=".75" stop-color="#7BF29E"/><stop offset=".93" stop-color="#8FD5B8"/><stop offset="1" stop-color="#A7ACC2"/></linearGradient><linearGradient id="chjp0mw2k" x1="5.84" y1="10.5" x2="8.64" y2="12.84" gradientUnits="userSpaceOnUse"><stop stop-color="#24153E"/><stop offset="1" stop-color="#77E397"/></linearGradient><linearGradient id="dhjp0mw2k" x1="10.74" y1="8.68" x2="10.74" y2="14" gradientUnits="userSpaceOnUse"><stop stop-color="#A69BD7"/><stop offset=".3" stop-color="#84E7AE"/><stop offset=".48" stop-color="#70D78F"/><stop offset="1" stop-color="#3D5F5E"/></linearGradient></defs></svg>