<!-- by TradingView --><svg width="18" height="18" viewBox="0 0 18 18" xmlns="http://www.w3.org/2000/svg"><path fill="#F25A31" d="M0 0h18v18H0z"/><path d="M9 6.6c.55 0 1.1.09 1.68.24.08.03.17.02.28 0 1.38-.37 2.32-.98 2.8-1.83l.02-.01a.02.02 0 0 1 .01 0c.25.48.28.96.08 1.45-.18.44-.53.83-1.03 1.17a4.99 4.99 0 0 1-1.48.69.1.1 0 0 0-.02.04l-.96 4.39-.01.02-.02.01c-.5.15-.95.23-1.35.23a4.58 4.58 0 0 1-1.38-.26l-.96-4.39a.1.1 0 0 0-.07-.07 4.98 4.98 0 0 1-1.43-.66c-.5-.34-.85-.73-1.03-1.17A1.62 1.62 0 0 1 4.21 5h.01a.02.02 0 0 1 .02 0c.48.86 1.42 1.47 2.8 1.84.1.02.2.03.28 0A6.35 6.35 0 0 1 9 6.61Z" fill="#fff"/></svg>