<!-- by TradingView --><svg width="18" height="18" viewBox="0 0 18 18" xmlns="http://www.w3.org/2000/svg"><path fill="#F0F3FA" d="M0 0h18v18H0z"/><circle cx="9" cy="9" fill="#2CABE2" r="6"/><path fill-rule="evenodd" d="m10.2 5.1.69-.24a.75.75 0 0 0 .2-.77c-.02-.07-.07-.1-.14-.08l-.72.2a.16.16 0 0 0-.09.04c-.14.16-.27.33-.37.5-.12.2-.17.2-.14-.06.08-.54-.11-.94-.58-1.2-.03-.02-.06-.01-.1.01a.84.84 0 0 1-.2.13c-.4.18-.4.82-.37 1.18.02.16-.01.16-.08.03-.1-.17-.21-.33-.35-.5a.55.55 0 0 0-.25-.16l-.6-.17c-.12-.03-.18.01-.2.13-.01.2.02.4.1.59.04.06.02.07-.04.04a1.6 1.6 0 0 0-1.2-.2.11.11 0 0 0-.09.15c.05.13.08.26.1.39 0 .14.1.21.16.28.05.04.1.08.1.13v.03a.05.05 0 0 1-.03.03.05.05 0 0 1-.04 0A1.34 1.34 0 0 0 5 5.55a.11.11 0 0 0-.06.16l.23.42c.02.03.04.05.07.06.02 0 .03.02.04.03 0 .04 0 .06-.04.06a1.7 1.7 0 0 0-1.02.47.06.06 0 0 0 0 .05l.03.02.48.27c.07.04.06.06-.02.07l-.12.02a.15.15 0 0 0-.09.04.74.74 0 0 1-.2.14.21.21 0 0 0-.08.06l-.37.47a.08.08 0 0 0 .03.13c.24.1.47.15.71.13.12-.01.13.02.03.08L4 8.59a.15.15 0 0 0-.09.13c0 .1-.05.17-.1.24a.62.62 0 0 0-.08.18c-.05.19-.03.37.06.54a.1.1 0 0 0 .1.05c.16-.05.32-.08.48-.1.08-.01.09 0 .03.06-.33.28-.43.7-.44 1.14 0 .25.09.45.22.65.04.07.09.07.14 0a.39.39 0 0 1 .12-.12c.06-.04.1-.02.1.05 0 .66.01 1.4.6 1.81.03.02.05.02.06-.02.06-.27.2-.5.4-.68.18-.15.3-.35.36-.6a.1.1 0 0 0-.03-.1l-.03-.03c-.03-.03-.02-.05.02-.07l.27-.1.02-.01a.04.04 0 0 1 .03.03v.02l-.16.87.1-.02c.1-.05.12-.12.1-.2a.2.2 0 0 1-.01-.09l.03-.31a.1.1 0 0 1 .06-.08l.04-.02c.05-.02.06-.05.02-.1a.2.2 0 0 1-.05-.08c-.01-.03 0-.05.03-.07.06-.02.1 0 .15.04.05.06.1.14.16.26.02.03.02.06.02.1-.02.1.02.17.1.22.06.03.08.02.04-.04l-.07-.13c-.02-.04-.01-.07.04-.08l.1-.01c.02 0 .02 0 .02-.02l.01-.04c0-.03 0-.04-.03-.03l-.13.02c-.04 0-.07 0-.07-.05a.66.66 0 0 1 0-.26c.02-.04.04-.05.08-.04l.22.08c.36.07.72.1 1.07.07.43-.05.85-.14 1.24-.27l1.6.07a.06.06 0 0 1 .04.03.06.06 0 0 1 0 .05c-.18.3-.29.58-.31.87.1-.05.18-.1.25-.17.05-.04.04-.06-.02-.04a.34.34 0 0 0-.07.02c-.07.03-.09 0-.05-.06a.13.13 0 0 1 .04-.04.12.12 0 0 0 .05-.09 1 1 0 0 1 .2-.45c.02-.03.04-.03.07-.02.1.03.15.1.15.22 0 .05.02.06.05.02l.11-.16.04-.02h.08c.03.01.05.03.03.07l-.04.12a.06.06 0 0 0 .03.08c.1.04.12.11.08.2-.02.05 0 .08.04.1.06 0 .1.05.13.1.02.06.04.06.05 0 .01-.04 0-.07-.03-.1a.12.12 0 0 1-.04-.09l-.02-.37c0-.05.02-.08.08-.06l.07.01c.06.01.09.05.09.11 0 .27.1.5.31.72h.04c.03 0 .06.01.08.04.16.21.26.43.3.65.01.05.04.06.08.03.56-.37.64-1.13.61-1.77 0-.12.04-.14.13-.07a.4.4 0 0 1 .1.13c.04.05.07.05.1.01.17-.18.25-.4.26-.67a1.4 1.4 0 0 0-.41-1.1c-.1-.1-.08-.13.05-.12.14.02.29.06.43.11.04.02.06 0 .08-.03.17-.35.12-.65-.14-.89-.04-.03-.03-.06.01-.08l.02-.03c0-.03 0-.06-.04-.08a9.14 9.14 0 0 0-.56-.33c-.2-.1-.19-.16.04-.15a1.22 1.22 0 0 0 .63-.16.07.07 0 0 0 0-.09l-.3-.38a1.11 1.11 0 0 0-.56-.36c-.06-.02-.06-.04 0-.08l.45-.25a.07.07 0 0 0 .04-.05.07.07 0 0 0-.02-.06 1.84 1.84 0 0 0-1-.45.05.05 0 0 1-.02-.05l.01-.02c.14-.17.25-.35.31-.55V5.6a.05.05 0 0 0-.02-.02c-.32-.16-.58-.11-.92-.05l-.04.01c-.11.02-.13 0-.06-.09l.05-.05c.07-.07.13-.13.15-.25a1.73 1.73 0 0 1 .12-.5.08.08 0 0 0-.06-.07 1.56 1.56 0 0 0-1.37.27l-.52.8c-.02.04-.05.04-.08.03l-.08-.03c-.04-.02-.05 0-.03.04.03.04.07.07.12.08a.06.06 0 0 1 .05.03v.06c-.1.2-.23.3-.4.28-.1-.03-.07.03.08.16-.02.06 0 .08.05.08l.43-.57.01-.04v-.04l-.02-.02c-.03-.03-.03-.06 0-.1l.51-.7.3-.21a.03.03 0 0 1 .03 0 .03.03 0 0 1 .02.02l.01.03a.07.07 0 0 1-.01.06 1 1 0 0 0-.14.2c-.03.04-.02.05.03.02a.3.3 0 0 0 .12-.18c0-.03.02-.06.05-.08a.76.76 0 0 1 .74-.13c.06.01.07.05.05.1l-.01.03c-.05.11-.1.24-.22.3a4.11 4.11 0 0 0-.34.22c.01.02.02.02.04.01l.32-.14c.04-.02.07 0 .1.03v.03c.01 0 .01 0 0 0a.84.84 0 0 1-.22.18.12.12 0 0 0-.07.07c-.03.1-.1.15-.19.18l-.43.17c-.03 0-.05.03-.05.07.01.17-.09.25-.3.23-.04 0-.05.01-.07.04v.03l.03.02.19.06c.04.01.07 0 .1-.03a.46.46 0 0 1 .21-.2.13.13 0 0 0 .07-.07.25.25 0 0 1 .17-.16c.07-.02.09 0 .06.06L11.6 6c-.02.05 0 .05.03.02a.8.8 0 0 0 .2-.26c.02-.06.04-.09.07-.1.05 0 .1.02.14.09.11-.1.24-.16.37-.18.18-.03.35-.01.5.04a.08.08 0 0 1 .05.1.95.95 0 0 1-.22.39.1.1 0 0 1-.1.03.72.72 0 0 1-.15-.03.15.15 0 0 0-.18.05l.2.1c.05.04.04.06-.01.08a.55.55 0 0 1-.42-.06c-.1-.06-.12-.04-.05.06a.3.3 0 0 0 .14.1c.05.02.05.04.01.07l-.22.13.04.04a.6.6 0 0 0 .3-.11.64.64 0 0 1 .17-.09c.26-.08.33-.07.2.02.4-.1.72-.03.97.23.02.03.02.05 0 .07-.23.18-.51.25-.85.2l.23.2c.02.02.02.04 0 .05l-.04.03h-.02L12.57 7c-.05-.03-.06-.02-.04.03.06.2.28.25.5.3l.04.01c.41.01.73.19.96.54.02.03.01.05-.02.07-.29.14-.62.1-1-.13l.07.16c.01.06 0 .07-.05.03l-.15-.17c-.04-.05-.06-.04-.07.02 0 .03 0 .06.02.09.03.04.01.07-.04.07h-.12c-.3 0-.65 0-.82-.17-.03 0-.06 0-.1.02l-.03.04c.08.19.06.3-.06.37-.03 0-.05 0-.06-.03 0-.03-.02-.04-.05-.04a.37.37 0 0 1-.12.07c-.03.03-.04.06-.02.09a.2.2 0 0 1 .03.09c0 .02 0 .05-.02.08-.06.08-.1.06-.14-.06-.1.03-.15.01-.16-.06-.04-.13-.1-.2-.21-.23a.2.2 0 0 1-.11-.07 1.72 1.72 0 0 0-.65-.45.07.07 0 0 1-.05-.08c0-.05.04-.1.1-.15-.01-.05.02-.08.1-.1-.01-.13-.08-.2-.2-.2-.04 0-.06.02-.05.07.03.03.04.06.02.1-.02.05-.06.06-.1.02l-.02.14c0 .06-.04.09-.1.08-.07 0-.12-.03-.15-.1a.09.09 0 0 1 0-.08l.05-.08a.07.07 0 0 0 0-.07.06.06 0 0 0-.03-.02c-.03-.01-.05 0-.06.02-.01.04-.03.06-.06.07-.04.15-.12.21-.23.17-.09-.03-.12-.1-.09-.2-.01-.04-.05-.05-.11-.04a.57.57 0 0 1-.3.12c-.03 0-.06-.01-.07-.05-.02-.07.01-.12.08-.16-.02-.07-.08-.1-.15-.09l-.01.16-.02.15c0 .05-.02.08-.04.1a.1.1 0 0 1-.07.02c-.03 0-.05-.02-.06-.06-.01-.06-.06-.1-.15-.12a.3.3 0 0 0-.2-.08l.12.2c.03.04.02.07-.02.1-.09.06-.16.06-.23 0a.11.11 0 0 1-.03-.06L8 7.34l-.05.02c-.03-.01-.04-.03-.03-.07a.26.26 0 0 1 .09-.1c-.05-.06-.12-.07-.2 0l-.23.13a.1.1 0 0 1-.09 0 .4.4 0 0 0-.2-.05.49.49 0 0 1-.3.26c-.19.07-.22.13-.1.19.1-.05.24-.03.38.06.02.02.05.03.09.02a.19.19 0 0 0 .15-.13c.01-.04.04-.05.07-.02.05.04.1.05.16.03.07-.02.07-.08.02-.18a.31.31 0 0 1-.12.02c-.04 0-.05-.02-.04-.06.03-.07.08-.1.16-.08.03.01.05.04.04.1.06.04.09.09.09.13 0 .04-.02.06-.05.08a2.8 2.8 0 0 0-.71.5c-.05.04-.08.04-.12.01-.03-.04-.07-.05-.12-.02 0 .03 0 .05-.03.06a.1.1 0 0 1-.13 0c-.05-.06-.05-.13 0-.22.02-.05.02-.1.01-.12-.01-.04-.04-.05-.08-.04-.06.02-.09.08-.07.18.02.08.02.14 0 .2-.02.04-.04.05-.08.04-.06-.02-.1-.07-.12-.13a.05.05 0 0 0-.05 0l-.01.04c-.02.05-.04.05-.06 0a.38.38 0 0 1 0-.2.55.55 0 0 0-.16-.23.2.2 0 0 1 0 .15.1.1 0 0 1-.09.06l-.82.07c-.05 0-.07-.02-.04-.07a.2.2 0 0 0 .02-.07c.01-.08 0-.09-.06-.03L5 8.02a.07.07 0 0 1-.04.02l-.03-.01V8l.1-.44c-.09.23-.22.37-.38.42a.95.95 0 0 1-.6-.02c-.07-.02-.08-.06-.04-.13a1 1 0 0 1 .9-.45l.33-.11a.13.13 0 0 1 .1 0c.07.04.12.05.2.04.16 0 .3.02.44.08.06-.03.14-.03.24 0 .03.01.05 0 .05-.03l.03-.16c-.15.15-.3.17-.44.06a.05.05 0 0 1 0-.07c.09-.07.12-.11.11-.12l-.02-.03a.77.77 0 0 1-.56.18c-.06 0-.06-.02-.02-.05.05-.05.1-.1.14-.17V7l-.03-.03h-.04a.76.76 0 0 1-.4.26c-.07.01-.07 0-.03-.04l.4-.38a.15.15 0 0 1 .17-.02c.15.07.3.11.47.13.03 0 .04 0 .04-.03v-.05c-.23 0-.44-.05-.64-.15l-.31.26a.3.3 0 0 1-.3.06l-.37-.15c-.1-.04-.12-.1-.04-.18.2-.2.51-.27.92-.2.3.03.6.14.92.33.05.04.07.02.05-.04v-.04a.09.09 0 0 0-.09-.07.95.95 0 0 1-.4-.16c-.05-.03-.04-.05 0-.07a.77.77 0 0 0 .23-.15c.04-.04.03-.05-.02-.03l-.47.13a.05.05 0 0 1-.07-.06v-.04c0-.02.01-.03.03-.05a.08.08 0 0 1 .04-.02c.11-.02.2-.06.28-.15l-.51.05a.1.1 0 0 1-.1-.05l-.2-.35a.07.07 0 0 1 .04-.1.98.98 0 0 1 .92.12c.08-.04.2.03.36.22.05.07.07.06.03-.02l-.02-.05c-.02-.06 0-.07.05-.05.07.02.1.07.14.11.03.05.06.09.13.1a.14.14 0 0 1 .1.07c.07.13.17.18.3.13.16-.06.15-.09-.01-.1a.39.39 0 0 1-.28-.15c-.03-.04-.02-.07.01-.1l.02-.02c0-.04-.02-.06-.06-.06-.3-.03-.5-.14-.6-.34l-.23-.21c-.03-.04-.03-.06.02-.07H6a.8.8 0 0 0 .23.11.03.03 0 0 0 .03-.01v-.01l.01-.03-.01-.02c-.27-.11-.44-.27-.5-.48a.09.09 0 0 1 .06-.1c.28-.08.63-.1.74.23.02.06.04.06.06 0 .02-.05.01-.1-.03-.14a.02.02 0 0 1 0-.03h.03l.08.04a.1.1 0 0 1 .06.09c.02.2 0 .4-.07.57.37.29.68.62.94 1 .03.02.05 0 .06-.03a6.43 6.43 0 0 0-.51-.64 1.06 1.06 0 0 0-.2-.17.62.62 0 0 1-.19-.18.07.07 0 0 1 0-.07.8.8 0 0 0 .04-.4c0-.04.01-.05.05-.05h.04a.04.04 0 0 1 .03.04c.02.1.07.16.14.21.04.02.07.06.1.1l.23.36c.03.05.04.1.02.15v.04a.08.08 0 0 0 .02.08c.1.1.2.22.26.35.04.07.1.12.16.15.04.02.06.05.07.09.02.06 0 .11-.04.16-.01.04.04.08.14.12h.04c.04 0 .07-.03.07-.1L8 6.3c-.03-.05-.01-.07.04-.08h.11c.02 0 .02-.02.02-.03l-.01-.03c-.26-.02-.46-.1-.57-.34-.01-.04 0-.06.05-.07.07 0 .13-.03.2-.05v-.04c-.01-.01-.06 0-.16.01a.11.11 0 0 1-.12-.05l-.43-.69c-.03-.05-.02-.06.04-.04l.6.2c.04.02.05.04.05.08v.08h.02L8 4.66c0-.05.03-.05.06-.01.12.14.19.29.2.45 0 .04-.02.07-.05.1l-.02.02c-.05.03-.04.05.01.07.03 0 .05 0 .07-.02.1-.12.14-.1.14.04 0 .2.04.4.11.59l.04.02.03-.01c.01 0 .02-.01.01-.03a.37.37 0 0 1-.02-.22c.01-.05 0-.1-.02-.14-.1-.16-.1-.3.02-.4V5.1c-.1-.07-.12-.17-.05-.3a.12.12 0 0 0 0-.12l-.08-.12c-.05-.06-.03-.08.05-.06.22.05.38.2.49.42a.42.42 0 0 1 .12-.15c.13-.12.23-.2.31-.24.17-.1.2-.06.09.1a.3.3 0 0 0-.04.14c0 .04 0 .07.02.1.05.1.04.17-.03.24-.02.02-.03.05 0 .07.06.1.07.2 0 .32a.2.2 0 0 0-.02.1l.01.05a.1.1 0 0 1 0 .1.6.6 0 0 0-.1.28c0 .04-.01.07-.04.1a.53.53 0 0 1-.18.1l.11.1c.03.03.03.06 0 .08-.01.02-.03.03-.07.02A.87.87 0 0 0 9 6.38l-.2.12c-.01.02.01.05.07.1.08-.08.17-.07.27.03l.14-.01c.16-.44.27-.9.34-1.37a.1.1 0 0 1 .06-.09.1.1 0 0 0 .02-.01.09.09 0 0 0 .03-.07c0-.16.09-.3.24-.41l.18-.25c.05-.07.06-.06.04.02a.32.32 0 0 0-.01.12c0 .05.02.06.05.01a.37.37 0 0 0 .08-.21c0-.04.02-.07.06-.09l.56-.18c.05-.02.08 0 .09.06a.84.84 0 0 1-.24.66.18.18 0 0 1-.11.05c-.2.02-.36.1-.46.24Zm-.47 3.67v-.04c-.03-.04-.03-.07.02-.09l.2-.09c.26-.12.53-.25.82-.27a.03.03 0 0 0 .02-.05c-1.2-1.08-2.86-.88-3.88.31-.05.05-.04.08.03.07.25-.03.5 0 .76.07l.2.07c.12.06.22.1.4.06.46-.11.9-.11 1.34 0 .04.01.07 0 .1-.04Z" fill="#040303"/><path d="M8.69 4.26a.18.18 0 0 0-.1-.11.14.14 0 0 1-.04-.22c.27-.34.74-.44.9.07a.1.1 0 0 1-.03.1l-.05.06c-.03.03-.02.06.02.09l.05-.01c.02-.03.05-.03.07 0 .02.02.02.05.01.07 0 .02-.01.03-.02.03l-.45.33c-.04.03-.07.03-.1 0l-.46-.34a.04.04 0 0 1 0-.05l.02-.04c.02-.01.03-.02.04 0l.08.06c.06.05.08.03.06-.04ZM10.2 5.1a.64.64 0 0 1-.09.23c-.04.06-.05.06-.04-.01a.9.9 0 0 1 .05-.19.14.14 0 0 0 0-.1l-.15-.36.18-.25c.05-.07.06-.06.04.02a.32.32 0 0 0-.01.12c0 .05.02.06.05.01a.37.37 0 0 0 .08-.21c0-.04.02-.07.06-.09l.56-.18c.05-.02.08 0 .09.06a.84.84 0 0 1-.24.66.18.18 0 0 1-.11.05c-.2.02-.36.1-.46.23Z" fill="#B65042"/><path d="m7.79 4.47.01-.04c0-.02.02-.03.05-.02.16.1.04.44-.04.56a.07.07 0 0 1-.04.03l-.06-.01a.83.83 0 0 0-.28-.11c-.33-.06-.45-.42-.43-.72a.06.06 0 0 1 .02-.04.06.06 0 0 1 .05-.02c.2.03.58.1.63.35.01.09.04.1.09.02Z" fill="#CC614F"/><path d="M9.13 6.22c-.03 0-.05 0-.06-.02-.03-.03-.03-.05 0-.08.04-.06.12-.12.15-.17.03-.04 0-.06-.05-.08a.13.13 0 0 0-.16.1.71.71 0 0 0-.01.41l-.2.12a.77.77 0 0 1-.47.43c-.08.03-.1 0-.07-.08.04-.1.13-.16.28-.18.04-.01.07-.03.09-.06.02-.05.02-.08-.02-.12.1-.04.16-.1.19-.17a.15.15 0 0 0-.04-.16.68.68 0 0 0-.13-.1c-.06-.04-.09-.02-.08.04l.06.4a.13.13 0 0 1-.19-.09l-.13-.4a.1.1 0 0 0-.08-.07c-.04 0-.06.01-.04.05.02.04.04.08.07.1 0 .06-.07.14-.12.13-.26-.02-.42-.15-.53-.4-.01-.04 0-.06.05-.07.07 0 .13-.03.2-.05v-.04c-.01-.01-.06 0-.16.01a.11.11 0 0 1-.12-.05l-.43-.69c-.03-.05-.02-.06.04-.04l.6.2c.04.02.05.04.05.08v.08h.02L8 4.66c0-.05.03-.05.06-.01.12.14.19.29.2.45 0 .04-.02.07-.05.1l-.02.02c-.05.03-.04.05.01.07.03 0 .05 0 .07-.02.1-.12.14-.1.14.04 0 .2.04.4.11.59l.04.02.03-.01c.01 0 .02-.01.01-.03a.37.37 0 0 1-.02-.22c.01-.05 0-.1-.02-.14-.1-.16-.1-.3.02-.4V5.1c-.1-.07-.12-.17-.05-.3a.12.12 0 0 0 0-.12l-.08-.12c-.05-.06-.03-.08.05-.06.22.05.38.2.49.42v.03c0 .02-.02.03-.04.02-.02-.01-.04 0-.06.02-.03.03-.03.06 0 .09h.04c.06 0 .07.02.06.07l-.05.13a.19.19 0 0 0-.01.1c.01.07 0 .14-.05.2-.02.03-.02.05.01.08l.16.16c.04.05.07.04.07-.03a.2.2 0 0 1 .08-.16.05.05 0 0 0 0-.08c-.1-.06-.14-.15-.12-.26.01-.02.02-.02.04-.02h.03c.03-.02.03-.04 0-.07-.06-.05-.09-.12-.07-.2.07-.03.1-.08.12-.13.01-.03 0-.05-.04-.06-.03 0-.05-.02-.05-.04.13-.12.23-.2.31-.24.17-.1.2-.06.09.1a.3.3 0 0 0-.04.14c0 .04 0 .07.02.1.05.1.04.17-.03.24-.02.02-.03.05 0 .07.06.1.07.2 0 .32a.2.2 0 0 0-.02.1l.01.05a.1.1 0 0 1 0 .1.6.6 0 0 0-.1.28c0 .04-.01.07-.04.1a.53.53 0 0 1-.18.1Z" fill="#CAC5B8"/><path d="M6.7 5.4a.66.66 0 0 0-.53.07l-.23-.21c-.03-.04-.03-.06.02-.07H6a.8.8 0 0 0 .23.11.03.03 0 0 0 .03-.01v-.01l.01-.03-.01-.02c-.27-.11-.44-.27-.5-.48a.09.09 0 0 1 .06-.1c.28-.08.63-.1.74.23.02.06.04.06.06 0 .02-.05.01-.1-.03-.14a.02.02 0 0 1 0-.03h.03l.08.04a.1.1 0 0 1 .06.09c.02.2 0 .4-.07.57ZM11.66 5.66a.52.52 0 0 0-.35-.3.06.06 0 0 0 .02-.03c0-.04 0-.05-.04-.04l-.04.02c-.12-.09-.19-.22-.2-.4l.3-.2a.03.03 0 0 1 .05 0v.02l.01.03a.07.07 0 0 1-.01.06 1 1 0 0 0-.14.2c-.03.04-.02.05.03.02a.3.3 0 0 0 .12-.18c0-.03.02-.06.05-.08a.76.76 0 0 1 .74-.13c.06.01.07.05.05.1-.05.12-.1.27-.23.33a4.12 4.12 0 0 0-.34.22c.01.01.02.02.04.01l.32-.14c.04-.02.07 0 .1.03v.03c.01 0 .01 0 0 0a.84.84 0 0 1-.22.18.12.12 0 0 0-.07.07c-.03.1-.1.15-.19.18Z" fill="#CC614F"/><path d="m9.97 4.67.15.36v.1a.92.92 0 0 0-.05.19c-.01.07 0 .07.04.01a.64.64 0 0 0 .1-.24l.68-.23h.04l-.52.8c-.02.04-.05.04-.08.03l-.08-.03c-.04-.02-.05 0-.03.04.03.04.07.07.12.08a.06.06 0 0 1 .06.06l-.01.03c-.1.2-.2.54-.36.53l-.12.17c-.06.06-.45-.06-.47-.05-.11.06-.1.1.02.13.12.03.22.1.28.22.03.05.01.06-.03.04-.22-.07-.36-.17-.43-.3.16-.43.27-.89.34-1.36a.1.1 0 0 1 .06-.09.1.1 0 0 0 .05-.08c0-.16.09-.3.24-.41Z" fill="#CAC5B8"/><path d="M9.1 4.76c.01.02.03.04.06.04-.06.07-.1.14-.08.19-.02.08 0 .15.08.2.02.03.02.05 0 .06h-.04c-.02 0-.03.01-.04.03-.02.11.02.2.12.26a.05.05 0 0 1 0 .08.2.2 0 0 0-.08.16c0 .07-.03.08-.07.03l-.16-.16c-.03-.03-.03-.05 0-.09a.24.24 0 0 0 .04-.19v-.1L9 5.14c.01-.05 0-.07-.06-.06l-.04-.01c-.03-.03-.03-.06 0-.1.02-.01.04-.02.06-.01.02 0 .04 0 .04-.02V4.9a.42.42 0 0 1 .12-.15Z" fill="#8B8B8B"/><path d="M7.91 6.6c-.05.03-.09.02-.11-.03a6.43 6.43 0 0 0-.61-.82 1.06 1.06 0 0 0-.2-.18.62.62 0 0 1-.19-.18.07.07 0 0 1 0-.07.8.8 0 0 0 .04-.4c0-.04.01-.05.05-.05h.04a.04.04 0 0 1 .03.04c.02.1.07.16.14.21.04.02.07.06.1.1l.23.36c.03.05.04.1.02.15v.04a.08.08 0 0 0 .02.08c.1.1.2.22.26.35.04.07.1.12.16.15.04.02.06.05.07.09.01.06 0 .11-.05.16ZM11.05 4.92c.01.17.08.3.2.39-.07.12-.15.23-.25.34v.03h.04c.08-.11.17-.22.27-.32.18.06.3.16.35.3l-.43.17c-.03 0-.05.03-.05.07.01.17-.09.25-.3.23-.04 0-.05.01-.07.04v.03l.03.02.19.06c.04.01.07 0 .1-.03a.46.46 0 0 1 .21-.2.13.13 0 0 0 .07-.07.25.25 0 0 1 .17-.16c.07-.02.09 0 .06.06L11.6 6c-.02.05 0 .05.03.02a.8.8 0 0 0 .2-.26c.02-.06.04-.09.07-.1.05 0 .1.02.14.09.03.05.03.11 0 .18a.07.07 0 0 0 0 .09c.07.07.16.12.27.13l.2.1c.05.04.04.06-.01.08a.55.55 0 0 1-.42-.06c-.1-.06-.12-.04-.05.06a.3.3 0 0 0 .14.1c.05.02.05.04.01.07l-.22.13c-.16-.04-.27 0-.33.12a.13.13 0 0 1-.04.05.14.14 0 0 1-.07.02c-.03 0-.05 0-.08-.02a.17.17 0 0 1-.06-.05.17.17 0 0 0-.06-.05c-.07-.03-.08-.02-.05.05.03.04.04.08.04.13s-.02.06-.06.03l-.17-.12a.05.05 0 0 0-.05 0 .05.05 0 0 0-.03.03c0 .07-.04.12-.11.15-.05.03-.07.01-.08-.04a.12.12 0 0 0-.09-.1.09.09 0 0 1-.06-.1c0-.08.02-.15.07-.2a.14.14 0 0 1 .1-.05l.06-.02c.06-.03.05-.06 0-.08a.76.76 0 0 0-.42 0c-.01 0-.02-.03 0-.07.09-.07.14-.17.15-.28a.1.1 0 0 1 .05-.09.54.54 0 0 0 .2-.19c.05-.07.04-.08-.03-.03l-.26.2a.07.07 0 0 0-.03.06v.05c0 .04-.01.08-.05.1-.1.11-.2.24-.27.38-.07.13-.12.13-.15-.02l.05-.1.43-.57.01-.04v-.04l-.02-.02c-.03-.03-.03-.06 0-.1l.51-.7Z" fill="#CAC5B8"/><path d="M6.7 5.4c.37.3.68.63.94 1 .05.13.06.22.04.28a.05.05 0 0 1-.1 0l-.1-.27a.06.06 0 0 0-.03-.02l-.03-.01-.34-.02v.02c.25.12.34.24.28.37-.05.11-.06.34-.17.37-.12-.04-.1.23-.22.26-.01 0-.27.1-.47.27l-.33.1c-.16.16-.17-.37-.3-.48a.05.05 0 0 1 0-.07c.07-.07.11-.11.1-.12l-.02-.03a.77.77 0 0 1-.56.18c-.06 0-.06-.02-.02-.05.05-.05.1-.1.14-.17V7l-.03-.03h-.04a.76.76 0 0 1-.4.26c-.07.01-.07 0-.03-.04l.4-.38a.15.15 0 0 1 .17-.02c.15.07.3.11.47.13.03 0 .04 0 .04-.03v-.05c-.23 0-.44-.05-.64-.15l-.1-.21c.3.03.6.14.92.33.05.04.07.02.05-.04v-.04a.09.09 0 0 0-.09-.07.95.95 0 0 1-.4-.16c-.05-.03-.04-.05 0-.07a.77.77 0 0 0 .23-.15c.04-.04.03-.05-.02-.03l-.47.13a.05.05 0 0 1-.07-.06v-.04c0-.02.01-.03.03-.05a.08.08 0 0 1 .04-.02c.11-.02.2-.06.28-.15L5.9 6c.05-.03.1-.03.16-.03.03.01.05.03.04.06v.04c0 .03.02.04.04.04l.04-.02c.02-.02.02-.04 0-.07a.37.37 0 0 0-.1-.12L6 5.73c.08-.04.2.03.36.22.05.07.07.06.03-.02l-.02-.05c-.02-.06 0-.07.05-.05.15.05.13.19.27.21a.14.14 0 0 1 .1.07c.07.13.17.18.3.13.16-.06.15-.09-.01-.1a.39.39 0 0 1-.28-.15c-.03-.04-.02-.07.01-.1l.02-.02c0-.04-.02-.06-.06-.06-.3-.03-.5-.14-.6-.34.2-.1.37-.12.53-.06Z" fill="#CAC5B8"/><path d="m6 5.73.09.17c.46.47-.1.19-.19.1l-.05.06-.51.05a.1.1 0 0 1-.1-.05l-.2-.35a.07.07 0 0 1 .04-.1.98.98 0 0 1 .92.12ZM12.3 6.15a.41.41 0 0 1-.26-.13.07.07 0 0 1-.02-.09c.04-.07.04-.13 0-.18.12-.1.25-.16.38-.18.18-.03.35-.01.5.04a.08.08 0 0 1 .05.1.95.95 0 0 1-.22.39.11.11 0 0 1-.1.03.72.72 0 0 1-.15-.03.15.15 0 0 0-.18.05Z" fill="#CC614F"/><path d="M9.82 5.94a.08.08 0 0 0-.02-.04.08.08 0 0 1-.02-.09c.03-.08.24-.43.33-.47.05-.02.06-.01.03.03a.43.43 0 0 1-.09.1c-.06.04-.23.41-.18.48.02.02.01.02 0 .02-.03 0-.04 0-.05-.03Z" fill="#040303"/><path d="M10.45 6.3c-.15.16-.19.32-.1.5.02.04.03.04.04 0 .05-.12.07-.26.07-.42a.76.76 0 0 1 .41 0c.06.02.07.05 0 .08a.18.18 0 0 1-.06.02.14.14 0 0 0-.09.05.28.28 0 0 0-.07.2c0 .05.02.08.06.1.06.01.08.05.09.1 0 .05.03.07.08.04.07-.03.1-.08.11-.15a.05.05 0 0 1 .05-.04h.03l.17.13c.04.03.06.02.06-.03a.23.23 0 0 0-.04-.13c-.03-.07-.02-.08.05-.05l.06.05.06.05.08.02c.02 0 .05 0 .07-.02a.13.13 0 0 0 .04-.05c.06-.12.17-.16.33-.12l.04.04c-.05-.01-.1 0-.14.06-.01.04-.03.06-.04.06a.61.61 0 0 0-.45.32.34.34 0 0 0-.16.18.05.05 0 0 0 .02.06.05.05 0 0 0 .05 0 .41.41 0 0 0 .12-.1c.23.18.61.9.34 1.04-.13.06-.42.59-.45.2-.1.03-.15.01-.16-.06-.04-.13-.1-.2-.21-.23a.2.2 0 0 1-.11-.07c-.55-.64-2.1-1.13-3.72.1-.28.17-.56.08-.8.02a2.3 2.3 0 0 1-.17-.53c.25-.43.75-.7 1.25-.97.06-.13-.03-.25-.29-.37v-.02l.35.02h.03l.02.03.11.27a.05.05 0 0 0 .1 0c.02-.06 0-.15-.04-.28.03.03.05.02.06-.02l.1.19c.02.05.06.06.11.03 0 .03.19.17.19.12.07-.02-.13-.43-.1-.47-.03-.03.19-.22.17-.26-.02-.04 0-.06.04-.05a.1.1 0 0 1 .08.08l.13.4c.03.08.11.12.2.07.03.04.03.07.01.12a.11.11 0 0 1-.09.06c-.15.02-.24.08-.28.18-.04.08-.01.11.07.08a.77.77 0 0 0 .47-.43c-.01.02.01.05.07.1a.17.17 0 0 0-.02.06c0 .03.02.05.05.06l.18.01c.04 0 .06-.01.06-.05v-.05l.14-.01c.07.12.21.22.43.3.04.01.06 0 .03-.05a.4.4 0 0 0-.28-.22c-.13-.03-.13-.07-.02-.13a.61.61 0 0 0 .11-.1l.22.11c.03.02.05.01.07 0l.23-.22c-.02.06 0 .08.05.08a.68.68 0 0 0-.05.1c.03.15.08.15.15.02.07-.14.16-.27.27-.37a.14.14 0 0 0 .05-.11v-.05a.07.07 0 0 1 .03-.06l.26-.2c.07-.05.08-.04.03.03a.54.54 0 0 1-.2.2.1.1 0 0 0-.05.08.37.37 0 0 1-.16.28Z" fill="#9D4138"/><path d="m9.13 6.21.11.12c.03.02.03.05 0 .07-.01.02-.03.03-.07.02A.87.87 0 0 0 9 6.38.71.71 0 0 1 9 5.96a.13.13 0 0 1 .16-.09c.06.02.08.04.05.08-.03.05-.1.11-.16.17-.02.03-.02.05 0 .08.02.01.04.02.07.01Z" fill="#8B8B8B"/><path d="m8.61 6.5-.06-.4c0-.06.02-.08.08-.05l.13.1c.05.06.06.11.04.17-.03.08-.09.13-.19.17Z" fill="#040303"/><path d="m6.5 6.26.7.46c.01.01.02.03 0 .04l-.02.04h-.03l-.7-.5V6.3l.02-.02h.03Z" fill="#542F30"/><path d="M12.66 6.5c-.08.01-.11.07-.1.18l-.25.1a.22.22 0 0 1-.1.01h-.28a.08.08 0 0 1-.08-.06c.04-.05.09-.07.14-.06a.6.6 0 0 0 .3-.11.64.64 0 0 1 .17-.09c.26-.08.33-.07.2.02Z" fill="#CAC5B8"/><path d="m5.35 6.48.1.2-.31.27a.3.3 0 0 1-.3.06l-.37-.15c-.1-.04-.12-.1-.04-.18.2-.2.51-.27.92-.2Z" fill="#CC614F"/><path d="M12.78 6.98c-.06-.01-.13-.1-.2-.24 0-.04 0-.06-.02-.06-.01-.1.02-.17.1-.19.4-.1.72-.03.97.23.02.03.02.05 0 .07-.23.18-.51.25-.85.2Z" fill="#B65042"/><path d="M9.14 6.63v.05c0 .04-.02.05-.06.05l-.18-.01c-.03 0-.05-.03-.05-.06l.02-.06c.08-.08.16-.07.27.03Z" fill="#CAC5B8"/><path d="M12.56 6.68c.01 0 .02.02.02.06l-.44.24c-.03.02-.04.05-.02.09.04.06.12.1.2.11.09.01.18.04.27.08l.03.02v.04a.07.07 0 0 1-.08.03 1.1 1.1 0 0 0-.71.16c-.01.01-.02.02 0 .04h.03c.22-.1.44-.1.68-.02 0 .02 0 .04.02.07l-.6.09c-.09.01-.13.07-.11.17-.03 0-.06 0-.1.02 0-.11-.05-.19-.13-.23l-.23-.4c.03-.06.02-.11-.03-.14a.61.61 0 0 1 .45-.32c.01 0 .03-.02.04-.06l.02.03.06.02.29.01.1-.01.24-.1Z" fill="#8B8B8B"/><path d="M12.58 6.74c.07.15.14.23.2.24l.23.22c.02.01.02.03 0 .04l-.04.03h-.03L12.58 7c-.05-.03-.06-.02-.04.03.06.21.3.26.54.31-.1.24-.12.4-.06.48l.07.16c.01.06 0 .07-.05.03l-.15-.17c-.04-.05-.06-.04-.07.02 0 .03 0 .06.02.09.02.04.01.07-.04.07-.32 0-.75.01-.94-.17-.02-.1.02-.16.11-.17l.6-.1c.09 0 .17 0 .25.04v-.01l.02-.03c0-.02 0-.03-.02-.03l-.27-.03a.84.84 0 0 0-.68.03l-.04-.01V7.5c.22-.13.46-.19.72-.16.04 0 .06 0 .08-.03v-.04a.06.06 0 0 0-.03-.02.77.77 0 0 0-.28-.08.25.25 0 0 1-.19-.11c-.02-.04-.01-.07.02-.09l.44-.24Z" fill="#CAC5B8"/><path d="m11.63 7.16-.06.06h-.03c.14-.19.44-.26.56 0 .02.03 0 .05-.03.06-.13.03-.25 0-.35-.12a.07.07 0 0 0-.07-.01l-.02.01ZM5.98 7.4v.15a2.04 2.04 0 0 0-.73 0s-.02 0-.02.02v.03h.01c.25 0 .63-.04.84.09l.03.07a.2.2 0 0 1 0 .15.1.1 0 0 1-.09.06l-.82.07c-.05 0-.07-.02-.04-.07a.2.2 0 0 0 .02-.07c.01-.08 0-.09-.06-.03L5 8.02a.07.07 0 0 1-.04.02l-.03-.01V8l.1-.44c-.13-.05-.17-.11-.12-.18l.33-.11a.13.13 0 0 1 .1 0c.07.04.12.05.2.04.16 0 .3.02.44.08Z" fill="#CAC5B8"/><path d="M13.07 7.35c.41.01.73.19.96.54.02.03.01.05-.02.07-.29.14-.62.1-1-.13-.06-.09-.04-.24.06-.48Z" fill="#B65042"/><path d="M4.91 7.39c-.05.07-.01.13.12.18-.09.23-.22.37-.38.42a.95.95 0 0 1-.6-.02c-.07-.02-.08-.06-.04-.13a1 1 0 0 1 .9-.45Z" fill="#CC614F"/><path d="M5.98 7.55c.11.07.15.11.1.14-.21-.13-.6-.09-.84-.09v-.03l.01-.02c.24-.04.48-.04.73 0ZM9.4 8.05c-.07-.01-.11-.08-.12-.2a.07.07 0 0 0-.04-.06c-.2-.11-.36-.08-.45.1a.17.17 0 0 0-.02.1l.03.26a.59.59 0 0 1-.12.17c-.03.03-.02.05.02.06.2.03.39.03.55 0 .18-.05.37-.06.57-.04l.02.01v.03l-.02.02c-.54.09-1.09.09-1.65 0-.02 0-.03-.02-.02-.04v-.03c.22.04.38 0 .51-.12a.11.11 0 0 0 .03-.11.11.11 0 0 0-.1-.08 6.5 6.5 0 0 0-.52-.02v-.04l.01-.02.58-.06c.04 0 .06-.02.06-.05v-.04a.13.13 0 0 0-.06-.08l-.04-.03c-.06-.02-.06-.04 0-.05h.12c.03 0 .07 0 .1-.03A.5.5 0 0 1 9 7.63c.04 0 .07 0 .1.02.1.05.19.08.29.08.02 0 .04.01.04.04l-.01.03a.1.1 0 0 0-.04.1.1.1 0 0 0 .05.08l.4.18v.07c-.01.01-.03.02-.04 0l-.39-.18Z" fill="#040303"/><path d="M9.4 8.05c.02.05.02.1 0 .13-.06 0-.1.03-.14.1a.07.07 0 0 1-.07.04l-.36-.02c-.04.02-.05 0-.03-.05L8.77 8c0-.03 0-.06.02-.1.1-.18.24-.21.45-.1.03.01.04.03.04.06 0 .12.05.19.12.2ZM5.27 9.2c.03-.02.03 0 .01.04l-.54.64-.31.15a.74.74 0 0 1-.07.04c-.08 0-.1-.04-.02-.09l.32-.24a.13.13 0 0 0 .05-.1c0-.05.02-.1.04-.14a.16.16 0 0 1 .09-.08c.37-.16.3-.43.41-.74.02-.05.01-.05-.02 0-.14.17-.1.35-.25.52-.04.06-.07.05-.09-.02-.02-.1 0-.2.08-.28a.03.03 0 0 0 0-.03l-.02-.02h-.01c-.06.01-.08.05-.07.1.01.04 0 .06-.04.06H4.8a.05.05 0 0 1-.02-.03c-.06-.23-.22-.35-.49-.37-.08 0-.08-.02-.01-.06.25-.1.5-.1.76.01.08.04.09.02.03-.04a.67.67 0 0 0-.2-.14c-.07-.04-.06-.06.02-.08.11-.02.22 0 .31.04a.04.04 0 0 0 .05-.03c0-.02 0-.03-.02-.04-.03-.02-.03-.04 0-.06.11-.09.25-.1.42-.05-.07.1-.08.17-.02.23.03.04.06.04.1.03l.22-.11A.1.1 0 0 0 6 8.25c0-.03 0-.05-.04-.05-.06 0-.1-.03-.09-.07l.17-.04c.05-.01.07 0 .08.05.04.13.05.25.05.37 0 .1-.01.1-.05.01-.02-.05-.05-.09-.1-.1a.08.08 0 0 0-.08.03l-.29.28c-.12.12-.4.18-.38.46ZM12.04 8.12c-.09.28.5.34.67.34a.05.05 0 0 1 .05.03v.02c0 .03.01.04.04.05.05.03.07.02.04-.04a.16.16 0 0 1 0-.14c.02-.05 0-.07-.05-.07-.14.02-.26-.04-.37-.16.14-.03.26 0 .39.08.02.02.05.03.09.04l.27.04c.06.01.06.03 0 .07a.39.39 0 0 1-.16.04l-.02.02-.01.02v.08a.04.04 0 0 0 .04 0c.17-.03.47-.12.62-.05.24.11.23.14-.03.1-.04-.01-.1.03-.17.13a.15.15 0 0 1-.05.03.56.56 0 0 0-.2.11.06.06 0 0 1-.1-.02.3.3 0 0 0-.05-.11h-.02l-.02.02v.03a.4.4 0 0 1 .1.46h-.08l-.18-.41c-.03-.07-.04-.06-.05 0-.03.24.07.28.19.44.01.08.06.13.15.14.14.24.33.44.56.6.06.04.06.06-.01.08l-.05-.01a.5.5 0 0 0-.28-.13l-.2-.2-.3-.43a.93.93 0 0 1-.14-.25c-.1-.27-.34-.18-.44-.47a.06.06 0 0 0-.02-.03.06.06 0 0 0-.04 0h-.03c-.03 0-.04.02-.03.04.03.09.08.17.16.25a.5.5 0 0 0 .06.42c.02.04.05.04.08 0a.07.07 0 0 1 .04-.01c.04-.01.07 0 .1.04.08.16.13.34.15.52l-.15.26a.1.1 0 0 0 0 .08c.06.16.17.28.32.37.01-.01.04-.02.08 0 .01.28.14.51.37.69l.01.03-.01.03c-.01.03-.03.03-.05.02l-.2-.16c-.06-.05-.07-.04-.04.03a2 2 0 0 0 .27.41c.06.07.05.13-.03.16a.06.06 0 0 0-.02-.03l-.38-.5c-.03-.03-.04-.03-.04.02 0 .07.02.14.08.22-.05.02-.07.04-.06.06-.06-.01-.1.03-.14.1a.67.67 0 0 1-.27.27c-.04.03-.06.02-.04-.03a.43.43 0 0 1 .1-.16.16.16 0 0 0 .04-.1c.02-.14-.02-.25-.11-.33-.04-.04-.06-.03-.06.03l.02.13c0 .02-.01.03-.03.03a.05.05 0 0 1-.05-.04 4.8 4.8 0 0 0-.19-.47.57.57 0 0 1-.03-.35c0-.04 0-.07-.02-.1a.95.95 0 0 1-.13-.54c.02 0 .03-.02.03-.05a16.03 16.03 0 0 1-.14-.36c-.03-.1-.1-.2-.19-.3l-.2-.3c.24-.17.48-.58.43-.53a.1.1 0 0 1-.08-.01l.05-.27c0-.04.03-.06.07-.06a.2.2 0 0 1 .1.04Z" fill="#CAC5B8"/><path d="M9.4 8.18c.05.05.07.09.06.13 0 .03-.03.04-.06.03-.07-.02-.12 0-.15.05a.1.1 0 0 1-.09.04l-.33-.04c-.04 0-.05-.02-.02-.06l.02-.03.36.02c.03 0 .06-.02.07-.05.04-.06.08-.1.13-.1Z" fill="#040303"/><path d="M6.51 8.96a.02.02 0 0 1-.02-.02l-.15-.4a.55.55 0 0 1-.03-.13v-.04l.02-.02h.04l.03.03.03.05.03.06.15.41a.02.02 0 0 1-.01.02l-.09.04Z" fill="#CAC5B8"/><path d="m10.88 9.56.28.08c-.03.16-.18.25-.33.18-.22-.11-.74-.36-.66-.67.01-.04 0-.05-.05-.04-.08.02-.09.11-.02.26l.04.05c.22.24.49.42.8.55l-.14 1.38-.93-.1.04-.26c0-.04-.01-.07-.04-.08l-.1-.05c-.05-.02-.06-.06-.05-.11.15-.48.03-.88-.36-1.2-.24-.2-.51-.35-.61-.68l.86.03c.04 0 .08 0 .11-.03l.14-.12c.26-.23 1.07-.67 1.29-.13a.04.04 0 0 1-.02.05h-.02l-.3.02a.11.11 0 0 0-.1.04.86.86 0 0 0-.22.55c0 .04 0 .08.03.11.1.13.23.2.36.17Z" fill="#47774A"/><path d="M13.14 9.74c-.04.04-.09.03-.12-.03-.14-.2-.25-.38-.33-.53a.63.63 0 0 0-.38-.32.77.77 0 0 1-.16-.25c0-.02 0-.04.03-.04h.07l.02.03c.1.3.35.2.44.47.03.09.07.17.13.25l.3.42Z" fill="#542F30"/><path d="M8.75 8.87c.1.33.37.49.61.69.4.31.51.71.36 1.19-.01.05 0 .09.05.11l.1.05c.03.01.04.04.04.08l-.04.26a1.58 1.58 0 0 0-.52.01c-.7.25-1.65.45-2.35.2-.37-.13-.42-.72-.36-1.04.03-.13.1-.16.21-.09.17.11.37.1.6-.02a1.93 1.93 0 0 0 .88-1.01l-.02-.01c-.03-.01-.04 0-.05.01-.1.27-.3.49-.56.66h-.03v-.04c.5-.35-.43-1.23-.94-.61-.04.04-.06.03-.06-.02-.12-.93.87-.55 1.29-.4.23.08.53-.02.79-.02Z" fill="#5D9B5D"/><path d="M3.83 9.53c-.18-.45.2-.77.63-.81.08 0 .14.02.18.1.14.25.12.45-.06.6-.13.1-.43.13-.6.18-.07.02-.12 0-.15-.07ZM13.44 8.72c.5-.03.93.33.7.85-.01.04-.05.06-.1.04a2.23 2.23 0 0 0-.39-.1.44.44 0 0 1-.3-.2c-.13-.18-.11-.37.04-.56.02 0 .03-.01.05-.03Z" fill="#CC614F"/><path d="m13.02 9.24-.04.03c-.12-.16-.22-.2-.2-.44.02-.06.03-.07.06 0l.18.41Z" fill="#040303"/><path d="m11.16 9.64-.28-.08c.16-.25.16-.47 0-.67-.04-.04-.03-.06.03-.06l.14-.01c.06 0 .11.02.15.06.22.29.21.54-.04.76Z" fill="#fff"/><path d="M12.3 8.86c.18.07.29.14.39.32.08.15.2.33.33.53.03.06.08.07.12.03l.21.2v.11l.01.1a7.31 7.31 0 0 0 .18.4 3.57 3.57 0 0 0-.26-.4.09.09 0 0 0-.08 0 .1.1 0 0 0-.04.02.18.18 0 0 0-.03.15c-.06.03-.1.1-.14.21h-.08l-.04-.19c.09-.12.16-.23.22-.34.09-.16.05-.19-.1-.1-.04.03-.1.02-.2-.01l-.05-.06a1.53 1.53 0 0 0-.16-.52c-.02-.04-.05-.05-.09-.04a.07.07 0 0 0-.04.02c-.03.03-.06.03-.08 0a.5.5 0 0 1-.06-.43Z" fill="#8B8B8B"/><path d="M6.36 8.97a.44.44 0 0 1-.14.38.25.25 0 0 0-.06.09l-.18.47a.12.12 0 0 0 0 .1c.03.06.04.1.01.16a1.2 1.2 0 0 0-.11.57c0 .15-.03.17-.12.03a.78.78 0 0 1-.11-.34l-.02-.03a.05.05 0 0 0-.04-.02h-.03l-.02.01a.03.03 0 0 0-.01.02v.02l.15.48c0 .04 0 .06-.03.08a.21.21 0 0 0-.06.05c-.03.04-.02.06.03.05a.2.2 0 0 0 .1-.03c.03-.03.05-.02.04.03a.51.51 0 0 1-.13.3c-.03.03-.06.03-.08-.02a.89.89 0 0 0-.07-.1c-.03-.05-.05-.05-.05 0s0 .08.03.11c.02.04.03.08.02.12-.02.12 0 .22.08.33a.04.04 0 0 1-.02.06l-.02.01h-.04l-.36-.43c-.02.04-.04.05-.06.03-.03-.03-.03-.05-.01-.08l.06-.09c.04-.05.03-.06-.03-.03-.2.12-.24.28-.37.42-.02-.2.06-.37.24-.52l.01-.02v-.03h-.03a.73.73 0 0 0-.2.14H4.7l-.03-.02v-.03l.22-.29a.55.55 0 0 0 .05-.59l.08.01c.06.02.1.07.1.13 0 .02 0 .03.02.03h.04v-.01a.4.4 0 0 0-.18-.3.34.34 0 0 1-.18-.3l.64-.73c.01 0 .5-.64.52-.64.05 0 .18.04.23.16.05.11-.15.48-.22.52-.07.08-.25.16-.28.29l-.05.09c-.04.04-.08.05-.14.02a.03.03 0 0 1-.01-.03l-.02-.03c-.03-.01-.04 0-.04.03l.01.34c0 .05.02.06.04.01a.27.27 0 0 0 .03-.1c0-.05.03-.08.07-.11a.7.7 0 0 0 .26-.3c.03-.07.04-.07.05 0v.03c.03.04.05.04.07 0 .06-.09.13-.17.21-.24a.12.12 0 0 0 .05-.1c0-.04 0-.07-.03-.1.06-.13.11-.15.15-.06Z" fill="#CAC5B8"/><path d="M6.21 9.03c.02.03.03.06.03.1 0 .04-.02.07-.04.1a.98.98 0 0 0-.22.24c-.02.04-.04.04-.06 0a.06.06 0 0 1-.01-.03c0-.07-.02-.07-.05 0a.7.7 0 0 1-.26.3.14.14 0 0 0-.07.11c0 .04-.01.07-.03.1-.02.05-.03.04-.04 0l-.01-.35c0-.03.01-.04.04-.03l.02.03.01.03c.06.03.1.02.14-.02a.21.21 0 0 0 .05-.1.77.77 0 0 1 .14-.3c.16.08.2.02.16-.19a.05.05 0 0 1 .07-.06l.13.07ZM12.1 9.23c.13.09.18.18.17.27-.01.06-.04.07-.07.01-.01-.03-.05-.05-.1-.04a.09.09 0 0 1-.09-.05.44.44 0 0 0-.18-.19.1.1 0 0 1-.05-.08c0-.03 0-.06.02-.1-.02-.05.02-.07.1-.03l.03.04c.03.09.1.14.18.17ZM5.46 9.2l-.64.71-.08-.03.54-.64.18-.05Z" fill="#040303"/><path d="M7.3 9.37c-.1.27 0 .47.3.58.04.01.04.03.01.05a.77.77 0 0 1-.78.05.12.12 0 0 1-.07-.1c-.02-.2 0-.4.08-.58.04-.1.12-.16.24-.16h.12c.1 0 .14.05.1.16Z" fill="#fff"/><path d="M6.53 10.13c.02-.02.05-.03.1-.03a.67.67 0 0 1-.16.46c-.02-.02-.03 0-.01.05-.14-.1-.22-.22-.23-.36 0-.04-.03-.07-.07-.08-.17-.05-.15-.22-.08-.34.08-.17.17-.32.26-.47.11-.19.18-.17.2.05a1.64 1.64 0 0 0 .02.22.06.06 0 0 1-.03.04H6.5c-.28-.03-.34.33-.13.46.09.06.14.06.16 0ZM11.98 9.96a.3.3 0 0 0-.11.23v.03a.05.05 0 0 1-.07.02l-.04-.02c-.04-.01-.05-.04-.04-.07.03-.1.03-.2.03-.28a.22.22 0 0 0-.3-.2l-.08.04c-.07.02-.08 0-.04-.06a.85.85 0 0 0 .13-.38.04.04 0 0 1 .02-.03.04.04 0 0 1 .04 0c.22.09.36.5.46.72Z" fill="#8B8B8B"/><path d="m12.4 9.73-.03-.03c-.02-.02-.01-.03 0-.05l.12-.06c.05-.03.07-.02.07.04l-.02.26c0 .08-.03.08-.06 0a.4.4 0 0 1-.02-.07.19.19 0 0 0-.06-.1Z" fill="#040303"/><path d="M6.63 10.1c-.05 0-.08.01-.1.03-.1-.03-.2-.07-.2-.18-.02-.13.05-.21.2-.24.04 0 .06.01.07.05l.03.34ZM11.4 9.77a.03.03 0 0 1 .02-.03h.02a.2.2 0 0 1 .24.13v.01a.2.2 0 0 1-.13.24h-.04l-.01-.01-.1-.34Z" fill="#B65042"/><path d="M5.34 10.05c.03.02.06.01.08 0 .02-.03.04-.03.04 0a.1.1 0 0 1 0 .04l-.01.02c-.1.13-.13.29-.08.47 0 .02 0 .04-.02.06a.06.06 0 0 1-.04.02c-.06 0-.07-.02-.03-.06l.02-.03v-.06l-.1-.61a.2.2 0 0 1 .01-.08c.02-.05.04-.06.06-.05l.02.03c.02.06.03.12.02.2v.02l.03.03Z" fill="#040303"/><path d="m10.8 11.35.13-1.38a.8.8 0 0 0 .29-.13.07.07 0 0 1 .05-.01.06.06 0 0 1 .04.03 1.19 1.19 0 0 1 .18.56h.01a.04.04 0 0 0 .04.01h.04l.03.08c0 .04-.02.06-.05.06-.05 0-.07.02-.08.06-.07.55-.3.8-.68.72Z" fill="#335839"/><path d="m12.74 9.83.06.06a.52.52 0 0 0-.02.4c.02.06.06.08.1.05l.03.2a.75.75 0 0 1-.33-.36.1.1 0 0 1 0-.1l.16-.25Z" fill="#040303"/><path d="M12.87 10.34c-.04.03-.07.01-.1-.05a.52.52 0 0 1 .03-.4c.08.03.15.04.2.01.14-.09.18-.06.1.1l-.23.34Z" fill="#CAC5B8"/><path d="m4.74 9.88.08.03c0 .14.07.24.18.3-.01.07 0 .12.02.16l-.08-.01c.04.4-.1.66-.4.8a.75.75 0 0 0-.22.16c-.06.06-.1.05-.15-.03-.2-.47-.13-.85.24-1.16.03-.02.04-.06.02-.1l.31-.15ZM13.35 9.95a.5.5 0 0 1 .28.13c-.04.04-.04.07 0 .1.18.14.29.3.32.5a.87.87 0 0 1-.16.67c-.03.04-.05.04-.08 0-.16-.16-.4-.22-.53-.41-.12-.17-.13-.38-.05-.62-.01-.05 0-.1.03-.15a.09.09 0 0 1 .15 0 3.56 3.56 0 0 1 .25.39 7.31 7.31 0 0 1-.21-.5v-.11Z" fill="#CC614F"/><path d="M5 10.21a.4.4 0 0 1 .19.31h-.05c-.01 0-.02 0-.02-.02 0-.06-.04-.1-.1-.13-.02-.04-.03-.1-.02-.16Z" fill="#040303"/><path d="M12.12 11.15a3.68 3.68 0 0 1 .18.65h-.03a.4.4 0 0 0-.34-.24.08.08 0 0 1-.07-.07c-.03-.34-.07-.64-.11-.91a.61.61 0 0 0-.08-.2c-.02-.04 0-.06.04-.04.05.01.1.04.12.1.09.23.18.47.29.7ZM6.14 11.48c0 .03-.02.04-.04.06a.68.68 0 0 1-.23.08.11.11 0 0 1-.11-.05.11.11 0 0 1-.01-.12c.18-.36.3-.7.37-1.01 0-.04.03-.05.06-.02.06.05.08.12.08.2l-.12.86Z" fill="#2CABE2"/><path d="m13.29 11.72-.34-.26a.33.33 0 0 1-.08-.22c0-.05.01-.05.04-.02l.38.5Z" fill="#040303"/><path d="m5.12 11.47.27.65c.08.17.07.33-.03.49-.06.1-.12.2-.16.31-.07.14-.14.15-.23.03a1.47 1.47 0 0 1-.26-1.23c.13-.14.18-.3.37-.42.06-.03.07-.02.03.03l-.06.09c-.02.03-.02.05 0 .08.03.02.05.01.07-.03Z" fill="#B65042"/><path d="m10.68 12.4-.04.23c0 .04 0 .05.05.02.08-.07.17-.14.25-.23h.02c.02.01.02.02 0 .04-.16.17-.3.37-.43.59a1 1 0 0 0-.18.34c0 .02 0 .03.02.03h.03l.02.07-.16.24c-.01.02 0 .03.02.04.02 0 .04 0 .06-.04 0 .05.01.07.04.07l-.25.42c-.4-.03-.7-.19-.94-.48a.16.16 0 0 1-.03-.1v-.5c0-.15.02-.33.06-.55.08-.39.13-.8.13-1.21l1.6.07a.06.06 0 0 1 .05.05l-.01.03c-.18.3-.29.58-.31.87Z" fill="#335839"/><path d="M9.35 11.38c0 .42-.05.82-.13 1.21-.04.22-.06.4-.07.55l.01.5c0 .04.01.07.03.1.23.3.54.45.94.48a.12.12 0 0 0-.03.11c0 .02.02.03.03.03h.04c0 .04 0 .06.04.06-.08.11-.1.2-.09.3l.04.16-1.34.12a7.99 7.99 0 0 1-.71-3.35c.43-.05.85-.14 1.24-.27Z" fill="#47774A"/><path d="m12.95 11.46.34.26.02.03c-.03.15.02.3.01.42 0 .33-.12.61-.33.86-.05.05-.09.05-.13-.02-.16-.29-.4-.56-.23-.92l.26-.57c0-.02.01-.04.06-.06Z" fill="#B65042"/><path d="M7.04 11.58v.07c.01.17.07.3.19.39-.01-.01-.02 0-.03.06.06.2.15.38.27.55l-.06.1c-.04-.09-.1-.11-.17-.1-.04.02-.05.03-.02.06l.08.04a.2.2 0 0 1 .08.05l.17.17c.01.05 0 .1-.05.15a.34.34 0 0 0-.2-.16c-.06-.02-.07 0-.03.04l.27.29c.02.02.02.04.02.05-.02.03-.04.03-.06.03l-.12-.05c-.06-.02-.07 0-.03.05.05.06.11.1.19.15.03.04.06.09.07.14-.04.04-.12.02-.23-.05 1.08 1.17.27.82-.5.52a.05.05 0 0 1-.05.04h-.02l-.2-.13H6.6l-.02.02c-.02.01-.02.03 0 .04.16.14.29.31.36.51a1.33 1.33 0 0 1-.67-.3c.26-.31-.63-2 0-2a.2.2 0 0 1 0-.09l.03-.31a.1.1 0 0 1 .06-.08l.04-.02c.05-.02.06-.05.02-.1a.2.2 0 0 1-.05-.08c-.01-.03 0-.05.03-.07.06-.02.1 0 .15.04.05.06.1.14.16.26.02.03.02.06.02.1-.02.1.02.17.1.22.06.03.08.02.04-.04l-.07-.13c-.02-.04-.01-.07.04-.08l.1-.01c.02 0 .02 0 .02-.02l.01-.04c0-.03 0-.04-.03-.03l-.13.02c-.04 0-.07 0-.07-.05a.66.66 0 0 1 0-.26c.02-.04.04-.05.08-.04l.22.08ZM12.36 12.5c-.02.04-.03.07 0 .08a.1.1 0 0 0-.05-.01c-.04 0-.05.01-.04.04.03.15.07.31.13.47v.02c0 .02-.01.03-.03.04-.03 0-.05 0-.06-.02a.75.75 0 0 0-.3-.22H12l-.01.03v.02c.22.05.33.24.35.56 0 .06-.02.07-.07.03a7.25 7.25 0 0 0-.36-.24v.04l.46.47.07.12a.59.59 0 0 1-.3.18.8.8 0 0 0-.31-.2.08.08 0 0 0-.11.07l-.04.22c0 .05.01.07.06.03a.15.15 0 0 0 .06-.07.2.2 0 0 1 .09-.07c.06 0 .12.02.18.08v.02l-.03.03-.8.4a.17.17 0 0 1-.12 0c-.02-.08-.23-.06-.17-.11-.1-.15-.16-.3.37-1.2.02-.04.01-.05-.02-.03a.54.54 0 0 0-.2.17c-.04.01-.06-.02-.06-.08.17-.15.15-.33.23-.48.1-.18.2-.43.45-.45h.02a.04.04 0 0 1 .02.03v.02c-.04.26-.04.59 0 .98 0 .09.05.16.13.2.04.02.05.01.05-.03a.25.25 0 0 0-.1-.17.06.06 0 0 1-.01-.05v-.04a.07.07 0 0 0 .03-.06 2.2 2.2 0 0 1 .02-.8.13.13 0 0 0-.04-.13.13.13 0 0 0-.14-.02c-.19.08-.35.2-.47.36-.04.05-.1.18-.16.4-.1.28.23.15-.22 1.1h-.35c-.1.05-.2.11-.28.2-.04-.01-.05-.03-.04-.07.06-.24.25-.48.56-.71.05-.04.04-.05-.02-.04a1.1 1.1 0 0 0-.33.2c-.03 0-.04-.03-.04-.08l.34-.38-.02-.03h-.05l-.2.17v-.06c.1-.17.23-.32.4-.43.02-.01.02-.03 0-.04l-.01-.03h-.03l-.24.12c.12-.22.27-.42.44-.6v-.03h-.03a2.6 2.6 0 0 1-.25.23c-.04.03-.06.02-.05-.02l.04-.23c.1-.05.18-.1.25-.17.05-.04.04-.06-.02-.04a.34.34 0 0 0-.07.02c-.07.03-.09 0-.05-.06a.13.13 0 0 1 .04-.04.12.12 0 0 0 .05-.09 1 1 0 0 1 .2-.45c.02-.03.04-.03.07-.02.1.03.15.1.15.22 0 .05.02.06.05.02l.11-.16a.08.08 0 0 1 .08-.02h.04c.03.01.05.03.03.07l-.04.12a.06.06 0 0 0 .03.08c.1.04.12.11.08.2-.02.05 0 .08.04.09.06.02.1.06.13.12.02.05.04.05.05 0 .01-.05 0-.08-.03-.12a.12.12 0 0 1-.04-.08l-.02-.37c0-.05.02-.08.08-.06l.07.01c.06.01.09.05.09.11 0 .27.1.5.31.72Z" fill="#CAC5B8"/><path d="M7.04 11.58c.36.07.72.1 1.07.07-.01 1.15.23 2.26.71 3.35l-.95-.11a.3.3 0 0 0 0-.14c.02-.12-.01-.23-.11-.36l.06-.06c.06-.03.07-.08.04-.15a.4.4 0 0 0-.18-.18c0-.07.02-.13.05-.2.01-.05.02-.09 0-.1-.01-.04-.06-.05-.12-.04a.36.36 0 0 0-.07-.14c.13-.13.12-.26-.04-.4.04-.05.06-.1.05-.15a.68.68 0 0 0-.14-.23l.06-.09c-.02.02-.01.03.02.03h.02l.01-.02a.04.04 0 0 0 0-.03l-.32-.53c0-.05.02-.07.03-.06a.64.64 0 0 0-.18-.4l-.01-.06Z" fill="#5D9B5D"/><path d="M6.08 12.53c-.01.24.02.5.09.75-.08.13-.08.25 0 .34a.19.19 0 0 1-.02.28l-.27.2a.6.6 0 0 0-.2-.08c.06-.01.06-.05 0-.12a.45.45 0 0 0 .1-.22c0-.03.02-.06.05-.08.05-.05.1-.12.11-.19.03-.07.01-.08-.04-.02l-.15.15c-.04.04-.06.03-.06-.03 0-.24-.08-.76.11-.94.03-.02.03-.04-.01-.04-.05 0-.1 0-.15.04a.2.2 0 0 1-.05-.05c.19-.15.31-.35.37-.6a.1.1 0 0 0-.03-.1l-.03-.03c-.03-.03-.02-.05.02-.07l.27-.1.02-.01a.04.04 0 0 1 .03.03v.02l-.16.87Z" fill="#CAC5B8"/><path d="M7.05 11.65c.11.13.17.26.18.39a.48.48 0 0 1-.18-.4ZM11.03 13.37l-.18.15c.1-.13.16-.26.2-.4.08-.2.13-.34.17-.4.12-.15.28-.27.47-.35a.13.13 0 0 1 .18.08v.07a2.2 2.2 0 0 0-.02.8c0 .02 0 .05-.02.06a.05.05 0 0 0-.01.04c0 .02 0 .04.02.05.05.05.08.1.09.17 0 .04-.01.05-.05.03a.25.25 0 0 1-.14-.2 3.72 3.72 0 0 1 0-1.02l-.01-.01h-.02c-.25.02-.34.27-.45.45-.08.15-.06.33-.23.47ZM5.69 13.9a.99.99 0 0 1-.14-.5l.02-.71c0-.03.03-.07.07-.12.05-.03.1-.05.15-.04.04 0 .04.02.01.04-.19.18-.12.7-.11.94 0 .06.02.07.06.03l.15-.15c.05-.06.07-.05.04.02a.43.43 0 0 1-.11.19.14.14 0 0 0-.05.08.45.45 0 0 1-.1.22Z" fill="#040303"/><path d="M12.35 12.58c.18.37.18.78.01 1.23a43.09 43.09 0 0 0-.46-.5c0-.01.01-.02.02-.01l.34.24c.05.04.08.03.07-.03-.02-.32-.13-.51-.35-.56v-.05h.03c.12.04.21.12.3.22.01.02.03.03.06.02.02 0 .03-.02.03-.04v-.02c-.06-.16-.1-.32-.13-.47 0-.03 0-.05.04-.04a.1.1 0 0 1 .04.01ZM7.1 13.34c-.04.04-.1.04-.17 0l-.31-.73c-.02-.04 0-.05.03-.03.07.03.14.05.22.04.05 0 .06.01.03.06a.15.15 0 0 0 0 .16c.02.03.03.07.03.1-.01.17.04.3.17.4ZM7.5 13.12c.16.14.17.27.04.4a.64.64 0 0 1-.19-.15c-.04-.05-.03-.07.03-.05l.12.05c.02 0 .04 0 .06-.03l-.01-.04v-.01l-.28-.3c-.04-.03-.03-.05.02-.03.08.02.15.07.2.16ZM10.4 13.43h-.03c-.02-.01-.02-.02-.02-.04a1 1 0 0 1 .18-.34l.24-.12h.03l.02.03V13c-.18.11-.31.26-.42.43ZM11.14 13.88c-.04.02-.05.05-.05.06l-.18.3a.14.14 0 0 0 0 .15l.02.03c.03.04.07.04.1 0 .05-.1.13-.18.23-.25a.3.3 0 0 1 .12-.1c.04 0 .05 0 .03.04-.06.1-.14.2-.25.3-.05.06-.07.13-.05.2l-.15.05c-.12-.14-.17-.27-.15-.4l.27-.81a.54.54 0 0 1 .21-.17c.03-.02.04-.01.02.02-.1.18-.16.38-.17.58ZM6.17 13.28c.08.05.1.14.1.28 0 .23.15.57 0 .76a.1.1 0 0 0-.04-.05c.03-.1.04-.18.02-.27 0-.04-.03-.04-.06-.03a.4.4 0 0 0-.18.21c-.05 0-.1-.03-.13-.08l.27-.2a.19.19 0 0 0 .03-.28c-.09-.1-.09-.2-.01-.34ZM6.92 13.36l.28.78c.03.18.01.37-.06.57l-.2-.1c-.07-.2-.2-.37-.36-.5-.02-.02-.02-.04 0-.05l.02-.02h.01l.2.12a.05.05 0 0 0 .06 0v-.03c.04-.26 0-.52-.13-.76-.02-.04-.01-.05.03-.06.04 0 .09.01.15.05ZM10.34 13.73c-.02.03-.04.05-.06.04-.02 0-.03-.02-.02-.04l.16-.24.19-.17h.05l.01.02v.01l-.33.38ZM10.17 14.36h-.04l-.03-.03a.12.12 0 0 1 .03-.11l.25-.42c.14-.1.25-.17.33-.19.06-.01.07 0 .02.04-.31.23-.5.47-.56.71Z" fill="#040303"/><path d="m12.13 14.1-.07.07a.27.27 0 0 0-.18-.08l-.05-.06c-.03-.04-.05-.03-.06.02 0 .04 0 .07.02.11a.15.15 0 0 1-.06.07c-.05.04-.07.02-.06-.03l.04-.22a.08.08 0 0 1 .1-.07c.13.04.23.1.32.2Z" fill="#542F30"/><path d="M6.23 14.27a.39.39 0 0 1-.22-.09.4.4 0 0 1 .18-.2c.03-.02.05-.02.06.02.02.09 0 .18-.02.27Z" fill="#CAC5B8"/><path d="M7.68 14c.08.05.14.1.18.18.03.07.02.12-.04.15L7.68 14Z" fill="#040303"/><path d="M7.2 14.14c.16-.02.25 0 .27.08.19.13.32.31.4.53a.3.3 0 0 1 0 .14l-.73-.18c.07-.2.1-.39.06-.57Z" fill="#CC614F"/><path d="M7.47 14.22a.33.33 0 0 1 .12-.01l.17.18c.1.13.13.24.1.36-.07-.22-.2-.4-.4-.53Z" fill="#040303"/><path d="m10.5 14.21.31.06c-.02.12.03.25.15.39l-.8.22-.04-.17.4-.44v-.03h-.03v-.03Z" fill="#B65042"/><path d="m10.49 14.23.02.01v.03l-.39.44c-.02-.08.01-.18.09-.29a.84.84 0 0 1 .28-.19Z" fill="#040303"/></svg>