<!-- by TradingView --><svg width="18" height="18" viewBox="0 0 18 18" xmlns="http://www.w3.org/2000/svg"><path fill="#F0F3FA" d="M0 0h18v18H0z"/><path d="M9 3.06c-.05.04-.06.1-.03.14-.43-.04-.83.02-1.21.18-.15-.07-.35-.03-.6.1a6.1 6.1 0 0 0-1.11.61c-.07.05-.11.13-.14.24a.08.08 0 0 1-.06.06.53.53 0 0 1-.2.03c-.05 0-.06.03-.03.07l.02.03a.1.1 0 0 1 0 .1c-.12.22-.04.43-.14.62a4.6 4.6 0 0 0-.24.61c-.04.14-.03.35-.07.51l-.4 1.7c-.05.2-.04.46.02.76.06.33.17.6.32.8l.27.85.1.14c.07.49.3.88.67 1.17.1.13.16.3.2.49a1.1 1.1 0 0 1-.2.41c-.33.39-.75.63-1.26.72A6 6 0 0 1 8.96 3C9 3 9 3.02 9 3.06Z" fill="#F73737"/><path d="m10.9 3.33.04.13c0 .04 0 .05-.05.05-.04 0-.09 0-.13.03-.04.04-.08.03-.12 0a.2.2 0 0 0-.24-.07.16.16 0 0 1-.11 0 .82.82 0 0 0-.06-.01c-.07-.02-.07 0-.02.04l.26.19c.06.04.05.06-.02.06a.62.62 0 0 1-.21-.05.04.04 0 0 0-.03 0l-.01.01-.01.01v.03c.22.07.4.17.58.3a.2.2 0 0 0 .09.05c.2.05.4.13.56.25.04.02.05.02.03-.03V4.3c0-.04.03-.05.06-.03l.27.16c.05.03.09.02.11-.03a.05.05 0 0 0 0-.06.07.07 0 0 1-.01-.06c0-.04.02-.04.04-.01.13.15.23.23.43.3.11.05.22.1.32.18a.3.3 0 0 1-.32-.06.1.1 0 0 0-.1-.03.33.33 0 0 1-.25-.07c-.03-.02-.06-.02-.09.02a.29.29 0 0 0-.04.1.27.27 0 0 0-.04.08.1.1 0 0 0 0 .08c.03.05.07.07.12.09l.28.17a.09.09 0 0 0 .12-.03c.04-.07.1-.08.16-.02a.13.13 0 0 0 .2-.03c.07-.12.07-.22 0-.29.04.01.05 0 .05-.05.1.14.15.3.1.48l-.2.12c0 .02-.03.03-.08.04l-.42.06a.06.06 0 0 0-.04.08l.02.02c.06.04.08.1.07.16a.07.07 0 0 0 .04.08c.1.05.16.11.16.18.02.19.05.38.1.56 0 .07 0 .07-.05.02l-.12-.13a.07.07 0 0 0-.05-.03s-.02 0-.03.02c-.02.02-.02.05 0 .07l.07.09c.02.02.02.05 0 .07l-.04.01h-.03l-.01.02c-.07.1-.1.2-.12.3 0 .03 0 .06.02.1a2.08 2.08 0 0 1 .43 1.17.02.02 0 0 1-.03.01h-.01a.2.2 0 0 0-.2-.1.05.05 0 0 0-.04.02.15.15 0 0 0-.02.06 3.97 3.97 0 0 1-.1-.8c-.01-.1-.07-.21-.2-.31a.13.13 0 0 1-.04-.09l-.03-.24a.06.06 0 0 0-.04-.05.2.2 0 0 0-.1-.02c-.04 0-.05-.02-.04-.06 0 0 0-.02.02-.03a.09.09 0 0 0 .02-.07l-.08-.5a.22.22 0 0 0-.03-.08.26.26 0 0 1-.03-.19c0-.04 0-.08-.03-.11-.03-.05-.03-.09.02-.12.04-.03.03-.05-.01-.06a.96.96 0 0 0-.3-.02c-.14.01-.15.05-.04.12.14.08.2.2.19.34-.02.12-.01.24 0 .36.03.2.03.39.02.58a1.35 1.35 0 0 0-.63-.39c-.06-.02-.08 0-.07.07 0 .03.03.06.07.07.07.02.07.06 0 .1a.93.93 0 0 1-.27.1c-.05.01-.07 0-.04-.05a.14.14 0 0 1 .1-.08.04.04 0 0 0 .02-.05v-.03h-.01c-.12.04-.23.05-.34.04a.08.08 0 0 1-.05-.03.08.08 0 0 1-.02-.05.07.07 0 0 0-.05-.07h-.03c-.07.01-.11.05-.15.12H10l-.02-.01c-.02-.02-.02-.04 0-.06.19-.16.38-.21.57-.14.03 0 .05 0 .06-.03l.04-.07c.02-.04.02-.07-.01-.1-.45-.4-.98-.23-1.46-.51-.15-.1-.34-.15-.55-.16-.03 0-.05-.02-.05-.05v-.03h.27c.05-.01.07-.03.06-.07a.32.32 0 0 0-.06-.18.07.07 0 0 0-.09-.02c-.1.04-.16 0-.2-.1 0-.04 0-.06.05-.05a38.13 38.13 0 0 0 1.19.25c0-.01 0-.02-.02-.02-.17-.05-.36-.1-.51-.19a.48.48 0 0 0-.2-.06.16.16 0 0 1-.14-.08c-.03-.05-.02-.05.03-.02.1.07.2.07.3 0a.08.08 0 0 1 .08-.02l.51.16h.11l.22-.11c.08-.04.08-.08 0-.11a1.07 1.07 0 0 1-.4-.27c-.04-.06-.03-.07.04-.05.35.15.7.27 1.07.38.03 0 .04 0 .03-.03a126.55 126.55 0 0 1-.89-.51v-.02c.02-.02.03-.02.05-.01.13.08.26.14.39.2.1.03.11.01.04-.07a.78.78 0 0 0-.3-.18V4.2c.02-.02.03-.03.05-.02l.5.24a.1.1 0 0 0 .04.01c.2 0 .37.06.55.16h.03v-.04c-.13-.1-.22-.22-.37-.3-.17-.1-.33-.21-.48-.34a.11.11 0 0 0-.08-.02c-.45.03-.6-.57-.97-.55-.05 0-.06.02-.04.06l.2.29c.04.05.05.1.04.17 0 .04-.03.05-.07.03l-.22-.09c-.06-.03-.07-.01-.03.04.06.07.14.13.24.17a.02.02 0 0 1 .01.03l-.01.02h-.02a.53.53 0 0 1-.25-.14c-.13-.13-.27-.25-.42-.37-.06-.05-.07-.04-.04.03l.1.1c.02.01.03.04.02.06-.03.16.04.28.2.36v.03h-.04c-.3-.18-.55-.4-.75-.64-.02-.02-.04-.02-.06 0l-.02.01v.01c.08.09.16.2.22.3.01.03 0 .06-.01.08a.06.06 0 0 1-.06.01c-.02 0-.03 0-.03-.03a.06.06 0 0 0-.03-.04h-.02l-.02.02v.03c.13.13.26.25.4.36.14.11.13.13-.03.06a1.9 1.9 0 0 1-.43-.27h-.03l-.02.02c.08.1.17.18.26.26v.05c-.01.03-.03.03-.06.02a3.27 3.27 0 0 0-.81-.32.05.05 0 0 0-.03.07c.1.24.26.4.5.48.04.01.04.02 0 .03-.15.01-.3-.06-.43-.14a.07.07 0 0 0-.1.03l-.05.13c-.02.04-.01.08.02.1.04.02.04.05.03.08l-.04.02h-.04c-.04 0-.04-.02 0-.05l.01-.03a.04.04 0 0 0-.04-.04c-.27.04-.48.05-.73.18a.08.08 0 0 0-.04.08.08.08 0 0 0 .06.07.5.5 0 0 0 .34-.03c.17-.06.3-.03.37.1.02.03.04.04.08.03.2-.03.4-.03.56.01.14.03.14.08.01.13-.15.07-.3.06-.45.16-.41.28-.97.17-1.21.67-.02.02-.04.04-.07.03a.1.1 0 0 0-.1.03c-.12.13-.28.15-.45.07a.12.12 0 0 1-.07-.07.4.4 0 0 0-.15-.22.71.71 0 0 0 0-.48c0-.04 0-.06.05-.04l.28.1a.04.04 0 0 1 .02.07.1.1 0 0 1-.05.03c-.03.01-.04.04-.03.07.02.05.06.08.1.1.04.03.05.05.02.08a.14.14 0 0 1-.08.04c-.04 0-.06.03-.06.07 0 .04.02.07.07.09h.04a.1.1 0 0 0 .04 0c.21-.12.4-.27.57-.48a.12.12 0 0 0 .02-.1c0-.03 0-.06.03-.08l.48-.27c.03-.02.03-.04 0-.06l-.02-.02h-.03a.8.8 0 0 1-.32.17c-.15.04-.14.14-.24.2-.05.04-.08.03-.12 0 .08-.1.17-.18.28-.24.02-.01.02-.02.01-.03v-.03c-.01-.01-.02-.02-.03-.01l-.26.08c-.07 0-.12 0-.16-.03-.04-.02-.04-.05 0-.07.14-.06.26-.14.36-.25a.07.07 0 0 0-.04-.12.46.46 0 0 1-.27-.17c-.03-.04-.06-.04-.08 0a.07.07 0 0 0 0 .07c.04.07.1.13.18.16.03.01.04.04.04.07-.01.06-.05.1-.1.11a.83.83 0 0 1-.4 0 .12.12 0 0 1-.1-.08.37.37 0 0 1 .02-.35.15.15 0 0 1 .08-.06l.32-.13c.05-.02.06-.04.02-.08a.1.1 0 0 0-.08-.02c-.06 0-.07-.02-.03-.06l.23-.26c.04-.04.07-.04.1.01a.4.4 0 0 0 .08.11c.04.04.05.08.04.13 0 .06.01.12.06.16.05.04.07.02.06-.03a.56.56 0 0 0-.07-.21.1.1 0 0 1 0-.1c.08-.17.19-.4.4-.44.03 0 .06 0 .07.05 0 .03.02.06.04.08.04.05.06.04.07-.02 0-.06-.02-.14-.08-.23.25-.14.45-.18.6-.11.5-.1.96-.1 1.35-.02.04 0 .07-.01.09-.04l.02-.03c.03-.04.02-.07-.03-.08a.7.7 0 0 0-.22 0c-.03-.06-.02-.1.02-.15.11-.04.25-.05.43-.04a5.8 5.8 0 0 1 1.48.31Z" fill="#16A4B9"/><path d="M8.97 3.2a.7.7 0 0 1 .22.01c.05.01.06.04.03.08l-.02.03a.08.08 0 0 1-.09.03c-.4-.07-.84-.06-1.35.03.38-.16.78-.22 1.2-.18Z" fill="#0E1C4D"/><path d="m12.29 4.02.47.69c0 .05-.01.06-.06.05a.4.4 0 0 0-.03-.01c-.1-.07-.2-.13-.32-.17a.91.91 0 0 1-.43-.31c-.02-.03-.04-.03-.04 0l.01.07c.02.02.02.04 0 .06-.02.05-.06.06-.1.03a2.63 2.63 0 0 0-.28-.16c-.03-.02-.05 0-.06.03v.02c.02.05 0 .05-.03.03-.17-.12-.35-.2-.56-.25a.2.2 0 0 1-.1-.04 1.57 1.57 0 0 0-.58-.31v-.03l.02-.01a.04.04 0 0 1 .04-.01c.07.03.14.04.21.05.07 0 .08-.02.02-.06l-.26-.2c-.06-.04-.05-.05.02-.03l.06.01c.04.02.07.02.11 0a.2.2 0 0 1 .24.06c.04.04.08.05.12.01a.18.18 0 0 1 .13-.03c.04 0 .05-.01.05-.05l-.04-.13c.52.15.98.38 1.39.69Z" fill="#F7EDD2"/><path d="M11.48 6.84c0 .12 0 .24.03.38v.09c-.02.03-.05.05-.08.04-.04 0-.06 0-.07.05-.01.05.01.1.08.12l-.03.05-.01.02a.05.05 0 0 1-.07 0c-.13-.17-.28-.21-.45-.14a.12.12 0 0 0-.04-.03c-.03 0-.04-.02-.04-.05 0-.02 0-.04.02-.06a.07.07 0 0 1 .07-.02c.03 0 .05 0 .08-.02.05-.03.05-.05-.02-.05a.2.2 0 0 1-.16-.05c0-.08-.04-.1-.1-.1h-.03a.1.1 0 0 1-.06-.03c-.19-.17-.38-.2-.57-.06a.13.13 0 0 1-.1.02.06.06 0 0 1-.04-.03c-.03-.05-.06-.05-.08 0a.32.32 0 0 1-.13.16l-.14-.01a.1.1 0 0 0-.08.03.06.06 0 0 1-.03.02.05.05 0 0 1-.06-.06v-.15c-.02-.05-.04-.05-.08-.01a.24.24 0 0 0-.04.14.29.29 0 0 0-.18.09.09.09 0 0 1-.08.03l-.18-.03c.06-.18.09-.36.06-.55 0-.02-.01-.03-.03-.03h-.03a.03.03 0 0 0-.02.02.04.04 0 0 0 0 .03c.02.22-.02.4-.14.52-.03.03-.06.03-.09.02-.03-.01-.05-.04-.03-.07a.35.35 0 0 0 .02-.18c0-.05-.03-.06-.07-.03-.04.03-.05.1-.04.18a.98.98 0 0 0-.63-.02c-.08-.09-.15-.1-.21-.02a.06.06 0 0 1-.05.02c-.02 0-.04 0-.04-.02a.06.06 0 0 0-.03-.03h-.04a1 1 0 0 0-.4.16c-.24.22-.22.3.05.25.2-.1.35-.12.47-.05.14.08.13.12-.03.11-.22 0-.43.06-.65.2a.73.73 0 0 0-.24.27c-.02.03-.02.05 0 .08.03.03.04.05.02.07-.01 0-.03 0-.05-.02-.06-.07-.12-.1-.18-.11-.04 0-.05.01-.04.05.03.06.1.1.23.1 0 .09-.04.13-.14.12l-.01.01v.03c0 .02 0 .03.02.03.1 0 .2-.02.27-.1l.22-.27a.12.12 0 0 1 .08-.05l.68-.07c.03 0 .06-.01.09-.04l.02-.02c.03-.03.05-.03.07.01.02.06.09.1.2.1.35.04.55 0 .59-.14.07-.25.22-.37.45-.35.03 0 .06.02.08.04.15.18.2.35.16.52-.06.23-.05.4.02.5.08.21.13.44.14.68 0 .04-.01.08-.04.14l-.61.16c-.08.02-.15-.03-.23-.13a.06.06 0 0 0-.1 0c-.06.1-.12.19-.19.26-.04.06-.07.05-.06-.02 0-.2.1-.37.26-.53.06-.08.05-.15-.02-.2a.06.06 0 0 0-.08 0 .15.15 0 0 1-.09.04.06.06 0 0 1-.05-.03V8.8l-.03-.23c0-.01 0-.02-.02-.03h-.02c-.02-.01-.04 0-.04.02-.05.22-.04.43.04.63-.05.12-.05.17 0 .16a.62.62 0 0 0-.4.36l-.29.67c-.05.1-.12.15-.2.12-.03 0-.04 0-.02.03.04.08.04.16 0 .24-.02.05 0 .07.05.08.04 0 .07-.02.1-.05.14-.17.24-.34.3-.52l.45-.62a.03.03 0 0 1 .05 0c.04.09.1.17.17.24.02.03.06.04.1.02l.15-.09a.1.1 0 0 1 .1 0l.74.43c.04.06.13.09.28.08.1-.01.17-.06.17-.16.06-.08.1-.2.09-.38l.64.96.03-.01c.02-.01.03-.02.01-.04l-.27-.43a.21.21 0 0 1-.04-.1c0-.11.01-.17-.05-.27a2.77 2.77 0 0 0-.4-.51.46.46 0 0 1-.08-.27.81.81 0 0 0 .16-.56.18.18 0 0 0-.05-.1l-.14-.16c-.01-.02-.03-.02-.05-.01-.1.06-.19 0-.24-.15-.04-.13 0-.2.12-.24l.07-.02c.24-.1.5-.14.78-.13l.06.03.02.02a.1.1 0 0 0 .1-.01c.07-.05.15-.03.22.03.04.08.04.16 0 .23-.02.03-.04.04-.07 0-.07-.05-.15-.06-.25-.01-.05.02-.05.04.01.04l.16.01c.03 0 .04.01.05.04v.03a.08.08 0 0 1-.05.03 2 2 0 0 1-.59.06c-.21-.01-.23.04-.04.14.12.08.33.1.48.04a.16.16 0 0 1 .11 0 .2.2 0 0 0 .1 0 .65.65 0 0 0 .48-.3c.03-.02.07-.03.1 0 .03 0 .05.03.05.07.01.04 0 .08-.03.1-.06.06-.05.1 0 .15.46.35-.27.87-.48 1.1-.1.12-.12.23-.05.35.02.04.04.1.04.15 0 .2.06.4.14.6.12.25.07.52.06.79 0 .03-.02.06-.05.08a.2.2 0 0 1-.2-.02c-.03-.03-.05-.01-.05.03 0 .02.01.03.03.04a.04.04 0 0 1 .03.02.04.04 0 0 1 0 .03.2.2 0 0 1-.06.07c-.03.02-.03.05-.02.08.04.08.09.15.15.2.1.12.09.16-.07.15a2.45 2.45 0 0 0-.46 0 .1.1 0 0 0-.08.04c-.13.18-.3.3-.53.4-.13.08-.13.02 0-.17.06-.07.04-.1-.03-.07l-.06.02c-.09.03-.1.01-.04-.05l.18-.18a.05.05 0 0 0 .01-.04v-.05c0-.04-.02-.05-.06-.03a.36.36 0 0 0-.16.2.17.17 0 0 1-.06.08l-.14.1c-.03.01-.05.01-.07-.01a.27.27 0 0 0-.07-.06c-.04-.02-.07-.02-.09.02v.08c-.04.04-.1.05-.14.04a.08.08 0 0 1-.06-.07c0-.04 0-.07.02-.1.03-.03.02-.06-.03-.06a.55.55 0 0 1-.37-.23.09.09 0 0 0-.08-.04.1.1 0 0 0-.09.05c-.02.03-.01.06.02.08l.05.02c.05.03.05.06 0 .1l-.03.03c-.04.04-.03.05.02.04.05 0 .09-.02.12-.05a.1.1 0 0 1 .14.01.1.1 0 0 1 .02.05c.01.33-.39.26-.57.26a.13.13 0 0 1-.1-.04.91.91 0 0 0-.62-.3c-.15 0-.2-.07-.14-.2a.35.35 0 0 1 .09-.13c.11-.1.24-.14.39-.12.38.05.65-.03.8-.22.16-.14.4-.17.73-.1.11.11.21.16.3.15.14.08.31.1.52.07l.37.02c.07 0 .08-.02.02-.06-.12-.1-.12-.15-.32-.18-.18-.02-.26-.11-.25-.28.01-.05-.04-.08-.16-.1l-.2.01c-.45.07-.96.11-1.5.12.04.1.06.18.06.24 0 .03-.02.06-.05.06l-.65.2c-.05 0-.06 0-.04-.06l.08-.15-.01-.03-.03-.02c-.04-.02-.06-.01-.08.03-.06.15-.19.26-.39.33-.03.01-.05 0-.06-.03a.1.1 0 0 1-.01-.03c0-.07-.03-.07-.06-.01a.37.37 0 0 1-.11.12.07.07 0 0 0-.03.08c0 .02 0 .05-.02.06-.03.03-.06.03-.07-.02a.11.11 0 0 1 .02-.12c.02-.02.03-.04 0-.07a.85.85 0 0 1-.12-.61c.01-.04.03-.05.07-.03a.2.2 0 0 1 .07.07c.02.04.04.04.03-.02a.17.17 0 0 0-.04-.09.15.15 0 0 1-.03-.09c-.01-.21-.07-.4-.18-.58a.96.96 0 0 1-.1-.55c0-.16.05-.17.14-.03l.32.52a.06.06 0 0 0 .04.02.06.06 0 0 0 .05-.01c.31-.3-.17-.91-.42-1.07-.24-.15-.38-.5-.52-.74a.18.18 0 0 1-.02-.12c.02-.15.02-.3-.02-.44-.02-.1-.05-.1-.08 0-.09.3-.12.6-.08.9 0 .03 0 .05.03.07l.03.01v.13c0 .04-.03.06-.07.06H5.9a.65.65 0 0 1-.05-.24l-.12-.27c.05-.06.05-.12.03-.17.07-.14.1-.28.1-.4l.07-.37a.76.76 0 0 0 .06-.3c0-.04 0-.07.02-.09a.2.2 0 0 1 .09-.06c.05-.02.06-.05.02-.1l-.02-.02a.1.1 0 0 0-.13-.02c-.17.1-.3.24-.4.41-.08.16-.13.15-.15-.02l-.08-.7-.01-.13c.13-.1.17-.21.1-.32.04-.16.1-.28.2-.37a.4.4 0 0 1 .16.22c.01.03.04.06.07.07.17.08.33.06.46-.07a.1.1 0 0 1 .1-.03c.02 0 .04 0 .06-.03.24-.5.8-.39 1.21-.67.14-.1.3-.1.45-.16.13-.05.13-.1-.01-.13a1.5 1.5 0 0 0-.56 0c-.04 0-.06-.01-.08-.04-.08-.13-.2-.16-.37-.1a.5.5 0 0 1-.34.03.08.08 0 0 1-.06-.07.08.08 0 0 1 .04-.08c.25-.13.46-.14.73-.18a.04.04 0 0 1 .04.04l-.01.03c-.04.03-.04.05 0 .05h.04c.02 0 .03 0 .04-.02.01-.03 0-.06-.03-.08-.03-.02-.04-.06-.03-.1l.07-.13a.07.07 0 0 1 .1-.03c.11.08.27.15.41.14.05 0 .05-.02 0-.03a.8.8 0 0 1-.5-.48.05.05 0 0 1 .07-.07c.27.07.54.18.78.32.03.01.05 0 .06-.02v-.05a15.58 15.58 0 0 1-.26-.26l.02-.02h.03c.14.11.28.2.43.27.16.07.17.05.03-.06a4.03 4.03 0 0 1-.4-.4l.02-.01h.02l.03.04c0 .02.01.03.03.03l.06-.01c.02-.02.02-.05 0-.07a1.31 1.31 0 0 0-.21-.32l.02-.01c.02-.02.04-.02.06 0 .2.24.45.46.75.64h.03l.02-.02c-.17-.09-.24-.2-.2-.37 0-.02-.01-.05-.04-.06a.24.24 0 0 1-.09-.1c-.03-.07-.02-.08.04-.03.15.12.29.24.42.37.08.08.17.12.25.14a.03.03 0 0 0 .03-.02v-.02H9.6a.66.66 0 0 1-.24-.18c-.04-.05-.03-.07.03-.04l.22.1c.04 0 .06 0 .07-.04a.22.22 0 0 0-.04-.17l-.2-.29c-.02-.04-.01-.06.04-.06.37-.02.52.58.97.55.03 0 .05 0 .08.02.15.13.31.24.48.33.15.09.24.2.37.3v.04c0 .02-.02.02-.03.01-.18-.1-.36-.15-.55-.16a.1.1 0 0 1-.04 0l-.5-.25c-.02 0-.03 0-.04.02l-.01.03c.13.06.23.12.3.2.07.07.06.1-.04.05a3.08 3.08 0 0 1-.4-.19l-.03.01-.01.02v.01a124.2 124.2 0 0 0 .89.5c0 .03 0 .04-.03.03-.36-.1-.72-.23-1.07-.38-.07-.02-.08-.01-.03.05.1.12.24.2.39.27.08.03.08.07 0 .1l-.22.11a.15.15 0 0 1-.1 0l-.52-.15a.08.08 0 0 0-.08.02c-.1.07-.2.07-.3 0-.05-.03-.06-.03-.03.02s.08.08.14.08c.07 0 .14.03.2.06.15.1.34.14.51.19.02 0 .02 0 .02.02s-.01.02-.03.02C9.37 5.19 9 5.1 8.61 5c-.04 0-.06.01-.05.05.04.1.1.14.2.1h.05c.01 0 .03 0 .04.02.04.05.06.11.06.18 0 .04-.01.06-.06.06a5.94 5.94 0 0 0-.26.01v.03c0 .03 0 .04.04.05.21.01.4.06.55.16.48.28 1.01.1 1.46.51.03.03.03.06.01.1l-.04.07c0 .03-.03.04-.06.03-.2-.07-.38-.02-.57.14-.02.02-.02.04 0 .06l.02.01c.05-.07.1-.1.16-.12a.07.07 0 0 1 .08.07c0 .02 0 .04.02.05.01.02.03.03.05.03a.77.77 0 0 0 .34-.04l.01.03v.02a.04.04 0 0 1-.01.02l-.02.01a.14.14 0 0 0-.1.08c-.02.04 0 .06.05.05.1-.02.2-.06.27-.1.07-.04.07-.08 0-.1a.1.1 0 0 1-.07-.07c-.01-.06 0-.09.07-.07.25.08.46.2.63.4Z" fill="#F7EDD2"/><path d="M7.16 3.49c.06.1.08.17.08.23-.01.06-.03.07-.07.02a.2.2 0 0 1-.04-.08c-.01-.04-.04-.06-.08-.05-.2.04-.3.27-.4.45a.1.1 0 0 0 .01.09c.04.06.06.13.07.2.01.06 0 .08-.06.04-.05-.04-.07-.1-.06-.16.01-.05 0-.1-.04-.13A.4.4 0 0 1 6.5 4c-.03-.06-.06-.06-.1-.02l-.23.26c-.04.04-.03.06.03.06a.1.1 0 0 1 .08.02c.04.04.03.06-.02.08l-.32.13a.15.15 0 0 0-.08.06.37.37 0 0 0-.01.35c.01.04.04.06.08.07.13.04.27.04.4.01.06-.01.1-.05.1-.11.01-.03 0-.06-.03-.07a.35.35 0 0 1-.18-.16.06.06 0 0 1 0-.06c.02-.05.05-.05.08-.01.07.09.16.14.27.17a.07.07 0 0 1 .04.12c-.1.1-.22.2-.35.25-.05.02-.05.05-.01.07.04.02.1.04.16.03l-.37.41c-.06.07-.05.1.04.07.1-.02.21-.1.33-.26.04.04.07.05.12.02.1-.06.1-.17.24-.21a.8.8 0 0 0 .32-.17h.02l.03.02c.03.02.03.04 0 .06l-.48.27c-.03.02-.04.05-.03.08 0 .04 0 .07-.02.1-.17.2-.36.36-.57.48a.1.1 0 0 1-.08 0c-.05-.02-.07-.05-.07-.09 0-.04.02-.06.06-.07.03 0 .06-.01.08-.04.03-.03.03-.05-.01-.07a.22.22 0 0 1-.1-.11c-.02-.03-.01-.06.02-.07a.1.1 0 0 0 .05-.03.04.04 0 0 0-.02-.06l-.28-.11c-.04-.02-.06 0-.05.04.06.19.05.35 0 .48a.63.63 0 0 0-.2.37c-.12.06-.15.17-.11.32.02.04.02.08 0 .14-.26.31-.06.57-.05.9 0 .03.02.06.04.09l.04.05a.1.1 0 0 1 0 .1.54.54 0 0 0-.05.2c0 .09.02.1.06.02l.35-.6a.08.08 0 0 1 .07-.05c.03 0 .05.02.05.05.01.06.04.1.09.13l-.07.37a.4.4 0 0 0-.15.13.13.13 0 0 0-.02.1c.02.1 0 .17-.06.23-.02.02-.02.04 0 .06l.02.02h.01a.42.42 0 0 0 .1-.14c.02.05.02.11-.03.17l-.08.17c-.02.03-.02.05.01.08.04.03.1.04.19.02 0 .09.02.17.05.24l-.07.18-.18.22c-.03.03-.05.03-.07 0a.24.24 0 0 1-.03-.14l.03-.31c0-.04-.01-.06-.04-.07-.13-.04-.26.04-.38.23-.03-.15-.07-.24-.11-.27C5 8.98 5 8.99 5 9.02l.13.6c-.15-.2-.26-.47-.32-.8-.06-.3-.07-.56-.02-.76l.4-1.7c.04-.16.03-.37.07-.5.07-.24.15-.44.24-.62.1-.2.02-.4.14-.62a.1.1 0 0 0 0-.1l-.02-.03c-.03-.04-.02-.07.04-.07.07 0 .13 0 .2-.03a.08.08 0 0 0 .05-.06c.03-.11.07-.2.14-.24.26-.19.63-.4 1.1-.6Z" fill="#091536"/><path d="m8.02 4 .02.06c0 .08-.02.1-.09.05-.18-.12-.4-.13-.6-.25a.15.15 0 0 1 0-.24l.04-.03c.08-.06.16-.05.24.01a.7.7 0 0 0 .27.16.1.1 0 0 1 .08.08.3.3 0 0 1 .01.1c0 .03 0 .05.03.07Z" fill="#F7EDD2"/><path d="M12.29 4.02c.3.18.54.34.69.48a6.03 6.03 0 0 1 .06 8.94c-.24-.05-.49-.08-.66-.26-.32-.35-.72-.74-.45-1.24l.43-.83c.06-.12.07-.28.2-.36a1.12 1.12 0 0 0 .47-.58v-.03l-.02-.02h-.05c0-.03 0-.05-.03-.05.12-.23.2-.48.24-.74 0-.04.02-.07.05-.1.09-.1.13-.2.13-.32 0-.39-.07-.77-.2-1.13-.19-.48-.18-1.04-.18-1.53 0-.11-.04-.12-.12-.03-.02.03-.07.04-.12.04-.04-.1 0-.2.12-.34a.1.1 0 0 0 .02-.1 1.31 1.31 0 0 0-.29-.47c.05-.01.07-.02.09-.04.15.04.22 0 .2-.12a.57.57 0 0 0-.11-.48l-.47-.7Z" fill="#4295CD"/><path d="M6.74 4.63h.04c.06 0 .07.03.03.07a.1.1 0 0 1-.1.03.64.64 0 0 1-.17-.12c-.05-.05-.04-.06.02-.04l.09.03.09.03ZM12.67 4.75a.4.4 0 0 1 .03.01c.08.07.08.17.01.29a.13.13 0 0 1-.2.03c-.06-.06-.12-.05-.16.02a.08.08 0 0 1-.12.03l-.28-.17.07-.03c.04-.02.05-.04 0-.06a.47.47 0 0 1-.15-.17.29.29 0 0 1 .04-.1c.03-.03.06-.03.09 0 .08.05.16.07.25.06a.1.1 0 0 1 .1.03c.09.08.2.1.32.06Z" fill="#0E1C4D"/><path d="M9.87 4.86c.01 0 .02.02 0 .03l-.01.03h-.03a4.89 4.89 0 0 1-.57-.26h.03l.58.2Z" fill="#16A4B9"/><path d="M11.87 4.7c.03.07.09.12.16.17.04.02.03.04-.01.06l-.07.03a.18.18 0 0 1-.12-.09.1.1 0 0 1 0-.08.27.27 0 0 1 .04-.09Z" fill="#578B9E"/><path d="M6.22 4.94h-.25c-.04-.01-.07-.03-.08-.08l-.01-.06c-.01-.06.01-.08.07-.07.12.02.22.07.3.14.05.05.04.08-.03.07Z" fill="#0E1C4D"/><path d="M8.13 4.92c.1.04.2.04.29.05.04 0 .04.02.02.05l-.08.08c-.03.04-.06.04-.09 0a.4.4 0 0 0-.23-.16c-.05-.02-.05-.03 0-.03a.2.2 0 0 1 .1.01Z" fill="#16A4B9"/><path d="M5.84 5.17c-.02-.05 0-.06.03-.05a.3.3 0 0 1 .18.14c.07.12.04.15-.1.11-.03-.01-.07-.08-.11-.2Z" fill="#578B9E"/><path d="M6.4 5.47c-.12.15-.23.24-.33.26-.1.02-.1 0-.04-.07l.37-.4.26-.1c.01 0 .02 0 .02.02l.01.03v.03a.77.77 0 0 0-.29.23ZM12.87 5.2c.02.12-.05.15-.2.11l.2-.12ZM12.58 5.35c.14.15.24.3.3.48a.1.1 0 0 1-.03.09c-.12.13-.16.25-.12.34a7.5 7.5 0 0 1-.19 2.56c-.01.06 0 .13.03.23.02.05 0 .06-.04.04l-.06-.02A.1.1 0 0 1 12.4 9l-.06-.28c.1-.15.08-.31-.05-.47a.1.1 0 0 0-.01-.05c0-.02 0-.04.02-.06l.03-.02a.2.2 0 0 1 .21.1.02.02 0 0 0 .04 0v-.02a2.08 2.08 0 0 0-.43-1.17.12.12 0 0 1-.02-.09c.02-.1.05-.2.12-.3l.01-.01h.03l.04-.02c.02-.02.02-.05 0-.07l-.07-.09c-.02-.02-.02-.05 0-.07l.03-.02c.02 0 .04.01.05.03l.12.13c.04.05.06.05.04-.02a4.62 4.62 0 0 1-.09-.56c0-.07-.06-.13-.16-.18a.07.07 0 0 1-.03-.03v-.05c0-.06-.02-.12-.08-.16a.06.06 0 0 1-.02-.05.05.05 0 0 1 .04-.05l.42-.06Z" fill="#F7EDD2"/><path d="M12.28 8.2v.04a.72.72 0 0 0 .06.47l.06.28c0 .04.03.07.07.08l.06.02c.04.02.06 0 .04-.04a.43.43 0 0 1-.03-.23c.21-.85.27-1.7.19-2.56.05 0 .1 0 .12-.04.08-.1.11-.08.12.03 0 .5 0 1.05.17 1.53.14.36.21.74.21 1.13 0 .12-.04.23-.13.32a.17.17 0 0 0-.05.1c-.04.26-.12.5-.24.74l-.09.03c.07-.18.1-.35.1-.5.04-.16-.03-.3-.19-.32-.05 0-.06.02-.05.06.02.1 0 .2-.06.28a.06.06 0 0 1-.1-.02.59.59 0 0 1-.03-.22c0-.02 0-.03-.02-.03l-.02.02c-.02.15 0 .29.06.41.03.07.02.1-.04.11a.56.56 0 0 0-.11.6.25.25 0 0 0-.01.1c0 .05.02.06.06.06.05 0 .1-.03.13-.07.15-.07.21-.2.2-.38l.01-.07c.02-.03.04-.04.07-.03l.03.16c0 .04.02.05.06.01.02-.03.03-.08.03-.15h.02a.05.05 0 0 1 .04.02v.05c-.1.26-.26.45-.47.56-.12.08-.13.24-.2.36-.13.3-.28.57-.42.83-.27.5.13.9.45 1.24.17.18.42.21.66.26a6.4 6.4 0 0 1-1.12.81c0-.5 0-.98-.06-1.41-.02-.24-.06-.24-.1 0-.11.63-.8 1.14-1.34 1.51l-.4.26-.47-.04a2 2 0 0 1-.4-.07 5.49 5.49 0 0 0-.41-.1l-.6-.5c.13.03.2.02.19-.03.02.06.05.1.08.11.03.02.04.01.03-.02a.51.51 0 0 0-.3-.33c-.05-.05-.08-.14-.08-.28 0-.05-.02-.1-.04-.12-.03-.03-.08-.04-.14-.03l.14-.11c.03-.03.03-.05 0-.08l-.2-.23.08-.08c.02.06.06.11.15.16.03.01.05 0 .05-.04 0-.06-.04-.12-.13-.17.06 0 .1-.03.13-.08.28.13.63.15 1.04.06.11-.03.17-.1.28-.13l.01-.01a.03.03 0 0 0 0-.04v-.01c-.05-.03-.08-.04-.1-.03v-.08c.02-.04.05-.04.09-.02l.07.06c.02.02.04.02.07 0l.14-.09a.17.17 0 0 0 .06-.08.36.36 0 0 1 .16-.2c.04-.02.06-.01.06.03v.05l-.01.04-.18.18c-.06.06-.05.08.04.05l.06-.02c.07-.02.09 0 .04.07-.14.2-.14.25 0 .17.31.1.4-.13.58-.32a.1.1 0 0 1 .1-.03l.41.07a.1.1 0 0 0 .1-.04l.38-.51c.17-.24.24-.53.06-.77a.17.17 0 0 1-.04-.1v-.2c0-.28.38-.68.22-.94-.03-.05-.06-.05-.1-.02a.41.41 0 0 0-.1.14c-.01.04-.03.04-.04 0l-.02-.06a.12.12 0 0 1 .01-.1c.1-.16.1-.32.2-.48.08-.16.13-.33.14-.52a.1.1 0 0 0-.03-.08c-.09-.1-.24-.27-.23-.42l.02-.08a.18.18 0 0 0 .01-.15l-.16-.44c-.07-.03-.1-.07-.08-.12 0-.04.03-.06.07-.05.03 0 .06 0 .07-.04a.14.14 0 0 0 .01-.1 1.88 1.88 0 0 1-.03-.37c.01-.2.01-.39-.02-.58a1.53 1.53 0 0 1 0-.36c0-.14-.05-.26-.19-.34-.1-.07-.1-.1.03-.12.1-.01.2 0 .3.02.05.01.06.03.02.06-.05.03-.05.07-.02.12.03.03.04.07.03.11-.01.07 0 .13.03.2.02.02.03.05.03.08l.08.49c0 .03 0 .05-.02.07l-.02.03c-.01.04 0 .06.04.06a.2.2 0 0 1 .1.02c.02.01.04.03.04.05l.03.24c0 .03.02.06.04.09.13.1.19.2.2.3.01.37.05.63.1.81Z" fill="#0E1C4D"/><path d="M6.4 6.61a.27.27 0 0 0-.11-.12c-.05-.03-.05-.05.01-.05l.1-.01.06.03c.04.06.08.11.13.15.04.02.04.05.02.09-.05.06-.12.1-.21.08-.06-.01-.07-.04-.02-.08.02-.01.02-.03.02-.06V6.6ZM7.71 6.66v.03c-.02.04-.04.05-.07.03a.26.26 0 0 1-.13-.1c-.08-.14-.05-.17.09-.1.04.02.09.02.13-.01a.1.1 0 0 1 .1-.02c.08.03.13.09.15.17 0 .03 0 .05-.03.06h-.03a.09.09 0 0 1-.05-.02l-.08-.08c-.06-.06-.08-.05-.08.04Z" fill="#578B9E"/><path d="M8.8 7.18a.78.78 0 0 0-.1.56c-.03.13-.23.18-.58.14-.11 0-.18-.04-.2-.1-.02-.04-.04-.04-.07-.01l-.02.02a.15.15 0 0 1-.09.04l-.68.07a.12.12 0 0 0-.08.05l-.22.28c-.03 0-.07-.04-.1-.12.02-.02.01-.04-.02-.07-.02-.03-.02-.05 0-.08a.73.73 0 0 1 .24-.27c.22-.14.43-.2.65-.2.16 0 .17-.03.03-.11-.12-.07-.28-.05-.47.05l.02-.12c0-.03.02-.05.06-.06a.3.3 0 0 0 .11-.02c.11-.08.3-.11.55-.1.02.02.05.02.1 0a.15.15 0 0 1 .1 0c.22.07.36.06.41-.04-.01-.09 0-.15.04-.18s.06-.02.07.03c0 .06 0 .12-.02.18-.02.03 0 .06.03.07.03.01.06 0 .09-.02.12-.13.16-.3.13-.52a.04.04 0 0 1 0-.03.04.04 0 0 1 .03-.01h.03c.02 0 .03 0 .03.02.03.2 0 .37-.06.55Z" fill="#091536"/><path d="m11.26 6.93-.17-.05c-.17-.05-.16-.09 0-.1.06 0 .12.01.2.05l.02.05v.03c-.01.02-.03.03-.05.02Z" fill="#16A4B9"/><path d="m11.66 7.3-.03-.44c0-.06.02-.07.07-.05l.03.02a.1.1 0 0 1 .05.07l.03.43a.1.1 0 0 1-.04.09.6.6 0 0 1-.2.09c-.07.01-.08 0-.03-.05l.09-.08a.1.1 0 0 0 .03-.09ZM5.33 6.82l.08.69c.02.17.07.18.15.02.1-.17.23-.31.4-.41a.1.1 0 0 1 .13.02l.02.03c.04.04.03.07-.02.1a.2.2 0 0 0-.09.05l-.02.1c0 .1-.02.2-.06.3a.15.15 0 0 1-.09-.14c0-.03-.02-.05-.05-.05a.08.08 0 0 0-.07.05l-.35.6c-.04.07-.06.07-.06-.02 0-.07.02-.14.06-.2a.1.1 0 0 0-.01-.1L5.3 7.8a.15.15 0 0 1-.04-.08c0-.33-.21-.59.06-.9Z" fill="#578B9E"/><path d="m10.7 7.07-.1.06a.1.1 0 0 1-.1 0 .21.21 0 0 1-.1-.1c-.02-.04-.04-.05-.08-.04-.21.07-.4.2-.64.14.06-.03.1-.08.13-.15.02-.06.05-.06.08-.01l.04.03c.04 0 .07 0 .1-.02.2-.13.38-.11.57.06a.1.1 0 0 0 .06.03h.04Z" fill="#16A4B9"/><path d="M9.68 7.13c.24.06.43-.07.64-.14.04 0 .06 0 .08.04.02.05.06.08.1.1a.1.1 0 0 0 .1 0l.1-.06c.05 0 .08.02.1.1l-.35.14c-.05.03-.05.05 0 .06l.43.08c.21.08.37.24.48.48.04.06.02.11-.05.15a.54.54 0 0 1-.15-.12c-.02-.07-.07-.11-.15-.13-.07-.06-.15-.08-.22-.03a.1.1 0 0 1-.1 0h-.02a.08.08 0 0 0-.06-.04c-.28-.01-.54.03-.78.13-.04-.02-.03-.05.02-.08l.45-.23a.19.19 0 0 1 .1-.02h.14c.15 0 .15-.02 0-.03-.25-.02-.5.06-.74.25a.7.7 0 0 0-.24.14.06.06 0 0 1-.1-.05l-.01-.38a.1.1 0 0 0-.05-.1l-.16-.1c-.03-.03-.04-.06-.01-.1.02-.03.03-.07.02-.1 0-.06.02-.11.04-.14.04-.04.06-.04.07.01.02.05.02.1.01.15a.05.05 0 0 0 .06.06l.03-.02a.1.1 0 0 1 .08-.03l.14.01Z" fill="#091536"/><path d="m7.8 7.07.03.06c-.25-.01-.44.02-.55.1a.3.3 0 0 1-.11.02c-.04 0-.06.03-.06.06l-.02.12c-.27.05-.29-.03-.05-.25a1 1 0 0 1 .4-.16h.04l.03.03.04.02c.02 0 .04 0 .05-.02.06-.08.13-.07.2.02Z" fill="#578B9E"/><path d="M8.44 7.09c-.05.1-.19.11-.41.04a.15.15 0 0 0-.1 0c-.05.02-.08.02-.1 0l-.02-.06a.98.98 0 0 1 .63.02Z" fill="#16A4B9"/><path d="M9.25 7.1c0 .02 0 .06-.02.1-.03.03-.02.06.01.08l.16.12a.1.1 0 0 1 .05.09v.38a.06.06 0 0 0 .11.05.7.7 0 0 1 .24-.14c0 .03.02.04.05.03-.05.03-.06.06-.02.08l-.07.02c-.12.04-.16.11-.12.24.05.16.13.2.24.15h.05l.14.17c.03.03.04.07.05.1.01.21-.04.4-.16.56a.62.62 0 0 0-.23-.37.17.17 0 0 1-.06-.09l-.08-.25c-.04-.1-.08-.1-.14-.02l-.03.05c-.07-.1-.08-.27-.02-.5.04-.17 0-.34-.16-.52a.12.12 0 0 0-.08-.04c-.23-.02-.38.1-.45.35a.78.78 0 0 1 .1-.56l.18.03c.03 0 .06 0 .08-.03.04-.05.1-.08.18-.09Z" fill="#578B9E"/><path d="M10.8 7.17c.03.04.08.06.15.05.07 0 .07.02.02.05a.09.09 0 0 1-.08.02c-.02 0-.05 0-.07.02a.09.09 0 0 0-.02.06c0 .03.01.04.04.05.02 0 .03.02.04.03l-.42-.08c-.06-.01-.06-.03 0-.06l.33-.14ZM11.44 7.52l.16.44c.02.05.02.1 0 .15a.22.22 0 0 0-.03.08c-.01.15.14.32.23.42a.1.1 0 0 1 .03.08c0 .19-.06.36-.15.52-.1.16-.1.32-.19.48a.12.12 0 0 0-.01.1l.02.06c.01.04.03.04.05 0 .02-.05.05-.1.1-.14.03-.03.06-.03.09.02.16.26-.22.66-.22.94v.2c0 .03.02.07.04.1.18.24.1.53-.06.77l-.39.51a.1.1 0 0 1-.09.04l-.42-.07a.1.1 0 0 0-.09.03c-.17.2-.27.43-.59.32.23-.1.4-.22.53-.4a.1.1 0 0 1 .08-.04c.15-.02.3-.02.46 0 .16.01.18-.03.07-.14a.73.73 0 0 1-.15-.2c-.01-.04 0-.07.02-.09a.2.2 0 0 0 .06-.07.04.04 0 0 0 0-.03.04.04 0 0 0-.03-.02c-.02 0-.03-.02-.03-.04 0-.04.02-.06.06-.03a.2.2 0 0 0 .19.02.08.08 0 0 0 .05-.08c0-.27.06-.54-.06-.79-.08-.2-.13-.4-.14-.6 0-.06-.02-.1-.04-.15-.07-.12-.05-.23.05-.35.21-.23.94-.75.49-1.1-.06-.04-.07-.1-.01-.14a.11.11 0 0 0 .03-.11c0-.04-.02-.07-.05-.08-.03-.02-.06-.01-.1 0l-.08-.03-.01-.02c.07-.04.09-.09.05-.15a.92.92 0 0 0-.48-.48c.17-.07.32-.03.45.14a.05.05 0 0 0 .05.01h.02l.01-.03.03-.05ZM11.85 7.44a.02.02 0 0 1 .02-.02h.02c.02 0 .03.02.05.03l.04.05.01.06v.07l-.01.03a.2.2 0 0 1-.07.1.13.13 0 0 1-.1.03h-.02a.02.02 0 0 1-.01-.01v-.01l.07-.33ZM7.78 7.47l-.02-.01.02-.02c.2 0 .39.03.57.1l.03.03.01.05v.02a.04.04 0 0 1-.06.04c-.18-.1-.36-.18-.55-.2Z" fill="#16A4B9"/><path d="M6.59 7.78c0 .02-.01.04-.03.05-.03.03-.04.02-.04-.02 0-.1.04-.2.12-.3a.03.03 0 0 1 .05.04.4.4 0 0 1-.1.23Z" fill="#578B9E"/><path d="M9.85 7.81c-.03 0-.05 0-.05-.03.24-.19.49-.27.74-.25.15.01.15.02 0 .03h-.14c-.04 0-.07 0-.1.02l-.45.23Z" fill="#F7EDD2"/><path d="M11 7.83c.09.02.14.06.16.13a.3.3 0 0 0-.08.16.1.1 0 0 1-.05.08.65.65 0 0 0-.17.14c-.03.04-.03.05.02.02.14-.09.36-.11.44-.26l.08.03a.65.65 0 0 1-.48.31.2.2 0 0 1-.1 0 .16.16 0 0 0-.11 0 .6.6 0 0 1-.48-.04c-.19-.1-.17-.15.04-.14a2 2 0 0 0 .59-.06l.04-.03v-.03c0-.03-.01-.04-.04-.04h-.16c-.06-.01-.06-.03 0-.05.09-.05.17-.04.24.02.03.03.05.02.07-.01.04-.07.04-.15 0-.23ZM8.27 11.18c.27.12.43.24.5.35-.15.2-.42.27-.8.22a.46.46 0 0 0-.39.12.35.35 0 0 0-.09.12c-.05.14 0 .2.14.21.24.02.45.12.63.3.02.03.05.04.09.04.18 0 .58.07.57-.26a.1.1 0 0 0-.06-.08.1.1 0 0 0-.1.02.21.21 0 0 1-.12.05c-.05.01-.06 0-.02-.04l.04-.03c.04-.04.04-.07-.01-.1l-.05-.02c-.03-.02-.04-.05-.02-.08a.1.1 0 0 1 .1-.05c.03 0 .05.01.07.04.1.13.22.2.37.23.05 0 .06.03.03.07a.13.13 0 0 0-.02.09.08.08 0 0 0 .06.07c.05.01.1 0 .14-.04.02-.01.05 0 .1.03a.03.03 0 0 1 0 .03.03.03 0 0 1-.01.03c-.11.03-.17.1-.28.13-.41.1-.76.07-1.04-.06a.72.72 0 0 0-.5-.26c-.15-.01-.25-.04-.3-.08a.34.34 0 0 1-.09-.26.05.05 0 0 0-.08-.04l-.05.05c-.04.03-.04.06 0 .09l.35.39v.01h-.01l-.4.04-.03-.02a29 29 0 0 1-.5-1 .96.96 0 0 0-.2-.28.72.72 0 0 1-.21-.51.07.07 0 0 0-.05-.07c-.03-.02-.06 0-.09.03a5.6 5.6 0 0 1-.08-1.3l-.04-.02.07-.18h.04c.04 0 .06-.02.07-.06v-.13c.04.15.05.27.13.4.08.14.15.28.2.43 0 .02.02.03.04.03l.02-.01c.01-.01.02-.03.01-.05A1.9 1.9 0 0 0 6.2 9c-.03-.04-.05-.06-.08-.07-.04 0-.08.01-.12.04l-.03-.01a.1.1 0 0 1-.03-.06c-.04-.3 0-.6.08-.91.03-.1.06-.1.08 0 .04.14.04.29.02.44 0 .04 0 .08.02.12.14.24.28.59.52.74.25.16.73.77.42 1.07a.06.06 0 0 1-.05.01.06.06 0 0 1-.04-.02l-.32-.52c-.09-.14-.14-.13-.14.03-.01.18 0 .4.1.55.11.17.17.37.18.58 0 .04.01.07.03.1l.04.08c0 .06 0 .06-.03.02a.2.2 0 0 0-.07-.07c-.04-.02-.06-.01-.07.03-.03.23.01.43.13.6.02.04.01.06 0 .08a.11.11 0 0 0-.03.12c.01.05.04.05.07.02.02-.01.03-.04.02-.06a.07.07 0 0 1 .03-.08.37.37 0 0 0 .11-.12c.03-.06.05-.06.06.01a.1.1 0 0 0 0 .03c.02.03.04.04.07.03.2-.07.33-.18.4-.33 0-.04.03-.05.07-.03l.03.02v.03l-.07.15c-.02.05 0 .07.04.05l.65-.19c.03 0 .05-.03.05-.06a.69.69 0 0 0-.07-.24Z" fill="#578B9E"/><path d="M11.16 7.96c.05.06.1.1.15.12v.02c-.07.15-.3.17-.43.26-.05.03-.05.02-.02-.02.05-.06.1-.1.17-.14a.1.1 0 0 0 .05-.08.3.3 0 0 1 .08-.16Z" fill="#F7EDD2"/><path d="M5.84 8.08a.83.83 0 0 1-.19.54h-.01l-.02-.02c-.02-.02-.02-.04 0-.06a.21.21 0 0 0 .06-.22.13.13 0 0 1 .02-.1.4.4 0 0 1 .14-.14Z" fill="#578B9E"/><path d="M6.61 8.09c.02.02.04.03.05.02.03.08.07.12.1.12a.34.34 0 0 1-.27.09c-.02 0-.03-.01-.02-.03v-.03l.01-.01c.1 0 .15-.03.14-.12-.01 0-.02 0-.01-.04Z" fill="#16A4B9"/><path d="m7.3 8.51-.13-.14c.06-.04.14-.06.24-.03l.1-.01c.13-.05.26-.08.4-.08.04 0 .07-.02.1-.04.05-.05.1-.07.17-.07.1-.01.12.02.04.1-.25.22-.56.31-.93.27Z" fill="#0E1C4D"/><path d="M5.06 8.2c.09.07.08.1-.03.09l-.18-.01a.03.03 0 0 1-.03-.05c.07-.08.15-.09.24-.02Z" fill="#578B9E"/><path d="M12.29 8.24c.13.16.15.32.05.47a.72.72 0 0 1-.05-.47Z" fill="#16A4B9"/><path d="M9.96 9.13c0 .1.02.19.08.27a.6.6 0 0 0 .08.4c0 .17-.03.3-.09.38a.64.64 0 0 0-.25.1.1.1 0 0 1-.09.01l-.1-.03-.75-.42a.1.1 0 0 0-.1 0l-.16.08c-.03.02-.07.01-.1-.02a.82.82 0 0 1-.17-.25.03.03 0 0 0-.04 0l-.44.63c.05-.28.2-.59.44-.93-.04.01-.04-.04 0-.16l.1-.24c.01-.02.02-.03.04-.03h.03c-.01.06 0 .08.06.08l.09.01a.75.75 0 0 0-.26.53c0 .07.02.08.06.02.07-.07.13-.16.18-.25a.06.06 0 0 1 .1 0c.09.1.16.14.24.12.28.12.48.06.61-.16.03-.06.04-.1.04-.14a2.1 2.1 0 0 0-.14-.68l.03-.05c.06-.08.1-.08.14.02l.08.25c.01.04.03.07.06.09.12.09.2.21.23.37Z" fill="#091536"/><path d="M11.83 8.52a.29.29 0 0 0-.07-.1c-.05-.04-.04-.08.03-.1l.09.01a.07.07 0 0 1 .05.09l-.02.1c-.02.07-.05.07-.08 0Z" fill="#16A4B9"/><path d="m7.17 8.37.12.14c-.14 0-.27-.02-.41-.08-.04-.01-.04-.03 0-.05.07-.04.17-.04.29 0ZM8.59 9.01A.19.19 0 0 0 8.5 9c-.05 0-.07-.02-.06-.08h-.03a.05.05 0 0 0-.04.03l-.1.24c-.07-.2-.08-.41-.03-.63 0-.02.02-.03.04-.03l.02.01c.02 0 .02.02.02.03l.02.23a.05.05 0 0 0 .02.04.06.06 0 0 0 .04.01c.04 0 .07-.02.1-.04a.06.06 0 0 1 .07 0c.07.05.08.12.02.2ZM5.72 8.65l.12.27c-.09.02-.15.01-.19-.02-.03-.03-.03-.05-.01-.08l.08-.17Z" fill="#578B9E"/><path d="M6 8.97c.04-.03.08-.04.12-.04.03 0 .05.03.08.07.12.24.19.5.2.77l-.01.05h-.02c-.02.01-.04 0-.04-.02-.05-.15-.12-.3-.2-.42-.08-.14-.1-.26-.13-.4Z" fill="#091536"/><path d="M5.15 9.27c.06.01.12.08.15.2.01.04.03.04.05.02a.25.25 0 0 1 .2-.07c-.01.06 0 .1.02.14.02.03.04.03.07 0l.18-.22c.03 0 .04 0 .04.02-.03.42 0 .85.08 1.3-.13.13-.24.1-.34-.06 0-.11-.07-.15-.2-.13l-.27-.85-.13-.6C5 9 5 8.98 5.04 9c.04.03.08.12.1.27Z" fill="#F7EDD2"/><path d="M5.54 9.42a.25.25 0 0 0-.2.07c-.01.02-.03.02-.04-.01-.03-.13-.09-.2-.15-.21.12-.2.25-.27.38-.23.03.01.04.03.04.07l-.03.3Z" fill="#578B9E"/><path d="M12.94 9.6a.62.62 0 0 0-.28.26.07.07 0 0 1-.07.04l-.1-.01c.06 0 .07-.04.04-.1a.68.68 0 0 1-.06-.42s0-.02.02-.02.02.01.02.03c0 .07 0 .15.03.22a.06.06 0 0 0 .1.02.35.35 0 0 0 .05-.28c0-.04.01-.07.06-.06.16.01.23.16.19.31Z" fill="#16A4B9"/><path d="M8.27 9.35c-.24.34-.4.65-.44.93-.07.18-.17.35-.32.52a.11.11 0 0 1-.1.05c-.04 0-.06-.03-.04-.08a.27.27 0 0 0 0-.24c-.02-.03-.01-.04.02-.03.08.03.15-.01.2-.12l.29-.67c.07-.17.2-.3.4-.36Z" fill="#578B9E"/><path d="M10.04 9.4c.16.16.3.33.4.51.06.1.05.16.05.26 0 .04.02.08.04.1l.27.44c.02.02.01.03 0 .04l-.03.01-.65-.96a.6.6 0 0 1-.08-.4Z" fill="#16A4B9"/><path d="M12.94 9.6c0 .15-.03.32-.1.5-.03-.01-.05 0-.07.03v.07c0 .18-.06.3-.2.38l-.2-.09a.56.56 0 0 1 .12-.6h.1c.03.01.06 0 .07-.03.05-.1.15-.2.28-.27ZM6.26 10.59c-.04-.19-.18-.33-.18-.52a.95.95 0 0 0-.04-.25c-.01-.04 0-.06.04-.03.04.02.06.06.07.1.01.27.1.5.25.67.12.14.12.34.15.52.04.22.01.23-.1.03a2.3 2.3 0 0 1-.19-.52Z" fill="#F7EDD2"/><path d="M12.93 10.07c.03 0 .04.02.03.05 0 .07 0 .12-.03.15-.04.04-.05.03-.06-.01l-.03-.16c.03 0 .06 0 .09-.03Z" fill="#F7EDD2"/><path d="M10.03 10.18c0 .1-.06.15-.17.16-.15 0-.24-.02-.28-.08l.11.03a.1.1 0 0 0 .1 0 .64.64 0 0 1 .24-.11Z" fill="#16A4B9"/><path d="M5.4 10.47c.13-.02.2.02.2.13l-.1.01-.1-.14Z" fill="#578B9E"/><path d="m12.38 10.5.18.08a.23.23 0 0 1-.13.07c-.04 0-.06-.01-.06-.05v-.1Z" fill="#16A4B9"/><path d="m11.84 10.7.02-.14c0-.06.02-.06.04 0v.08c-.07.15-.07.28-.02.38.03.05.02.09-.04.11l-.02.01c-.05.03-.1.02-.13-.03-.05-.09-.06-.2-.03-.32.01-.04.03-.05.07-.05l.04.01c.04.01.06 0 .07-.05Z" fill="#578B9E"/><path d="M10.72 11.06a.6.6 0 0 1-.41-.24.1.1 0 0 0-.09-.04l-.21-.02c.03-.03.04-.09.02-.16 0-.03 0-.06.04-.06a.1.1 0 0 1 .1.02c.18.16.36.28.54.35.03.01.04.03.05.06.01.03 0 .06-.04.1Z" fill="#16A4B9"/><path d="M5.6 10.6c.1.17.22.19.34.06.03-.04.06-.05.1-.03.02.01.04.04.04.07 0 .22.08.4.2.51.08.08.15.17.2.29a29.09 29.09 0 0 0 .54 1l.4-.02a.01.01 0 0 0 .01-.02l-.36-.4c-.03-.02-.02-.05 0-.08l.06-.05.02-.02a.05.05 0 0 1 .06.06c0 .1.03.2.1.26.04.04.14.07.29.08.2.02.37.1.5.26a.17.17 0 0 1-.13.08l-.07.05-.09.08-.13.2c-.02.02-.02.05 0 .08.06.07.12.12.2.14.06-.01.1 0 .14.03l.04.12c0 .14.03.23.09.28l.18.24c0 .05-.06.06-.2.03a2.55 2.55 0 0 0-.26-.24h-.03l-.02.02v.02a28.44 28.44 0 0 1 .87.75h.04v-.05l.41.1a2 2 0 0 0 .41.07l.46.04-.26.18c-.28.11-.53.1-.75-.03-.2-.12-.37-.24-.54-.37a4.4 4.4 0 0 0-.53-.37 3.69 3.69 0 0 1-1.27-1.2c-.07-.4-.2-.76-.38-1.07-.02-.02-.04-.03-.06 0l-.05.03a1.8 1.8 0 0 1-.68-1.17.31.31 0 0 1 .11-.01ZM10.01 10.76l.21.02a.1.1 0 0 1 .09.04c.1.14.24.22.41.24a.2.2 0 0 1-.02.1l-.01.01a.07.07 0 0 1-.08 0 2.47 2.47 0 0 0-.72-.28 2.42 2.42 0 0 0-.76-.04c-.3.03-.6.1-.88.17-.18.05-.35.14-.52.27a.07.07 0 0 1-.1-.04l-.02-.05.4-.3c0-.03.02-.05.04-.07.03-.03.05-.03.07.01l.02.04c.01.03.04.04.07.03l.5-.16c.12.05.2.02.25-.08.04-.03.1-.02.2.05.04.03.08.02.11 0 .05-.06.1-.1.17-.12a.14.14 0 0 1 .1 0l.47.16Z" fill="#091536"/><path d="m10.14 11.15-.64.28c-.32-.07-.57-.04-.73.1-.07-.11-.23-.23-.5-.35a10.14 10.14 0 0 0 1.7-.12c.13.01.18.04.17.1Z" fill="#091536"/><path d="M10.14 11.15c0 .17.07.26.25.28.2.03.2.07.32.18.06.04.05.06-.02.06l-.37-.02c-.15-.21-.33-.23-.53-.07-.08.01-.18-.04-.29-.15l.64-.28Z" fill="#578B9E"/><path d="M10.32 11.65a.78.78 0 0 1-.53-.07c.2-.16.38-.14.53.07Z" fill="#0E1C4D"/><path d="M11.12 12.36c.22-.2.26-.48.5-.65.06-.05.09-.03.06.04-.08.28-.18.64-.52.68-.1.02-.11 0-.04-.07Z" fill="#16A4B9"/><path d="m6.66 12.81-.22-.33c.06-.17.03-.24-.08-.21a1.1 1.1 0 0 0-.19-.5l.05-.03c.02-.02.04-.01.06.01.18.3.3.66.38 1.06Z" fill="#578B9E"/><path d="M9.2 11.96c-.02-.03-.01-.04.02-.05h.1c.04 0 .06.03.04.07 0 .01 0 .03-.02.04-.02.03-.05.03-.08 0l-.05-.06Z" fill="#8B8B8B"/><path d="M9.75 12.07c-.06.11-.14.16-.25.13a.03.03 0 0 1-.03-.03.03.03 0 0 1 .01-.03.5.5 0 0 1 .23-.12c.04-.01.06 0 .04.05ZM6.44 12.48a4.95 4.95 0 0 0 0 1.94A5.74 5.74 0 0 1 4.9 13.4c.51-.1.93-.33 1.26-.72.08-.1.14-.23.2-.41.1-.03.13.04.07.2Z" fill="#091536"/><path d="m6.44 12.48.22.33c.3.49.73.89 1.27 1.2.18.11.36.24.53.38.17.13.35.25.54.37a.84.84 0 0 1-.28.17c-.02.04-.06.06-.12.06a5.47 5.47 0 0 1-2.17-.57 4.95 4.95 0 0 1 .01-1.94Z" fill="#C3BBA5"/><path d="M7.97 12.65c.09.05.13.1.13.17 0 .04-.02.05-.05.04-.09-.05-.13-.1-.15-.16l.07-.05Z" fill="#16A4B9"/><path d="M11.92 14.25a2.6 2.6 0 0 0-.85-.18.23.23 0 0 0-.18.06c-.15.15-.3.23-.47.22.54-.37 1.23-.88 1.34-1.52.04-.23.08-.23.1 0 .05.44.07.91.06 1.42Z" fill="#F7EDD2"/><path d="m7.81 12.78.21.23c.03.03.03.05 0 .08l-.14.1a.33.33 0 0 1-.2-.13c-.02-.03-.02-.06 0-.09l.13-.19Z" fill="#16A4B9"/><path d="m7.27 13 .15.06c.04.02.04.04 0 .04-.09 0-.15-.02-.17-.08-.02-.04-.01-.04.02-.03Z" fill="#578B9E"/><path d="M8.15 13.63c.15.07.25.18.3.33 0 .03-.01.04-.04.02s-.06-.05-.08-.11l-.18-.24Z" fill="#16A4B9"/><path d="M11.92 14.25a5.62 5.62 0 0 1-2.09.69c-.08-.06-.1-.11-.08-.15l.26-.18.41-.26c.16 0 .32-.07.47-.22.05-.04.11-.07.18-.06.28.01.57.07.85.18Z" fill="#C3BBA5"/><path d="M9 14.76c.22.13.47.14.75.03-.02.04 0 .09.08.15L8.78 15c-.02 0-.04 0-.05-.03v-.04a.84.84 0 0 0 .27-.17Z" fill="#F73737"/></svg>