<!-- by TradingView --><svg width="18" height="18" xmlns="http://www.w3.org/2000/svg"><path fill="#4682B4" d="M0 0h18v18H0z"/><circle cx="9" cy="9" r="6" fill="#000"/><circle cx="9" cy="9" r="5" fill="#fff"/><path fill="#777" d="M4 8.5h10v1H4z"/><path fill="#777" d="M8.499 14V4h1v10z"/><path d="M11.178 5.415c-1.915-.299-3.71-.124-4.37 0-.196.897-.868 1.223-1.18 1.273-.101 4.341 2.267 6.004 3.392 6.437 3.145-1.336 3.516-4.848 3.308-6.437-.814-.28-1.106-.965-1.15-1.273z" fill="#000"/><path d="M10.694 6.134c-1.49-.242-2.886-.101-3.398 0-.154.726-.676.99-.919 1.03-.079 3.514 1.763 4.86 2.639 5.211 2.446-1.082 2.734-3.924 2.572-5.21a1.367 1.367 0 01-.894-1.031z" fill="#E2C96D"/><path fill="#000" d="M8.499 11.5v-4h1.004v4z"/><path fill="#000" d="M7 7h4v1H7z"/></svg>