<!-- by TradingView --><svg width="18" height="18" viewBox="0 0 18 18" xmlns="http://www.w3.org/2000/svg"><path fill="url(#alvsjwfuc)" d="M0 0h18v18H0z"/><path fill-rule="evenodd" d="M5.46 5h7.03L14 7.7 10.43 14H7.51L4 7.7 5.46 5Zm2.47.44H5.84l-.55.76H7.4l.52-.76ZM4.49 7.7l.47-.65 1.91 3.35h2.31l-.4.74H6.47L4.49 7.7Zm.8-.9H7.2l-.49.8.79 1.45h1.28l.49.92H7.2L5.29 6.8Zm3.18-1.36L7.2 7.6l.45.78L8.9 6.2h3.75l-.48-.76H8.47Zm-.54 3.18 1.25-1.98h3.46l-.97 1.73-.5-.78h-1.7L8.9 8.62h-.96Zm1.34.23.4-.65 1.11 2-1.9 3.08-.81-1.68h1.11l.73-1.4-.64-1.35Zm.76-.88h.87l1.26 2.1-1.99 3.46H9.4l1.93-3.45-1.29-2.11Zm3.01-1.03-1.1 1.91.46.76 1.1-1.91-.46-.76ZM6.71 11.6h.7l1.15 1.93h-.77L6.71 11.6Z" fill="url(#blvsjwfuc)"/><defs><linearGradient id="alvsjwfuc" x1="3.35" y1="3.12" x2="21.9" y2="24.43" gradientUnits="userSpaceOnUse"><stop stop-color="#1A1E21"/><stop offset="1" stop-color="#06060A"/></linearGradient><linearGradient id="blvsjwfuc" x1="9" y1="5" x2="9" y2="14" gradientUnits="userSpaceOnUse"><stop stop-color="#6409EA"/><stop offset="1" stop-color="#0CA0F6"/></linearGradient></defs></svg>