<!-- by TradingView --><svg width="18" height="18" viewBox="0 0 18 18" xmlns="http://www.w3.org/2000/svg"><path fill="#780014" d="M0 0h18v18H0z"/><path d="M7.4 4 9 5.6 10.6 4H14v3.38L12.38 9 14 10.62V14h-3.4L9 12.4 7.4 14H4v-3.38L5.61 9 4 7.38V4h3.4Z" fill="#EF0027"/><path d="m9 12 .9-4.8c.8 0 1 .16 1.03.52 0 0 .54-.2.8-.6-1.05-.5-2.13-.52-2.13-.52l-.6.75-.6-.75s-1.08.02-2.14.51c.27.41.81.61.81.61.04-.36.23-.52 1.03-.52L9 12Z" fill="#fff"/><path d="M9 6.36c.97 0 1.93.19 2.81.58L12 6.6A8.22 8.22 0 0 0 9 6c-.88 0-1.9.17-3 .6l.19.34A6.8 6.8 0 0 1 9 6.36Z" fill="#fff"/></svg>