<!-- by TradingView --><svg width="18" height="18" viewBox="0 0 18 18" xmlns="http://www.w3.org/2000/svg"><path fill="#F0F3FA" d="M0 0h18v18H0z"/><path fill-rule="evenodd" d="M13.77 5.32A5.96 5.96 0 0 0 9.78 3H8.21c-1.27.19-2.35.7-3.26 1.54A6 6 0 0 0 3 8.7v.58a5.96 5.96 0 0 0 1.38 3.55 5.96 5.96 0 0 0 5.9 2.05A6.05 6.05 0 0 0 15 9.43v-.91a6 6 0 0 0-1.23-3.2Zm-2.5-.76c.03-.05.04-.05.04.02L11.3 5.8c0 .05-.02.05-.05.02l-.1-.11c-.01-.02-.03-.02-.04 0-.16.3-.33.6-.52.89-.25.4-.68.62-1.13.8-.05.02-.09.04-.1.1-.1.26-.2.51-.28.76-.03.07-.05.07-.08 0a4.95 4.95 0 0 0-.4-.8 7.04 7.04 0 0 1-.73-.34c-.5-.26-.64-.6-.83-1.05l-.05-.1c0-.02-.02-.03-.04 0l-.14.14c-.05.05-.07.04-.07-.02L6.7 4.94c0-.05.01-.05.04-.01l.54.72c.02.02.01.04 0 .06l-.08.08a.06.06 0 0 0-.02.04l.01.03c.41.47.78.86 1.44.9a.02.02 0 0 0 .01 0 .02.02 0 0 0 0-.01V4.44l-.01-.02-.84.2a.03.03 0 0 1-.03-.01.03.03 0 0 1-.01-.03v-.7a.03.03 0 0 1 .04-.02l.82.16c.02 0 .04-.01.04-.03v-.9a.03.03 0 0 0-.04-.03 5.3 5.3 0 0 0-4.95 4.4 5.41 5.41 0 0 0 3.78 6.19c2.1.62 4.33-.1 5.7-1.78a5.42 5.42 0 0 0-3.1-8.72 3.4 3.4 0 0 0-.65-.09.04.04 0 0 0-.04.04v.87c0 .02.02.04.04.03l.7-.14a.04.04 0 0 1 .03 0 .04.04 0 0 1 .02.04l.02.56a.03.03 0 0 1-.01.02.03.03 0 0 1-.02.01l-.74-.06c-.03 0-.04 0-.04.03v2.26a.03.03 0 0 0 .03.03h.01c.7-.2 1.1-.6 1.5-1.2.01-.03.01-.05-.01-.07l-.09-.06-.02-.03.01-.03.48-.8Z" fill="#188A7F"/><path d="M11.92 8.7c-.03.02-.05.03-.07.02a5.58 5.58 0 0 0-2.57.04.3.3 0 0 0-.12.07.05.05 0 0 1-.06.02.05.05 0 0 1-.02-.03c.23-.25.4-.4.74-.36.63.07 1.36-.23 1.23-1.01v-.01a.02.02 0 0 1 .02-.02c.35.16.58.4.7.74.06.17.11.36.15.54Zm-3.08.17a2.9 2.9 0 0 1-.73.22 1.9 1.9 0 0 0-.23-.59.52.52 0 0 0-.24-.22c-.12-.05-.11-.08.02-.08.54-.01 1 .08 1.18.67Zm-2.85.63.04.18c-.06 0-.08.05-.03.13.03.06.06.11.11.15-.4.56-.9.96-1.5 1.21-.05.02-.06 0-.04-.04.15-.28.3-.57.42-.86.14-.32.24-.67.1-1a3.4 3.4 0 0 0-.5-.83c-.05-.07-.04-.1.05-.09.6.1 1.08.64 1.35 1.15Z" fill="#607D8B"/><path d="m11.92 8.7.02.02c0 .02.02.03.04.04.62.18 1.22.46 1.8.83l-1.05-.18a.21.21 0 0 0-.05-.13.2.2 0 0 0-.12-.08c-.14-.03-.23.04-.26.23v-.06l-.01-.03h-.02l-.36-.08c-.04 0-.06 0-.08.04-.25.61-.14 1.1.34 1.47l-.38.1a.13.13 0 0 1-.08-.04.92.92 0 0 1-.23-.49c-.07-.42-.04-.74-.06-1.12 0-.02 0-.03-.03-.03-.18 0-.37 0-.54.02-.37.05-.73.1-1.09.17a20.94 20.94 0 0 0-1.03.06c-.1.02-.1.05-.03.08-.36.07-.8.08-1.33.02-.39-.04-.84 0-1.34.14l-.04-.18 2.12-.41c.24-.04.49-.11.73-.22a.8.8 0 0 0 .24-.05l.03.03a.05.05 0 0 0 .05-.02.3.3 0 0 1 .13-.07c.85-.21 1.7-.22 2.56-.04.02 0 .04 0 .07-.02Z" fill="#7D91A2"/><path d="M11.48 10.34c-.25.04-.53.04-.84.02-.85-.06-1.58-.13-2.2-.21-.16-.02-.55-.06-.7.05l-.16.12-.29-.07h-.03l-.02.01a7.69 7.69 0 0 0-1.13-.3.58.58 0 0 1-.11-.15c-.04-.08-.03-.13.03-.13.5-.13.95-.18 1.34-.14.52.06.97.05 1.33-.02.3.25.49.42.88.46.44.05.84.1 1.23.12.03 0 .04 0 .03-.04-.04-.17.07-.31.18-.43a.08.08 0 0 0-.04-.14c-.37-.13-.83-.1-1.22-.11l1.09-.17c.17-.02.36-.03.54-.02.02 0 .03.01.03.03.02.38 0 .7.06 1.12Z" fill="#E8E8E8"/><path d="M12.73 9.41c-.05.33-.4.3-.43.02.03-.19.12-.26.26-.23a.2.2 0 0 1 .12.08.3.3 0 0 1 .05.13Z"/><path d="M12.3 9.43c.03.28.38.3.43-.02l1.05.18-.6.26c-.06.02-.06.04 0 .05l.46.08c.06.01.07.04 0 .07a9 9 0 0 1-1.47.72c-.48-.37-.6-.86-.34-1.47.02-.03.04-.05.08-.04l.36.07.02.01.01.03v.06Z" fill="#E8E8E8"/><path d="M9.76 9.38c.4 0 .85-.02 1.22.1a.08.08 0 0 1 .04.15c-.11.12-.22.26-.18.43 0 .03 0 .05-.03.04l-1.23-.12c-.4-.04-.59-.21-.88-.46-.08-.03-.07-.06.03-.08l.07-.01c.32-.03.64-.04.96-.05Z" fill="#607D8B"/><path d="M11.48 10.34c.03.19.1.35.23.49.02.02.05.04.08.04-.02.02-.02.04-.01.05l-.04-.03-.65.08c-.04 0-.05.02-.06.06a.1.1 0 0 0 0-.05c0-.02-.02-.03-.04-.02-.5.04-.98.02-1.42-.06-.44-.08-.94-.21-1.5-.4l-.49-.18.15-.12c.16-.11.55-.07.71-.05.62.08 1.35.15 2.2.21.3.02.59.02.84-.02Z" fill="#BCC9D5"/><path d="m7.58 10.32.5.19c-.33.19-.71.37-1.06.14a.03.03 0 0 1-.01-.03.03.03 0 0 1 .01-.03.4.4 0 0 0 .22-.33h.02l.03-.01.3.07Zm4.2.6a.43.43 0 0 1-.13.37c-.18.18-.7.54-.96.48h-.02a.04.04 0 0 1-.01-.05l.01-.02c.23-.17.35-.4.36-.67 0-.04.02-.05.06-.06l.65-.08c.01 0 .02 0 .04.03Z" fill="#607D8B"/></svg>