<!-- by TradingView --><svg width="18" height="18" viewBox="0 0 18 18" xmlns="http://www.w3.org/2000/svg"><path fill="#28317C" d="M0 0h18v18H0z"/><path fill-rule="evenodd" d="M6.97 4.82a61.35 61.35 0 0 1-1.38-.8.1.1 0 0 0-.12 0l-1.43.81a.05.05 0 0 0-.03.04L4 6.3c0 .1 0 .18.02.23a.3.3 0 0 0 .15.16 41.94 41.94 0 0 1 1.17.68.3.3 0 0 0 .22.05.8.8 0 0 0 .22-.1L7 6.61a.05.05 0 0 0 .02-.05V4.92a.1.1 0 0 0-.06-.1Zm-1.36-.27a.17.17 0 0 0-.16 0l-.93.52a.1.1 0 0 0-.05.09 30.04 30.04 0 0 0 0 1.11c0 .04 0 .07.04.1a85.04 85.04 0 0 0 1 .54c.04 0 .07 0 .1-.02l.92-.52a.1.1 0 0 0 .05-.09 32.55 32.55 0 0 0 0-1.11.1.1 0 0 0-.05-.1l-.92-.52Z" fill="#02083A"/><path d="M13.14 5.25c-.05 0-.07.03-.07.07v.16c0 .04.02.06.06.06h.47c.05 0 .1.05.16.12.13.15.17.34.14.55a.82.82 0 0 1-.21.38.1.1 0 0 1-.08.04h-.59c-.12 0-.22-.1-.29-.27-.03-.1-.04-.16 0-.2 0-.02.01-.03.03-.03h.28c.04 0 .06.02.06.06 0 .04.02.08.04.11 0 .02.02.03.03.03.08.03.17.03.26.02.05 0 .07-.04.07-.09v-.18c0-.05-.02-.07-.07-.07H13c-.02 0-.03 0-.05-.02a.57.57 0 0 1-.26-.46.7.7 0 0 1 .19-.51c.05-.06.1-.08.16-.08h.1c.3-.02.47 0 .54.06.1.08.16.19.2.33 0 .02 0 .04-.02.06a.07.07 0 0 1-.06.03h-.26c-.01 0-.03-.01-.03-.03l-.07-.11a.05.05 0 0 0-.04-.03h-.27ZM5.09 5.73v.2c.01.03.03.06.06.08l.32.19h.05L5.84 6c.04-.03.09-.03.14 0l.14.09c.05.03.05.06 0 .09l-.56.33a.11.11 0 0 1-.12 0l-.6-.35a.1.1 0 0 1-.04-.09 53.06 53.06 0 0 1 0-.7.1.1 0 0 1 .05-.09l.59-.34a.11.11 0 0 1 .12 0l.56.33c.05.03.05.06 0 .1l-.14.08a.13.13 0 0 1-.14 0l-.31-.19a.05.05 0 0 0-.06 0l-.32.19a.1.1 0 0 0-.05.08l-.01.2Z" fill="#02083A"/><path fill-rule="evenodd" d="m8.16 6.8.4-.05V6.6c0-.02 0-.03-.02-.03h-.18c-.03 0-.05-.01-.06-.04l-.14-.4a.09.09 0 0 1 .01-.09l.03-.04c.07-.1.11-.18.12-.23V5.4c0-.1-.05-.22-.15-.34-.07-.08-.13-.13-.18-.13h-.85l-.02.04v1.66c0 .05.02.07.06.07h.27c.06 0 .08-.03.08-.1v-.39c0-.02.02-.03.04-.03.06 0 .1 0 .13.02.04.02.07.06.1.12l.03.1c.04.15.09.25.13.3.01.03 0 .05-.03.07.09-.02.17-.01.23 0Zm-.6-.94h.3c.05 0 .08-.03.08-.09v-.44c0-.06-.03-.09-.09-.09h-.28c-.06 0-.09.03-.09.09v.44c0 .06.03.1.09.1ZM12.35 6.5c.09-.1.13-.21.13-.35v-.74a.47.47 0 0 0-.14-.34.46.46 0 0 0-.34-.14h-.25a.46.46 0 0 0-.34.14c-.1.1-.14.21-.14.34v.75c0 .13.05.24.14.34.1.1.21.14.34.14h.26c.13 0 .24-.05.34-.14Zm-.32-1.18c0-.05-.02-.08-.05-.08h-.2c-.04 0-.05.03-.05.08v.86c0 .04 0 .08.02.1.02.03.04.05.06.05h.13c.03 0 .05-.02.06-.05a.2.2 0 0 0 .03-.1v-.86Z" fill="#02083A"/><path d="M11.55 7.29a2.5 2.5 0 0 1-.4-.36.18.18 0 0 0-.09-.07h-.12l-.25-.02c-.02 0-.03 0-.03-.02l-.02-.11c0-.02 0-.02-.02-.02l-.33-.02c-.02 0-.02-.01-.03-.02v-.1c0-.03-.02-.04-.04-.04a13 13 0 0 0-1.49-.02c-.08 0-.14-.04-.2-.15a.56.56 0 0 1-.03-.23l-.01-.7c0-.09.05-.2.15-.33l.07-.1a.1.1 0 0 1 .09-.05h.63c.02 0 .05.01.06.03l.05.06c.11.16.17.28.17.37v.83c0 .08.03.1.1.1s.1-.04.1-.11V4.99c0-.04.02-.06.06-.06h.32c.01 0 .03 0 .04.02.03.03.06.07.08.12.1.26.2.47.3.64.02.03.03.03.03 0v-.73c0-.03.02-.05.05-.05h.25c.05 0 .07.02.07.07v1.6c0 .02-.01.03-.04.02a.68.68 0 0 0-.32 0c-.02 0-.02 0-.02.02l.01.02h.34c.02 0 .04.02.06.04.04.1.11.18.2.26a10.13 10.13 0 0 1 .4.44h-.06l-.13-.11Zm-2.3-2.02h-.3a.05.05 0 0 0-.04.05v.9c0 .02.02.04.05.04h.28c.03 0 .05-.02.05-.04v-.9a.05.05 0 0 0-.05-.05Zm1.02.59a4.26 4.26 0 0 0-.01.54c.01.04.04.07.1.08.08.02.16.02.23 0v-.02l-.28-.61c-.02-.05-.04-.05-.04 0Z" fill="#02083A"/><path d="M10.95 6.85c.1.13.06.2-.11.21a.6.6 0 0 1-.16-.01l-.03-.03-.02-.13c0-.02-.01-.03-.03-.03h-.33c-.03 0-.04 0-.04-.03v-.1c0-.07-.02-.09-.08-.07l-.14.06c-.04.01-.06.04-.06.09v.25c0 .02 0 .03-.03.03h-.95c-.02 0-.03 0-.03-.03V6.7c0-.01-.01-.02-.03-.02H8.6c-.01 0-.02 0-.01.02.03.1-.02.16-.14.17l-.13.02c-.02 0-.03 0-.03.03v.06c0 .05-.02.08-.07.07a.57.57 0 0 0-.44.13.46.46 0 0 1-.22.1 3.28 3.28 0 0 0-.1.03.32.32 0 0 1-.3.12c0-.05.02-.1.06-.12a.46.46 0 0 1 .12-.06l.03-.01c.02-.01.03-.02.03-.04a.28.28 0 0 1 .17-.17A.1.1 0 0 0 7.6 7a.4.4 0 0 1 .2-.14 1.41 1.41 0 0 1 .3-.06c.02 0 .04 0 .04-.02a.18.18 0 0 0 .02-.1l.4-.05c0-.08 0-.13.04-.15.02 0 .07-.01.14 0a12.75 12.75 0 0 1 1.49.02c.01 0 .02.01.02.03l.02.1c0 .02 0 .03.02.03l.33.02c.01 0 .02 0 .02.02l.02.12c0 .01.01.02.03.02l.26.02Z" fill="#4CFC49"/><path d="M8.16 6.67c0 .04 0 .07-.02.1l-.03.02a6.43 6.43 0 0 1-.3.06.4.4 0 0 0-.2.14.1.1 0 0 1-.05.03.28.28 0 0 0-.17.17c0 .02-.01.03-.03.04h-.03a.46.46 0 0 0-.12.07.14.14 0 0 0-.05.12c0 .05 0 .1-.03.13l-.23.03a.05.05 0 0 0-.04.03.21.21 0 0 1-.17.12.06.06 0 0 0-.04.03.41.41 0 0 0-.04.23c0 .05.03.07.07.07.16 0 .32.02.47.04.05 0 .09.02.1.06.04.06.08.08.14.06.17 0 .24.08.23.23 0 .05.02.09.05.1.12.1.22.2.3.34.03.04.08.07.16.1l.05.12a.41.41 0 0 0-.17.07.06.06 0 0 0-.02.05l-.02.43c0 .03-.01.05-.03.07l-.47.53v.03l.02.01.03.04.01.17c.08.06.19.1.33.1.02 0 .03.01.04.03l.04.06c0 .02.02.02.03.03.35.04.7.04 1.05.02l.15-.03.04-.03a.34.34 0 0 1 .13-.1.3.3 0 0 0 .1-.08c.03-.04.03-.1 0-.16.02-.05.02-.1 0-.13a.17.17 0 0 0-.06-.1l-.37-.25a1.24 1.24 0 0 1-.29-.2 3.4 3.4 0 0 1-.4-.5l.25.05c0 .05.03.1.06.13a.83.83 0 0 0 .14.12c.12.1.32.12.6.1.03-.01.05-.03.05-.06l.03-.24c0-.03.03-.06.09-.1.1.01.18 0 .22-.03.03-.02.05-.05.05-.09 0-.03.02-.06.05-.07a2.6 2.6 0 0 1 .81-.02c.1 0 .15.05.17.14 0 .01.01.03.03.03l.13.1.15.17.08.09c.05.06.1.1.15.12l.03.03.03.06.04.03a2.08 2.08 0 0 0 .73.01c.07 0 .13-.02.18-.06a.57.57 0 0 1 .1-.06 31.83 31.83 0 0 1 .48-.03c-.02.05-.06.08-.15.08-.02 0-.03 0-.03.02-.02.04-.01.07.02.09.04.02.1.03.17.04.02 0 .03.01.05.03.06.06.14.17.25.32l.17.24a1.03 1.03 0 0 1 .29.53l.01.07c.04.17.06.3.06.4a23.44 23.44 0 0 1-.01.56l.2.3v.05c-.01.02-.03.03-.05.03l-1.39.03a.1.1 0 0 0-.1.06.84.84 0 0 1-.29.35.98.98 0 0 1-.4.12c-.44.06-.7.09-.8.09a5.9 5.9 0 0 1-.73-.06.44.44 0 0 1-.22-.08.46.46 0 0 1-.15-.2c.03-.29.14-.53.33-.73v-.03l-.09-.08a.1.1 0 0 0-.05-.03c-.18-.03-.35-.1-.5-.2-.03 0-.04-.03-.01-.05l.12-.1.15-.1a1.08 1.08 0 0 1 .28-.17l.04-.04c.02-.04.01-.1-.01-.17a.59.59 0 0 0-.13-.17.54.54 0 0 0-.17-.13c-.07-.03-.12-.03-.16 0l-.43.19c-.1.04-.2.06-.3.07a8.56 8.56 0 0 1-1.03.01.29.29 0 0 1-.16-.06.61.61 0 0 0-.3-.1c-.05-.01-.07-.04-.08-.09a.99.99 0 0 0-.05-.2c-.02-.05-.05-.08-.08-.1a11.51 11.51 0 0 0-.55 0c-.03 0-.05.02-.05.05a.72.72 0 0 0-.03.23v.28c.02.28.02.5 0 .67L6.5 12a4.4 4.4 0 0 1-.23.2.6.6 0 0 1-.26.1c-.2.03-.4.1-.6.2a1.4 1.4 0 0 1-.44.07c-.11-.01-.18-.04-.22-.07a.7.7 0 0 0-.28-.14.76.76 0 0 1-.2-.09.35.35 0 0 1-.13-.2c-.05-.18-.02-.33.08-.45.05-.06.12-.12.21-.19.08-.05.2-.1.38-.15l.1-.03c.06-.02.09-.07.08-.17a3.6 3.6 0 0 1 0-.78c.01-.07.04-.13.09-.17.13-.12.23-.14.31-.07l-.05.07-.15.08a.05.05 0 0 0-.02.04l-.03.25v.78c0 .09-.05.13-.13.13-.14 0-.23 0-.3.02a.36.36 0 0 0-.23.14.12.12 0 0 1-.04.03l-.1.06a.05.05 0 0 0-.02.03.6.6 0 0 0-.02.29c-.02.16.05.24.22.22l.13.01.11.11.04.02h.18c.02 0 .03-.02.03-.03.02-.06.05-.08.1-.09h.25l.76-.06c.04 0 .06-.02.07-.06 0-.04.04-.07.12-.09.04 0 .07-.02.09-.03a.06.06 0 0 0 .02-.05v-1.21c0-.1-.01-.26-.05-.45-.01-.06 0-.1.06-.1h.63c.24-.1.45-.23.64-.39.06-.04.1-.1.1-.17v-.55c0-.1-.05-.2-.12-.27a3.18 3.18 0 0 1-.42-.44.4.4 0 0 0-.24-.1 9 9 0 0 1-.32-.02.1.1 0 0 1-.08-.07c-.02-.04-.05-.07-.1-.07-.4-.02-.79-.03-1.18-.02-.14.04-.16.1-.06.18l.1.1c.01.09.02.18 0 .26 0 .02-.02.03-.03.04H5.3a.04.04 0 0 1-.03-.03l-.05-.13a.06.06 0 0 0-.04-.04l-.06.01c-.04.04-.04.09-.01.15l.04.03c.05.02.09.06.1.12 0 .02.01.03.03.04.1.03.14.15.11.34 0 .04-.02.07-.06.1a.53.53 0 0 1-.11.05h-.04a.04.04 0 0 0-.03.04v.02c0 .02 0 .03.02.04.03.01.05.04.08.08-.02.03-.01.06 0 .09a.4.4 0 0 0 .15.1.94.94 0 0 1 .15.1c.1.06.21.09.35.07a1 1 0 0 0 .46-.15c.04-.02.09-.03.15-.02.02 0 .03.01.04.03.02.05.02.09 0 .12-.01.02-.02.03-.04.03a.31.31 0 0 0-.15.1 1.1 1.1 0 0 1-.45.09l-.35-.01c-.01-.1-.05-.14-.14-.15a.1.1 0 0 1-.04-.02c-.1-.07-.2-.2-.3-.37a6.2 6.2 0 0 0-.07-.1.32.32 0 0 1-.05-.18v-.54c0-.09.04-.17.1-.26a.52.52 0 0 0 .08-.2.57.57 0 0 1 .12-.24.06.06 0 0 1 .04-.02l1.13-.02c.03 0 .05-.02.05-.05a.4.4 0 0 1 .2-.29.35.35 0 0 1 .12-.04c.05-.01.08-.03.11-.05a.05.05 0 0 0 .02-.04c0-.06.02-.1.03-.15.01-.02.02-.03.04-.03a.65.65 0 0 0 .2-.1c.04-.03.1-.08.17-.16a.76.76 0 0 1 .24-.16.31.31 0 0 0 .08-.07c.07-.07.14-.1.24-.11.09-.02.17-.01.23 0Z" fill="#0C0C22"/><path d="M10.95 6.85a.25.25 0 0 1 .12 0c.03 0 .06.03.09.06.12.14.24.26.39.37.05.08.15.17.3.27l.11.08c.06.04.16.18.3.41-.08.1-.09.2-.03.35-.04.01-.05.04-.04.08.02.05.08.1.18.12l.14.05c.04.04.08.08.1.15.02.1.03.2.01.3a.76.76 0 0 0-.4.03c-.03 0-.04.02-.04.04v.03c0 .02-.01.03-.03.03-.25.04-.48.03-.7-.03 0-.05-.04-.1-.11-.13a.57.57 0 0 1-.12-.06 3.38 3.38 0 0 1-.06-.07.9.9 0 0 0-.22-.19.22.22 0 0 1-.12-.12.05.05 0 0 0-.04-.03l-.15-.03a3.82 3.82 0 0 0-.8.07l-.15.12a.06.06 0 0 0-.03.03l-.03.08-.03.03c-.28.03-.55.03-.82 0a.4.4 0 0 1-.18-.06.53.53 0 0 1-.14-.13.85.85 0 0 0-.83-.25c.01-.15-.06-.23-.23-.23l.02-.55.03-.07c0-.02.02-.03.04-.03h.58c.1 0 .11-.04.04-.1-.02-.03-.06-.04-.14-.04-.03 0-.04-.02-.04-.05v-.12c0-.03.03-.04.06-.05h.32c.05 0 .07-.03.08-.07 0-.1.03-.2.06-.28.12 0 .17-.06.14-.17 0-.01 0-.02.02-.02h.31c.02 0 .03 0 .03.02v.37c0 .02 0 .03.03.03h.95c.02 0 .03 0 .03-.03v-.25c0-.05.02-.08.06-.1l.14-.04c.06-.03.08 0 .08.05v.1c0 .03.02.04.04.04h.33c.02 0 .03.01.03.03l.03.13c0 .01 0 .02.02.03a.6.6 0 0 0 .16.01c.18-.01.21-.08.1-.2Z" fill="#07603F"/><path d="M8.44 6.86a.82.82 0 0 0-.06.28c0 .04-.03.07-.07.07h-.33c-.03 0-.05.02-.05.05v.12c-.01.03 0 .05.03.05.08 0 .12.01.14.03.08.07.06.1-.04.1l-.58.01c-.02 0-.03.01-.04.03l-.03.07c.02-.09-.07-.13-.28-.12a.17.17 0 0 0 .03-.13c.12 0 .22-.03.3-.12a.07.07 0 0 1 .04-.03h.05c.1-.02.17-.06.22-.1.11-.1.26-.14.44-.13.05 0 .08-.02.08-.07v-.06c0-.02 0-.03.02-.03l.13-.02Z" fill="#119B42"/><path d="M7.13 7.55c.21-.01.3.03.28.12l-.02.54c-.06.03-.1 0-.14-.06-.02-.03-.05-.05-.1-.06a4.2 4.2 0 0 0-.47-.03c-.04 0-.07-.02-.07-.07 0-.1 0-.17.04-.23a.06.06 0 0 1 .04-.03.21.21 0 0 0 .17-.12c0-.02.02-.03.04-.03l.23-.03ZM8.86 7.63h-.6a.1.1 0 0 0-.1.09v.6c0 .06.04.1.1.1h.6a.1.1 0 0 0 .09-.09v-.6a.1.1 0 0 0-.09-.1ZM11.55 8.45l-.76-.04c-.05 0-.08-.04-.08-.1V7.7c-.01-.04.01-.07.05-.07.22-.02.47-.01.75.02.04.01.06.03.06.07l.01.7c0 .02 0 .03-.03.03ZM10.34 7.71l.01.63c0 .06-.03.08-.08.08H9.5c-.05 0-.07-.02-.08-.08v-.62c0-.06.02-.09.07-.09h.77c.05 0 .08.03.08.08Z" fill="#4CFC49"/><path d="M12.41 8.4a.17.17 0 0 1-.18 0c-.06-.15-.05-.27.03-.36.07 0 .11.03.13.07a.5.5 0 0 1 .02.3Z" fill="#F79D10"/><path d="M7.44 8.55a.97.97 0 0 0 0 .33c0 .02.02.04.03.05.14.11.18.26.11.46 0 .01 0 .02-.02.03-.09.06-.17.14-.26.23a.43.43 0 0 0-.08.18c-.03.12-.08.23-.16.34h-.63c-.05 0-.08-.02-.08-.07v-.16c.04-.05.1-.08.16-.1.02 0 .03-.01.04-.03.02-.03.02-.07 0-.12a.04.04 0 0 0-.04-.03c-.06 0-.11 0-.15.02a1 1 0 0 1-.47.15.48.48 0 0 1-.34-.08 5.08 5.08 0 0 0-.3-.2c-.01-.02-.02-.05 0-.08.11-.07.2-.14.23-.21a.43.43 0 0 0 .06-.21v-.6a.4.4 0 0 0-.05-.18.8.8 0 0 0-.15-.2c.4 0 .78 0 1.17.02.06 0 .1.03.11.07a.1.1 0 0 0 .08.07l.32.02a.4.4 0 0 1 .24.1.8.8 0 0 1 .18.2Z" fill="#4CFC49"/><path d="M5.35 8.07c.05.05.1.12.14.2a.4.4 0 0 1 .05.18v.6c0 .07-.02.14-.05.2a.63.63 0 0 1-.24.22.23.23 0 0 0-.08-.08.03.03 0 0 1-.02-.04v-.02l.03-.03.04-.02c.05-.01.1-.03.11-.05a.14.14 0 0 0 .06-.1c.03-.18 0-.3-.1-.33a.05.05 0 0 1-.04-.04.14.14 0 0 0-.1-.12.06.06 0 0 1-.04-.03c-.03-.06-.03-.1.01-.15a.06.06 0 0 1 .06-.01c.02 0 .03.02.04.04l.05.13c0 .02.01.03.03.03h.05c.01 0 .03-.02.03-.04a.58.58 0 0 0 0-.25c-.01-.03-.04-.06-.1-.11-.1-.09-.08-.14.07-.18Z" fill="#F6FBE3"/><path d="M6.83 8.56c-.01.14.04.22.15.25.02 0 .03.02.04.03.03.07.03.15 0 .22l-.04.03c-.07.03-.12.02-.14-.03a2.6 2.6 0 0 1-.04-.2c-.01-.04-.03-.07-.08-.07s-.08-.04-.09-.1l-.01-.18c0-.03-.02-.05-.06-.05h-.04c-.04 0-.06.03-.06.07v.5c0 .05-.03.08-.08.08h-.06c-.06 0-.09-.03-.09-.1v-.4c.05-.11.14-.22.26-.32a.07.07 0 0 1 .07-.02l.05.05c.02.05.05.09.11.12.06.04.1.08.11.12Z" fill="#FBFDFC"/><path d="M12.23 8.4c.06.03.12.04.19 0 .08 0 .13.03.16.08.1.19.17.35.2.49.02.08.01.17-.01.28-.08-.04-.13-.1-.15-.16.02-.1.01-.2-.02-.3a.24.24 0 0 0-.1-.15.53.53 0 0 0-.13-.05c-.1-.03-.16-.07-.18-.12-.01-.04 0-.07.04-.08Z" fill="#0C0C22"/><path d="M8.45 8.7c-.21.05-.32.15-.32.29-.08-.03-.13-.06-.16-.1a1.3 1.3 0 0 0-.3-.33c-.03-.02-.04-.06-.05-.1.34-.07.61.01.83.24Z" fill="#FDC60A"/><path d="M6.83 8.56c0-.03 0-.05.02-.06a.08.08 0 0 1 .07-.02c.03 0 .05.02.07.04l.09.1a.5.5 0 0 1 .09.1c.02.03.03.09.04.16v.5c-.01.03-.03.05-.07.05l-.56-.01a.36.36 0 0 1-.17-.08.8.8 0 0 0-.24-.08.07.07 0 0 1-.05-.06c-.03-.19-.02-.37.04-.56l.02-.03c.03-.02.04-.02.05 0V9c0 .07.03.1.1.1h.05c.06 0 .08-.03.08-.09v-.5c0-.03.02-.06.06-.06h.04c.04 0 .06.02.06.05l.02.18c0 .06.03.1.09.1.04 0 .06.03.07.08a2.57 2.57 0 0 0 .04.19c.02.05.07.06.14.03.02 0 .03-.02.03-.03a.26.26 0 0 0 0-.22.05.05 0 0 0-.03-.03c-.11-.03-.16-.11-.15-.25Z" fill="#060511"/><path d="M10.63 8.56c-.02.14 0 .27.04.4a6.29 6.29 0 0 0-.8.02c-.04.01-.06.04-.06.07 0 .04-.02.07-.05.09-.04.03-.11.04-.22.03a4.6 4.6 0 0 1-.97.05l-.24-.05-.15-.06-.05-.12c0-.14.1-.24.31-.29.04.05.09.09.15.13a.4.4 0 0 0 .18.06c.26.03.54.03.82 0l.03-.03.03-.08c0-.02.01-.03.03-.03.05-.03.1-.07.14-.12a3.82 3.82 0 0 1 .8-.07Z" fill="#F79D10"/><path d="M7.06 10.17c.08-.11.13-.22.16-.34a.43.43 0 0 1 .08-.18l.26-.23.02-.03c.07-.2.03-.35-.1-.46a.07.07 0 0 1-.04-.05.97.97 0 0 1 0-.33c.07.09.15.17.24.24.07.07.11.16.11.27v.55c0 .07-.03.12-.09.17-.19.16-.4.29-.64.4Z" fill="#119B42"/><path d="M11.45 9.2c.01.07-.02.14-.1.2a.08.08 0 0 1-.08 0 .08.08 0 0 1-.06-.04c-.03-.08-.1-.13-.2-.13l-.14-.1a.06.06 0 0 1-.03-.03c-.02-.09-.07-.14-.17-.14a.84.84 0 0 1-.04-.4l.15.03c.02 0 .04.01.04.03.03.06.06.1.12.12a.9.9 0 0 1 .22.2l.06.05c.01.02.05.04.12.07.07.03.1.08.1.13Z" fill="#FDC60A"/><path d="M12.62 9.1c.02.05.07.1.15.15a.6.6 0 0 0 .16.15c.07.04.08.1.04.19a31.97 31.97 0 0 0-.49.03.58.58 0 0 0-.1.06.32.32 0 0 1-.17.06h-.1c-.29.03-.5.02-.63 0a.06.06 0 0 1-.04-.04l-.03-.06a.07.07 0 0 0-.03-.03.47.47 0 0 1-.15-.12.89.89 0 0 0-.08-.09.86.86 0 0 1-.15-.17c.11 0 .19.05.21.12.01.03.03.05.06.06l.07-.01c.09-.07.12-.13.1-.2.23.05.46.06.7.02.03 0 .04-.01.04-.04v-.02c0-.02.01-.04.03-.04a.76.76 0 0 1 .41-.03Z" fill="#F79D10"/><path d="M8.33 9.17c.12.18.25.34.4.5.06.06.16.13.28.2.13.08.26.16.37.26.04.02.06.06.07.09v.12l-.4-.02c-.5-.02-.99 0-1.46.02-.05 0-.07.06-.06.17l-.01-.17a.04.04 0 0 0-.03-.04l-.02-.01v-.03l.47-.53a.11.11 0 0 0 .03-.07l.02-.44.02-.04a.41.41 0 0 1 .17-.07l.15.06Z" fill="#07603F"/><path d="M12.09 11.07c.14.03.2.1.18.23a.1.1 0 0 0-.02-.05.08.08 0 0 0-.06-.03h-.1c-.1-.01-.15.03-.17.13a.95.95 0 0 0-.01.26c0 .17-.03.3-.1.39a1.1 1.1 0 0 1-.31.24.21.21 0 0 0-.08.09.5.5 0 0 0-.04.13.28.28 0 0 1-.12.2.17.17 0 0 0-.05.05c-.03.05-.03.07 0 .08h-.57a.52.52 0 0 1 .05-.27l-.01-.06a.06.06 0 0 0-.05-.02h-.3c-.02 0-.03 0-.04-.02-.01-.04 0-.07.04-.1l.2-.06a.72.72 0 0 0 .16-.04.3.3 0 0 0 .2-.27v-.11a.18.18 0 0 0-.09-.06.2.2 0 0 1-.11-.14.07.07 0 0 0-.03-.04.3.3 0 0 0-.2-.05h-.26l.29-.01c.02 0 .02-.01.02-.03a.36.36 0 0 0-.08-.2c.1-.03.1-.1 0-.18a.56.56 0 0 1-.1-.13 1.92 1.92 0 0 0-.26-.34l-.1-.08c-.06-.04-.1-.1-.1-.19 0-.05-.03-.08-.09-.08l-.09-.01c-.02 0-.03-.01-.04-.04-.03-.29-.03-.57 0-.86l.03-.04.15-.15a.09.09 0 0 1 .05-.02c.23-.03.47-.03.71 0 .02 0 .03.01.04.03a.3.3 0 0 0 .08.16.5.5 0 0 1 .1.12c.04.08.12.2.24.34.02.03.05.05.1.07l.02.02.02.03.07.26c0 .02.02.03.03.04.08.03.14.1.18.21 0 .02.02.03.03.04.1.04.17.11.19.22l.02.04c.04.03.08.06.13.07l.04.04a.7.7 0 0 1 .04.08l.05.07c.02.02.06.03.12.04Z" fill="#4CFC49"/><path d="M9.54 9.17c-.06.04-.09.07-.09.1l-.03.23c0 .04-.02.06-.06.06-.27.03-.47 0-.59-.09a1.78 1.78 0 0 1-.14-.12.26.26 0 0 1-.06-.14c.32.02.64.01.97-.04Z" fill="#CC6820"/><path d="M13.09 10.25c-.08 0-.15 0-.2.04a.07.07 0 0 0-.02.04c-.03.13-.04.32-.04.58v.25c0 .04-.03.05-.06.05-.13-.02-.23 0-.3.07a.34.34 0 0 0-.15-.07c-.02 0-.03 0-.03.02v.1l-.02-.03c.02-.12-.04-.2-.18-.23.02-.09 0-.16-.06-.22a4.24 4.24 0 0 1-.63-.77.05.05 0 0 1 0-.05.04.04 0 0 1 .04-.02c.3.01.6 0 .9-.03.14-.01.28 0 .42.04.16.05.27.13.33.23Z" fill="#045642"/><path d="M6.35 9.94v.16c0 .05.03.07.08.08-.05 0-.07.03-.06.1.04.18.05.33.04.44a.36.36 0 0 0-.17 0c-.04.02-.05.04-.06.08l.01.99c0 .05 0 .11-.03.17 0 .02-.02.03-.03.03a.68.68 0 0 1-.3.02c-.12-.02-.17-.09-.17-.2v-.06c.02-.09.03-.15.05-.18.02-.06.06-.1.12-.12.04 0 .06-.03.06-.07v-.62c0-.04-.02-.05-.05-.06-.06 0-.1-.04-.13-.11a.94.94 0 0 1-.03-.22c0-.07 0-.11.02-.13a.07.07 0 0 1 .04-.03l.15-.07c.05-.04.06-.07.02-.11.16 0 .31-.03.44-.1Z" fill="#119B42"/><path d="M5.91 10.03c.04.04.03.08-.02.1a.76.76 0 0 1-.15.08.07.07 0 0 0-.04.03c-.01.02-.02.06-.02.13 0 .1.02.17.03.22.02.07.07.11.13.12.03 0 .05.02.05.05v.62c0 .04-.02.06-.05.07a.19.19 0 0 0-.13.12.73.73 0 0 0-.04.18v.06c-.07-.03-.13-.02-.18.04-.11.14-.16.26-.13.36l-.25.01c-.05 0-.08.03-.1.09 0 .01-.01.02-.03.02h-.22l-.1-.12.23-.03c.02 0 .03 0 .04-.02a.16.16 0 0 0 .01-.11c0-.04-.03-.06-.07-.06h-.3c-.01 0-.03 0-.04.02-.05.05-.06.12-.02.19-.16.02-.23-.06-.21-.22.1.04.17.01.22-.1.03-.06.1-.1.22-.16a.5.5 0 0 0 .2-.13.34.34 0 0 0 .07-.18c.08 0 .12-.04.13-.13v-.78.05l.03.02h.02c.09-.12.15-.25.18-.4.01-.03 0-.04-.03-.04l.05-.07.17-.04h.35Z" fill="#4CFC49"/><path d="M5.34 10.13c.03 0 .04.01.03.04-.03.15-.1.28-.18.4h-.02a.02.02 0 0 1-.02-.02v-.05l.02-.25c0-.02 0-.03.02-.04l.15-.08Z" fill="#F6FBE3"/><path d="M13.1 10.25a.4.4 0 0 1 .1.12l.1.13c.06.07.1.14.12.19-.04.5-.04.99-.02 1.48l-.14-.01c.01-.02 0-.08-.04-.16a.04.04 0 0 0-.04-.03l-.7-.01v-.68c.06-.06.16-.09.3-.07.03 0 .04-.02.05-.05v-.25c0-.26.01-.45.04-.58l.02-.04c.05-.03.12-.05.2-.04Z" fill="#15AC44"/><path d="m9.04 10.32-.06.36c-.01.05 0 .07.04.07a5.98 5.98 0 0 1-1.08-.05l-.04-.06a.05.05 0 0 0-.04-.03.58.58 0 0 1-.33-.1c0-.1 0-.16.05-.16.48-.04.97-.05 1.46-.03Z" fill="#FDC60A"/><path d="M9.45 10.34c.02.08.02.13 0 .17a.3.3 0 0 1-.11.08.34.34 0 0 0-.13.1.06.06 0 0 1-.04.03l-.15.03c-.04 0-.05-.02-.04-.07l.06-.36.4.02Z" fill="#CC6820"/><path d="M6.41 10.72v1.21l-.01.05a.21.21 0 0 1-.1.03c-.07.01-.1.04-.11.09 0 .04-.03.06-.07.06l-.76.05c-.03-.1.02-.22.13-.36.05-.06.11-.08.17-.05 0 .12.05.19.16.2.13.02.23.02.3 0l.04-.04a.41.41 0 0 0 .03-.17v-1c0-.03.01-.05.05-.07a.35.35 0 0 1 .17 0ZM13.42 10.69c.1.05.17.13.17.23.02.34.03.75.01 1.2 0 .03 0 .04-.02.04h-.19c-.02-.48 0-.97.03-1.47Z" fill="#F79D10"/><path d="m12.27 11.3.01.02.01.07v.07l-.01.75c0 .1-.03.17-.07.21a1 1 0 0 0-.1.12l-.14.15a.36.36 0 0 1-.19.08c-.18.02-.37.03-.56.02-.04 0-.04-.03-.01-.08a.17.17 0 0 1 .05-.05c.06-.04.1-.1.12-.2a.5.5 0 0 1 .05-.14.21.21 0 0 1 .07-.08c.15-.1.26-.18.31-.24a.58.58 0 0 0 .1-.4v-.25c.03-.1.09-.14.18-.14l.1.01c.03 0 .05.01.06.03a.1.1 0 0 1 .02.05Z" fill="#FDC60A"/><path d="M10.43 11.32c.05.06.08.12.08.2 0 0 0 .02-.02.02h-.29c-.1.04-.2.05-.3.02.04-.2.22-.29.53-.24ZM5.01 11.41c0 .07-.03.13-.07.18a.5.5 0 0 1-.2.13c-.11.05-.18.1-.22.16-.05.1-.13.14-.22.1a.6.6 0 0 1 .02-.3l.02-.02.1-.06.04-.04c.05-.06.13-.1.23-.13l.3-.02Z" fill="#FBFDFC"/><path d="m9.67 11.44-.12.1c-.03.02-.02.04 0 .06.16.1.33.16.5.2a.1.1 0 0 1 .06.02l.09.08v.03c-.19.2-.3.44-.33.73-.08-.06-.25-.1-.5-.08h-.1a512.2 512.2 0 0 1-4.3-.01c.22-.02.37-.04.45-.08.2-.1.4-.16.6-.2a.6.6 0 0 0 .24-.09 4.46 4.46 0 0 0 .24-.2l.1-.4c0 .13.05.19.16.18h.16c.36-.03.63-.04.8-.04h1.24c.2-.02.35-.05.43-.11l.28-.2Z" fill="#13144C"/><path d="M10.88 11.95a.3.3 0 0 1-.19.27.72.72 0 0 1-.16.04.58.58 0 0 0-.2.07c-.04.02-.05.05-.04.09l.03.02h.3c.03 0 .05 0 .06.02v.06a.52.52 0 0 0-.04.27h-.5c-.05-.01-.08-.04-.08-.09-.02-.14-.01-.27.02-.4 0-.07.05-.12.13-.15l.04-.04.06-.1c0-.02.02-.02.04-.02l.53-.04Z" fill="#F6FBE3"/><path d="m13.26 12.16-.74.01c-.03 0-.04-.01-.04-.04v-.17l.7.01c.02 0 .03.01.04.03.04.08.05.14.04.16Z" fill="#FBFDFC"/><path d="m4.66 12.21-.14-.01c-.05-.07-.04-.14 0-.2a.06.06 0 0 1 .05-.01h.3c.04 0 .06.02.07.05v.12l-.05.02-.23.03Z" fill="#F6FBE3"/></svg>