<!-- by TradingView --><svg width="18" height="18" viewBox="0 0 18 18" xmlns="http://www.w3.org/2000/svg"><path fill="#F0F3FA" d="M0 0h18v18H0z"/><path fill-rule="evenodd" d="M9 15A6 6 0 1 0 9 3a6 6 0 0 0 0 12Zm2.25-6L7.87 7.12v3.75L11.25 9Z" fill="url(#a202lvptv)"/><path d="M11.58 3.58c.85 1.28 1.8 3.86-.33 5.42l-3.38 1.88c0 1 .68 3.03 3.38 3.18.34.02.67.02.98 0a6 6 0 0 0-.65-10.48Z" fill="url(#b202lvptv)"/><path d="M3 9.03c.42-.98 1.38-2.28 3-2.28.25 0 .97.08 1.88.38L11.25 9c.5-.38 1.5-1.39 1.5-2.44 0-1.12-.41-2.1-1.12-2.95A6 6 0 0 0 3 9.03Z" fill="url(#c202lvptv)"/><defs><linearGradient id="a202lvptv" x1="9" y1="3" x2="9" y2="15" gradientUnits="userSpaceOnUse"><stop offset=".36" stop-color="#066579"/><stop offset=".7" stop-color="#039AAB"/><stop offset="1" stop-color="#11B7C5"/></linearGradient><linearGradient id="b202lvptv" x1="11.44" y1="3.58" x2="11.44" y2="14.08" gradientUnits="userSpaceOnUse"><stop stop-color="#00B8C2"/><stop offset="1" stop-color="#046179"/></linearGradient><linearGradient id="c202lvptv" x1="12.94" y1="6.75" x2="3.38" y2="7.5" gradientUnits="userSpaceOnUse"><stop stop-color="#005F71"/><stop offset="1" stop-color="#02BCCD"/></linearGradient></defs></svg>