<!-- by TradingView --><svg width="18" height="18" viewBox="0 0 18 18" xmlns="http://www.w3.org/2000/svg"><path fill="#F0F3FA" d="M0 0h18v18H0z"/><path fill-rule="evenodd" d="M9 15A6 6 0 1 0 9 3a6 6 0 0 0 0 12Zm0-1A5 5 0 1 0 9 4a5 5 0 0 0 0 10ZM5 9.12V7h1.4v3c0 1.25.82 1.79 1.38 1.95C5.55 11.42 5 9.86 5 9.12ZM8 12Zm-.41-1.88V6h3.25c.57 0 1.69.38 1.69 1.81 0 .75-.38 1.06-.57 1.13.19.08.57.45.57 1.22 0 .97-.8 1.84-2 1.84H8.51c.51-.07 1.49-.54 1.49-1.84V8.33h.7c.35 0 .63-.25.63-.59 0-.33-.28-.57-.62-.57H9v2.95c0 .3-.47.55-.8.55-.31 0-.61-.24-.61-.55Z" fill="#52BA94"/></svg>