<!-- by TradingView --><svg width="18" height="18" viewBox="0 0 18 18" xmlns="http://www.w3.org/2000/svg"><path fill="url(#a)" d="M0 0h18v18H0z"/><path d="M14 4V14l-.01.01H4L4 13.99V4L4.01 4H14Zm-9.63.36h-.01v9.28h9.27l.01-.02V4.37H4.36Z" fill="url(#b)"/><path d="M9 13h-.58c-.1 0-.15-.07-.15-.2l.01-5.28c0-.1-.05-.13-.14-.13h-3c-.09 0-.14-.06-.14-.18V6.13c0-.03.01-.05.03-.08.03-.03.09-.05.2-.05h2.45c.13 0 .22.03.28.1.03.02.33.45.9 1 .04.03.08.05.14.05.06 0 .1-.02.13-.05.58-.55.88-.98.9-1 .07-.07.16-.1.29-.1h2.45c.11 0 .17.02.2.05.02.03.03.05.03.08V7.2c0 .12-.05.18-.14.18h-3c-.09 0-.13.04-.13.13v5.28c0 .13-.05.2-.15.2H9Z" fill="url(#c)"/><defs><linearGradient id="a" x1="3.35" y1="3.12" x2="21.9" y2="24.43" gradientUnits="userSpaceOnUse"><stop stop-color="#1A1E21"/><stop offset="1" stop-color="#06060A"/></linearGradient><linearGradient id="b" x1="14" y1="4.29" x2="4.1" y2="13.94" gradientUnits="userSpaceOnUse"><stop stop-color="#FCAFB5"/><stop offset=".57" stop-color="#6FDFDA"/><stop offset="1" stop-color="#FBEDC6"/></linearGradient><linearGradient id="c" x1="14.45" y1="8.46" x2="9.05" y2="12.44" gradientUnits="userSpaceOnUse"><stop stop-color="#F6B2B1"/><stop offset=".23" stop-color="#C9C9BD"/><stop offset=".76" stop-color="#A4FFF6"/><stop offset="1" stop-color="#FDF9C8"/></linearGradient></defs></svg>