<!-- by TradingView --><svg width="18" height="18" viewBox="0 0 18 18" xmlns="http://www.w3.org/2000/svg"><path fill="#F0F3FA" d="M0 0h18v18H0z"/><path d="M9 5h4.9c.02 0 .05.01.07.03.02.02.03.04.03.07v5.53c0 .05-.02.1-.06.14A1224.88 1224.88 0 0 1 9 15h-.02l-.02-.01-4.9-4.23a.18.18 0 0 1-.06-.13V5.1l.01-.03A.1.1 0 0 1 4.07 5L4.1 5h4.9Zm.83 1.01a.6.6 0 0 0-.4.17c-.6.6-1.2 1.31-1.76 1.8V8H8.9c.03 0 .05.02.07.03.02.02.03.04.03.07v4.88l.02.02h.02l.02-.01 1.81-1.67a.39.39 0 0 0 .1-.13l.03-.15V6.07c0-.02 0-.03-.02-.04A11.66 11.66 0 0 0 9.83 6Z" fill="#FF3C5A"/></svg>