<!-- by TradingView --><svg width="18" height="18" viewBox="0 0 18 18" xmlns="http://www.w3.org/2000/svg"><path fill="#F0F3FA" d="M0 0h18v18H0z"/><ellipse cx="9" cy="8.9" rx="6" ry="5.9" fill="#FFDE70"/><circle cx="9" cy="9" r="4.88" fill="url(#al3gtdpip)"/><path fill-rule="evenodd" d="M9 13.88a4.87 4.87 0 1 0 0-9.75 4.87 4.87 0 0 0 0 9.75Zm0 .37a5.25 5.25 0 1 0 0-10.5 5.25 5.25 0 0 0 0 10.5Z" fill="#1A191D"/><path fill-rule="evenodd" d="M9 14.62A5.62 5.62 0 1 0 9 3.38a5.62 5.62 0 0 0 0 11.24ZM9 15A6 6 0 1 0 9 3a6 6 0 0 0 0 12Z" fill="#1A191D"/><path d="M8.46 6h1.4v.48l.19.02c.18.03.4.07.58.16l.2.1-.27 1.67-.41-.3a2.42 2.42 0 0 0-.46-.26 1.6 1.6 0 0 0-.6-.15.46.46 0 0 0-.22.04.14.14 0 0 0-.06.06.45.45 0 0 0-.04.21c0 .03.02.1.21.24a4.76 4.76 0 0 0 .71.38c.28.14.58.3.82.5.25.23.45.52.45.91 0 .57-.31.96-.67 1.2-.24.16-.5.26-.74.31v.68H8v-.65a2.22 2.22 0 0 1-.22-.05c-.2-.05-.44-.15-.62-.33L7 11.08l.57-1.42.33.33s.03.03.13.07c.1.05.27.1.5.17.28.07.35 0 .36 0 0 0 .02-.03.03-.1a10.8 10.8 0 0 0-.42-.28h-.02l-.35-.23c-.24-.16-.5-.35-.7-.58-.2-.22-.38-.5-.38-.85 0-.62.42-1.06.78-1.31a2.89 2.89 0 0 1 .63-.34V6Zm.31.78c-.15 0-1.4.47-1.4 1.4 0 .6.75 1.07 1.3 1.41.32.2.57.36.57.47 0 .31-.15.63-.78.47a3.69 3.69 0 0 1-.5-.16.97.97 0 0 1-.28-.15l-.31.78c.25.25.73.31.93.31v.63h.94v-.63c.47-.05 1.4-.37 1.4-1.25 0-.59-.63-.9-1.22-1.2-.5-.24-.96-.47-.96-.83 0-.15 0-.62.63-.62a2.44 2.44 0 0 1 1.25.47l.15-.94a2.6 2.6 0 0 0-.94-.16v-.47h-.78v.47Z"/><path d="M9.55 6.31h-.78v.47c-.15 0-1.4.47-1.4 1.4 0 .95 1.87 1.57 1.87 1.88 0 .31-.15.63-.78.47-.5-.12-.73-.26-.78-.31l-.31.78c.25.25.73.31.93.31v.63h.94v-.63c.47-.05 1.4-.37 1.4-1.25 0-1.1-2.18-1.25-2.18-2.03 0-.15 0-.62.63-.62.5 0 1.04.3 1.25.46l.15-.93a2.6 2.6 0 0 0-.94-.16v-.47Z" fill="url(#bl3gtdpip)"/><defs><linearGradient id="al3gtdpip" x1="12.19" y1="5.81" x2="6.56" y2="12.75" gradientUnits="userSpaceOnUse"><stop stop-color="#EF900D"/><stop offset=".29" stop-color="#FBD376"/><stop offset=".52" stop-color="#FDE499"/><stop offset=".76" stop-color="#F0B756"/><stop offset=".95" stop-color="#D69119"/></linearGradient><linearGradient id="bl3gtdpip" x1="10.18" y1="6.94" x2="7.37" y2="11.16" gradientUnits="userSpaceOnUse"><stop stop-color="#FFFC8F"/><stop offset=".12" stop-color="#A3A3A3"/><stop offset=".26" stop-color="#FFF2AF"/><stop offset=".41" stop-color="#F8C259"/><stop offset=".57" stop-color="#FEE37F"/><stop offset=".69" stop-color="#A2A2A2"/><stop offset=".76" stop-color="#FFFC8F"/><stop offset=".98" stop-color="#FFDB69"/></linearGradient></defs></svg>