<!-- by TradingView --><svg width="18" height="18" viewBox="0 0 18 18" xmlns="http://www.w3.org/2000/svg"><path fill="#F0F3FA" d="M0 0h18v18H0z"/><path d="M9 3a6.16 6.16 0 0 1 6 4.94h-.57A5.6 5.6 0 0 0 9 3.55a5.6 5.6 0 0 0-5.43 4.4H3A6.16 6.16 0 0 1 9 3Zm6 7.06h-.57A5.61 5.61 0 0 1 9 14.45a5.61 5.61 0 0 1-5.43-4.4H3A6.17 6.17 0 0 0 9 15a6.17 6.17 0 0 0 6-4.94ZM8.23 5h.46v1H9.15V5h.47v1c.36.04.66.18.89.44.26.28.4.51.4.98h-.55c0-.3-.09-.4-.25-.59a.83.83 0 0 0-.65-.28h-.87c-.3 0-.53.08-.7.22a.7.7 0 0 0-.26.57v.45c0 .2.06.36.2.5.12.13.3.22.54.27l1.37.26c.4.07.71.22.93.45.22.22.33.5.33.84v.53c0 .41-.14.74-.43 1-.22.18-.48.3-.8.34V13H9.3v-1H8.69v1h-.46v-1.03c-.18-.03-.34-.1-.49-.18a1.5 1.5 0 0 1-.55-.6c-.13-.27-.19-.59-.19-.93h.55c0 .35.1.65.28.87.19.21.44.32.74.32h.86c.3 0 .54-.08.73-.22a.72.72 0 0 0 .27-.59v-.53a.65.65 0 0 0-.2-.49.98.98 0 0 0-.56-.26L8.3 9.11a1.6 1.6 0 0 1-.9-.45 1.21 1.21 0 0 1-.33-.87v-.45c0-.4.14-.73.42-.97.2-.18.45-.3.75-.34V5Z"/></svg>