<!-- by TradingView --><svg width="18" height="18" viewBox="0 0 18 18" xmlns="http://www.w3.org/2000/svg"><path fill="#F0F3FA" d="M0 0h18v18H0z"/><path fill-rule="evenodd" d="M9 14.5A5.4 5.4 0 0 0 14.5 9 5.4 5.4 0 0 0 9 3.5 5.4 5.4 0 0 0 3.5 9 5.4 5.4 0 0 0 9 14.5Zm0 .5A6 6 0 1 0 9 3a6 6 0 0 0 0 12Z" fill="#D9D9D9"/><path d="m5 10 1.5-4.6v6.4L5 10Z" fill="url(#a)"/><path d="M7.5 11.2V5l3 1.97v3.8l-3 .43Z" fill="url(#b)"/><path d="M11 10.8v-3l2 .8-2 2.2Z" fill="url(#c)"/><path d="m10.9 11.8-3.58.6L9 13l1.9-1.2Z" fill="url(#d)"/><defs><linearGradient id="a" x1="7.32" y1="5.6" x2="10.62" y2="11.94" gradientUnits="userSpaceOnUse"><stop stop-color="#46D3F4"/><stop offset="1" stop-color="#E371CD"/></linearGradient><linearGradient id="b" x1="7.32" y1="5.6" x2="10.62" y2="11.94" gradientUnits="userSpaceOnUse"><stop stop-color="#46D3F4"/><stop offset="1" stop-color="#E371CD"/></linearGradient><linearGradient id="c" x1="7.32" y1="5.6" x2="10.62" y2="11.94" gradientUnits="userSpaceOnUse"><stop stop-color="#46D3F4"/><stop offset="1" stop-color="#E371CD"/></linearGradient><linearGradient id="d" x1="7.32" y1="5.6" x2="10.62" y2="11.94" gradientUnits="userSpaceOnUse"><stop stop-color="#46D3F4"/><stop offset="1" stop-color="#E371CD"/></linearGradient></defs></svg>