<!-- by TradingView --><svg width="18" height="18" viewBox="0 0 18 18" xmlns="http://www.w3.org/2000/svg"><path fill="#EAB728" d="M0 0h18v18H0z"/><path d="m9.8 4.09.2.06a1.73 1.73 0 0 1 .17.04c.11.06.22.1.32.12.02 0 .03.02.03.04v.67c0 .01 0 .03.02.04 0 .01.02-.06.04-.06h2.38c.02 0 .04.09.04.12v3.6a7.9 7.9 0 0 1-.08 1.01c0 .05-.03.12-.05.2l-.11.4a4.2 4.2 0 0 1-2.16 2.39h-.02c-.04.02-.06.04-.06.09v.87c0 .02-.01.04-.03.04a2.38 2.38 0 0 0-.6.18.83.83 0 0 0-.31.1h-.02v-.92c0-.03-.02-.04-.04-.04a2.24 2.24 0 0 1-1.03 0c-.03 0-.04 0-.04.03v.91l-.01.02h-.02a.83.83 0 0 0-.3-.1h-.04a2.38 2.38 0 0 0-.57-.18c-.02 0-.03-.01-.03-.04v-.87c0-.04-.02-.07-.06-.08a5.33 5.33 0 0 1-.17-.07A4.2 4.2 0 0 1 5 8.72v-3.6c0-.03.01-.12.04-.12h2.38c.02 0 .03.07.04.06a.06.06 0 0 0 .02-.04v-.67c0-.02 0-.03.02-.04a1.56 1.56 0 0 0 .38-.14L8 4.15l.2-.06A10.52 10.52 0 0 1 8.44 4V9.13c0 .18.04.31.08.4.04.1.11.17.2.22.09.05.18.08.29.08.1 0 .2-.03.3-.08a.52.52 0 0 0 .2-.22.93.93 0 0 0 .07-.4V4h.02c.08.02.15.05.2.08ZM10.62 6c-.03 0-.04.01-.04.04v3.09c0 2.1-3.16 1.99-3.16 0V6.04c0-.03-.01-.04-.04-.04H6.06c-.02 0-.03 0-.04.02a10.08 10.08 0 0 0 .02 3.22c.01.17.04.33.09.46a3.15 3.15 0 0 0 2.1 2.17h.02c.34.09.59.13.75.13.16 0 .41-.04.75-.13h.02a3.16 3.16 0 0 0 2.19-2.63 10 10 0 0 0 .04-.48 384.22 384.22 0 0 1-.02-2.74.05.05 0 0 0-.04-.02h-1.31Z" fill="#fff"/></svg>