<!-- by TradingView --><svg width="18" height="18" viewBox="0 0 18 18" xmlns="http://www.w3.org/2000/svg"><path fill="#19D16F" d="M0 0h18v18H0z"/><path d="M8.94 6.43c-.2-.03-.34-.17-.4-.41l-.43-1.98C8.11 4 8.1 4 8.05 4c-.64.13-1.24.36-1.78.69-.02.01-.03.03-.01.05l2.15 3.3c.15.21.35.33.6.34.3.02.54-.1.71-.38l2-3.2c.04-.05.03-.1-.03-.12a5.24 5.24 0 0 0-1.7-.66c-.04-.01-.06 0-.07.04L9.55 6c-.06.32-.26.47-.6.43Zm3.82 5.95c-.4.45-.87.82-1.4 1.11h-.05a2724.51 2724.51 0 0 1-1.75-3.05c-.38-.68-.11-1.42.69-1.44h.62c.64.02 1.67.04 3.1 0 .02 0 .03.01.03.03 0 .61-.1 1.2-.31 1.79-.01.04-.04.05-.08.04l-1.75-.58a.57.57 0 0 0-.4 0 .5.5 0 0 0-.28.3c-.08.2-.02.38.2.56.44.39.9.78 1.38 1.18.02.02.02.04 0 .06Zm-5.83-1.5a.47.47 0 0 0-.01-.42.43.43 0 0 0-.34-.25c-.1-.02-.27.01-.47.08l-.07.03a352.2 352.2 0 0 1-1.7.56A4.72 4.72 0 0 1 4 9.03C4 9 4 9 4.03 9H7.9c.87.01.98.8.6 1.47l-1.63 3c-.02.03-.04.04-.07.02a5.21 5.21 0 0 1-1.47-1.07c-.02-.03-.02-.05 0-.07.38-.34.84-.75 1.37-1.2.12-.1.2-.2.22-.26Z" fill="#fff"/></svg>