<!-- by TradingView --><svg width="18" height="18" viewBox="0 0 18 18" xmlns="http://www.w3.org/2000/svg"><path fill="#F0F3FA" d="M0 0h18v18H0z"/><path fill-rule="evenodd" d="m13.88 5.64-.25-.4a5.54 5.54 0 0 0-4.09-2.23 5.88 5.88 0 0 0-4.92 1.93c.02.02.04.02.06.01.01 0 .02 0 .03.02V5c-.05.07-.12.17-.24.3a12.04 12.04 0 0 0-.76 1.1c-.01.02-.04.03-.09.01a5.58 5.58 0 0 0-.6 3 6.02 6.02 0 0 0 9.55 4.4 5.9 5.9 0 0 0 2.27-6.1 5 5 0 0 0-.92-2.13c-.01 0-.02 0-.01.04a5.37 5.37 0 0 1 .73 1.52h-.02a7.24 7.24 0 0 0-.74-1.5Zm.61 3.34-.08-.82a5.5 5.5 0 0 0-1.6-3.08 5.33 5.33 0 0 0-7.04-.42c-.54.38-.96.83-1.28 1.34a5.63 5.63 0 0 0-.89 2.8 3.85 3.85 0 0 0 .13 1.45c.14.48.32.95.55 1.4.1.13.17.28.2.43 0 .02.02.03.03.05.06.06.12.12.16.2a2.73 2.73 0 0 0 .48.52l.45.37a5.54 5.54 0 0 0 4.6 1.1 5.58 5.58 0 0 0 3.44-2.41l.23-.43c.17-.35.32-.72.43-1.12.17-.5.23-.96.19-1.38Z" fill="#043C6F"/><path d="m11.72 3.73.5.28-.01.02h-.01l-.5-.28.02-.02Zm1.13.74-.6-.45h-.02v.03l.6.44h.02v-.02Z" fill="#3F9AC0"/><path d="M4.62 4.94c.02.02.04.02.06.01.01 0 .02 0 .03.02V5c-.05.07-.12.17-.24.3a12.04 12.04 0 0 0-.76 1.1c-.01.02-.04.03-.09.01.26-.54.6-1.03 1-1.47Z" fill="#00264F"/><path d="M13.92 5.58c-.01 0-.02 0-.01.04l-.02-.01-.02.01v.02l-.24-.4.3.34Z" fill="#76A1B8"/><path d="M13.9 5.62a5.37 5.37 0 0 1 .74 1.52h-.02a7.25 7.25 0 0 0-.74-1.5v-.03h.03Z" fill="#D2FAFF"/><path d="M7.61 9.37c-.1.09-.18.06-.23-.07-.05-.12-.1-.24-.16-.34a9.08 9.08 0 0 0-.4-.79.48.48 0 0 1-.04-.17.54.54 0 0 0-.04-.17 19.55 19.55 0 0 0-.17-.37.73.73 0 0 0-.37-.36c-.03-.04-.07-.05-.13-.04a.37.37 0 0 1 .35.07l.03.04.04.05a8.86 8.86 0 0 1 .21.42c.05.07.09.15.12.22a28.73 28.73 0 0 1 .8 1.51Z" fill="#79D7EF"/><path fill-rule="evenodd" d="M6.37 9.54v.09l.52.92c.27.47.6.57 1.01.3.02-.01.03 0 .04.01l.01.02c.03.05.06.12.1.12h1.04c.04 0 .08-.07.1-.13l.02-.02 1.24-2.25.03-.02c.02 0 .03.01.03.02l.61 1.15c.01.03 0 .05-.01.05h-1.09l-.01.05a25.55 25.55 0 0 0-.61 1.12c0 .02 0 .02.02.02h3.56c.02 0 .02 0 .02-.03a.12.12 0 0 0-.04-.07 183.74 183.74 0 0 1-.75-1.39c-.36-.68-.71-1.34-1.06-1.96-.05-.1-.1-.2-.17-.3a.49.49 0 0 0-.43-.24.7.7 0 0 0-.45.14c-.02.02-.03.01-.04-.01-.02-.05-.04-.14-.09-.13H8.88l-.06.07-1.2 2.3c-.11.09-.2.06-.24-.07-.05-.12-.1-.24-.16-.34L6.2 7.06A.16.16 0 0 0 6.07 7H5.03C5.02 7 5 7 5 7.02v.04l.93 1.75c.03-.01.05-.03.04-.05-.04-.11-.1-.24-.17-.36a11.7 11.7 0 0 1-.42-.78l-.15-.29c-.02-.05-.01-.08.04-.07.03 0 .07 0 .1.02.05.01.09 0 .1-.04h.69c.03 0 .05.02.07.05.2.36.39.74.59 1.13l.65 1.24c.06.12.15.08.26-.12a18.1 18.1 0 0 0 .4-.75c.27-.47.54-.95.8-1.44.04-.05.08-.07.13-.07h.72c.02 0 .03.02.01.05l-1.72 3.11c-.09.16-.2.26-.33.3a.48.48 0 0 1-.41-.1l-.25.01-.04-.01a1.1 1.1 0 0 1-.21-.34l-.1-.21-.3-.53c-.02-.03-.04-.04-.06-.02Zm5 .34c.03.02.04.03.05.06 0 .03 0 .05-.03.05-.38-.02-.79-.03-1.22-.02a.1.1 0 0 0-.1.07l-.4.7v.04c0 .02.02.02.03.02l3 .02a124.15 124.15 0 0 0-1.71-3.25c-.13-.23-.3-.34-.5-.35-.19 0-.35.12-.48.34a178.78 178.78 0 0 0-1.77 3.23h.8c.03 0 .05-.02.06-.05l.18-.3a599.93 599.93 0 0 0 1.23-2.16 33.62 33.62 0 0 0 .87 1.6Z" fill="#094277"/><path d="M8.14 10.65a.23.23 0 0 0-.01.1c0 .03-.01.04-.03.05l-.02.01h-.02v-.03a.7.7 0 0 0 .1-.18l.05-.14a197.8 197.8 0 0 1 1.82-3.21v.01a34.63 34.63 0 0 0-.85 1.56l-1.04 1.83Z" fill="#D2FAFF"/><path d="M5.47 7.22c.05.18.11.35.19.52.1.22.17.44.21.55.16.42.36.8.6 1.16.22.35.46.7.7 1.03l.16.16-.25.01-.04-.01a1.1 1.1 0 0 1-.21-.34l-.1-.21-.3-.53c-.02-.03-.04-.04-.06-.02v.09l-.44-.82c.03-.01.05-.03.04-.05-.04-.11-.1-.24-.17-.36-.2-.35-.4-.73-.57-1.06-.03-.05-.02-.1.03-.1.04 0 .08 0 .1.02.06.02.1 0 .1-.04Z" fill="#3F9AC0"/><path d="M5.68 7.24h-.17l-.02.02v.03l.12.24.1.15c.01.05.05.1.1.2.08.13.14.24.16.32.08.19.19.37.33.53a.66.66 0 0 1 .12.24c.01.1.05.19.11.29.07.1.18.3.34.62l.22.35a.8.8 0 0 1 .08.25 26.6 26.6 0 0 1-.7-1.03 6.1 6.1 0 0 1-.6-1.16l-.21-.5a4.03 4.03 0 0 1-.2-.56h.22Z" fill="#79D7EF"/><path d="M14.57 10.32c-.1-.05-.18-.03-.27.04.17-.5.23-.96.19-1.38l-.08-.82.12.23c.04.08.07.16.07.24l.03.18.02.15c.04.44.06.7.04.77l-.12.59ZM3.6 8.79a3.85 3.85 0 0 0 .13 1.45l-.25-.13-.03.01-.09.19a3.08 3.08 0 0 1-.08-1.3l.32-.22Z" fill="#36ACD2"/><path d="M4.28 11.65c.1.13.17.28.2.43 0 .02.02.03.03.05.06.06.12.12.16.2a2.73 2.73 0 0 0 .48.52l.45.37c-.2 0-.31.08-.37.21l-.03-.01a.17.17 0 0 1-.03-.07 5.86 5.86 0 0 0-.9-1.11l.01-.01v-.03a2.38 2.38 0 0 1-.21-.36c-.01-.02 0-.03.02-.03l.15-.04.03-.03.01-.09Z" fill="#4CBEE2"/><path d="M14.45 10.86c-.3.93-.82 1.72-1.57 2.37a.38.38 0 0 0-.36-.05l.3-.28a4.26 4.26 0 0 0 1.05-1.42c.02.12 0 .24-.04.34l-.07.18a.44.44 0 0 1-.1.17v.04h.03a6.9 6.9 0 0 0 .76-1.35Z" fill="#67CBE8"/><path d="M5.23 13.43c.34.27.62.46.86.59.2.1.34.2.45.27a1.27 1.27 0 0 1-.46-.16 5.53 5.53 0 0 1-.82-.58.16.16 0 0 1-.06-.13l.03.01Z" fill="#fff"/><path d="M11.86 14.1a.3.3 0 0 1-.26.11c.03-.07.1-.13.23-.17.02 0 .03 0 .04.02l-.01.04Z" fill="#76A1B8"/><path d="m7.2 14.54-.02.02-.02.01a.3.3 0 0 1-.24-.12c.1-.01.2.02.28.1Zm2.26.28a2.8 2.8 0 0 1-1.07.01c-.03 0-.05-.02-.05-.06l1.12.05Z" fill="#fff"/></svg>