<!-- by TradingView --><svg width="18" height="18" viewBox="0 0 18 18" xmlns="http://www.w3.org/2000/svg"><path fill="#04BF8F" d="M0 0h18v18H0z"/><path d="M10.36 9.96v-.01C9.13 9.28 8.55 7.9 8.58 6.5c.03-1.07.56-2.14 1.63-2.42.7-.18 1.58-.08 2.13.46.33.33.53.77.6 1.24a4.47 4.47 0 0 1-.3 2.37c-.51.1-1.05 0-1.38-.45l-.01-.02v-.03c.16-.53.38-1.78-.22-2.1-.31-.15-.64.03-.78.35-.23.5-.15 1.28.03 1.78.42 1.12 1.46 1.53 2.55 1.33l.14-.03c.01 0 .02 0 .02.02v1.16a5.2 5.2 0 0 1-1.16.15c-.48.99-1.1 1.9-1.85 2.73-.27.29-.54.54-.82.76-.4.32-.81.23-1.2-.07a4.97 4.97 0 0 1-.93-.93c-.9-1.17-1.5-2.57-1.9-4-.29-1.07-.5-1.66-.64-2.78 0-.01 0-.02.02-.02h1.62v.02c.15 1.19.37 1.85.72 2.96a10.41 10.41 0 0 0 1.84 3.4h.01a9.56 9.56 0 0 0 1.65-2.42Z" fill="#fff"/></svg>