<!-- by TradingView --><svg width="18" height="18" viewBox="0 0 18 18" fill="none" xmlns="http://www.w3.org/2000/svg">
<rect width="18" height="18" fill="#F0F3FA"/>
<path d="M13.06 8.75294C13.0165 8.68301 12.9809 8.60845 12.9538 8.53067C12.868 8.28584 12.5311 7.43069 11.8049 6.72697C10.9068 5.85625 9.75675 5.52555 8.38752 5.74415C7.01828 5.96275 6.02584 6.63463 5.44139 7.74197C4.96871 8.63683 4.91291 9.55407 4.90664 9.81392C4.90476 9.89646 4.89395 9.97855 4.87438 10.0588C4.63481 11.0236 4.80638 11.86 5.37078 12.4772C5.99847 13.1634 7.07442 13.5415 8.40094 13.5413C8.59535 13.5413 8.79376 13.5331 8.99515 13.5165C9.19654 13.4998 9.40089 13.4752 9.60697 13.4423C11.4395 13.1501 12.8326 12.3143 13.3356 11.2068C13.6815 10.444 13.5862 9.59567 13.06 8.75294Z" fill="#00004F"/>
<path d="M13.4479 8.50916C13.4225 8.46798 13.4016 8.42412 13.3857 8.37836C13.2647 8.03332 12.8996 7.14948 12.123 6.39681C11.6733 5.96084 11.1574 5.64133 10.5907 5.44687C9.96703 5.23369 9.27901 5.17126 8.54164 5.2587V5.25398L8.31759 5.28895H8.31584L8.08917 5.32533V5.3297C7.36089 5.47502 6.72623 5.74941 6.20018 6.14533C5.72052 6.50681 5.32839 6.97112 5.03617 7.5253C4.5314 8.48416 4.45747 9.43829 4.44928 9.80344C4.44837 9.85198 4.44205 9.90025 4.43045 9.94738C4.15147 11.0687 4.3607 12.0506 5.03373 12.7869C5.74859 13.5695 6.94505 14.0004 8.40128 14C8.82933 13.9987 9.25661 13.9637 9.67916 13.8951C11.6639 13.5791 13.1869 12.6449 13.7529 11.3969C14.165 10.4876 14.0604 9.48867 13.4479 8.50916ZM13.336 11.2065C12.8338 12.314 11.4398 13.1497 9.60733 13.442C9.40123 13.4748 9.19729 13.4996 8.99548 13.5161C8.79412 13.5336 8.59568 13.541 8.40128 13.541C7.07476 13.541 5.99862 13.163 5.37111 12.4768C4.80671 11.8595 4.63514 11.0232 4.87471 10.0584C4.89428 9.97823 4.90509 9.89614 4.90697 9.8136C4.91289 9.55372 4.96869 8.63648 5.44137 7.74144C6.02582 6.63464 7.01635 5.96241 8.38699 5.74416C9.75762 5.52591 10.9068 5.85626 11.8044 6.72698C12.5306 7.4307 12.868 8.28533 12.9533 8.53068C12.9804 8.60848 13.016 8.68302 13.0594 8.75295C13.5862 9.5957 13.6815 10.444 13.336 11.2065Z" fill="#00004F"/>
<path d="M5.15756 5.48482C5.15129 5.48482 5.14483 5.48482 5.13838 5.48482C5.01066 5.48545 4.88681 5.52879 4.78641 5.60798C4.68602 5.68717 4.61482 5.79768 4.5841 5.92201C4.27967 7.08792 4.58811 8.23041 4.79455 8.79895C5.06759 7.73935 5.58491 7.04194 5.99326 6.63046C6.22496 6.39498 6.48571 6.19018 6.76916 6.021C6.10973 5.60181 5.53574 5.49653 5.15756 5.48482Z" fill="#00004F"/>
<path d="M7.20816 5.76216C6.38345 5.18016 5.64556 5.04061 5.172 5.02592C4.93741 5.01827 4.70726 5.09132 4.51976 5.23294C4.33226 5.37456 4.19868 5.57623 4.1412 5.80448C3.67775 7.58107 4.50055 9.29837 4.53577 9.3699C4.56633 9.43251 4.61582 9.48382 4.67718 9.51655C4.73854 9.54927 4.80863 9.56171 4.87747 9.55213C4.9463 9.54253 5.01035 9.51138 5.06049 9.46311C5.11062 9.41484 5.14428 9.35193 5.15666 9.28334C5.36938 8.11043 5.9064 7.36877 6.31771 6.95327C6.75186 6.51607 7.14556 6.33786 7.148 6.33664C7.20198 6.31348 7.24882 6.2763 7.28367 6.22892C7.31854 6.18153 7.34015 6.12567 7.34629 6.06711C7.3524 6.00855 7.34283 5.94941 7.31857 5.8958C7.29428 5.84219 7.25617 5.79605 7.20816 5.76216ZM5.13835 5.48428C5.1448 5.48428 5.15126 5.48428 5.15753 5.48428C5.53571 5.49599 6.1104 5.60127 6.76912 6.01941C6.48568 6.18859 6.22494 6.3934 5.99323 6.62885C5.58488 7.04034 5.06756 7.73777 4.79452 8.79735C4.58808 8.22934 4.27894 7.08687 4.58407 5.92095C4.61489 5.79671 4.68613 5.68632 4.78652 5.60723C4.8869 5.52815 5.0107 5.48488 5.13835 5.48428Z" fill="#00004F"/>
<path d="M12.057 4.72933C11.9873 4.61828 11.882 4.53437 11.7584 4.49142C11.6348 4.44847 11.5003 4.44905 11.377 4.49307C11.0211 4.62196 10.5078 4.90071 10.0109 5.50352C10.3326 5.57618 10.6437 5.68984 10.9366 5.84173C11.452 6.10633 12.1592 6.60805 12.7466 7.53036C12.767 6.92476 12.7067 5.74275 12.057 4.72933Z" fill="#00004F"/>
<path d="M12.442 4.48118C12.3167 4.28222 12.1274 4.13215 11.9054 4.05583C11.6835 3.9795 11.4422 3.98149 11.2215 4.06147C10.7755 4.22288 10.117 4.58505 9.51281 5.39492C9.47758 5.44201 9.45551 5.49768 9.44886 5.55619C9.44224 5.61469 9.45128 5.67391 9.47508 5.72774C9.49885 5.78157 9.53654 5.82807 9.5842 5.86243C9.63188 5.89679 9.68783 5.91778 9.74628 5.92323C9.75047 5.92323 10.1801 5.97009 10.7281 6.25095C11.2487 6.51799 11.9878 7.05625 12.5526 8.10466C12.5808 8.15721 12.6227 8.20113 12.6738 8.23175C12.7249 8.26235 12.7833 8.27851 12.8429 8.27848C12.8624 8.27853 12.8819 8.27677 12.9011 8.27324C12.9696 8.26106 13.0325 8.22742 13.0808 8.17715C13.129 8.12688 13.1601 8.06256 13.1696 7.99343C13.1808 7.91351 13.4317 6.02483 12.442 4.48118ZM12.7466 7.52983C12.1599 6.60752 11.452 6.1058 10.9366 5.84121C10.6437 5.68949 10.3326 5.57601 10.0109 5.50352C10.5079 4.90123 11.0212 4.62248 11.3771 4.49359C11.5003 4.44957 11.6348 4.44899 11.7584 4.49194C11.882 4.53489 11.9874 4.6188 12.057 4.72985C12.7067 5.74275 12.767 6.92476 12.7466 7.52983Z" fill="#00004F"/>
<path d="M12.8425 7.94676C12.8425 7.94676 13.0993 6.1184 12.1642 4.65904C12.0785 4.52406 11.9497 4.4222 11.7988 4.37012C11.6479 4.31803 11.4838 4.31878 11.3334 4.37224C10.9219 4.52124 10.3291 4.85316 9.77747 5.59255C9.77747 5.59255 11.6663 5.7627 12.8425 7.94676Z" fill="#007AFF"/>
<path d="M12.3517 7.44099C12.3517 7.44099 12.5301 6.17068 11.881 5.15708C11.8214 5.06314 11.7319 4.99224 11.627 4.95596C11.5221 4.91968 11.4081 4.92018 11.3035 4.95737C11.0174 5.0609 10.606 5.29156 10.2225 5.80535C10.2218 5.80535 11.5342 5.92322 12.3517 7.44099Z" fill="#FF699F"/>
<path d="M12.3517 7.51341C12.3387 7.51339 12.3259 7.50988 12.3148 7.50319C12.3036 7.49652 12.2944 7.48692 12.2882 7.47545C11.5003 6.01277 10.228 5.87846 10.2153 5.87741C10.2025 5.87624 10.1903 5.87167 10.1798 5.86417C10.1694 5.85668 10.1611 5.84653 10.1559 5.83477C10.1507 5.82302 10.1487 5.81007 10.1501 5.79728C10.1516 5.78449 10.1564 5.77231 10.164 5.76199C10.5603 5.23054 10.9888 4.9941 11.2785 4.88917C11.3984 4.84593 11.5295 4.84504 11.6499 4.88663C11.7704 4.92823 11.8731 5.00982 11.9411 5.11791C12.5977 6.14235 12.4305 7.39816 12.4232 7.45114C12.4211 7.46625 12.4142 7.4803 12.4037 7.49128C12.3931 7.50226 12.3794 7.50963 12.3644 7.51234C12.3602 7.51303 12.356 7.51339 12.3517 7.51341ZM10.3539 5.75272C10.6894 5.81918 11.6164 6.09706 12.2975 7.20282C12.3149 6.79658 12.2855 5.92306 11.8196 5.19626C11.7691 5.11586 11.6929 5.05512 11.6034 5.02406C11.5139 4.99299 11.4165 4.99347 11.3274 5.0254C11.074 5.11704 10.7066 5.3171 10.3539 5.75272Z" fill="#00004F"/>
<path d="M4.83197 9.22424C4.83197 9.22424 4.02243 7.56603 4.46041 5.88825C4.50005 5.73317 4.59095 5.59616 4.71826 5.4996C4.84557 5.40304 5.00177 5.35263 5.16133 5.35662C5.59897 5.37008 6.26538 5.50124 7.0179 6.0327C7.0179 6.0327 5.27484 6.78189 4.83197 9.22424Z" fill="#007AFF"/>
<path d="M5.14255 8.59065C5.14255 8.59065 4.58007 7.43856 4.88432 6.273C4.91189 6.16522 4.97507 6.07 5.06355 6.00289C5.15203 5.93578 5.26058 5.90073 5.37148 5.90347C5.67539 5.91291 6.13865 6.00403 6.66173 6.3732C6.66155 6.37302 5.45029 6.89362 5.14255 8.59065Z" fill="#FF699F"/>
<path d="M5.14256 8.66306C5.12907 8.66308 5.11584 8.65928 5.1044 8.6521C5.09296 8.64492 5.08377 8.63466 5.07787 8.6225C5.05433 8.57456 4.50702 7.43331 4.81459 6.25446C4.84593 6.13063 4.91838 6.0212 5.02003 5.94421C5.12167 5.86722 5.24644 5.82725 5.37376 5.8309C5.6815 5.84052 6.1622 5.93198 6.70306 6.31391C6.71356 6.32136 6.72189 6.33144 6.72719 6.34318C6.73251 6.35493 6.73459 6.36787 6.73324 6.38069C6.73189 6.39351 6.72714 6.40571 6.71952 6.41609C6.71188 6.42645 6.70162 6.43458 6.68981 6.43965C6.67831 6.44472 5.51028 6.96796 5.21352 8.60361C5.21083 8.61861 5.20348 8.63237 5.19252 8.64292C5.18156 8.65348 5.16755 8.66028 5.1525 8.66237C5.14921 8.66286 5.14588 8.6631 5.14256 8.66306ZM5.35632 5.9757C5.26396 5.97599 5.17432 6.00707 5.1015 6.06406C5.02868 6.12105 4.97682 6.2007 4.95408 6.29049C4.73595 7.12641 4.97884 7.96583 5.12024 8.34671C5.42571 7.08374 6.22114 6.53094 6.51947 6.36358C6.04957 6.05929 5.63843 5.98322 5.3687 5.975L5.35632 5.9757Z" fill="#00004F"/>
<path d="M9.62736 13.5688C12.7245 13.0747 14.5127 11.0844 13.2692 8.85524C13.2375 8.79857 13.204 8.74192 13.1684 8.68474C13.1299 8.62283 13.0984 8.55685 13.0744 8.488C12.8704 7.90618 11.7013 5.08556 8.36676 5.61736C5.03216 6.14917 4.79242 9.1945 4.77917 9.81095C4.77751 9.88388 4.76792 9.95642 4.75057 10.0273C4.09725 12.6578 6.45144 14.0752 9.62736 13.5688Z" fill="#007AFF"/>
<path d="M4.70747 10.2207C4.70747 10.2207 5.18242 10.1012 5.67899 10.7439C6.06921 11.2483 6.97708 11.107 7.41229 10.6897C7.84748 10.2725 8.42356 9.9902 9.04305 9.89157C9.66256 9.79295 10.3004 9.8816 10.8428 10.1425C11.3852 10.4034 12.2924 10.2558 12.5072 9.65496C12.7806 8.88951 13.2692 8.85524 13.2692 8.85524C14.5127 11.0844 12.7245 13.0747 9.62733 13.5687C6.53022 14.0628 4.21456 12.726 4.70747 10.2207Z" fill="white"/>
<path d="M10.1025 9.26866L10.1176 9.24122C10.1222 9.23335 10.1267 9.22531 10.1314 9.21795C10.141 9.20291 10.1502 9.18822 10.1602 9.17406C10.1801 9.1459 10.2003 9.11828 10.2223 9.09221C10.3529 8.93385 10.517 8.80655 10.7026 8.71955C10.8255 8.66106 10.9573 8.62335 11.0925 8.60797C11.2239 8.59346 11.3569 8.60268 11.4851 8.63526C11.4983 8.63861 11.5098 8.64646 11.5178 8.65744C11.5258 8.66842 11.5297 8.68186 11.5289 8.69542C11.5281 8.709 11.5226 8.72184 11.5133 8.73177C11.504 8.74171 11.4916 8.74809 11.4782 8.7498H11.4762C11.3625 8.7626 11.2507 8.78958 11.1436 8.83007C11.0924 8.85011 11.0425 8.87347 10.9943 8.90003C10.9471 8.9264 10.9014 8.95561 10.8576 8.98745C10.7713 9.05248 10.6914 9.12568 10.6191 9.20606C10.5825 9.24593 10.5478 9.28738 10.5145 9.32936C10.4981 9.35051 10.4812 9.37149 10.4658 9.39282L10.4229 9.45107L10.4111 9.46716C10.3833 9.5045 10.3424 9.5299 10.2967 9.53821C10.2509 9.54654 10.2038 9.53719 10.1646 9.51203C10.1255 9.48685 10.0974 9.44776 10.0858 9.4026C10.0743 9.35747 10.0802 9.3096 10.1025 9.26866Z" fill="#00004F"/>
<path d="M7.59854 9.90207L7.53978 9.86011C7.51851 9.84453 7.49619 9.82984 7.47388 9.8148C7.4289 9.78542 7.38321 9.75675 7.33613 9.73035C7.24252 9.67642 7.14396 9.63161 7.04182 9.59657C6.99035 9.57986 6.93795 9.56612 6.8849 9.55545C6.83086 9.54532 6.77622 9.53872 6.72134 9.5357C6.60699 9.5305 6.49241 9.53959 6.3803 9.56281H6.37857C6.36512 9.56559 6.35116 9.56354 6.33909 9.55701C6.32701 9.55048 6.31764 9.53988 6.31259 9.5271C6.30756 9.5143 6.30716 9.50014 6.31152 9.4871C6.31587 9.47405 6.32466 9.46296 6.33636 9.45578C6.44816 9.385 6.57169 9.33489 6.70113 9.30784C6.83443 9.28029 6.97136 9.27515 7.10634 9.29262C7.3097 9.31771 7.50499 9.38765 7.67824 9.49741C7.70717 9.5149 7.73489 9.53519 7.76261 9.55599C7.77639 9.5663 7.78982 9.57732 7.80342 9.5887C7.8102 9.59412 7.81701 9.60041 7.82381 9.60617L7.84683 9.62752C7.88117 9.65935 7.90211 9.70311 7.90541 9.74989C7.90869 9.79667 7.89409 9.84296 7.86455 9.87931C7.83502 9.91565 7.79279 9.93936 7.74644 9.94556C7.70008 9.95178 7.65313 9.94005 7.61511 9.91274L7.59854 9.90207Z" fill="#00004F"/>
<path d="M9.18505 10.7782C8.71148 10.8536 8.19121 10.5288 8.24142 10.1932C8.29163 9.85764 9.02341 9.75935 9.02341 9.75935C9.02341 9.75935 9.74978 9.62505 9.90114 9.92846C10.0525 10.2319 9.65843 10.7027 9.18505 10.7782Z" fill="#00004F"/>
<path d="M9.27417 10.6579C9.27732 10.6623 9.28481 10.673 9.29161 10.6806C9.29841 10.6883 9.30486 10.6981 9.31184 10.706C9.32578 10.7235 9.34096 10.7392 9.35596 10.7555C9.38642 10.7878 9.4189 10.818 9.45325 10.8461C9.52069 10.9019 9.59594 10.9474 9.67659 10.9813C9.71641 10.9979 9.7576 11.011 9.7997 11.0204C9.84184 11.0306 9.88478 11.0371 9.92803 11.04C10.0166 11.045 10.1055 11.0379 10.1922 11.0187C10.281 10.9993 10.3672 10.9693 10.449 10.9293C10.5288 10.892 10.6007 10.8395 10.6605 10.7747C10.7184 10.7086 10.7633 10.632 10.7928 10.5491C10.8258 10.4584 10.8478 10.364 10.8582 10.2679C10.8583 10.2674 10.8585 10.2668 10.8587 10.2664C10.859 10.2659 10.8594 10.2654 10.8598 10.2651C10.8602 10.2648 10.8608 10.2645 10.8613 10.2644C10.8618 10.2642 10.8624 10.2642 10.8629 10.2643C10.8636 10.2643 10.8642 10.2646 10.8648 10.2649C10.8653 10.2653 10.8658 10.2658 10.8661 10.2664C10.9213 10.3587 10.9379 10.4703 10.9264 10.5803C10.9128 10.6929 10.8682 10.7996 10.7975 10.8882C10.7285 10.977 10.643 11.0514 10.5458 11.1075C10.4513 11.1618 10.3505 11.204 10.2457 11.2333C10.0365 11.2931 9.79744 11.292 9.58681 11.2058C9.48232 11.1643 9.38527 11.106 9.29946 11.0332C9.25707 10.9973 9.21728 10.9585 9.18038 10.9169C9.16188 10.8961 9.14429 10.8746 9.12807 10.852C9.1197 10.8408 9.1115 10.8295 9.1033 10.817C9.09512 10.8046 9.08814 10.7947 9.07802 10.7777C9.06397 10.7522 9.06003 10.7224 9.06694 10.6942C9.07388 10.6659 9.09118 10.6413 9.11538 10.6253C9.13959 10.6092 9.16895 10.6029 9.19758 10.6077C9.2262 10.6124 9.252 10.6278 9.26981 10.6508L9.27417 10.6579Z" fill="#00004F"/>
<path d="M9.28792 10.7441C9.28338 10.7633 9.28025 10.7747 9.27589 10.7892C9.27152 10.8037 9.26769 10.8165 9.26317 10.8298C9.25409 10.8564 9.24416 10.8823 9.23299 10.9078C9.21084 10.9588 9.18502 11.0081 9.15575 11.0554C9.09668 11.1514 9.02248 11.2372 8.93607 11.3095C8.76171 11.4569 8.53505 11.5325 8.31797 11.5405C8.20927 11.5454 8.10039 11.5366 7.99384 11.5144C7.88407 11.4913 7.7798 11.447 7.68679 11.3842C7.59238 11.3216 7.5172 11.2339 7.46971 11.1309C7.42491 11.03 7.40608 10.9188 7.42996 10.8137C7.4301 10.8132 7.43032 10.8127 7.43063 10.8122C7.43096 10.8117 7.43136 10.8114 7.43185 10.8111C7.43231 10.8108 7.43282 10.8106 7.43338 10.8105C7.43393 10.8104 7.43448 10.8104 7.43502 10.8106C7.43566 10.8107 7.43623 10.811 7.43674 10.8114C7.43725 10.8118 7.43767 10.8123 7.43799 10.8128C7.47769 10.9009 7.52774 10.9839 7.58706 11.0601C7.64094 11.1296 7.7073 11.1884 7.78268 11.2334C7.85963 11.2763 7.94412 11.3039 8.03151 11.3146C8.1216 11.327 8.21284 11.3287 8.30333 11.3195C8.39165 11.3108 8.47837 11.2899 8.56101 11.2575C8.60119 11.2414 8.63989 11.2218 8.67681 11.1991C8.71383 11.1771 8.74884 11.1518 8.78141 11.1236C8.84748 11.0664 8.90487 10.9998 8.95175 10.926C8.97577 10.8886 8.99733 10.8497 9.01628 10.8095C9.02552 10.7894 9.03493 10.7693 9.04278 10.7488C9.04696 10.7387 9.0508 10.7284 9.05427 10.7184C9.05778 10.7084 9.06161 10.6967 9.06318 10.6916L9.06562 10.6836C9.07486 10.6555 9.09453 10.632 9.12052 10.6179C9.14654 10.6039 9.17694 10.6004 9.20543 10.6081C9.23395 10.6159 9.25841 10.6343 9.27378 10.6596C9.28916 10.6849 9.29428 10.7151 9.2881 10.7441H9.28792Z" fill="#00004F"/>
<path d="M7.96297 11.4043C7.96297 11.4043 8.48101 12.8659 9.49035 12.7049C9.92886 12.6349 10.1845 12.3026 10.3334 11.9499C10.5276 11.4896 10.5403 10.9931 10.5403 10.9931C10.5403 10.9931 9.80908 11.4642 9.18505 10.7782C8.80375 11.6243 7.96297 11.4043 7.96297 11.4043Z" fill="#00004F"/>
<path d="M9.31266 11.5833C10.0722 11.4622 10.3334 11.9506 10.3334 11.9506C10.1844 12.3038 9.92885 12.6356 9.49034 12.7055C9.05183 12.7755 8.70573 12.5396 8.45551 12.2509C8.45551 12.2495 8.55298 11.7045 9.31266 11.5833Z" fill="#FF4893"/>
<g opacity="0.3">
<path opacity="0.3" d="M9.41834 12.2503C9.75379 12.1968 9.9979 12.009 10.1723 11.7692C10.2362 11.8193 10.2907 11.8805 10.333 11.9499C10.1841 12.3032 9.9285 12.6349 9.48999 12.7049C9.05148 12.7748 8.70539 12.5389 8.45519 12.2502C8.474 12.171 8.50684 12.0958 8.55213 12.0283C8.79344 12.2014 9.08235 12.3038 9.41834 12.2503Z" fill="#000072"/>
</g>
<path d="M10.2891 8.48505C10.4561 8.32075 10.5133 8.10772 10.417 8.00919C10.3206 7.91067 10.1071 7.96398 9.94017 8.12826C9.77319 8.29255 9.71596 8.50561 9.81232 8.60412C9.90868 8.70266 10.1222 8.64935 10.2891 8.48505Z" fill="white"/>
<path d="M7.91642 8.90666C7.85523 9.03031 7.63572 9.04658 7.42631 8.94164C7.2169 8.83672 7.09641 8.65256 7.15743 8.52893C7.21848 8.40528 7.40956 8.39411 7.61914 8.49851C7.82873 8.60289 7.97744 8.78303 7.91642 8.90666Z" fill="white"/>
<path d="M8.40159 13.7707C7.02887 13.7707 5.8788 13.3715 5.20264 12.6319C4.58384 11.9551 4.39361 11.0461 4.65271 10.003C4.66839 9.9394 4.67698 9.87431 4.67834 9.80884C4.69246 9.18785 4.93587 6.06207 8.3512 5.5175L8.36707 5.61753L8.3512 5.5175C11.7663 4.97275 12.9645 7.86857 13.1699 8.45547C13.1915 8.51725 13.2197 8.57647 13.2541 8.6321C13.8231 9.54302 13.9235 10.4666 13.5446 11.3023C13.0106 12.4803 11.5521 13.3659 9.64336 13.6698C9.2327 13.736 8.8175 13.7698 8.40159 13.7707ZM9.16964 5.65285C8.9061 5.65361 8.64306 5.67525 8.38293 5.71756C5.12592 6.23695 4.89367 9.22054 4.88025 9.81339C4.87855 9.89382 4.86803 9.97382 4.84886 10.0519C4.60685 11.0258 4.78069 11.8707 5.35136 12.495C6.17747 13.3984 7.77022 13.7625 9.61163 13.4687C11.453 13.1749 12.8547 12.3336 13.3603 11.2177C13.709 10.4466 13.6138 9.58938 13.0826 8.73877C13.0403 8.67048 13.0057 8.59767 12.9793 8.52174C12.7999 8.01005 11.8274 5.65285 9.16964 5.65285Z" fill="#00004F"/>
</svg>
