<!-- by TradingView --><svg width="18" height="18" viewBox="0 0 18 18" xmlns="http://www.w3.org/2000/svg"><path fill="url(#a)" d="M0 0h18v18H0z"/><path d="M9 3a6 6 0 1 1 0 12A6 6 0 0 1 9 3Zm0 7.32v.46l.02.01 2.39.75c.1.03.15.1.15.18 0 .08-.05.14-.15.17a2426.45 2426.45 0 0 0-2.4.79v.44h.02l2.55-.82c.28-.09.42-.28.42-.58 0-.3-.14-.5-.42-.59A562.3 562.3 0 0 0 9 10.32ZM7.02 7A1.5 1.5 0 1 0 7 10a1.5 1.5 0 0 0 .02-3Zm4 0a1.5 1.5 0 1 0-.02 3 1.5 1.5 0 0 0 .03-3ZM7 7.42c.57 0 1.04.48 1.04 1.08 0 .6-.47 1.08-1.04 1.08-.57 0-1.04-.48-1.04-1.08 0-.6.47-1.08 1.04-1.08Zm4 0c.58 0 1.04.49 1.04 1.08 0 .6-.47 1.08-1.05 1.08-.57 0-1.03-.49-1.03-1.09 0-.6.47-1.07 1.05-1.07Zm-3.49-1.5H7.5v.42h.02l2.97-.87h.01v-.42l-.01-.01-2.98.87Z"/><defs><linearGradient id="a" x1="15.85" y1="4.62" x2="1.35" y2="11.09" gradientUnits="userSpaceOnUse"><stop stop-color="#685936"/><stop offset="1" stop-color="#E1D7BF"/></linearGradient></defs></svg>