<!-- by TradingView --><svg width="18" height="18" viewBox="0 0 18 18" xmlns="http://www.w3.org/2000/svg"><path fill="#00FEFC" d="M0 0h18v18H0z"/><path d="M10.24 5.49a3.08 3.08 0 0 0-2.7-.2 3.1 3.1 0 0 1-.3.1.92.92 0 0 0-.53.44c-.1.2-.06.42.1.65.02 0 .02.02.03.04l.01.07-.04-.02a.57.57 0 0 1-.1-.14c-.04-.1-.06-.1-.05.02 0 .06.04.15.1.27l.12.19a3 3 0 0 0 1.2.81c.12.06.25.1.38.15.75.25 1.48.34 2.2.27.33-.04.62-.12.89-.26.16-.08.28-.2.36-.35.06-.11.12-.27.16-.48a.51.51 0 0 0-.01-.22 5.48 5.48 0 0 1-.05-.2c.05.02.1.08.11.18a1.21 1.21 0 0 1-.08.6.23.23 0 0 0 0 .15c.07.23.12.44.15.62.01.09 0 .21-.05.38a1.23 1.23 0 0 0-.06.42v.63a2.6 2.6 0 0 1-.13.63c-.05.16-.1.34-.13.54-.03.25-.13.5-.27.73a1.1 1.1 0 0 0-.14.38.48.48 0 0 1-.26.34c-.02.01-.02.03 0 .04v.01c.23.24.4.4.54.47.18.1.33.26.45.5.07.13.01.27-.18.43l-.1.07a.94.94 0 0 0-.25.26.79.79 0 0 1-.19.23.4.4 0 0 1-.23.08c-.09 0-.17 0-.26-.03-.35-.1-.64-.05-.87.14-.26.2-.58.22-.96.06a1.1 1.1 0 0 0-.5-.07l-.22.02c-.2.02-.35.02-.45.02a.94.94 0 0 1-.43-.1 2.64 2.64 0 0 1-.26-.13c-.24-.15-.5-.19-.78-.13a.62.62 0 0 1-.27 0 .24.24 0 0 1-.19-.16 5.94 5.94 0 0 1-.1-.32.54.54 0 0 0-.15-.23.38.38 0 0 0-.25-.12.9.9 0 0 1-.31-.06c-.07-.04-.13-.13-.17-.27a.33.33 0 0 1 .07-.33.78.78 0 0 1 .4-.26c.13-.03.3-.12.5-.25l.16-.1c.13-.08.26-.13.4-.16a.4.4 0 0 0 .17-.08l.2-.15a.1.1 0 0 0 .05-.07l.09-.47c.08-.3.1-.64.06-1 0-.01 0-.02-.03-.02a1.19 1.19 0 0 1-.67-.22 1.03 1.03 0 0 1-.38-.56 1.79 1.79 0 0 0-.08-.2 1.4 1.4 0 0 1-.1-.27 5.95 5.95 0 0 1-.08-.52.54.54 0 0 1 .07-.36c.1-.16.26-.24.46-.23.04 0 .06-.01.07-.05l.01-.1.03-.27c-.02-.33.03-.67.13-1 .03-.1.04-.18.05-.26.01-.16.09-.3.22-.42.19-.17.4-.27.65-.3a.8.8 0 0 0 .16-.05.61.61 0 0 1 .2-.04c.02 0 .04-.01.05-.04l.02-.05c.01-.03 0-.04-.03-.04-.3-.04-.56-.11-.79-.23-.34-.19-.52-.44-.55-.77-.02-.32.1-.6.36-.88.29-.3.66-.54 1.11-.73.35-.14.78-.27 1.3-.37a4.32 4.32 0 0 1 1.89.03c.3.08.58.24.8.5.3.33.33.67.12 1.03a2.3 2.3 0 0 1-.87.77 5.67 5.67 0 0 1-2.4.7v.03a7.8 7.8 0 0 1 1.38.3l.02.02v.02Z" fill="#010101"/><path d="M12.17 3.16a1.05 1.05 0 0 0-.26-.36 1.58 1.58 0 0 0-.87-.39 9.71 9.71 0 0 0-.84-.07c-.19 0-.4.01-.66.05a14.67 14.67 0 0 0-.96.16l.01-.03c.22-.11.44-.2.66-.25.04-.01.08-.05.11-.1l.47-.08c.33-.02.7 0 1.14.06.19.03.35.08.49.15.13.07.27.17.41.3.18.17.28.35.3.56Z" fill="#FEFFFF"/><path d="M9.36 2.17c-.03.05-.07.09-.1.1-.23.05-.45.14-.67.25l-.01.03.01.01a31.13 31.13 0 0 0 .95-.17c.25-.04.47-.06.66-.05.22 0 .5.03.84.07.33.04.62.17.87.39.1.1.19.21.25.36a.68.68 0 0 1-.07.4c-.12.21-.3.4-.53.58a5.36 5.36 0 0 1-3.63.88 2.45 2.45 0 0 1-.7-.18.95.95 0 0 1-.45-.32.8.8 0 0 1-.18-.43.94.94 0 0 1 .08-.47c.07-.16.18-.3.32-.43a4.5 4.5 0 0 1 2.36-1.02Z" fill="#D9D9D9"/><path d="M11.04 4.01c.15-.12.27-.25.36-.4.14-.23.13-.42-.04-.57.05-.03.1 0 .12.08.13.3.03.6-.32.9-.03.02-.07.02-.12 0Zm-3.79.08v.03c.03.15.07.25.12.3.1.11.22.18.37.2.67.13 1.34.14 2.02.03-.02.1-.1.16-.23.16l-.15.01a5.8 5.8 0 0 1-1.33 0c-.2-.03-.36-.07-.5-.12a.44.44 0 0 1-.24-.23 1.16 1.16 0 0 1-.1-.34c0-.02.02-.03.04-.04Zm1.5 1.01h-.7a.03.03 0 0 0-.04.03v.03c0 .01.02.03.04.03h.7c.02 0 .04 0 .04-.03v-.03a.03.03 0 0 0-.04-.03ZM10.24 5.49h.05l.06.05c.18.06.35.14.52.21.39.18.74.42 1.04.73.02.05.05.1.1.15l.05.2a.4.4 0 0 1 0 .22c-.03.2-.09.37-.15.48a.86.86 0 0 1-.36.35c-.27.14-.56.22-.9.26a5.15 5.15 0 0 1-2.56-.42l-.15-.27a.08.08 0 0 0-.03-.04l-.37-.23.17.07c.06.04.07.03.03-.03a.22.22 0 0 0-.08-.07 3.21 3.21 0 0 1-.72-.52c-.02-.02-.04-.02-.07-.02l-.02-.02-.01-.07a.1.1 0 0 0-.02-.04c-.17-.23-.2-.45-.1-.65.08-.19.26-.33.53-.43l.08-.03a1.05 1.05 0 0 1 .27-.08c.23-.04.4-.05.53-.05h.67c.15 0 .39.02.71.09h.11l.1.03.05.02a15.92 15.92 0 0 1 .47.1Z" fill="#FEFFFF"/><path d="M11.91 6.48c-.3-.3-.65-.55-1.04-.73a9.8 9.8 0 0 0-.58-.25c.05 0 .1 0 .14.02.25.09.5.2.73.31.32.16.57.38.75.65Z" fill="#010101"/><path d="m10.17 5.86-.24.13c-.38-.13-.75-.2-1.13-.22a.97.97 0 0 0-.46-.15c.17-.07.35-.1.54-.1.46.03.9.14 1.3.34Z" fill="#D9D9D9"/><path d="M8.34 5.62a1 1 0 0 1 .46.15c-.27.01-.5.04-.7.1a.98.98 0 0 0-.4.24h-.04L7.6 6.1c-.01-.09.03-.16.13-.23.1-.08.23-.14.37-.2a.5.5 0 0 1 .24-.04Z" fill="#A5A6A6"/><path d="M8.8 5.77c.38.02.75.1 1.13.22.28.12.49.23.63.32.22.15.38.32.47.52h.15a.58.58 0 0 1-.25.35c-.21.12-.42.2-.61.22-.31.03-.62.02-.93-.03a3.4 3.4 0 0 1-1.4-.6 1.42 1.42 0 0 1-.38-.47c-.03-.04-.03-.11 0-.21l.05.03h.04a1 1 0 0 1 .4-.25c.2-.06.43-.09.7-.1Z" fill="#010101"/><path d="m10.53 6.82-.46-.25a4.16 4.16 0 0 0-1.3-.42l-.01-.02a3.16 3.16 0 0 0-.92-.05c-.03.01-.03 0-.01-.01.15-.1.3-.16.45-.19.73-.11 1.43.01 2.08.37.32.18.53.4.65.65.03.07 0 .13-.08.19h-.04a3.7 3.7 0 0 1-.06-.06.75.75 0 0 0-.3-.2Z" fill="#93705A"/><path d="M10.17 5.86c.24.1.44.21.6.32.26.17.4.4.4.65h-.14c-.09-.2-.25-.37-.47-.52-.14-.1-.35-.2-.63-.32l.24-.13Z" fill="#696868"/><path d="m8.77 6.15.2.03c.11 0 .34.08.7.2.1.11.23.17.4.2l.46.24.3.3c.03.02.02.03 0 .04l-.23.1c-.02 0-.04 0-.06-.02a4.63 4.63 0 0 0-2.76-.87c-.05 0-.08-.02-.1-.07a.1.1 0 0 1 0-.03c0-.07.03-.1.1-.12.3-.04.59-.04.88 0h.11Z" fill="#5D493F"/><path d="M6.81 6.57c0 .06-.02.11-.05.15a.8.8 0 0 1-.1-.27c-.01-.11 0-.12.05-.02.02.05.06.1.1.14Z" fill="#FEFFFF"/><path d="m6.75 6.84-.16.06a.05.05 0 0 0-.03.03l-.09.19c0-.25.03-.49.09-.7.02-.07.03-.07.04 0 .01.13.06.27.15.42Z" fill="#FFE4B2"/><path d="M10.07 6.57a.62.62 0 0 1-.4-.19c.16.04.3.1.4.2Z" fill="#010101"/><path d="M9.65 7.21h-.01v.03l.09.04c.06.03.05.05-.01.04a3.84 3.84 0 0 1-1.59-.52l.01-.01a7.33 7.33 0 0 1 .73.16v-.03c-.25-.1-.5-.15-.77-.18a.23.23 0 0 1-.15-.07l-.17-.18c-.04-.05-.03-.07.03-.07a4.68 4.68 0 0 1 2.65.83c.04.03.03.05-.01.06-.15.02-.31.03-.5.03a.47.47 0 0 1-.18-.07.75.75 0 0 0-.12-.05Z" fill="#403330"/><path d="m6.85 6.59.02.02c0 .03.02.06.04.08.19.19.4.35.63.49l.37.23c.02.01.03.02.03.04l.15.27a2.95 2.95 0 0 1-1.2-.81 1.2 1.2 0 0 1-.13-.19.35.35 0 0 0 .05-.15l.04.02Z" fill="#A5A6A6"/><path d="M7.54 7.18c-.23-.14-.44-.3-.63-.49a.14.14 0 0 1-.04-.08c.03 0 .05 0 .07.02.2.2.44.37.72.52.04.02.06.04.08.07.04.06.03.07-.03.03a.78.78 0 0 0-.17-.07Z" fill="#010101"/><path d="M6.96 7.1c0 .08-.08.12-.24.12-.05 0-.08.01-.1.03a.17.17 0 0 0-.05.1l-.08.4c-.06-.05-.07-.14-.04-.27a.87.87 0 0 0 .02-.36l.09-.2.03-.02.16-.06.21.26Z" fill="#EEAE80"/><path d="M9.23 7c.05.01.1.04.16.08.04.03.03.04-.02.02a.36.36 0 0 1-.16-.09C9.2 7 9.2 6.98 9.23 7Z" fill="#010101"/><path d="M7.27 7.36c.17.25.28.47.33.68.04.21.06.4.06.54 0 .2-.03.36-.1.51-.08.18-.08.34 0 .46l.03.02.03-.01.07-.08a.07.07 0 0 1 .05-.03c.02 0 .04 0 .06.02.07.06.13.2.16.41l.01.04c.03.13.1.3.2.5v.03h-.03c-.1-.01-.15 0-.19.03-.14.14-.1.35.13.61a2.2 2.2 0 0 0 .57.47h.05a.05.05 0 0 0 .03-.05l.03-.4c0-.1.04-.11.11-.03l.2.23.03.12c0 .02.02.02.04.02l.04.05c0 .06-.03.1-.1.13-.01.01-.02.02-.01.04a.7.7 0 0 0 .15.2c.15.14.28.3.42.45a.39.39 0 0 1-.24-.1l-.37-.31a.45.45 0 0 0-.22-.1c-.02 0-.03 0-.04.02 0 .02 0 .02.02.03l.1.04c.03 0 .04.02.04.04V12l-.19-.05a4.73 4.73 0 0 1-.88-.36 1.7 1.7 0 0 1-.3-.23.4.4 0 0 0-.28-.12c-.07 0-.12.02-.14.07a.55.55 0 0 0-.04.23l.05.67.07.35.05.3c0 .02 0 .02-.02.02-.03 0-.05 0-.07-.03a.67.67 0 0 0-.17-.23l-.3-.55c.07-.1.15-.2.24-.28l.03-.05c0-.07-.03-.07-.07 0-.03.06-.1.08-.18.07l.23-.16c.02 0 .03-.02.05-.06l.01-.06.08-.38a3.27 3.27 0 0 0 .1-.96c0-.04 0-.04.02 0a4.04 4.04 0 0 0 .57.88h.01v-.04a9.34 9.34 0 0 1-.37-.54 2.5 2.5 0 0 1-.16-.35 5.02 5.02 0 0 0-.11-.2c-.02 0-.03 0-.04.03l-.11-.16a1.45 1.45 0 0 1-.05-.3 17.38 17.38 0 0 1 0-1.24 2.7 2.7 0 0 0-.03-.18c0-.16-.03-.25-.1-.28-.1-.07-.17-.07-.2-.02a.36.36 0 0 0-.14-.05l.08-.4.05-.1c.02-.02.05-.03.1-.03.16 0 .24-.04.24-.12l.3.26Z" fill="#C68684"/><path d="M9.56 7.75c.01 0 .02 0 .01.02v.01c-.01.02-.02.03-.05.03a5.9 5.9 0 0 1-1.63-.5c0-.03.02-.03.04-.02.48.2 1.02.36 1.63.46Z" fill="#010101"/><path d="m7.27 7.36.42.27.13.12a.68.68 0 0 1 .17.2l.12.16c.05.04.12.07.2.07.03 0 .06 0 .09.03s.04.05.04.09c0 .02 0 .05-.03.09a.94.94 0 0 0-.1.23c-.05.05-.06.12-.03.21-.1.05-.18.15-.23.32v.06c.06.17.1.37.13.58.02.18.09.35.2.52a.7.7 0 0 1 .1.24l.01.08c.02.06.04.1.08.11l.1.02.1.01.07.02c.05.02.09.03.12.01a.1.1 0 0 0 .03-.03.28.28 0 0 1 .07-.06c.02-.01.03 0 .02.02a.7.7 0 0 0-.04.35c.03.11.04.2.04.23l-.2-.23c-.08-.08-.12-.07-.12.04l-.03.4c0 .01-.01.03-.03.03h-.05a2.21 2.21 0 0 1-.57-.46c-.23-.26-.27-.47-.13-.61.04-.03.1-.04.19-.02l.03-.01v-.03a1.83 1.83 0 0 1-.2-.54c-.04-.2-.1-.35-.17-.41a.07.07 0 0 0-.06-.02.07.07 0 0 0-.05.03l-.07.08-.03.01c-.01 0-.02 0-.03-.02-.08-.12-.08-.28 0-.46.07-.15.1-.32.1-.51 0-.15-.02-.33-.06-.54a1.8 1.8 0 0 0-.33-.68Z" fill="#EEAE80"/><path d="m11.75 7.49-.32.16a.03.03 0 0 0-.01.04c0 .02.03.03.05.02l.32-.16c.01-.01.02-.03.01-.05a.04.04 0 0 0-.05-.01Z" fill="#010101"/><path d="M9.89 12.38a7.9 7.9 0 0 1-.47-.4.63.63 0 0 1-.15-.22v-.04l.04-.03h.07c.02-.01.03-.02.02-.04-.01-.02-.04-.04-.1-.07a.3.3 0 0 1-.08-.06c.02-.03.01-.06-.02-.1h-.06v.03c-.02 0-.03 0-.04-.02l-.02-.12c0-.04 0-.12-.04-.23a.7.7 0 0 1 .04-.35c0-.03 0-.03-.02-.02a.28.28 0 0 0-.07.06.1.1 0 0 1-.03.03c-.03.02-.07.01-.12 0a.37.37 0 0 0-.06-.03h-.1a.2.2 0 0 1-.11-.03c-.04-.02-.06-.05-.08-.11l-.01-.08a.7.7 0 0 0-.1-.24 1.13 1.13 0 0 1-.2-.52c-.02-.21-.07-.4-.13-.58v-.06c.05-.17.13-.27.23-.32.07.07.08 0 .03-.2a.87.87 0 0 1 .1-.24.17.17 0 0 0 .03-.1.12.12 0 0 0-.04-.08.14.14 0 0 0-.1-.03.29.29 0 0 1-.2-.07.76.76 0 0 1-.11-.16.68.68 0 0 0-.17-.2 1.13 1.13 0 0 1-.13-.12c.94.47 1.93.66 2.97.58.16-.01.36-.06.6-.13.32-.1.55-.27.7-.5h.02v.01l.05.15.09.38a.8.8 0 0 1-.02.35c-.05.16-.07.27-.07.34 0 .26 0 .54-.02.84 0 .18-.03.33-.08.46-.07.2-.12.4-.15.6a1.5 1.5 0 0 1-.08.32l-.02.06a1.7 1.7 0 0 1-.16.35 1.2 1.2 0 0 0-.17.43.44.44 0 0 1-.2.3c-.06.04-.17.09-.33.15h-.02c-.02.02-.03 0-.02-.01a.58.58 0 0 0-.04-.47.82.82 0 0 1-.03-.08v-.05l.03-.05v-.05h-.02l-.02.01a.5.5 0 0 0-.02.05c-.01.02-.02.02-.04 0l-.04-.03h-.03v.02c.04.04.08.1.11.17.04.07.07.15.08.22.03.18-.03.29-.19.32a1.7 1.7 0 0 1-.68 0Z" fill="#FFE4B2"/><path d="M6.63 7.8c.03-.05.1-.05.2.02 0 .12.02.21.1.28a2.7 2.7 0 0 1 .04.37c-.02.42-.02.77-.01 1.05 0 .07.02.17.05.3-.08-.02-.13-.08-.14-.17.05 0 .08-.02.06-.06a.33.33 0 0 0-.08-.12.82.82 0 0 0-.06-.46.32.32 0 0 1-.01-.2v-.02h-.06a.15.15 0 0 1-.07-.08c.04-.02.06-.06.07-.12.03 0 .04 0 .05-.02.08 0 .12-.04.13-.14a.5.5 0 0 0-.05-.22.3.3 0 0 0-.12-.15 3.47 3.47 0 0 0-.31-.18.29.29 0 0 0-.31.04.3.3 0 0 0-.13-.02c-.05.01-.05 0-.02-.03.06-.06.12-.1.18-.1.1-.02.2-.01.28.01l.27.12.02.01c.03.02.04.01.04-.02v-.01c0-.03-.01-.05-.03-.05l-.1-.03Z" fill="#EEAE80"/><path d="m6.77 8.57-.03-.1v-.02H6.7l-.01.02c0 .04 0 .08.02.12-.01.06-.03.1-.07.12-.11-.15-.2-.28-.23-.38a.85.85 0 0 0-.31-.41c.1-.08.2-.09.3-.04.1.05.2.1.32.18.06.03.1.08.12.15a.5.5 0 0 1 .05.22c0 .1-.05.15-.13.14Z" fill="#FFE4B2"/><path d="M6.5 9.37c-.12 0-.19-.07-.2-.2l-.02-.04c0-.1-.02-.16-.04-.2a9.74 9.74 0 0 0-.23-.34.73.73 0 0 1-.1-.25V8.3l.12-.32c.01-.02.03-.03.05-.01a.7.7 0 0 1 .29.4c0 .02 0 .03-.02.04a.25.25 0 0 0-.07.04.06.06 0 0 0-.03.05v.1c0 .02.01.03.03.02h.06l.01.02c.06.06.1.12.1.17v.17c0 .01 0 .02.02.02h.02l.01-.02a.95.95 0 0 0-.04-.3.1.1 0 0 0-.03-.06c-.05-.03-.07-.07-.06-.11.01-.07.04-.07.07-.01l.19.29c.08.11.1.28.06.51 0 .02-.01.03-.03.01a.25.25 0 0 0-.1-.05c-.02 0-.04 0-.04.02a.14.14 0 0 0-.02.09Z" fill="#FFE4B2"/><path d="M11.9 8.24c-.03-.04-.02-.05.02-.03.05.02.08.06.08.11 0 .04-.01.04-.03.01l-.07-.1Zm-2.23.52.1.12a.41.41 0 0 1-.2-.08 2.38 2.38 0 0 0-.59-.06.67.67 0 0 0-.35.11h-.04l-.14-.13c-.02-.02-.02-.03-.01-.05a1 1 0 0 1 .19-.23.5.5 0 0 1 .27-.14h.34a.6.6 0 0 1 .22.05l.11.05h.02v-.04l.01-.03h.03c.05.04.1.07.17.08.04.01.06 0 .06-.05 0-.02 0-.03.03-.01a.4.4 0 0 0 .12.03l.12.04c.03.02.05.05.06.1 0 .04-.02.06-.06.07a.77.77 0 0 0-.15.04.71.71 0 0 1-.16.04.93.93 0 0 1-.5-.09.76.76 0 0 0-.25-.06c-.01 0-.03 0-.04.02l-.01.02a.06.06 0 0 1-.05.02h-.04c-.1-.01-.15.01-.18.06 0 .01-.02.03-.04.03a.22.22 0 0 0-.08.05v.04h.02c.15-.07.3-.1.46-.08a130.44 130.44 0 0 0 .56.08Zm.44 1.67.25.13c.1-.03.16-.02.19.02.09.07.18.1.28.06.09-.04.15-.1.2-.21.04-.07.1-.13.17-.17.02 0 .03-.02.03-.03a.06.06 0 0 0-.01-.07.12.12 0 0 0-.08-.04c-.18-.02-.28-.13-.3-.33a5.96 5.96 0 0 0-.06-.55.51.51 0 0 1 .08-.4v-.03a.09.09 0 0 1-.05-.04c-.02-.04 0-.07.03-.12a.31.31 0 0 1 .1-.08l.36-.2c.13-.08.27-.1.41-.04h.04c.07-.01.12 0 .16.06v.05a.1.1 0 0 0 0 .1v.04a.27.27 0 0 1-.14.04c-.02 0-.06 0-.11-.02a.94.94 0 0 0-.1-.02l-.05.01-.06.05c-.01.02-.03.01-.04 0l-.01-.02h-.05a51.78 51.78 0 0 1-.27.15c.24-.1.5-.13.77-.07.03 0 .03.02.01.04a.07.07 0 0 1-.03.02.04.04 0 0 0-.04.02v.03a.25.25 0 0 1-.06.1.76.76 0 0 1-.39.17c-.18.01-.3-.04-.34-.18 0-.01-.01-.02-.03-.01a.23.23 0 0 0-.12.16v.2l.06.56c.02.15.1.23.23.25.06 0 .1.03.13.06.03.04.04.08.02.13-.01.03-.04.07-.1.1l-.1.1a.37.37 0 0 1-.23.24.43.43 0 0 1-.34-.04.18.18 0 0 0-.07-.02.45.45 0 0 1-.26-.09c-.04-.03-.1-.04-.19-.03l-.01-.02v-.01c0-.02 0-.03.02-.03a.34.34 0 0 1 .1-.02ZM6.77 8.57c0 .02-.02.03-.05.02a.3.3 0 0 1-.02-.12l.01-.02h.02l.01.01.03.1Z" fill="#010101"/><path d="M8.16 8.58c-.02.06-.01.1 0 .11.03 0 .06-.04.07-.1.01-.06 0-.1-.01-.11-.02 0-.05.04-.06.1Z" fill="#C68684"/><path d="M8.3 8.62c.06.21.05.28-.02.21-.03-.09-.02-.16.02-.2Z" fill="#010101"/><path d="M10.93 8.66h.01a.1.1 0 0 1-.03.07c-.02.02-.03.01-.02 0 0-.03.02-.05.04-.07Z" fill="#D9D9D9"/><path d="M6.13 8.75a.62.62 0 0 1 .15.38l.01.05c.02.12.09.18.2.19.02.02.03.03.05.03a.46.46 0 0 1-.05.11.33.33 0 0 0-.05.17l.02.04h.05l.13-.06.03-.03.02-.01v.02c0 .02.02.04.04.04s.05.01.07.03c.05.03.04.04-.01.05a.1.1 0 0 0-.05.02.04.04 0 0 0-.02.04v.1a1.01 1.01 0 0 1-.6-.6 31.03 31.03 0 0 0-.21-.59c-.01-.05 0-.06.03-.01l.1.13c.02.02.03.01.03 0 0-.05.02-.08.06-.1Zm4.44 1.72c-.03-.05-.05-.08-.04-.1.02-.17 0-.3-.03-.4a2.38 2.38 0 0 1-.1-.54c0-.06-.03-.1-.07-.15a.05.05 0 0 0-.05-.01.05.05 0 0 0-.04.04c-.06.17-.09.36-.1.55 0 .08-.02.14-.07.2.02-.28.01-.56-.02-.84a.42.42 0 0 0-.07-.2.33.33 0 0 0-.2-.14l-.1-.12c.04-.03.1-.04.16-.01l.15.05a.9.9 0 0 1 .51.4c.04.07.07.18.09.34l.05.42c.01.12-.01.3-.07.5Z" fill="#EEAE80"/><path d="m11.59 8.91.02-.15c0-.02.01-.03.03-.02h.06c.03 0 .04.02.03.04a.29.29 0 0 1-.12.15c-.02.01-.03 0-.02-.02Z" fill="#FEFFFF"/><path d="m9.69 9 .15.1v.04c0 .02 0 .03-.02.03l-.14.02-.15.02a1.4 1.4 0 0 1-.56.03c-.14-.02-.22-.1-.25-.25 0-.02 0-.03.02-.04.27-.1.53-.13.79-.07.06.01.1.04.12.1L9.7 9Z" fill="#010101"/><path d="M11.25 9v.01c-.03.03-.07.02-.12-.03l-.01-.02c-.05-.05-.06-.09-.03-.11l.16.15Z" fill="#FFE4B2"/><path d="M9.3 9.15c.05-.03.08-.1.1-.18 0-.03.01-.03.04-.03l.08.05a.1.1 0 0 1 .03.09.1.1 0 0 1-.05.07.36.36 0 0 1-.19.02c-.02 0-.02 0 0-.02Z" fill="#FEFFFF"/><path d="M11.75 9.06c.05-.04.09-.08.08-.09 0 0-.06.01-.11.05s-.1.07-.08.08c0 .01.05 0 .1-.04Z" fill="#010101"/><path d="M8.98 9.16v.01a.21.21 0 0 1-.15-.09v-.04l.06-.05c.01-.01.02 0 .03.01 0 .06.03.11.06.16Z" fill="#FEFFFF"/><path d="M6.85 9.47c-.09-.12-.1-.28-.06-.46.06.12.08.27.06.46Z" fill="#FFE4B2"/><path d="M11.03 9.14V9.1c-.01-.01 0-.02.01-.02l.2.03c.01 0 .02.01.01.03 0 .02-.01.02-.02.02l-.2-.03Zm-4.73.3h-.01c-.04.02-.06 0-.08-.05l-.04-.1c-.01-.05 0-.09.03-.1h.01l.09.25Z" fill="#010101"/><path d="M10.57 10.47c0 .04 0 .07-.02.1-.03-.03-.1-.04-.2-.01a.3.3 0 0 1 .06-.17.06.06 0 0 0 0-.05.43.43 0 0 0-.12-.18.06.06 0 0 0-.06-.01.27.27 0 0 1-.13 0l-.05-.03.02-.07a.28.28 0 0 0 .08-.2c0-.18.03-.37.09-.54 0-.02.02-.04.04-.04l.05.01c.04.04.06.1.07.15.01.2.05.37.1.53.04.1.05.24.03.4 0 .03 0 .06.04.1ZM6.69 9.62l-.02.01-.03.03-.13.07h-.05a.04.04 0 0 1-.02-.05c0-.07.02-.13.05-.17a.46.46 0 0 0 .05-.11.1.1 0 0 1 .05 0l.02.03c-.02.1.01.15.08.19Z" fill="#C68684"/><path d="M6.87 9.65c.01.1.06.15.14.17l.11.16-.4-.06a.17.17 0 0 0 0-.1c0-.02 0-.03.02-.04a.1.1 0 0 1 .05-.02c.05 0 .06-.02 0-.05a.22.22 0 0 0-.06-.03.04.04 0 0 1-.04-.04v-.02h.04c.02 0 .02 0 .01-.02a.23.23 0 0 1-.05-.16c0-.03.02-.03.03-.02.07.06.12.13.15.23Z" fill="#FFE4B2"/><path d="m10.05 10.12.05.04v.02a.88.88 0 0 1-.07.03.34.34 0 0 0-.1.05.28.28 0 0 0-.08.12v.02l-.07.03c-.02 0-.03-.01-.02-.04a.44.44 0 0 1 .3-.27Z" fill="#010101"/><path d="m10.36 10.56-.25-.13c.03-.05.09-.06.19-.04l.04.01h.02v-.03a.61.61 0 0 0-.15-.18c-.02-.02-.06-.03-.1-.01v-.02l.12-.01.06.01c.06.05.1.1.13.18v.05a.3.3 0 0 0-.06.17Z" fill="#EEAE80"/><path d="M11.71 10.36c.02 0 .04-.02.04-.04a.04.04 0 0 0-.04-.03.04.04 0 0 0-.03.03c0 .02.01.04.03.04Zm-2.63.02h.02l.01.01c0 .03-.02.05-.05.06-.01 0-.02 0-.02-.02 0-.03.02-.04.04-.05Zm2.22.32a.13.13 0 0 1-.04-.07c0-.03 0-.03.03 0l.16.18c.02.01.01.02 0 .03-.03 0-.04-.01-.05-.03l-.03-.02s-.02 0-.02.02c-.07.14-.18.28-.34.4a.45.45 0 0 1-.23.1 21.12 21.12 0 0 1-.86.09 2.22 2.22 0 0 1-.23-.05.64.64 0 0 1-.38-.3.83.83 0 0 1-.13-.45c0-.02 0-.02-.02-.02h-.01c-.02 0-.03 0-.02.02 0 .03 0 .05-.02.07-.02.02-.03.01-.03 0-.02-.09 0-.15.05-.2a.33.33 0 0 1 .2-.06c.02 0 .03 0 .01.02a.1.1 0 0 1-.05.03.04.04 0 0 0-.02.03v.04c.16.17.34.31.54.41.07.04.16.05.26.04h.3c.15.02.26.02.33 0 .15-.01.3-.05.45-.09a.21.21 0 0 0 .15-.14v-.04Z" fill="#010101"/><path d="M9.25 10.75v-.09c0-.03 0-.03.03-.02.02.02.04.04.04.06 0 .03-.02.05-.04.06-.02.02-.03.01-.03-.01Z" fill="#D9D9D9"/><path d="M9.47 10.81c.02.02.02.03.01.05-.01.04-.04.04-.09.03a.08.08 0 0 1-.04-.04.07.07 0 0 1 0-.06l.01-.04c0-.02.02-.02.04 0l.07.06Z" fill="#FEFFFF"/><path d="m9.61 10.9.1.07c.03.02.03.05.01.08l-.03.04a.06.06 0 0 1-.04.03c-.02 0-.04 0-.05-.02l-.08-.07c-.02-.01-.03-.03-.02-.06l.02-.05c0-.02.02-.03.04-.04l.05.01Z" fill="#EEAE80"/><path d="M11.2 10.97a.39.39 0 0 1-.1.1c-.03.01-.04 0-.03-.02 0-.06.05-.1.11-.1.02 0 .03 0 .01.02Z" fill="#FFE4B2"/><path d="M9.95 11.04v.01c0 .05-.02.07-.07.07h-.02c-.04 0-.07-.03-.06-.08v-.01h.15Zm.18.02c0 .03 0 .06-.02.08-.02.02-.03.02-.04 0a.09.09 0 0 1-.02-.08c0-.02.02-.03.04-.03s.03.01.04.03Z" fill="#FEFFFF"/><path d="M10.81 11.02h.02v.01c.02.04 0 .07-.05.1h-.01c-.05.02-.08.01-.1-.03v-.01l.14-.07Z" fill="#FFE4B2"/><path d="M10.6 11.13h-.13l-.02-.01v-.04l.02-.01h.12c.02 0 .02 0 .02.02v.02s0 .02-.02.02Zm.34.07c.04-.02.06-.05.04-.07-.01-.02-.05-.02-.08 0-.04.02-.05.05-.04.07.01.02.05.02.08 0Z" fill="#FEFFFF"/><path d="M11.4 11.16c-.02 0-.03 0-.04.02l-.04.16c0 .01 0 .03.02.03s.04 0 .04-.02l.04-.15c0-.02 0-.03-.02-.04Z" fill="#010101"/><path d="M9.6 11.22h.03c0-.02 0-.03-.02-.04l-.03.01.01.03Z" fill="#D9D9D9"/><path d="M9.68 11.27v-.01c0-.03.02-.04.04-.06a.1.1 0 0 1 .07 0c.03 0 .05.02.06.04v.07l-.17-.04Zm.52.04c.04 0 .07-.03.07-.06a.06.06 0 0 0-.06-.06.06.06 0 0 0-.07.06c0 .04.03.06.07.06Zm.18-.09c-.02.03-.01.06 0 .07.02.01.05 0 .06-.03.02-.03.02-.06 0-.07-.02 0-.04 0-.06.03Zm.15 0v.05c.02 0 .04 0 .05-.02.02-.02.01-.05 0-.05-.02-.01-.04 0-.05.02Zm.23.03-.07.01c-.02 0-.03 0-.04-.02 0-.02 0-.04.03-.04l.08-.01.03.03c0 .02-.01.03-.03.03Zm-.71-.03h-.09a.03.03 0 0 0-.03.03v.05c0 .02.01.03.03.03h.09c.02 0 .03 0 .03-.02v-.06a.03.03 0 0 0-.03-.03Z" fill="#FEFFFF"/><path d="m8.92 12.01.04.02a.18.18 0 0 1-.07.03 2 2 0 0 1-.93-.23 9.1 9.1 0 0 0-.64-.3c-.02 0-.03 0-.03.03 0 .22.05.45.16.67.06.1.1.22.14.35a.6.6 0 0 1 .01.24c-.01.13 0 .27.01.42a2.17 2.17 0 0 1-.47-.37.76.76 0 0 1-.13-.24c.06.04.12.12.17.23a.1.1 0 0 0 .07.03c.02 0 .02 0 .02-.02 0-.07-.02-.17-.05-.3a2.84 2.84 0 0 1-.07-.35l-.05-.67c0-.06 0-.14.04-.23.02-.05.07-.08.14-.07.1 0 .2.04.29.12.08.09.18.16.29.23a3.6 3.6 0 0 0 .4.19 4.75 4.75 0 0 0 .66.22Z" fill="#EEAE80"/><path d="m9.22 11.52-.04-.02-.04-.05v-.02l.03-.02.03.01c.03.04.04.07.02.1Zm-.61.3c0 .02-.04.01-.1-.02a1.21 1.21 0 0 1-.2-.12 1 1 0 0 1-.18-.16c-.05-.05-.06-.08-.05-.09l.53.39Z" fill="#010101"/><path d="m9.18 11.5.04.02a.3.3 0 0 0 .09.06l.09.07c0 .02 0 .03-.02.03l-.07.02a.05.05 0 0 0-.04.02v.04a.8.8 0 0 0 .15.21c.15.14.3.27.47.4a.54.54 0 0 1-.25-.05c-.14-.16-.27-.3-.42-.44a.7.7 0 0 1-.15-.21l.01-.04c.07-.03.1-.07.1-.13Z" fill="#EEAE80"/><path d="M8.96 12.03a.3.3 0 0 1 .18.06l.1.08c.1.1.2.16.27.19.24.08.57.12.99.1.02-.01.03 0 .03.02l.08.39c.02.1 0 .2-.08.32-.06.1-.15.2-.24.25-.35.22-.7.3-1.05.25a4.9 4.9 0 0 0-.39-.03 2.85 2.85 0 0 1-1.24-.42c-.02-.15-.02-.3 0-.42 0-.1 0-.18-.02-.24a1.77 1.77 0 0 0-.14-.35 1.34 1.34 0 0 1-.16-.67c0-.02.01-.03.03-.03.08 0 .17.04.28.1l.1.06.26.14a2 2 0 0 0 .93.23l.07-.03Z" fill="#FFE4B2"/><path d="M6.7 12.08c-.03-.11-.02-.2.03-.26.09.01.15-.01.18-.08.04-.06.06-.06.07.01 0 .01 0 .03-.03.05a2.1 2.1 0 0 0-.24.28Z" fill="#EEAE80"/><path d="m6.71 12.2-.35.28c-.03.02-.03.03 0 .02l.07-.01h.03c.05.03.06.06.04.1-.1.14-.22.2-.38.16-.08-.02-.09 0-.03.05.06.06.13.1.2.14l.42.18a1.67 1.67 0 0 1 .47.41c.1.1.15.23.16.38 0 .05.03.09.1.1h.3a.3.3 0 0 1 .22.09.4.4 0 0 0 .22.09l.95.11c.11.02.28 0 .5-.05l.1-.03c.05 0 .08 0 .11.02.03.03.04.06.04.1 0 .01 0 .03.02.03l.07.05a.73.73 0 0 1-.55.11 1.44 1.44 0 0 1-.23-.07 1.27 1.27 0 0 0-.64-.1 12.37 12.37 0 0 0-.6.04 1.49 1.49 0 0 1-.4-.08c-.1-.05-.22-.11-.35-.2a1.06 1.06 0 0 0-.42-.11.13.13 0 0 0 .01-.08c0-.02-.01-.02-.03-.02h-.3c-.06 0-.07-.01-.03-.05l.11-.1c.01 0 .02-.01.01-.03 0 0 0-.02-.02-.03-.07-.04-.1-.1-.08-.16 0-.03 0-.05-.03-.06a.59.59 0 0 1-.2-.15.72.72 0 0 0-.4-.2.05.05 0 0 1-.03-.04l-.03-.07a.08.08 0 0 0-.03-.04 1.4 1.4 0 0 1-.23-.2c-.04-.04-.15-.06-.3-.08h-.1a.6.6 0 0 1 .41-.31 1.5 1.5 0 0 0 .59-.3 1 1 0 0 1 .5-.2c.02 0 .03 0 .02.03 0 .1.03.2.1.29Z" fill="#393939"/><path d="m6.48 12.18-.11.09h-.03l-.01-.02-.01-.15.01-.02.22-.1h.03v.03l-.1.16Zm2.63 1.57c.05.02.1.03.16.01h.2l.18-.02h.03a1.16 1.16 0 0 0 .41-.14c.12-.06.2-.1.25-.14.1-.06.17-.15.24-.26.08-.12.1-.24.08-.34l-.07-.37c-.01-.03 0-.05.04-.06.14-.03.28-.08.42-.15l.05.01.1.16c0 .03 0 .03-.03.03l-.01-.01c-.02-.01-.03 0-.03.01l.01.03.57.3c.13.07.25.2.34.38h-.24c-.1.1-.22.17-.35.22-.08.04-.2.1-.34.2a5.44 5.44 0 0 1-.2.15.55.55 0 0 1-.3.3l-.01.04v.08c-.24.01-.46.1-.64.24l-.07-.05a.04.04 0 0 1-.02-.03.1.1 0 0 0-.04-.1.12.12 0 0 0-.1-.02l-.1.03c-.23.05-.4.07-.51.05l-.95-.11a.4.4 0 0 1-.22-.09.3.3 0 0 0-.22-.08c-.1 0-.2 0-.3-.02-.07 0-.1-.04-.1-.1a.61.61 0 0 0-.16-.37l-.01-.01a1.8 1.8 0 0 0-.46-.4 64.1 64.1 0 0 0-.41-.18.75.75 0 0 1-.21-.14c-.06-.05-.05-.07.03-.05.16.03.28-.02.38-.16.02-.04.01-.07-.04-.1h-.03l-.06.01c-.04 0-.04 0-.01-.02l.35-.27a7.51 7.51 0 0 1 .41.72 2.84 2.84 0 0 0 1.83.79c.05 0 .1 0 .16.03ZM5.1 12.7h.1c.15.02.26.04.3.09l.23.2c.02 0 .03.02.03.03l.03.07c0 .02.02.03.04.03.16.04.3.11.38.21.06.07.13.12.21.15.03.01.03.03.03.06-.02.06 0 .12.08.16.02.01.02.02.02.03v.04l-.12.1c-.04.03-.03.04.02.04h.31c.02 0 .03 0 .03.02l-.01.08a4.29 4.29 0 0 0-.55.03c-.04 0-.05-.02 0-.04a.24.24 0 0 1 .06-.03v-.02l-.02-.01-.08.02a.1.1 0 0 1-.09-.02.1.1 0 0 1-.04-.08v-.06a.55.55 0 0 0-.06-.24 1.1 1.1 0 0 0-.2-.21.52.52 0 0 0-.27-.13 7.9 7.9 0 0 0-.22-.02c-.1-.01-.17-.08-.23-.2-.05-.14-.05-.24.02-.3Z" fill="#262626"/><path d="m11.4 12.72.06.03c.02 0 .03.02.03.04v.04l-.07.1c-.02.03-.05.03-.08.01l-.11-.08a.05.05 0 0 1-.02-.05c0-.02.01-.04.03-.05l.1-.04h.05Z" fill="#010101"/><path d="M12.05 13.2c.1.1.1.21 0 .32a2 2 0 0 1-.32.28c-.05.03-.1.1-.17.2a.61.61 0 0 1-.18.2.47.47 0 0 1-.32.06 7.96 7.96 0 0 0-.44-.08v-.08c-.01-.02 0-.03.01-.04a.56.56 0 0 0 .29-.3c0-.02.02-.03.04-.05l.16-.1c.15-.1.26-.16.34-.2.13-.05.25-.13.35-.21a.07.07 0 0 1 .05-.02l.2.01Z" fill="#393939"/><path d="M9.42 14.13c.02-.02.03-.04.02-.07 0-.02 0-.03.03-.03a.3.3 0 0 0 .14-.05.86.86 0 0 1 .25-.11c.04-.01.1-.04.16-.09a.46.46 0 0 1 .16-.09c.1-.02.19-.07.26-.14a.14.14 0 0 1 .06-.04.33.33 0 0 0 .19-.13c.04-.06.1-.1.17-.11l.1-.02c.07 0 .09.02.06.08a1.5 1.5 0 0 1-.92.68 11.24 11.24 0 0 0-.68.12Zm3.18-.84-.23.01a.1.1 0 0 0-.1.12v.01c0 .06.05.1.11.1l.24-.01a.1.1 0 0 0 .1-.12v-.01c0-.06-.05-.1-.11-.1Zm-7.06.04c.04.08.06.15.05.22 0 .07-.05.1-.11.13H5.4c-.07-.03-.1-.07-.09-.15.03-.12.08-.2.17-.22.02 0 .04 0 .06.02Z" fill="#010101"/><path d="M5.45 13.38c.02-.02.03-.02.05 0 .04.05.05.1.04.17 0 .05-.04.08-.09.08h-.02c-.02 0-.04 0-.05-.02a.06.06 0 0 1-.02-.05.27.27 0 0 1 .1-.18Z" fill="#393939"/><path d="M12.86 13.68c.08 0 .14-.05.13-.11 0-.06-.06-.11-.14-.1-.08 0-.14.05-.14.11s.07.1.15.1ZM5.16 14.03a.46.46 0 0 1 .22-.2c.05-.03.09-.02.13.01.04.03.07.06.08.1 0 .03 0 .04-.02.06a.6.6 0 0 1-.32.15c-.04 0-.06 0-.08-.04a.08.08 0 0 1-.01-.08Zm6.6.18a.22.22 0 0 1 0-.2.28.28 0 0 1 .15-.14h.01a.3.3 0 0 1 .21-.01c.07.02.12.06.15.12V14l-.52.22ZM6.77 14.3c.1.13.2.2.3.22.03 0 .04.01.05.04 0 .02 0 .04-.02.05-.14.1-.27.1-.4 0a.66.66 0 0 1-.25-.33.08.08 0 0 1 .03-.09.09.09 0 0 1 .09-.02c.1.04.16.08.2.13ZM10.55 14.67a.93.93 0 0 0-.29-.02c-.02 0-.03 0-.05-.02-.04-.04-.05-.09-.01-.14.1-.13.23-.17.41-.14l.62.1a.1.1 0 0 1 .06.05c.01.02.01.05 0 .07-.05.09-.16.13-.34.14-.14 0-.27-.01-.4-.04ZM8.46 14.52l.18-.03c.03 0 .06 0 .08.03a.1.1 0 0 1-.01.09c-.13.16-.27.22-.41.2a.05.05 0 0 1-.04-.03.18.18 0 0 1 .01-.2c.02-.03.07-.05.14-.06a.5.5 0 0 0 .05 0Zm-.73.07c.01.03.02.07 0 .1a.19.19 0 0 1-.1.1.2.2 0 0 1-.12.02.13.13 0 0 1-.1-.06.12.12 0 0 1 0-.11.19.19 0 0 1 .09-.1.2.2 0 0 1 .13-.02c.04.01.08.03.1.07ZM9.46 14.83c0 .04 0 .08-.03.1a.16.16 0 0 1-.1.07c-.04 0-.08 0-.11-.02a.13.13 0 0 1-.04-.2.16.16 0 0 1 .1-.06c.05 0 .08 0 .12.02a.2.2 0 0 1 .06.1Z" fill="#010101"/></svg>