<!-- by TradingView --><svg width="18" height="18" viewBox="0 0 18 18" xmlns="http://www.w3.org/2000/svg"><path d="M0 0h18v18H0V0Z" fill="#F0F3FA"/><path d="M14 9a5 5 0 0 1-9.9 1h.64a4.38 4.38 0 0 0 8.64-1h-.5l-.68.86a.26.26 0 0 1-.47-.07l-.42-1.57-.44 2.18c-.06.29-.47.28-.51 0l-.41-2.58-.57 4.16a.26.26 0 1 1-.5-.07l.79-5.85c.04-.3.47-.3.51 0l.46 2.88.38-1.88c.06-.27.44-.28.51-.01l.54 2.03.44-.47c.05-.08.13-.11.22-.11h1.25L14 9Zm-.1-1a5 5 0 0 0-9.87 1.5h1.32c.1 0 .18-.02.22-.1l.32-.38.57 1.84c.08.26.45.24.5-.02l.4-1.8.46 2.87c.05.3.48.29.52-.01L9.09 6a.26.26 0 1 0-.5-.06l-.54 4.16-.4-2.45c-.04-.29-.44-.3-.5-.02L6.66 9.8l-.46-1.5a.26.26 0 0 0-.48-.04L5.2 9h-.57a4.37 4.37 0 0 1 8.63-1h.64Z" fill="url(#awmaoups5)"/><defs><linearGradient id="awmaoups5" x1="4" y1="6.38" x2="11.6" y2="13.34" gradientUnits="userSpaceOnUse"><stop stop-color="#FC3E6E"/><stop offset=".25" stop-color="#EF2D8A"/><stop offset=".54" stop-color="#C24FFE"/><stop offset="1" stop-color="#484EFD"/></linearGradient></defs></svg>