<!-- by TradingView --><svg width="18" height="18" viewBox="0 0 18 18" xmlns="http://www.w3.org/2000/svg"><path fill="url(#afovl5frc)" d="M0 0h18v18H0z"/><path d="m13.51 6.01.14.27c.04.15.08.3.14.45.03.1.05.23.05.4l-.01.3c-.03.06-.04.14-.05.2l-.05.22-.1.3c-.18.34-.38.6-.57.8-.53.52-1.2.9-2.03 1.16a6.97 6.97 0 0 1-1.27.25c-.37.03-.72.03-1.04-.02h-.2c-.1.03-.22.03-.35.02a6.11 6.11 0 0 1-1.94-.52c-.64-.3-1.16-.7-1.55-1.2-.02-.02-.04-.02-.04.01a3.02 3.02 0 0 0 .05 1.18h-.01l-.04-.05a2.29 2.29 0 0 1-.3-.96v-.74a19.96 19.96 0 0 1 .3.5h.03v-.25c.18.29.4.54.66.74.21.18.43.32.63.44.44.24.91.42 1.42.54.45.1.84.17 1.19.2.24.03.52.03.85 0a284.91 284.91 0 0 1 .7-.1l.14-.03a5.18 5.18 0 0 0 2-.74c.38-.25.7-.55.97-.9.26-.36.4-.76.42-1.2.03-.75-.31-1.4-1.02-1.97a.45.45 0 0 0-.1-.06 2.94 2.94 0 0 1-.1-.05c-.2-.19-.42-.34-.67-.46-.64-.31-1.41-.5-2.3-.58a.35.35 0 0 0-.2-.05c-.01 0-.02 0 0-.03v-.01c.01-.03 0-.03-.02-.02l-.01-.01-.03-.01L8.7 4a6.6 6.6 0 0 1 2.76.43c.55.2 1.03.49 1.42.84.24.2.45.45.63.73Z" fill="#0666A5"/><path d="m8.7 4.01.5.02h.03v.02c.03-.01.04 0 .03.02v.01c-.02.02-.01.03 0 .03.09 0 .15.02.2.05a31.33 31.33 0 0 0-1.44.04.77.77 0 0 0-.13.02.48.48 0 0 0-.22.05.47.47 0 0 1-.12.04.69.69 0 0 0-.21.05h-.05l-.06.01a1.9 1.9 0 0 1-.21.07 4.58 4.58 0 0 0-1.77.95 3.1 3.1 0 0 1-.13.12c-.05.06-.1.1-.13.16-.05.07-.11.14-.2.21v.03l-.01.02c-.07.08-.12.15-.16.23l-.11.24c-.27.64-.22 1.27.14 1.88l.02.05v.24c0 .01-.01.02-.02.01a20 20 0 0 0-.31-.5l-.17-.58-.01-.2c-.01-.34.06-.68.21-1.03l.19-.35c.38-.57.93-1.02 1.67-1.35A6.46 6.46 0 0 1 7.7 4.1c.33-.05.66-.08 1-.1Z" fill="#0081DB"/><path d="M9.45 4.16c.9.08 1.67.27 2.31.58.25.12.47.27.67.46l.21.33c.1.14.18.35.24.62a2.52 2.52 0 0 1-.06 1.25c-.1.3-.22.59-.38.83-.26.4-.6.76-1 1.09-.42.33-.82.6-1.18.8-.05 0-.09.02-.13.03a4.07 4.07 0 0 1-1.56.1c-.35-.03-.74-.1-1.19-.2a5.58 5.58 0 0 1-2.05-.98c-.26-.2-.48-.45-.66-.74l-.02-.05-.04-.55c-.02-.27 0-.54.06-.8.05-.23.13-.46.26-.68.31-.55.73-.98 1.26-1.31.35-.22.67-.37.96-.47.35-.1.6-.19.74-.25l.13-.02c.1 0 .17-.02.24-.04a31.33 31.33 0 0 1 1.2 0Z" fill="#0096FF"/><path d="M7.89 4.22c-.14.06-.39.14-.74.25-.29.1-.61.25-.96.47-.53.33-.95.76-1.26 1.3a2.4 2.4 0 0 0-.26.7c-.06.25-.08.52-.06.8l.04.54A2.02 2.02 0 0 1 4.5 6.4l.1-.24.17-.23v-.02c0-.01 0-.02.02-.03.08-.07.14-.14.19-.21l.13-.16h.02l.02-.02.01-.02.08-.07.16-.14a.42.42 0 0 0 .06-.05 4.58 4.58 0 0 1 1.32-.69l.23-.08.21-.07h.11a.69.69 0 0 1 .2-.06c.03 0 .07-.01.12-.04a.48.48 0 0 1 .23-.05Z" fill="#2DA9FE"/><path d="m12.43 5.2.1.05.1.06c.7.57 1.05 1.22 1.02 1.97-.02.44-.16.84-.43 1.2a3.5 3.5 0 0 1-.97.9c-.6.38-1.27.63-2 .74.37-.2.77-.47 1.2-.8.4-.33.73-.69.99-1.09a3.35 3.35 0 0 0 .5-1.46c0-.26-.02-.46-.06-.62a1.85 1.85 0 0 0-.24-.62 3.2 3.2 0 0 1-.21-.33Z" fill="#0081DB"/><path d="m4.56 5.92-.19.35c-.37.3-.67.66-.9 1.06a2.62 2.62 0 0 0 .04 2.64v.21l-.01.01h-.01a3.12 3.12 0 0 1-.33-.67 7.06 7.06 0 0 0-.01.67c.02.52.21 1.02.56 1.5.32.44.73.8 1.23 1.1l.3.18a7.93 7.93 0 0 0 2.91.86c.56.05 1.13.05 1.72 0 .76-.07 1.5-.25 2.23-.55.4-.15.75-.34 1.06-.55.5-.33.9-.7 1.18-1.13.33-.47.5-.97.52-1.5a22.67 22.67 0 0 0 0-.62c-.1.28-.24.55-.4.8-.39.51-.85.93-1.4 1.26a7.83 7.83 0 0 1-5.1.98 7.6 7.6 0 0 1-3-.98.21.21 0 0 1-.03-.11c0-.01 0-.02.02-.03h.02a7.3 7.3 0 0 0 3.81 1.05c.99.02 1.93-.1 2.83-.4.99-.32 1.78-.8 2.38-1.43A3.17 3.17 0 0 0 14.83 9c.08-.62-.04-1.2-.35-1.74a3.78 3.78 0 0 0-.83-.97L13.5 6c.56.4.98.89 1.24 1.47.16.34.24.73.25 1.15v1.36c0 .3-.04.55-.1.77-.29 1-1.03 1.8-2.23 2.41-.84.43-1.77.7-2.78.79-1.07.1-2.09.02-3.07-.22a5.97 5.97 0 0 1-2.89-1.58A2.99 2.99 0 0 1 3 10.04V8.59c0-.76.3-1.45.89-2.06l.4-.39c.13-.09.22-.16.27-.22Z" fill="#282627"/><path d="M9.29 6.38a2.4 2.4 0 0 0-.74 0 .03.03 0 0 0-.02.02.1.1 0 0 0 0 .06v.22c0 .01 0 .02.02.02.12-.02.24-.02.37-.02l.14-.02c.16-.02.27 0 .32.03.03.03.05.06.05.1 0 .04 0 .07-.04.1a.3.3 0 0 1-.13.04H9.2l-.66.04c-.02 0-.04.01-.04.03v.06l.03.24c0 .01 0 .02.02.02l.14.02.55-.02c.14 0 .21.04.2.14 0 .1-.07.15-.2.15h-.62a.86.86 0 0 1-.26-.05c-.14-.05-.2-.23-.2-.55a2.96 2.96 0 0 1 .02-.3c.01-.15 0-.31-.04-.47.01-.1.1-.14.24-.13h.12c.27-.05.55-.05.83 0 .05 0 .1.02.13.05.07.07.06.14-.04.2a.17.17 0 0 1-.13.02ZM10.94 7l.2.15h.02c0-.15-.02-.3-.03-.43-.01-.16-.05-.3-.12-.45.03-.1.1-.14.19-.14.1 0 .18.08.23.24l.02.06a11.52 11.52 0 0 0 .05.77c.02.27-.06.39-.24.36a1.33 1.33 0 0 1-.25-.14 9.26 9.26 0 0 1-.94-.76l.01.3c.02.19.02.34.02.46-.01.13-.09.2-.23.18-.1-.03-.14-.1-.13-.19.02-.39 0-.78-.07-1.17.07-.12.16-.15.27-.11l.19.15c.24.25.51.5.81.72ZM6.16 6.85l.05.14c0 .04.02.04.03 0l.31-.71c.12-.13.23-.16.34-.07.03.03.06.1.08.2.03.2.09.39.16.58l.05.14h.02a38.45 38.45 0 0 0 .35-.78l.02-.07c.08-.15.2-.19.33-.1.05.02.07.06.06.12l-.01.02c-.03.05-.07.12-.1.22l-.08.16-.38.73c-.05.1-.13.17-.21.19-.1 0-.17-.03-.2-.1a3.03 3.03 0 0 1-.24-.7c-.01-.03-.02-.03-.04 0l-.12.27a.7.7 0 0 0-.16.38c0 .03-.01.05-.04.07a.32.32 0 0 1-.16.04c-.1-.01-.16-.05-.18-.12l-.22-.6c-.04-.1-.13-.29-.28-.57 0-.07.03-.12.1-.14a.2.2 0 0 1 .17.01c.04.02.08.07.11.14.1.16.17.35.24.55ZM11.97 7.6c-.14-.03-.2-.1-.16-.22.02-.05.07-.1.15-.11v-.01c-.09-.05-.11-.12-.07-.21l.35-.22c.1-.04.16-.08.18-.13.02-.04.02-.07-.01-.1-.15-.16-.3-.2-.48-.1h-.01c-.11.06-.2.07-.25.03-.07-.03-.1-.08-.08-.15a.3.3 0 0 1 .14-.12.8.8 0 0 1 .83.07c.12.08.19.18.2.3.03.12-.01.22-.12.3-.07.06-.15.1-.24.15-.04.02-.1.05-.16.1l-.13.08v.02c.06.06.08.11.07.17-.03.1-.1.14-.21.15Z" fill="#fff"/><path d="M8.14 6.24c.04.16.05.32.04.48a2.58 2.58 0 0 0-.03.3c0 .3.07.49.2.54.09.03.18.04.27.05h.62c-.05.06-.1.1-.17.1-.3.03-.58.03-.84-.01-.2-.03-.3-.25-.27-.64v-.08c.03-.29.02-.5-.01-.66l.01-.02c.05-.03.1-.05.18-.06ZM9.67 6.24c.06.4.09.78.07 1.17 0 .1.04.16.13.19a.2.2 0 0 1-.2.1c-.08 0-.12-.05-.12-.14a10.06 10.06 0 0 0-.06-1.1c-.01-.05 0-.1.04-.15l.03-.01a.38.38 0 0 0 .11-.06Z"/><path d="M4.37 6.27c-.15.35-.22.7-.21 1.04l-.3.42c-.23.42-.35.86-.35 1.33 0 .4 0 .69-.02.85a2.62 2.62 0 0 1-.01-2.58c.22-.4.52-.76.89-1.06Z" fill="#817B7D"/><path d="m6.55 6.28-.3.72c-.02.03-.03.03-.04 0l-.04-.15c.07-.21.14-.35.2-.43.02-.05.09-.1.18-.14ZM7.57 6.28a12.26 12.26 0 0 0-.1.3 38.45 38.45 0 0 1-.3.55l-.04-.14c.1-.2.17-.32.19-.39.05-.22.14-.32.25-.32ZM11.01 6.27c.07.14.1.3.12.45a27.15 27.15 0 0 1 .02.43l-.2-.15c0-.18-.04-.37-.1-.56-.04-.1.01-.15.16-.17ZM5.54 6.29a5.68 5.68 0 0 1 .5 1.17c.02.07.08.11.18.12-.08.1-.19.13-.32.09a.1.1 0 0 1-.05-.06 5.98 5.98 0 0 0-.47-1.13.18.18 0 0 1-.02-.15l.03-.02c.05-.02.1-.03.15-.02Z"/><path d="M13.65 6.28c.34.28.61.61.83.97a2.66 2.66 0 0 1 .03 2.67 11.4 11.4 0 0 1-.02-.96c0-.36-.1-.72-.3-1.1a4.18 4.18 0 0 0-.32-.5.03.03 0 0 1-.01-.02l-.02-.2c0-.18-.02-.31-.05-.4a3.9 3.9 0 0 1-.14-.46Z" fill="#817B7D"/><path d="M11.59 6.38c-.01.07.01.12.08.15.06.04.14.03.25-.03h.02c.16-.1.32-.06.47.1.03.03.03.06.01.1-.02.05-.08.1-.18.13-.04-.18-.16-.26-.36-.25l-.2.05a.78.78 0 0 1-.2.04.7.7 0 0 0-.03-.24c.03 0 .06 0 .09-.02a.1.1 0 0 1 .05-.03ZM11.26 7.56c-.06.13-.15.15-.29.08a2.94 2.94 0 0 1-.43-.3l-.46-.38-.01-.3c0-.02 0-.02.02 0 .29.26.6.52.92.76.08.06.16.1.25.14ZM7.18 7.62l-.12.07a.25.25 0 0 1-.14.03c-.1 0-.16-.06-.2-.17l-.14-.46.12-.27c.02-.03.03-.03.04 0l.05.17c.06.24.13.42.18.53.04.07.1.1.2.1ZM9.2 6.94c0 .06-.07.1-.17.1-.22.02-.4.03-.52.02V7c0-.02 0-.03.03-.03l.66-.03ZM11.9 7.05c-.05.1-.03.16.06.2v.02c-.08.02-.13.06-.15.11-.04.12.02.19.16.22a.51.51 0 0 1-.12.08.22.22 0 0 1-.18 0c-.06-.04-.08-.09-.05-.16.03-.05.07-.09.12-.1.02 0 .03-.01.03-.03 0-.01 0-.03-.02-.03-.04-.02-.07-.05-.07-.1 0-.04.01-.07.05-.1l.16-.11Z"/><path d="m13.84 7.13.02.2.01.03a4.2 4.2 0 0 1 .33.5c.2.38.3.74.29 1.1l.01.96c-.12.24-.3.48-.5.7-.6.63-1.4 1.1-2.39 1.43-.9.3-1.84.42-2.83.4.22-.16.38-.33.5-.52v-.06a6.59 6.59 0 0 0 2.05-.39c.71-.26 1.3-.62 1.75-1.09.3-.31.52-.66.64-1.03.07-.2.1-.4.11-.56V7.13Z" fill="#706A6C"/><path d="m4.16 7.3.01.2v.9a2.37 2.37 0 0 0 .52 1.72l.11.16a2.8 2.8 0 0 0 .1 1.07A4.35 4.35 0 0 1 3.48 9.9l.02-.85a2.62 2.62 0 0 1 .65-1.75Z" fill="#979193"/><path d="M13.83 7.42V8.8c0 .17-.04.36-.1.56-.13.37-.35.72-.65 1.03-.46.47-1.04.83-1.75 1.1-.64.23-1.32.36-2.05.38a6.52 6.52 0 0 1-3.23-.66 4.55 4.55 0 0 1-1.26-.93h.01l-.08-.37a2.4 2.4 0 0 1 .34.37l.05.05a2.9 2.9 0 0 0 .5.43.3.3 0 0 1 .09.05l.03.02a.1.1 0 0 1 .06.02l.06.05c.04.01.07.03.1.06a7.26 7.26 0 0 0 .67.33c.44.16.89.28 1.34.34a5.71 5.71 0 0 0 2.01.01 5.96 5.96 0 0 0 2.42-.89c.34-.23.62-.5.84-.8a2.25 2.25 0 0 0 .4-1.8l.1-.3.05-.22c0-.06.02-.14.05-.2Z" fill="#06224A"/><path d="m4.17 7.5.17.58v.74a2.29 2.29 0 0 0 .3.96c0 .05.03.1.08.13l.08.37-.11-.16a2.37 2.37 0 0 1-.52-1.73V7.5ZM13.63 8.16a2.25 2.25 0 0 1-.4 1.78c-.22.31-.5.58-.84.81a5.17 5.17 0 0 1-2.42.9 9.01 9.01 0 0 1-1.36.07c-.1 0-.32-.03-.65-.09a9.55 9.55 0 0 0 1.54-.02c.15-.14.27-.27.35-.4.2-.28.24-.57.14-.88.37-.05.72-.12 1.04-.22.82-.25 1.5-.64 2.03-1.16.2-.2.38-.46.57-.8Z" fill="#013D93"/><path d="M9.99 10.33c.1.3.05.6-.14.89-.08.12-.2.25-.35.4a.08.08 0 0 1-.04.01 1 1 0 0 1-.23.02h-.26c-.16.02-.5.01-1-.02a6.2 6.2 0 0 1-2.02-.67.37.37 0 0 0-.1-.06.23.23 0 0 1-.06-.05.1.1 0 0 0-.06-.02l-.03-.02a.3.3 0 0 0-.09-.05A2.9 2.9 0 0 1 5 10.2a2.4 2.4 0 0 0-.27-.3.19.19 0 0 1-.08-.13l.04.05h.01V9.8c-.09-.39-.1-.77-.05-1.15 0-.03.02-.03.04 0 .39.49.9.89 1.55 1.19.59.27 1.24.44 1.94.52.13.01.25 0 .36-.01a.63.63 0 0 1 .2 0 4.67 4.67 0 0 0 1.26-.02Z" fill="#0047AB"/><path d="M13.16 12.73c0-.04 0-.06.03-.08l.06-.04.39-.35.28-.33c.22-.29.39-.63.5-1.02.06-.22.07-.43.03-.63a3.72 3.72 0 0 0 .41-.8v.62a2.74 2.74 0 0 1-.52 1.5c-.29.43-.68.8-1.18 1.13ZM3.5 10.19c.02.05.03.06.01.04a2.59 2.59 0 0 0 .58 1.71 8.9 8.9 0 0 1 .59.62l.1.09c.07.04.12.08.16.14-.5-.3-.9-.66-1.23-1.1a2.8 2.8 0 0 1-.57-1.5 7.06 7.06 0 0 1 .02-.67c.08.23.19.45.33.67Z" fill="#817B7D"/><path d="m3.51 9.97.17.25a4.35 4.35 0 0 0 1.27 1.18.03.03 0 0 0-.02.03c0 .04 0 .08.02.11h-.01l-.4-.27A4.42 4.42 0 0 1 3.5 10.2l.01-.22Z" fill="#706A6C"/><path d="M3.51 10.23a4.42 4.42 0 0 0 1.43 1.31c0 .17.02.38.06.62.04.24.1.44.18.6l.04.1.05.08v.03h-.03l-.3-.18a.48.48 0 0 0-.16-.14.46.46 0 0 1-.1-.08.69.69 0 0 0-.1-.1.13.13 0 0 1-.04-.03 8.88 8.88 0 0 0-.26-.28 4.64 4.64 0 0 1-.36-.46 2.59 2.59 0 0 1-.41-1.47Z" fill="#979193"/><path d="M4.8 10.28c.37.39.79.7 1.25.93.96.49 2.04.7 3.23.66v.06c-.12.19-.28.36-.5.52a7.3 7.3 0 0 1-3.9-1.1 2.8 2.8 0 0 0-.03-.26 2.33 2.33 0 0 1-.06-.81Z" fill="#817B7D"/><path d="M14.45 10.28c.04.2.03.41-.03.63a2.9 2.9 0 0 1-.78 1.35 7.05 7.05 0 0 1-.45.39c-.03.02-.04.04-.03.08a7.96 7.96 0 0 1-3.3 1.1 9.43 9.43 0 0 1-2.8-.18l.24-.07c.27-.06.48-.21.64-.44.1-.15.18-.36.2-.6a8.38 8.38 0 0 0 4.92-1 4.74 4.74 0 0 0 1.4-1.26Z" fill="#706A6C"/><path d="M4.94 11.54h.02l.34.2a7.6 7.6 0 0 0 2.85.8c-.03.24-.1.45-.21.6-.16.23-.37.38-.64.44l-.24.07a6.9 6.9 0 0 1-1.82-.68h.02c.02 0 .02-.02.01-.03a.17.17 0 0 1-.05-.08 5.04 5.04 0 0 1-.28-1.32Z" fill="#817B7D"/><defs><linearGradient id="afovl5frc" x1="3.35" y1="3.12" x2="21.9" y2="24.43" gradientUnits="userSpaceOnUse"><stop stop-color="#1A1E21"/><stop offset="1" stop-color="#06060A"/></linearGradient></defs></svg>