<!-- by TradingView --><svg width="18" height="18" viewBox="0 0 18 18" xmlns="http://www.w3.org/2000/svg"><path fill="url(#a)" d="M0 0h18v18H0z"/><path d="M10.39 4.2c-.1.14-.31.28-.63.41a8.6 8.6 0 0 0-.1.04 1.94 1.94 0 0 0-1.53.24.66.66 0 0 0-.28.2c-.13.15-.26.37-.4.63a.55.55 0 0 0-.32.04.03.03 0 0 0-.02.03v.02c.01 0 .03 0 .05.02a.04.04 0 0 1 0 .07h-.22l-.02.02c-.09.12-.17.33-.23.64-.02.1-.09.18-.2.23a1 1 0 0 0-.18-.31.04.04 0 0 0-.07.05 1 1 0 0 1 .1.3c-.09.08-.18.06-.28-.04l-.48-.23a.14.14 0 0 0-.08-.01 1.22 1.22 0 0 0-.57.24.03.03 0 0 0 .01.03l.02.02a.03.03 0 0 0 .04 0 .7.7 0 0 1 .46-.2c.03 0 .07 0 .11.02l.47.22c.01.03.03.05.07.07h-.03l-.04.01-.25.18a3.67 3.67 0 0 0-.54.42c-.2.16-.3.3-.33.43a.69.69 0 0 0-.16.27c.1 0 .15 0 .18.03l-.08.03a.04.04 0 0 0 0 .07l.07.02c.24.07.41.16.52.28.09.1.2.1.33 0 .14-.12.32-.23.54-.33a.05.05 0 0 0-.02-.1l-.8-.02c.43-.16.8-.1 1.15.18a.05.05 0 0 1 .01.06c-.02.05-.07.08-.14.08a.02.02 0 0 0-.01.03 1.24 1.24 0 0 1 .47.22.03.03 0 0 1-.03.04c-.42.07-.64.28-.68.63a.06.06 0 0 1-.03.04l-.58.3v.04a.03.03 0 0 0 .05 0l.34-.17a.9.9 0 0 1 .37-.1c.2 0 .4.04.6.13L7 9.78a1.3 1.3 0 0 0-.9.22c-.23.07-.34.2-.33.37-.06.04-.07.08-.04.1.07.02.09.06.06.1l-.27-.1c.04-.21.06-.43.05-.65a.5.5 0 0 1 .12-.37l.05-.05c.1-.11.17-.2.23-.24a4.6 4.6 0 0 0 .42-.37.04.04 0 0 0-.03-.02c-.4-.03-.7.1-.9.41-.04.07-.09.19-.13.36l-.11.37a3.3 3.3 0 0 1 .19-1.03.02.02 0 0 0-.02-.01c-.28.06-.57.1-.86.1-.14 0-.32.05-.53.15A5 5 0 0 1 10.4 4.2Z" fill="#2F3740"/><path d="M13.8 7.62c-.1-.01-.2-.04-.3-.08a.1.1 0 0 0-.04 0l-.62.02a.07.07 0 0 1-.07-.07l.01-.1a2.1 2.1 0 0 0-.03-.8.12.12 0 0 0-.1-.08c-.48-.1-.94-.02-1.38.22l-.19-.22a.19.19 0 0 1-.04-.09l-.06-.36c-.07 0-.12.01-.15.05h-.04a.05.05 0 0 1-.01-.1c.2-.08.26-.23.16-.43l-.56-.52c-.19-.17-.4-.3-.62-.35l-.1-.06.1-.04c.32-.13.53-.27.63-.41a5 5 0 0 1 3.42 3.42Z" fill="#3E4751"/><path d="m9.66 4.65.1.06-.78.14a.05.05 0 0 0-.04.02.05.05 0 0 0 0 .04c.1.3.31.7.65 1.23.03.05.08.2.14.42-.27-.21-.5-.45-.66-.71a.13.13 0 0 1-.02-.07.82.82 0 0 0-.2-.51 4.02 4.02 0 0 1-.06-.07c-.18-.23-.36-.28-.55-.15a.1.1 0 0 1-.11 0 .09.09 0 0 1-.03-.1l.03-.06c.5-.3 1-.38 1.53-.24Z" fill="#A0B2C1"/><path d="M9.76 4.7c.23.07.43.19.62.36l-.68-.04a.04.04 0 0 0-.03.06c.08.15.12.37.14.66.02.24.07.47.16.7l.03.07a.06.06 0 0 0 .05.03h.1a.18.18 0 0 0 .09-.08 2 2 0 0 1 .44-.6c-.03.1-.05.19-.05.27a.1.1 0 0 0 .08.12.1.1 0 0 0 .13-.07v-.07c.02-.04.07-.05.14-.05v.71c-.03.03-.07.04-.13.05l-.2-.02c-.42 0-.73-.08-.92-.24-.06-.23-.1-.37-.14-.42a6.17 6.17 0 0 1-.65-1.27.05.05 0 0 1 .04-.02l.78-.14Z" fill="#BAC9D5"/><path d="M8.13 4.89a.23.23 0 0 0-.04.06.09.09 0 0 0 .04.1.1.1 0 0 0 .11 0c.19-.13.37-.08.55.15l.05.07c.14.17.2.34.2.51l.03.07c.17.26.39.5.66.71.2.16.5.24.92.24-.26.1-.5.16-.75.17 0-.07-.06-.1-.2-.1a1.3 1.3 0 0 0-.5-.6.94.94 0 0 1-.21-.31.04.04 0 0 0-.04-.03.05.05 0 0 0-.04.01l-.2.22-.32.28a.03.03 0 0 1-.03 0l-.03-.03a.03.03 0 0 1 0-.03l.6-.6a.11.11 0 0 0 .03-.12.1.1 0 0 0-.02-.04l-.32-.31a.05.05 0 0 0-.08 0l-.26.35-.02.01h-.02l-.45-.05a.08.08 0 0 0-.09.06l-.1.4-.06.02c.07-.2.04-.33-.09-.38.14-.26.27-.48.4-.64a.66.66 0 0 1 .28-.2Z" fill="#8392A0"/><path d="m10.38 5.06.56.52-.02.2v.01h-.01c-.11 0-.19.02-.23.06a2 2 0 0 0-.44.61.18.18 0 0 1-.08.08 3.06 3.06 0 0 0-.11-.71.05.05 0 0 0-.07.04l-.01.57a2.23 2.23 0 0 1-.16-.7 1.67 1.67 0 0 0-.15-.68.04.04 0 0 1 .04-.04l.68.04Z" fill="#CFDCE5"/><path d="M8.71 6.16c-.06.36-.26.5-.6.44a.7.7 0 0 0-.19 0h-.1c.05-.11.14-.2.26-.27a.04.04 0 0 0 .01-.02.04.04 0 0 0 0-.04h-.04l.03-.04c.07 0 .14-.03.2-.07a.06.06 0 0 0 .04-.07.28.28 0 0 1 .04-.25.03.03 0 0 0-.02-.04 1.4 1.4 0 0 0-.48-.1c-.07.1-.13.21-.18.33 0 .02-.03.04-.07.05l.1-.4a.08.08 0 0 1 .08-.06l.45.06h.02l.02-.02.26-.35a.05.05 0 0 1 .08 0l.32.31a.1.1 0 0 1 0 .16l-.6.6a.03.03 0 0 0 0 .03l.02.03a.03.03 0 0 0 .03 0l.32-.28Z" fill="#727F8B"/><path d="M10.83 6.1v.08a.1.1 0 0 1-.12.07.1.1 0 0 1-.08-.12c0-.08.02-.17.05-.28.04-.04.12-.06.23-.06l.03-.21c.1.2.04.35-.16.43a.05.05 0 0 0-.02.08l.03.01h.04Z" fill="#8392A0"/><path d="M8.08 6.23a.72.72 0 0 1-.29-.2c.06.02.11.02.16.01A.04.04 0 0 0 7.97 6c-.03-.1-.09-.13-.19-.12l.08-.19a1.4 1.4 0 0 1 .5.12.03.03 0 0 1 0 .03.28.28 0 0 0-.04.25.06.06 0 0 1-.03.07.49.49 0 0 1-.21.07Z" fill="#3E4751"/><path d="M7.45 5.72c.13.05.16.17.09.38-.04.01-.07 0-.09-.03v-.02a.26.26 0 0 0-.04-.16l-.26.08c-.13.01-.2.08-.24.2l-.03.14-.02.36a.15.15 0 0 1-.1.13l-.2.06a.03.03 0 0 0-.01.01.03.03 0 0 0 0 .03.03.03 0 0 1-.02.05s-.02 0-.02.02V7l.09.2c-.1-.08-.22-.16-.33-.22-.06-.04-.1-.03-.12.02l-.04-.06a.14.14 0 0 1-.07-.07C6.02 6.87 6 6.85 6 6.83v-.01l.05-.03c.1.1.2.12.29.05l.14-.05c.11-.05.18-.12.2-.23a1.7 1.7 0 0 1 .25-.66h.22a.04.04 0 0 0 0-.07.12.12 0 0 1-.04-.02.03.03 0 0 1 0-.05c.1-.05.2-.06.33-.04Z" fill="#A0B2C1"/><path d="m7.86 5.7-.08.18c-.02.06-.01.1.01.14.08.1.18.17.29.21l-.03.03-.26.13a.08.08 0 0 0-.04.05l-.07.19a.03.03 0 0 0 .02.04h.01c.04 0 .08-.03.1-.07h.11a.7.7 0 0 1 .18 0c.35.06.55-.08.61-.44l.2-.22a.05.05 0 0 1 .04-.01.05.05 0 0 1 .03.03.94.94 0 0 0 .21.3c.24.16.4.37.5.61-.08.03-.11.05-.1.09l-.67-.1a3.82 3.82 0 0 0-.75.01.44.44 0 0 0-.18.09v.01l.01.01c.04.01.07.02.1 0a.84.84 0 0 1 .36-.06.85.85 0 0 0 .01.63c.1.2.15.38.16.53-.73-.51-1.1-.98-1.13-1.4 0-.09-.03-.17-.08-.26-.07-.13-.08-.3 0-.53.02.04.03.1.03.16v.02c.02.03.05.04.09.03l.07-.02c.04-.01.06-.03.07-.05.05-.12.1-.23.18-.34Z" fill="#4A6276"/><path d="M10.16 6.54a.23.23 0 0 1-.11 0 .06.06 0 0 1-.05-.03l-.03-.07v-.57a.05.05 0 0 1 .1-.01c.05.21.08.44.09.68Z" fill="#EAEEEF"/><path d="M7.8 6.02c-.03-.03-.04-.08-.02-.14.1 0 .16.03.2.12a.04.04 0 0 1-.03.04c-.05.01-.1 0-.16-.02Z" fill="#080A0E"/><path d="M7.41 5.89c-.07.23-.06.4.01.53.05.09.08.17.08.27.03.41.4.88 1.13 1.4 0-.02 0-.01.02 0l.06.02.11.07c.06.04.11.07.15.07.14.03.26.07.34.14a.05.05 0 0 1-.02.08c-.04 0-.08 0-.12-.02l-.53-.2a.17.17 0 0 0-.06-.04.22.22 0 0 1-.05-.04 1.3 1.3 0 0 0-.49-.37 6.67 6.67 0 0 1-.45-.44 2.2 2.2 0 0 1-.45-1.05l.01-.34.26-.08Z" fill="#21272D"/><path d="m7.15 5.97-.01.34a2.2 2.2 0 0 0 .45 1.04 6.67 6.67 0 0 0 .45.45c.19.07.35.2.49.37l.05.04.06.05.41.38a.02.02 0 0 1 0 .01v.01a.84.84 0 0 1-.85-.31 2.27 2.27 0 0 0-.65-.5 1.04 1.04 0 0 1-.24-.31c-.06-.1-.2-.2-.44-.33a.7.7 0 0 1-.16-.19.03.03 0 0 1 0-.03l.03-.01h.04l.16.17a.03.03 0 0 0 .04-.03.72.72 0 0 1-.08-.45c.01.07.05.12.1.16l.04.04.01.02c.14.3.3.51.48.65a.05.05 0 0 0 .06-.06c-.1-.15-.24-.37-.43-.63A.98.98 0 0 1 7 6.2a.04.04 0 0 0-.04-.04h-.05c.03-.12.11-.19.24-.2Z" fill="#3E4751"/><path d="M11.27 6.73c.07.15.2.26.38.33l-.18.18-.01.03-.02.04h-.01l-.02-.03c-.03-.18-.1-.36-.22-.52 0-.02-.02-.02-.04-.01a.03.03 0 0 0-.02.02.03.03 0 0 0 0 .02c.13.25.16.47.1.65l-.24.8a.19.19 0 0 1 .02-.12.03.03 0 0 0 0-.04h-.02a.03.03 0 0 0-.04 0c-.19.4-.49.53-.9.41l.42-.05c.04 0 .07-.02.1-.04l.17-.16c.26-.4.3-.88.1-1.42.07 0 .11-.02.13-.05l.01-.02v-.7l.06.37c0 .04.02.07.04.1l.2.21Z" fill="#727F8B"/><path d="m6.9 6.67-.02-.36.03-.15.05.01a.04.04 0 0 1 .04.04c-.02.25.04.46.16.64a23.62 23.62 0 0 1 .44.66.05.05 0 0 1-.07.03 1.81 1.81 0 0 1-.49-.67.11.11 0 0 0-.04-.04.22.22 0 0 1-.1-.16Z" fill="#21272D"/><path d="m8.05 6.26.04.01a.04.04 0 0 1 0 .04.04.04 0 0 1-.01.02.65.65 0 0 0-.27.27.15.15 0 0 1-.1.07.03.03 0 0 1-.03-.04l.07-.2a.08.08 0 0 1 .04-.04l.26-.13Z" fill="#A0B2C1"/><path d="m6.88 6.31.02.36c-.02.17.01.32.08.45a.03.03 0 0 1-.04.03l-.16-.17h-.06a.03.03 0 0 0-.01.04v.01c.07.1.13.16.16.18.23.13.38.24.44.33.1.18.19.28.24.31.3.17.52.34.65.5a.84.84 0 0 0 .85.31v-.02l-.41-.38a12.12 12.12 0 0 1 .65.21.05.05 0 0 0 .02-.08.78.78 0 0 0-.34-.14.41.41 0 0 1-.15-.07.57.57 0 0 0-.1-.07l.15-.13a.04.04 0 0 1 .04 0 .04.04 0 0 1 .02.04v.02a.06.06 0 0 0 .01.08l.1.07.05.01c.15-.02.3.03.43.13a.05.05 0 0 0 .07 0c.02-.02.03-.05.03-.1.01.09 0 .14-.06.18l-.03.12c-.03-.03-.06-.03-.1.02a.6.6 0 0 0-.08.2.08.08 0 0 1-.1.07.87.87 0 0 0-.4.03.04.04 0 0 0-.02.03.04.04 0 0 0 0 .04.77.77 0 0 1 .05.17.03.03 0 0 1-.02.02l-.2.05a.14.14 0 0 1-.12-.02l-.35-.26a.22.22 0 0 1-.08-.12.47.47 0 0 0-.1-.2.18.18 0 0 1-.05-.07.35.35 0 0 0-.14-.2l-.11-.14a.13.13 0 0 0-.14-.04c-.2.07-.36.03-.49-.1-.03-.03-.06-.12-.08-.25a1.18 1.18 0 0 0-.03-.15l-.37-.4a1.45 1.45 0 0 0-.1-.2v-.04l.03-.02a.03.03 0 0 0 .02-.04V6.9a.03.03 0 0 1 0-.03.03.03 0 0 1 .01-.01l.2-.06a.14.14 0 0 0 .1-.13l.02-.36Z" fill="#506F8A"/><path d="m13.8 7.62.04.13-.08.09c-.04-.03-.08-.04-.1-.01a1.4 1.4 0 0 1-.52.3 1.2 1.2 0 0 0-.3.18.22.22 0 0 0-.05.06c-.03.06-.06.09-.1.1a.86.86 0 0 1-.41.04l-.06-.13c.1-.15.24-.23.42-.23a.03.03 0 0 0 .03-.03l-.01-.02-.06-.05-.44-.61a.08.08 0 0 1-.02-.06l.03-.1a.1.1 0 0 0-.01-.08.57.57 0 0 1-.07-.37c.02-.14.1-.24.22-.29v-.01a.03.03 0 0 0-.01-.04h-.03c-.14.05-.23.15-.28.3a.64.64 0 0 0 .03.43v.02a.04.04 0 0 1-.04.03h-.02l-.3-.2a.67.67 0 0 1-.39-.34c.44-.24.9-.31 1.38-.22a.13.13 0 0 1 .1.09c.05.16.06.42.03.79v.1a.07.07 0 0 0 .06.07l.62-.03a.1.1 0 0 1 .04.01c.1.04.2.07.3.08Z" fill="#475663"/><path d="m6.49 6.79-.14.05a1 1 0 0 0-.1-.31.04.04 0 0 1 .06-.05 1 1 0 0 1 .18.3Z" fill="#696868"/><path d="M12.6 8.05v.04a.03.03 0 0 1-.04.06c-.14-.07-.28-.1-.41-.12-.02 0-.03 0-.04-.02l-.01-.03v-.06a.06.06 0 0 0-.04-.06.23.23 0 0 0-.21.04l-.03.05c-.14.12-.2.24-.17.36-.04.16-.04.27.01.35a1 1 0 0 0-.47.14.08.08 0 0 0-.04.06l-.03.16c0 .03-.01.05-.03.07l-.19.19a.14.14 0 0 1-.1.04h-.46l-.01.01v.02a.03.03 0 0 0 0 .04H10.48a.03.03 0 0 1 .02.02.03.03 0 0 1-.02.04 27.3 27.3 0 0 0-.78.2c-.02 0-.03-.02-.03-.04a.02.02 0 0 0 0-.02.02.02 0 0 0-.02 0l-.43-.02-.06.01a.41.41 0 0 0-.2.24l-.29-.04a.1.1 0 0 0 .02-.06.06.06 0 0 0-.02-.05.8.8 0 0 1-.4-.52 1.56 1.56 0 0 0 .55.52.1.1 0 0 0 .1-.05 1.62 1.62 0 0 1 .19-.25h.03a.08.08 0 0 1 .06.03c.03.04.09.06.16.04a.06.06 0 0 0 .04-.04l.04-.2a.09.09 0 0 0-.03-.08.54.54 0 0 0-.22-.1.02.02 0 0 1-.01-.02l.15-.08a.06.06 0 0 1 .08.02c.14.2.27.28.38.24 0 0 .02 0 .02-.02l.24-.22a.05.05 0 0 1 .04 0h.04a.03.03 0 0 1 0 .03V9l-.29.28a.02.02 0 0 0 .01.04c.14.03.3 0 .5-.12a.1.1 0 0 1 .06-.01c.05.01.1.03.14.06a.05.05 0 0 0 .06-.01l.01-.02c.05-.21.17-.33.37-.35a.05.05 0 0 0 .05-.04v-.26a.04.04 0 0 1 .07-.03l.03.03a.1.1 0 0 1 .02.06l.01.04c.03 0 .06 0 .09-.02a.12.12 0 0 0 .05-.07.48.48 0 0 0-.08-.45V8.1a.04.04 0 0 1 .03-.04c.03 0 .07 0 .1.03.02.06.05.1.1.15a.03.03 0 0 0 .02.01h.01l.01-.02-.01-.06a.06.06 0 0 1-.01-.04 2.8 2.8 0 0 0-.03-.82l.02-.04.01-.03.18-.18.31.2a.04.04 0 0 0 .05 0v-.04A.65.65 0 0 1 12 6.8c.05-.16.14-.26.28-.3a.1.1 0 0 1 .03-.01.03.03 0 0 1 0 .05.36.36 0 0 0-.2.3c-.03.12 0 .25.06.36a.1.1 0 0 1 0 .07l-.02.11a.08.08 0 0 0 .02.06l.44.6Z" fill="#BAC9D5"/><path d="m6.06 6.8-.04.01H6v.02c0 .02 0 .04.03.05l-.47-.22a.25.25 0 0 0-.11-.03.7.7 0 0 0-.46.2.03.03 0 0 1-.04 0l-.02-.01a.03.03 0 0 1 0-.04c.18-.13.37-.2.56-.23h.08l.48.24Z" fill="#506F8A"/><path d="M11.44 7.31c.05.28.06.55.03.82l.01.04c.01.03.02.05.01.06a.03.03 0 0 1-.02.02.03.03 0 0 1-.03 0 .33.33 0 0 1-.08-.16c.01-.12-.03-.2-.13-.25l-.01-.01V7.8a.02.02 0 0 1 .01-.02l.06-.01a.05.05 0 0 0 .04-.02.05.05 0 0 0 0-.05l-.1-.27c.06-.18.03-.4-.1-.65v-.01a.03.03 0 0 1 .01-.02l.01-.01.04.01c.12.16.2.34.22.52l.02.02.01.01Z" fill="#3E4751"/><path d="M11.13 7.15c-.03-.2-.08-.36-.11-.36-.03.01-.03.18 0 .38s.08.36.11.35c.04 0 .04-.17 0-.37Z" fill="#2F3740"/><path d="M5.7 6.87c-.05 0-.09.01-.1.04 0 .02.04.05.09.05.04 0 .08-.01.08-.04 0-.02-.03-.05-.08-.05Z" fill="#696868"/><path d="M8.93 6.99c-.04.06-.1.09-.16.1a.08.08 0 0 0-.05.02.08.08 0 0 0-.02.04l-.08.44a.04.04 0 0 0 .03.05h.07a.04.04 0 0 1 .04.02c.02.07 0 .18-.06.31a1 1 0 0 0-.05.12c-.02-.01-.03-.02-.02 0a1.64 1.64 0 0 0-.16-.54.85.85 0 0 1-.01-.63c.16 0 .31.02.47.07Z" fill="#727F8B"/><path d="M6.15 7.01c.03.07.1.13.19.18-.26.04-.46.14-.6.3l-.01-.04c-.03 0-.06.02-.1.05l-.04.04a.33.33 0 0 1-.2.1c-.1.02-.22.1-.36.24L4.92 8c.03-.12.14-.27.33-.43l.11-.1c.1-.09.24-.2.43-.32a5.4 5.4 0 0 0 .3-.2h.02l.04.07Z" fill="#8392A0"/><path d="m10.85 7.17-.31.17a.05.05 0 0 1-.07-.03.34.34 0 0 0-.08-.14.06.06 0 0 0-.08-.01c-.12.08-.25.27-.4.55l-.12.2c-.03.05-.1.1-.2.17a.03.03 0 0 1-.03 0 .03.03 0 0 1-.02-.03l-.01-.07s0-.02-.02-.03l-.03-.01c-.19 0-.28-.07-.27-.22a.06.06 0 0 0-.11-.02c-.02.07-.06.1-.12.1a.03.03 0 0 1-.03-.01.04.04 0 0 1 0-.03c0-.04 0-.08-.04-.12a.14.14 0 0 1-.05-.1c0-.15.03-.25.09-.31a.63.63 0 0 1 .23-.12l.16-.07.48.06a.3.3 0 0 0 .1 0l.22-.07c.21-.07.36-.1.45-.08.12.02.2.1.26.22Z" fill="#91BAD5"/><path d="m6.6 7.21.37.4a.62.62 0 0 0 .01.44c.03.06.1.14.2.23l.22.22c.17.1.35.15.53.16a.06.06 0 0 1 .05.04c.05.17.14.32.27.45.06.23.2.4.4.52a.06.06 0 0 1 .03.05.1.1 0 0 1-.02.06c-.23-.01-.37.07-.42.24l-.02.02a.05.05 0 0 0-.02.03c-.07.36.07.57.44.63l.02.09c-.07.13-.17.2-.3.2-.01-.07.01-.11.08-.13a.02.02 0 0 0 0-.04c-.1-.08-.2-.17-.3-.28-.07-.07-.16-.1-.28-.08a.1.1 0 0 1-.11-.05l-.13-.23-.16-.36c-.08-.02-.13-.04-.15-.07a.07.07 0 0 1 0-.08l.04-.02h.04l.2.13c.05.06.14.1.27.13.08.05.17.06.3.03a.05.05 0 0 0 .03-.06l-.02-.14a.09.09 0 0 0-.03-.06l-.3-.23a.03.03 0 0 1 0-.04h.02l.23.04a.02.02 0 0 0 .01-.05l-.09-.06A.05.05 0 0 1 8 9.3L7.96 9v-.02c-.06-.15-.25-.27-.59-.37a.17.17 0 0 1-.07-.04 2.6 2.6 0 0 0-.11-.1c-.2-.18-.3-.32-.3-.43-.02-.06-.02-.16-.02-.29l-.01-.05-.07-.1a1.32 1.32 0 0 0-.45-.41.44.44 0 0 1-.2-.18c.03-.05.07-.06.13-.02.11.06.22.14.33.22Z" fill="#CFDCE5"/><path d="m8.93 6.99.41.05-.16.07a.63.63 0 0 0-.23.12c-.06.06-.1.16-.1.3 0 .05.02.08.06.11.03.04.05.08.04.12a.04.04 0 0 0 0 .03.03.03 0 0 0 .03.01c.06 0 .1-.03.12-.1a.06.06 0 0 1 .11.02c0 .15.08.23.27.22l.03.01.02.03v.07a.03.03 0 0 0 .03.03.03.03 0 0 0 .02 0c.12-.06.18-.12.21-.16l.11-.21c.16-.28.3-.47.41-.55l.04-.01c.02 0 .03 0 .04.02.04.04.07.09.08.14a.05.05 0 0 0 .03.03.05.05 0 0 0 .04 0l.31-.17c-.03.28-.08.52-.16.72-.1.22-.23.21-.42-.02a.03.03 0 0 0-.04-.01.03.03 0 0 0-.01.03c0 .1.05.18.17.25v.02a.02.02 0 0 1-.01.02c-.05 0-.12-.02-.22-.08a1.18 1.18 0 0 0-.13-.07.02.02 0 0 0-.02.03l.07.17a.07.07 0 0 1-.13.01.35.35 0 0 0-.09-.12.03.03 0 0 0-.05.03v.04a.05.05 0 0 1 0 .04.04.04 0 0 1-.04.01h-.15c0 .04-.01.07-.03.09a.05.05 0 0 1-.07 0 .57.57 0 0 0-.43-.13l-.05-.01-.1-.07a.06.06 0 0 1-.02-.08l.01-.02a.04.04 0 0 0-.02-.04.04.04 0 0 0-.04 0l-.16.13-.06-.02a1 1 0 0 1 .05-.12c.06-.13.08-.24.06-.31a.04.04 0 0 0-.04-.03l-.07.01a.04.04 0 0 1-.03-.05l.08-.44.02-.04a.08.08 0 0 1 .05-.02c.07 0 .12-.04.16-.1Z" fill="#7799B4"/><path d="M6.34 7.19c.17.09.32.23.45.41 0 .25-.04.5-.1.77-.11-.52-.45-.78-1.03-.79l.08-.09c.14-.16.34-.26.6-.3Z" fill="#727F8B"/><path d="m11.23 7.44.1.27a.05.05 0 0 1-.04.07l-.06.01a.02.02 0 0 0-.01.04c.1.06.15.14.14.26a.25.25 0 0 0-.11-.03.04.04 0 0 0-.04.04l.01.02c.1.13.13.28.08.45 0 .03-.03.05-.05.07a.13.13 0 0 1-.09.02v-.04a.1.1 0 0 0-.03-.06.26.26 0 0 0-.03-.03.04.04 0 0 0-.07.03v.26a.05.05 0 0 1-.05.04c-.2.02-.32.14-.37.35v.02a.05.05 0 0 1-.05.02l-.02-.01a.41.41 0 0 0-.14-.06.1.1 0 0 0-.07 0c-.19.12-.35.16-.49.13a.02.02 0 0 1-.01-.03l.29-.3v-.02a.03.03 0 0 0-.02-.02h-.02a.05.05 0 0 0-.04 0l-.24.22-.02.02c-.11.04-.24-.04-.38-.24a.06.06 0 0 0-.08-.02L9.18 9a.02.02 0 0 0 0 .03c.09.02.16.05.22.1a.09.09 0 0 1 .03.09l-.04.19a.06.06 0 0 1-.04.04c-.07.02-.13 0-.16-.04a.08.08 0 0 0-.06-.03.07.07 0 0 0-.06.02 1.62 1.62 0 0 0-.19.26.1.1 0 0 1-.1 0c-.22-.13-.4-.3-.53-.5a.92.92 0 0 1-.27-.45.06.06 0 0 0-.05-.04c-.18-.01-.36-.06-.53-.16l.4.07a.05.05 0 0 0 .05-.02.05.05 0 0 0 0-.05.43.43 0 0 1-.03-.21c.07.05.12.11.14.2 0 .03.02.06.04.08.06.06.1.12.11.19.02.05.05.09.08.12l.35.26a.14.14 0 0 0 .12.02l.2-.05a.03.03 0 0 0 .02-.04.77.77 0 0 0-.05-.17.04.04 0 0 1 0-.03l.02-.02c.1-.03.23-.04.4-.03a.08.08 0 0 0 .1-.06.6.6 0 0 1 .09-.21c.03-.05.06-.05.1-.02 0 .06-.03.15-.1.28a.03.03 0 0 0 0 .03.04.04 0 0 0 .02.02c.14.04.3.04.47 0 .06 0 .11-.03.15-.07.06-.07.12-.1.16-.09a.03.03 0 0 1 .02.03v.01l-.03.05-.01.01a.03.03 0 0 0 .02.03h.01c.13 0 .22-.01.27-.05.15-.1.3-.28.47-.53l.24-.81Z" fill="#7799B4"/><path d="m5.74 7.5-.08.08-.5.5-.03.02-.37.16c.03-.1.08-.18.16-.27l.1-.1c.15-.15.27-.23.37-.24.07 0 .14-.04.2-.1l.04-.05c.04-.03.07-.05.1-.05v.04Z" fill="#A0B2C1"/><path d="m6.68 8.37.2.12a.02.02 0 0 1 0 .03.38.38 0 0 1-.12 0l-.03.04a.02.02 0 0 0 0 .03c.28.04.52.09.73.14.15.04.27.14.35.32v.03c0 .02-.01.03-.02.03l-.07.04a.05.05 0 0 0-.02.06c.03.06.03.14 0 .22a.05.05 0 0 1-.04.04.96.96 0 0 1-.34-.09c-.04-.02-.08-.02-.1 0a.02.02 0 0 0-.01.02.03.03 0 0 0 .01.02c.15.06.3.1.45.11a.07.07 0 0 1 .06.08c0 .06.03.12.08.16.02.02.03.03.03.05l.02.09c-.13-.02-.22-.07-.26-.13-.08-.2-.23-.28-.43-.22-.1.03-.14.08-.13.14l-.02.02c-.2-.1-.4-.14-.6-.13a.9.9 0 0 0-.37.1 12.7 12.7 0 0 0-.38.17l-.02-.02v-.01l.01-.01.58-.3a.06.06 0 0 0 .03-.04c.04-.35.26-.56.68-.63a.03.03 0 0 0 .02-.06 1.24 1.24 0 0 0-.46-.2.02.02 0 0 1 .01-.03c.07 0 .12-.03.14-.08a.05.05 0 0 0-.01-.06 1.08 1.08 0 0 0-1.14-.18c-.19.05-.38.07-.57.05-.03-.02-.09-.03-.18-.03l.37-.16a.1.1 0 0 0 .03-.02l.5-.5c.58.01.92.27 1.02.79Z" fill="#4A6276"/><path d="m7.86 9.9-.02-.08a.09.09 0 0 0-.03-.05.19.19 0 0 1-.08-.16.07.07 0 0 0-.06-.08 1.36 1.36 0 0 1-.46-.12V9.4a.02.02 0 0 1 .01-.03l.1.01c.12.05.23.08.34.09a.05.05 0 0 0 .04-.04.32.32 0 0 0 0-.22.05.05 0 0 1 .02-.06l.07-.04c.01 0 .02-.01.02-.03v-.03c-.08-.18-.2-.28-.35-.32a8.56 8.56 0 0 0-.74-.16v-.01l.03-.04h.13a.02.02 0 0 0 0-.03l-.2-.12c.07-.26.1-.52.1-.77l.08.1.01.05.01.29c.01.1.12.25.3.42l.12.1c.02.03.05.04.07.05.34.1.53.22.58.37l.01.02.03.3a.05.05 0 0 0 .02.04l.1.06a.02.02 0 0 1-.02.05l-.23-.05a.03.03 0 0 0-.02.05l.3.23a.09.09 0 0 1 .03.06l.02.14a.05.05 0 0 1-.04.06c-.12.03-.21.02-.29-.03Z" fill="#7799B4"/><path d="M7.82 8.29c-.01.07 0 .15.03.21a.05.05 0 0 1 0 .05.05.05 0 0 1-.05.02l-.4-.07a4.85 4.85 0 0 0-.22-.22.79.79 0 0 1-.2-.23.62.62 0 0 1 0-.44l.02.15c.02.13.05.22.08.25.13.13.3.17.49.1a.13.13 0 0 1 .14.04l.1.14Z" fill="#727F8B"/><path d="m13.84 7.75.05.21-.67.42a.74.74 0 0 0-.15.16v.04l.02.01v.02a.03.03 0 0 1-.02.03h-.02L13 8.62h-.03l-.8.2a.07.07 0 0 0-.05.04.07.07 0 0 0 .03.07c.05.04.08.11.1.2a1.7 1.7 0 0 0-.67.26.06.06 0 0 1-.06-.04.65.65 0 0 1 .02-.55c.1 0 .24-.03.42-.09a2.38 2.38 0 0 1 .34-.07c.35-.05.55-.11.59-.2.03-.08.07-.12.1-.14l.42-.18c.07-.03.2-.12.36-.28l.08-.09Z" fill="#4A6276"/><path d="M13.76 7.84c-.17.16-.29.25-.36.28l-.42.18c-.03.02-.07.06-.1.14-.04.09-.24.15-.59.2a6.62 6.62 0 0 0-.76.16c-.1 0-.17.05-.2.15a.9.9 0 0 1-.33.48.16.16 0 0 1-.06.02l-.42.12c-.3.04-.5.2-.6.47l-.98-.22c.04-.1.1-.18.21-.24a.12.12 0 0 1 .06-.01l.43.01a.02.02 0 0 1 .02.01.02.02 0 0 1 0 .02c0 .02.01.04.03.05h.06a27.31 27.31 0 0 1 .74-.25.03.03 0 0 0-.02-.02h-.12a.03.03 0 0 1-.03-.04v-.02H10.8a.14.14 0 0 0 .1-.05l.19-.19a.13.13 0 0 0 .04-.07l.02-.16a.08.08 0 0 1 .04-.06 1 1 0 0 1 .47-.14c.22-.02.42-.07.62-.15.14.02.27 0 .4-.04.05-.01.08-.04.11-.1a.22.22 0 0 1 .05-.06c.15-.11.25-.17.3-.19.16-.04.33-.14.51-.29.03-.03.07-.02.11.01Z" fill="#EAEEEF"/><path d="M10.69 7.89c-.02.14 0 .26.05.35l-.17.16a.18.18 0 0 1-.1.04l-.42.05-.49-.08c.06-.04.07-.1.06-.17h.15a.04.04 0 0 0 .04-.03v-.06a.03.03 0 0 1 .05-.03c.03.02.06.06.1.12a.07.07 0 0 0 .12-.01L10 8.06v-.03a.02.02 0 0 1 .03 0l.12.07c.1.06.17.09.22.08a.02.02 0 0 0 .02-.02v-.01l-.01-.01c-.12-.07-.17-.15-.17-.25a.03.03 0 0 1 .05-.02c.19.23.33.24.42.02Z" fill="#475663"/><path d="m12.6 8.05.06.05v.05h-.02a.47.47 0 0 0-.42.23c-.04.06-.08.1-.14.1a.07.07 0 0 1-.06-.01.52.52 0 0 0-.37-.16c-.03-.12.03-.24.17-.36.03.08.09.12.16.1a.03.03 0 0 0 .02 0v-.03a.23.23 0 0 0-.15-.12.23.23 0 0 1 .21-.04.06.06 0 0 1 .04.06v.06a.05.05 0 0 0 .05.05c.13.01.27.05.41.12a.03.03 0 0 0 .04-.06v-.04Z" fill="#8392A0"/><path d="M14 8.81a.65.65 0 0 0-.49.45c-.12.38 0 .67.36.88-.1.43-.26.85-.47 1.24-.08-.07-.13-.2-.16-.38-.02-.1-.1-.3-.23-.57a8.45 8.45 0 0 1-.26-.57l-.03-.02-.16-.02c-.03 0-.04-.03-.05-.05a.57.57 0 0 0-.16-.45.09.09 0 0 0-.03-.06v-.04a.04.04 0 0 1 .03-.02h.35v-.01c-.09-.07-.14-.12-.15-.16v-.01h-.01a.01.01 0 0 0-.01 0l-.04.02s-.02 0-.03.02a.33.33 0 0 1-.22.07.34.34 0 0 0-.1-.2.07.07 0 0 1 0-.1l.02-.02.8-.19H13l.06.02a.03.03 0 0 0 .03-.01.03.03 0 0 0 0-.04.04.04 0 0 1 0-.05.74.74 0 0 1 .14-.16l.67-.42a5 5 0 0 1 .1.85Z" fill="#3E4751"/><path d="M11 8.25c-.18.25-.33.43-.48.53-.05.04-.14.06-.27.06a.03.03 0 0 1-.03-.02.03.03 0 0 1 0-.03l.04-.05a.03.03 0 0 0 0-.02.03.03 0 0 0-.02-.02c-.04 0-.1.02-.16.09a.25.25 0 0 1-.15.08 1.09 1.09 0 0 1-.49-.01.04.04 0 0 1-.01-.03V8.8c.08-.13.12-.22.1-.28l.03-.12.49.08c.41.12.71-.02.9-.4a.03.03 0 0 1 .04-.02.03.03 0 0 1 .02.02.03.03 0 0 1 0 .03.19.19 0 0 0-.02.13Z" fill="#4A6276"/><path d="m12.22 8.38.06.13c-.2.08-.4.13-.62.15-.05-.08-.05-.2-.01-.35.13 0 .26.05.37.16a.07.07 0 0 0 .06.02c.06-.01.1-.05.14-.1Z" fill="#506F8A"/><path d="M5.52 10.47c.03.18.1.41.2.69.1.26.28.42.54.47L7 12l.02.02v.04l-.06.16a3.21 3.21 0 0 0-.17.52c-.07.3-.14.5-.22.65a5 5 0 0 1-1.48-1.25c.05-.48.05-.99.02-1.53-.01-.21.02-.44.1-.69l.1-.37c.05-.17.1-.29.14-.36.2-.3.5-.44.9-.41a.04.04 0 0 1 .02.06 4.6 4.6 0 0 1-.4.33 1.62 1.62 0 0 0-.29.29.5.5 0 0 0-.12.37c0 .22 0 .44-.05.65Z" fill="#080A0E"/><path d="M11.53 8.8a.65.65 0 0 0-.02.55.06.06 0 0 0 .06.04l.03-.01c.2-.13.41-.2.64-.25.08 0 .15-.02.22-.07a.12.12 0 0 1 .03-.02l.04-.02h.01a.01.01 0 0 1 .01 0c.01.05.06.1.15.17v.01h-.35a.04.04 0 0 0-.03.06l.03.06-.02.07.01.03.07.12a.05.05 0 0 1-.03.07h-.03c-.05-.01-.09-.1-.1-.23a2.16 2.16 0 0 0-.02-.1l-.02-.02c-.05-.02-.1-.01-.17.03-.16 0-.3.06-.44.17a.1.1 0 0 0-.03.07c0 .06 0 .1-.02.13a.03.03 0 0 0 0 .03l.05.05.01.02a.04.04 0 0 1 0 .03h-.01a.2.2 0 0 1-.06.03h-.05c-.05.01-.1 0-.17-.01l.14-.26a.03.03 0 0 0 0-.04.03.03 0 0 0-.05 0l-.18.2a.15.15 0 0 1-.06.05l-.24.02c-.24.01-.4.07-.48.17a.1.1 0 0 1-.1.04l-.17-.03a.05.05 0 0 1-.04-.04.05.05 0 0 1 .01-.05l.37-.3.42-.12.06-.02a.9.9 0 0 0 .33-.48c.03-.1.1-.15.2-.15Z" fill="#91BAD5"/><path d="M14 8.81a5 5 0 0 1-.13 1.33c-.36-.2-.48-.5-.36-.88A.65.65 0 0 1 14 8.8Z" fill="#2F3740"/><path d="M5.22 9.91c-.08.25-.11.48-.1.7.03.53.03 1.04-.02 1.52a5 5 0 0 1-.53-.82l.2-.04.03-.01a.04.04 0 0 0 0-.04l-.01-.02-.3-.2a.3.3 0 0 1 .3-.01.02.02 0 0 0 .02 0 .03.03 0 0 0 .01-.03c-.09-.26-.26-.34-.52-.25a4.98 4.98 0 0 1-.3-1.6c.21-.09.39-.14.53-.14a4.71 4.71 0 0 0 .88-.08 3.3 3.3 0 0 0-.2 1.02Z" fill="#3E4751"/><path d="M13.31 8.97c.05 0 .1-.02.1-.05 0-.03-.05-.04-.1-.04-.06 0-.1.03-.1.05 0 .03.05.05.1.04Z" fill="#696868"/><path d="M7.2 9.11a.85.85 0 0 1-.17-.02.04.04 0 0 1 0-.08c.07 0 .13.02.2.07a.02.02 0 0 1 0 .02h-.01l-.01.01Z" fill="#8392A0"/><path d="m11.7 9.18.02.01v.04h-.02a.16.16 0 0 1-.1.01l-.01-.02.01-.02c.04-.02.08-.03.1-.02Z" fill="#7799B4"/><path d="M12.35 9.32c.13.15.18.3.16.45l-.23.18a.05.05 0 0 1-.04 0 .05.05 0 0 1-.04-.02l-.04-.07a.06.06 0 0 1-.01-.04l.02-.03.07-.05.02-.02v-.03l-.22-.4c.06-.04.12-.05.17-.03a.07.07 0 0 1 .03.05l.01.07c.01.14.05.22.1.23a.05.05 0 0 0 .06-.02v-.05l-.07-.12a.07.07 0 0 1 0-.03c-.01-.03 0-.05.01-.07ZM12.92 9.28c-.06-.03-.11-.03-.13-.01 0 .02.02.07.08.1.05.03.1.03.12.01.01-.02-.02-.07-.07-.1Z" fill="#727F8B"/><path d="m12.04 9.29.21.4a.04.04 0 0 1-.01.05l-.07.05a.06.06 0 0 0-.02.03v.04l.05.07a.05.05 0 0 0 .06.03l.02-.01.23-.18c0 .02.02.04.05.05l-.15.14-.01.02V10c.01 0 .02.01.01.03-.03.11.03.27.18.47a5.93 5.93 0 0 1 .08.12l.2.46a.03.03 0 0 1 0 .04h-.05c-.03 0-.05.02-.05.06-.01.07.01.13.07.18l.03.02.2.04.02.01a.02.02 0 0 1 0 .03h-.01a.12.12 0 0 0-.05.05c-.01.02 0 .05.04.07.06.04.14.04.21-.01l-.12.2c-.15-.12-.3-.24-.46-.34a.72.72 0 0 1-.25-.26.03.03 0 0 1 0-.04.03.03 0 0 1 .04 0l.1.06a.05.05 0 0 0 .06-.02v-.03a1.2 1.2 0 0 0-.16-.3v-.06c.01-.01.04-.02.08-.01a.03.03 0 0 0 .03-.03v-.01c0-.02-.03-.04-.06-.05a.1.1 0 0 0-.07 0 3.73 3.73 0 0 0-.35.11.06.06 0 0 1-.03-.03c-.11-.26-.08-.47.09-.66a.03.03 0 0 0-.01-.05l-.02-.01c-.11 0-.17-.04-.17-.1l-.02-.09c-.01-.03-.04-.04-.1-.04-.1 0-.2.04-.3.11l-.02-.1a.2.2 0 0 0 .06-.03.04.04 0 0 0 .01-.04v-.02l-.06-.05a.03.03 0 0 1 0-.03.27.27 0 0 0 .02-.13.1.1 0 0 1 .03-.07.63.63 0 0 1 .44-.17Z" fill="#475663"/><path d="m11.32 9.8-.55.04c-.05 0-.1.02-.14.04a.22.22 0 0 0-.08.1.52.52 0 0 1-.12.13c-.02 0-.03.02-.03.05a.3.3 0 0 0-.2.1.62.62 0 0 0-.28-.22c.1-.28.3-.43.6-.47l-.37.3a.05.05 0 0 0 0 .07l.03.02.17.03a.1.1 0 0 0 .1-.04c.08-.1.24-.16.48-.17.11 0 .2 0 .24-.02l.06-.05.18-.2a.03.03 0 0 1 .05 0 .03.03 0 0 1 0 .04l-.14.26Z" fill="#BAC9D5"/><path d="m7.04 9.7.2.13c.12.1.2.24.23.42l.35.74c0 .02.02.03.03.04l.43.25h.04c.05 0 .08-.03.07-.06l.42-.44.37.15s.02 0 .02.02v.03c0 .09-.02.17-.06.25v.13a.1.1 0 0 0 .12.08c.18-.1.32-.21.42-.37 0-.02.02-.04.05-.06a.29.29 0 0 1 .09-.05.07.07 0 0 1 .06.01c.06.04.13.07.21.08.16.1.29.04.4-.18a.1.1 0 0 1 .05-.04.52.52 0 0 1 .23-.03h.16a.04.04 0 0 0 .03-.03.04.04 0 0 0 0-.02.16.16 0 0 0-.05-.06c-.03-.07-.04-.12-.03-.15a.1.1 0 0 1 .15-.03.1.1 0 0 1 .03.05l.05.2v.02a.02.02 0 0 0 .03 0l.07-.05-.02.41v.03l.03.01.13.03c-.06.01-.1.05-.1.1a9.72 9.72 0 0 0-.06.46.04.04 0 0 0 .08 0 .87.87 0 0 0 .1-.54l.01.14a.05.05 0 0 0 .1 0 .96.96 0 0 0-.03-.44.96.96 0 0 0-.02-.64c-.03-.07 0-.13.05-.2l.01.12c.02.16.05.29.1.4l.03.02h.03a.24.24 0 0 1 .16-.02h.01a.02.02 0 0 1 0 .04c-.08.03-.14.03-.19 0h-.01a.03.03 0 0 0-.04.04v.29a.07.07 0 0 0 .03.05c.27.2.47.43.57.68l.1.13.2.2a.1.1 0 0 1 .03.07c.02.12.06.23.13.32-.4.42-.85.76-1.36 1.02-.05-.1-.1-.21-.17-.3a.3.3 0 0 1-.03-.13c0-.06-.02-.1-.03-.14a.26.26 0 0 1-.03-.18.05.05 0 0 0 0-.05H11l-.02-.01h-.04l-.03.01-.02.04v.7a.06.06 0 0 0 .03.06l.17.1a5 5 0 0 1-1.32.39l-.04-.32a6.65 6.65 0 0 0-.22-.65c-.08-.2-.17-.36-.3-.48a.11.11 0 0 1-.02-.05l-.05-.2a.07.07 0 0 1 .04-.08h.05c.01 0 .03 0 .04.02l.38.58a.16.16 0 0 0 .16.07l.1-.01c.28-.04.44-.11.5-.23a.05.05 0 0 0-.01-.05.05.05 0 0 0-.04-.02h-.5a.15.15 0 0 1-.12-.07l-.18-.26a.04.04 0 0 1 .01-.05c.1-.07.18-.11.23-.13.3-.07.58-.2.82-.37a.1.1 0 0 0 .04-.12l-.06-.17a.08.08 0 0 0-.12-.04c-.17.1-.31.22-.43.36l-.02.01h-.02a.03.03 0 0 1-.02-.05l.24-.39a.07.07 0 0 0 0-.07.07.07 0 0 0-.08-.03.87.87 0 0 0-.3.18c-.02.03-.04.04-.06.05a.18.18 0 0 1-.07.04l-.53.12a.13.13 0 0 1-.16-.1l-.1-.38a.07.07 0 0 0-.03-.04.07.07 0 0 0-.06 0 .68.68 0 0 0-.22.23c-.13.2-.27.28-.42.23a1.28 1.28 0 0 1-.48-.42c-.07-.2-.2-.4-.36-.59a.25.25 0 0 1-.05-.08L7.18 10a.04.04 0 0 0-.04-.03.04.04 0 0 0-.04.03l-.06.14a.23.23 0 0 0 0 .17l.2.54a.04.04 0 0 1-.02.05H7.2a.58.58 0 0 0-.32.16c-.14.15-.35.15-.62.01a.74.74 0 0 1-.18-.21.97.97 0 0 0-.3-.3c.04-.04.02-.08-.05-.1.14-.02.27-.06.39-.13l.02-.02v-.03c-.05-.08-.11-.12-.18-.1a.08.08 0 0 0-.05.02l-.14.16c0-.17.1-.3.32-.37-.05.02-.05.06-.02.1.06.06.1.1.15.11a.1.1 0 0 0 .07 0 .77.77 0 0 1 .38-.05.02.02 0 0 1 .02.02.02.02 0 0 1-.02.02c-.2.04-.34.11-.45.2a.04.04 0 0 0 .05.08l.13-.03h.01l.01.01a.02.02 0 0 1 0 .03l-.15.15a.07.07 0 0 1-.09 0 .07.07 0 0 1-.03-.06v-.06a.06.06 0 0 0-.05-.04.24.24 0 0 0-.2.01.05.05 0 0 0-.02.05.05.05 0 0 0 .04.05c.08.03.14.06.19.1.02.03.04.04.07.05l.73.13a.13.13 0 0 0 .15-.13c0-.1-.02-.2-.06-.28-.06-.15-.05-.34.06-.58.02-.05 0-.08-.06-.1l.02-.06.02-.02Z" fill="#3E4751"/><path d="M7 9.78c.06.02.08.05.06.1-.1.24-.12.43-.06.58.04.08.06.18.06.28a.13.13 0 0 1-.15.13l-.73-.13a.15.15 0 0 1-.07-.04.48.48 0 0 0-.2-.11l-.02-.02a.05.05 0 0 1 .02-.08.24.24 0 0 1 .2-.01.06.06 0 0 1 .03.04v.06a.07.07 0 0 0 .04.07.07.07 0 0 0 .09-.01 1.77 1.77 0 0 0 .16-.17.02.02 0 0 0-.03-.02.42.42 0 0 0-.13.03.04.04 0 0 1-.06-.05l.01-.03c.1-.09.26-.16.45-.2a.02.02 0 0 0 .02-.02v-.01l-.02-.01a.77.77 0 0 0-.38.05.1.1 0 0 1-.07 0 .4.4 0 0 1-.15-.12c-.03-.03-.03-.07.02-.1.27-.18.57-.25.91-.21Z" fill="#727F8B"/><path d="m8.66 9.78.28.04.98.22c.12.04.21.11.29.21.06.1.07.23.02.39l-.04.13a.3.3 0 0 1-.12.02.02.02 0 0 1-.02-.02v-.01a.55.55 0 0 0 .08-.18c.06-.23-.02-.38-.24-.45a2.44 2.44 0 0 0-.55-.1c-.01 0-.02 0-.02.02l-.08.33a.34.34 0 0 0-.05.2.05.05 0 0 1-.05.04h-.17c-.04 0-.08 0-.1.02a.6.6 0 0 1-.23.06c-.37-.06-.51-.27-.44-.63l.02-.03.02-.02c.05-.17.2-.25.42-.24Z" fill="#1E5A46"/><path d="M11.32 9.8c.06.03.12.03.17.03a.23.23 0 0 1-.04.1c-.03.02-.06.03-.1.02a.81.81 0 0 0-.25-.02.05.05 0 0 0-.04.08l.14.14.01.02a.03.03 0 0 1-.01.03h-.07a.1.1 0 0 1-.07-.02l-.08-.08a.08.08 0 0 0-.09-.02.08.08 0 0 0-.04.08l.01.14a.5.5 0 0 0-.2.24c0 .02-.02.04-.04.05l-.43.18.04-.13c.05-.16.04-.29-.02-.39a.3.3 0 0 1 .19-.09c.06.07.13.1.2.1a.02.02 0 0 0 .01 0 .02.02 0 0 0 0-.02.63.63 0 0 0-.18-.13c.07-.06.11-.1.12-.13a.22.22 0 0 1 .08-.1.27.27 0 0 1 .14-.04l.55-.03Z" fill="#7799B4"/><path d="M13.16 11.78c-.16.23-.33.45-.52.65a.65.65 0 0 1-.13-.32.1.1 0 0 0-.03-.07l-.2-.2a.42.42 0 0 1-.1-.13 1.74 1.74 0 0 0-.59-.7V10.67a.03.03 0 0 1 .01-.02h.03c.05.02.11.02.18 0a.02.02 0 0 0 .02-.03.02.02 0 0 0-.02-.02.24.24 0 0 0-.16.02h-.03a.05.05 0 0 1-.03-.03c-.05-.1-.08-.23-.1-.39v-.11a.3.3 0 0 1 .07-.17.48.48 0 0 1 .3-.11c.06 0 .09.01.1.04l.02.08c0 .07.06.11.17.11a.03.03 0 0 1 .03.04v.02c-.17.19-.2.4-.1.66l.04.03h.05l.3-.12a.1.1 0 0 1 .07 0l.06.06a.03.03 0 0 1 0 .03.03.03 0 0 1-.03.01l-.08.01v.05c.08.12.13.22.16.31a.05.05 0 0 1-.01.05.05.05 0 0 1-.06 0l-.09-.06a.03.03 0 0 0-.04 0 .03.03 0 0 0 0 .04c.04.09.13.17.25.26.16.1.31.22.46.34Z" fill="#21272D"/><path d="m7.46 9.82.16.36c0 .09.02.16.05.23 0 .02.02.03.03.04l.67.53c.12 0 .22-.06.3-.2a.04.04 0 0 1 .06-.04l.08.04-.42.44a5.4 5.4 0 0 1-.44-.32.37.37 0 0 1-.09-.17.09.09 0 0 0-.02-.04l-.37-.44a.7.7 0 0 0-.23-.42l.22-.01Z" fill="#7799B4"/><path d="m11.54 9.82.02.11a.3.3 0 0 0-.08.17c-.06.06-.08.12-.05.19.08.25.1.47.02.64-.1-.13-.18-.2-.24-.2l-.07.05a.02.02 0 0 1-.02 0h-.01v-.01l-.05-.21a.1.1 0 0 0-.14-.06.1.1 0 0 0-.04.04c-.01.03 0 .08.03.15-.1-.05-.13-.12-.1-.22a.09.09 0 0 1 .07-.06c.07-.01.14 0 .22.03a.05.05 0 0 0 .05-.07.26.26 0 0 0-.29-.07l-.01-.14a.08.08 0 0 1 .13-.06l.08.08a.1.1 0 0 0 .07.03h.05a.03.03 0 0 0 .03-.03.03.03 0 0 0 0-.03l-.15-.14a.05.05 0 0 1 .04-.08c.08-.01.17 0 .26.02.03 0 .06 0 .09-.03a.23.23 0 0 0 .04-.1h.05Z" fill="#506F8A"/><path d="M13.4 11.38a4.6 4.6 0 0 1-.12.2c-.07.05-.15.05-.21.01-.04-.02-.05-.05-.04-.07l.05-.04a.02.02 0 0 0 .01-.03.02.02 0 0 0-.02-.02l-.2-.04-.03-.02c-.06-.05-.08-.11-.07-.18 0-.04.02-.05.05-.05l.05-.01v-.04l-.2-.46a5.56 5.56 0 0 0-.08-.12c-.15-.2-.2-.36-.18-.47v-.03l-.01-.03v-.02l.16-.14.16.02a.06.06 0 0 1 .05.04 10.03 10.03 0 0 1 .24.55c.13.28.21.47.23.57.03.19.08.31.16.38Z" fill="#727F8B"/><path d="m9.17 10.1-.81-.13a1 1 0 0 1 .83.04v.02c.01.03 0 .05-.02.07Z" fill="#BAC9D5"/><path d="M7.68 9.97a.01.01 0 0 1 .01-.01h.08L8 10c.07.02.1.03.1.05 0 .01-.01.02-.03.02l-.08.01a1.4 1.4 0 0 1-.24 0h-.07a.01.01 0 0 1-.02-.02l.01-.09Z" fill="#727F8B"/><path d="m8.36 9.97.81.13-.1.41a.05.05 0 0 1-.05.04l-.08-.01c-.3-.05-.52-.14-.63-.27a.09.09 0 0 1-.02-.06c0-.12.02-.2.07-.24Z" fill="#48C37F"/><path d="m9.77 13.94-.6.06c.02-.4 0-.8-.05-1.18v-.07l-.06-.5a.1.1 0 0 0-.1-.09l-.5.07a.1.1 0 0 1-.07-.02 58.8 58.8 0 0 1-.54-.47 1.98 1.98 0 0 1-.51-.69.03.03 0 0 0-.04.01v.02l.04.34a.03.03 0 0 1-.05.01l-.13-.24a.02.02 0 0 0-.01-.01h-.02l-.02.01a.05.05 0 0 0-.03.05v.02l.24.46a.03.03 0 0 1 0 .03l-.02.01h-.02a2.03 2.03 0 0 0-1.02-.13.7.7 0 0 1-.54-.47c-.1-.28-.17-.51-.2-.7l.27.12c.12.07.22.17.3.29.07.12.13.2.17.21.27.14.48.14.62 0 .1-.1.2-.15.32-.17a.04.04 0 0 0 .03-.05l-.19-.54a.23.23 0 0 1 0-.17l.06-.14a.04.04 0 0 1 .06-.02l.02.02.13.37c0 .03.03.06.05.08.17.2.29.4.36.59l.05.08.03.02c.17.18.3.3.4.32.15.05.3-.02.42-.23.07-.1.14-.18.22-.23a.07.07 0 0 1 .06 0 .07.07 0 0 1 .04.04l.09.38a.13.13 0 0 0 .16.1l.53-.12c.03 0 .05-.02.07-.04.02 0 .04-.02.07-.05a.87.87 0 0 1 .3-.18.07.07 0 0 1 .06.03.07.07 0 0 1 0 .07l-.23.4a.03.03 0 0 0 .01.04h.05a1.52 1.52 0 0 1 .47-.38.08.08 0 0 1 .06.02l.02.03.06.17a.1.1 0 0 1-.04.12c-.24.18-.52.3-.82.37a.76.76 0 0 0-.23.13.04.04 0 0 0 0 .05l.17.26a.15.15 0 0 0 .12.07h.5a.05.05 0 0 1 .05.04v.03c-.06.12-.22.2-.5.23l-.1.01a.16.16 0 0 1-.16-.07l-.38-.58a.07.07 0 0 0-.13.06l.05.2c0 .02.01.04.03.05.12.12.21.28.3.48a6.65 6.65 0 0 1 .2.65l.05.32Z" fill="#21272D"/><path d="m10.13 10.58-.2.11a.11.11 0 0 1-.06.02 3.88 3.88 0 0 1-.64-.12.06.06 0 0 1 0-.1c.03-.03.04-.07.01-.11l.08-.33a.04.04 0 0 1 .04-.03c.2.02.38.05.53.1.22.08.3.23.24.46Z" fill="#EAEEEF"/><path d="M10.43 10.11a.63.63 0 0 1 .18.14.02.02 0 0 1-.01.02.3.3 0 0 1-.2-.1c0-.04.01-.06.03-.06Z" fill="#A0B2C1"/><path d="M12.68 10.16c-.05-.06-.12-.09-.15-.06-.03.02-.01.09.03.15.05.06.12.1.15.07.03-.02.01-.1-.03-.16Z" fill="#BAC9D5"/><path d="m8.37 10.98-.67-.53a.12.12 0 0 1-.03-.04.56.56 0 0 1-.05-.23l.13.23a.1.1 0 0 0 .1.05c.13-.02.22 0 .29.08a2.05 2.05 0 0 0 .31.29.02.02 0 0 1-.01.03c-.07.02-.09.06-.07.12Z" fill="#91BAD5"/><path d="M8.4 11.22c0 .03-.03.06-.08.06h-.04l-.43-.25a.08.08 0 0 1-.03-.04l-.35-.74.37.44.02.04c.02.08.06.14.1.17.06.06.2.16.43.32Z" fill="#4A6276"/><path d="m10.9 10.69.06.06v.02a.04.04 0 0 1-.03.03.28.28 0 0 1-.16 0l-.09-.08a.15.15 0 0 0-.18 0 .15.15 0 0 0-.04.04.5.5 0 0 1-.37.29.53.53 0 0 1-.2-.08h-.07a.29.29 0 0 0-.1.04l-.05-.1.05-.02h.01a.02.02 0 0 0 0-.03l-.4-.08H9.3a.03.03 0 0 0 0 .05l.02.02c-.04.06-.05.13-.02.22a.08.08 0 0 0 .04.05c.1.04.2.03.33-.05a.98.98 0 0 1-.42.37.09.09 0 0 1-.08 0 .09.09 0 0 1-.05-.08v-.1l.01-.03a.68.68 0 0 0 .07-.25v-.03l-.03-.02-.37-.15-.08-.04a.04.04 0 0 0-.06.03v.02l-.03-.09a.6.6 0 0 0 .22-.06.23.23 0 0 1 .1-.02h.18a.05.05 0 0 0 .05-.05c0-.07.02-.14.05-.2.03.05.02.1 0 .13a.06.06 0 0 0 .02.1c.2.06.41.1.61.1.03.01.05 0 .07 0l.2-.12a.55.55 0 0 1-.09.18.02.02 0 0 0 0 .02l.02.01a.3.3 0 0 0 .12-.01l.43-.2c.02 0 .03-.02.04-.04a.5.5 0 0 1 .2-.24c.11-.04.21-.02.3.07v.03a.05.05 0 0 1-.06.04.37.37 0 0 0-.22-.03.09.09 0 0 0-.07.06c-.03.1 0 .17.1.22Z" fill="#A0B2C1"/><path d="M4.49 11a.08.08 0 0 0-.08-.02 4.66 4.66 0 0 1-.1-.27c.25-.1.42-.01.51.25a.03.03 0 0 1 0 .02L4.8 11H4.8a.3.3 0 0 0-.3 0Z" fill="#4A6276"/><path d="M10.77 10.8c-.08 0-.16 0-.23.03a.1.1 0 0 0-.05.04c-.11.22-.24.28-.4.18a.5.5 0 0 0 .37-.29.15.15 0 0 1 .17-.07c.02 0 .04.02.05.03l.09.08Z" fill="#7799B4"/><path d="M11.45 10.93c.05.13.06.27.04.44a.05.05 0 0 1-.1 0l-.03-.14-.01-.02-.13-.03-.02-.01-.01-.03.02-.4c.06-.01.14.06.24.2Z" fill="#21272D"/><path d="m9.33 10.85.34.05.06.11a.14.14 0 0 0-.05.06c-.12.08-.23.1-.33.05a.08.08 0 0 1-.04-.05c-.03-.09-.02-.16.02-.22Z" fill="#CFDCE5"/><path d="M9.11 12.75a.36.36 0 0 0-.13.12l-.02.02h-.03a4.37 4.37 0 0 1-1.29-.27.02.02 0 0 0-.03.03l.01.01c.22.15.46.24.71.28.18.03.34.08.48.13a.08.08 0 0 1 .05.08v.26a.08.08 0 0 1-.03.06l-.38.25a.04.04 0 0 0 .02.08l.42.07a.14.14 0 0 0 .14-.07l.02-.05.07-.93c.05.38.07.78.05 1.18a5 5 0 0 1-2.59-.62 3.03 3.03 0 0 0 .27-.83 3.22 3.22 0 0 1 .18-.5V12a.05.05 0 0 0-.02-.02l-.75-.36a2.03 2.03 0 0 1 1.04.13h.01a.03.03 0 0 0 0-.04l-.23-.46a.05.05 0 0 1 .03-.07l.02-.01a.02.02 0 0 1 .03 0l.13.25v.02a.03.03 0 0 0 .04-.01v-.02l-.04-.34a.03.03 0 0 1 .05-.03l.01.02c.13.27.3.5.5.67a58.8 58.8 0 0 0 .57.48.1.1 0 0 0 .04 0l.5-.06a.1.1 0 0 1 .06.02.1.1 0 0 1 .04.07l.05.5Z" fill="#171B20"/><path d="m11.02 11.26-.2.19-.03-.01a.04.04 0 0 1-.03-.02.04.04 0 0 1 0-.04l.1-.2.05-.06a.1.1 0 0 1 .14.06c0 .02 0 .05-.03.08Z" fill="#21272D"/><path d="m11.35 11.2.01.03c.03.2 0 .38-.1.54a.04.04 0 0 1-.04.02.04.04 0 0 1-.03-.04l.06-.44c0-.05.04-.09.1-.1Z" fill="#696868"/><path d="m10.82 11.45.2-.19c.09 0 .1.03.07.13-.04.1-.1.2-.19.26a.07.07 0 0 1-.07.01.07.07 0 0 1-.04-.06c0-.06.01-.1.03-.15Z" fill="#727F8B"/><path d="M11.7 11.78c-.06 0-.1 0-.14-.03a.5.5 0 0 1 .06-.24.07.07 0 0 1 .13 0c.02.05.03.11.03.2 0 .05-.04.08-.09.07Z" fill="#8392A0"/><path d="M11.13 11.96a.12.12 0 0 1-.05.13l-.06.04a.05.05 0 0 1-.08-.02v-.03l.05-.3.02-.03a.05.05 0 0 1 .06 0l.02.03.04.18Z" fill="#21272D"/><path d="M11.56 11.75c.04.03.08.04.13.03.02.17.06.31.13.43a.04.04 0 0 1-.04.06c-.03 0-.06 0-.08.02v.4a.05.05 0 0 1-.02.04h-.01l-.02.01-.11.01c-.02.02-.02.05 0 .1 0 .03 0 .06-.03.1l-.04.02h-.04l-.03-.01-.02-.03a2.42 2.42 0 0 0-.15-.44l.01-.03.06-.06.02-.01a.05.05 0 0 0-.01-.06l-.09-.09v-.01l.14-.05a.04.04 0 0 0 .03-.05c-.02-.09-.06-.14-.12-.15a.06.06 0 0 1-.05-.1c.09-.14.2-.18.34-.13Z" fill="#171B20"/><path d="m9.11 12.75.01.07-.07.93a.14.14 0 0 1-.16.12l-.42-.07a.04.04 0 0 1-.02-.08l.38-.25a.08.08 0 0 0 .03-.06v-.26a.08.08 0 0 0-.05-.08c-.14-.05-.3-.1-.48-.13a1.8 1.8 0 0 1-.72-.3.02.02 0 0 1 .03-.02l.26.07a4.37 4.37 0 0 0 1.06.2l.02-.02c.04-.06.08-.1.13-.12Z" fill="#080A0E"/><defs><linearGradient id="a" x1="3.35" y1="3.12" x2="21.9" y2="24.43" gradientUnits="userSpaceOnUse"><stop stop-color="#1A1E21"/><stop offset="1" stop-color="#06060A"/></linearGradient></defs></svg>