<!-- by TradingView --><svg width="18" height="18" viewBox="0 0 18 18" xmlns="http://www.w3.org/2000/svg"><path fill="url(#a)" d="M0 0h18v18H0z"/><path fill-rule="evenodd" d="M9.7 7.24c.01-.21 0-.42-.05-.61 0-.15-.13-.31-.27-.3-.05 0-.11.02-.19.07a.96.96 0 0 1-.36.19l-.15.01a2.5 2.5 0 0 0-.42.07c-.07.02-.15.02-.22.02-.1 0-.2 0-.29.04l-.2.06-.14.03c-.05 0-.09 0-.12.02-.13.04-.24.04-.37.04h-.06a.93.93 0 0 0-.22.04.43.43 0 0 1-.24 0 .06.06 0 0 1-.04-.03l-.28-.54a2.3 2.3 0 0 1-.16-.69.4.4 0 0 0-.07-.18c-.06-.08-.1-.13-.15-.14-.22-.08-.32.05-.38.25a11.38 11.38 0 0 1-.03.53c0 .1-.03.1-.08.02a8.98 8.98 0 0 1-.45-.88.53.53 0 0 0-.12-.19c-.1-.07-.25-.1-.35-.01-.05.04-.07.08-.08.1-.02.2 0 .42.05.63.02.09 0 .1-.06.03-.1-.11-.17-.2-.21-.29-.06-.09-.1-.14-.16-.16-.11-.04-.2 0-.26.12a.16.16 0 0 0-.01.12l.03.22c0 .1.02.17.05.23a.9.9 0 0 0 .25.32v.01l-.02.01h-.01c-.18-.14-.33-.3-.47-.47-.06-.08-.2-.13-.27-.03-.16.26.02.64.21.84a.03.03 0 0 1-.02.05h-.04c-.07 0-.15 0-.2.03a.2.2 0 0 0-.07.2c0 .03.04.09.1.15l.3.3c.02.01.02.02 0 .04h-.06a.86.86 0 0 0 0 .28c0 .02 0 .04.02.06l.38.44c.12.18.28.31.46.38.02 0 .03.02.04.03.03.1.07.18.13.22a75.24 75.24 0 0 1 .22.19c.01.06.04.11.07.14a5.52 5.52 0 0 0 .99.82c.07.04.12.1.15.17a3 3 0 0 0 .95.37c.13.02.13.05 0 .09l-.15.04c-.22.07-.47.14-.66.14h-.2a2.1 2.1 0 0 0-.66.04.74.74 0 0 0-.49.4l.08.03c.16.08.3.2.42.34l.1.1.15.04.1.02.1.08c.05.03.1.07.15.07a23.86 23.86 0 0 0 .47.03h.02c.07.06.13.1.22.1a11.58 11.58 0 0 0 .57.01.03.03 0 0 1 0 .03.41.41 0 0 0-.15.29c0 .1.03.18.11.26l.2.23c.02.03.05.04.08.05.23.02.41-.07.55-.27h.04c.1.12.22.2.33.24.09.03.16.03.22 0l.26-.22c.13-.11.13-.2.14-.38v-.08c0-.02 0-.03.03-.04a.74.74 0 0 0 .36-.26.18.18 0 0 1 .14-.07 77.89 77.89 0 0 1 .91-.01l.2-.04.54-.16a.52.52 0 0 0 .24-.11.8.8 0 0 1 .37-.14 8.74 8.74 0 0 0 .31-.28.2.2 0 0 1 .15-.07c.1 0 .2-.02.27-.06a.1.1 0 0 1 .13.02c.1.1.22.12.37.1.04 0 .08.02.1.05a2 2 0 0 0 .05.11c.03.02.06.03.1.03.03 0 .06-.02.08-.05.18-.2.25-.45.2-.72-.09-.12-.2-.22-.3-.31a1.1 1.1 0 0 1-.13-.13l-.06-.08c-.06-.08-.12-.15-.2-.17l-.2-.1c-.02-.01-.02-.02 0-.04l.17-.14c.15-.1.28-.2.45-.3.2-.1.31-.16.36-.2a20.25 20.25 0 0 1 .9-.77 11.38 11.38 0 0 0 .3-.35c.16-.17.2-.24.18-.48V7.5l.01-.02.12-.12a.08.08 0 0 0 .03-.06c0-.1 0-.2.03-.3.03-.12.04-.21.04-.29l-.01-.4a.55.55 0 0 0-.08-.18.99.99 0 0 1-.26-.47.6.6 0 0 0-.23-.37c-.15-.1-.23-.03-.32.06a1.1 1.1 0 0 1-.07.06.07.07 0 0 1-.05.02c-.14-.03-.24.02-.32.14a.25.25 0 0 0-.04.14 15.02 15.02 0 0 0-.02.16h-.01c-.1-.07-.17-.09-.24-.04-.08.05-.14.14-.16.28 0 .02-.01.03-.03.04a.17.17 0 0 1-.09 0c-.02 0-.04 0-.06.02a.33.33 0 0 0-.12.13l-.04.12-.03.04a.64.64 0 0 0-.15.14c-.05.06-.05.14-.05.22v.07c0 .02-.01.03-.03.04a.32.32 0 0 0-.23.21c-.02.04-.02.1-.02.15v.1c0 .01-.02.03-.04.03-.12.06-.19.15-.2.28 0 .02 0 .03-.02.05-.05.03-.1.09-.14.14-.07.07-.13.14-.2.18l-.22.13c-.08.04-.13.02-.15-.07a.33.33 0 0 1-.01-.13c0-.02.01-.03.04-.03.2-.04.3-.15.27-.36a.1.1 0 0 0-.1-.09h-.04c-.09-.01-.15-.02-.22-.08l-.2-.14a.5.5 0 0 0-.23-.05c-.3 0-.7 0-.84.35-.06.15-.09.38-.08.7h-.02L9.9 8.3v-.02l-.01-.15-.01-.16a5.7 5.7 0 0 1-.09-.47c0-.05-.03-.08-.05-.12a.75.75 0 0 1-.03-.05.1.1 0 0 1-.02-.08ZM9.53 9.4c-.06-.05-.08-.1-.09-.13 0-.1.02-.19.09-.27a.04.04 0 0 0 0-.06L9.3 8.6a.52.52 0 0 1-.07-.28v-.34c0-.02 0-.03-.03-.03-.08 0-.21.01-.3.05-.15.05-.3.08-.44.1a.5.5 0 0 0-.11.04l-.11.03a.87.87 0 0 0-.38.03.7.7 0 0 1-.26.04h-.07c-.06 0-.07.01-.02.05.16.12.36.3.6.55.05.05.12.09.19.13l.13.11c.08.08.17.15.27.21a8.89 8.89 0 0 1 .55.34h.05l.23-.17c.02-.02.02-.03 0-.05Z" fill="#F6FBFB"/><path d="M6.82 7.75c.05.07.1.11.17.15l.14.17c.08.11.2.04.29-.02.08-.05.45-.08.57-.07.26.01.52-.14.8-.13.01 0 .03 0 .04-.02a.2.2 0 0 1 .13-.05c.14 0 .28-.05.41-.16 0 .04.01.05.05.05a.08.08 0 0 0-.03.04c-.15 0-.22.13-.36.13a.55.55 0 0 0-.2.05c-.4.17-1.03.19-1.44.23a.1.1 0 0 0-.07.06.1.1 0 0 0 0 .1c.07.07.15.14.26.2-.2.42-.27.96-.32 1.6l.06.13a.58.58 0 0 1-.29.1l-.46.01c-.21.02-.58-.41-.8-.5a7.34 7.34 0 0 1-.48-.19c-.21-.08-.38-.3-.55-.46-.06-.05-.05-.11-.04-.18 0-.02 0-.03-.02-.03a.45.45 0 0 1-.3-.23.16.16 0 0 1-.02-.07v-.07c0-.02-.01-.03-.04-.03h-.11a1.13 1.13 0 0 1-.35-.31.04.04 0 0 1 .02-.07h.02a.4.4 0 0 0 .2 0 .03.03 0 0 0 .01-.03.03.03 0 0 0-.01-.02 1.48 1.48 0 0 0-.32-.08.1.1 0 0 1-.06-.02l-.29-.3c-.01-.01-.02-.03 0-.05.09-.18.41.1.55.02.04 0 .04-.02-.01-.07-.31-.12-.58-.31-.82-.58-.07-.07-.04-.12.07-.15l.08.01c.15.08.35.18.5.22.1.02.1 0 .03-.07-.15-.13-.3-.28-.45-.44a.8.8 0 0 1-.19-.36c0-.06 0-.1.02-.12.01-.03.02-.03.04 0 .1.13.2.23.33.3.03.01.06.04.09.08l.09.08c.12.1.24.16.36.17h.12l.05.01.1.08c.02.02.03.02.02 0-.04-.12-.17-.24-.23-.3a1.21 1.21 0 0 0-.32-.38c-.08-.05-.13-.15-.15-.29v-.16c-.01-.07-.07-.16.01-.23a.9.9 0 0 1 .11.18c.03.07.07.13.11.18l.38.42c.15.16.3.13.47.3.03.01.02-.05.01-.06l-.33-.41c-.05-.06-.04-.1-.05-.17v-.06a1.5 1.5 0 0 1-.1-.65.13.13 0 0 1 .05-.1.13.13 0 0 1 .1-.02c.26.03.75 1.07.82 1.33.04.14.2.24.28.36.04.06.06.05.06-.01 0-.03-.02-.05-.06-.07-.12-.05-.12-.35-.15-.44a.52.52 0 0 1-.02-.13c0-.27-.03-.5.1-.66a.12.12 0 0 1 .08-.05.12.12 0 0 1 .09.03c.1.09.15.21.12.37-.07.48.77 1.58 1.03 1.91ZM14.13 8.2c-.04-.07-.06-.13-.04-.18-1.72 1.42-2.71 1.98-2.84 1.81 0-.02-.1-1.16-.08-1.21l.08-.14v.07c.1.07.57-.26.7-.29.02 0 .03-.01.03-.04 0-.1 0-.18.02-.21.03-.08.09-.13.18-.15.02 0 .03-.02.03-.04v-.08c0-.23.23-.17.23-.2l.01-.24a.3.3 0 0 1 .05-.18c.05-.07.1-.1.19-.08.02 0 .03 0 .03-.02v-.17c0-.07.01-.12.03-.16.1-.2.1-.24.29-.4.06-.05.13-.03.2.07l.03.02c.26.1-.2-.25.15-.45a.06.06 0 0 1 .05 0l.18.18c.04.06.07.05.08-.02v-.35c0-.09.05-.16.14-.21.02-.02.04-.01.06 0l.11.11c.08.08.1.07.1-.04-.02-.07.01-.15.1-.23a.06.06 0 0 1 .03-.02l.04.01c.2.13.24.35.28.55.03.12.06.13.16.22.17.16.17.58.1.81-.04.11-.01.21-.03.32 0 .02-.02.04-.03.05a.26.26 0 0 0-.13.27.3.3 0 0 1-.07.25c-.14.18-.3.3-.46.36Z" fill="#2F4661"/><path d="M9.84 8.42c0 .07 0 .14.02.2.01.08.05.17.1.25a.1.1 0 0 1 .01.05l-.04.53-.08.01c-.03 0-.04-.01-.03-.05.05 0 .07-.04.06-.1 0-.04-.02-.04-.05 0h-.02c-.02 0-.03 0-.03-.03a.44.44 0 0 0-.12-.38 1.01 1.01 0 0 1-.16-.22c.04-.02.07 0 .1.05.01.04 0-.24.02-.63-.04-.22-.27-.38-.25-.48.04-.01.07-.05.09-.1 0-.02.02-.03.04-.03l.03-.02.01-.06c-.01-.22-.1-.56-.07-.77 0-.08-.03-.15-.11-.17h-.02v-.04c.07.01.12.05.16.11a.1.1 0 0 1 .02.06c0 .25.05.51.08.76 0 .02.01.04.03.05.06.07.09.14.06.21v.03c.03.2.07.6.15.77Z" fill="#1E191B"/><path d="M7.62 6.88c0 .02.03.03.06.04-.13.14-.88.22-1.01.22h-.28c.06-.01.07-.04.03-.08.4-.08.79-.13 1.2-.18Z" fill="#9A9A9A"/><path d="m7.13 8.07-.14-.17c.02-.1-.12-.48-.19-.58a.07.07 0 0 1 .03-.1l.04-.01h.07c.02 0 .03 0 .03.03 0 .13.13.42.14.37l.04-.06a.06.06 0 0 0 .01-.05.5.5 0 0 1-.02-.18c0-.03.01-.04.04-.04s.15-.02.14.05c-.02.08 0 .15.06.23.04.05.06.04.06-.02v-.12a.03.03 0 0 1 .02-.03H7.56c.03 0 .05.01.05.04 0 .05 0 .12-.03.16-.05.06-.06.15-.05.26.01.05-.01.07-.06.07h-.03c-.04 0-.06-.02-.06-.06v-.14c0-.02 0-.03-.02-.04l-.1-.1c-.02-.02-.03-.02-.05 0-.04.08-.07.09-.06.2 0 .1 0 .2-.02.29Z" fill="#3C667D"/><path d="M11.55 7.72a.85.85 0 0 1-.35-.17c-.15-.12-.35-.16-.61-.12a.7.7 0 0 0-.36.16.1.1 0 0 0-.03.05.81.81 0 0 0-.02.2c0 .05-.02.07-.05.07-.04-.2.03-.35.22-.45l.14-.07c.04-.02.1-.03.14-.03a12.08 12.08 0 0 1 .35.02c.04.03.1.05.16.07.02 0 .04.02.05.04.06.11.17.15.3.12a.06.06 0 0 1 .06.03c.02.03.03.06 0 .08Z" fill="#535253"/><path d="M6.15 7.66c.05.1.11.21.19.3v.06c-.02.02-.04.02-.05 0l-.27-.24c-.08-.08-.25-.25-.23-.37a.05.05 0 0 1 .03-.04.05.05 0 0 1 .05 0 .9.9 0 0 1 .28.3ZM6.5 7.67l.08.1v.05l-.02.02a.03.03 0 0 1-.04 0 .82.82 0 0 1-.26-.17.32.32 0 0 1-.07-.23.04.04 0 0 1 .02-.03.03.03 0 0 1 .04.01l.25.25ZM14.09 8.02c-.08.1-.13.2-.14.31 0 .02-.02.04-.03.05a.2.2 0 0 1-.09.03L14 8V8c-.63.77-1.63.68-2.43 1.09a.3.3 0 0 1 0-.13l.82-.4a.05.05 0 0 0 .02-.03c.01-.07.04-.1.1-.09.02.01.04 0 .04-.02l.02-.21c0-.03.01-.04.04-.05h.03l.01.02c.14.44.1.06.22-.17.03-.07.16.2.16.3l.02.01h.03c.05-.1.1-.2.1-.3l-.01-.27c0-.04.08-.06.08-.02 0 .08.02.13.08.16.02.02.03.03.03.06v.16c0 .04.04.05.07.05l.01-.02V7.7c0-.02 0-.03.02-.04h.03c.01 0 .02.01.02.03v.29c0 .02 0 .03.03.02.27-.14.07-.4.23-.58a.03.03 0 0 1 .04 0c.06.1.08.2.08.3v.03a.04.04 0 0 0 .05.01h.02a.46.46 0 0 0 .15-.22c.01-.03.02-.06.04-.07a.08.08 0 0 1 .06 0h.02l.01.03-.02.2c-.05.1-.09.21-.12.32Z" fill="#9D594A"/><path d="M11.55 7.72c-.03.04-.04.07-.03.07h-.16c-.02 0-.03 0-.04.03 0 .02-.02.03-.04.03a4.8 4.8 0 0 1-.48-.04v.02l.01.02.44.07v.05c-.03 0-.05.01-.05.04l.01.28a.4.4 0 0 1-.06.25.34.34 0 0 1-.23.14c-.24-.11-.34-.3-.31-.56 0-.03.01-.04.03-.04.05 0 .1.02.14.05l.02.01h.03c.03-.02.02-.03 0-.04l-.04-.01c-.03-.02-.02-.04.01-.04h.05a.2.2 0 0 0 .08-.01h.01l.01-.02c0-.02 0-.03-.02-.03h-.15l-.08.03-.01-.01v-.1c0-.02-.01-.03-.03-.04a.35.35 0 0 0-.2.02c-.02 0-.02.02 0 .04l.03.14a.04.04 0 0 1-.04.03l-.15.02c-.02 0-.03.01-.03.03 0 .07-.03.12-.07.16-.02-.03-.04-.04-.08-.05v-.3l.01-.05c.03 0 .05-.02.05-.07 0-.07 0-.14.02-.2a.1.1 0 0 1 .03-.05.7.7 0 0 1 .36-.16c.26-.04.46 0 .6.12.13.1.25.15.36.17Z" fill="#F9C893"/><path d="M5.96 7.81c.05.06.09.11.11.17.01.02 0 .02-.01.02l-.37-.08-.01.03c.22.07.42.17.6.3.08.06.11.04.1-.05l.02-.07c0-.02 0-.02.02 0l.17.17a.03.03 0 0 1-.02.05l-.74-.1-.08-.1c-.02-.06-.07-.1-.14-.09-.02 0-.04 0-.05-.02l-.12-.11a.15.15 0 0 1-.04-.1v-.05c.01-.03.02-.03.04 0 .06.06.14.1.23.09a.02.02 0 0 0 .02-.02.02.02 0 0 0 0-.02c-.06-.07-.18-.16-.11-.27a.04.04 0 0 1 .02-.01.04.04 0 0 1 .03 0l.33.26Z" fill="#9D594A"/><path d="M9.54 7.9c-.03-.03-.05-.02-.07 0l-.09-.1c.02-.03.02-.06 0-.09l.04-.04a.12.12 0 0 1 .05-.06c.03-.02.04 0 .03.02 0 .06 0 .1.04.14a.1.1 0 0 1 .02.05.1.1 0 0 1-.02.07Z" fill="#C76F5B"/><path d="M6.26 7.67c.13.13.46.28.24 0 .7.56 1.57 1.56 2.33 2.1.36.27.86.55 1.31.54.02 0 .04 0 .05-.02.1-.09.12-.16.09-.21a.12.12 0 0 0-.04-.07h.12c.06-.05.07-.04.06.03-.02.09.03.45.1.47l-.13.15a.05.05 0 0 0 0 .06c.02.06.07.1.14.12.02 0 .03.02.03.04 0 .06.02.12.08.17v.02c-.26.16-.52.28-.8.37-.28.09-.54 0-.81-.1a.1.1 0 0 1-.07-.1l.04-.18c.03-.11-.01-.14-.11-.09-.14.07-.28.12-.43.15-.2.04.5-.3.52-.3a.3.3 0 0 1 .14-.02h.15l.02-.03c0-.02 0-.03-.02-.03a.57.57 0 0 1-.33-.26l-.02-.02-.93.42c-1.35-.07-1.09-.34-1.82-2.06-.02-.28.1-.69-.49-.86v-.04c.2.04.56.19.28-.1l.06-.04c.43.4.3.25.13-.12h.11Z" fill="#703C30"/><path d="M7.45 8.47v.04a2.21 2.21 0 0 0-.24-.2 1.43 1.43 0 0 1-.23-.22.76.76 0 0 0-.25-.2.06.06 0 0 1-.03-.05.12.12 0 0 0-.04-.08c.1 0 .17.04.23.11a8.35 8.35 0 0 0 .56.6Z" fill="#C76F5B"/><path d="M11.52 7.79c-.03.04-.07.06-.13.06s-.1.02-.14.07l-.44-.07-.01-.02V7.8l.01-.01.47.05c.02 0 .04-.01.04-.03 0-.02.02-.03.04-.03h.16Z" fill="#703C30"/><path d="M9.63 7.92c.05.33.08.7.08.72 0 .05-.07.2-.11.1-.03-.06-.06-.08-.1-.06a3.18 3.18 0 0 1-.1-.18.38.38 0 0 1-.06-.2v-.46c0-.02.01-.03.04-.04.08.08.23.04.25.12Z" fill="#1D2F42"/><path d="m13.83 8.4-.25.28a1.63 1.63 0 0 1-.88.5.72.72 0 0 0-.17.07 7.27 7.27 0 0 0-.75.57.87.87 0 0 1-.25.02c-.11-.01-.12-.04-.01-.09.03-.01.08 0 .16.03a.03.03 0 0 0 .02 0 .03.03 0 0 0 .02-.03c0-.1 0-.18-.03-.28l-.13-.4 1.07-.54c.01 0 .03-.01.03-.03l.01-.01.02-.01c.16.06.29.05.37-.02l.32-.22c.03-.02.04-.01.04.02v.01h.02c.25-.04.38-.18.4-.41h.01l.13.13v.03l-.15.39ZM10.78 8c0 .02.03.03.07.04l-.05.01c-.03 0-.03.02 0 .04l.02.01c.03 0 .04.02 0 .04h-.04a.24.24 0 0 0-.14-.06c-.02 0-.03.01-.03.04-.03.26.07.45.3.56-.12.04-.22.04-.3 0a.59.59 0 0 1-.23-.24c.05-.11.02-.15-.08-.12-.07.04-.1.03-.1-.01.04-.04.07-.09.07-.16 0-.02.01-.03.03-.03l.15-.02a.04.04 0 0 0 .04-.03c0-.05 0-.1-.04-.14-.01-.02 0-.04.02-.04a.35.35 0 0 1 .2-.02l.02.04V8l.02.01.07-.02Z" fill="#C76F5B"/><path d="M10.12 8.26c.02 0 .02.02 0 .03a.03.03 0 0 1-.02 0h-.01v-.02a.47.47 0 0 1 .02-.3l.01.3ZM11.25 7.97v.51c.19 1.38.26 1.36.9 1.32.05.06.1.1.18.1.08.01.16.05.23.1-.02.02-.06.02-.11 0-.09-.07-.17-.02-.26-.08a.09.09 0 0 0-.05-.02h-.92l-.07-.01-.2-.11a.05.05 0 0 0-.04.01c.3.77-1.25.32-1.62.2.2-.43-.53-.14.64-.54l.04-.53a.1.1 0 0 0-.01-.05.72.72 0 0 1-.1-.26l.17-.02h.08a.04.04 0 0 0 .02-.05l-.04-.12.06-.03c.02 0 .03 0 .04.02l.02.02c0 .01.01.02.02.01l.07-.01h.08c.07.12.14.2.23.24.08.05.18.05.3.01.1-.01.18-.06.24-.14a.4.4 0 0 0 .06-.25v-.28c0-.03 0-.04.04-.04Z" fill="#1D2F42"/><path d="M14.09 8.02c-.02.05 0 .1.04.17-.05 0-.07.06-.07.18 0 .02 0 .03-.02.04a4.8 4.8 0 0 0-.47.4c-.13.12-.24.2-.42.32a.32.32 0 0 1-.2.07c-.01 0-.04 0-.07.03l-.72.57-.38.02a7.27 7.27 0 0 1 .75-.57c.05-.03.1-.05.17-.06.22-.06.42-.15.61-.27.08-.05.17-.14.27-.24l.25-.27a.2.2 0 0 0 .09-.03.06.06 0 0 0 .03-.05.68.68 0 0 1 .14-.3Z" fill="#703C30"/><path d="M5.59 8.2c.12 0 .25.07.38.23a.53.53 0 0 1-.55-.15c-.03-.02-.05-.08-.07-.16 0-.01 0-.03.02-.03h.04l.01.01c.05.07.1.1.17.1Z" fill="#9D594A"/><path d="m5.75 8.16.08.09c.16.12.33.18.54.19l.03.03v.02c0 .01-.01.02-.03.02a.5.5 0 0 1-.13.02c-.08 0-.1.01-.02.06a.9.9 0 0 0 .53.17c.01 0 .02 0 .02.02v.02c0 .01 0 .02-.02.02H6.4l-.2-.14a.46.46 0 0 0-.13-.1h-.01a.03.03 0 0 1-.01-.03.03.03 0 0 1 .01-.02l.02-.01v-.03l-.12-.06c-.13-.16-.26-.23-.38-.22.08.01.14 0 .16-.05Z" fill="#1E191B"/><path d="m10.1 8.42.03.12c0 .02 0 .04-.02.05h-.08l-.17.02a.51.51 0 0 1-.02-.2h.25Z" fill="#3C667D"/><path d="M7.58 8.48a18.04 18.04 0 0 1 .63.58c.03 0 .06.01.08.03a13.97 13.97 0 0 0 .42.35 939.9 939.9 0 0 0 .52.3.2.2 0 0 1 .09.02c-.05.03-.06.04-.02.05.06.03.11.07.15.12-.02.04-.01.07.03.1.06.03.15.1.24.1.22.02.4.03.53.02.03 0 .04-.03.03-.07.03.05 0 .12-.09.21a.08.08 0 0 1-.05.02c-.45 0-.95-.27-1.31-.53-.38-.28-.72-.55-1.02-.83a2.78 2.78 0 0 1-.37-.43l.02-.01v-.02l-.01-.02c.06.05.1.06.13 0ZM6.08 8.59c.04.01.09.04.13.09-.22.14-.42.12-.59-.06a.04.04 0 0 1 .03-.06l.43.03ZM6.17 8.82c.06 0 .11.02.14.03.08.03.08.06 0 .08l-.06.02c-.11 0-.2 0-.28.02-.12.03-.14 0-.06-.1.05-.06.14-.07.26-.05Z" fill="#9D594A"/><path d="M9.82 9.41c0 .04 0 .06.03.05l.08-.01a.9.9 0 0 1 .36.17.1.1 0 0 0 .06.02l.3.02c-.02.03-.01.06.01.1a.12.12 0 0 1-.13 0l-.05.01a.32.32 0 0 0-.12.12.08.08 0 0 1-.09.04l-.17-.04a.1.1 0 0 0-.06 0 .56.56 0 0 1-.6-.07.12.12 0 0 0-.07-.03c-.02 0-.05 0-.07.02-.04 0-.03-.02.02-.05l.26-.2c0-.02.02-.02.03-.02h.04c.02 0 .04-.01.05-.03a.22.22 0 0 1 .12-.1Z" fill="#2F4661"/><path d="m6.38 9.46.51.07c.02 0 .03.01.03.03l-.01.02h-.02l-.16.01c-.02 0-.03.02-.03.04 0 .06.04.1.1.11a81.35 81.35 0 0 0 .27.05v.03c0 .03-.01.04-.04.04h-.08c-.03 0-.04.01-.02.04s.05.05.08.05a4 4 0 0 0 .31.03c.03 0 .05.02.05.04s0 .04-.02.04l-.09.03c-.2 0-.34-.06-.43-.2-.06-.1-.1-.14-.13-.14-.01 0-.03-.01-.03-.03a.27.27 0 0 0-.05-.08.1.1 0 0 0-.05-.03.6.6 0 0 1-.15-.06c-.05-.04-.07-.07-.04-.1Z" fill="#1E191B"/><path d="M7.32 10.21c.12.03.2.04.26.01.46-.23.44-.05-.02.1-.03 0-.03.02-.02.04l.05.06c-.07.02-.03.06.12.12-.01.06.01.09.07.1H8c.03.02.07.02.12.02v.04l-.62.19c-.38 0-.67.01-1.06.03l-.02-.03c.1-.03.91-.01.82-.21-.01-.03-.03-.04-.06-.03-.12 0-.15-.07-.18-.16 0-.02-.02-.04-.04-.04-.19 0-.6-.01-.75-.16a.07.07 0 0 0-.04-.02.59.59 0 0 1-.43-.3.08.08 0 0 0-.04-.04.73.73 0 0 1-.4-.3l.47.2c.07.03.15.04.24.05.15.02.46-.04.28.09-.02.01-.13.07-.11.09l.05.02.68-.02c.03 0 .05 0 .06.03v.03c.02.03 0 .04-.02.05-.6.14-.46.15.08.13.1 0 .2-.03.29-.09Z" fill="#1D2F42"/><path d="m10.64 9.66.22.07c.02 0 .03.02.02.04-.01.01-.03.03-.06.03-.07.02-.12 0-.16-.05-.02-.03-.03-.06-.02-.09Z" fill="#3C667D"/><path d="M10.84 9.86c.03.09.09.16.19.21a.03.03 0 0 1 .01.03.02.02 0 0 1-.01.02l-.35.19-.23-.14v-.02h.22c.02.01.03 0 .03-.02 0-.03.02-.04.03-.05a.05.05 0 0 0 .04-.06c0-.08.02-.14.07-.16Z" fill="#C5C5C5"/><path d="M9.45 9.93c.15.1.32.13.5.1l.05-.04a.1.1 0 0 1 .06-.04c.05 0 .12.05.18.06l.04.07c0 .04 0 .07-.03.07-.13.01-.3 0-.53-.02-.1 0-.18-.07-.24-.1-.04-.03-.05-.06-.03-.1Z" fill="#C76F5B"/><path d="M12.56 10c.12.08.2.17.26.3 0 .02.02.03.04.04.13.07.24.17.32.3.04.05.03.08.03.14l-.01.06a.59.59 0 0 0-.06.21l-.03.06-.1.1c-.02.02-.02.01-.03 0a.33.33 0 0 0-.04-.1.09.09 0 0 1-.02-.05c0-.07-.03-.12-.12-.14l-.13.05-.04-.01-.22-.23H12.27c-.01 0-.02-.01-.02-.03v-.03c0-.01 0-.02.02-.02.07 0 .14.02.2.06.37-.11.04-.36.24-.45.02 0 .02-.02.01-.04a.34.34 0 0 0-.25-.17c-.01 0-.02-.02-.02-.06.05.03.1.03.11.02Z" fill="#592D25"/><path d="m12.53 10.35.01.02v.02c0 .02-.02.02-.03.02-.21.28-.53-.04-.53-.05a.23.23 0 0 0 .04-.1c0-.02 0-.04-.03-.04l-.17-.04c.07-.05.16-.05.25 0 .1.05.23.16.34.17h.12Z" fill="#1D2F42"/><path d="M12.62 10.3c.02.04.06.06.12.05a.1.1 0 0 1 .06.01l.19.11c.13.1.18.21.15.34a1.4 1.4 0 0 1-.13.34H13l-.02-.01v-.01a.68.68 0 0 0 0-.18c-.01-.04-.04-.06-.08-.07-.02 0-.03 0-.04-.02 0-.04-.03-.06-.07-.07l-.26-.14a.05.05 0 0 1-.03-.05v-.2h.04v-.03l-.01-.02a.3.3 0 0 0 .09-.05Z" fill="#F9C893"/><path d="m12.32 10.4-.03.04c-.05.02-.1.04-.15.02-.04-.02-.07-.06-.07-.12 0-.02 0-.03.03-.04h.01c.02 0 .03.01.03.03l.04.09c.01.01.02.02.04 0v-.01l.03-.03c.04-.02.06-.01.07.01Z" fill="#C5C5C5"/><path d="M7.71 10.54c-.15-.06-.19-.1-.12-.12.15 0 .32 0 .5-.02l.22-.06a.39.39 0 0 1 .24 0 .03.03 0 0 1 .02.04v.02a.02.02 0 0 1-.03.02c-.09 0-.19-.01-.25.02a.48.48 0 0 1-.23.03c-.03 0-.1.01-.17.04a.84.84 0 0 1-.18.03Z" fill="#1E191B"/><path d="M12.07 10.56a.13.13 0 0 0-.05.02l-.1.07c-.01.02-.01.03.01.04l.05.03c-.06.1-.14.1-.23 0h-.05a.36.36 0 0 1-.06.04h-.1c-.1 0-.2.03-.27.1-.02.02-.05.04-.1.05l-.1-.01a1.18 1.18 0 0 0-.23-.06.27.27 0 0 1-.15-.07.08.08 0 0 0-.06-.02h-.12c-.02 0-.04-.01-.04-.03-.01-.03-.01-.05 0-.07a1.13 1.13 0 0 1 .25-.22h.08c-.07.06.4.11 1.07.09l.1.01.1.03Z" fill="#C5C5C5"/><path d="M12.5 10.4v.2c0 .03 0 .04.03.05l.26.14c-.1 0-.21-.02-.31-.08a.38.38 0 0 0-.21-.06c-.02 0-.02 0-.02.02v.03c0 .02 0 .03.02.03H12.41l.22.23h.04l.13-.04c.02.05.01.1 0 .13l-.05.02h-.12a.1.1 0 0 1-.06-.02.53.53 0 0 0-.24-.13l-.05-.04-.04.01a.1.1 0 0 0-.03-.06c0-.07-.06-.1-.16-.12h-.01v-.04l.12-.01.01-.01.01-.01v-.03a.31.31 0 0 0-.16-.03l.05-.02c.02 0 .04-.01.05-.05l.16-.01c.01 0 .02-.03.01-.06.02-.01.03-.03.03-.05.02.03.08.04.19.02Z" fill="#AF6F34"/><path d="M10.97 11.19c.15.03.3.03.43-.02.05 0 .1.03.15.07l.03.07c-.1.05-.22.09-.35.12-.17.04-.36.16-.54.21-.14.05-.27.09-.41.12a1.6 1.6 0 0 1-.42.05 96.97 96.97 0 0 0-.73.02l-.27.27a.06.06 0 0 1-.06.02.14.14 0 0 0-.14.06 15.92 15.92 0 0 0-.01.31c0 .08-.06.15-.17.22-.14-.13-.23-.07-.16.13-.1.12-.23-.03-.32-.08a.3.3 0 0 1-.12-.12.47.47 0 0 1-.04-.2c0-.21.3-.28.45-.27.03 0 .08-.04.04-.07a.18.18 0 0 1-.08-.13.03.03 0 0 0-.02-.03h-.04l-.2.17c-.06.05-.12.05-.18.07a.1.1 0 0 0-.08.1v.24c0 .02 0 .04-.02.06-.02.01-.04.06-.09.14a.31.31 0 0 1-.24.15c0-.03 0-.05.02-.08.08 0 .17-.03.2-.12.02-.07.06-.1.07-.18v-.28c0-.02-.02-.03-.04-.04a.2.2 0 0 0-.17.04.08.08 0 0 1-.05.02.91.91 0 0 0-.32.05c-.02 0-.03 0-.04-.03l.27-.08c.02 0 .02-.02.02-.04 0-.03-.02-.06-.05-.1 0-.05-.02-.08-.03-.1-.2-.53-2.15-.83.1-.94.1-.03.15-.1.17-.19l.58-.1c.02 0 .03-.04 0-.04-.04 0-.08 0-.11-.02a8.08 8.08 0 0 0 .52-.13c.12-.05.25-.06.37-.06l.03.01.35.05c.41.7.48.34-.24.84.27.08.53.18.82.09.4-.85 1.16-.83 1.12-.25ZM12.02 10.58c.05 0 .1 0 .15.03.02 0 .02.01.01.03-.01.02-.02.02-.03.02l-.1.01-.02.01v.02l.02.01c.1.01.15.05.16.12a.37.37 0 0 1-.23-.11l-.05-.03c-.02 0-.02-.02 0-.04l.09-.07Z" fill="#592D25"/><path d="M11.98 10.72c.07.06.14.1.23.11a.1.1 0 0 1 .03.06.24.24 0 0 1-.05.03.14.14 0 0 1-.06.01c-.15 0-.24 0-.37.12a6 6 0 0 1-.21.2.4.4 0 0 0-.15-.08.7.7 0 0 1 .26-.26c.07-.04.07-.06 0-.08-.04 0-.1 0-.18.03a.05.05 0 0 0-.04.04l-.01.07c0 .02-.02.04-.04.04l-.25.06c-.03-.05-.1-.03-.18.04v.04h.03l-.02.04a.39.39 0 0 0-.26-.06c-.03 0-.04 0-.03-.03.02-.02.04-.04.07-.04l.03-.04v-.04l-.02-.01h-.12c-.02 0-.03 0-.02-.03l.03-.04h.02c.07 0 .13-.02.17-.06.07 0 .15.03.23.06h.1c.05 0 .08-.02.1-.03.07-.08.16-.11.27-.1h.1a.35.35 0 0 0 .07-.05h.04c.1.1.17.1.23 0Z" fill="#9A9A9A"/><path d="M7.53 10.8a.27.27 0 0 1-.16.2.64.64 0 0 1-.3-.04c.02-.02.03-.04.02-.05 0-.01 0-.02-.02-.01l.03-.04c.14-.04.28-.06.43-.06Z" fill="#9D594A"/><path d="M12.33 10.92c-.14.07-.29.1-.45.11-.02 0-.04.01-.05.03l-.25.25c0-.04-.02-.06-.04-.07a6 6 0 0 0 .22-.2c.13-.11.22-.1.37-.1l.06-.02.05-.03a.05.05 0 0 1 .04 0c.01 0 .03 0 .05.03ZM6.42 10.89c0 .02.01.03.02.03l-.03.04c-.02.02-.02.03 0 .03.14.02.27.01.4-.02a.1.1 0 0 1 .05 0c.07.02.14.02.2-.01.1.03.2.04.3.03.1.04.12.06.06.07l-1.3.03h-.2a.2.2 0 0 1-.13-.06c.04 0 .05-.02.04-.04h.46c.02 0 .04 0 .05-.02l.08-.08Z" fill="#535253"/><path d="M5.83 10.99c.01.02 0 .04-.04.04l-.47.01c-.03 0-.04.02-.01.04l.03.03a.05.05 0 0 0 .03.02h.33c.03 0 .03 0 .01.03l-.04.04H4.8c.03 0 .02.01-.03.02.01-.05.04-.07.09-.07a4.64 4.64 0 0 0 .33-.02l.01-.03v-.02c.01-.01 0-.02-.02-.02-.03 0-.06 0-.08-.03a.04.04 0 0 1 .03-.06l.7.02Z" fill="#1E191B"/><path d="M5.79 11.03a.2.2 0 0 0 .14.05l.2.01c.07.02.05.04-.07.05-.1 0-.17 0-.23.04l-.08.03a.1.1 0 0 0-.05.03.14.14 0 0 1-.12.05h-.26c-.23.05-.4.02-.52-.09h.87l.04-.04c.02-.02.02-.03-.01-.03h-.33a.05.05 0 0 1-.03-.02l-.03-.03c-.03-.02-.02-.04.01-.04l.47-.01Z" fill="#F6FBFB"/><path d="M7.26 11.94h-.23c-.03 0-.04 0-.03-.03l.01-.06c0-.03 0-.03-.02-.02l-.02.01a.13.13 0 0 1-.04.04 1 1 0 0 1-.5.06c-.17-.02-.5-.1-1.01-.47a4.47 4.47 0 0 0-.22-.07c-.04 0-.07.02-.1.07a.52.52 0 0 1-.33-.25c.05 0 .06-.01.03-.02.7.04 1.84.01 2.49 0 .03 0 .03.02.01.04-.06.06-.1.1-.13.1h-.04a.07.07 0 0 0-.02.04c-.02.06.13.51.15.56Z" fill="#9A9A9A"/><path d="M5.83 11.18c.05.05.14.06.25.03.02.05.01.08-.02.09-.23.07-.47.1-.71.1-.02 0-.04-.01-.04-.03-.02-.02-.01-.05.01-.08h.26c.05 0 .1-.01.12-.05a.1.1 0 0 1 .05-.03l.08-.03ZM5.83 11.66l-.46.01c-.1 0-.16-.05-.2-.14 0-.02 0-.02.03-.02.1 0 .17 0 .22-.04l.42-.05c.12-.02.2-.03.27-.02h.26c.13 0 .13.02.01.06h-.06c-.02 0-.04 0-.06.02a.83.83 0 0 1-.25.06.23.23 0 0 0-.18.12ZM5.82 11.8c-.1.02-.16 0-.18-.04.14.02.23 0 .24-.07l.26-.07h.06c.07 0 .13-.01.16-.06a.05.05 0 0 1 .05-.03c.06 0 .11 0 .17-.04a.12.12 0 0 1 .06-.02c.1-.01.19-.03.24-.05h.04c.03.05.07.07.12.06.03 0 .06.02.08.04 0 .02 0 .03-.02.04-.21.01-.41.07-.6.18a.13.13 0 0 1-.04.01l-.64.05Z" fill="#C5C5C5"/><path d="M5.64 11.76c.02.05.08.06.18.04l.51.01c.06 0 .08.03.07.08a.05.05 0 0 0 0 .04h.02l.02.01a1 1 0 0 0 .49-.06l.04-.04.02-.01c.02-.01.03 0 .02.02L7 11.9c0 .03 0 .04.03.04l.23-.01c.01 0 .03.04.03.09l-.26-.01a.85.85 0 0 0-.24 0H6.4c-.09 0-.13-.04-.19-.1a9.17 9.17 0 0 1-.48-.02.19.19 0 0 1-.15-.09c.03 0 .04-.02.05-.05Z" fill="#535253"/><path d="M8.48 12.7a.44.44 0 0 1-.16.14c-.08 0-.13-.01-.17-.04a.04.04 0 0 1-.01-.04v-.04l-.01-.03-.16-.06c-.01 0-.02 0-.02-.02l-.01-.02v-.1l-.03-.04a.07.07 0 0 1-.01-.07c.04-.13.3-.16.4-.15l.05-.01.08-.06a.08.08 0 0 1 .07-.02.08.08 0 0 1 .05.05c.06.16.04.33-.07.52Z" fill="#AF6F34"/><path d="M7.4 12.79c-.02-.05 0-.1.06-.12.04-.04.05-.12.04-.23a.1.1 0 0 0-.06-.08.09.09 0 0 0-.1.03l-.09.1c-.07.08-.1.07-.08-.04v-.06c-.01-.02-.03-.03-.05-.01-.02.02-.03.06-.01.1l-.01.04h-.06c-.08-.08-.06-.15.05-.24.1-.04.2-.05.32-.05l.05-.02a.2.2 0 0 1 .17-.04c.02 0 .04.02.04.04v.28c0 .08-.05.11-.07.18-.03.09-.12.12-.2.12Z" fill="#F9C893"/><path d="M7.05 12.25c0 .03.02.04.04.03-.11.09-.13.16-.05.23l.04.02.02-.01v-.04c0-.04 0-.08.02-.1.02-.02.04-.01.04.01l.01.06c-.02.1 0 .12.08.04l.1-.1a.1.1 0 0 1 .09-.03.09.09 0 0 1 .06.08c.01.11 0 .2-.04.23h-.09c-.03 0-.03-.02 0-.04.03-.03.04-.06.04-.1 0-.09-.04-.1-.1-.02a.24.24 0 0 1-.17.09c-.03 0-.03.01-.02.03.05.12.12.2.2.26-.05.02-.1 0-.14-.04a7.66 7.66 0 0 0-.16-.2c-.06-.07-.1-.13-.09-.19a.3.3 0 0 1 .12-.2Z" fill="#1E191B"/><path d="M7.46 12.67c-.06.03-.08.07-.06.12a.1.1 0 0 0-.02.08s-.03 0-.05.02a.57.57 0 0 1-.21-.26c-.01-.02 0-.03.02-.03.07-.01.13-.04.17-.1.06-.07.1-.06.1.04 0 .03-.01.06-.05.1-.02.01-.02.02.01.02l.1.01Z" fill="#AF6F34"/><path d="M9.08 6.84h-.03a.06.06 0 0 0-.06.06v.73c0 .03.02.06.05.06h.03c.03 0 .06-.03.06-.06V6.9a.06.06 0 0 0-.05-.06ZM8.53 7.24h.23l.03.01.02.04v.06c0 .03-.02.04-.05.04h-.22c-.03 0-.04.01-.04.03V7.73l-.03.01H8.4a.04.04 0 0 1-.05-.04v-.65c0-.03.02-.07.04-.1a.13.13 0 0 1 .1-.03h.36c.03 0 .04 0 .04.03v.03c0 .02-.01.04-.03.05l-.24.07-.07.03a1.85 1.85 0 0 1-.05.08.03.03 0 0 0 .01.02h.01ZM7.93 7.73a.1.1 0 0 0 .05-.05l.04-.02h.17c.04 0 .06.02.06.06v.05c0 .04-.02.06-.07.04-.03-.01-.05 0-.07.05a.04.04 0 0 1-.03.02h-.3c-.01 0-.02 0-.02-.03V7.1c0-.02 0-.03.02-.03h.08c.02 0 .03.01.03.03v.62c0 .02.02.03.04.02ZM7.62 7.15h-.05a.05.05 0 0 0-.05.05v.07c0 .03.02.05.05.05h.05c.03 0 .05-.02.05-.05V7.2a.05.05 0 0 0-.05-.05Z" fill="#3C667D"/><path d="M10.98 8.57c.03 0 .05-.01.05-.02L11 8.53l-.05.01.04.03Z" fill="#C76F5B"/><path d="M7.47 9.7h.27l.01.01v.03c-.19.06-.33.02-.44-.1l-.01-.01v-.02h.02l.1.06a.1.1 0 0 0 .05.02ZM7.9 9.97a.27.27 0 0 0-.2 0c-.01 0-.02 0-.02-.02l-.01-.03a.02.02 0 0 1 0-.02.02.02 0 0 1 .01 0l.6.06V10c-.17.02-.29.02-.38-.03Z" fill="#1E191B"/><path d="M10.67 8.92h.03c.03 0 .04.02.04.04.02.1.02.2-.01.27-.05.1-.1.2-.17.3a.07.07 0 0 1-.06.04h-.14c-.03 0-.03 0-.01-.03l.2-.25a.08.08 0 0 0 .02-.05v-.31a.2.2 0 0 0-.03-.13 1.17 1.17 0 0 1-.06-.11v-.02l.01-.01a.02.02 0 0 1 .02 0 .02.02 0 0 1 .01 0c.05.09.11.13.18.13.03 0 .04.01.01.03l-.05.05c-.01.02-.01.04.01.05Z" fill="#F6FBFB"/><path d="M10.97 9.34v-.4l-.01-.05-.09-.08c-.02-.02-.01-.03 0-.04l.15-.05c.03 0 .04 0 .04.03v.78c0 .01-.01.02-.03.02h-.1c-.02 0-.03 0-.03-.02 0-.06.01-.1.05-.14a.06.06 0 0 0 .02-.05Z" fill="#DCF2FA"/><path d="M10.8 8.87c-.02-.04 0-.05.02-.02l.07.07a.1.1 0 0 1 .03.06v.36l-.02.06-.11.2c-.02.03-.05.04-.08.02l-.06-.03c-.02-.01-.03-.03-.01-.06l.13-.25a.44.44 0 0 0 .05-.2c0-.06 0-.13-.03-.21Z" fill="#C76F5B"/><path d="m7.88 12.06.4-.46a.13.13 0 0 0 0-.15.92.92 0 0 0-.11-.15c-.06-.06-.13-.06-.2-.01a.75.75 0 0 0-.32.37c-.05.15-.09.3-.1.44h-.1a.05.05 0 0 1-.06-.07l.22-.53c.04-.1.13-.22.28-.37a.09.09 0 0 1 .05-.02c.12-.01.2 0 .24.04a5.14 5.14 0 0 0 .24.23.1.1 0 0 1 0 .06.94.94 0 0 1-.54.62Z" fill="#703C30"/><path d="m7.88 12.06-.13.07a.07.07 0 0 1-.05 0l-.15-.03c.01-.15.05-.3.1-.44a.75.75 0 0 1 .31-.37c.08-.05.15-.05.2.01.06.06.1.1.13.15a.13.13 0 0 1-.01.15l-.4.46Z" fill="#9D594A"/><path d="M8.3 12.4v-.01a.03.03 0 0 0-.04-.01.79.79 0 0 1-.22.16.04.04 0 0 1-.05 0 .04.04 0 0 1 0-.05l.02-.06c0-.02.02-.03.04 0l.02.02a.03.03 0 0 0 .04 0l.1-.1a.12.12 0 0 1 .15-.01c.07.06.07.14-.02.25a.11.11 0 0 1-.07.04c-.03 0-.03 0-.02-.03a.3.3 0 0 0 .05-.2Z" fill="#592D25"/><defs><linearGradient id="a" x1="9" y1="0" x2="9" y2="18" gradientUnits="userSpaceOnUse"><stop stop-color="#7BCBFB"/><stop offset="1" stop-color="#B1E3FF"/></linearGradient></defs></svg>