<!-- by TradingView --><svg width="18" height="18" viewBox="0 0 18 18" xmlns="http://www.w3.org/2000/svg"><path fill="#F0F3FA" d="M0 0h18v18H0z"/><path d="m10.48 3.13.18.05.25.07c0 .02-.01.02-.04.02h-.01v.04-.04c0-.01 0-.02-.02-.02-.02.01-.02.02-.02.03l.03.03c.03.06.06.1.12.14h.02a32.05 32.05 0 0 0 .37.16c.03 0 .06 0 .1.03.03.03.05.02.03-.04a.14.14 0 0 0-.04-.07l-.05-.04a.67.67 0 0 0-.18-.11.94.94 0 0 1-.13-.07c.04 0 .08.02.1.03.12.05.23.1.34.18l.1.14.01.03.04.07c0 .01 0 .01 0 0v-.02c.01.03.03.05.05.05.03.02.04.05.05.08l.01.02.06.05.07.11a.5.5 0 0 1 .03.27l-.02.04h-.01l-.02-.13-.03-.08a.32.32 0 0 0-.06-.1.52.52 0 0 0-.12-.13h-.04v.01l-.01.02.03 2.13a15.8 15.8 0 0 1 0 .22v-.04c0-.02 0-.02 0 0a6.51 6.51 0 0 0-.02-.03c0-.02-.01-.02-.01 0v.19l.02.23.03.25c0 .04.02.04.04 0a.19.19 0 0 0 .02-.06v-.02H11.83a.04.04 0 0 1 .02.03v.31h-.02a.37.37 0 0 0-.23-.06 4.13 4.13 0 0 1-.42.02c-.01 0-.01 0 0 0l.25.07.18.07c.09.05.18.08.27.1.02 0 .04.01.05.03l.04.04.01.02-.01.04h-.03c-.04 0-.06.03-.05.07v.02c.02.01.02.03.02.04l-.01.03c-.04.04-.01.1-.01.15 0 .13.01.25.03.38v1.46l-.01.56c0 .08.01.15.04.2.07.1.06.2-.02.27a.13.13 0 0 1-.03.03.13.13 0 0 0-.03.02c-.02.02-.01.02 0 .03h.03l.02.03v.51l.04.3v.28l-.03.46v.2c0 .28 0 .57.02.86 0 .06.03.1.03.16.01.22-.02.42-.17.56-1.24.9-4.02.8-5.41.17a.63.63 0 0 1-.14-.08 1.57 1.57 0 0 1-.14-.15c-.03-.06-.06-.12-.07-.2-.02-.1-.02-.19-.01-.28l.02-.23.03-.51a254.72 254.72 0 0 1-.02-1.1 3 3 0 0 1 .02-.28 6.51 6.51 0 0 0 .02-.65.56.56 0 0 1 .03-.07v.03l.02-.01v-.02l-.1-.07v-.01a.02.02 0 0 1 0-.01v-.05L6 10.56l.01-.07.06.03.15.09c.1.03.16 0 .2-.07v.06h.14l.01-.01v-.02a.23.23 0 0 0-.1-.03v-.02c-.02-.02-.03-.03-.05-.03a.28.28 0 0 0-.13-.05H6.08l-.01-.03v-1.6c0-.34.02-.73.01-1.1a.37.37 0 0 0-.05-.17c-.03-.05-.04-.13.01-.15a.61.61 0 0 1 .13-.04.62.62 0 0 0 .21-.1 2.76 2.76 0 0 0 .28-.1c.03 0 .06 0 .1-.02V7.1h-.2c-.13-.01-.25 0-.36.03l-.08.06h-.03V6.99c0-.08-.03-.17 0-.24.07-1.97 0-3.03.32-3.19l.04-.03c.08-.06.18-.12.28-.16a.19.19 0 0 1-.07.06.42.42 0 0 0-.08.06c-.25.24-.15.2.08.11L7 3.48c.07-.02.1-.07.11-.13l.01-.02.04-.04v-.07l.41-.1c.1-.01.2 0 .3-.04.04-.02.09 0 .14-.02.08-.03.16 0 .24-.02a.56.56 0 0 1 .14-.02L8.82 3a8.07 8.07 0 0 1 1.66.13Z" fill="#0C1011"/><path d="M7.33 3.41H7.3l-.01-.01v-.04h.01l.04-.04.03-.01h.04l.02-.01a.05.05 0 0 1 .04-.01h.03c.96-.3.7.07-.16.12Z" fill="#DBE5E6"/><path d="M7.16 3.22v.07l-.04.04v.02c-.01.06-.05.1-.12.13l-.34.12-.2.1c-.06.02-.06 0-.03-.04l.15-.17a.42.42 0 0 1 .08-.06.19.19 0 0 0 .07-.06c.14-.06.28-.11.43-.15ZM8.14 4.06c.02-.06.03-.1.02-.13a.65.65 0 0 1-.03-.17c0-.13 0-.26-.02-.4H8.26l.02.14-.01.44v.1l-.02.02h-.11Z" fill="#46616E"/><path d="m8.11 3.37.02.4.03.16c0 .03 0 .07-.02.13-.08 0-.15 0-.22.03.01-.01.02-.03 0-.05v-.01l-.01-.02a21.8 21.8 0 0 0-.01-.23l-.04-.38.25-.03Z" fill="#7B9EAB"/><path d="m7.86 3.4.04.38v.01a21.8 21.8 0 0 1 .03.25l-.01.05c-.07.05-.1.1-.1.18a1990.38 1990.38 0 0 0-.02 2.7h-.4l-.01-.02v-.03c.02-.04.02-.1.02-.18a45.4 45.4 0 0 1 .05-2.43 261.33 261.33 0 0 0 .07-.87h.02l-.02.02a8.87 8.87 0 0 1 .02.03l.01-.05.3-.04Z" fill="#DBE5E6"/><path d="m7.52 3.45-.02.5c0 .13-.02.25-.04.36v-.04c0-.02 0-.02-.01 0v.03h-.02l.01-.62.01-.01h.01v-.22h.06Z" fill="#7B9EAB"/><path d="M7.47 3.45v.2l-.01.01v.01h-.01v.01l-.02.62h.01v-.04h.02v.05c-.03.14-.04.24-.04.32v.24a45.4 45.4 0 0 0 0 1.87c0 .08-.01.14-.03.18a16.61 16.61 0 0 0 0-1.33V3.6a687.18 687.18 0 0 0 0 .69h-.02a78.66 78.66 0 0 1-.02-.76l-.01-.04v-.01l.02-.01a.23.23 0 0 1 .1-.02ZM10.6 4.07a11.03 11.03 0 0 0 0-.59l.02.01v.01c0 .23 0 .48.02.75 0 .03-.01.04-.04.03l-.11-.06a.06.06 0 0 1-.03-.02.08.08 0 0 1 0-.04v-.7l.1.02h.01l.01.02.01.02v.55h.01ZM6.72 6.98v.04c-.02.01-.02.01-.02-.01v-.04l-.05-.04-.01-.01H6.6l-.05.04c-.03.03-.04.02-.05-.02a19.39 19.39 0 0 1-.03-1.33c.02-.59.01-1.19 0-1.79l.02-.02c0-.01 0-.02.02-.03.08-.05.17-.1.27-.13l.33-.12a.02.02 0 0 1 .03 0v.03a378.25 378.25 0 0 0-.04 2.77v.24a1.4 1.4 0 0 1-.04.32l-.02.01a.04.04 0 0 1-.04 0l-.04-.03h-.02a.22.22 0 0 0-.1.07l-.01.02a.22.22 0 0 1-.1.02h-.02ZM11.39 7.05v.02l-.03.01h-.03l-.19-.01a.97.97 0 0 0-.2-.02v-.03a.37.37 0 0 0 .14-.21l.01-.02.01-.02c.08-.18.13-.37.15-.58l.03-.36-.03-.35c0-.12-.03-.25-.07-.4-.05-.16-.1-.29-.18-.4a34.23 34.23 0 0 0-.11-.18l-.02-.06c-.02-.06 0-.2 0-.26l.01-.18a10.12 10.12 0 0 0 .01-.45h.01c.04 0 .08.02.12.04.08.04.15.04.22.08a6.24 6.24 0 0 1 .2.1v.04a24.89 24.89 0 0 0 .03 1.53l-.01.07c0 .13-.01.25-.03.37v.15l-.02.38a1.7 1.7 0 0 1-.03.32l-.04.1a.85.85 0 0 0-.05.26l.01.02c.04 0 .06.02.09.04Z" fill="#46616E"/><path d="M11.8 4.05v.22l.01.21v.22a1.17 1.17 0 0 0-.02-.16 17.47 17.47 0 0 0 .05.9c.1 2.05-.1 3.24-.25.7l.05-2.19v-.02l.01-.01a.03.03 0 0 1 .04 0c.05.04.09.08.12.13Z" fill="#7B9EAB"/><path d="M8.54 7.32h-.22c-.01 0-.02 0-.02.02v2.03l-.01.01h-.01l-.24-.09h-.01l-.01-.03v-1.4L8 7.73a1760.2 1760.2 0 0 1 .01-3.46 614.83 614.83 0 0 1 2 .03l.13.02c.15.03.3.1.44.2.29.2.44.53.48.9.02.1.02.21.03.32.01.11-.01.22-.02.34 0 .11-.03.23-.06.35-.09.36-.3.61-.63.75-.12.05-.23.08-.34.1a2.7 2.7 0 0 1-.36.02 154.73 154.73 0 0 0-.83.01v2.2c0 .01 0 .02-.02.01l-.25-.07c-.01 0-.02 0-.02-.02v-2.1c0-.02 0-.02-.02-.02Z" fill="#fff"/><path d="M8.85 5.13a.02.02 0 0 1 0-.02h.86c.15 0 .28.06.39.17.1.12.15.27.15.43v.18a.67.67 0 0 1-.15.43c-.05.05-.11.1-.18.13a.49.49 0 0 1-.2.04h-.87V5.12Z" fill="#0C1011"/><path d="m11.83 7.16.02.01h-.26c-.02 0-.02 0 0 .02l.14.07.08.04.07.05c-.1-.01-.18-.04-.27-.09a.97.97 0 0 0-.18-.07 14.46 14.46 0 0 1-.25-.07l.06-.02h.36c.08 0 .15.01.23.06Z" fill="#7B9EAB"/><path d="M6.99 7.15c.06-.01.12-.04.18-.02.04 0 .05.02 0 .04l-.02.01c-.1.03-.22.05-.37.06l-.16.02c-.06 0-.1.04-.17.03v-.02a.1.1 0 0 0 .06-.02 16.41 16.41 0 0 0 .47-.1ZM11 7.2c-.06.01-.11 0-.16-.02l-.01-.01v-.02a.06.06 0 0 1 .05-.02c.07 0 .14 0 .2.02a.9.9 0 0 0 .1.01l.12.03a18.61 18.61 0 0 0 .17.06c0 .02 0 .03-.02.02a1.36 1.36 0 0 0-.19-.01c-.04 0-.07-.03-.1-.03H11v-.01L11 7.2Z" fill="#46616E"/><path d="M11.85 7.17h.02v.03c0 .02-.01.03-.04.04v.01l.12.11v.02l-.02.01a1.88 1.88 0 0 0-.2-.13.67.67 0 0 1-.15-.07v-.02h.27ZM7.4 7.88v-.36a.1.1 0 0 1 .05-.07l.35-.04c.02 0 .02 0 .02.02v.24l-.01.02c-.14.04-.27.1-.41.19Z" fill="#DBE5E6"/><path d="M7.6 10.22a.94.94 0 0 1-.57-.68 1.6 1.6 0 0 1 .06-.94 1.18 1.18 0 0 1 .73-.7l.01.02v.81a.3.3 0 0 1-.03.04c-.1.1-.12.24-.1.4.01.19.17.3.32.34a23.6 23.6 0 0 0 1.02.3c.23.07.4.17.54.3a1 1 0 0 1 .31.62 1.93 1.93 0 0 1-.01.56c-.1.47-.43.8-.82.94-.02 0-.03 0-.03-.02v-.79l.01-.01c.1-.12.15-.26.13-.44-.02-.19-.16-.29-.3-.35a2.66 2.66 0 0 0-.37-.12c-.3-.08-.6-.15-.9-.28ZM9.04 7.97c.4.2.66.52.73 1.03a3.3 3.3 0 0 1 .01.21h-.7c-.02 0-.03 0-.03-.03L9.03 9a252.75 252.75 0 0 1 0-1.03Z" fill="#fff"/><path d="m7.43 10.48.01-.05v-.02h.02l.01-.01h.01c.12.05.22.1.33.12.02 0 .02.02.02.04v.01c0 .02 0 .03-.02.03l-.39-.03-.02-.02a.04.04 0 0 1 0-.03l.02-.03.01-.01ZM11.9 10.42s.02 0 .02.02l.02.04v.05a.5.5 0 0 1-.47.04v-.01l.15-.08c.08-.05.18-.03.27-.06Z" fill="#7B9EAB"/><path d="M6.15 10.44h.14c.05.11.03.17-.07.17a.33.33 0 0 1-.15-.09c-.01-.02-.01-.04.02-.06a.2.2 0 0 1 .06-.02Z" fill="#DBE5E6"/><path d="M6.29 10.44c.04 0 .09.02.13.05v.05c-.04.08-.1.1-.2.07.1 0 .12-.06.07-.17Z" fill="#7B9EAB"/><path d="M6.84 10.6a4.64 4.64 0 0 1-.28-.09c-.07-.03-.07-.04 0-.04s.13 0 .2.02l.25.01c.04 0 .08 0 .13.02l.06.02c.02.02.05.03.08.03l.01.02v.02l-.02.01h-.04v.01h-.01a.02.02 0 0 0 0 .02v.01c.02.01.02.02 0 .02-.12.01-.24 0-.37.02-.04.01-.09.01-.14 0a2.87 2.87 0 0 0-.25-.03l-.02-.02v-.01l.4-.02c.06 0 .06 0 0-.02Z" fill="#46616E"/><path d="M8.3 10.67v2.05h-.27v-2.13l.26.07.01.01ZM8.85 10.85v1.87h-.28v-1.98h.01l.26.1v.01ZM7.01 11.45a1.58 1.58 0 0 1-.09-.54l.02-.01h.7l.01.02c.02.17.07.35.18.47V12.22a1.25 1.25 0 0 1-.82-.77Z" fill="#fff"/><path d="M7.58 12.78v.01l-.05-.35v-.02a.07.07 0 0 1-.03-.05v-.01h.02a.2.2 0 0 1 .08.01l.21.07h.02v.23c0 .1.03.18.06.27l.04.08a.3.3 0 0 1 .04.06v.06a5.5 5.5 0 0 1-.03.38l-.03.1a2.12 2.12 0 0 0-.1.29v.02c0 .02-.01.03-.03.03h-.01a.1.1 0 0 0-.03-.07l-.01-.03-.01-.07a4.63 4.63 0 0 0-.04-.37c0-.06-.03-.11-.03-.18 0-.09-.02-.18-.04-.26a3.34 3.34 0 0 0-.03-.2ZM7.45 14.34a2.17 2.17 0 0 0-.07.01l-.01.02v.02l.11.05c.03.04.07.05.1.03.12.04.24.05.35.04l.05-.01.02-.01.07-.02c.01 0 .02 0 .02-.02l-.01-.01-.01-.02.21.02a.01.01 0 0 1 .01.01v.01l-.01.02h-.02a.1.1 0 0 0-.06.02.12.12 0 0 1-.05.03.75.75 0 0 1-.37.02 2.29 2.29 0 0 1-.38-.1.12.12 0 0 1-.08-.09l.01-.02a.17.17 0 0 1 .12 0Z" fill="#46616E"/><path d="m7.45 14.34.55.07.02.02v.02a.39.39 0 0 1-.14.02v.01c0 .02.02.02.04.01H7.9v.02h.03c-.12 0-.23 0-.34-.04l-.03-.01h-.02l-.06-.02-.1-.05-.01-.02v-.02h.02l.06-.01Z" fill="#DBE5E6"/></svg>