<!-- by TradingView --><svg width="18" height="18" viewBox="0 0 18 18" xmlns="http://www.w3.org/2000/svg"><path fill="#F0F3FA" d="M0 0h18v18H0z"/><path fill-rule="evenodd" d="M13.93 8.15a5 5 0 0 0-9.78-.37 5.08 5.08 0 0 0 2 5.33 4.93 4.93 0 0 0 5.66.02 4.96 4.96 0 0 0 2.12-4.98ZM12.4 5.9a4.61 4.61 0 0 1-.01 6.2L11 10.66v-.02c.52-.5.79-1.13.72-1.86a2.13 2.13 0 0 0-.58-1.28l-.1-.1a3.77 3.77 0 0 1-.04-.06L12.4 5.9h.01Zm-1.21.71.91-.99V5.6a4.6 4.6 0 0 0-6.2.02l1.03 1.01c.01.02.03.02.04.02a89.27 89.27 0 0 0 2.35.02 2.8 2.8 0 0 1 1.37.43l.02-.02.48-.47Zm-5.6 5.48a4.59 4.59 0 0 1 .04-6.19l1 1a.11.11 0 0 1 .03.07v4.05c0 .03 0 .07-.04.1l-1 .97a.02.02 0 0 1-.01 0H5.6Zm1.54-4.96v3.74h2.03c1.06-.06 2.11-.72 2.1-1.84v-.09c0-1.12-1.05-1.82-2.1-1.81H7.13Zm1.37 6.44a4.6 4.6 0 0 1-2.6-1.19l1.03-1a418.94 418.94 0 0 0 2.1-.02 2.99 2.99 0 0 0 1.65-.46l.02.01 1.4 1.47v.02a4.6 4.6 0 0 1-3.6 1.17Z" fill="url(#azb0v1ajw)"/><defs><linearGradient id="azb0v1ajw" x1="11.62" y1="4.98" x2="5.53" y2="12.41" gradientUnits="userSpaceOnUse"><stop stop-color="#40B5D0"/><stop offset=".3" stop-color="#B59277"/><stop offset="1" stop-color="#E53F18"/></linearGradient></defs></svg>