<!-- by TradingView --><svg width="18" height="18" viewBox="0 0 18 18" xmlns="http://www.w3.org/2000/svg"><path fill="url(#a)" d="M0 0h18v18H0z"/><path d="M4.71 5.11 6.86 4h4.28l2.15 1.11v.74l-2.15-1.1H6.86L4.7 5.84v5.19L9 13.26l4.29-2.22V5.85l.71.37v5.19L9 14l-5-2.6V6.23l.71-.37v-.74ZM7.57 6.6 7 6.22v2.22l2 1.12 2-1.12V6.22l-.57.37v1.48L9 8.81l-1.43-.74V6.6Zm2.86 2.97v.74l-2.14 1.1v-.73l2.14-1.11Z" fill="url(#b)"/><defs><linearGradient id="a" x1="3.35" y1="3.12" x2="21.9" y2="24.43" gradientUnits="userSpaceOnUse"><stop stop-color="#1A1E21"/><stop offset="1" stop-color="#06060A"/></linearGradient><linearGradient id="b" x1="4.15" y1="5.79" x2="7.33" y2="14.72" gradientUnits="userSpaceOnUse"><stop stop-color="#FDFF85"/><stop offset=".48" stop-color="#66F6FF"/><stop offset="1" stop-color="#CD9BFF"/></linearGradient></defs></svg>