<!-- by TradingView --><svg width="18" height="18" viewBox="0 0 18 18" xmlns="http://www.w3.org/2000/svg"><path fill="#F0F3FA" d="M0 0h18v18H0z"/><path d="M7 6.97v-.94l.01-.02.02-.01H11V7L9.92 8.62a.03.03 0 0 0 0 .03v.01h1.05l.02.02.01.02v.8l-.01.02H9.37l-.01.01-.02.01-1.05 1.41a.03.03 0 0 0 0 .03l.01.01h2.66l.03.02v.98l-.03.01H7.01L7 11.96v-.95l1.08-1.45a.03.03 0 0 0 0-.03l-.02-.02H7.37l-.02-.01-.02-.02v-.8l.02-.01.02-.01h1.27v-.02l1.04-1.6a.03.03 0 0 0 0-.04h-.01L9.65 7H7.03l-.02-.01L7 6.97ZM4.96 7.97l.02-.01A339.63 339.63 0 0 0 6 6h.89a.01.01 0 0 1 0 .02L5.47 8.77a.56.56 0 0 0-.06.25v2.93a.05.05 0 0 1-.01.03l-.02.01-.01.01H4.53a.06.06 0 0 1-.03-.05V9.02a.57.57 0 0 0-.07-.25L3 6.03a.01.01 0 0 1 0-.02L3.02 6h.89l.02.01.01.02a359.74 359.74 0 0 0 1.03 1.94ZM13.05 7.97l.03-.01A342.26 342.26 0 0 0 14.1 6H15l.01.01-1.44 2.76a.55.55 0 0 0-.06.25v2.95a.05.05 0 0 1-.03.02l-.01.01H12.63a.06.06 0 0 1-.03-.05V9.02a.57.57 0 0 0-.08-.25L11.1 6.03v-.01l.01-.02H12l.03.01.01.02a363.43 363.43 0 0 0 1.02 1.94Z" fill="#010101"/></svg>