<!-- by TradingView --><svg width="18" height="18" viewBox="0 0 18 18" xmlns="http://www.w3.org/2000/svg"><path fill="#2F285B" d="M0 0h18v18H0z"/><path fill-rule="evenodd" d="m7.93 6.63.88.2 1.86.4c.27.07.53.28.55.55a.6.6 0 0 1-.23.54.82.82 0 0 1-.61.16l-2.9-.25c-.64-.06-.85-.6-.66-1.14.18-.52.62-.56 1.11-.46ZM10.5 8l-2.98-.25c-.16-.01-.25-.1-.24-.25 0-.13.03-.24.08-.33a.16.16 0 0 1 .12-.09l.2.01 2.87.63c.1.02.14.07.14.16-.02.1-.09.13-.19.12ZM5.9 9.8l-.15-.14c-.23-.22-.24-.56-.08-.83a.7.7 0 0 1 .44-.33c.08-.02.24-.02.47 0l4.84.4c.29.02.56.16.7.42.16.33.04.61-.2.9-.27.33-.48.57-.64.72a.97.97 0 0 1-.5.26c-.07.01-.25.02-.56.02h-2.2c-.39 0-.63-.15-.93-.4L5.9 9.8Zm1.75.81c-.4-.31-.8-.65-1.18-.99l-.22-.18a1.28 1.28 0 0 1-.14-.14c-.07-.1 0-.28.12-.32a40673.06 40673.06 0 0 0 5.1.4c.18 0 .4.12.31.33a13.08 13.08 0 0 1-.68.83.52.52 0 0 1-.39.19H7.98a.54.54 0 0 1-.34-.12Z" fill="#5FFDD2"/><path fill-rule="evenodd" d="M6 4 3 9l3 5h6l3-5-3-5H6Zm.56 1L4.13 9l2.43 4h4.88l2.43-4-2.43-4H6.56Z" fill="#5FFDD2" fill-opacity=".7"/></svg>