<!-- by TradingView --><svg width="18" height="18" xmlns="http://www.w3.org/2000/svg"><path fill="#931C31" d="M0 0h18v18H0z"/><path d="M3 5v2h.337c.074-1 1.59-1 2.216-1h2.294L3 12.447V13h7v1h1v-1h1v1h1v-1h.393C13.925 13 15 11.997 15 10.601c0-1.418-1.34-1.87-1.996-1.92.44-.044 1.327-.44 1.348-1.662C14.372 5.796 13.575 5.032 13 5V4h-1v1h-1V4h-1v1H3z" fill="#fff"/><path d="M8.797 5.995l-4.297 6h2.425c1.262 0 2.075-.81 2.075-1.103-.004-1.308-.01-3.913 0-4.251.01-.338-.122-.571-.203-.646zM10 11.202V9.001h1.568c1.652 0 2.096.874 2.096 1.554 0 .648-.597 1.446-1.99 1.446-1.162 0-1.674-.475-1.674-.799zM10 8.453V5.995h1.676c.409 0 1.324.373 1.324 1.219 0 .856-1.079 1.239-1.684 1.239H10z" fill="#931C31"/></svg>