<!-- by TradingView --><svg width="18" height="18" viewBox="0 0 18 18" xmlns="http://www.w3.org/2000/svg"><path fill="#1B1B19" d="M0 0h18v18H0z"/><path d="M9.3 4.01c.03.04.02.08-.03.1h-.03l-.06-.01-.02.01v.05c0 .05.03.06.07.04l.12-.06c.05-.03.07-.07.06-.12l.2-.01c.02 0 .03 0 .04.02l.01.04c0 .02.01.02.02.03.02 0 .04.02.07.05v.03l-.02.02H9.7a.06.06 0 0 0-.04.04v.05l.04.02c.03 0 .06-.03.08-.07l.04-.02c.01 0 .03 0 .03.02l.02.06a.49.49 0 0 1-.12.24.07.07 0 0 1-.04.03c-.02 0-.03 0-.05-.02l-.02-.03c0-.03 0-.05-.02-.07h-.06a.32.32 0 0 0-.12.1l-.02.03a.1.1 0 0 1-.01.04c-.01.02-.02.02-.03.02h-.26l-.04.02-.16.18c-.02.02-.04.02-.05 0l-.19-.16a.13.13 0 0 0-.04-.03.12.12 0 0 1-.06-.06.13.13 0 0 0-.05-.06.1.1 0 0 1-.05-.06c-.01-.02-.03-.04-.07-.04h-.05l-.02-.04c0-.03.01-.05.03-.07.03-.02.06-.02.1 0h.06c.01 0 .02 0 .02-.02l-.02-.01c-.02 0-.02-.01-.03-.02a.1.1 0 0 0-.07-.07l-.03.01-.28.3-.03.02a.12.12 0 0 0-.1.07c0 .01 0 .02-.02.03h-.05c-.02 0-.03 0-.03-.02v-.06l-.1-.03c-.02 0-.03-.02-.03-.04s0-.04.03-.05l.08.01.02.03c0 .04.03.06.08.06.02 0 .03 0 .03-.02 0-.03 0-.05-.03-.06a.33.33 0 0 0-.06-.02.03.03 0 0 1-.02-.03.1.1 0 0 1 0-.05l.02-.02c.1-.03.2-.08.3-.14a.7.7 0 0 1 .36-.1c.02 0 .03.02.03.04v.15c0 .01 0 .02.02.02.1.01.17.02.24.01l.06-.01a.08.08 0 0 0 .01-.05c0-.02 0-.03-.02-.03l-.17-.03a.04.04 0 0 1-.03-.03.2.2 0 0 1-.01-.09c0-.01 0-.02.02-.03C8.8 4 9 4 9.3 4.01Z" fill="#787BD8"/><path d="M9.06 4.15c0 .03.03.05.06.06l.02.01c.02 0 .02.01.02.03 0 .03.02.05.05.06l.03.02.16.15v.02l-.02.02h-.02l-.15-.12a.1.1 0 0 1-.02-.02.16.16 0 0 0-.1-.07.06.06 0 0 1-.02-.02l-.02-.04a.1.1 0 0 0-.07-.06c-.02 0-.02 0-.03-.02v-.01c-.02-.01-.01-.02 0-.03a.1.1 0 0 1 .08 0c.02 0 .02.01.03.02ZM8.41 4.43a.1.1 0 0 0-.05 0c-.03-.02-.07-.02-.1.01a.67.67 0 0 0-.16.18l-.03.02-.04.01L8 4.7v.03c-.02.15 0 .23.08.24l.03.03.02.12c0 .05.02.1.03.12l.06.22.07.14.06.1.06.12c.04.04.06.07.06.09l.17.38c.03.05.05.1.05.16.01.08.03.15.07.21a.81.81 0 0 1 .08.31l.03.03h.02c.02 0 .04 0 .04-.03l-.03-.39c.02-.1.03-.27.03-.5v-.21c0-.02.01-.05.05-.07.03 0 .05.01.05.04 0 .37 0 .68.03.93 0 .1.03.18.06.22.19.22.28.4.3.55v.03c.05.07.08.14.09.21V8c0 .03-.02.04-.04.04-.05 0-.07.02-.08.06v.1c-.01.06-.03.07-.05.01l-.03-.07a.64.64 0 0 0-.1-.19.32.32 0 0 0-.21-.1l-.03-.01-.05-.1a1.12 1.12 0 0 0-.07-.17.37.37 0 0 1-.04-.13v-.06c-.01-.05-.04-.07-.1-.06l-.16.01s-.02 0-.02.02v.02l.1.11.1.11c.04.05.07.1.08.17.01.08.03.14.06.2l.03.06c0 .02 0 .02-.02.03h-.04a7.28 7.28 0 0 0 0 .26c0 .05.02.12.05.22l.05.2c0 .03.02.06.05.1h.03c.01 0 .02 0 .02-.02v-.76c0-.03.01-.05.05-.04l.05.05a100.13 100.13 0 0 0 .02.14c0 .19.02.32.06.4.08.05.12.1.14.16a.86.86 0 0 1 .04.23.49.49 0 0 0 .08.21.3.3 0 0 1 .03.11v.11c0 .02-.02.03-.04.03-.03 0-.04-.01-.05-.03l-.01-.04a.5.5 0 0 0-.06-.14.56.56 0 0 1-.07-.3.7.7 0 0 0-.02-.17c-.04-.11-.06-.11-.08 0-.02.1-.02.24-.02.43l-.01.03a.04.04 0 0 1-.04 0H9.1c-.02 0-.03-.01-.03-.03l-.03-.24v-.02c-.04-.05-.06-.06-.07-.01a.43.43 0 0 0-.03.18c0 .02 0 .03-.03.02l-.03-.02c-.02-.02-.04-.04-.04-.06v-.09c0-.14-.02-.24-.04-.3a.25.25 0 0 0-.04-.06.21.21 0 0 1-.05-.1 2.74 2.74 0 0 1-.01-.7.27.27 0 0 0-.03-.1c0-.02-.02-.03-.02-.03-.03 0-.04 0-.04.03v.66c0 .02-.02.03-.04.02-.04-.02-.07 0-.1.02l-.02.08H8.4l-.1-.15c-.01-.03-.03-.03-.04 0a.34.34 0 0 0 0 .18c0 .01 0 .02.02.03l.2.1.14.13v.01l.07.11v.03h-.03a.11.11 0 0 1-.05-.02.74.74 0 0 0-.1-.09c-.03 0-.04 0-.04.02l.02.04c.03.04.07.08.13.12a.6.6 0 0 1 .07.1l.09.09v.02l-.02.02h-.02l-.04-.01A1.05 1.05 0 0 0 8.48 9a.54.54 0 0 0-.33-.08l-.02.02v.02a.2.2 0 0 0 .11.1c.02 0 .02.03-.01.06-.02.02-.04.02-.06 0l-.35-.31H7.8l-.02.01c0 .03 0 .05.03.07l.3.27c.07.06.12.17.15.34 0 .02.03.05.06.09h.01l.06.05c.05.03.08.07.08.1a.73.73 0 0 1 0 .27h-.01l-.01.02c0 .04.01.07.04.1v.67c0 .03-.01.05-.05.05l-2.92.02h-.06v-.02h.08l.03-.02a.5.5 0 0 1 .19-.09c.06 0 .16-.05.3-.11l.14-.06c.05-.02.13-.05.23-.11.12-.07.22-.11.28-.13a.86.86 0 0 0 .24-.12l.13-.08a.46.46 0 0 0 .15-.12c.1-.13.13-.28.09-.45.1 0 .09-.05 0-.15a.05.05 0 0 1-.02-.04.3.3 0 0 0-.06-.14.31.31 0 0 1-.06-.11 1.2 1.2 0 0 1 .01-.49c0-.02.02-.03.04-.03.04 0 .07.01.07.07l.01.38c0 .06.03.1.08.1l.03.03c.01.03.04.06.06.07.03.01.05.03.05.06v.27c0 .08.04.15.1.22a1.62 1.62 0 0 0 .2.19h.03l.01-.02v-.03c0-.01 0-.02-.02-.03l-.06-.06-.01-.02a.36.36 0 0 0-.08-.16.24.24 0 0 1-.05-.15v-.14c.02-.05.04-.06.09-.02.1.1.16.22.16.37 0 .01 0 .02.02.03h.04c.02 0 .04-.02.05-.06a.3.3 0 0 0 0-.15.6.6 0 0 0-.07-.13 1.65 1.65 0 0 0-.33-.4h-.03l-.01.02c-.01.06-.04.1-.1.1h-.04a3.88 3.88 0 0 0-.02-.07c-.01-.22-.01-.36.01-.45l.03-.02a.4.4 0 0 1 .12 0c.03 0 .07.02.1.05l.1.05.08.04.09.06c.03.02.05 0 .06-.03v-.05c0-.03-.02-.06-.05-.08-.04-.03-.06-.07-.07-.13 0-.02 0-.03-.02-.03l-.06-.01-.02-.02c0-.07-.01-.11-.02-.13 0-.03-.02-.05-.06-.05l-.03.02-.01.12c0 .06.02.09.07.08l.03.02v.06c-.02.02-.04.02-.06.02a.06.06 0 0 1-.05-.04c0-.03-.03-.05-.07-.06a.49.49 0 0 0-.1-.01H7.4a.05.05 0 0 1-.03-.03V8.4c.02-.05.02-.09 0-.11.04-.01.04-.03.02-.06.03.04.06.05.08.04.02 0 .04-.02.05-.05.04-.07.11-.08.21-.05l.03.03c.01.03.04.06.09.09.01 0 .02.01.02.03l.01.13c0 .02.01.03.03.03h.05c.04-.06.06-.12.03-.19a.04.04 0 0 0-.02-.02 1.3 1.3 0 0 0-.06-.03l-.02-.02v-.02l.01-.03a.3.3 0 0 0 .13-.05l.15.09.02-.01a.39.39 0 0 0-.07-.25 1.55 1.55 0 0 0-.07-.22c-.05-.12-.07-.2-.06-.23.02-.07.04-.07.08 0l.05.14c.02.05.06.1.13.17l.04.04c.02.02.03.04.03.07l.03.27.04.08.02.01c.02 0 .03 0 .03-.02v-.32c0-.05-.04-.1-.1-.17a169.8 169.8 0 0 0-.34-.52c-.03-.05-.09-.07-.16-.08H7.8a8.3 8.3 0 0 0-.08-.6c0-.02 0-.03-.04-.05a.04.04 0 0 1-.02-.02v-.03c-.01-.08-.04-.13-.08-.13-.03 0-.04-.01-.04-.04v-.86c0-.08 0-.14.02-.17.05-.06.08-.12.1-.17l.03-.03A.25.25 0 0 0 7.78 5l.03-.03c.04-.02.06-.07.07-.15 0-.09 0-.15-.02-.19.01.02.02-.01.02-.08l.01.06c0 .01.01.02.03.02h.05L8 4.6a.12.12 0 0 1 .09-.07l.03-.02.28-.3a.04.04 0 0 1 .03 0 .1.1 0 0 1 .07.05c0 .02.01.02.03.03h.02c0 .02 0 .03-.02.03h-.07c-.03-.02-.06-.02-.09 0-.02.02-.03.04-.03.07 0 .02 0 .03.02.03h.05Z" fill="#35215F"/><path d="m9.89 4.43-.04.15c0 .02 0 .03-.02.03-.06.02-.09.07-.09.14 0 .04.02.08.07.12l.23.18.07.08.05.05c.02.02.04.03.06.02.01 0 .02 0 .02-.02 0-.08 0-.17-.02-.26 0-.04-.02-.07-.07-.09a.04.04 0 0 1-.02-.02.2.2 0 0 1 0-.08c0-.05-.03-.1-.08-.11a.1.1 0 0 1-.04-.03.04.04 0 0 1-.02-.04l.02-.11h.27l.03.02.07.12v.03a.17.17 0 0 0-.04.12h-.02l-.07.01-.02.05c0 .02.02.03.04.04.05 0 .07.03.07.07 0 .15.01.26.03.32 0 .02 0 .03.02.04a.5.5 0 0 1 .09.15l.06.12c.02.02.04.05.05.1l.07.11.1.1a.15.15 0 0 0 0 .11l.03.11c0 .18-.02.36-.08.53l-.02-.63-.03-.03a.2.2 0 0 1-.12-.12h-.02c-.02-.01-.03 0-.03.01v.03l.01.03c.04.07.07.13.07.17.02.14.03.31.02.5 0 .1-.03.19-.08.25a.22.22 0 0 0-.05.1v.38l-.1-.34c0-.02 0-.02-.02-.03l-.13-.02c-.02 0-.02-.01-.02-.03l.01-.16.1-.06a.08.08 0 0 0 .05-.07v-.55L10.34 6a.33.33 0 0 1-.08-.14 1.87 1.87 0 0 0-.14-.28.38.38 0 0 0-.1-.11.37.37 0 0 1-.16-.37l-.01-.03h-.03.03c.02-.01.03-.02.03-.04L9.87 5a.45.45 0 0 1-.14-.12c0-.02-.03-.03-.06-.04-.01 0-.02-.01-.02-.03l.01-.25.05.02.04-.03a.49.49 0 0 0 .12-.24c-.01.06 0 .1.02.13Z" fill="#9F4A8E"/><path d="M7.86 4.63c.02.04.03.1.02.2-.01.07-.03.12-.07.14a.07.07 0 0 0-.03.03.25.25 0 0 1-.1.09.06.06 0 0 0-.02.02l-.1.17c-.02.03-.03.09-.03.17v.86c0 .03.02.04.05.04.04 0 .07.05.08.13v.03c0 .01 0 .02.02.02l.05.05a8.3 8.3 0 0 1 .07.6h.05c.08 0 .14.03.16.08a165.69 165.69 0 0 1 .34.52c.07.06.1.12.1.17l.01.32c0 .02 0 .03-.03.02l-.02-.01a.23.23 0 0 1-.04-.08l-.03-.27a.11.11 0 0 0-.03-.07l-.04-.04a.53.53 0 0 1-.13-.17 2.19 2.19 0 0 0-.06-.14c-.03-.07-.05-.07-.07 0 0 .04.01.11.06.23l.03.08-.01.04c0 .02-.01.03-.03.03-.02 0-.03 0-.05-.02-.08-.03-.11-.08-.11-.17a.8.8 0 0 0-.03-.22.05.05 0 0 0-.02-.03.23.23 0 0 1-.1-.17l-.01-.04a.38.38 0 0 1-.1-.2.7.7 0 0 0-.06-.19.96.96 0 0 1-.06-.13.05.05 0 0 0-.02-.03l-.05-.03a.07.07 0 0 1-.03-.03.26.26 0 0 0-.1-.1.04.04 0 0 1-.01-.02l-.01-.2v-.89c0-.11.04-.17.13-.18l.03-.01c.05-.05.09-.1.1-.13l.02-.02A.25.25 0 0 0 7.66 5a.25.25 0 0 1 .07-.06l.02-.03a.53.53 0 0 0 .01-.24c0-.01 0-.02-.02-.02-.06-.02-.1-.05-.08-.12 0-.01 0-.02-.02-.02a.12.12 0 0 0-.1.06.13.13 0 0 1-.09.07l-.02.02-.03.12c0 .02-.02.04-.06.07a.23.23 0 0 0-.05.04l-.13.15a.08.08 0 0 1-.04.01c-.03.01-.05.03-.05.06-.03.16-.04.3-.04.44a155.07 155.07 0 0 1 .04 2.35c.01.03.03.04.05.03.02 0 .02-.02.02-.03a11.66 11.66 0 0 1 0-.93 1.03 1.03 0 0 1-.01-.3V6.6l-.01-1.06c0-.22.04-.34.13-.37.01 0 .02 0 .03-.02.01-.05.05-.1.1-.16a21.98 21.98 0 0 1 .22-.25c.03 0 .04 0 .05.02a.3.3 0 0 1 0 .17s-.01.02-.03.02a.4.4 0 0 0-.22.21l-.02.03a.4.4 0 0 0-.15.08c-.03.03-.04.07-.04.13v.01a69.22 69.22 0 0 0 .02 1.17h.06c.02 0 .04.03.04.07l.02.02c.06.01.08.04.08.08l-.02.03h-.05c-.02 0-.03-.02-.03-.04L7.3 6.7c0-.02-.01-.03-.02-.03-.03-.02-.05-.02-.07-.02-.02 0-.02.02-.02.03v.3c0 .01 0 .02.03.02h.15c.02 0 .03-.01.03-.02l.01-.09s0-.02.02-.02h.03s.02 0 .03.02c.04.06.05.12.06.19v.47c0 .09.02.16.06.2l.04.1.03.05c0 .02.01.02.03.03l.05.01c.06.01.1.03.12.06.02.04.05.06.1.06.04.03.06.05.06.07a.3.3 0 0 1-.13.05c-.01 0-.02.01-.02.03v.02l.03.02.06.03.02.02c.03.07.01.13-.03.18a.04.04 0 0 1-.05.01c-.02 0-.03-.01-.03-.03l-.01-.13c0-.02-.01-.03-.02-.03-.05-.03-.08-.06-.1-.09a.05.05 0 0 0-.02-.03c-.1-.03-.17-.02-.2.05l-.06.06c-.03 0-.05-.01-.08-.04a34.97 34.97 0 0 0 .24-.26l-.2-.14a.1.1 0 0 1-.03-.08v-.63c0-.03-.02-.04-.05-.04h-.13c-.04 0-.05.01-.05.05v.66c0 .03.01.04.04.04s.05.02.06.06c0 .02 0 .03-.02.03-.05 0-.07.02-.08.06-.01.1.01.15.07.17l.03.03c.04.05.03.08-.04.09l-.02-.01a.06.06 0 0 1-.02-.03.22.22 0 0 0-.1-.08.06.06 0 0 1-.04-.03c-.02-.05-.05-.08-.08-.09-.02 0-.03-.01-.03-.03a.36.36 0 0 0-.11-.22.34.34 0 0 1-.1-.25c.01-.26 0-.5-.02-.74 0-.03.01-.06.05-.1l.03-.02h.09c.03-.01.05-.03.05-.06v-.02c0-.03-.02-.04-.05-.04h-.1c-.03 0-.05-.02-.05-.06v-.97c0-.02 0-.03.02-.04l.07-.07.03-.02c.03-.01.05-.04.05-.08v-.36a.44.44 0 0 0-.03-.12l-.01-.03v-.05a.06.06 0 0 1 .05-.03c.02 0 .03.01.04.03l.08.18.03.02c.04 0 .06 0 .09-.02l.02-.04v-.13l.02-.01h.02v.01l.03.05h.03a.24.24 0 0 0 .03-.09c.02-.06.04-.1.07-.1l.03-.03a.1.1 0 0 0 0-.06c0-.02 0-.03-.02-.03-.01 0-.03 0-.05.02a.1.1 0 0 0-.04.05.1.1 0 0 1-.08.06c-.01 0-.02 0-.03-.02 0-.02 0-.04.02-.06l.14-.12a.05.05 0 0 1 .04-.01c.02 0 .03 0 .04.02v.04c0 .02.01.03.03.03h.05l.02-.02c0-.06 0-.1.02-.15l.03-.03a.44.44 0 0 1 .17-.02l.03.02a1.58 1.58 0 0 0 0 .07c-.01.02-.02.04-.04.04h-.05c-.02.02-.04.04-.04.06 0 .01.01.02.03.02.05-.01.09.02.1.08l.02.02.06.01Z" fill="#787BD8"/><path d="M8.36 4.44v.05l-.02.03a.2.2 0 0 0-.1.09c-.01.01 0 .02.01.02.07.01.12-.02.13-.08 0-.01.01-.02.03-.02h.04c.01 0 .02 0 .03.02a.1.1 0 0 1 0 .05.16.16 0 0 1-.1.05l-.02.03v.14s0 .02.02.02c.02.01.05.02.08.01.01 0 .02 0 .02.02 0 .03-.02.06-.05.09l-.02.01a.06.06 0 0 0-.02.03.5.5 0 0 0-.03.19l.01.36c0 .03.02.05.05.06h.01c.03 0 .04 0 .04-.03v-.36c0-.03.01-.05.05-.06.05-.01.07 0 .08.04v.27c0 .05.02.05.06.02l.13-.14c.03-.03.02-.05-.02-.05l-.04-.02a.04.04 0 0 1-.01-.03c0-.06-.02-.1-.04-.16a.03.03 0 0 0-.03-.02l-.12-.01c-.03-.01-.05-.03-.04-.06l.03-.03c.05-.02.08-.05.08-.1 0-.01-.01-.02-.03-.02h-.04c-.02 0-.04 0-.05-.02a.05.05 0 0 1-.01-.06c.02-.04.04-.05.08-.03.03.02.04.05.05.09l.02.02c.1.06.18.12.24.19.01.02.03.02.04 0 .12-.1.24-.2.35-.32.03-.02.04-.05.03-.08h.1s.02 0 .03-.02a.1.1 0 0 0 .01-.04l.02-.03a.32.32 0 0 1 .11-.1h.06c.02.02.03.04.02.07-.04-.02-.08 0-.1.03a.8.8 0 0 1-.07.08.14.14 0 0 0-.05.12v.28c-.1.01-.13.1-.12.25a2.65 2.65 0 0 1 0-.16l-.01-.01-.03.01a5.65 5.65 0 0 1-.2.4l-.11.22c-.07.07-.1.14-.1.2l-.01.42c0 .1.03.17.08.22l.02.4c0 .02 0 .03-.03.03L8.88 7a6.8 6.8 0 0 0-.03-.07.81.81 0 0 0-.08-.27.54.54 0 0 1-.07-.2.4.4 0 0 0-.05-.17 2.5 2.5 0 0 1-.17-.38.38.38 0 0 0-.06-.09.49.49 0 0 1-.06-.11.47.47 0 0 0-.06-.11.33.33 0 0 1-.07-.14 1.16 1.16 0 0 0-.06-.22.39.39 0 0 1-.03-.12L8.12 5a.04.04 0 0 0-.03-.03c-.08 0-.1-.09-.08-.24V4.7c0-.02 0-.04.02-.05l.04-.01.02-.02c.04-.07.1-.13.16-.18.04-.03.08-.03.11 0Z" fill="#317EBC"/><path d="M10 4.44v.15a.1.1 0 0 0 .05.03c.05.02.08.06.07.11a.2.2 0 0 0 0 .08l.03.02c.05.02.07.05.07.09l.02.26c0 .01 0 .02-.02.02s-.04 0-.06-.02a.26.26 0 0 1-.05-.06.27.27 0 0 0-.07-.07 2.36 2.36 0 0 1-.23-.18c-.05-.04-.07-.08-.07-.12 0-.07.03-.12.09-.14.01 0 .02-.01.02-.03l.04-.15H10Z" fill="#F0A199"/><path d="m9.63 4.52.03.03-.01.25c0 .02 0 .03.02.03.03 0 .05.02.06.03.04.05.08.1.13.13.02.01.03.03.02.04 0 .02-.01.03-.03.03h-.08l-.04-.07-.02-.02c-.06-.02-.09-.05-.08-.1 0-.01 0-.02-.02-.01a.12.12 0 0 0-.05.04v.03l.1.08c.01 0 .02.01.01.02l-.01.01-.09.02a.04.04 0 0 0-.03.03.5.5 0 0 0-.02.26v.63l.02.03.07.05.02.04v.24c0 .02 0 .02-.02.01-.04-.01-.06-.05-.06-.1 0-.1-.03-.19-.08-.24-.03-.03-.04-.07-.04-.13a19.96 19.96 0 0 0-.02-1.13c0-.05.01-.08.05-.12a.8.8 0 0 0 .07-.08c.02-.04.06-.05.1-.03Z" fill="#F0A199"/><path d="M7.3 6.3c.01.12 0 .22-.03.28H7.2c-.01 0-.02 0-.02-.02V5.4c0-.07.01-.11.04-.14a.4.4 0 0 1 .15-.08l.02-.03a.4.4 0 0 1 .22-.2l.03-.03a.3.3 0 0 0 0-.17l-.04-.03a22.03 22.03 0 0 0-.36.44c-.09.03-.13.15-.13.37a731.09 731.09 0 0 0 .03 1.44v.11a11.64 11.64 0 0 0-.03.85c-.02.01-.04 0-.05-.03a155.05 155.05 0 0 0-.04-2.35c0-.14.01-.29.04-.44 0-.03.02-.05.05-.06.02 0 .03 0 .04-.02l.13-.14a.23.23 0 0 1 .05-.04c.04-.03.05-.05.06-.07l.03-.12.02-.02c.04 0 .07-.03.1-.07a.12.12 0 0 1 .09-.06c.01 0 .02 0 .02.02-.01.07.02.1.08.12l.02.02c.02.08.02.16 0 .24l-.03.03a.25.25 0 0 0-.07.06.25.25 0 0 1-.07.07.05.05 0 0 0-.03.02.46.46 0 0 1-.1.13l-.03.01c-.1 0-.14.07-.14.18l.01.88Z" fill="#2E122B"/><path d="m8.53 4.53.05.06c.01.03.04.05.06.06.02 0 .03.02.04.03l.18.16c.02.02.04.02.06 0l.16-.17.04-.02c.05-.01.1-.02.16 0 0 .02 0 .05-.03.07l-.35.32c-.01.02-.03.02-.04 0a.73.73 0 0 0-.24-.19.04.04 0 0 1-.02-.02c0-.04-.02-.07-.05-.09-.04-.02-.06 0-.08.03l.01.06.05.02h.04c.02 0 .03 0 .03.02 0 .05-.03.08-.08.1a.04.04 0 0 0-.03.03c0 .03 0 .05.04.06l.12.01.03.02.04.16.01.03.04.02c.04 0 .05.02.02.05l-.13.14c-.04.03-.05.03-.06-.02V5.2c0-.04-.03-.05-.07-.04h-.01c-.04 0-.05.03-.05.06v.36c0 .03-.01.04-.04.03-.04 0-.06-.03-.06-.06l-.01-.36c0-.06 0-.12.03-.19 0-.01 0-.02.02-.03l.02-.01c.03-.03.05-.06.05-.09 0-.01 0-.02-.02-.02h-.08l-.02-.03v-.14l.03-.03c.04 0 .07-.02.1-.05-.01-.04 0-.06.04-.07Z" fill="#35215F"/><path d="M8.82 4.64c-.02-.01-.05-.02-.08 0-.02 0-.03-.01-.03-.02v-.03c0-.02.02-.04.04-.04.03-.01.05 0 .06.02a.2.2 0 0 0 .08.07l.04.03.02.05c0 .02-.02.03-.04.03l-.06-.01c-.02-.02-.02-.04-.02-.07l-.01-.03Z" fill="#35215F"/><path d="M9.99 4.75c0 .03 0 .06.02.08l.07.06c.02.01.02.03 0 .05 0 .01-.02.02-.03 0l-.15-.13V4.8l-.02-.15c0-.02 0-.02.02-.02.06 0 .1.04.09.12Z" fill="#9F4A8E"/><path d="M10.34 4.73v.06c0 .03.03.05.06.05s.05.02.05.04l.02.13c0 .12.02.21.06.27l.07.17c0 .02.03.04.06.06h.02l.01-.02c0-.1-.03-.17-.09-.24a.06.06 0 0 1-.02-.03V4.9c0-.04.03-.06.09-.06a.3.3 0 0 0 .1.16v.02c-.06.03-.08.1-.06.2 0 .01 0 .02.02.03l.05.04.02.03.02.2a.2.2 0 0 1-.03.1v.09c.02.04.01.08 0 .1l-.03.01a1.75 1.75 0 0 1-.1-.1.37.37 0 0 1-.07-.1.37.37 0 0 0-.05-.1.5.5 0 0 1-.06-.12.5.5 0 0 0-.1-.15l-.01-.04a1.7 1.7 0 0 1-.03-.32c0-.04-.02-.07-.07-.07-.02 0-.03-.02-.04-.04 0-.02 0-.03.02-.05.03-.02.06-.02.07 0h.01v-.01Z" fill="#F0A199"/><path d="M10.67 4.85c-.06 0-.08.02-.09.06v.3l.02.04c.06.07.1.15.1.24l-.02.02h-.02c-.03-.02-.05-.04-.06-.07a.86.86 0 0 0-.07-.16.63.63 0 0 1-.06-.27l-.02-.13c0-.02-.02-.04-.04-.04-.04 0-.06-.02-.06-.05.12-.04.2-.03.23.03l.02.03h.07Z" fill="#9F4A8E"/><path d="M9.82 5.07h.03l.01.03c-.02.16.03.28.15.37.05.03.1.07.11.11l.14.28c.01.05.04.1.08.13l.01.03v.55c0 .03-.01.05-.04.07l-.1.06a.5.5 0 0 1-.13-.22v-.13l.03-.12c0-.07-.01-.12-.05-.18a.63.63 0 0 1-.05-.15.71.71 0 0 0-.07-.18 8.2 8.2 0 0 0-.2-.33.73.73 0 0 0-.13-.2.04.04 0 0 0-.05 0c-.02 0-.03 0-.03.03l-.01.13a.5.5 0 0 1 .02-.26l.03-.03.09-.02.01-.01V5l-.1-.08c-.01 0-.02-.02 0-.03 0-.02.02-.03.04-.04l.02.01c0 .05.02.08.08.1 0 0 .02 0 .02.02l.04.06.03.02h.02Z" fill="#317EBC"/><path d="M9.4 5.03c.02.28.03.57.03.85 0 .06.01.1.04.13.05.05.08.13.08.24 0 .05.02.09.06.1h.02V6.1c0-.01 0-.03-.02-.04l-.07-.05a.04.04 0 0 1-.01-.03l-.01-.63.01-.13c0-.02.01-.03.03-.04l.05.01c.04.04.08.1.13.2l.06.12.14.2.07.19.05.15c.04.06.05.11.05.18a1 1 0 0 1-.02.12.27.27 0 0 0 0 .13.5.5 0 0 0 .11.22l-.01.16c0 .02 0 .03.02.03l.13.02c.02 0 .03.01.03.03l.09.34c.04.27-.02.51-.2.72a.28.28 0 0 0-.04.12v.02l-.05.1a.51.51 0 0 0-.05.14v-.06l-.02-.02h-.03l-.02.04-.03.1c-.03.18-.07.31-.12.4v.04l.06.06v.02a.83.83 0 0 0-.1.44c-.02.04-.05.05-.07.05a15.3 15.3 0 0 0-.11-.93c0-.05 0-.1.04-.17a.58.58 0 0 0 .03-.2v-.43a.45.45 0 0 0-.04-.12 1 1 0 0 0-.1-.23.6.6 0 0 1-.08-.25l-.01-.3c.01-.06 0-.15-.06-.28v-.02a.85.85 0 0 1-.05-.2l-.01-.08a.48.48 0 0 0-.05-.13.42.42 0 0 1-.06-.16c0-.23 0-.4-.02-.49l.02-.18c0-.15.03-.24.12-.25Z" fill="#3A3B6F"/><path d="M7.71 6.14H7.7l-.02-.02a4.52 4.52 0 0 1-.01-.43l.06-.01c.02 0 .03 0 .03-.02v-.03a.18.18 0 0 0-.07 0l-.02-.03c-.02-.13-.02-.22 0-.26a.66.66 0 0 1 .2-.2l.02-.03.03-.04c.01-.02.03-.02.04-.02.02 0 .03.01.03.03l.02.18c0 .02 0 .03-.02.03l-.04-.01H7.9l-.01.02a290.42 290.42 0 0 1 0 1.12l.03.03c.04 0 .06.04.07.11L8 6.6a4.14 4.14 0 0 1 .22.24v.03h-.06a.55.55 0 0 0-.23-.2.04.04 0 0 1-.02-.02l-.02-.16c0-.02 0-.03-.03-.03a.11.11 0 0 1-.09-.06.34.34 0 0 0-.1-.1l-.01-.03c0-.02.01-.02.03-.02h.04c.02 0 .03-.02.03-.03l-.01-.06a.04.04 0 0 0-.04-.02Z" fill="#787BD8"/><path d="M9.65 5.14c.02.04.05.06.07.05.03 0 .04-.04.03-.07-.01-.04-.04-.06-.07-.06-.02 0-.04.04-.03.08ZM9.3 5.28l-.03.18-.1.18a.63.63 0 0 0-.02.26c0 .01-.01.02-.03.02h-.04l-.02-.01-.01-.1a.05.05 0 0 0-.02-.02h-.04c-.04.03-.06.06-.06.08v.22c.01.22 0 .39-.02.5-.05-.06-.08-.13-.08-.23v-.41c0-.07.04-.14.1-.21l.12-.22a5.33 5.33 0 0 1 .24-.4v.16Z" fill="#CCAB7D"/><path d="m6.58 6.81.02.08V7c0 .04 0 .12.02.22l.01.15c.01.25.02.48.01.68 0 .11.05.19.15.24.03.01.05.04.04.07-.02.11.01.2.09.29 0 0 .02.03.02.07l-.01.03h-.04a1.74 1.74 0 0 1-.12-.19.38.38 0 0 1-.04-.13.5.5 0 0 0-.02-.1.06.06 0 0 0-.02-.03c-.08-.06-.13-.12-.14-.19l.02-.17a.98.98 0 0 0 .02-.26c0-.1-.02-.17-.05-.18v-.04l.02-.02.02-.03a.35.35 0 0 0-.05-.24c-.04-.06-.02-.1.03-.15l.02-.03c0-.05-.01-.09-.06-.12a.04.04 0 0 1-.02-.03V6.7c0-.01.01-.02.03-.02h.01c.02 0 .03-.01.04-.03a.12.12 0 0 0 0-.1l-.04-.02c-.03 0-.04-.01-.05-.04a9.37 9.37 0 0 1 .04-1.06l.08-.11a.1.1 0 0 1 .02-.03.25.25 0 0 0 .1-.1c.02-.03.03-.03.03 0 0 .09 0 .17-.02.24l-.02.03c-.05.02-.08.06-.08.1l.01 1.12c0 .03-.02.06-.05.09a.05.05 0 0 0-.02.03Z" fill="#5F619A"/><path d="M8.17 6.24c.02.01.04 0 .05-.02l-.01-.05a.5.5 0 0 1-.1-.36c0-.03-.02-.06-.04-.1A.46.46 0 0 1 8 5.4c0-.02.01-.03.03-.04l.04.01.03.04c.07.12.12.24.14.37 0 .06.02.1.04.12.04.06.07.11.07.17 0 .13.01.31 0 .56 0 .06.04.13.1.2l-.01.04h-.01c-.01.02-.02.02-.03 0l-.14-.15a.1.1 0 0 1-.02-.03.51.51 0 0 0-.2-.26.06.06 0 0 1-.01-.03.44.44 0 0 1-.02-.25c0-.02.02-.02.03-.03l.05.01.02.04.05.06Z" fill="#787BD8"/><path d="M7.45 5.4h-.01c-.02 0-.03 0-.03.02v1c0 .02.02.03.03.03h.02c.02 0 .03-.01.03-.03v-1c0-.02-.02-.03-.04-.03Z" fill="#2E122B"/><path d="m9.27 5.46.02.49c0 .04.02.1.06.16a.48.48 0 0 1 .06.2.85.85 0 0 0 .05.23c.05.13.07.22.06.29-.03-.05-.06-.07-.09-.06-.05.02-.06.05-.04.1l.01.03c0 .07 0 .18.02.34 0 .07.02.14.05.19a315.36 315.36 0 0 1 .18.35c.01.22 0 .4-.04.52l-.02.03c-.04.04-.06.1-.06.2v.06l-.02-.06a.03.03 0 0 0-.03-.03.4.4 0 0 1-.23-.16c-.03-.04-.04-.03-.04 0 0 .09 0 .17.02.26-.04-.08-.06-.21-.06-.4a98.2 98.2 0 0 1-.02-.14l-.05-.05c-.04 0-.05 0-.05.04v.76l-.02.02H9c-.03-.04-.05-.07-.05-.1l-.05-.2c-.03-.1-.05-.17-.05-.22a7.28 7.28 0 0 1 0-.25l.04-.01c.02 0 .02-.01.02-.03a.12.12 0 0 0-.03-.06l.09.07h.02a.1.1 0 0 0 0-.08.67.67 0 0 1-.06-.2l.05.09c0 .01.01.02.03.02.1 0 .16.04.21.1.03.03.06.09.1.18l.02.07c.03.06.05.05.06-.01v-.1c0-.04.03-.06.08-.06.02 0 .03-.01.04-.04a.93.93 0 0 0 0-.22.53.53 0 0 0-.09-.2.07.07 0 0 1 0-.04c-.02-.15-.11-.33-.3-.55-.03-.04-.05-.12-.06-.22a9.33 9.33 0 0 1-.03-.93c0-.03-.02-.04-.05-.04 0-.02.02-.02.04-.01l.02.02.02.1c0 .01 0 .02.01.01h.05c.01 0 .02 0 .02-.02 0-.14 0-.22.02-.26l.1-.18Z" fill="#5F619A"/><path d="M6.89 5.47h-.01c-.02 0-.04.02-.04.04v.91c0 .02.02.04.04.04.03 0 .05-.02.05-.04v-.91c0-.02-.02-.04-.04-.04Z" fill="#2E122B"/><path d="M10.78 5.82c.02-.02.03-.06.02-.1a.72.72 0 0 1-.02-.06v-.04a.2.2 0 0 0 .04-.1c.1.1.13.22.1.37-.02.06-.05.06-.08 0a.53.53 0 0 0-.06-.07Z" fill="#317EBC"/><path d="m9.86 7.43.04-.12.05-.11a.87.87 0 0 0 .06-.36v-.05c0-.04 0-.06-.03-.08l-.07-.06a.35.35 0 0 1-.13-.27l-.02-.53c-.08-.07-.12-.13-.12-.18 0-.1.03-.1.08-.01l.1.18a12.1 12.1 0 0 1 .06.6c0 .05.04.11.11.19.06.06.1.11.1.15.02.07.03.16.03.26s-.02.18-.04.23a.91.91 0 0 0-.06.2c-.01.17-.03.31-.05.42-.01.03-.02.05-.05.05-.02 0-.03-.01-.03-.03l-.03-.48Z" fill="#CCAB7D"/><path d="m10.71 6.6-.02.1a10.65 10.65 0 0 0-.04.72c0 .07 0 .13-.03.19a.84.84 0 0 0-.07.38l.06.49c.04.26-.04.44-.23.54-.01-.03 0-.06.04-.1.03-.03.04-.05.04-.08v-.77c0-.07-.02-.07-.07-.02l-.02.02a.06.06 0 0 0-.02.03 1 1 0 0 1-.08.25.36.36 0 0 0-.04.18c0 .08 0 .2-.03.34 0 .04-.02.06-.04.09-.04.05-.06.13-.05.25v.03c-.01.02-.03.02-.05.01l-.03-.02A.04.04 0 0 1 10 9.2v-.22l.03-.04c.03-.05.05-.1.05-.14l.03-.42c0-.03.02-.08.05-.13a.57.57 0 0 0 .04-.1v-.03a.28.28 0 0 1 .05-.12.87.87 0 0 0 .2-.72v-.37c0-.04.02-.07.05-.11a.44.44 0 0 0 .08-.25c0-.19 0-.36-.02-.5 0-.05-.03-.1-.07-.17v-.03l-.01-.03c0-.02 0-.02.02-.02h.01l.02.01c.02.06.07.1.12.12.02 0 .03.02.03.03l.02.63Z" fill="#F0A199"/><path d="M9.87 7.43a.53.53 0 0 1-.13-.2c0-.02 0-.03.02-.03h.04c.02 0 .03 0 .04-.02v-.04a.08.08 0 0 1-.02-.05s0-.02-.02-.02l-.11-.1a.04.04 0 0 1-.02-.03c0-.01 0-.02.02-.03a.15.15 0 0 0 .06-.07c0-.02 0-.03-.02-.04a.23.23 0 0 1-.07-.14.95.95 0 0 1 0-.23l.01-.03a.1.1 0 0 1 .03 0c.03-.01.04-.02.04-.04l.02-.5.02.52c0 .11.05.2.13.27l.07.06c.02.02.03.04.03.08v.04c0 .18-.02.3-.06.37a.65.65 0 0 0-.08.23Z" fill="#317EBC"/><path d="M8.01 7.86c0 .08-.01.14-.04.2A.13.13 0 0 1 7.88 8c-.02-.03-.06-.05-.12-.06l-.05-.01a.05.05 0 0 1-.03-.03.38.38 0 0 1-.03-.05.37.37 0 0 0-.04-.1.34.34 0 0 1-.06-.2v-.47a.32.32 0 0 0-.06-.19.06.06 0 0 0-.03-.02h-.03l-.02.02v.09l-.04.01h-.15c-.02 0-.03 0-.03-.02v-.3l.02-.02c.02 0 .04 0 .07.02.01 0 .02.01.02.03v.04c.01.02.02.04.04.04h.05l.02-.03c0-.04-.02-.07-.08-.08 0 0-.02 0-.02-.02 0-.04-.02-.06-.04-.07a.48.48 0 0 0 .03-.28v.2c0 .02.01.03.03.04.04.02.07.05.1.09 0 .01 0 .02.02.03l.05.03c.01 0 .02.01.02.03l.06.13a.7.7 0 0 1 .07.2c0 .06.04.13.09.19l.02.03c0 .08.03.13.09.18l.02.03a.8.8 0 0 1 .03.22c0 .09.03.14.11.16ZM8.13 6.44c.03.02.06.02.08 0 .02-.01.02-.04 0-.06-.03-.02-.06-.03-.08 0-.02.01-.02.04 0 .06ZM7.54 6.63c.02.03.05.05.08.04.03 0 .04-.05.02-.08-.01-.03-.05-.05-.08-.04-.02.01-.03.05-.02.08Z" fill="#35215F"/><path d="M6.86 6.77h.04l.02.03v.85c0 .01 0 .02-.02.02l-.03-.01-.04-.06V6.8c0-.02 0-.03.03-.02Z" fill="#2E122B"/><path d="m9.52 6.83.01.3c0 .05.03.13.08.24a1 1 0 0 1 .1.23l.03.12c.01.1.02.24.01.42 0 .09-.01.16-.03.21a.4.4 0 0 0-.04.16 5.27 5.27 0 0 0 .06.6 15.16 15.16 0 0 1 .05.34c.02 0 .05-.01.07-.05a.12.12 0 0 1 .07-.04h.03l.01.02v.03c-.1.07-.19.16-.26.25l-.19.31-.02.04c-.04.08-.09.2-.13.37l-.04.13c-.04.11-.05.28-.05.52 0 .01 0 .02-.02.03l-.02.01h-.02l-.02-.01a2.46 2.46 0 0 1-.02-.52l.08-.22.03-.1c.01-.05.02-.09.04-.1.05-.09.1-.17.13-.25a.76.76 0 0 1 .09-.13c.07-.09.1-.16.1-.22 0-.14 0-.26-.02-.36a.5.5 0 0 0-.04-.13.5.5 0 0 1-.05-.13 2.81 2.81 0 0 1-.01-.36c0-.1.02-.18.06-.21l.02-.03c.04-.13.05-.3.04-.52a254.36 254.36 0 0 0-.18-.35.4.4 0 0 1-.05-.19 6.5 6.5 0 0 1-.03-.37c-.02-.05 0-.08.04-.1.04 0 .06.01.09.06Z" fill="#CCAB7D"/><path d="M7.91 6.84c0 .03.03.05.05.05.02 0 .03-.04.03-.07-.01-.03-.03-.05-.06-.05-.02 0-.03.04-.02.07Z" fill="#787BD8"/><path d="M7.4 8.24c.02.03.01.05-.03.06-.03-.01-.05.01-.05.06 0 .02 0 .03-.03.03h-.16l-.02.01-.02.2v-.17c0-.03-.03-.04-.07-.05h.04c.02 0 .02-.01.02-.02v-.03a.5.5 0 0 0 .19.04l.03-.01v-.04c0-.01 0-.02-.02-.02l-.04-.01c.07 0 .08-.04.04-.1a.06.06 0 0 0-.03-.02c-.06-.02-.08-.07-.07-.17 0-.04.03-.06.08-.06.02 0 .03-.01.02-.03-.01-.04-.03-.06-.06-.06s-.04-.01-.04-.04v-.66c0-.04.02-.06.05-.06h.13c.03 0 .05.02.05.04v.64c0 .03.01.06.04.08l.19.14v.04s0 .02-.02.02a34.5 34.5 0 0 1-.23.2Z" fill="#2E122B"/><path d="m10.3 7.19.02.01.02.22c0 .06-.01.09-.03.1h-.02c-.02 0-.04-.03-.06-.09a1.15 1.15 0 0 1-.05-.2l.01-.03.1-.01Z" fill="#317EBC"/><path d="M8.93 7.74c0 .07.03.14.06.2a.1.1 0 0 1 0 .09h-.02l-.1-.07a.6.6 0 0 1-.05-.2.26.26 0 0 0-.09-.17.85.85 0 0 1-.1-.1 1.15 1.15 0 0 0-.09-.12v-.02l.02-.02.17-.01c.05 0 .07.01.08.06v.06l.05.13.07.17Z" fill="#787BD8"/><path d="M9.3 7.73a.1.1 0 0 0-.03-.07l-.14-.15a.33.33 0 0 1-.07-.1c0-.13.02-.13.09-.02l.16.22c.07.07.1.18.1.35l-.03.01c-.02 0-.03-.02-.04-.04a.47.47 0 0 1-.04-.2Z" fill="#5F619A"/><path d="M9.23 8.6a1.36 1.36 0 0 1-.02-.25c0-.04.01-.05.04 0a.4.4 0 0 0 .23.15c.01 0 .02.01.02.03l.03.06v.3l.05.14c.03.05.05.1.05.13.02.1.02.23.02.36 0 .06-.03.13-.1.22a.76.76 0 0 0-.09.13 2.1 2.1 0 0 1-.13.24.36.36 0 0 0-.04.12c0 .04-.02.07-.03.1l-.08.2a2.46 2.46 0 0 0 .04.54h.04l.02-.04a1.77 1.77 0 0 1 .09-.65 1.81 1.81 0 0 1 .15-.4c.09-.16.15-.26.2-.32.06-.1.14-.18.24-.25.01 0 .02-.02.01-.03l-.01-.02h-.03a.12.12 0 0 0-.07.04c0-.15.03-.3.1-.44v-.02l-.06-.06v-.04c.05-.09.09-.22.12-.4a4.01 4.01 0 0 1 .05-.14h.03s.02 0 .02.02v.07a8.9 8.9 0 0 0-.03.41c0 .04-.02.09-.05.14l-.02.04L10 9v.2c0 .02 0 .03.02.03l.03.02.06.02c-.03.1-.02.2.03.26l.2.27c.2.25.43.44.71.58a9.65 9.65 0 0 0 .84.35c.22 0 .43.04.62.13a2.8 2.8 0 0 0-2.14.02 2.6 2.6 0 0 0-.71.26.3.3 0 0 1-.13.03l-.18-.01a.23.23 0 0 0-.13.05c-.06.05-.12.06-.18.04v-.06s0-.02-.02-.02h-.09l-.1-.02v-.8l.04-.09v-.03a.49.49 0 0 1-.02-.34l.01-.02c.05-.04.08.03.08.2 0 .04.02.05.05.03h.02a.06.06 0 0 0 .03-.06v-.32c0-.01 0-.03-.02-.04a.2.2 0 0 1-.1-.1l-.01-.01H8.9l-.02-.01-.15-.15-.02-.03a.4.4 0 0 0-.2-.25l-.08-.02-.08-.1c-.03-.03-.05-.03-.07.01l-.05.03a.2.2 0 0 1-.1-.09v-.02l.01-.02c.14 0 .25.02.33.08.09.06.17.13.23.2.01.02.02.02.04.02h.02l.02-.01v-.03a.77.77 0 0 1-.09-.1.6.6 0 0 0-.07-.09 1.1 1.1 0 0 1-.13-.12l-.02-.04c0-.02.01-.03.04-.01l.1.08.05.02h.03v-.03l-.07-.1v-.02l-.14-.13a.4.4 0 0 0-.08-.06c-.07-.04-.06-.06.02-.06.04 0 .06-.04.05-.12.02-.03.05-.04.09-.02.02 0 .03 0 .03-.02V7.7c0-.02.02-.03.05-.03l.02.03.03.1v.1c-.02.22-.02.42 0 .6l.06.1.04.06c.02.06.03.16.04.3v.09l.04.07.03.01c.03 0 .04 0 .03-.02 0-.06 0-.12.03-.18.01-.05.03-.04.06 0v.03l.04.24c0 .02.01.03.03.03h.06l.01-.03c0-.19 0-.33.02-.43.02-.11.04-.11.08 0l.02.17c0 .14.02.24.07.3a.5.5 0 0 1 .06.14l.01.04c0 .02.02.03.05.03.02 0 .03-.01.04-.03v-.1a.3.3 0 0 0-.04-.14.49.49 0 0 1-.07-.2c-.01-.1-.02-.18-.04-.22a.41.41 0 0 0-.14-.16Z" fill="#317EBC"/><path d="M8.04 8.13c0-.02-.02-.04-.07-.07a.49.49 0 0 0 .04-.2l.05.03c.02 0 .03-.01.03-.02v-.05l.05.15c.05.08.07.16.07.24h-.02a.48.48 0 0 1-.15-.08Z" fill="#716948"/><path d="M7.32 8.04c.02.03.05.04.08.03.02-.02.03-.05.01-.08-.02-.03-.05-.04-.08-.03-.03.02-.03.05-.01.08Z" fill="#787BD8"/><path d="M10.38 9.02a.56.56 0 0 0-.05.1.3.3 0 0 1-.05.1c-.03.02-.08.03-.14.03h-.01l-.01.02-.06-.02h.05V9.2c0-.12.01-.2.06-.25a.18.18 0 0 0 .03-.09c.02-.15.04-.26.03-.34 0-.08.01-.14.04-.18a1 1 0 0 0 .09-.25l.01-.03a.35.35 0 0 0 .02-.02c.05-.05.07-.05.07.02v.77c0 .03-.01.05-.04.08-.04.04-.05.07-.04.1Z" fill="#9F4A8E"/><path d="M7.32 9.56a1.4 1.4 0 0 0-.16-.27.5.5 0 0 1-.08-.15.65.65 0 0 1 0-.18v-.04l.01-.32.02-.2.02-.01h.16c.02 0 .03-.01.03-.03 0-.05.02-.07.05-.06.03.02.03.06 0 .1v.05l.04.02h.06l.11.02c.04.01.06.03.07.06l.05.04c.02 0 .04 0 .05-.02v-.06l-.02-.02c-.05 0-.08-.02-.07-.09l.01-.1c0-.02.02-.03.03-.03.03 0 .06.02.06.05l.02.13s0 .02.02.02h.06l.02.03c.01.07.03.11.07.14.03.02.05.05.05.08v.05c0 .04-.03.04-.06.02a4.78 4.78 0 0 1-.17-.09.32.32 0 0 1-.1-.05.21.21 0 0 0-.1-.06.4.4 0 0 0-.12 0l-.03.03a1.52 1.52 0 0 0 0 .49l.01.03h.04c.06 0 .09-.04.1-.1l.01-.02h.03a1.65 1.65 0 0 1 .4.53.3.3 0 0 1 0 .15c-.01.04-.03.06-.05.07h-.04a.04.04 0 0 1-.02-.04.45.45 0 0 0-.16-.37c-.05-.04-.07-.03-.09.02v.14c0 .05.02.1.05.15.04.04.06.1.08.16l.01.02.06.05c.02.01.02.03.02.04v.03l-.01.03-.04-.01a1.62 1.62 0 0 1-.2-.19.38.38 0 0 1-.09-.22v-.27c0-.03-.02-.05-.05-.06a.13.13 0 0 1-.06-.07.04.04 0 0 0-.03-.02c-.05-.02-.08-.05-.08-.1l-.01-.4c0-.05-.03-.07-.07-.06-.02 0-.04.01-.04.03-.03.15-.04.3 0 .48 0 .04.02.07.05.12.04.05.06.1.06.14l.01.04c.1.1.1.15 0 .15ZM7.07 8.33l.01.03s0 .02-.02.02h-.04c-.04 0-.07-.03-.08-.07 0-.02 0-.03.02-.03.05 0 .09.01.11.05Z" fill="#787BD8"/><path d="M8.48 8.4c0 .08 0 .11-.05.12-.08 0-.09.02-.02.06a.4.4 0 0 1 .08.06l-.2-.1a.04.04 0 0 1-.02-.03.34.34 0 0 1 0-.18c.01-.03.03-.03.05 0l.1.15h.03l.03-.07Z" fill="#716948"/><path d="M8.24 9.05c.03 0 .05-.02.05-.03.02-.04.04-.04.07-.01.05.05.08.08.08.1a.4.4 0 0 0-.06.26v.07c0 .03 0 .05.02.07a9.24 9.24 0 0 1 .18.15l.02.14.01.03.03.02.02.03c0 .14 0 .25.02.33a3.8 3.8 0 0 1-.01.7l-.08.07V11.12c0 .03-.03.05-.06.05a592.61 592.61 0 0 1-3.42 0c-.03 0-.04-.02-.04-.06l.15-.15.04-.02h.1l.04-.02a.25.25 0 0 1 .12-.05l2.92-.02c.04 0 .06-.02.06-.05v-.65l-.01-.02a.16.16 0 0 1-.04-.1V10h.02a.72.72 0 0 0 0-.26c0-.04-.03-.08-.08-.1a.3.3 0 0 1-.07-.06l-.06-.1c-.03-.16-.08-.27-.14-.33-.12-.09-.22-.18-.31-.27a.08.08 0 0 1-.03-.07l.02-.02h.02l.35.32c.02.02.04.02.06 0 .03-.03.03-.05.01-.07Z" fill="#9DB954"/><path d="m8.44 9.11.08.02c-.05.01-.07.04-.07.08l.02.28c0 .03.01.05.05.05l.1.02c.02 0 .03.01.03.03.04.06.05.1.05.14-.02.12-.02.3-.01.53a4.56 4.56 0 0 1 .01.58 5.15 5.15 0 0 1 .02.3l.08.02c-.06 0-.1.02-.1.05 0 .03-.02.05-.05.05l-.36.02H5.6c-.12 0-.34-.01-.66-.04.03-.05.07-.1.12-.13 0 .04.01.06.04.06a2.5 2.5 0 0 0 .41 0h3c.04 0 .06-.02.06-.05V11l.01-.02.08-.07.02.01v-.22c0-.21 0-.38-.02-.5l-.01-.32-.02-.03a.06.06 0 0 1-.03-.02.07.07 0 0 1-.01-.03l-.02-.14a9.24 9.24 0 0 0-.18-.16c-.02 0-.03-.03-.03-.06v-.07c0-.1.02-.19.07-.26Z" fill="#716948"/><path d="M8.52 9.13c.1.06.17.14.2.25l.02.03.15.15h.01l.02.01.01.01a.2.2 0 0 0 .1.1c.02.01.02.03.02.04v.31c0 .03 0 .05-.03.06L9 10.1c-.03.02-.05.01-.05-.02 0-.18-.03-.25-.08-.21l-.01.02a.49.49 0 0 0 .02.34v.03a.24.24 0 0 0-.04.09l-.01.8h-.1a4.55 4.55 0 0 0-.03-.88 2.94 2.94 0 0 1 0-.54c0-.03-.01-.08-.04-.14a.05.05 0 0 0-.04-.03l-.1-.02c-.03 0-.05-.02-.05-.05 0-.1 0-.19-.02-.28 0-.04.02-.07.07-.08Z" fill="#35215F"/><path d="M8.96 9.51v-.07a.4.4 0 0 1 0-.2l.02-.01h.03l.05.05c.06.06.1.11.12.16l.1.21c.02.04.02.08 0 .12h-.03L9 9.56l-.03-.02c-.01 0-.02-.01-.02-.03Z" fill="#3A3B6F"/><path d="M8.12 9.87c0 .02.02.03.04.03l.14-.01c.03 0 .04 0 .05.03v.03c0 .02-.01.03-.03.03h-.27c-.02 0-.03-.01-.04-.03v-.13l.03-.03a.36.36 0 0 0 .1-.08c.04-.05.07-.05.09.02l-.02.02a.27.27 0 0 1-.04.03.1.1 0 0 0-.05.1Z" fill="#787BD8"/><path d="M12.52 10.86c.03-.02.05 0 .06.06-.02.11.03.15.15.13.04.01.07.04.09.09 0 .02-.03.03-.07.03a195.62 195.62 0 0 0-3 .02c-.05 0-.1.01-.14.05h-.05c-.01 0-.02-.01-.02-.03v-.04a.3.3 0 0 0 .13-.03c.24-.13.48-.22.71-.26.13-.03.31-.04.55-.04a38 38 0 0 0 1.6.02Z" fill="#9DB954"/><path d="m8.83 11.15.11.01c-.05.06-.01.09.11.09.06.02.12 0 .18-.04.05-.03.09-.05.13-.05h.18v.05c0 .02 0 .02.02.02h.05a5.16 5.16 0 0 1 .2.03 1575.26 1575.26 0 0 0 3.1.02c.03.07.11.15.24.26l.08.06a189.83 189.83 0 0 0-3.32.01c-.03 0-.04.02-.04.04s.01.03.03.03l3.37.01c0 .06.02.13.05.19l.06.17.06.16c.05.15.07.27.06.36-.02.1-.09.17-.22.23a1.94 1.94 0 0 1-.43.13c-.12.03-.27.05-.45.06l-.46.01H5.42c-.29 0-.46-.03-.52-.08a.08.08 0 0 0-.03-.02.3.3 0 0 1-.12-.05.06.06 0 0 1-.02-.03.72.72 0 0 0-.05-.13.6.6 0 0 1-.05-.14 3.08 3.08 0 0 1-.05-.23.9.9 0 0 0-.05-.2.57.57 0 0 1 .1-.6c.08-.09.18-.18.3-.28.33.03.55.04.67.04a145.5 145.5 0 0 1 3.04-.02c.03 0 .05-.02.06-.05 0-.02.03-.04.09-.05l.03-.01Z" fill="#9F4A8E"/><path d="M9.12 11.6H4.73c-.03 0-.05.02-.05.05 0 .02.02.04.05.04h4.39c.03 0 .05-.02.05-.05 0-.03-.02-.05-.05-.05ZM13.23 11.6c.03 0 .05.04.04.09l-3.37-.01c-.02 0-.03-.01-.03-.03 0-.02.01-.04.04-.04l.68-.02h2.64Z" fill="#F7A88B"/></svg>