<!-- by TradingView --><svg width="18" height="18" viewBox="0 0 18 18" xmlns="http://www.w3.org/2000/svg"><path fill="#B6E6FA" d="M0 0h18v18H0z"/><path d="M9.2 3.15c0-.01-.02-.02-.05-.01a.53.53 0 0 0 .23-.11c.06-.04.11-.04.17.01.02.02.01.03-.01.04l-.34.07Z" fill="#8B8B8B"/><path d="M10.86 3.53c-.04-.06-.12-.07-.21-.02-.04.01-.05.04-.04.08.01.02.03.04.05.03.08 0 .12.03.1.08l-.33.05-.02.02.01.02h.02c.17-.03.29-.02.37.05-.21.12-.4.11-.55-.02h-.02a.04.04 0 0 0-.04.01v.03c0 .13.04.2.13.24.03.09.02.14-.03.17l-.02.02v.03c0 .04-.02.06-.06.07-.03 0-.04-.01-.04-.04l-.01-.07c.03-.14 0-.26-.08-.35a.13.13 0 0 1-.03-.07c-.02-.17-.22-.16-.3-.07a.4.4 0 0 0-.37.06.14.14 0 0 1-.08.03.53.53 0 0 0-.26.07.4.4 0 0 0-.17.2l-.09.18a.5.5 0 0 0-.02.33c0 .02.02.03.04.02a.46.46 0 0 1 .24 0c.02.01.03.03.03.05 0 .03-.02.05-.03.07a.09.09 0 0 1-.06.03c-.06.02-.09.06-.07.14 0 .04-.01.06-.06.06-.06.04-.1.05-.11.02a.78.78 0 0 0-.08-.08.07.07 0 0 1-.02-.06l.01-.24-.04-.29v-.01l.03-.01c.02 0 .03-.02.03-.04v-.17l.07-.3a.1.1 0 0 1 .04-.07.47.47 0 0 0 .11-.12c.03-.04.06-.06.1-.05.07.01.1-.01.12-.07 0-.01 0-.02.02-.03l.03-.02c.07-.01.12.02.14.1 0 0 0 .02.02.02l.02.02a.06.06 0 0 0 .07-.01.14.14 0 0 0 .04-.07c0-.03.02-.04.05-.04l.29-.02.06.03c.07.1.15.18.24.25.02.02.04.02.06 0l.02-.02c.02-.06 0-.12-.02-.18 0-.03 0-.05.03-.06h.02c.04-.01.05 0 .03.04-.03.06-.02.1.03.14l.01.01a.03.03 0 0 0 .03 0v-.02c.04-.1.02-.2-.04-.25-.05-.05-.05-.1 0-.16.04.03.08.07.1.14.01.04.03.04.06 0a.1.1 0 0 0 .01-.07v-.06l.03-.06a.13.13 0 0 1 .04-.04.11.11 0 0 1 .06-.01l.07-.03a.08.08 0 0 1 .08-.02c.05.02.09.02.13 0 .03-.02.04-.01.05.02a.8.8 0 0 1-.04.4Z" fill="#3A3B3C"/><path d="M10.18 3.25a.67.67 0 0 0-.54-.05.1.1 0 0 0-.06.07c0 .02-.02.04-.05.05-.06.02-.08.06-.07.12 0 .03-.01.05-.04.05-.05 0-.1-.03-.11-.09-.04-.1-.13-.15-.25-.14.04 0 .07-.02.09-.08l.19.06.06-.01c.18-.1.37-.13.56-.1.12 0 .2.05.22.12Z" fill="#313946"/><path d="m9.15 3.14.05.01c-.02 0-.04.01-.05.03-.02.06-.05.09-.1.08a.65.65 0 0 1-.4-.04l.5-.08Z" fill="#272A2F"/><path d="m10.18 3.25.09.02c-.05.06-.05.1 0 .16.06.06.08.14.04.25v.01h-.02a.03.03 0 0 1-.02 0c-.05-.03-.05-.08-.03-.14.02-.04.01-.05-.03-.05h-.02c-.03.02-.04.04-.03.07.01.06.04.12.02.18l-.02.02c-.02.02-.04.02-.06 0a1.38 1.38 0 0 1-.24-.25.07.07 0 0 0-.06-.03l-.3.02c-.02 0-.03.01-.04.04 0 .03-.02.05-.04.07a.06.06 0 0 1-.07.01.07.07 0 0 1-.02-.02l-.02-.03c-.02-.07-.07-.1-.14-.09l-.03.02-.02.03c-.01.06-.05.08-.11.07-.05 0-.08 0-.1.05a.47.47 0 0 1-.12.12.1.1 0 0 0-.04.07l-.06.3-.02.15c0 .01 0 .02-.02.02h-.02c-.02 0-.02-.01-.02-.03 0-.22.02-.4.08-.54a.7.7 0 0 1 .17-.23c.03-.02.02-.04 0-.05l-.04-.01h-.01l-.2.26a.06.06 0 0 1-.05.03c-.02 0-.03 0-.03.03-.01.02 0 .04.02.05v.04a.1.1 0 0 0-.01.06c.01.2 0 .4-.06.6a.43.43 0 0 1-.08.17c-.05.07-.1.14-.13.22a.13.13 0 0 1-.07.06c-.14.05-.21.14-.37.15-.15 0-.29.02-.42.03-.06 0-.07-.02-.03-.07v-.03c.01-.02 0-.04-.03-.05a.1.1 0 0 0-.1 0l-.02.02v.03c-.01.06-.04.1-.1.1a.1.1 0 0 0-.06.04l-.2.21a.1.1 0 0 0-.03.07c-.02.2-.07.34-.16.42a4.4 4.4 0 0 1-.06-.25c-.01-.07-.05-.11-.11-.12.03-.08.02-.12-.04-.12.13-.1.2-.2.2-.32.02.05.05.08.1.08.02 0 .04-.02.04-.05 0-.05.01-.09.05-.12.02-.03.04-.03.07-.01a.1.1 0 0 1 .03.03l.02.02h.03a.11.11 0 0 0 .07-.06.06.06 0 0 0 0-.07l-.04-.05c.13 0 .24-.02.33-.06 0 .13.07.2.2.2a19.74 19.74 0 0 1 .29 0c.11-.05.1-.08-.02-.09l-.16-.02c-.03 0-.05-.02-.04-.05.02-.07.01-.12-.02-.13a.42.42 0 0 0 .09-.23c.04.04.07.09.1.15a.1.1 0 0 0 .05.05c.07.04.15.05.24.04v-.05L8 4.65c-.01 0-.02 0-.03-.02a.06.06 0 0 1-.01-.03c0-.06.01-.12.04-.16 0 0 0-.02.02-.02a.04.04 0 0 1 .04 0l.02.03.1.26-.01.08-.05.07c-.02.04 0 .05.03.03l.04-.03c.05-.05.03-.1.07-.16.05-.08.03-.14-.05-.18a.08.08 0 0 1-.04-.06c0-.02 0-.04.03-.05l.06-.03c.05-.05.06-.15.1-.22.07-.1.05-.23.06-.34V3.8l-.02-.01c-.04-.02-.04-.03 0-.04.1-.03.14-.1.13-.19l-.04-.12c-.02-.07 0-.12.07-.17.02-.03.05-.04.09-.05.12.05.25.07.4.04.12-.01.2.04.25.14.02.06.06.1.1.1.04-.01.05-.03.05-.06-.01-.06.01-.1.07-.12.03-.01.04-.03.05-.05a.1.1 0 0 1 .06-.07.67.67 0 0 1 .54.05Z" fill="#A1A3A7"/><path d="M8.57 3.27c-.07.05-.1.1-.07.17l.04.12c0 .1-.04.16-.13.19-.04 0-.04.02 0 .04h.01l.01.03c0 .11.01.24-.05.34-.05.07-.06.17-.11.22a.12.12 0 0 1-.06.03c-.03 0-.04.03-.03.05 0 .03.02.05.04.06.08.04.1.1.05.18-.04.06-.02.11-.07.16a.15.15 0 0 1-.04.03c-.04.02-.05.01-.03-.03l.05-.07a.09.09 0 0 0 0-.08l-.1-.26v-.03a.04.04 0 0 0-.06 0l-.01.02a.32.32 0 0 0-.04.16l.01.03.03.02.09.02v.05a.34.34 0 0 1-.24-.04.1.1 0 0 1-.05-.05.42.42 0 0 0-.1-.15l-.02-.03c0-.03.28-.89.88-1.18Z" fill="#3A3B3C"/><path d="M8.69 4.15v.17c0 .02-.02.03-.04.04l-.02.01-.01.01.04.3a.05.05 0 0 1-.02-.03c-.01-.02-.02-.02-.04-.02a.08.08 0 0 0-.04.03l-.02.04c-.01.1-.02.19-.01.28-.02.03-.05.03-.1.01a.1.1 0 0 0-.1.01.11.11 0 0 0-.04.05v.06l.02.33c0 .04 0 .05-.04.02a.19.19 0 0 1-.05-.17c.03-.16 0-.19-.12-.07a.33.33 0 0 1-.2.1.1.1 0 0 0-.08.05.11.11 0 0 0 0 .1c.01.03.03.04.06.02h.03c.03 0 .04.03.04.06 0 .1-.04.2-.1.28a.14.14 0 0 0-.03.07c-.01.12.01.24.07.34a.97.97 0 0 0-.35.17l-.47-.01c-.03 0-.05 0-.06-.02-.02-.02-.05-.03-.07-.02-.08.03-.12.02-.12-.03h.03c.05-.01.05-.03.01-.05-.04-.02-.05-.06-.03-.12.04-.12 0-.15-.1-.1-.1.06-.2.06-.29.01a.06.06 0 0 1-.03-.05l-.04-.28a.37.37 0 0 1 .1-.33c.06 0 .07.04.04.12-.04.12-.06.25-.06.39 0 .03.02.04.04.05.05.01.11 0 .19-.07.09-.08.14-.23.16-.42a.1.1 0 0 1 .03-.07l.2-.21a.1.1 0 0 1 .06-.03c.06-.01.09-.05.1-.1v-.04l.02-.02a.1.1 0 0 1 .1 0c.03 0 .04.03.04.05l-.01.03c-.04.05-.03.07.03.07l.42-.03c.16-.01.23-.1.37-.15a.13.13 0 0 0 .07-.06l.13-.22c.04-.05.07-.1.08-.17.05-.2.07-.4.06-.6l.01-.06v-.04c-.03 0-.03-.03-.02-.05 0-.02.01-.03.03-.03.02 0 .04-.01.05-.03l.2-.26h.01l.04.01c.02.01.03.03 0 .05a.7.7 0 0 0-.17.23c-.06.14-.09.32-.09.54 0 .02.01.03.03.03h.02c.01 0 .02 0 .02-.02l.02-.15Z" fill="#646A76"/><path d="m10.86 3.53-.1.17c.02-.05-.02-.08-.1-.08-.02 0-.04 0-.05-.03 0-.04 0-.07.04-.08.1-.05.17-.04.21.02Z" fill="#8B8B8B"/><path d="M10.17 4.28a.33.33 0 0 1-.13.11c-.1 0-.2.02-.26.09a.05.05 0 0 1-.03.01h-.02l-.02-.02v-.05c.1-.04.2-.1.3-.18a.1.1 0 0 0 .04-.03.1.1 0 0 0-.04-.14c-.01 0-.04 0-.07.02 0-.15-.06-.25-.18-.3.08-.1.28-.1.3.07l.03.07c.08.09.1.2.08.35Z" fill="#D4AB9E"/><path d="M9.76 3.79c.12.05.18.15.18.3l-.27.25c-.03.02-.03.06-.01.09 0 .08-.03.13-.1.16-.03.01-.05 0-.07-.01-.02-.02-.02-.05 0-.07.02-.06 0-.1-.05-.13a.71.71 0 0 0-.38-.1h-.11a.13.13 0 0 0-.12.07c-.01.02 0 .04.03.04.14 0 .28.03.44.08.03 0 .05.03.04.06a.47.47 0 0 1-.08.2c-.01.02-.02.03-.01.05 0 .04-.02.06-.04.07-.03 0-.04.02-.04.04 0 .03 0 .05-.02.07-.02.02-.03.02-.04-.01a.05.05 0 0 0-.02-.04c-.02-.02-.04 0-.06.03l-.11.03c-.02-.08 0-.12.07-.14.03 0 .05-.01.06-.03a.16.16 0 0 0 .03-.07c0-.02 0-.04-.03-.05a.46.46 0 0 0-.24 0c-.02.01-.04 0-.04-.02a.5.5 0 0 1 .02-.33l.09-.19a.4.4 0 0 1 .17-.19.53.53 0 0 1 .26-.07c.03 0 .06-.01.08-.03a.4.4 0 0 1 .37-.06Z" fill="#FBF0DD"/><path d="M10.8 3.84c.1.04.16.12.2.22-.08.07-.17.08-.26.02-.08-.04-.1-.01-.05.1 0 0 0 .02.02.02l.08.1a.1.1 0 0 0 .05.04l.1.03c.02.01.03.03.03.05.04.29 0 .55-.09.8a.13.13 0 0 1-.07.07.33.33 0 0 1-.1.03.1.1 0 0 0-.05 0 .11.11 0 0 0-.06.09v.05l.02.08-.03.06a.1.1 0 0 1-.03.01c-.03.01-.05 0-.05-.03V5.4a.2.2 0 0 0 0-.09.57.57 0 0 1 .04-.36l.09-.21c0-.03.02-.04.04-.05.03-.02.06 0 .07.03.03.08.05.15.06.23 0 .03.02.04.04.04h.04c.02 0 .03-.01.03-.03 0-.09 0-.18-.04-.25a1.2 1.2 0 0 1-.11-.25.09.09 0 0 0-.05-.05l-.2-.1a.07.07 0 0 1-.03-.06c-.02-.08-.07-.13-.16-.15-.1-.03-.14-.11-.13-.24v-.03l.02-.01a.04.04 0 0 1 .04 0c.16.13.34.14.55.02Z" fill="#A1A3A7"/><path d="M11 4.06c.07.07.1.13.05.18-.02.01-.05 0-.08-.02-.02-.01-.04 0-.06.01v.05c.04.07.1.09.2.04-.05.28-.06.58-.04.9 0 .02.02.04.04.05.05.04.09.08.07.16-.02.13-.03.26-.03.4 0 .02 0 .04-.02.06l-.27.26c-.06.03-.08.08-.07.17 0 .03 0 .05-.02.06a.1.1 0 0 1-.11 0l-.02-.03v-.03a.34.34 0 0 0 .03-.13c0-.04-.01-.06-.04-.06-.05-.02-.07-.06-.05-.11 0-.04 0-.07-.03-.1l-.18-.18a.09.09 0 0 1-.03-.06l-.02-.43c0-.01 0-.02-.02-.02h-.02a19.76 19.76 0 0 0-.02.48c0 .03.01.05.03.06.03 0 .04.03.05.06 0 .05.02.09.06.12a.07.07 0 0 1 .01.07c0 .02-.02.03-.04.03-.04 0-.05.02-.04.05-.16-.06-.25-.02-.28.12V6.1c-.02-.03-.05-.04-.08-.02a.32.32 0 0 0-.1.08.44.44 0 0 1 .1-.13.44.44 0 0 0 .08-.1.39.39 0 0 0 .01-.29c0-.02 0-.04.02-.06a.04.04 0 0 1 .04 0 .04.04 0 0 0 .06-.03.1.1 0 0 0 0-.06c0-.03-.02-.04-.04-.04H9.7a.17.17 0 0 1-.12-.06.06.06 0 0 0-.06-.02c-.02 0-.03.01-.04.03v.04c0 .03 0 .05-.04.05a.14.14 0 0 1-.12-.07c-.02-.02-.04-.03-.06 0a.06.06 0 0 1-.04 0c-.05 0-.05 0-.02-.04.07-.06.11-.12.12-.2l.01.07c0 .01.01.02.03.02h.02l.01-.02v-.03c0-.03 0-.05.02-.07.02-.02.04-.03.06-.02.14.06.24.03.3-.06a.07.07 0 0 1 .05-.04l.18-.02c0 .1.04.14.1.14.03 0 .06-.02.07-.05 0-.03 0-.06-.02-.1h.02c.02 0 .03-.02.04-.05 0-.06.03-.1.07-.12a.07.07 0 0 0 .04-.06l.03-.2c0-.05-.01-.07-.05-.06-.08 0-.12.04-.12.11l-.01.04-.04.02a.15.15 0 0 0-.1.1c-.02.02-.04.04-.07.04-.08 0-.09-.07-.03-.21l.03-.06c.06-.05.08-.1.07-.17.06-.03.1-.07.13-.1v.06c.01.03.02.04.05.04.04 0 .06-.03.06-.07a.06.06 0 0 1 .02-.05c.05-.03.06-.08.03-.17.1.02.14.07.16.15 0 .03.02.05.04.06l.2.1.04.05c.03.09.06.17.11.25.05.07.04.16.04.25 0 .02-.01.03-.03.03h-.04c-.02 0-.03-.01-.04-.04a.98.98 0 0 0-.06-.23c-.01-.03-.04-.05-.07-.03a.07.07 0 0 0-.04.05l-.09.21a.57.57 0 0 0-.03.36.2.2 0 0 1 0 .1.46.46 0 0 0-.01.17c0 .03.02.04.05.03a.1.1 0 0 0 .03-.01.07.07 0 0 0 .03-.06c0-.03 0-.05-.02-.08a.12.12 0 0 1 .02-.1.1.1 0 0 1 .04-.03.1.1 0 0 1 .04-.01c.04 0 .08-.01.11-.03a.13.13 0 0 0 .07-.08c.1-.24.13-.5.1-.79a.05.05 0 0 0-.04-.05l-.1-.03a.1.1 0 0 1-.05-.04.36.36 0 0 0-.08-.1l-.02-.02c-.05-.11-.03-.14.05-.1.1.06.18.05.25-.02Z" fill="#646A76"/><path d="M9.94 4.09c.03-.02.06-.02.07-.02a.1.1 0 0 1 .03.04.1.1 0 0 1 0 .1.1.1 0 0 1-.03.03c-.1.08-.2.14-.3.18 0 .02-.03.03-.06.01-.01-.03 0-.07.02-.1l.27-.24Z" fill="#272A2F"/><path d="M9.65 4.43c.03.02.05.01.07 0v.06a.05.05 0 0 0 .05 0l.01-.01c.07-.07.15-.1.26-.09.01.07-.01.12-.07.17a.13.13 0 0 0-.03.06c-.06.14-.05.21.03.21.03 0 .05-.02.06-.05a.15.15 0 0 1 .11-.1l.04-.01v-.04c.01-.07.05-.11.13-.11.03 0 .05.01.05.05l-.03.2c0 .03-.01.06-.04.07-.05.02-.07.06-.07.12 0 .03-.02.04-.04.05h-.03a.27.27 0 0 0-.14 0l-.18.03a.07.07 0 0 0-.05.04c-.06.1-.16.12-.3.06-.02 0-.04 0-.06.02a.08.08 0 0 0-.01.07v.03l-.02.01h-.02l-.03-.01-.01-.06c-.03-.04-.07-.04-.12-.02-.06.01-.1-.03-.1-.12 0-.02-.02-.04-.04-.05-.04 0-.05-.03-.04-.07.02-.04.03-.05.06-.03l.02.04c0 .03.02.03.04 0a.12.12 0 0 0 .02-.06c0-.02.01-.03.03-.04.03-.01.05-.03.05-.07v-.05a.47.47 0 0 0 .1-.2c0-.03-.02-.05-.05-.06-.16-.05-.3-.08-.45-.08-.03 0-.03-.02-.02-.04a.13.13 0 0 1 .12-.06h.1c.14-.01.26.02.4.1.04.02.06.06.03.12-.01.02 0 .05 0 .07.03.02.05.02.08 0 .06-.02.1-.07.1-.15Z" fill="#3A3B3C"/><path d="M7.62 4.71c.04.01.04.06.02.13 0 .03 0 .05.04.05l.16.02c.13.01.13.04.02.1a21.62 21.62 0 0 0-.28 0c-.14-.01-.2-.08-.2-.2a.85.85 0 0 0-.12-.16c-.02-.03-.02-.05-.01-.07l.01-.02a.04.04 0 0 1 .05 0l.01.02c.07.14.16.18.3.13Z" fill="#646A76"/><path d="m8.66 4.67-.01.24c0 .03 0 .05.02.06l.08.08c.02.03.05.02.1-.02 0 .1-.04.2-.1.27-.03.02-.04.02-.06 0a.2.2 0 0 1 0-.1c.02-.01.04-.03.04-.05v-.04c0-.02-.02-.03-.04 0-.03.03-.07.02-.1-.03a.14.14 0 0 0-.06-.1l.01-.28.02-.04a.08.08 0 0 1 .04-.03c.02 0 .03 0 .04.02l.02.02ZM9.5 5a.02.02 0 0 1-.01 0 .03.03 0 0 1-.01-.02v-.03c0-.04.01-.07.04-.1a.13.13 0 0 1 .09-.05h.02l.05.01.04.04.03.04.01.06V5L9.73 5H9.5Z" fill="#F2F1E9"/><path d="M9.03 4.94c-.01.04 0 .06.04.07l.04.05c0 .1.04.13.1.12a.31.31 0 0 0-.12.14c-.01.02-.03.03-.06.03h-.11l-.02.02a.05.05 0 0 0 0 .04c.02.1.03.2.02.29a.05.05 0 0 0 .02.04.05.05 0 0 0 .04.01c.08-.02.13 0 .14.09 0 .06.04.12.1.16h.02v-.02l.02-.01a.03.03 0 0 1 .03 0c.03.01.04.03.03.05-.07-.02-.1.02-.11.12a.45.45 0 0 1-.13-.18l-.01-.02a.03.03 0 0 0-.03 0h-.02a.06.06 0 0 0-.01.05c0 .03.01.05.03.06.06.05.08.12.07.2 0 .03-.02.05-.04.05-.12-.01-.19-.11-.19-.23a.46.46 0 0 0-.06-.21c-.01-.03-.02-.03-.04 0L8.7 6a.15.15 0 0 0-.06.04l.01-.03c.01-.02 0-.04-.02-.04-.07-.01-.1-.06-.1-.14 0-.05-.02-.06-.06-.04l-.02.01-.01.02v.02l-.01.2c-.03-.16-.03-.31 0-.47.01-.02.03-.04.05-.03.04 0 .06.02.07.07l.01.01.02-.01c-.02-.13-.02-.26.01-.4V5.2c0-.03.02-.04.05-.04.02 0 .04.01.04.04l.01.1c.02.03.03.03.05 0 .07-.06.1-.15.12-.26.05 0 .07-.02.06-.06.03 0 .06 0 .11-.03Z" fill="#646A76"/><path d="M8.53 4.98c.03.02.05.06.06.1-.04.01-.03.06 0 .15-.03.13-.03.26-.01.39 0 .01 0 .02-.02.01l-.01-.01c0-.05-.03-.07-.07-.07-.02 0-.04 0-.04.03-.04.16-.04.31-.01.46a.1.1 0 0 1-.1.02l-.02-.04-.02-.47c0-.04-.02-.04-.04 0-.07.08-.11.17-.15.27 0 .02-.02.04-.04.05-.07.07-.09.19-.03.35-.06 0-.1 0-.14.02a.53.53 0 0 1-.07-.34c0-.03.01-.05.03-.07.06-.08.1-.18.1-.28 0-.03 0-.05-.04-.06h-.03c-.03.02-.05 0-.06-.02a.11.11 0 0 1 0-.1.1.1 0 0 1 .08-.06.33.33 0 0 0 .2-.1c.11-.1.15-.08.12.08-.01.06.01.13.05.17.03.03.05.02.04-.02l-.02-.33v-.06L8.33 5a.1.1 0 0 1 .1-.01c.05.02.08.02.1-.01Z" fill="#A1A3A7"/><path d="M10.16 5c.02.05.03.08.02.11-.01.03-.04.05-.07.05-.06 0-.1-.05-.1-.14.04-.02.1-.02.15-.01Z" fill="#F2F1E9"/><path d="M8.59 5.08c.03.05.07.06.1.02.02-.01.04-.01.05.01v.04c-.01.02-.03.04-.06.04 0-.03-.02-.04-.04-.04-.03 0-.04.01-.05.04v.04c-.03-.09-.03-.14 0-.15Z" fill="#8B8B8B"/><path d="M9.2 5.18c.06-.02.1-.02.13.02a.33.33 0 0 1-.12.2c-.03.02-.03.04.02.04.01 0 .03 0 .04-.02.02-.02.04-.01.06.01.02.05.06.07.12.07.04 0 .05-.02.04-.05V5.4c.01-.02.02-.03.04-.03s.04 0 .06.02c.03.04.07.06.12.06h.43c.02 0 .03.01.04.04a.1.1 0 0 1 0 .06l-.03.02h-.03l-.04.01a.06.06 0 0 0-.02.06c.03.1.03.2 0 .28a.44.44 0 0 1-.1.11.44.44 0 0 0-.09.13c-.09.02-.19.03-.3.03-.13 0-.2-.08-.25-.18 0-.02 0-.04-.03-.06a.03.03 0 0 0-.02 0h-.01l-.01.02-.01.02h-.01a.23.23 0 0 1-.11-.16c-.01-.08-.06-.11-.14-.09a.05.05 0 0 1-.04-.01l-.02-.02V5.7c0-.1 0-.2-.03-.3a.05.05 0 0 1 .01-.03.05.05 0 0 1 .04-.02h.1c.02 0 .04 0 .05-.03a.31.31 0 0 1 .12-.14Z" fill="#A1A3A7"/><path d="M10.86 6.15c.05.1.19.19.4.24.17.16.44.1.66.07.4.07.7.29.9.65.15.28.25.55.3.83a.2.2 0 0 0 .1.12c.09.07.17.15.23.24.16.26.27.46.32.61a1.99 1.99 0 0 1 .03.58c-.01.03-.02.02-.02 0l-.01-.13c-.03-.16 0-.32-.07-.47-.1-.21-.2-.42-.34-.61-.22-.33-.85-.13-1.12.04a.48.48 0 0 0-.05-.16 4 4 0 0 1-.08-.14c-.1-.27-.17-.55-.18-.82 0-.06-.03-.1-.08-.13-.01 0-.02-.03-.01-.05a.25.25 0 0 0-.04-.2.12.12 0 0 1-.01-.08c0-.07-.03-.11-.1-.14-.02 0-.04 0-.05.03-.06.16-.18.36-.13.53l.08.21c.04.08.07.23.09.45.01.17-.08.34-.14.5a.73.73 0 0 1-.42.41 2.5 2.5 0 0 1-.79.13c-.13 0-.15.05-.05.13.02.03.07.04.14.05a4.74 4.74 0 0 0 .69.02.1.1 0 0 1 .03.02.1.1 0 0 1 .02.08c-.04.28-.1.53-.2.75a.37.37 0 0 0-.29.01.05.05 0 0 0-.03.05v.08c0 .02-.02.04-.04.06-.05.04-.11.04-.17 0v-.12a.07.07 0 0 0-.03-.04.08.08 0 0 0-.03-.01.04.04 0 0 0-.04 0v.02l-.02.02c0 .08.02.14.08.16.1.14.22.18.4.12 0 .06.02.1.06.12a.1.1 0 0 1 .04.02.1.1 0 0 1 .03.07.1.1 0 0 1 0 .05.53.53 0 0 0-.04.19.43.43 0 0 1-.15-.22c0-.02 0-.04.02-.06a.07.07 0 0 0 .02-.07c-.01-.03-.03-.04-.06-.04h-.07c-.05 0-.06.02-.03.06l.08.07.01.02h-.02a.79.79 0 0 1-.32-.2.11.11 0 0 1-.04-.08.08.08 0 0 0-.04-.07.08.08 0 0 1-.03-.03.08.08 0 0 1-.02-.04v-.12l-.05-.55c0-.03-.01-.04-.04-.05l-.08-.03a.06.06 0 0 1-.03-.02.07.07 0 0 1-.01-.04l.01-.37.04-.36c0-.02.01-.04.04-.05.06-.02.08-.08.06-.16a.07.07 0 0 0-.04-.05c-.03-.02-.05 0-.05.03 0 .1-.04.2-.1.26-.06.02-.1-.01-.12-.1l-.03-.04-.02-.04a.09.09 0 0 0-.04-.05.08.08 0 0 0-.05 0c-.04 0-.06 0-.06.03s0 .04-.03.04h-.05c0-.06 0-.1-.02-.1a.12.12 0 0 0-.15 0 .14.14 0 0 0-.04.06 1.6 1.6 0 0 0-.07.2.03.03 0 0 1-.03 0 .33.33 0 0 1-.19-.21c0-.04-.02-.05-.05-.04a.2.2 0 0 1-.07 0c-.04 0-.04 0-.01.03.07.07.13.14.17.22.01.03.03.04.06.05h.05l.03.03v.02c0 .02 0 .03-.02.04a.22.22 0 0 0-.1.15c-.36.05-.62.07-.77.04-.06 0-.17-.05-.34-.11-.33-.13-.43-.36-.59-.63a1.18 1.18 0 0 1-.15-.39 5.54 5.54 0 0 1-.06-.56 1.34 1.34 0 0 0-.25-.67h-.02l-.02.02v.03a.7.7 0 0 1 .06.2c0 .03.02.06.04.08.13.15-.03.39-.13.5-.11.14-.31.22-.47.3l-.03.01a.08.08 0 0 0-.02.06l.01.03c.08.17.1.36.04.55-.01.02 0 .05.01.06.03.04.04.08.02.13l-.04-.07c-.11-.15-.3-.31-.54-.47-.43-.27-.6-.07-.87.21-.18.19-.2.44-.32.67-.13.27-.38.44-.53.69-.03.04-.07.15-.12.31.01.33.1.63.27.88.03.06.13.15.3.28L4.6 11c-.31-.2-.34-.4-.49-.67a.85.85 0 0 1-.1-.33c-.04-.45.24-.71.5-1 .12-.13.21-.3.28-.51a.8.8 0 0 1 .18-.32c.13-.14.26-.28.37-.42a.18.18 0 0 1 .08-.05.7.7 0 0 0 .48-.43c.08-.2.2-.38.38-.54.05-.05.12-.06.18-.1l.02-.01a.05.05 0 0 0-.02-.07.12.12 0 0 1-.05-.08c0-.03 0-.04.03-.05h.03c.02 0 .03.01.03.03.03.09.1.1.22.04.05-.02.05-.04 0-.06a.26.26 0 0 1-.09-.04c-.02-.02-.02-.03 0-.06.06-.04.13-.04.2.01 0 .05.04.06.12.03.02 0 .05 0 .07.02l.06.02.47.01c.05.13.2.15.43.06.02-.01.05-.02.07-.01.04 0 .06-.01.07-.05v.06l.02.04.04.01h.06l.02-.03a.06.06 0 0 0 0-.06.13.13 0 0 0-.1-.06.18.18 0 0 1-.02-.1c0-.02-.01-.03-.04-.04a.12.12 0 0 0-.06 0c-.06-.17-.04-.29.03-.36a.14.14 0 0 0 .04-.05c.04-.1.09-.19.15-.28.02-.03.04-.03.04.01l.02.47c0 .02 0 .03.03.04a.1.1 0 0 0 .09-.02v-.21l.02-.02h.02c.04-.03.06-.02.06.03 0 .08.03.13.1.14.02 0 .03.02.02.04l-.01.03c-.1 0-.13.1-.08.26l.16.41c.01.03.03.05.06.06.06.04.1.08.13.14.01.03.04.05.06.05l.31.08c.01 0 .02 0 .02.02l.01.01.05.04c.13.02.47.05.51-.15.01-.04.04-.07.07-.08l.2-.04c.04-.01.07-.03.1-.07a.65.65 0 0 0 .05-.13c.06-.1.1-.2.1-.32 0-.02 0-.03.02-.04l.04-.03c.02-.01.02-.03.02-.05-.02-.04-.05-.05-.12-.04a.14.14 0 0 1-.02-.07c-.01-.03 0-.04.04-.05.02 0 .04 0 .04-.03V6a.07.07 0 0 0-.01-.04.19.19 0 0 1-.06-.12.07.07 0 0 0-.05-.06c-.02-.01-.03-.03-.04-.06V5.7a19.76 19.76 0 0 1 .03-.47h.02l.01.02.03.43c0 .02 0 .04.02.06l.2.19c.02.02.03.05.02.09-.02.05 0 .09.05.1.03.01.04.04.04.07 0 .04 0 .09-.03.13a.05.05 0 0 0 .02.05.1.1 0 0 0 .1 0c.03 0 .04-.02.03-.05 0-.09.01-.14.07-.17Z" fill="#3A3B3C"/><path d="M9.2 6.14c.07.16.35.25.48.28.14.03.26-.04.37-.2.03-.14.12-.18.28-.12 0 .02 0 .05.02.07l-.15.31a.05.05 0 0 1-.05.03c-.2 0-.37.06-.52.19-.03.02-.03.03 0 .03.1 0 .17-.04.24-.1a.12.12 0 0 1 .06-.03c.11-.03.16-.01.16.05a.85.85 0 0 1-.84.17c-.08-.02-.1-.07-.16-.11a.14.14 0 0 0-.08-.03c-.06 0-.11-.04-.15-.11-.12 0-.19-.1-.2-.28 0-.1.05-.17.04-.28l.08-.15c.01-.03.03-.03.04 0 .04.06.06.13.06.2 0 .13.07.23.19.24.02 0 .04-.02.04-.04.01-.09-.01-.16-.07-.2A.08.08 0 0 1 9 5.98l.01-.04.02-.01a.03.03 0 0 1 .03 0v.02c.04.07.08.13.14.18Z" fill="#FBF0DD"/><path d="M9.32 6.02c.06.1.12.17.24.18.12 0 .22-.01.31-.03a.32.32 0 0 1 .1-.08c.03-.02.06-.01.07.02.02.02.02.06.01.1-.1.17-.23.24-.37.2-.13-.02-.4-.11-.47-.27 0-.1.04-.14.11-.12Z" fill="#272A2F"/><path d="M10.35 6.17c.07 0 .1 0 .12.04 0 .02 0 .04-.02.05l-.04.03a.05.05 0 0 0-.03.04.6.6 0 0 1-.09.32h-.2c0-.06-.05-.08-.16-.05a.12.12 0 0 0-.06.03.34.34 0 0 1-.23.1c-.04 0-.04 0-.01-.03a.76.76 0 0 1 .52-.19c.02 0 .04 0 .05-.03l.15-.3Z" fill="#8B8B8B"/><path d="M8.03 6.22h.06c.03.02.04.03.04.06l.01.1-.03.03c0 .04-.03.05-.07.05h-.07c-.23.1-.38.08-.43-.05a.97.97 0 0 1 .49-.19Z" fill="#272A2F"/><path d="M8.56 6.31c.12.22.22.3.3.26.04.07.09.1.15.1l.08.04c.06.04.08.1.16.11.32.1.6.04.84-.17h.2a.63.63 0 0 1-.06.13.15.15 0 0 1-.1.07l-.19.04a.09.09 0 0 0-.07.08c-.04.2-.38.17-.5.15a.07.07 0 0 1-.06-.04v-.01l-.03-.02-.3-.08a.09.09 0 0 1-.07-.05.32.32 0 0 0-.13-.14.12.12 0 0 1-.06-.06l-.16-.4Z" fill="#694E3F"/><path d="m11.26 6.4.66.06c-.22.04-.5.1-.66-.07Z" fill="#8B8B8B"/><path d="M9.14 8.83c-.04.2-.13.28-.26.21-.48.07-.88 0-1.2-.23-.12-.09-.16-.06-.13.1.06.3.17.62.33.94a3.62 3.62 0 0 1 .2.57c-.03.17.02.3.14.38l.01.03s0 .02-.02.01a.03.03 0 0 0-.03.01.03.03 0 0 0 0 .03c.01.16 0 .3-.07.43a6.24 6.24 0 0 1 .01.75c0 .15-.05.3.09.42.08.07.15.11.22.14a.08.08 0 0 0 .09 0 .09.09 0 0 0 .02-.05v-.04c-.04-.18-.1-.35-.19-.52a.23.23 0 0 1-.02-.1c0-.04.01-.04.04-.01.14.19.21.4.2.64 0 .03.02.05.04.07l.14.1a.1.1 0 0 0 .08.01c.08-.01.14.01.17.07.01.04 0 .05-.03.04a.18.18 0 0 1-.08-.04.1.1 0 0 0-.07-.04h-.2c-.03 0-.05 0-.07-.02a.25.25 0 0 0-.27-.03c-.06.02-.06.05 0 .08.04.01.08.04.1.08.02.01.02.03 0 .04-.05.02-.07.07-.05.12.01.02.03.04.05.04.07 0 .13-.03.17-.1l.02-.02.03-.01c.14-.01.27 0 .4.02.34.05.65.08.95.07.2 0 .36-.08.47-.27.15-.3.21-.63.3-.94a.09.09 0 0 0-.02-.07.08.08 0 0 0-.02-.03h-.04c-.26-.02-.5.05-.76-.01a2.08 2.08 0 0 0-.42-.04c-.03 0-.05-.02-.05-.05-.01-.03 0-.05.03-.05l.06-.01c.35-.03.77-.02 1.27.03.12.02.2-.03.21-.13a.33.33 0 0 1 .13-.05l.28.02c-.01.12-.01.21.02.26l.04.02c.01 0 .03 0 .03.02l.01.07a.23.23 0 0 1-.1.05.06.06 0 0 0-.04.05.62.62 0 0 0-.01.22c.02.2.06.39.1.59 0 .14-.1.25-.27.34a.35.35 0 0 1-.2.03c-.02 0-.04 0-.05.04-.1.32.14.42.36.52.04.02.04.03 0 .05a.08.08 0 0 1-.07 0 1.1 1.1 0 0 0-.43-.16.1.1 0 0 0-.08.02l-.27.18a.12.12 0 0 0-.07.1c0 .03 0 .04.03.05l.1.02v.03c0 .03 0 .05-.04.05s-.07 0-.1.02H9.08l-.25-.02c-.03 0-.04-.01-.04-.04 0-.1-.05-.18-.14-.22a3.08 3.08 0 0 1-.51-.3c-.02 0-.05 0-.06.02l-.23.25h-.02l-.02-.01v-.04a1.6 1.6 0 0 0 .2-.45.1.1 0 0 0-.03-.07.1.1 0 0 0-.04-.02.78.78 0 0 0-.39 0c.04-.1.03-.2-.02-.31a.3.3 0 0 1 .17-.03c.02 0 .03-.02.04-.03a104.77 104.77 0 0 1 .23-.72.6.6 0 0 0 0-.35c-.01-.15-.06-.25-.13-.33-.01-.07-.03-.1-.07-.1h-.24a1.8 1.8 0 0 0-.39-.02c-.04 0-.07-.01-.1-.04-.01-.02 0-.03.02-.03l.37-.01c.07 0 .1-.03.1-.1 0-.26-.08-.5-.24-.7a2.9 2.9 0 0 1-.51-.95l-.03-.01h-.03a.06.06 0 0 0-.03.02.89.89 0 0 1-.3.27h-.02c.2-.13.27-.31.24-.57v-.01l-.02-.01h-.02a.77.77 0 0 1-.37.27c-.05.01-.06 0-.01-.03l.29-.23a.09.09 0 0 1 .07-.01c.03 0 .04 0 .05-.03v-.06a4 4 0 0 0-.13-.5c.02-.04.01-.08-.02-.12a.06.06 0 0 1-.01-.06.74.74 0 0 0-.04-.55.08.08 0 0 1 .01-.09l.03-.01c.16-.08.36-.16.47-.3.1-.11.26-.35.13-.5A.16.16 0 0 1 7 6.76a.7.7 0 0 0-.06-.2v-.03l.02-.01H7c.14.22.22.44.24.66.01.2.03.39.06.56.02.12.07.25.15.39.16.27.26.5.59.63l.34.11c.15.03.4.01.77-.04Z" fill="#272A2F"/><path d="M9.48 6.7a.27.27 0 0 1-.15-.06c-.03-.03-.02-.05 0-.06.08-.03.14 0 .18.08.02.03 0 .05-.03.04Z" fill="#8B8B8B"/><path d="M12.24 8.32V8.3c-.12.14-.24.27-.34.42-.13.18-.1.44-.09.65l-.03.08c0 .1 0 .18-.05.26-.09.17-.18.33-.23.51-.03.1-.08.2-.15.29a.08.08 0 0 0-.02.06l.03.16-.04.09a.23.23 0 0 1-.08-.02c-.09-.05-.14-.02-.17.08-.03.12-.01.16.05.14.08.02.15.02.2 0 .02-.02.03-.03 0-.06 0-.02-.03-.02-.07-.02-.06-.04-.03-.06.07-.07.07.07.08.16.05.26l-.02-.03-.27-.01c-.03 0-.04-.02-.05-.04l-.09-.2-.06-.13c0-.08.01-.14.03-.2a.1.1 0 0 0-.02-.1.1.1 0 0 0-.03-.03c-.05-.01-.08-.06-.08-.12l-.03-.19.01-.05a.07.07 0 0 1 .04-.04c.07-.02.14.03.16.1l.02.13c0 .02 0 .03.02.04.01.01.03.02.04.01h.03c.02 0 .03-.01.03-.04a.6.6 0 0 0-.14-.3 2.66 2.66 0 0 0 .2-.8.1.1 0 0 0-.02-.04.09.09 0 0 0-.07-.03c-.24.01-.45 0-.65-.01-.07-.01-.12-.02-.14-.05-.1-.08-.08-.13.05-.13.27 0 .53-.04.8-.13a.73.73 0 0 0 .41-.41c.06-.16.15-.33.14-.5a1.62 1.62 0 0 0-.09-.45 1.75 1.75 0 0 1-.08-.21c-.05-.17.07-.37.13-.53 0-.02.03-.03.06-.03.06.03.1.07.09.14 0 .03 0 .06.02.08.03.06.04.13.03.2-.01.02 0 .04.01.05.05.03.07.07.08.13.01.27.08.55.18.82l.08.14.05.16Z" fill="#272A2F"/><path d="m6.43 8.4-.34.47a.7.7 0 0 1-.46.28c-.01-.21.08-.3.2-.43.09-.08.08-.1-.02-.04a.6.6 0 0 0-.31.58v.01l-.02.02a.03.03 0 0 1-.03 0l-.3-.2a.16.16 0 0 0-.18.02.54.54 0 0 1-.21.1.05.05 0 0 0-.03.02v.05c0 .02 0 .03.03.03.44-.08.75.1 1.06.4.09.08.16.18.2.3.07.12.14.25.25.38.14.19.24.4.39.59.02.02.02.04.02.07a.87.87 0 0 1-.32.52 2.17 2.17 0 0 1-.46-.3l-.31-.24a2.07 2.07 0 0 1-.34-.25c-.23-.22-.47-.4-.72-.54a1.7 1.7 0 0 1-.32-.26.12.12 0 0 0-.06-.03c-.04 0-.07-.05-.1-.13.05-.16.09-.27.12-.31.15-.25.4-.42.53-.69.11-.23.14-.48.32-.67.27-.28.44-.48.87-.2.25.15.43.3.54.46ZM13.77 9.36c-.03.23 0 .44.08.65.04.1.04.2.02.28-.01.03-.03.04-.05.06l-.21.1c-.16.09-.32.07-.46.2-.12.1-.23.18-.34.22a13.3 13.3 0 0 0-.87.37.85.85 0 0 1-.55.08v-.13a.09.09 0 0 1-.02-.07.26.26 0 0 0-.05-.26v-.05l.04-.09h.03l.03-.01c.02 0 .04-.02.05-.04.09-.08.18-.15.28-.21.25-.13.45-.37.64-.57.17-.17.38-.32.58-.41a.44.44 0 0 1 .5.07c.1.09.11.07.05-.04-.15-.25-.47-.2-.71-.07a1.42 1.42 0 0 1-.56-1.15v.03c.26-.17.89-.37 1.1-.04.14.2.26.4.35.61.06.15.04.3.07.47Z" fill="#FBF0DD"/><path d="M10.03 8.87a.3.3 0 0 0-.11.17l.01.05.02.02c.03 0 .04.02.03.04-.06.15-.16.22-.28.2l-.06.01a.07.07 0 0 0-.03.06v.02l-.03.02a.1.1 0 0 1-.05.01h-.02l-.01-.02c-.01-.02-.02-.03-.04-.03s-.03.01-.04.03c-.02.03-.06.04-.1.02l-.03-.08c-.01-.02-.03-.04-.06-.03a.2.2 0 0 0-.07.01.04.04 0 0 1-.03 0l-.02-.01v-.02a.14.14 0 0 0-.06-.07.08.08 0 0 0-.05-.02c-.06 0-.1-.02-.13-.08v-.13c.14.07.23 0 .27-.21a.22.22 0 0 1 .1-.15l.02-.04v-.02a.03.03 0 0 0-.03-.02l-.05-.01a.08.08 0 0 1-.06-.05.75.75 0 0 0-.17-.22c-.03-.03-.03-.04 0-.03a.2.2 0 0 0 .08 0c.03 0 .04 0 .05.04.03.1.1.17.2.21a.03.03 0 0 0 .01 0h.01v-.01l.07-.2.04-.04a.12.12 0 0 1 .16-.01c.01 0 .02.04.01.1l.01.05c.01.14.12.17.18.28l.08.18c.02.04.03.04.04 0l.02-.11.02-.07c.03-.05.05-.1.05-.17a.4.4 0 0 0 .1-.26c0-.03.02-.05.05-.03l.04.05c.02.08 0 .14-.06.16a.06.06 0 0 0-.04.05l-.04.36Z" fill="#F2F1E9"/><path d="M9.83 8.4c-.07-.03-.15-.02-.24.03v-.05h.04c.02 0 .03-.01.03-.04 0-.02.02-.04.06-.04l.05.01.04.05.02.04Z" fill="#8B8B8B"/><path d="M12.25 8.3c.02.5.2.88.56 1.14a.47.47 0 0 1-.19.18l-.32.2a.04.04 0 0 0-.03.04.1.1 0 0 1 0 .03v-.07l-.46-.46c0-.2-.04-.47.09-.65.1-.15.22-.28.35-.42Z" fill="#D4AB9E"/><path d="m9.83 8.4.03.04v.07c0 .03 0 .05.02.06.02.02.03.04.03.07 0 .04-.02.05-.05.03l-.05-.02c-.02-.01-.04 0-.04.02v.04c-.06-.11-.17-.14-.18-.28.1-.05.17-.06.24-.03Z" fill="#A1A3A7"/><path d="m6.43 8.4.04.08a4 4 0 0 1 .13.55c0 .02-.02.03-.05.03-.03-.01-.05 0-.08.01l-.29.23c-.04.03-.03.04.02.03a.77.77 0 0 0 .37-.26v-.01h.03l.01.02c.03.26-.05.44-.24.56-.16.04-.34.19-.51.03a3.43 3.43 0 0 1-.25-.26.1.1 0 0 1-.02-.07c0-.08.01-.15.04-.19a.7.7 0 0 0 .46-.28l.34-.46Z" fill="#D4AB9E"/><path d="M5.63 9.15a.38.38 0 0 0-.04.19c0 .02 0 .05.02.07l.25.26c.17.16.35.01.51-.03l.02.01-.32.15c-.05.02-.06.05-.04.1.08.2.18.37.31.52.1.12.17.26.26.39.2.32.5.3.83.3l-.37.02c-.03 0-.03.01-.01.03.02.03.05.04.1.04.12 0 .25 0 .37.02a1.22 1.22 0 0 0-.82.13c-.02.02-.02.03.01.04.04 0 .06.02.06.04l-.1.1c-.18.08-.24.22-.18.4l-.01.06c-.01.02-.03.03-.05.01-.03-.01-.05 0-.07.02l-.01.04c0 .03.02.06.04.08.08.06.14.13.2.2l.06.06.15.09c-.1.01-.18 0-.23-.05a2.1 2.1 0 0 1-.43-.5.13.13 0 0 0-.06-.04c-.09-.04-.18-.1-.26-.16-.06-.06-.12-.06-.2-.08a.13.13 0 0 1-.07-.04.38.38 0 0 0-.17-.1c-.15-.05-.26-.13-.4-.18a.35.35 0 0 1-.2-.18.1.1 0 0 0-.05-.05.31.31 0 0 1-.14-.12h.03c.31.29.68.5 1.1.62.19.06.3.16.45.25.03.02.05.01.06-.01a.9.9 0 0 0 .13-.28c.17-.13.27-.3.32-.52 0-.03 0-.05-.02-.07-.15-.19-.25-.4-.4-.59a1.8 1.8 0 0 1-.23-.38.93.93 0 0 0-.21-.3c-.31-.3-.62-.48-1.06-.4-.02 0-.03 0-.03-.03v-.05l.03-.02a.54.54 0 0 0 .21-.1.16.16 0 0 1 .19-.01l.3.19a.03.03 0 0 0 .02 0l.01-.02v-.01a.6.6 0 0 1 .32-.58c.1-.05.1-.04.03.04-.13.13-.22.22-.2.43Z" fill="#694E3F"/><path d="M12.13 8.78c.02.14.09.3.2.51.04.05.03.06-.02.03-.18-.13-.26-.33-.24-.58 0-.03.02-.04.04-.01l.02.05ZM8.88 9.04c-.02.06-.02.1-.01.13.02.06.07.08.13.08.02 0 .04 0 .05.02.03.02.04.04.05.07a.05.05 0 0 0 .03.03.04.04 0 0 0 .03 0 .2.2 0 0 1 .07-.01c.03 0 .05 0 .06.03l.03.08c-.02.02-.02.03 0 .02-.1 0-.17-.03-.2-.08a.09.09 0 0 0-.06-.04.34.34 0 0 0-.11 0c-.04 0-.06.02-.06.06v.03a.06.06 0 0 0 .01.05.06.06 0 0 0 .04.02h.11l.03.02v.08a.18.18 0 0 0-.16 0 .06.06 0 0 1-.06 0l-.02-.02v-.03l-.01-.34s0-.02-.02-.03l-.03-.01c-.02 0-.03 0-.03.02 0 .21-.02.4-.07.57l-.01.07c0 .04-.02.05-.05.04h-.04c-.03 0-.04.03-.04.06l.02.35v.43c-.04.12-.05.23-.06.34 0 .01 0 .02-.02.03-.03 0-.04.02-.05.04l-.01.15c-.01.08.02.14.1.17.04.02.1.02.17 0a.93.93 0 0 1 .22-.02l.59.1h-.06c-.03.01-.04.03-.03.06 0 .03.02.05.05.05.16 0 .3.01.42.04.26.06.5-.01.76 0l.04.01.02.03a.09.09 0 0 1 .01.07c-.08.3-.14.65-.3.94-.1.19-.27.26-.46.27-.3 0-.61-.02-.94-.07a1.75 1.75 0 0 0-.44-.01.07.07 0 0 0-.02.02c-.04.07-.1.1-.17.1-.02 0-.04-.02-.05-.04-.02-.05 0-.1.05-.13.02 0 .02-.02 0-.03a.25.25 0 0 0-.1-.08c-.06-.03-.06-.06 0-.08.1-.05.18-.04.27.03l.06.02h.2a.1.1 0 0 1 .08.04l.08.04c.03.01.04 0 .03-.04-.03-.06-.09-.08-.17-.07a.1.1 0 0 1-.08-.02l-.14-.1a.08.08 0 0 1-.03-.06c0-.24-.07-.45-.21-.64-.03-.03-.04-.03-.04 0 0 .05 0 .08.02.11a2.46 2.46 0 0 1 .19.56c0 .02-.01.03-.03.04a.08.08 0 0 1-.03.02h-.05a1.08 1.08 0 0 1-.22-.15c-.14-.11-.08-.27-.08-.42a6.24 6.24 0 0 0-.02-.75.79.79 0 0 0 .07-.44v-.02a.03.03 0 0 1 .03 0l.02-.02-.01-.03c-.12-.09-.17-.21-.14-.38v-.07a3.62 3.62 0 0 0-.2-.5 3.98 3.98 0 0 1-.33-.95c-.03-.15.01-.18.13-.1.32.24.72.31 1.2.24Z" fill="#3A3B3C"/><path d="m10.03 8.87-.01.37v.04l.04.02.08.03c.03 0 .04.02.04.05l.05.55a.48.48 0 0 1-.07-.26.09.09 0 0 0-.06-.08.25.25 0 0 1-.13-.18c-.01-.05-.03-.05-.06-.02a.33.33 0 0 1-.2.1.24.24 0 0 0-.17.08.26.26 0 0 0-.06.18 2.86 2.86 0 0 1-.03.38v-.01c.03-.27-.02-.48-.14-.63v-.02c.05.02.09.01.11-.02l.04-.03.04.03.01.01.02.01a.1.1 0 0 0 .05-.01l.02-.02.01-.02c0-.03.01-.04.03-.06a.08.08 0 0 1 .05 0c.13.01.22-.06.29-.2 0-.03 0-.05-.03-.05 0 0-.02 0-.02-.02a.06.06 0 0 1-.01-.05.3.3 0 0 1 .11-.17Z" fill="#8B8B8B"/><path d="m9.43 9.1-.08-.01c-.04-.02-.04-.04 0-.05a.3.3 0 0 1 .24.02c.03.01.03.02 0 .02l-.16.02Z" fill="#A1A3A7"/><path d="M11.4 10.72c-.03-.01-.02-.03 0-.06.13-.14.28-.24.45-.31.1-.04.24-.2.42-.46v-.03c0-.02.01-.03.03-.04l.32-.2a.48.48 0 0 0 .19-.18c.24-.13.56-.18.7.07.07.11.06.13-.04.04a.44.44 0 0 0-.5-.07c-.2.09-.41.24-.57.4-.2.21-.4.45-.64.58-.1.05-.2.13-.29.21a.11.11 0 0 1-.05.04h-.03Z" fill="#694E3F"/><path d="m13.77 9.36.01.13c0 .02.01.03.02 0a5.27 5.27 0 0 1 .05.23c0 .1.03.2.06.33.05.17.08.35.09.54 0 .08 0 .13-.03.14-.23.1-.45.2-.65.31a.73.73 0 0 0-.2.17c-.17.2-.45.15-.65.25a.14.14 0 0 1-.08.02c-.27-.02-.82.23-.99.2-.02-.05-.03-.14 0-.26-.02-.02-.02-.06 0-.1.2.03.37 0 .54-.08l.26-.12c.19-.09.4-.17.61-.25.11-.04.23-.12.34-.23.14-.13.3-.1.46-.19l.2-.1a.09.09 0 0 0 .06-.06.4.4 0 0 0-.02-.28c-.08-.2-.11-.42-.08-.65Z" fill="#D4AB9E"/><path d="M9.31 9.5c.12.14.17.35.13.62h.01l.03-.37c0-.07.02-.13.06-.18.04-.05.1-.08.16-.08.08-.01.15-.04.21-.1.03-.03.05-.03.06.02.02.08.06.14.13.18.04.02.06.04.06.08 0 .1.02.18.07.26v.12c0 .02 0 .03.02.04 0 .02.02.03.03.03.03.02.04.04.04.07 0 .03.02.05.04.07.1.1.2.18.32.22l.02-.01v-.02a.23.23 0 0 1-.09-.07c-.03-.04-.02-.06.03-.06h.07c.03 0 .05.01.06.04 0 .03 0 .05-.02.07a.05.05 0 0 0-.02.06c.03.1.08.17.15.22l.06.12a.63.63 0 0 1-.42.5.87.87 0 0 1-.36.03.97.97 0 0 0-.49.09.12.12 0 0 1-.08 0 2.5 2.5 0 0 0-.8 0c-.11.02-.24-.02-.37-.15l.01-.15c0-.02.02-.04.05-.04l.02-.03c0-.11.02-.22.05-.34a.68.68 0 0 0 .02-.21l-.01-.22c.1-.09.13-.16.08-.23-.09-.12-.07-.16.07-.13a.52.52 0 0 0 .19 0 .02.02 0 0 0 0-.02l.01-.06.03-.01.12-.05.02-.02.01-.03-.01-.04a.12.12 0 0 1 0-.1v-.07l-.03-.01-.1-.01a.06.06 0 0 1-.05-.02.06.06 0 0 1-.01-.05v-.03c0-.04.02-.06.06-.06h.11c.02 0 .04.02.06.04.03.05.1.08.2.08Z" fill="#F2F1E9"/><path d="M9.82 10.22v.03c-.05 0-.07-.02-.08-.08a.73.73 0 0 1 .15-.52 16.3 16.3 0 0 0 0 .48l-.07.1Z" fill="#646A76"/><path d="M10.18 10.35c-.02.09-.03.13-.04.1.04-.06.02-.09-.05-.1-.03 0-.05 0-.07.02a.36.36 0 0 1-.17.08l-.04-.2.01-.03c.05.02.1 0 .13-.07.06-.11.07-.26.02-.46 0-.01 0-.02.02-.02h.05c.03.16.03.31.01.46 0 .06 0 .1.02.13.02.04.06.06.1.09Z" fill="#8B8B8B"/><path d="M4.66 9.71c.01-.03.05-.04.12-.02.07 0 .16.03.24.08h.02l.22.14c.05.05.07.09.06.11v.01l-.66-.32Z" fill="#3A3B3C"/><path d="m9.08 9.72.01.04v.03l-.03.02-.12.05-.03.01v.06a.02.02 0 0 1 0 .02H8.9l-.01.01H8.7c-.13-.04-.16 0-.07.12.05.07.02.14-.08.23l-.02-.35c0-.03.01-.05.04-.06h.04c.03 0 .05 0 .05-.04V9.8l.02.06h.01a.02.02 0 0 0 .03 0v-.1c0-.03.01-.04.04-.04l.3.01Z" fill="#313946"/><path d="M4.05 9.82c.03.08.06.12.1.13.03 0 .05.01.06.03.1.1.2.19.32.26.25.14.5.32.72.54.1.09.2.17.34.25.1.06.2.14.3.23.15.12.3.23.47.31a.9.9 0 0 1-.13.28c-.01.02-.03.03-.06.01-.15-.09-.26-.2-.45-.25a2.7 2.7 0 0 1-1.1-.63 1.68 1.68 0 0 1-.3-.28 1.69 1.69 0 0 1-.27-.88Z" fill="#D4AB9E"/><path d="M10.96 9.91c.07.1.12.2.14.3 0 .04 0 .05-.03.05H11a.07.07 0 0 1-.02-.05l-.03-.13a.12.12 0 0 0-.15-.1.07.07 0 0 0-.04.04.08.08 0 0 0-.01.05l.03.19c-.17.06-.3.02-.39-.12.03 0 .04-.01.04-.03.06.04.11.04.17 0a.07.07 0 0 0 .04-.06v-.08c0-.02.01-.04.03-.05.1-.04.2-.04.29 0Z" fill="#A1A3A7"/><path d="M9 9.98c.05-.05.1-.03.11.05.02.05.01.1-.01.14a.11.11 0 0 0-.02.06c0 .02.01.03.03.04.03 0 .05.02.06.05v.08c0 .04-.02.04-.03 0a.21.21 0 0 0-.21-.15c-.06 0-.08.03-.08.09l.01.03c0 .03.02.05.03.07.02.02.05.03.07.03.1.01.15.07.17.16 0 .06.03.1.08.12.02 0 .03.02.05.04.09.12.06.17-.08.14a1.64 1.64 0 0 1-.52-.17c-.02 0-.03-.02-.02-.04l.09-.53c0-.03.01-.05.03-.06L9 9.98ZM10.14 10.45c-.06 0-.1.03-.1.09 0 .1.02.15.06.16l.2.03.04.04v.05c0 .03-.02.05-.05.06l-.2.1a.08.08 0 0 1-.1-.02c-.08-.09-.25-.21-.24-.36 0-.07.03-.12.1-.15a.37.37 0 0 0 .17-.08.08.08 0 0 1 .07-.02c.07.01.09.04.05.1Z" fill="#313946"/><path d="M5.3 11.16c.08.19.26.16.4.23.11.05.1.07-.01.06a.17.17 0 0 1-.09-.04.17.17 0 0 0-.08-.03.45.45 0 0 1-.35-.2.2.2 0 0 0-.08-.08 1.66 1.66 0 0 1-.63-.6v-.02l.02-.01h.01c.2.29.46.5.75.62a.1.1 0 0 1 .04.03l.02.04Z" fill="#3A3B3C"/><path d="M12.45 11.3v-.07c.37-.17.64-.32.84-.43.06-.04.12-.11.18-.21a.03.03 0 0 1 .02-.02h.02l.02.02v.01c-.12.2-.26.35-.42.43-.22.11-.38.2-.48.28-.04.03-.1.03-.18 0Z" fill="#694E3F"/><path d="m13.97 10.73-.64.38a.19.19 0 0 0-.06.05c-.11.16-.26.18-.43.25-.1.04-.2.06-.3.08l-.57.07a.86.86 0 0 1 .42-.08c.03 0 .05 0 .08-.02.2-.1.48-.06.64-.25a.73.73 0 0 1 .21-.17c.2-.11.42-.21.65-.3Z" fill="#694E3F"/><path d="m10.94 10.83.09.2c0 .03.02.04.05.05l.27.01c.01.09 0 .13-.06.13h-.2a.06.06 0 0 0-.05.03.55.55 0 0 0-.06.2c-.02.1-.09.15-.21.13-.5-.05-.92-.06-1.27-.03l-.59-.1h-.13c.27-.05.54-.04.81 0h.08c.15-.07.31-.1.5-.09.13.02.25 0 .35-.03a.63.63 0 0 0 .42-.5Z" fill="#D4AB9E"/><path d="m8.9 11.07.07.11c.02.08 0 .12-.08.13-.06 0-.12 0-.17-.02a.09.09 0 0 1-.05-.05.9.9 0 0 1-.07-.27c-.01-.1.02-.12.1-.06l.06.06a.1.1 0 0 0 .07.04.1.1 0 0 1 .07.06Z" fill="#313946"/><path d="m11.35 11.1.02.02.01.07a.2.2 0 0 1 0 .11c0 .03-.03.04-.05.03a.45.45 0 0 0-.23 0h-.01a.03.03 0 0 0-.01.03v.02l.03.02a.33.33 0 0 0-.13.05c0-.07.03-.13.06-.2a.06.06 0 0 1 .05-.03h.2c.05 0 .07-.04.06-.13Z" fill="#694E3F"/><path d="m7.84 11.32-.25.75-.05.11a.42.42 0 0 1-.34.1c-.44-.07-.62-.31-.54-.75l.11-.1.04-.13c.18-.1.42-.12.72-.08h.24c.04 0 .06.03.07.1Z" fill="#FBF0DD"/><path d="M7.84 11.32c.07.07.12.18.12.33a.26.26 0 0 1-.1.09.07.07 0 0 0-.02.03v.06h.02l.02.01h.06c.03 0 .04 0 .04.03V12a102.94 102.94 0 0 0-.24.72.28.28 0 0 1-.04.03l-.46-.1c-.1-.01-.15-.06-.15-.14 0-.03 0-.04-.03-.05a.13.13 0 0 0-.12.02c-.04.03-.08.04-.14 0l-.15-.08a.18.18 0 0 1-.06-.05 1.27 1.27 0 0 0-.2-.21.13.13 0 0 1-.04-.08v-.04c.03-.03.05-.03.08-.02.02.02.04.01.05 0a.07.07 0 0 0 0-.07c-.05-.18 0-.32.18-.4-.08.44.1.68.54.74.13.02.24 0 .34-.09 0 .04.02.05.06.03.03-.01.05 0 .07.02.02.03.04.03.06.03.1-.02.1-.05.01-.1l-.15-.09.25-.75Z" fill="#D4AB9E"/><path d="M8.42 11.3c.13.13.25.17.36.14l.13.01c-.08 0-.15 0-.23.02-.07.02-.12.02-.16 0-.08-.03-.11-.09-.1-.17ZM7.54 12.18l.05-.1.15.08c.1.05.09.08-.01.1-.02 0-.04 0-.06-.03-.02-.03-.04-.03-.07-.02-.04.02-.06.01-.06-.03Z" fill="#8B8B8B"/><path d="M7.24 12.65v.03c.01.02 0 .03-.02.03H7.2c-.11 0-.2-.08-.26-.23a.13.13 0 0 1 .12-.02c.02 0 .03.02.03.05 0 .08.04.13.15.14Z" fill="#694E3F"/><path d="m7.24 12.65.46.1a.3.3 0 0 0-.17.03l-.33-.07a.1.1 0 0 0 .02 0c.03 0 .03-.01.03-.03l-.01-.03Z" fill="#8B8B8B"/><path d="m11.44 12.7.1.73c0 .06.05.13.13.22.08.1.1.17.14.28a.52.52 0 0 1-.27.07h-1.2a.17.17 0 0 1 .11-.03c.04 0 .05-.02.04-.05v-.02h-.01l-.1-.03-.02-.04c0-.05.03-.09.07-.11.1-.05.18-.1.27-.18a.1.1 0 0 1 .08-.02c.13.02.28.07.43.16.02.01.05.01.07 0 .04-.02.04-.03 0-.05-.22-.1-.45-.2-.36-.52 0-.03.03-.05.05-.04.08 0 .14 0 .2-.03.17-.1.26-.2.27-.34ZM9.08 14a26.19 26.19 0 0 1-1.92-.04v-.06c.18-.24.3-.5.4-.8a.78.78 0 0 1 .38 0 .1.1 0 0 1 .06.05.1.1 0 0 1 0 .07c-.04.16-.11.3-.2.4l.01.05.02.01h.02l.23-.25c.01-.03.04-.03.06-.01.16.11.33.21.51.3.1.03.14.1.14.21 0 .03.02.04.04.04l.25.02Z" fill="#313946"/><path d="m8.7 13.62-.58-.27-.01-.01v-.17l.02-.01a.03.03 0 0 1 .02 0l.47.1h.02v.02l.1.3a.03.03 0 0 1 0 .04h-.03Z" fill="#313946"/><path fill="#D9D9D9" d="M7.66 7.62h2.15v.4H7.66zM10.06 7.62h1.13v.4h-1.13z"/><path d="M8.44 7.08a1.69 1.69 0 0 1-.36-.84l.14-.02c.03.2.12.51.33.76.2.25.52.45 1 .43a1.25 1.25 0 0 0 1.26-1.19l.15.02c-.02.2-.1.53-.32.8s-.56.5-1.08.52c-.53.02-.89-.2-1.12-.48Z" fill="#BA9783"/></svg>