<!-- by TradingView --><svg width="18" height="18" viewBox="0 0 18 18" xmlns="http://www.w3.org/2000/svg"><path fill="#F0F3FA" d="M0 0h18v18H0z"/><path d="M14 9A5 5 0 1 1 4 9a5 5 0 0 1 10 0Z" fill="url(#a)"/><path d="M13.38 9a4.38 4.38 0 1 1-8.76 0 4.38 4.38 0 0 1 8.75 0Z" fill="url(#b)"/><path d="M7 6H6v6l3-4H7V6Z" fill="#EB9EBE"/><path d="M11 12h1V6l-3 4h2v2Z" fill="#AD26FE"/><defs><linearGradient id="a" x1="9" y1="4" x2="9" y2="14" gradientUnits="userSpaceOnUse"><stop stop-color="#30017A"/><stop offset="1" stop-color="#6100FD"/></linearGradient><linearGradient id="b" x1="8.29" y1="4.62" x2="9" y2="13.38" gradientUnits="userSpaceOnUse"><stop stop-color="#08070F"/><stop offset="1" stop-color="#152B52"/></linearGradient></defs></svg>