<!-- by TradingView --><svg xmlns="http://www.w3.org/2000/svg" width="18" height="18"><path fill="#F0F3FA" d="M0 0h18v18H0z"/><path d="M4 7.62c0-.34.26-.62.57-.62h.52c.32 0 .58.28.58.62v2.76c0 .34-.26.62-.58.62h-.52c-.31 0-.57-.28-.57-.62V7.62z" fill="#734ACC"/><path d="M12.33 7.5c0-.28.26-.5.58-.5h.52c.31 0 .57.22.57.5v2c0 .28-.26.5-.57.5h-.52c-.32 0-.58-.22-.58-.5v-2z" fill="#AC8CE1"/><path d="M10.33 8.62c0-.34.26-.62.58-.62h.52c.31 0 .57.28.57.62v3.76c0 .34-.26.62-.57.62h-.52c-.32 0-.58-.28-.58-.62V8.62z" fill="#936ED8"/><path d="M6.33 4.6c0-.34.26-.6.58-.6h.52c.31 0 .57.26.57.6v4.8c0 .34-.26.6-.57.6H6.9a.58.58 0 01-.58-.6V4.6z" fill="#6640C7"/><path d="M8.33 5.54c0-.32.26-.57.58-.57h.52c.31 0 .57.25.57.57v7.9c0 .3-.26.56-.57.56H8.9a.57.57 0 01-.58-.57v-7.9z" fill="#8961D4"/></svg>