<!-- by TradingView --><svg xmlns="http://www.w3.org/2000/svg" width="18" height="18" viewBox="0 0 18 18"><path fill="url(#a0xohm30w)" d="M0 0h18v18H0z"/><path fill-rule="evenodd" d="M9 10a1 1 0 0 1-.55-.16l-.17-.13c-.13-.1-.24-.2-.42-.24-.37-.08-1.08-.04-1.28.37-.19.37-.2.81-.03 1.2.05.12.12.23.2.33.13.18.25.36.25.63a1 1 0 1 1-2 0c0-.27.12-.45.25-.63a1.43 1.43 0 0 0 .17-1.54c-.06-.1-.12-.19-.19-.27C5.11 9.41 5 9.26 5 9c0-.27.12-.45.25-.63a1.43 1.43 0 0 0 .17-1.54c-.06-.1-.12-.19-.19-.27C5.11 6.41 5 6.26 5 6a1 1 0 0 1 1-1c.27 0 .45.12.63.25a1.43 1.43 0 0 0 1.54.17c.1-.06.19-.12.27-.19.15-.12.3-.23.56-.23a1 1 0 0 1 1 1c0 .27-.11.41-.23.56a1.43 1.43 0 0 0-.22 1.47c.05.13.12.24.2.34.13.18.25.36.25.63a1 1 0 0 1-1 1zm-.9-3.55a1.22 1.22 0 0 1 .45 1.66 1.22 1.22 0 0 1-1.66.44 1.22 1.22 0 0 1-.44-1.66 1.22 1.22 0 0 1 1.66-.44zM6.9 7.47a.14.14 0 0 0 0 .2l.5.5c.05.06.14.06.2 0l.5-.5a.14.14 0 0 0 0-.2l-.5-.5a.14.14 0 0 0-.2 0l-.5.5zM13 6a1 1 0 1 1-2 0 1 1 0 0 1 2 0zm0 3a1 1 0 1 1-2 0 1 1 0 0 1 2 0zm-1 4a1 1 0 1 0 0-2 1 1 0 0 0 0 2zm-2-1a1 1 0 1 1-2 0 1 1 0 0 1 2 0z" fill="url(#b0xohm30w)"/><defs><linearGradient id="a0xohm30w" x1="3.35" y1="3.12" x2="21.9" y2="24.43" gradientUnits="userSpaceOnUse"><stop stop-color="#1A1E21"/><stop offset="1" stop-color="#06060A"/></linearGradient><linearGradient id="b0xohm30w" x1="5.43" y1="5.43" x2="12.71" y2="12.71" gradientUnits="userSpaceOnUse"><stop stop-color="#067CB7"/><stop offset="1" stop-color="#33B5B8"/></linearGradient></defs></svg>