<!-- by TradingView --><svg width="18" height="18" viewBox="0 0 18 18" xmlns="http://www.w3.org/2000/svg"><path fill="url(#agqploha2)" d="M0 0h18v18H0z"/><path d="M8.01 13.77h.02v-.02l.13-1.5c0-.04 0-.09-.04-.12-.77-.75 0-1.96 1.03-1.62a.96.96 0 0 1 .2 1.74.1.1 0 0 0-.06.08 92.68 92.68 0 0 1-.18 1.95.14.14 0 0 1-.04.04l-1.1.67a.08.08 0 0 1-.08 0l-3.85-2.25A.07.07 0 0 1 4 12.7L4 12.67l.11-1.29.02-.05a.14.14 0 0 1 .05-.05l8.73-5.3.01-.02v-.01a.03.03 0 0 0-.01-.03L10 4.22a.03.03 0 0 0-.04.01v.02c-.03.46-.08.95-.13 1.44 0 .08.02.13.06.17.5.46.4 1.24-.2 1.57-.5.27-1.12.08-1.38-.42a.9.9 0 0 1 .08-.98c.07-.1.17-.18.26-.27a.15.15 0 0 0 .05-.1l.16-1.8c0-.08-.01-.14.07-.2.37-.21.73-.43 1.08-.65a.07.07 0 0 1 .08 0l3.87 2.26a.05.05 0 0 1 .03.05l-.12 1.31c0 .05-.03.08-.06.1a2474.6 2474.6 0 0 0-8.74 5.33.04.04 0 0 0 .02.03 502.93 502.93 0 0 0 2.91 1.68Z" fill="#fff"/><defs><linearGradient id="agqploha2" x1="14.15" y1="4.47" x2="2.18" y2="11.59" gradientUnits="userSpaceOnUse"><stop stop-color="#FF8931"/><stop offset="1" stop-color="#EE540C"/></linearGradient></defs></svg>