<!-- by TradingView --><svg width="18" height="18" viewBox="0 0 18 18" xmlns="http://www.w3.org/2000/svg"><path fill="url(#a)" d="M0 0h18v18H0z"/><path fill-rule="evenodd" d="M9.08 3 14 6v6.04L9.08 15 4 12.04V6l5.08-3ZM4.6 6.49h2.75v4.85l-2.75.2V6.48Zm.71 5.6 3.07 1.8-.91-1.94-2.16.15Zm2.73-.34 1.16 2.46 4.08-2.45-1.44-2.3-3.8 2.3Zm3.8-3.14 1.44-2.33-4.09-2.5-1.15 2.3 3.8 2.53ZM7.46 5.87l.88-1.72-2.92 1.72h2.04Zm.54.87 3.36 2.29L8 11.09V6.74Zm5.4.5-1.11 1.8 1.11 1.78V7.24Z" fill="url(#b)"/><defs><linearGradient id="a" x1="3.35" y1="3.12" x2="21.9" y2="24.43" gradientUnits="userSpaceOnUse"><stop stop-color="#1A1E21"/><stop offset="1" stop-color="#06060A"/></linearGradient><linearGradient id="b" x1="12.66" y1="5.42" x2="5.99" y2="13.27" gradientUnits="userSpaceOnUse"><stop stop-color="#0FFAA7"/><stop offset="1" stop-color="#10FBE6"/></linearGradient></defs></svg>