<!-- by TradingView --><svg width="18" height="18" viewBox="0 0 18 18" xmlns="http://www.w3.org/2000/svg"><path fill="#F0F3FA" d="M0 0h18v18H0z"/><path d="M9 15A6 6 0 1 0 9 3a6 6 0 0 0 0 12ZM4.41 6.34a.5.5 0 0 0-.06.02 5.35 5.35 0 1 1 4.66 8 2.02 2.02 0 1 1 1.03-3.77l.8.8c.1.15.9.1 1.04 0 .11-.07.1-.43.1-.58 0-.05.01-.09.04-.12l.42-.37c.07-.08.1-.33.1-.45 0-.05.02-.08.05-.11.13-.11.2-.28.22-.37a.13.13 0 0 0-.02-.11l-.74-1.18a.13.13 0 0 1-.02-.09c.01-.1 0-.32-.24-.61a9.19 9.19 0 0 0-2.17-1.32 2.22 2.22 0 0 0-.54 0c-.05 0-.08-.01-.11-.04-.16-.16-.68-.67-.8-.76-.14-.08-.2-.03-.23 0-.06.05-.14.37-.18.58a.14.14 0 0 1-.15.11c-.9-.09-2.4.2-3.2.37Z"/></svg>