<!-- by TradingView --><svg width="18" height="18" viewBox="0 0 18 18" xmlns="http://www.w3.org/2000/svg"><path fill="url(#azrbna2px)" d="M0 0h18v18H0z"/><path d="M13.51 12.17c-.1.29-.27.55-.5.76l-.08.09a2.1 2.1 0 0 1-.76.5 2.35 2.35 0 0 1-2.48-.53l-.45-.45.85-.84.35.35c.14.15.3.26.5.35.12.05.26.08.4.08h.06a1.2 1.2 0 0 0 1.07-1.08c.01-.15-.02-.31-.08-.46-.08-.18-.2-.35-.35-.5l-.34-.34.84-.85.45.44c.2.22.38.47.5.75a2.46 2.46 0 0 1 .02 1.74ZM8.32 13c-.2.22-.46.39-.74.5a2.47 2.47 0 0 1-1.74.03 2.1 2.1 0 0 1-.76-.5L5 12.95a2.13 2.13 0 0 1-.5-.76 2.36 2.36 0 0 1 .54-2.49l1.5-1.51a1.36 1.36 0 0 1-.1 1.8l-.46.46c-.15.14-.27.3-.35.5-.06.14-.1.3-.09.47.02.14.06.28.13.41a1.2 1.2 0 0 0 .95.66c.16 0 .32-.02.47-.09.19-.08.36-.2.5-.35l1.17-1.18a1.4 1.4 0 0 1 1.81-.12L8.32 13Zm-3.3-4.66a2.2 2.2 0 0 1-.5-.75 2.44 2.44 0 0 1-.03-1.74c.1-.28.27-.54.5-.76L5.06 5c.21-.21.47-.38.76-.49a2.34 2.34 0 0 1 2.48.53l.45.45-.84.84-.36-.35c-.14-.14-.3-.26-.5-.35-.14-.06-.3-.09-.46-.08a1.3 1.3 0 0 0-.72.34c-.1.1-.17.2-.23.3-.07.14-.11.28-.13.43 0 .16.03.32.1.46.07.19.19.36.34.5l.35.35-.85.84-.45-.43Zm5.91 2.29a1.7 1.7 0 0 0-1.86-.37c-.2.08-.4.2-.55.37L7.34 11.8c-.1.12-.23.2-.38.27-.1.05-.2.07-.31.07a.8.8 0 0 1-.3-.1.95.95 0 0 1-.22-.16 1 1 0 0 1-.16-.22.8.8 0 0 1-.09-.29c0-.1.02-.22.06-.32.07-.14.16-.27.28-.38l.45-.47a1.71 1.71 0 0 0 0-2.4l-.47-.47c-.11-.11-.2-.24-.27-.38a.76.76 0 0 1-.06-.32c0-.1.04-.2.09-.29.04-.08.1-.16.16-.23a.95.95 0 0 1 .22-.16.77.77 0 0 1 .28-.09c.1 0 .22.02.32.07.14.06.27.15.38.27l.35.35-.65.65.12.11A1.7 1.7 0 0 0 9 7.68c.21-.08.4-.2.56-.37l1.11-1.11c.1-.12.24-.21.38-.28.1-.04.2-.06.31-.06.1.01.2.04.3.09a.87.87 0 0 1 .48.68c0 .11-.02.22-.06.32-.07.14-.16.27-.28.38l-.47.47a1.71 1.71 0 0 0 0 2.41l.12.12.35.35c.11.1.2.23.27.38.04.1.06.2.06.3 0 .11-.04.2-.09.3a.87.87 0 0 1-.67.48.8.8 0 0 1-.32-.07 1.2 1.2 0 0 1-.38-.27l-.35-.35.72-.72-.1-.11ZM9.7 5.02c.21-.22.46-.38.74-.5a2.42 2.42 0 0 1 1.74-.03c.29.11.55.28.76.5l.1.08c.21.22.38.48.49.76a2.35 2.35 0 0 1-.53 2.49l-1.53 1.53a1.37 1.37 0 0 1 .12-1.8l.47-.48c.15-.14.26-.3.34-.49.07-.15.1-.31.09-.47a1.13 1.13 0 0 0-.13-.42 1.2 1.2 0 0 0-.95-.66h-.05c-.14 0-.29.03-.42.09-.19.08-.35.2-.5.35l-1.1 1.11a1.37 1.37 0 0 1-1.81.12l2.17-2.18Zm3.54 4.42L12.79 9l.44-.44c.24-.25.44-.54.57-.86a2.79 2.79 0 0 0 .03-1.98 2.45 2.45 0 0 0-.57-.88l-.09-.1a2.44 2.44 0 0 0-.88-.56 2.66 2.66 0 0 0-1.99.03c-.32.13-.61.33-.85.57L9 5.22l-.45-.44a2.56 2.56 0 0 0-.85-.58 2.8 2.8 0 0 0-1.99-.03c-.33.13-.63.32-.88.57l-.09.1c-.25.24-.44.54-.57.87a2.69 2.69 0 0 0 .6 2.85l.45.44-.43.44a2.77 2.77 0 0 0-.6 2.84c.12.34.31.64.56.89l.1.08c.24.26.54.45.87.58.3.11.62.17.95.17h.05a2.58 2.58 0 0 0 1.84-.77l.44-.44.45.44c.24.24.53.44.85.57.31.12.65.2.99.2h.06c.32 0 .64-.06.94-.17.33-.13.63-.32.88-.57l.09-.09c.25-.25.45-.55.57-.88a2.68 2.68 0 0 0-.03-1.99 2.56 2.56 0 0 0-.57-.85" fill="#E60028"/><defs><linearGradient id="azrbna2px" x1="3.35" y1="3.12" x2="21.9" y2="24.43" gradientUnits="userSpaceOnUse"><stop stop-color="#1A1E21"/><stop offset="1" stop-color="#06060A"/></linearGradient></defs></svg>